%TF.GenerationSoftware,KiCad,Pcbnew,10.0.0*%
%TF.CreationDate,2026-04-24T18:37:39-04:00*%
%TF.ProjectId,LM2679PiRegulator,4c4d3236-3739-4506-9952-6567756c6174,rev?*%
%TF.SameCoordinates,Original*%
%TF.FileFunction,Legend,Top*%
%TF.FilePolarity,Positive*%
%FSLAX46Y46*%
G04 Gerber Fmt 4.6, Leading zero omitted, Abs format (unit mm)*
G04 Created by KiCad (PCBNEW 10.0.0) date 2026-04-24 18:37:39*
%MOMM*%
%LPD*%
G01*
G04 APERTURE LIST*
%ADD10C,0.150000*%
%ADD11C,0.254000*%
%ADD12C,0.120000*%
%ADD13C,0.100000*%
%ADD14C,0.000000*%
%ADD15C,0.200000*%
%ADD16C,0.152400*%
G04 APERTURE END LIST*
D10*
X172799580Y-97916666D02*
X172847200Y-97964285D01*
X172847200Y-97964285D02*
X172894819Y-98107142D01*
X172894819Y-98107142D02*
X172894819Y-98202380D01*
X172894819Y-98202380D02*
X172847200Y-98345237D01*
X172847200Y-98345237D02*
X172751961Y-98440475D01*
X172751961Y-98440475D02*
X172656723Y-98488094D01*
X172656723Y-98488094D02*
X172466247Y-98535713D01*
X172466247Y-98535713D02*
X172323390Y-98535713D01*
X172323390Y-98535713D02*
X172132914Y-98488094D01*
X172132914Y-98488094D02*
X172037676Y-98440475D01*
X172037676Y-98440475D02*
X171942438Y-98345237D01*
X171942438Y-98345237D02*
X171894819Y-98202380D01*
X171894819Y-98202380D02*
X171894819Y-98107142D01*
X171894819Y-98107142D02*
X171942438Y-97964285D01*
X171942438Y-97964285D02*
X171990057Y-97916666D01*
X171894819Y-97059523D02*
X171894819Y-97249999D01*
X171894819Y-97249999D02*
X171942438Y-97345237D01*
X171942438Y-97345237D02*
X171990057Y-97392856D01*
X171990057Y-97392856D02*
X172132914Y-97488094D01*
X172132914Y-97488094D02*
X172323390Y-97535713D01*
X172323390Y-97535713D02*
X172704342Y-97535713D01*
X172704342Y-97535713D02*
X172799580Y-97488094D01*
X172799580Y-97488094D02*
X172847200Y-97440475D01*
X172847200Y-97440475D02*
X172894819Y-97345237D01*
X172894819Y-97345237D02*
X172894819Y-97154761D01*
X172894819Y-97154761D02*
X172847200Y-97059523D01*
X172847200Y-97059523D02*
X172799580Y-97011904D01*
X172799580Y-97011904D02*
X172704342Y-96964285D01*
X172704342Y-96964285D02*
X172466247Y-96964285D01*
X172466247Y-96964285D02*
X172371009Y-97011904D01*
X172371009Y-97011904D02*
X172323390Y-97059523D01*
X172323390Y-97059523D02*
X172275771Y-97154761D01*
X172275771Y-97154761D02*
X172275771Y-97345237D01*
X172275771Y-97345237D02*
X172323390Y-97440475D01*
X172323390Y-97440475D02*
X172371009Y-97488094D01*
X172371009Y-97488094D02*
X172466247Y-97535713D01*
X162394819Y-99297619D02*
X162394819Y-99869047D01*
X162394819Y-99583333D02*
X161394819Y-99583333D01*
X161394819Y-99583333D02*
X161537676Y-99678571D01*
X161537676Y-99678571D02*
X161632914Y-99773809D01*
X161632914Y-99773809D02*
X161680533Y-99869047D01*
X161823390Y-98726190D02*
X161775771Y-98821428D01*
X161775771Y-98821428D02*
X161728152Y-98869047D01*
X161728152Y-98869047D02*
X161632914Y-98916666D01*
X161632914Y-98916666D02*
X161585295Y-98916666D01*
X161585295Y-98916666D02*
X161490057Y-98869047D01*
X161490057Y-98869047D02*
X161442438Y-98821428D01*
X161442438Y-98821428D02*
X161394819Y-98726190D01*
X161394819Y-98726190D02*
X161394819Y-98535714D01*
X161394819Y-98535714D02*
X161442438Y-98440476D01*
X161442438Y-98440476D02*
X161490057Y-98392857D01*
X161490057Y-98392857D02*
X161585295Y-98345238D01*
X161585295Y-98345238D02*
X161632914Y-98345238D01*
X161632914Y-98345238D02*
X161728152Y-98392857D01*
X161728152Y-98392857D02*
X161775771Y-98440476D01*
X161775771Y-98440476D02*
X161823390Y-98535714D01*
X161823390Y-98535714D02*
X161823390Y-98726190D01*
X161823390Y-98726190D02*
X161871009Y-98821428D01*
X161871009Y-98821428D02*
X161918628Y-98869047D01*
X161918628Y-98869047D02*
X162013866Y-98916666D01*
X162013866Y-98916666D02*
X162204342Y-98916666D01*
X162204342Y-98916666D02*
X162299580Y-98869047D01*
X162299580Y-98869047D02*
X162347200Y-98821428D01*
X162347200Y-98821428D02*
X162394819Y-98726190D01*
X162394819Y-98726190D02*
X162394819Y-98535714D01*
X162394819Y-98535714D02*
X162347200Y-98440476D01*
X162347200Y-98440476D02*
X162299580Y-98392857D01*
X162299580Y-98392857D02*
X162204342Y-98345238D01*
X162204342Y-98345238D02*
X162013866Y-98345238D01*
X162013866Y-98345238D02*
X161918628Y-98392857D01*
X161918628Y-98392857D02*
X161871009Y-98440476D01*
X161871009Y-98440476D02*
X161823390Y-98535714D01*
X161394819Y-97726190D02*
X161394819Y-97630952D01*
X161394819Y-97630952D02*
X161442438Y-97535714D01*
X161442438Y-97535714D02*
X161490057Y-97488095D01*
X161490057Y-97488095D02*
X161585295Y-97440476D01*
X161585295Y-97440476D02*
X161775771Y-97392857D01*
X161775771Y-97392857D02*
X162013866Y-97392857D01*
X162013866Y-97392857D02*
X162204342Y-97440476D01*
X162204342Y-97440476D02*
X162299580Y-97488095D01*
X162299580Y-97488095D02*
X162347200Y-97535714D01*
X162347200Y-97535714D02*
X162394819Y-97630952D01*
X162394819Y-97630952D02*
X162394819Y-97726190D01*
X162394819Y-97726190D02*
X162347200Y-97821428D01*
X162347200Y-97821428D02*
X162299580Y-97869047D01*
X162299580Y-97869047D02*
X162204342Y-97916666D01*
X162204342Y-97916666D02*
X162013866Y-97964285D01*
X162013866Y-97964285D02*
X161775771Y-97964285D01*
X161775771Y-97964285D02*
X161585295Y-97916666D01*
X161585295Y-97916666D02*
X161490057Y-97869047D01*
X161490057Y-97869047D02*
X161442438Y-97821428D01*
X161442438Y-97821428D02*
X161394819Y-97726190D01*
X161728152Y-96535714D02*
X162394819Y-96535714D01*
X161728152Y-96964285D02*
X162251961Y-96964285D01*
X162251961Y-96964285D02*
X162347200Y-96916666D01*
X162347200Y-96916666D02*
X162394819Y-96821428D01*
X162394819Y-96821428D02*
X162394819Y-96678571D01*
X162394819Y-96678571D02*
X162347200Y-96583333D01*
X162347200Y-96583333D02*
X162299580Y-96535714D01*
X161871009Y-95726190D02*
X161871009Y-96059523D01*
X162394819Y-96059523D02*
X161394819Y-96059523D01*
X161394819Y-96059523D02*
X161394819Y-95583333D01*
X159299580Y-88166666D02*
X159347200Y-88214285D01*
X159347200Y-88214285D02*
X159394819Y-88357142D01*
X159394819Y-88357142D02*
X159394819Y-88452380D01*
X159394819Y-88452380D02*
X159347200Y-88595237D01*
X159347200Y-88595237D02*
X159251961Y-88690475D01*
X159251961Y-88690475D02*
X159156723Y-88738094D01*
X159156723Y-88738094D02*
X158966247Y-88785713D01*
X158966247Y-88785713D02*
X158823390Y-88785713D01*
X158823390Y-88785713D02*
X158632914Y-88738094D01*
X158632914Y-88738094D02*
X158537676Y-88690475D01*
X158537676Y-88690475D02*
X158442438Y-88595237D01*
X158442438Y-88595237D02*
X158394819Y-88452380D01*
X158394819Y-88452380D02*
X158394819Y-88357142D01*
X158394819Y-88357142D02*
X158442438Y-88214285D01*
X158442438Y-88214285D02*
X158490057Y-88166666D01*
X158394819Y-87833332D02*
X158394819Y-87166666D01*
X158394819Y-87166666D02*
X159394819Y-87595237D01*
X169894819Y-89547619D02*
X169894819Y-90119047D01*
X169894819Y-89833333D02*
X168894819Y-89833333D01*
X168894819Y-89833333D02*
X169037676Y-89928571D01*
X169037676Y-89928571D02*
X169132914Y-90023809D01*
X169132914Y-90023809D02*
X169180533Y-90119047D01*
X169323390Y-88976190D02*
X169275771Y-89071428D01*
X169275771Y-89071428D02*
X169228152Y-89119047D01*
X169228152Y-89119047D02*
X169132914Y-89166666D01*
X169132914Y-89166666D02*
X169085295Y-89166666D01*
X169085295Y-89166666D02*
X168990057Y-89119047D01*
X168990057Y-89119047D02*
X168942438Y-89071428D01*
X168942438Y-89071428D02*
X168894819Y-88976190D01*
X168894819Y-88976190D02*
X168894819Y-88785714D01*
X168894819Y-88785714D02*
X168942438Y-88690476D01*
X168942438Y-88690476D02*
X168990057Y-88642857D01*
X168990057Y-88642857D02*
X169085295Y-88595238D01*
X169085295Y-88595238D02*
X169132914Y-88595238D01*
X169132914Y-88595238D02*
X169228152Y-88642857D01*
X169228152Y-88642857D02*
X169275771Y-88690476D01*
X169275771Y-88690476D02*
X169323390Y-88785714D01*
X169323390Y-88785714D02*
X169323390Y-88976190D01*
X169323390Y-88976190D02*
X169371009Y-89071428D01*
X169371009Y-89071428D02*
X169418628Y-89119047D01*
X169418628Y-89119047D02*
X169513866Y-89166666D01*
X169513866Y-89166666D02*
X169704342Y-89166666D01*
X169704342Y-89166666D02*
X169799580Y-89119047D01*
X169799580Y-89119047D02*
X169847200Y-89071428D01*
X169847200Y-89071428D02*
X169894819Y-88976190D01*
X169894819Y-88976190D02*
X169894819Y-88785714D01*
X169894819Y-88785714D02*
X169847200Y-88690476D01*
X169847200Y-88690476D02*
X169799580Y-88642857D01*
X169799580Y-88642857D02*
X169704342Y-88595238D01*
X169704342Y-88595238D02*
X169513866Y-88595238D01*
X169513866Y-88595238D02*
X169418628Y-88642857D01*
X169418628Y-88642857D02*
X169371009Y-88690476D01*
X169371009Y-88690476D02*
X169323390Y-88785714D01*
X168894819Y-87976190D02*
X168894819Y-87880952D01*
X168894819Y-87880952D02*
X168942438Y-87785714D01*
X168942438Y-87785714D02*
X168990057Y-87738095D01*
X168990057Y-87738095D02*
X169085295Y-87690476D01*
X169085295Y-87690476D02*
X169275771Y-87642857D01*
X169275771Y-87642857D02*
X169513866Y-87642857D01*
X169513866Y-87642857D02*
X169704342Y-87690476D01*
X169704342Y-87690476D02*
X169799580Y-87738095D01*
X169799580Y-87738095D02*
X169847200Y-87785714D01*
X169847200Y-87785714D02*
X169894819Y-87880952D01*
X169894819Y-87880952D02*
X169894819Y-87976190D01*
X169894819Y-87976190D02*
X169847200Y-88071428D01*
X169847200Y-88071428D02*
X169799580Y-88119047D01*
X169799580Y-88119047D02*
X169704342Y-88166666D01*
X169704342Y-88166666D02*
X169513866Y-88214285D01*
X169513866Y-88214285D02*
X169275771Y-88214285D01*
X169275771Y-88214285D02*
X169085295Y-88166666D01*
X169085295Y-88166666D02*
X168990057Y-88119047D01*
X168990057Y-88119047D02*
X168942438Y-88071428D01*
X168942438Y-88071428D02*
X168894819Y-87976190D01*
X169228152Y-86785714D02*
X169894819Y-86785714D01*
X169228152Y-87214285D02*
X169751961Y-87214285D01*
X169751961Y-87214285D02*
X169847200Y-87166666D01*
X169847200Y-87166666D02*
X169894819Y-87071428D01*
X169894819Y-87071428D02*
X169894819Y-86928571D01*
X169894819Y-86928571D02*
X169847200Y-86833333D01*
X169847200Y-86833333D02*
X169799580Y-86785714D01*
X169371009Y-85976190D02*
X169371009Y-86309523D01*
X169894819Y-86309523D02*
X168894819Y-86309523D01*
X168894819Y-86309523D02*
X168894819Y-85833333D01*
X145883333Y-101063580D02*
X145835714Y-101111200D01*
X145835714Y-101111200D02*
X145692857Y-101158819D01*
X145692857Y-101158819D02*
X145597619Y-101158819D01*
X145597619Y-101158819D02*
X145454762Y-101111200D01*
X145454762Y-101111200D02*
X145359524Y-101015961D01*
X145359524Y-101015961D02*
X145311905Y-100920723D01*
X145311905Y-100920723D02*
X145264286Y-100730247D01*
X145264286Y-100730247D02*
X145264286Y-100587390D01*
X145264286Y-100587390D02*
X145311905Y-100396914D01*
X145311905Y-100396914D02*
X145359524Y-100301676D01*
X145359524Y-100301676D02*
X145454762Y-100206438D01*
X145454762Y-100206438D02*
X145597619Y-100158819D01*
X145597619Y-100158819D02*
X145692857Y-100158819D01*
X145692857Y-100158819D02*
X145835714Y-100206438D01*
X145835714Y-100206438D02*
X145883333Y-100254057D01*
X146788095Y-100158819D02*
X146311905Y-100158819D01*
X146311905Y-100158819D02*
X146264286Y-100635009D01*
X146264286Y-100635009D02*
X146311905Y-100587390D01*
X146311905Y-100587390D02*
X146407143Y-100539771D01*
X146407143Y-100539771D02*
X146645238Y-100539771D01*
X146645238Y-100539771D02*
X146740476Y-100587390D01*
X146740476Y-100587390D02*
X146788095Y-100635009D01*
X146788095Y-100635009D02*
X146835714Y-100730247D01*
X146835714Y-100730247D02*
X146835714Y-100968342D01*
X146835714Y-100968342D02*
X146788095Y-101063580D01*
X146788095Y-101063580D02*
X146740476Y-101111200D01*
X146740476Y-101111200D02*
X146645238Y-101158819D01*
X146645238Y-101158819D02*
X146407143Y-101158819D01*
X146407143Y-101158819D02*
X146311905Y-101111200D01*
X146311905Y-101111200D02*
X146264286Y-101063580D01*
X143930952Y-104998819D02*
X144026190Y-104998819D01*
X144026190Y-104998819D02*
X144121428Y-105046438D01*
X144121428Y-105046438D02*
X144169047Y-105094057D01*
X144169047Y-105094057D02*
X144216666Y-105189295D01*
X144216666Y-105189295D02*
X144264285Y-105379771D01*
X144264285Y-105379771D02*
X144264285Y-105617866D01*
X144264285Y-105617866D02*
X144216666Y-105808342D01*
X144216666Y-105808342D02*
X144169047Y-105903580D01*
X144169047Y-105903580D02*
X144121428Y-105951200D01*
X144121428Y-105951200D02*
X144026190Y-105998819D01*
X144026190Y-105998819D02*
X143930952Y-105998819D01*
X143930952Y-105998819D02*
X143835714Y-105951200D01*
X143835714Y-105951200D02*
X143788095Y-105903580D01*
X143788095Y-105903580D02*
X143740476Y-105808342D01*
X143740476Y-105808342D02*
X143692857Y-105617866D01*
X143692857Y-105617866D02*
X143692857Y-105379771D01*
X143692857Y-105379771D02*
X143740476Y-105189295D01*
X143740476Y-105189295D02*
X143788095Y-105094057D01*
X143788095Y-105094057D02*
X143835714Y-105046438D01*
X143835714Y-105046438D02*
X143930952Y-104998819D01*
X144692857Y-105903580D02*
X144740476Y-105951200D01*
X144740476Y-105951200D02*
X144692857Y-105998819D01*
X144692857Y-105998819D02*
X144645238Y-105951200D01*
X144645238Y-105951200D02*
X144692857Y-105903580D01*
X144692857Y-105903580D02*
X144692857Y-105998819D01*
X145359523Y-104998819D02*
X145454761Y-104998819D01*
X145454761Y-104998819D02*
X145549999Y-105046438D01*
X145549999Y-105046438D02*
X145597618Y-105094057D01*
X145597618Y-105094057D02*
X145645237Y-105189295D01*
X145645237Y-105189295D02*
X145692856Y-105379771D01*
X145692856Y-105379771D02*
X145692856Y-105617866D01*
X145692856Y-105617866D02*
X145645237Y-105808342D01*
X145645237Y-105808342D02*
X145597618Y-105903580D01*
X145597618Y-105903580D02*
X145549999Y-105951200D01*
X145549999Y-105951200D02*
X145454761Y-105998819D01*
X145454761Y-105998819D02*
X145359523Y-105998819D01*
X145359523Y-105998819D02*
X145264285Y-105951200D01*
X145264285Y-105951200D02*
X145216666Y-105903580D01*
X145216666Y-105903580D02*
X145169047Y-105808342D01*
X145169047Y-105808342D02*
X145121428Y-105617866D01*
X145121428Y-105617866D02*
X145121428Y-105379771D01*
X145121428Y-105379771D02*
X145169047Y-105189295D01*
X145169047Y-105189295D02*
X145216666Y-105094057D01*
X145216666Y-105094057D02*
X145264285Y-105046438D01*
X145264285Y-105046438D02*
X145359523Y-104998819D01*
X146645237Y-105998819D02*
X146073809Y-105998819D01*
X146359523Y-105998819D02*
X146359523Y-104998819D01*
X146359523Y-104998819D02*
X146264285Y-105141676D01*
X146264285Y-105141676D02*
X146169047Y-105236914D01*
X146169047Y-105236914D02*
X146073809Y-105284533D01*
X147502380Y-105332152D02*
X147502380Y-105998819D01*
X147073809Y-105332152D02*
X147073809Y-105855961D01*
X147073809Y-105855961D02*
X147121428Y-105951200D01*
X147121428Y-105951200D02*
X147216666Y-105998819D01*
X147216666Y-105998819D02*
X147359523Y-105998819D01*
X147359523Y-105998819D02*
X147454761Y-105951200D01*
X147454761Y-105951200D02*
X147502380Y-105903580D01*
X148311904Y-105475009D02*
X147978571Y-105475009D01*
X147978571Y-105998819D02*
X147978571Y-104998819D01*
X147978571Y-104998819D02*
X148454761Y-104998819D01*
X157969580Y-106166666D02*
X158017200Y-106214285D01*
X158017200Y-106214285D02*
X158064819Y-106357142D01*
X158064819Y-106357142D02*
X158064819Y-106452380D01*
X158064819Y-106452380D02*
X158017200Y-106595237D01*
X158017200Y-106595237D02*
X157921961Y-106690475D01*
X157921961Y-106690475D02*
X157826723Y-106738094D01*
X157826723Y-106738094D02*
X157636247Y-106785713D01*
X157636247Y-106785713D02*
X157493390Y-106785713D01*
X157493390Y-106785713D02*
X157302914Y-106738094D01*
X157302914Y-106738094D02*
X157207676Y-106690475D01*
X157207676Y-106690475D02*
X157112438Y-106595237D01*
X157112438Y-106595237D02*
X157064819Y-106452380D01*
X157064819Y-106452380D02*
X157064819Y-106357142D01*
X157064819Y-106357142D02*
X157112438Y-106214285D01*
X157112438Y-106214285D02*
X157160057Y-106166666D01*
X157398152Y-105309523D02*
X158064819Y-105309523D01*
X157017200Y-105547618D02*
X157731485Y-105785713D01*
X157731485Y-105785713D02*
X157731485Y-105166666D01*
X153129580Y-107833332D02*
X153177200Y-107785713D01*
X153177200Y-107785713D02*
X153224819Y-107833332D01*
X153224819Y-107833332D02*
X153177200Y-107880951D01*
X153177200Y-107880951D02*
X153129580Y-107833332D01*
X153129580Y-107833332D02*
X153224819Y-107833332D01*
X152558152Y-106928571D02*
X153224819Y-106928571D01*
X152177200Y-107166666D02*
X152891485Y-107404761D01*
X152891485Y-107404761D02*
X152891485Y-106785714D01*
X152224819Y-106499999D02*
X152224819Y-105833333D01*
X152224819Y-105833333D02*
X153224819Y-106261904D01*
X152558152Y-105023809D02*
X153224819Y-105023809D01*
X152558152Y-105452380D02*
X153081961Y-105452380D01*
X153081961Y-105452380D02*
X153177200Y-105404761D01*
X153177200Y-105404761D02*
X153224819Y-105309523D01*
X153224819Y-105309523D02*
X153224819Y-105166666D01*
X153224819Y-105166666D02*
X153177200Y-105071428D01*
X153177200Y-105071428D02*
X153129580Y-105023809D01*
X152701009Y-104214285D02*
X152701009Y-104547618D01*
X153224819Y-104547618D02*
X152224819Y-104547618D01*
X152224819Y-104547618D02*
X152224819Y-104071428D01*
D11*
X146346333Y-88204318D02*
X145741571Y-88204318D01*
X145741571Y-88204318D02*
X145741571Y-86934318D01*
X146709190Y-87055270D02*
X146769666Y-86994794D01*
X146769666Y-86994794D02*
X146890619Y-86934318D01*
X146890619Y-86934318D02*
X147193000Y-86934318D01*
X147193000Y-86934318D02*
X147313952Y-86994794D01*
X147313952Y-86994794D02*
X147374428Y-87055270D01*
X147374428Y-87055270D02*
X147434905Y-87176222D01*
X147434905Y-87176222D02*
X147434905Y-87297175D01*
X147434905Y-87297175D02*
X147374428Y-87478603D01*
X147374428Y-87478603D02*
X146648714Y-88204318D01*
X146648714Y-88204318D02*
X147434905Y-88204318D01*
D10*
X166383333Y-110284819D02*
X166050000Y-109808628D01*
X165811905Y-110284819D02*
X165811905Y-109284819D01*
X165811905Y-109284819D02*
X166192857Y-109284819D01*
X166192857Y-109284819D02*
X166288095Y-109332438D01*
X166288095Y-109332438D02*
X166335714Y-109380057D01*
X166335714Y-109380057D02*
X166383333Y-109475295D01*
X166383333Y-109475295D02*
X166383333Y-109618152D01*
X166383333Y-109618152D02*
X166335714Y-109713390D01*
X166335714Y-109713390D02*
X166288095Y-109761009D01*
X166288095Y-109761009D02*
X166192857Y-109808628D01*
X166192857Y-109808628D02*
X165811905Y-109808628D01*
X166764286Y-109380057D02*
X166811905Y-109332438D01*
X166811905Y-109332438D02*
X166907143Y-109284819D01*
X166907143Y-109284819D02*
X167145238Y-109284819D01*
X167145238Y-109284819D02*
X167240476Y-109332438D01*
X167240476Y-109332438D02*
X167288095Y-109380057D01*
X167288095Y-109380057D02*
X167335714Y-109475295D01*
X167335714Y-109475295D02*
X167335714Y-109570533D01*
X167335714Y-109570533D02*
X167288095Y-109713390D01*
X167288095Y-109713390D02*
X166716667Y-110284819D01*
X166716667Y-110284819D02*
X167335714Y-110284819D01*
X168880952Y-110454819D02*
X168309524Y-110454819D01*
X168595238Y-110454819D02*
X168595238Y-109454819D01*
X168595238Y-109454819D02*
X168500000Y-109597676D01*
X168500000Y-109597676D02*
X168404762Y-109692914D01*
X168404762Y-109692914D02*
X168309524Y-109740533D01*
X169309524Y-110454819D02*
X169309524Y-109454819D01*
X169404762Y-110073866D02*
X169690476Y-110454819D01*
X169690476Y-109788152D02*
X169309524Y-110169104D01*
X147023333Y-104624819D02*
X146690000Y-104148628D01*
X146451905Y-104624819D02*
X146451905Y-103624819D01*
X146451905Y-103624819D02*
X146832857Y-103624819D01*
X146832857Y-103624819D02*
X146928095Y-103672438D01*
X146928095Y-103672438D02*
X146975714Y-103720057D01*
X146975714Y-103720057D02*
X147023333Y-103815295D01*
X147023333Y-103815295D02*
X147023333Y-103958152D01*
X147023333Y-103958152D02*
X146975714Y-104053390D01*
X146975714Y-104053390D02*
X146928095Y-104101009D01*
X146928095Y-104101009D02*
X146832857Y-104148628D01*
X146832857Y-104148628D02*
X146451905Y-104148628D01*
X147975714Y-104624819D02*
X147404286Y-104624819D01*
X147690000Y-104624819D02*
X147690000Y-103624819D01*
X147690000Y-103624819D02*
X147594762Y-103767676D01*
X147594762Y-103767676D02*
X147499524Y-103862914D01*
X147499524Y-103862914D02*
X147404286Y-103910533D01*
X146309047Y-107284819D02*
X145832857Y-107284819D01*
X145832857Y-107284819D02*
X145785238Y-107761009D01*
X145785238Y-107761009D02*
X145832857Y-107713390D01*
X145832857Y-107713390D02*
X145928095Y-107665771D01*
X145928095Y-107665771D02*
X146166190Y-107665771D01*
X146166190Y-107665771D02*
X146261428Y-107713390D01*
X146261428Y-107713390D02*
X146309047Y-107761009D01*
X146309047Y-107761009D02*
X146356666Y-107856247D01*
X146356666Y-107856247D02*
X146356666Y-108094342D01*
X146356666Y-108094342D02*
X146309047Y-108189580D01*
X146309047Y-108189580D02*
X146261428Y-108237200D01*
X146261428Y-108237200D02*
X146166190Y-108284819D01*
X146166190Y-108284819D02*
X145928095Y-108284819D01*
X145928095Y-108284819D02*
X145832857Y-108237200D01*
X145832857Y-108237200D02*
X145785238Y-108189580D01*
X146785238Y-108189580D02*
X146832857Y-108237200D01*
X146832857Y-108237200D02*
X146785238Y-108284819D01*
X146785238Y-108284819D02*
X146737619Y-108237200D01*
X146737619Y-108237200D02*
X146785238Y-108189580D01*
X146785238Y-108189580D02*
X146785238Y-108284819D01*
X147689999Y-107284819D02*
X147499523Y-107284819D01*
X147499523Y-107284819D02*
X147404285Y-107332438D01*
X147404285Y-107332438D02*
X147356666Y-107380057D01*
X147356666Y-107380057D02*
X147261428Y-107522914D01*
X147261428Y-107522914D02*
X147213809Y-107713390D01*
X147213809Y-107713390D02*
X147213809Y-108094342D01*
X147213809Y-108094342D02*
X147261428Y-108189580D01*
X147261428Y-108189580D02*
X147309047Y-108237200D01*
X147309047Y-108237200D02*
X147404285Y-108284819D01*
X147404285Y-108284819D02*
X147594761Y-108284819D01*
X147594761Y-108284819D02*
X147689999Y-108237200D01*
X147689999Y-108237200D02*
X147737618Y-108189580D01*
X147737618Y-108189580D02*
X147785237Y-108094342D01*
X147785237Y-108094342D02*
X147785237Y-107856247D01*
X147785237Y-107856247D02*
X147737618Y-107761009D01*
X147737618Y-107761009D02*
X147689999Y-107713390D01*
X147689999Y-107713390D02*
X147594761Y-107665771D01*
X147594761Y-107665771D02*
X147404285Y-107665771D01*
X147404285Y-107665771D02*
X147309047Y-107713390D01*
X147309047Y-107713390D02*
X147261428Y-107761009D01*
X147261428Y-107761009D02*
X147213809Y-107856247D01*
X148213809Y-108284819D02*
X148213809Y-107284819D01*
X148309047Y-107903866D02*
X148594761Y-108284819D01*
X148594761Y-107618152D02*
X148213809Y-107999104D01*
X160359580Y-109166666D02*
X160407200Y-109214285D01*
X160407200Y-109214285D02*
X160454819Y-109357142D01*
X160454819Y-109357142D02*
X160454819Y-109452380D01*
X160454819Y-109452380D02*
X160407200Y-109595237D01*
X160407200Y-109595237D02*
X160311961Y-109690475D01*
X160311961Y-109690475D02*
X160216723Y-109738094D01*
X160216723Y-109738094D02*
X160026247Y-109785713D01*
X160026247Y-109785713D02*
X159883390Y-109785713D01*
X159883390Y-109785713D02*
X159692914Y-109738094D01*
X159692914Y-109738094D02*
X159597676Y-109690475D01*
X159597676Y-109690475D02*
X159502438Y-109595237D01*
X159502438Y-109595237D02*
X159454819Y-109452380D01*
X159454819Y-109452380D02*
X159454819Y-109357142D01*
X159454819Y-109357142D02*
X159502438Y-109214285D01*
X159502438Y-109214285D02*
X159550057Y-109166666D01*
X159454819Y-108833332D02*
X159454819Y-108214285D01*
X159454819Y-108214285D02*
X159835771Y-108547618D01*
X159835771Y-108547618D02*
X159835771Y-108404761D01*
X159835771Y-108404761D02*
X159883390Y-108309523D01*
X159883390Y-108309523D02*
X159931009Y-108261904D01*
X159931009Y-108261904D02*
X160026247Y-108214285D01*
X160026247Y-108214285D02*
X160264342Y-108214285D01*
X160264342Y-108214285D02*
X160359580Y-108261904D01*
X160359580Y-108261904D02*
X160407200Y-108309523D01*
X160407200Y-108309523D02*
X160454819Y-108404761D01*
X160454819Y-108404761D02*
X160454819Y-108690475D01*
X160454819Y-108690475D02*
X160407200Y-108785713D01*
X160407200Y-108785713D02*
X160359580Y-108833332D01*
X160224819Y-107071428D02*
X160224819Y-107642856D01*
X160224819Y-107357142D02*
X159224819Y-107357142D01*
X159224819Y-107357142D02*
X159367676Y-107452380D01*
X159367676Y-107452380D02*
X159462914Y-107547618D01*
X159462914Y-107547618D02*
X159510533Y-107642856D01*
X159224819Y-106166666D02*
X159224819Y-106642856D01*
X159224819Y-106642856D02*
X159701009Y-106690475D01*
X159701009Y-106690475D02*
X159653390Y-106642856D01*
X159653390Y-106642856D02*
X159605771Y-106547618D01*
X159605771Y-106547618D02*
X159605771Y-106309523D01*
X159605771Y-106309523D02*
X159653390Y-106214285D01*
X159653390Y-106214285D02*
X159701009Y-106166666D01*
X159701009Y-106166666D02*
X159796247Y-106119047D01*
X159796247Y-106119047D02*
X160034342Y-106119047D01*
X160034342Y-106119047D02*
X160129580Y-106166666D01*
X160129580Y-106166666D02*
X160177200Y-106214285D01*
X160177200Y-106214285D02*
X160224819Y-106309523D01*
X160224819Y-106309523D02*
X160224819Y-106547618D01*
X160224819Y-106547618D02*
X160177200Y-106642856D01*
X160177200Y-106642856D02*
X160129580Y-106690475D01*
X159558152Y-105261904D02*
X160224819Y-105261904D01*
X159558152Y-105690475D02*
X160081961Y-105690475D01*
X160081961Y-105690475D02*
X160177200Y-105642856D01*
X160177200Y-105642856D02*
X160224819Y-105547618D01*
X160224819Y-105547618D02*
X160224819Y-105404761D01*
X160224819Y-105404761D02*
X160177200Y-105309523D01*
X160177200Y-105309523D02*
X160129580Y-105261904D01*
X159701009Y-104452380D02*
X159701009Y-104785713D01*
X160224819Y-104785713D02*
X159224819Y-104785713D01*
X159224819Y-104785713D02*
X159224819Y-104309523D01*
X166261905Y-103274819D02*
X166261905Y-102274819D01*
X166261905Y-102274819D02*
X166500000Y-102274819D01*
X166500000Y-102274819D02*
X166642857Y-102322438D01*
X166642857Y-102322438D02*
X166738095Y-102417676D01*
X166738095Y-102417676D02*
X166785714Y-102512914D01*
X166785714Y-102512914D02*
X166833333Y-102703390D01*
X166833333Y-102703390D02*
X166833333Y-102846247D01*
X166833333Y-102846247D02*
X166785714Y-103036723D01*
X166785714Y-103036723D02*
X166738095Y-103131961D01*
X166738095Y-103131961D02*
X166642857Y-103227200D01*
X166642857Y-103227200D02*
X166500000Y-103274819D01*
X166500000Y-103274819D02*
X166261905Y-103274819D01*
X167785714Y-103274819D02*
X167214286Y-103274819D01*
X167500000Y-103274819D02*
X167500000Y-102274819D01*
X167500000Y-102274819D02*
X167404762Y-102417676D01*
X167404762Y-102417676D02*
X167309524Y-102512914D01*
X167309524Y-102512914D02*
X167214286Y-102560533D01*
X168862142Y-103454819D02*
X168385952Y-103454819D01*
X168385952Y-103454819D02*
X168385952Y-102454819D01*
X169195476Y-102931009D02*
X169528809Y-102931009D01*
X169671666Y-103454819D02*
X169195476Y-103454819D01*
X169195476Y-103454819D02*
X169195476Y-102454819D01*
X169195476Y-102454819D02*
X169671666Y-102454819D01*
X170100238Y-103454819D02*
X170100238Y-102454819D01*
X170100238Y-102454819D02*
X170338333Y-102454819D01*
X170338333Y-102454819D02*
X170481190Y-102502438D01*
X170481190Y-102502438D02*
X170576428Y-102597676D01*
X170576428Y-102597676D02*
X170624047Y-102692914D01*
X170624047Y-102692914D02*
X170671666Y-102883390D01*
X170671666Y-102883390D02*
X170671666Y-103026247D01*
X170671666Y-103026247D02*
X170624047Y-103216723D01*
X170624047Y-103216723D02*
X170576428Y-103311961D01*
X170576428Y-103311961D02*
X170481190Y-103407200D01*
X170481190Y-103407200D02*
X170338333Y-103454819D01*
X170338333Y-103454819D02*
X170100238Y-103454819D01*
X137644819Y-121761904D02*
X138454342Y-121761904D01*
X138454342Y-121761904D02*
X138549580Y-121714285D01*
X138549580Y-121714285D02*
X138597200Y-121666666D01*
X138597200Y-121666666D02*
X138644819Y-121571428D01*
X138644819Y-121571428D02*
X138644819Y-121380952D01*
X138644819Y-121380952D02*
X138597200Y-121285714D01*
X138597200Y-121285714D02*
X138549580Y-121238095D01*
X138549580Y-121238095D02*
X138454342Y-121190476D01*
X138454342Y-121190476D02*
X137644819Y-121190476D01*
X138644819Y-120190476D02*
X138644819Y-120761904D01*
X138644819Y-120476190D02*
X137644819Y-120476190D01*
X137644819Y-120476190D02*
X137787676Y-120571428D01*
X137787676Y-120571428D02*
X137882914Y-120666666D01*
X137882914Y-120666666D02*
X137930533Y-120761904D01*
X150080000Y-111295319D02*
X150080000Y-111533414D01*
X149841905Y-111438176D02*
X150080000Y-111533414D01*
X150080000Y-111533414D02*
X150318095Y-111438176D01*
X149937143Y-111723890D02*
X150080000Y-111533414D01*
X150080000Y-111533414D02*
X150222857Y-111723890D01*
X150079999Y-112385680D02*
X150079999Y-112147585D01*
X150318094Y-112242823D02*
X150079999Y-112147585D01*
X150079999Y-112147585D02*
X149841904Y-112242823D01*
X150222856Y-111957109D02*
X150079999Y-112147585D01*
X150079999Y-112147585D02*
X149937142Y-111957109D01*
X160969580Y-116166666D02*
X161017200Y-116214285D01*
X161017200Y-116214285D02*
X161064819Y-116357142D01*
X161064819Y-116357142D02*
X161064819Y-116452380D01*
X161064819Y-116452380D02*
X161017200Y-116595237D01*
X161017200Y-116595237D02*
X160921961Y-116690475D01*
X160921961Y-116690475D02*
X160826723Y-116738094D01*
X160826723Y-116738094D02*
X160636247Y-116785713D01*
X160636247Y-116785713D02*
X160493390Y-116785713D01*
X160493390Y-116785713D02*
X160302914Y-116738094D01*
X160302914Y-116738094D02*
X160207676Y-116690475D01*
X160207676Y-116690475D02*
X160112438Y-116595237D01*
X160112438Y-116595237D02*
X160064819Y-116452380D01*
X160064819Y-116452380D02*
X160064819Y-116357142D01*
X160064819Y-116357142D02*
X160112438Y-116214285D01*
X160112438Y-116214285D02*
X160160057Y-116166666D01*
X160160057Y-115785713D02*
X160112438Y-115738094D01*
X160112438Y-115738094D02*
X160064819Y-115642856D01*
X160064819Y-115642856D02*
X160064819Y-115404761D01*
X160064819Y-115404761D02*
X160112438Y-115309523D01*
X160112438Y-115309523D02*
X160160057Y-115261904D01*
X160160057Y-115261904D02*
X160255295Y-115214285D01*
X160255295Y-115214285D02*
X160350533Y-115214285D01*
X160350533Y-115214285D02*
X160493390Y-115261904D01*
X160493390Y-115261904D02*
X161064819Y-115833332D01*
X161064819Y-115833332D02*
X161064819Y-115214285D01*
X156224819Y-117071428D02*
X156224819Y-117642856D01*
X156224819Y-117357142D02*
X155224819Y-117357142D01*
X155224819Y-117357142D02*
X155367676Y-117452380D01*
X155367676Y-117452380D02*
X155462914Y-117547618D01*
X155462914Y-117547618D02*
X155510533Y-117642856D01*
X155224819Y-116166666D02*
X155224819Y-116642856D01*
X155224819Y-116642856D02*
X155701009Y-116690475D01*
X155701009Y-116690475D02*
X155653390Y-116642856D01*
X155653390Y-116642856D02*
X155605771Y-116547618D01*
X155605771Y-116547618D02*
X155605771Y-116309523D01*
X155605771Y-116309523D02*
X155653390Y-116214285D01*
X155653390Y-116214285D02*
X155701009Y-116166666D01*
X155701009Y-116166666D02*
X155796247Y-116119047D01*
X155796247Y-116119047D02*
X156034342Y-116119047D01*
X156034342Y-116119047D02*
X156129580Y-116166666D01*
X156129580Y-116166666D02*
X156177200Y-116214285D01*
X156177200Y-116214285D02*
X156224819Y-116309523D01*
X156224819Y-116309523D02*
X156224819Y-116547618D01*
X156224819Y-116547618D02*
X156177200Y-116642856D01*
X156177200Y-116642856D02*
X156129580Y-116690475D01*
X155558152Y-115261904D02*
X156224819Y-115261904D01*
X155558152Y-115690475D02*
X156081961Y-115690475D01*
X156081961Y-115690475D02*
X156177200Y-115642856D01*
X156177200Y-115642856D02*
X156224819Y-115547618D01*
X156224819Y-115547618D02*
X156224819Y-115404761D01*
X156224819Y-115404761D02*
X156177200Y-115309523D01*
X156177200Y-115309523D02*
X156129580Y-115261904D01*
X155701009Y-114452380D02*
X155701009Y-114785713D01*
X156224819Y-114785713D02*
X155224819Y-114785713D01*
X155224819Y-114785713D02*
X155224819Y-114309523D01*
X168969580Y-116166666D02*
X169017200Y-116214285D01*
X169017200Y-116214285D02*
X169064819Y-116357142D01*
X169064819Y-116357142D02*
X169064819Y-116452380D01*
X169064819Y-116452380D02*
X169017200Y-116595237D01*
X169017200Y-116595237D02*
X168921961Y-116690475D01*
X168921961Y-116690475D02*
X168826723Y-116738094D01*
X168826723Y-116738094D02*
X168636247Y-116785713D01*
X168636247Y-116785713D02*
X168493390Y-116785713D01*
X168493390Y-116785713D02*
X168302914Y-116738094D01*
X168302914Y-116738094D02*
X168207676Y-116690475D01*
X168207676Y-116690475D02*
X168112438Y-116595237D01*
X168112438Y-116595237D02*
X168064819Y-116452380D01*
X168064819Y-116452380D02*
X168064819Y-116357142D01*
X168064819Y-116357142D02*
X168112438Y-116214285D01*
X168112438Y-116214285D02*
X168160057Y-116166666D01*
X169064819Y-115214285D02*
X169064819Y-115785713D01*
X169064819Y-115499999D02*
X168064819Y-115499999D01*
X168064819Y-115499999D02*
X168207676Y-115595237D01*
X168207676Y-115595237D02*
X168302914Y-115690475D01*
X168302914Y-115690475D02*
X168350533Y-115785713D01*
X164224819Y-117071428D02*
X164224819Y-117642856D01*
X164224819Y-117357142D02*
X163224819Y-117357142D01*
X163224819Y-117357142D02*
X163367676Y-117452380D01*
X163367676Y-117452380D02*
X163462914Y-117547618D01*
X163462914Y-117547618D02*
X163510533Y-117642856D01*
X163224819Y-116166666D02*
X163224819Y-116642856D01*
X163224819Y-116642856D02*
X163701009Y-116690475D01*
X163701009Y-116690475D02*
X163653390Y-116642856D01*
X163653390Y-116642856D02*
X163605771Y-116547618D01*
X163605771Y-116547618D02*
X163605771Y-116309523D01*
X163605771Y-116309523D02*
X163653390Y-116214285D01*
X163653390Y-116214285D02*
X163701009Y-116166666D01*
X163701009Y-116166666D02*
X163796247Y-116119047D01*
X163796247Y-116119047D02*
X164034342Y-116119047D01*
X164034342Y-116119047D02*
X164129580Y-116166666D01*
X164129580Y-116166666D02*
X164177200Y-116214285D01*
X164177200Y-116214285D02*
X164224819Y-116309523D01*
X164224819Y-116309523D02*
X164224819Y-116547618D01*
X164224819Y-116547618D02*
X164177200Y-116642856D01*
X164177200Y-116642856D02*
X164129580Y-116690475D01*
X163558152Y-115261904D02*
X164224819Y-115261904D01*
X163558152Y-115690475D02*
X164081961Y-115690475D01*
X164081961Y-115690475D02*
X164177200Y-115642856D01*
X164177200Y-115642856D02*
X164224819Y-115547618D01*
X164224819Y-115547618D02*
X164224819Y-115404761D01*
X164224819Y-115404761D02*
X164177200Y-115309523D01*
X164177200Y-115309523D02*
X164129580Y-115261904D01*
X163701009Y-114452380D02*
X163701009Y-114785713D01*
X164224819Y-114785713D02*
X163224819Y-114785713D01*
X163224819Y-114785713D02*
X163224819Y-114309523D01*
X131830419Y-99031833D02*
X131782800Y-98984214D01*
X131782800Y-98984214D02*
X131735180Y-98841357D01*
X131735180Y-98841357D02*
X131735180Y-98746119D01*
X131735180Y-98746119D02*
X131782800Y-98603262D01*
X131782800Y-98603262D02*
X131878038Y-98508024D01*
X131878038Y-98508024D02*
X131973276Y-98460405D01*
X131973276Y-98460405D02*
X132163752Y-98412786D01*
X132163752Y-98412786D02*
X132306609Y-98412786D01*
X132306609Y-98412786D02*
X132497085Y-98460405D01*
X132497085Y-98460405D02*
X132592323Y-98508024D01*
X132592323Y-98508024D02*
X132687561Y-98603262D01*
X132687561Y-98603262D02*
X132735180Y-98746119D01*
X132735180Y-98746119D02*
X132735180Y-98841357D01*
X132735180Y-98841357D02*
X132687561Y-98984214D01*
X132687561Y-98984214D02*
X132639942Y-99031833D01*
X131735180Y-100031833D02*
X132211371Y-99698500D01*
X131735180Y-99460405D02*
X132735180Y-99460405D01*
X132735180Y-99460405D02*
X132735180Y-99841357D01*
X132735180Y-99841357D02*
X132687561Y-99936595D01*
X132687561Y-99936595D02*
X132639942Y-99984214D01*
X132639942Y-99984214D02*
X132544704Y-100031833D01*
X132544704Y-100031833D02*
X132401847Y-100031833D01*
X132401847Y-100031833D02*
X132306609Y-99984214D01*
X132306609Y-99984214D02*
X132258990Y-99936595D01*
X132258990Y-99936595D02*
X132211371Y-99841357D01*
X132211371Y-99841357D02*
X132211371Y-99460405D01*
X131735180Y-100984214D02*
X131735180Y-100412786D01*
X131735180Y-100698500D02*
X132735180Y-100698500D01*
X132735180Y-100698500D02*
X132592323Y-100603262D01*
X132592323Y-100603262D02*
X132497085Y-100508024D01*
X132497085Y-100508024D02*
X132449466Y-100412786D01*
X161994819Y-124333333D02*
X162709104Y-124333333D01*
X162709104Y-124333333D02*
X162851961Y-124380952D01*
X162851961Y-124380952D02*
X162947200Y-124476190D01*
X162947200Y-124476190D02*
X162994819Y-124619047D01*
X162994819Y-124619047D02*
X162994819Y-124714285D01*
X162090057Y-123904761D02*
X162042438Y-123857142D01*
X162042438Y-123857142D02*
X161994819Y-123761904D01*
X161994819Y-123761904D02*
X161994819Y-123523809D01*
X161994819Y-123523809D02*
X162042438Y-123428571D01*
X162042438Y-123428571D02*
X162090057Y-123380952D01*
X162090057Y-123380952D02*
X162185295Y-123333333D01*
X162185295Y-123333333D02*
X162280533Y-123333333D01*
X162280533Y-123333333D02*
X162423390Y-123380952D01*
X162423390Y-123380952D02*
X162994819Y-123952380D01*
X162994819Y-123952380D02*
X162994819Y-123333333D01*
%TO.C,C6*%
D12*
X171310000Y-97750000D02*
G75*
G02*
X163070000Y-97750000I-4120000J0D01*
G01*
X163070000Y-97750000D02*
G75*
G02*
X171310000Y-97750000I4120000J0D01*
G01*
%TO.C,C7*%
X168310000Y-88000000D02*
G75*
G02*
X160070000Y-88000000I-4120000J0D01*
G01*
X160070000Y-88000000D02*
G75*
G02*
X168310000Y-88000000I4120000J0D01*
G01*
%TO.C,C5*%
X143340000Y-103124000D02*
X144030000Y-103124000D01*
X148760000Y-103124000D02*
X148070000Y-103124000D01*
X144030000Y-101704000D02*
X148070000Y-101704000D01*
X148070000Y-104544000D01*
X144030000Y-104544000D01*
X144030000Y-101704000D01*
%TO.C,C4*%
X155190000Y-103290000D02*
X155190000Y-103980000D01*
X155190000Y-108710000D02*
X155190000Y-108020000D01*
X153770000Y-103980000D02*
X156610000Y-103980000D01*
X156610000Y-108020000D01*
X153770000Y-108020000D01*
X153770000Y-103980000D01*
%TO.C,L2*%
D13*
D14*
X135106000Y-87630000D02*
X135105999Y-87630000D01*
X135105999Y-87630000D01*
X135105999Y-87630000D01*
X135105999Y-87630000D01*
X135105999Y-87630000D01*
X135105999Y-87630000D01*
X135105999Y-87630000D01*
X135105999Y-87629999D01*
X135105999Y-87629999D01*
X135105999Y-87629999D01*
X135105999Y-87629999D01*
X135105999Y-87629999D01*
X135106000Y-87629999D01*
X135106000Y-87629999D01*
X135106000Y-87629999D01*
X135106000Y-87629999D01*
X135106000Y-87629999D01*
X135106000Y-87629999D01*
X135106000Y-87629999D01*
X135106000Y-87629999D01*
X135106000Y-87629999D01*
X135106000Y-87629999D01*
X135106000Y-87629999D01*
X135106000Y-87629999D01*
X135106001Y-87629999D01*
X135106001Y-87629999D01*
X135106001Y-87629999D01*
X135106001Y-87629999D01*
X135106001Y-87629999D01*
X135106001Y-87629999D01*
X135106001Y-87630000D01*
X135106001Y-87630000D01*
X135106001Y-87630000D01*
X135106001Y-87630000D01*
X135106001Y-87630000D01*
X135106001Y-87630000D01*
X135106001Y-87630000D01*
X135106000Y-87630000D01*
X135106000Y-87630000D02*
X135106001Y-87630000D01*
X135106001Y-87630000D01*
X135106001Y-87630000D01*
X135106001Y-87630000D01*
X135106001Y-87630000D01*
X135106001Y-87630000D01*
X135106001Y-87630001D01*
X135106001Y-87630001D01*
X135106001Y-87630001D01*
X135106001Y-87630001D01*
X135106001Y-87630001D01*
X135106001Y-87630001D01*
X135106001Y-87630001D01*
X135106000Y-87630001D01*
X135106000Y-87630001D01*
X135106000Y-87630001D01*
X135106000Y-87630001D01*
X135106000Y-87630001D01*
X135106000Y-87630001D01*
X135106000Y-87630001D01*
X135106000Y-87630001D01*
X135106000Y-87630001D01*
X135106000Y-87630001D01*
X135106000Y-87630001D01*
X135106000Y-87630001D01*
X135105999Y-87630001D01*
X135105999Y-87630001D01*
X135105999Y-87630001D01*
X135105999Y-87630001D01*
X135105999Y-87630001D01*
X135105999Y-87630001D01*
X135105999Y-87630000D01*
X135105999Y-87630000D01*
X135105999Y-87630000D01*
X135105999Y-87630000D01*
X135105999Y-87630000D01*
X135105999Y-87630000D01*
X135106000Y-87630000D01*
D13*
D14*
X135206000Y-87630000D02*
X135205999Y-87630000D01*
X135205999Y-87630000D01*
X135205999Y-87630000D01*
X135205999Y-87630000D01*
X135205999Y-87630000D01*
X135205999Y-87630000D01*
X135205999Y-87630000D01*
X135205999Y-87629999D01*
X135205999Y-87629999D01*
X135205999Y-87629999D01*
X135205999Y-87629999D01*
X135205999Y-87629999D01*
X135206000Y-87629999D01*
X135206000Y-87629999D01*
X135206000Y-87629999D01*
X135206000Y-87629999D01*
X135206000Y-87629999D01*
X135206000Y-87629999D01*
X135206000Y-87629999D01*
X135206000Y-87629999D01*
X135206000Y-87629999D01*
X135206000Y-87629999D01*
X135206000Y-87629999D01*
X135206000Y-87629999D01*
X135206001Y-87629999D01*
X135206001Y-87629999D01*
X135206001Y-87629999D01*
X135206001Y-87629999D01*
X135206001Y-87629999D01*
X135206001Y-87629999D01*
X135206001Y-87630000D01*
X135206001Y-87630000D01*
X135206001Y-87630000D01*
X135206001Y-87630000D01*
X135206001Y-87630000D01*
X135206001Y-87630000D01*
X135206001Y-87630000D01*
X135206000Y-87630000D01*
X135206000Y-87630000D02*
X135206001Y-87630000D01*
X135206001Y-87630000D01*
X135206001Y-87630000D01*
X135206001Y-87630000D01*
X135206001Y-87630000D01*
X135206001Y-87630000D01*
X135206001Y-87630001D01*
X135206001Y-87630001D01*
X135206001Y-87630001D01*
X135206001Y-87630001D01*
X135206001Y-87630001D01*
X135206001Y-87630001D01*
X135206001Y-87630001D01*
X135206000Y-87630001D01*
X135206000Y-87630001D01*
X135206000Y-87630001D01*
X135206000Y-87630001D01*
X135206000Y-87630001D01*
X135206000Y-87630001D01*
X135206000Y-87630001D01*
X135206000Y-87630001D01*
X135206000Y-87630001D01*
X135206000Y-87630001D01*
X135206000Y-87630001D01*
X135206000Y-87630001D01*
X135205999Y-87630001D01*
X135205999Y-87630001D01*
X135205999Y-87630001D01*
X135205999Y-87630001D01*
X135205999Y-87630001D01*
X135205999Y-87630001D01*
X135205999Y-87630000D01*
X135205999Y-87630000D01*
X135205999Y-87630000D01*
X135205999Y-87630000D01*
X135205999Y-87630000D01*
X135205999Y-87630000D01*
X135206000Y-87630000D01*
D15*
X135636000Y-81915000D02*
X157480000Y-81915000D01*
X135636000Y-93345000D02*
X135636000Y-81915000D01*
X157480000Y-81915000D02*
X157480000Y-93345000D01*
X157480000Y-93345000D02*
X135636000Y-93345000D01*
D13*
X135106000Y-87630000D02*
G75*
G02*
X135206000Y-87630000I50000J0D01*
G01*
X135206000Y-87630000D02*
G75*
G02*
X135106000Y-87630000I-50000J0D01*
G01*
%TO.C,R2*%
D12*
X167277064Y-107090000D02*
X165822936Y-107090000D01*
X167277064Y-108910000D02*
X165822936Y-108910000D01*
%TO.C,R1*%
X146462936Y-105090000D02*
X147917064Y-105090000D01*
X146462936Y-106910000D02*
X147917064Y-106910000D01*
%TO.C,C3*%
X162190000Y-103290000D02*
X162190000Y-103980000D01*
X162190000Y-108710000D02*
X162190000Y-108020000D01*
X160770000Y-103980000D02*
X163610000Y-103980000D01*
X163610000Y-108020000D01*
X160770000Y-108020000D01*
X160770000Y-103980000D01*
%TO.C,D1*%
X164540000Y-103515000D02*
X164540000Y-105785000D01*
X164540000Y-105785000D02*
X168600000Y-105785000D01*
X168600000Y-103515000D02*
X164540000Y-103515000D01*
%TO.C,U1*%
D16*
X140783600Y-114431300D02*
X140783600Y-113542300D01*
X141596400Y-114431300D02*
X141596400Y-113542300D01*
X142053600Y-114431300D02*
X142053600Y-113542300D01*
X142866400Y-114431300D02*
X142866400Y-113542300D01*
X143323600Y-114431300D02*
X143323600Y-113542300D01*
X144136400Y-114431300D02*
X144136400Y-113542300D01*
X144593600Y-114431300D02*
X144593600Y-113542300D01*
X145406400Y-114431300D02*
X145406400Y-113542300D01*
X145863600Y-114431300D02*
X145863600Y-113542300D01*
X146676400Y-114431300D02*
X146676400Y-113542300D01*
X147133600Y-114431300D02*
X147133600Y-113542300D01*
X147946400Y-114431300D02*
X147946400Y-113542300D01*
X148403600Y-114431300D02*
X148403600Y-113542300D01*
X149216400Y-114431300D02*
X149216400Y-113542300D01*
%TO.C,C2*%
D12*
X158190000Y-113290000D02*
X158190000Y-113980000D01*
X158190000Y-118710000D02*
X158190000Y-118020000D01*
X156770000Y-113980000D02*
X159610000Y-113980000D01*
X159610000Y-118020000D01*
X156770000Y-118020000D01*
X156770000Y-113980000D01*
%TO.C,C1*%
X166190000Y-113290000D02*
X166190000Y-113980000D01*
X166190000Y-118710000D02*
X166190000Y-118020000D01*
X164770000Y-113980000D02*
X167610000Y-113980000D01*
X167610000Y-118020000D01*
X164770000Y-118020000D01*
X164770000Y-113980000D01*
%TO.C,CR1*%
D16*
X126348000Y-95761500D02*
X126348000Y-103635500D01*
X126348000Y-103635500D02*
X138032000Y-103635500D01*
X132190000Y-87049300D02*
X131555000Y-87811300D01*
X132190000Y-87049300D02*
X131682000Y-87811300D01*
X132190000Y-87049300D02*
X131809000Y-87811300D01*
X132190000Y-87049300D02*
X131936000Y-87811300D01*
X132190000Y-87049300D02*
X132063000Y-87811300D01*
X132190000Y-87049300D02*
X132317000Y-87811300D01*
X132190000Y-87049300D02*
X132444000Y-87811300D01*
X132190000Y-87049300D02*
X132571000Y-87811300D01*
X132190000Y-87049300D02*
X132698000Y-87811300D01*
X132190000Y-87049300D02*
X132825000Y-87811300D01*
X132190000Y-88065300D02*
X132190000Y-86795300D01*
X132825000Y-87049300D02*
X131555000Y-87049300D01*
X132825000Y-87811300D02*
X131555000Y-87811300D01*
X138032000Y-95761500D02*
X126348000Y-95761500D01*
X138032000Y-103635500D02*
X138032000Y-95761500D01*
%TO.C,J2*%
D12*
X163540000Y-125380000D02*
X163540000Y-124000000D01*
X164920000Y-125380000D02*
X163540000Y-125380000D01*
X166190000Y-122620000D02*
X171380000Y-122620000D01*
X166190000Y-125380000D02*
X166190000Y-122620000D01*
X166190000Y-125380000D02*
X171380000Y-125380000D01*
X171380000Y-125380000D02*
X171380000Y-122620000D01*
%TD*%
M02*
