M48
; DRILL file KiCad 10.0.0 date 2026-04-24T18:37:44
; FORMAT={-:-/ absolute / metric / decimal}
; #@! TF.CreationDate,2026-04-24T18:37:44-04:00
; #@! TF.GenerationSoftware,Kicad,Pcbnew,10.0.0
; #@! TF.FileFunction,Plated,1,2,PTH
FMAT,2
METRIC
; #@! TA.AperFunction,Plated,PTH,ViaDrill
T1C0.300
; #@! TA.AperFunction,Plated,PTH,ComponentDrill
T2C0.800
; #@! TA.AperFunction,Plated,PTH,ComponentDrill
T3C1.000
; #@! TA.AperFunction,Plated,PTH,ComponentDrill
T4C1.064
; #@! TA.AperFunction,Plated,PTH,ComponentDrill
T5C1.676
%
G90
G05
T1
X140.97Y-96.52
X151.13Y-95.504
T2
X142.3Y-103.124
X149.8Y-103.124
X155.19Y-102.25
X155.19Y-109.75
X158.19Y-112.25
X158.19Y-119.75
X162.19Y-102.25
X162.19Y-109.75
X164.19Y-86.25
X164.19Y-89.75
X166.19Y-112.25
X166.19Y-119.75
X167.19Y-96.0
X167.19Y-99.5
T3
X164.92Y-124.0
X167.46Y-124.0
X170.0Y-124.0
T4
X136.906Y-87.63
X156.21Y-87.63
T5
X132.19Y-89.538
X132.19Y-109.858
M30
