%TF.GenerationSoftware,KiCad,Pcbnew,10.0.0*%
%TF.CreationDate,2026-04-24T18:37:38-04:00*%
%TF.ProjectId,LM2679PiRegulator,4c4d3236-3739-4506-9952-6567756c6174,rev?*%
%TF.SameCoordinates,Original*%
%TF.FileFunction,Copper,L1,Top*%
%TF.FilePolarity,Positive*%
%FSLAX46Y46*%
G04 Gerber Fmt 4.6, Leading zero omitted, Abs format (unit mm)*
G04 Created by KiCad (PCBNEW 10.0.0) date 2026-04-24 18:37:38*
%MOMM*%
%LPD*%
G01*
G04 APERTURE LIST*
G04 Aperture macros list*
%AMRoundRect*
0 Rectangle with rounded corners*
0 $1 Rounding radius*
0 $2 $3 $4 $5 $6 $7 $8 $9 X,Y pos of 4 corners*
0 Add a 4 corners polygon primitive as box body*
4,1,4,$2,$3,$4,$5,$6,$7,$8,$9,$2,$3,0*
0 Add four circle primitives for the rounded corners*
1,1,$1+$1,$2,$3*
1,1,$1+$1,$4,$5*
1,1,$1+$1,$6,$7*
1,1,$1+$1,$8,$9*
0 Add four rect primitives between the rounded corners*
20,1,$1+$1,$2,$3,$4,$5,0*
20,1,$1+$1,$4,$5,$6,$7,0*
20,1,$1+$1,$6,$7,$8,$9,0*
20,1,$1+$1,$8,$9,$2,$3,0*%
G04 Aperture macros list end*
%TA.AperFunction,ComponentPad*%
%ADD10C,1.600000*%
%TD*%
%TA.AperFunction,ComponentPad*%
%ADD11R,1.596000X1.596000*%
%TD*%
%TA.AperFunction,ComponentPad*%
%ADD12C,1.596000*%
%TD*%
%TA.AperFunction,SMDPad,CuDef*%
%ADD13RoundRect,0.250000X0.400000X0.625000X-0.400000X0.625000X-0.400000X-0.625000X0.400000X-0.625000X0*%
%TD*%
%TA.AperFunction,SMDPad,CuDef*%
%ADD14RoundRect,0.250000X-0.400000X-0.625000X0.400000X-0.625000X0.400000X0.625000X-0.400000X0.625000X0*%
%TD*%
%TA.AperFunction,SMDPad,CuDef*%
%ADD15RoundRect,0.250001X-0.462499X-0.624999X0.462499X-0.624999X0.462499X0.624999X-0.462499X0.624999X0*%
%TD*%
%TA.AperFunction,SMDPad,CuDef*%
%ADD16R,0.863600X2.692400*%
%TD*%
%TA.AperFunction,SMDPad,CuDef*%
%ADD17R,10.414000X10.464800*%
%TD*%
%TA.AperFunction,ComponentPad*%
%ADD18R,2.184400X2.184400*%
%TD*%
%TA.AperFunction,ComponentPad*%
%ADD19C,2.184400*%
%TD*%
%TA.AperFunction,ComponentPad*%
%ADD20R,1.700000X1.700000*%
%TD*%
%TA.AperFunction,ComponentPad*%
%ADD21C,1.700000*%
%TD*%
%TA.AperFunction,ViaPad*%
%ADD22C,0.600000*%
%TD*%
%TA.AperFunction,Conductor*%
%ADD23C,1.250000*%
%TD*%
%TA.AperFunction,Conductor*%
%ADD24C,1.000000*%
%TD*%
%TA.AperFunction,Conductor*%
%ADD25C,0.500000*%
%TD*%
G04 APERTURE END LIST*
D10*
%TO.P,C6,1*%
%TO.N,/Vout*%
X167190000Y-96000000D03*
%TO.P,C6,2*%
%TO.N,GND*%
X167190000Y-99500000D03*
%TD*%
%TO.P,C7,1*%
%TO.N,/Vout*%
X164190000Y-89750000D03*
%TO.P,C7,2*%
%TO.N,GND*%
X164190000Y-86250000D03*
%TD*%
%TO.P,C5,1*%
%TO.N,/Switch*%
X142300000Y-103124000D03*
%TO.P,C5,2*%
%TO.N,/Boost*%
X149800000Y-103124000D03*
%TD*%
%TO.P,C4,1*%
%TO.N,/Vin*%
X155190000Y-102250000D03*
%TO.P,C4,2*%
%TO.N,GND*%
X155190000Y-109750000D03*
%TD*%
D11*
%TO.P,L2,1,1_1*%
%TO.N,/Vout*%
X136906000Y-87630000D03*
D12*
%TO.P,L2,2,2_2*%
%TO.N,/Switch*%
X156210000Y-87630000D03*
%TD*%
D13*
%TO.P,R2,1*%
%TO.N,/Vout*%
X168100000Y-108000000D03*
%TO.P,R2,2*%
%TO.N,Net-(D1-A)*%
X165000000Y-108000000D03*
%TD*%
D14*
%TO.P,R1,1*%
%TO.N,Net-(U1-CL_Adj)*%
X145640000Y-106000000D03*
%TO.P,R1,2*%
%TO.N,GND*%
X148740000Y-106000000D03*
%TD*%
D10*
%TO.P,C3,1*%
%TO.N,/Vin*%
X162190000Y-102250000D03*
%TO.P,C3,2*%
%TO.N,GND*%
X162190000Y-109750000D03*
%TD*%
D15*
%TO.P,D1,1,K_1*%
%TO.N,GND*%
X165512500Y-104650000D03*
%TO.P,D1,2,A_2*%
%TO.N,Net-(D1-A)*%
X168487500Y-104650000D03*
%TD*%
D16*
%TO.P,U1,1,SW_1*%
%TO.N,/Switch*%
X148810000Y-111840500D03*
%TO.P,U1,2,Vin_2*%
%TO.N,/Vin*%
X147540000Y-111840500D03*
%TO.P,U1,3,BOOST_3*%
%TO.N,/Boost*%
X146270000Y-111840500D03*
%TO.P,U1,4,GND_4*%
%TO.N,GND*%
X145000000Y-111840500D03*
%TO.P,U1,5,CL_Adj_5*%
%TO.N,Net-(U1-CL_Adj)*%
X143730000Y-111840500D03*
%TO.P,U1,6,FB_6*%
%TO.N,/Vout*%
X142460000Y-111840500D03*
%TO.P,U1,7,SS_7*%
%TO.N,unconnected-(U1-SS-Pad7)*%
X141190000Y-111840500D03*
D17*
%TO.P,U1,8*%
%TO.N,GND*%
X145000000Y-120273300D03*
%TD*%
D10*
%TO.P,C2,1*%
%TO.N,/Vin*%
X158190000Y-112250000D03*
%TO.P,C2,2*%
%TO.N,GND*%
X158190000Y-119750000D03*
%TD*%
%TO.P,C1,1*%
%TO.N,/Vin*%
X166190000Y-112250000D03*
%TO.P,C1,2*%
%TO.N,GND*%
X166190000Y-119750000D03*
%TD*%
D18*
%TO.P,CR1,1*%
%TO.N,/Switch*%
X132190000Y-89538500D03*
D19*
%TO.P,CR1,2*%
%TO.N,GND*%
X132190000Y-109858500D03*
%TD*%
D20*
%TO.P,J2,1,Pin_1_1*%
%TO.N,/Vin*%
X164920000Y-124000000D03*
D21*
%TO.P,J2,2,Pin_2_2*%
%TO.N,GND*%
X167460000Y-124000000D03*
%TO.P,J2,3,Pin_3_3*%
%TO.N,/Vout*%
X170000000Y-124000000D03*
%TD*%
D22*
%TO.N,GND*%
X151130000Y-95504000D03*
X140970000Y-96520000D03*
%TD*%
%TO.N,/Vout*%
D23*
X162000000Y-87560000D02*
X164190000Y-89750000D01*
X162000000Y-85396000D02*
X162000000Y-87560000D01*
X163396000Y-84000000D02*
X162000000Y-85396000D01*
X164158633Y-84000000D02*
X163396000Y-84000000D01*
X142460000Y-112840500D02*
X142460000Y-108932500D01*
X166000000Y-84000000D02*
X164158633Y-84000000D01*
X136906000Y-87630000D02*
X138430000Y-87630000D01*
X167190000Y-96000000D02*
X167190000Y-92750000D01*
X129190000Y-87122000D02*
X136398000Y-87122000D01*
X139527500Y-106000000D02*
X129190000Y-95662500D01*
X142060000Y-84000000D02*
X164158633Y-84000000D01*
X171000000Y-108000000D02*
X171000000Y-89000000D01*
X129190000Y-95662500D02*
X129190000Y-87122000D01*
X138430000Y-87630000D02*
X142060000Y-84000000D01*
X142460000Y-108932500D02*
X139527500Y-106000000D01*
X167190000Y-92750000D02*
X164190000Y-89750000D01*
X136398000Y-87122000D02*
X136906000Y-87630000D01*
X170000000Y-124000000D02*
X171000000Y-123000000D01*
X129190000Y-87122000D02*
X129190000Y-87000000D01*
X168000000Y-108000000D02*
X171000000Y-108000000D01*
X171000000Y-123000000D02*
X171000000Y-108000000D01*
X171000000Y-89000000D02*
X166000000Y-84000000D01*
%TO.N,GND*%
D24*
X168190000Y-112127265D02*
X168190000Y-117750000D01*
X143604800Y-121273300D02*
X145000000Y-121273300D01*
X145000000Y-109740000D02*
X145000000Y-112840500D01*
X162741000Y-125551000D02*
X158190000Y-121000000D01*
X155190000Y-109750000D02*
X155190000Y-116750000D01*
X165812735Y-109750000D02*
X168190000Y-112127265D01*
X148740000Y-106000000D02*
X145000000Y-109740000D01*
X162190000Y-109750000D02*
X165812735Y-109750000D01*
X168190000Y-117750000D02*
X166190000Y-119750000D01*
X158190000Y-119750000D02*
X146523300Y-119750000D01*
X162190000Y-104500000D02*
X163345000Y-103345000D01*
X163345000Y-103345000D02*
X167190000Y-99500000D01*
X146523300Y-119750000D02*
X145000000Y-121273300D01*
X158190000Y-121000000D02*
X158190000Y-119750000D01*
X132190000Y-109858500D02*
X143604800Y-121273300D01*
X168691000Y-97999000D02*
X168691000Y-90751000D01*
X166471000Y-123011000D02*
X167460000Y-124000000D01*
X162190000Y-109750000D02*
X162190000Y-104500000D01*
X168691000Y-90751000D02*
X164190000Y-86250000D01*
X166471000Y-120031000D02*
X166471000Y-123011000D01*
X145000000Y-112840500D02*
X145000000Y-121273300D01*
X164650000Y-104650000D02*
X163345000Y-103345000D01*
X166190000Y-119750000D02*
X166471000Y-120031000D01*
X167460000Y-125202081D02*
X167460000Y-124000000D01*
X167111081Y-125551000D02*
X167460000Y-125202081D01*
X165007500Y-104650000D02*
X164650000Y-104650000D01*
X155190000Y-116750000D02*
X158190000Y-119750000D01*
X162741000Y-125551000D02*
X167111081Y-125551000D01*
X167190000Y-99500000D02*
X168691000Y-97999000D01*
%TO.N,/Switch*%
X157988000Y-89408000D02*
X156210000Y-87630000D01*
X156210000Y-87630000D02*
X147828000Y-87630000D01*
X142300000Y-101686000D02*
X142300000Y-103124000D01*
X138000000Y-101000000D02*
X142440000Y-101000000D01*
X145941000Y-97499000D02*
X152561735Y-97499000D01*
X148810000Y-112380000D02*
X148810000Y-112840500D01*
X142300000Y-103124000D02*
X140124000Y-103124000D01*
X142440000Y-101000000D02*
X142440000Y-101546000D01*
X132190000Y-95190000D02*
X138000000Y-101000000D01*
X157988000Y-95758000D02*
X157988000Y-89408000D01*
X132190000Y-89538500D02*
X132190000Y-95190000D01*
X142440000Y-101546000D02*
X142300000Y-101686000D01*
X145919500Y-89538500D02*
X132190000Y-89538500D01*
X151391000Y-109799000D02*
X148810000Y-112380000D01*
X142440000Y-101000000D02*
X144440000Y-99000000D01*
X153441000Y-98378265D02*
X153441000Y-101749000D01*
X153441000Y-101749000D02*
X151391000Y-103799000D01*
X151391000Y-103799000D02*
X151391000Y-109799000D01*
X140124000Y-103124000D02*
X138000000Y-101000000D01*
X147828000Y-87630000D02*
X145919500Y-89538500D01*
X155367735Y-98378265D02*
X157988000Y-95758000D01*
X153441000Y-98378265D02*
X155367735Y-98378265D01*
X152561735Y-97499000D02*
X153441000Y-98378265D01*
X144440000Y-99000000D02*
X145941000Y-97499000D01*
%TO.N,/Boost*%
X149540844Y-107576000D02*
X148862470Y-107576000D01*
X149540844Y-107576000D02*
X150090000Y-107026844D01*
X148862470Y-107576000D02*
X146270000Y-110168470D01*
X146270000Y-110168470D02*
X146270000Y-112840500D01*
X150090000Y-107026844D02*
X150090000Y-103414000D01*
X150090000Y-103414000D02*
X149800000Y-103124000D01*
%TO.N,/Vin*%
D23*
X162190000Y-102250000D02*
X161940000Y-102250000D01*
X149307471Y-114041499D02*
X149348970Y-114000000D01*
X153190000Y-104250000D02*
X155190000Y-102250000D01*
X166190000Y-112250000D02*
X166190000Y-117170000D01*
X147950600Y-114339900D02*
X148280765Y-114009735D01*
X164650000Y-118710000D02*
X158190000Y-112250000D01*
X149348970Y-114000000D02*
X153190000Y-114000000D01*
X148280765Y-114009735D02*
X148312529Y-114041499D01*
X164920000Y-124000000D02*
X164650000Y-123730000D01*
X148312529Y-114041499D02*
X149307471Y-114041499D01*
X164650000Y-123730000D02*
X164650000Y-118710000D01*
X147540000Y-114339900D02*
X147950600Y-114339900D01*
X153190000Y-114000000D02*
X153190000Y-104250000D01*
X147540000Y-112840500D02*
X147540000Y-114339900D01*
X155190000Y-102250000D02*
X158190000Y-105250000D01*
X166190000Y-117170000D02*
X164650000Y-118710000D01*
X158940000Y-105250000D02*
X158190000Y-105250000D01*
X161940000Y-102250000D02*
X158940000Y-105250000D01*
X158190000Y-105250000D02*
X158190000Y-112250000D01*
%TO.N,Net-(D1-A)*%
D24*
X167982500Y-104917500D02*
X164900000Y-108000000D01*
X167982500Y-104650000D02*
X167982500Y-104917500D01*
%TO.N,Net-(U1-CL_Adj)*%
D25*
X143730000Y-107910000D02*
X143730000Y-112840500D01*
X145640000Y-106000000D02*
X143730000Y-107910000D01*
%TD*%
%TA.AperFunction,Conductor*%
%TO.N,GND*%
G36*
X160825168Y-85145185D02*
G01*
X160870923Y-85197989D01*
X160880867Y-85267147D01*
X160880614Y-85268814D01*
X160874500Y-85307421D01*
X160874500Y-85307423D01*
X160874500Y-87648578D01*
X160902213Y-87823552D01*
X160902213Y-87823553D01*
X160934147Y-87921835D01*
X160934147Y-87921836D01*
X160956955Y-87992036D01*
X160956957Y-87992042D01*
X161037386Y-88149890D01*
X161088244Y-88219890D01*
X161141514Y-88293210D01*
X161141519Y-88293216D01*
X162909465Y-90061162D01*
X162939715Y-90110525D01*
X162984778Y-90249216D01*
X162984780Y-90249219D01*
X163074412Y-90425132D01*
X163077715Y-90431613D01*
X163198028Y-90597213D01*
X163342786Y-90741971D01*
X163497749Y-90854556D01*
X163508390Y-90862287D01*
X163690781Y-90955220D01*
X163690783Y-90955221D01*
X163829474Y-91000284D01*
X163878837Y-91030534D01*
X166028181Y-93179878D01*
X166061666Y-93241201D01*
X166064500Y-93267559D01*
X166064500Y-95314550D01*
X166050985Y-95370844D01*
X165984779Y-95500780D01*
X165984779Y-95500781D01*
X165921523Y-95695461D01*
X165921523Y-95695464D01*
X165889500Y-95897648D01*
X165889500Y-96102351D01*
X165921523Y-96304534D01*
X165921522Y-96304534D01*
X165984781Y-96499223D01*
X166077715Y-96681613D01*
X166198028Y-96847213D01*
X166342786Y-96991971D01*
X166497749Y-97104556D01*
X166508390Y-97112287D01*
X166624607Y-97171503D01*
X166690776Y-97205218D01*
X166690778Y-97205218D01*
X166690781Y-97205220D01*
X166795137Y-97239127D01*
X166885465Y-97268477D01*
X166986557Y-97284488D01*
X167087648Y-97300500D01*
X167087649Y-97300500D01*
X167292351Y-97300500D01*
X167292352Y-97300500D01*
X167494534Y-97268477D01*
X167689219Y-97205220D01*
X167871610Y-97112287D01*
X167964590Y-97044732D01*
X168037213Y-96991971D01*
X168037215Y-96991968D01*
X168037219Y-96991966D01*
X168181966Y-96847219D01*
X168181968Y-96847215D01*
X168181971Y-96847213D01*
X168273043Y-96721861D01*
X168302287Y-96681610D01*
X168395220Y-96499219D01*
X168458477Y-96304534D01*
X168490500Y-96102352D01*
X168490500Y-95897648D01*
X168458477Y-95695466D01*
X168458476Y-95695462D01*
X168458476Y-95695461D01*
X168395220Y-95500781D01*
X168395220Y-95500780D01*
X168329015Y-95370844D01*
X168315500Y-95314550D01*
X168315500Y-92661421D01*
X168287786Y-92486445D01*
X168233042Y-92317958D01*
X168233042Y-92317957D01*
X168152614Y-92160110D01*
X168048483Y-92016785D01*
X165470534Y-89438837D01*
X165440284Y-89389474D01*
X165395221Y-89250783D01*
X165395218Y-89250778D01*
X165302287Y-89068390D01*
X165264795Y-89016786D01*
X165181971Y-88902786D01*
X165037213Y-88758028D01*
X164871613Y-88637715D01*
X164871612Y-88637714D01*
X164871610Y-88637713D01*
X164780414Y-88591246D01*
X164689216Y-88544778D01*
X164550525Y-88499715D01*
X164501162Y-88469465D01*
X163753238Y-87721540D01*
X163719753Y-87660217D01*
X163724737Y-87590525D01*
X163766609Y-87534592D01*
X163832073Y-87510175D01*
X163879244Y-87515930D01*
X163885583Y-87517990D01*
X164087683Y-87550000D01*
X164292317Y-87550000D01*
X164494417Y-87517990D01*
X164689031Y-87454755D01*
X164871349Y-87361859D01*
X164915921Y-87329474D01*
X164236447Y-86650000D01*
X164242661Y-86650000D01*
X164344394Y-86622741D01*
X164435606Y-86570080D01*
X164510080Y-86495606D01*
X164562741Y-86404394D01*
X164590000Y-86302661D01*
X164590000Y-86296448D01*
X165269474Y-86975922D01*
X165269474Y-86975921D01*
X165301859Y-86931349D01*
X165394755Y-86749031D01*
X165457990Y-86554417D01*
X165490000Y-86352317D01*
X165490000Y-86147682D01*
X165457990Y-85945582D01*
X165394755Y-85750968D01*
X165301859Y-85568650D01*
X165269474Y-85524077D01*
X165269474Y-85524076D01*
X164590000Y-86203551D01*
X164590000Y-86197339D01*
X164562741Y-86095606D01*
X164510080Y-86004394D01*
X164435606Y-85929920D01*
X164344394Y-85877259D01*
X164242661Y-85850000D01*
X164236446Y-85850000D01*
X164924628Y-85161819D01*
X164985951Y-85128334D01*
X165012309Y-85125500D01*
X165482441Y-85125500D01*
X165549480Y-85145185D01*
X165570122Y-85161819D01*
X169838181Y-89429878D01*
X169871666Y-89491201D01*
X169874500Y-89517559D01*
X169874500Y-103660566D01*
X169854815Y-103727605D01*
X169802011Y-103773360D01*
X169732853Y-103783304D01*
X169669297Y-103754279D01*
X169640425Y-103711017D01*
X169637866Y-103712211D01*
X169634812Y-103705662D01*
X169542713Y-103556348D01*
X169542710Y-103556344D01*
X169418655Y-103432289D01*
X169418651Y-103432286D01*
X169269337Y-103340187D01*
X169269335Y-103340186D01*
X169186065Y-103312593D01*
X169102797Y-103285001D01*
X169102795Y-103285000D01*
X169000015Y-103274500D01*
X169000008Y-103274500D01*
X167974992Y-103274500D01*
X167974984Y-103274500D01*
X167872204Y-103285000D01*
X167872203Y-103285001D01*
X167705664Y-103340186D01*
X167705662Y-103340187D01*
X167556348Y-103432286D01*
X167556344Y-103432289D01*
X167432289Y-103556344D01*
X167432286Y-103556348D01*
X167340187Y-103705662D01*
X167340186Y-103705664D01*
X167285001Y-103872201D01*
X167285000Y-103872207D01*
X167282614Y-103895564D01*
X167256217Y-103960255D01*
X167246939Y-103970638D01*
X167205362Y-104012215D01*
X167205358Y-104012221D01*
X167095871Y-104176079D01*
X167095864Y-104176092D01*
X167020450Y-104358160D01*
X167020447Y-104358170D01*
X167001351Y-104454174D01*
X166968966Y-104516085D01*
X166967417Y-104517662D01*
X166936680Y-104548398D01*
X166875360Y-104581883D01*
X166805668Y-104576899D01*
X166749734Y-104535029D01*
X166725316Y-104469565D01*
X166725000Y-104460717D01*
X166725000Y-103975027D01*
X166724999Y-103975014D01*
X166714506Y-103872310D01*
X166714505Y-103872303D01*
X166659358Y-103705881D01*
X166659356Y-103705876D01*
X166567315Y-103556655D01*
X166443344Y-103432684D01*
X166294123Y-103340643D01*
X166294118Y-103340641D01*
X166127696Y-103285494D01*
X166127689Y-103285493D01*
X166024985Y-103275000D01*
X165762500Y-103275000D01*
X165762500Y-104526000D01*
X165742815Y-104593039D01*
X165690011Y-104638794D01*
X165638500Y-104650000D01*
X165512500Y-104650000D01*
X165512500Y-104776000D01*
X165492815Y-104843039D01*
X165440011Y-104888794D01*
X165388500Y-104900000D01*
X164300000Y-104900000D01*
X164300000Y-105324985D01*
X164310493Y-105427689D01*
X164310494Y-105427696D01*
X164365641Y-105594118D01*
X164365643Y-105594123D01*
X164457684Y-105743344D01*
X164581655Y-105867315D01*
X164730876Y-105959356D01*
X164730881Y-105959358D01*
X164897303Y-106014505D01*
X164897310Y-106014506D01*
X165000014Y-106024999D01*
X165000027Y-106025000D01*
X165160717Y-106025000D01*
X165227756Y-106044685D01*
X165273511Y-106097489D01*
X165283455Y-106166647D01*
X165254430Y-106230203D01*
X165248398Y-106236681D01*
X164896897Y-106588181D01*
X164835574Y-106621666D01*
X164809216Y-106624500D01*
X164549999Y-106624500D01*
X164549980Y-106624501D01*
X164447203Y-106635000D01*
X164447200Y-106635001D01*
X164280668Y-106690185D01*
X164280663Y-106690187D01*
X164131342Y-106782289D01*
X164007289Y-106906342D01*
X163915187Y-107055663D01*
X163915186Y-107055666D01*
X163860001Y-107222203D01*
X163860001Y-107222204D01*
X163860000Y-107222204D01*
X163849500Y-107324983D01*
X163849500Y-108675001D01*
X163849501Y-108675018D01*
X163860000Y-108777796D01*
X163860001Y-108777799D01*
X163915185Y-108944331D01*
X163915186Y-108944334D01*
X164007288Y-109093656D01*
X164131344Y-109217712D01*
X164280666Y-109309814D01*
X164447203Y-109364999D01*
X164549991Y-109375500D01*
X165450008Y-109375499D01*
X165450016Y-109375498D01*
X165450019Y-109375498D01*
X165506302Y-109369748D01*
X165552797Y-109364999D01*
X165719334Y-109309814D01*
X165868656Y-109217712D01*
X165992712Y-109093656D01*
X166084814Y-108944334D01*
X166139999Y-108777797D01*
X166150500Y-108675009D01*
X166150499Y-108215780D01*
X166170183Y-108148742D01*
X166186813Y-108128105D01*
X166693600Y-107621318D01*
X166754920Y-107587836D01*
X166824612Y-107592820D01*
X166880545Y-107634692D01*
X166904962Y-107700156D01*
X166902384Y-107731539D01*
X166902976Y-107731633D01*
X166902214Y-107736445D01*
X166874500Y-107911421D01*
X166874500Y-108088579D01*
X166902214Y-108263555D01*
X166941006Y-108382949D01*
X166943431Y-108390410D01*
X166949500Y-108428728D01*
X166949500Y-108675000D01*
X166949501Y-108675019D01*
X166960000Y-108777796D01*
X166960001Y-108777799D01*
X167015185Y-108944331D01*
X167015186Y-108944334D01*
X167107288Y-109093656D01*
X167231344Y-109217712D01*
X167380666Y-109309814D01*
X167547203Y-109364999D01*
X167649991Y-109375500D01*
X168550008Y-109375499D01*
X168550016Y-109375498D01*
X168550019Y-109375498D01*
X168606302Y-109369748D01*
X168652797Y-109364999D01*
X168819334Y-109309814D01*
X168968656Y-109217712D01*
X169024549Y-109161819D01*
X169085872Y-109128334D01*
X169112230Y-109125500D01*
X169750500Y-109125500D01*
X169817539Y-109145185D01*
X169863294Y-109197989D01*
X169874500Y-109249500D01*
X169874500Y-122482440D01*
X169854815Y-122549479D01*
X169838185Y-122570116D01*
X169799418Y-122608884D01*
X169761902Y-122646400D01*
X169700578Y-122679884D01*
X169693626Y-122681190D01*
X169683762Y-122682752D01*
X169683760Y-122682753D01*
X169481585Y-122748444D01*
X169292179Y-122844951D01*
X169120213Y-122969890D01*
X168969890Y-123120213D01*
X168844949Y-123292182D01*
X168840202Y-123301499D01*
X168792227Y-123352293D01*
X168724405Y-123369087D01*
X168658271Y-123346548D01*
X168619234Y-123301495D01*
X168614626Y-123292452D01*
X168575270Y-123238282D01*
X168575269Y-123238282D01*
X167942962Y-123870590D01*
X167925925Y-123807007D01*
X167860099Y-123692993D01*
X167767007Y-123599901D01*
X167652993Y-123534075D01*
X167589409Y-123517037D01*
X168221716Y-122884728D01*
X168167550Y-122845375D01*
X167978217Y-122748904D01*
X167776129Y-122683242D01*
X167566246Y-122650000D01*
X167353754Y-122650000D01*
X167143872Y-122683242D01*
X167143869Y-122683242D01*
X166941782Y-122748904D01*
X166752439Y-122845380D01*
X166698282Y-122884727D01*
X166698282Y-122884728D01*
X167330591Y-123517037D01*
X167267007Y-123534075D01*
X167152993Y-123599901D01*
X167059901Y-123692993D01*
X166994075Y-123807007D01*
X166977037Y-123870591D01*
X166306818Y-123200372D01*
X166273333Y-123139049D01*
X166273330Y-123139036D01*
X166270499Y-123126015D01*
X166270499Y-123102128D01*
X166264091Y-123042517D01*
X166235926Y-122967002D01*
X166213798Y-122907673D01*
X166213793Y-122907664D01*
X166127547Y-122792455D01*
X166127544Y-122792452D01*
X166012335Y-122706206D01*
X166012328Y-122706202D01*
X165877483Y-122655909D01*
X165870980Y-122654372D01*
X165810266Y-122619796D01*
X165777882Y-122557884D01*
X165775500Y-122533696D01*
X165775500Y-121145739D01*
X165795185Y-121078700D01*
X165847989Y-121032945D01*
X165917147Y-121023001D01*
X165918899Y-121023266D01*
X166087684Y-121050000D01*
X166292317Y-121050000D01*
X166494417Y-121017990D01*
X166689031Y-120954755D01*
X166871349Y-120861859D01*
X166915921Y-120829474D01*
X166236447Y-120150000D01*
X166242661Y-120150000D01*
X166344394Y-120122741D01*
X166435606Y-120070080D01*
X166510080Y-119995606D01*
X166562741Y-119904394D01*
X166590000Y-119802661D01*
X166590000Y-119796447D01*
X167269474Y-120475921D01*
X167301859Y-120431349D01*
X167394755Y-120249031D01*
X167457990Y-120054417D01*
X167490000Y-119852317D01*
X167490000Y-119647682D01*
X167457990Y-119445582D01*
X167394755Y-119250968D01*
X167301859Y-119068650D01*
X167269474Y-119024077D01*
X167269474Y-119024076D01*
X166590000Y-119703551D01*
X166590000Y-119697339D01*
X166562741Y-119595606D01*
X166510080Y-119504394D01*
X166435606Y-119429920D01*
X166344394Y-119377259D01*
X166242661Y-119350000D01*
X166236446Y-119350000D01*
X166915922Y-118670524D01*
X166915921Y-118670523D01*
X166871359Y-118638147D01*
X166871350Y-118638141D01*
X166689030Y-118545244D01*
X166668192Y-118538473D01*
X166610518Y-118499033D01*
X166583322Y-118434674D01*
X166595238Y-118365828D01*
X166618823Y-118332873D01*
X167048484Y-117903214D01*
X167152614Y-117759890D01*
X167233042Y-117602042D01*
X167287786Y-117433556D01*
X167315500Y-117258578D01*
X167315500Y-117081421D01*
X167315500Y-112935448D01*
X167329015Y-112879153D01*
X167395218Y-112749223D01*
X167395218Y-112749222D01*
X167395220Y-112749219D01*
X167458477Y-112554534D01*
X167490500Y-112352352D01*
X167490500Y-112147648D01*
X167458477Y-111945466D01*
X167458476Y-111945464D01*
X167429127Y-111855137D01*
X167395220Y-111750781D01*
X167395218Y-111750778D01*
X167395218Y-111750776D01*
X167361503Y-111684607D01*
X167302287Y-111568390D01*
X167294556Y-111557749D01*
X167181971Y-111402786D01*
X167037213Y-111258028D01*
X166871613Y-111137715D01*
X166871612Y-111137714D01*
X166871610Y-111137713D01*
X166814653Y-111108691D01*
X166689223Y-111044781D01*
X166494534Y-110981522D01*
X166319995Y-110953878D01*
X166292352Y-110949500D01*
X166087648Y-110949500D01*
X166063329Y-110953351D01*
X165885465Y-110981522D01*
X165690776Y-111044781D01*
X165508386Y-111137715D01*
X165342786Y-111258028D01*
X165198028Y-111402786D01*
X165077715Y-111568386D01*
X164984781Y-111750776D01*
X164921522Y-111945465D01*
X164889500Y-112147648D01*
X164889500Y-112352351D01*
X164921522Y-112554534D01*
X164984781Y-112749223D01*
X165050985Y-112879153D01*
X165064500Y-112935448D01*
X165064500Y-116652440D01*
X165044815Y-116719479D01*
X165028181Y-116740121D01*
X164737680Y-117030621D01*
X164676357Y-117064106D01*
X164606665Y-117059122D01*
X164562320Y-117030622D01*
X159470532Y-111938835D01*
X159440283Y-111889472D01*
X159395222Y-111750786D01*
X159395217Y-111750775D01*
X159329015Y-111620844D01*
X159315500Y-111564550D01*
X159315500Y-109647682D01*
X160890000Y-109647682D01*
X160890000Y-109852317D01*
X160922009Y-110054417D01*
X160985244Y-110249031D01*
X161078141Y-110431350D01*
X161078147Y-110431359D01*
X161110523Y-110475921D01*
X161110524Y-110475922D01*
X161790000Y-109796446D01*
X161790000Y-109802661D01*
X161817259Y-109904394D01*
X161869920Y-109995606D01*
X161944394Y-110070080D01*
X162035606Y-110122741D01*
X162137339Y-110150000D01*
X162143553Y-110150000D01*
X161464076Y-110829474D01*
X161508650Y-110861859D01*
X161690968Y-110954755D01*
X161885582Y-111017990D01*
X162087683Y-111050000D01*
X162292317Y-111050000D01*
X162494417Y-111017990D01*
X162689031Y-110954755D01*
X162871349Y-110861859D01*
X162915921Y-110829474D01*
X162236447Y-110150000D01*
X162242661Y-110150000D01*
X162344394Y-110122741D01*
X162435606Y-110070080D01*
X162510080Y-109995606D01*
X162562741Y-109904394D01*
X162590000Y-109802661D01*
X162590000Y-109796447D01*
X163269474Y-110475921D01*
X163301859Y-110431349D01*
X163394755Y-110249031D01*
X163457990Y-110054417D01*
X163490000Y-109852317D01*
X163490000Y-109647682D01*
X163457990Y-109445582D01*
X163394755Y-109250968D01*
X163301859Y-109068650D01*
X163269474Y-109024077D01*
X163269474Y-109024076D01*
X162590000Y-109703551D01*
X162590000Y-109697339D01*
X162562741Y-109595606D01*
X162510080Y-109504394D01*
X162435606Y-109429920D01*
X162344394Y-109377259D01*
X162242661Y-109350000D01*
X162236446Y-109350000D01*
X162915922Y-108670524D01*
X162915921Y-108670523D01*
X162871359Y-108638147D01*
X162871350Y-108638141D01*
X162689031Y-108545244D01*
X162494417Y-108482009D01*
X162292317Y-108450000D01*
X162087683Y-108450000D01*
X161885582Y-108482009D01*
X161690968Y-108545244D01*
X161508644Y-108638143D01*
X161464077Y-108670523D01*
X161464077Y-108670524D01*
X162143554Y-109350000D01*
X162137339Y-109350000D01*
X162035606Y-109377259D01*
X161944394Y-109429920D01*
X161869920Y-109504394D01*
X161817259Y-109595606D01*
X161790000Y-109697339D01*
X161790000Y-109703553D01*
X161110524Y-109024077D01*
X161110523Y-109024077D01*
X161078143Y-109068644D01*
X160985244Y-109250968D01*
X160922009Y-109445582D01*
X160890000Y-109647682D01*
X159315500Y-109647682D01*
X159315500Y-106397839D01*
X159335185Y-106330800D01*
X159383205Y-106287354D01*
X159429911Y-106263556D01*
X159456516Y-106250000D01*
X159529890Y-106212614D01*
X159673214Y-106108483D01*
X159798483Y-105983214D01*
X159857042Y-105924655D01*
X159857054Y-105924641D01*
X161548208Y-104233489D01*
X161806684Y-103975014D01*
X164300000Y-103975014D01*
X164300000Y-104400000D01*
X165262500Y-104400000D01*
X165262500Y-103275000D01*
X165000014Y-103275000D01*
X164897310Y-103285493D01*
X164897303Y-103285494D01*
X164730881Y-103340641D01*
X164730876Y-103340643D01*
X164581655Y-103432684D01*
X164457684Y-103556655D01*
X164365643Y-103705876D01*
X164365641Y-103705881D01*
X164310494Y-103872303D01*
X164310493Y-103872310D01*
X164300000Y-103975014D01*
X161806684Y-103975014D01*
X161897514Y-103884184D01*
X162194879Y-103586819D01*
X162256202Y-103553334D01*
X162282560Y-103550500D01*
X162292351Y-103550500D01*
X162292352Y-103550500D01*
X162494534Y-103518477D01*
X162689219Y-103455220D01*
X162871610Y-103362287D01*
X162964590Y-103294732D01*
X163037213Y-103241971D01*
X163037215Y-103241968D01*
X163037219Y-103241966D01*
X163181966Y-103097219D01*
X163181968Y-103097215D01*
X163181971Y-103097213D01*
X163236871Y-103021648D01*
X163302287Y-102931610D01*
X163395220Y-102749219D01*
X163458477Y-102554534D01*
X163490500Y-102352352D01*
X163490500Y-102147648D01*
X163470269Y-102019914D01*
X163458477Y-101945465D01*
X163406081Y-101784209D01*
X163395220Y-101750781D01*
X163395218Y-101750778D01*
X163395218Y-101750776D01*
X163337642Y-101637778D01*
X163302287Y-101568390D01*
X163294556Y-101557749D01*
X163181971Y-101402786D01*
X163037213Y-101258028D01*
X162871613Y-101137715D01*
X162871612Y-101137714D01*
X162871610Y-101137713D01*
X162814653Y-101108691D01*
X162689223Y-101044781D01*
X162494534Y-100981522D01*
X162319995Y-100953878D01*
X162292352Y-100949500D01*
X162087648Y-100949500D01*
X162063329Y-100953351D01*
X161885465Y-100981522D01*
X161690776Y-101044781D01*
X161508386Y-101137715D01*
X161342784Y-101258030D01*
X161222870Y-101377943D01*
X161208090Y-101390567D01*
X161206800Y-101391504D01*
X161206782Y-101391519D01*
X158652680Y-103945621D01*
X158591357Y-103979106D01*
X158521665Y-103974122D01*
X158477320Y-103945622D01*
X156470533Y-101938836D01*
X156440284Y-101889474D01*
X156395221Y-101750783D01*
X156395217Y-101750776D01*
X156302287Y-101568390D01*
X156294556Y-101557749D01*
X156181971Y-101402786D01*
X156037213Y-101258028D01*
X155871613Y-101137715D01*
X155871612Y-101137714D01*
X155871610Y-101137713D01*
X155814653Y-101108691D01*
X155689223Y-101044781D01*
X155494534Y-100981522D01*
X155319995Y-100953878D01*
X155292352Y-100949500D01*
X155087648Y-100949500D01*
X155063329Y-100953351D01*
X154885465Y-100981522D01*
X154690776Y-101044781D01*
X154621795Y-101079930D01*
X154553126Y-101092826D01*
X154488385Y-101066550D01*
X154448128Y-101009443D01*
X154441500Y-100969445D01*
X154441500Y-99502765D01*
X154461185Y-99435726D01*
X154505090Y-99397682D01*
X165890000Y-99397682D01*
X165890000Y-99602317D01*
X165922009Y-99804417D01*
X165985244Y-99999031D01*
X166078141Y-100181350D01*
X166078147Y-100181359D01*
X166110523Y-100225921D01*
X166110524Y-100225922D01*
X166790000Y-99546446D01*
X166790000Y-99552661D01*
X166817259Y-99654394D01*
X166869920Y-99745606D01*
X166944394Y-99820080D01*
X167035606Y-99872741D01*
X167137339Y-99900000D01*
X167143553Y-99900000D01*
X166464076Y-100579474D01*
X166508650Y-100611859D01*
X166690968Y-100704755D01*
X166885582Y-100767990D01*
X167087683Y-100800000D01*
X167292317Y-100800000D01*
X167494417Y-100767990D01*
X167689031Y-100704755D01*
X167871349Y-100611859D01*
X167915921Y-100579474D01*
X167236447Y-99900000D01*
X167242661Y-99900000D01*
X167344394Y-99872741D01*
X167435606Y-99820080D01*
X167510080Y-99745606D01*
X167562741Y-99654394D01*
X167590000Y-99552661D01*
X167590000Y-99546448D01*
X168269474Y-100225922D01*
X168269474Y-100225921D01*
X168301859Y-100181349D01*
X168394755Y-99999031D01*
X168457990Y-99804417D01*
X168490000Y-99602317D01*
X168490000Y-99397682D01*
X168457990Y-99195582D01*
X168394755Y-99000968D01*
X168301859Y-98818650D01*
X168269474Y-98774077D01*
X168269474Y-98774076D01*
X167590000Y-99453551D01*
X167590000Y-99447339D01*
X167562741Y-99345606D01*
X167510080Y-99254394D01*
X167435606Y-99179920D01*
X167344394Y-99127259D01*
X167242661Y-99100000D01*
X167236446Y-99100000D01*
X167915922Y-98420524D01*
X167915921Y-98420523D01*
X167871359Y-98388147D01*
X167871350Y-98388141D01*
X167689031Y-98295244D01*
X167494417Y-98232009D01*
X167292317Y-98200000D01*
X167087683Y-98200000D01*
X166885582Y-98232009D01*
X166690968Y-98295244D01*
X166508644Y-98388143D01*
X166464077Y-98420523D01*
X166464077Y-98420524D01*
X167143554Y-99100000D01*
X167137339Y-99100000D01*
X167035606Y-99127259D01*
X166944394Y-99179920D01*
X166869920Y-99254394D01*
X166817259Y-99345606D01*
X166790000Y-99447339D01*
X166790000Y-99453553D01*
X166110524Y-98774077D01*
X166110523Y-98774077D01*
X166078143Y-98818644D01*
X165985244Y-99000968D01*
X165922009Y-99195582D01*
X165890000Y-99397682D01*
X154505090Y-99397682D01*
X154513989Y-99389971D01*
X154565500Y-99378765D01*
X155466277Y-99378765D01*
X155497301Y-99372593D01*
X155562923Y-99359540D01*
X155659571Y-99340316D01*
X155712900Y-99318226D01*
X155841649Y-99264897D01*
X156005517Y-99155404D01*
X156144874Y-99016047D01*
X156144874Y-99016045D01*
X156155082Y-99005838D01*
X156155083Y-99005835D01*
X158765139Y-96395782D01*
X158765184Y-96395714D01*
X158874632Y-96231914D01*
X158928298Y-96102352D01*
X158931533Y-96094543D01*
X158931533Y-96094542D01*
X158931534Y-96094539D01*
X158950051Y-96049836D01*
X158988500Y-95856540D01*
X158988500Y-95659460D01*
X158988500Y-89309459D01*
X158976828Y-89250781D01*
X158976828Y-89250778D01*
X158950053Y-89116172D01*
X158950052Y-89116165D01*
X158930261Y-89068386D01*
X158908898Y-89016811D01*
X158908886Y-89016784D01*
X158874635Y-88934092D01*
X158874633Y-88934088D01*
X158874632Y-88934086D01*
X158849535Y-88896525D01*
X158765140Y-88770219D01*
X158731364Y-88736443D01*
X158625782Y-88630861D01*
X158625781Y-88630860D01*
X157534310Y-87539390D01*
X157500826Y-87478068D01*
X157499519Y-87471108D01*
X157496929Y-87454755D01*
X157476526Y-87325934D01*
X157413367Y-87131549D01*
X157413367Y-87131548D01*
X157334071Y-86975922D01*
X157320577Y-86949438D01*
X157200440Y-86784084D01*
X157055916Y-86639560D01*
X156890562Y-86519423D01*
X156880816Y-86514457D01*
X156708451Y-86426632D01*
X156708448Y-86426631D01*
X156514067Y-86363474D01*
X156413130Y-86347487D01*
X156312194Y-86331500D01*
X156107806Y-86331500D01*
X156040515Y-86342158D01*
X155905932Y-86363474D01*
X155711551Y-86426631D01*
X155711548Y-86426632D01*
X155529437Y-86519423D01*
X155459715Y-86570080D01*
X155410524Y-86605818D01*
X155344719Y-86629298D01*
X155337640Y-86629500D01*
X147932675Y-86629500D01*
X147932655Y-86629499D01*
X147926541Y-86629499D01*
X147729460Y-86629499D01*
X147729457Y-86629499D01*
X147536172Y-86667946D01*
X147536164Y-86667948D01*
X147354088Y-86743366D01*
X147354079Y-86743371D01*
X147190219Y-86852859D01*
X147190215Y-86852862D01*
X145541399Y-88501681D01*
X145480076Y-88535166D01*
X145453718Y-88538000D01*
X139413059Y-88538000D01*
X139346020Y-88518315D01*
X139300265Y-88465511D01*
X139290321Y-88396353D01*
X139319346Y-88332797D01*
X139325378Y-88326319D01*
X142489878Y-85161819D01*
X142551201Y-85128334D01*
X142577559Y-85125500D01*
X160758129Y-85125500D01*
X160825168Y-85145185D01*
G37*
%TD.AperFunction*%
%TA.AperFunction,Conductor*%
G36*
X155358059Y-88636495D02*
G01*
X155379310Y-88637711D01*
X155401063Y-88649123D01*
X155404679Y-88650185D01*
X155409932Y-88653776D01*
X155410050Y-88653838D01*
X155410251Y-88653983D01*
X155529438Y-88740577D01*
X155570229Y-88761361D01*
X155711548Y-88833367D01*
X155711551Y-88833368D01*
X155808741Y-88864946D01*
X155905934Y-88896526D01*
X156051108Y-88919519D01*
X156114242Y-88949448D01*
X156119391Y-88954311D01*
X156951181Y-89786101D01*
X156984666Y-89847424D01*
X156987500Y-89873782D01*
X156987500Y-95292217D01*
X156967815Y-95359256D01*
X156951181Y-95379898D01*
X154989634Y-97341446D01*
X154928311Y-97374931D01*
X154901953Y-97377765D01*
X153906783Y-97377765D01*
X153839744Y-97358080D01*
X153819102Y-97341446D01*
X153345944Y-96868289D01*
X153345941Y-96868285D01*
X153345941Y-96868286D01*
X153338874Y-96861219D01*
X153338874Y-96861218D01*
X153199517Y-96721861D01*
X153199516Y-96721860D01*
X153199515Y-96721859D01*
X153035655Y-96612371D01*
X153035646Y-96612366D01*
X152963050Y-96582296D01*
X152906900Y-96559038D01*
X152853571Y-96536949D01*
X152853567Y-96536948D01*
X152853563Y-96536946D01*
X152756923Y-96517724D01*
X152660279Y-96498500D01*
X152660276Y-96498500D01*
X146045675Y-96498500D01*
X146045655Y-96498499D01*
X146039541Y-96498499D01*
X145842460Y-96498499D01*
X145842457Y-96498499D01*
X145649172Y-96536946D01*
X145649164Y-96536948D01*
X145467088Y-96612366D01*
X145467079Y-96612371D01*
X145303219Y-96721859D01*
X145303215Y-96721862D01*
X143802219Y-98222861D01*
X142061899Y-99963181D01*
X142000576Y-99996666D01*
X141974218Y-99999500D01*
X138465782Y-99999500D01*
X138398743Y-99979815D01*
X138378101Y-99963181D01*
X133226819Y-94811899D01*
X133193334Y-94750576D01*
X133190500Y-94724218D01*
X133190500Y-91255199D01*
X133210185Y-91188160D01*
X133262989Y-91142405D01*
X133314500Y-91131199D01*
X133330071Y-91131199D01*
X133330072Y-91131199D01*
X133389683Y-91124791D01*
X133524531Y-91074496D01*
X133639746Y-90988246D01*
X133725996Y-90873031D01*
X133776291Y-90738183D01*
X133782700Y-90678573D01*
X133782700Y-90663000D01*
X133802385Y-90595961D01*
X133855189Y-90550206D01*
X133906700Y-90539000D01*
X146018042Y-90539000D01*
X146049066Y-90532828D01*
X146114688Y-90519775D01*
X146211336Y-90500551D01*
X146264665Y-90478461D01*
X146393414Y-90425132D01*
X146557282Y-90315639D01*
X146696639Y-90176282D01*
X146696639Y-90176280D01*
X146706847Y-90166073D01*
X146706848Y-90166070D01*
X148206102Y-88666819D01*
X148267425Y-88633334D01*
X148293783Y-88630500D01*
X155337640Y-88630500D01*
X155358059Y-88636495D01*
G37*
%TD.AperFunction*%
%TA.AperFunction,Conductor*%
G36*
X172442539Y-79520185D02*
G01*
X172488294Y-79572989D01*
X172499500Y-79624500D01*
X172499500Y-126375500D01*
X172479815Y-126442539D01*
X172427011Y-126488294D01*
X172375500Y-126499500D01*
X125624500Y-126499500D01*
X125557461Y-126479815D01*
X125511706Y-126427011D01*
X125500500Y-126375500D01*
X125500500Y-125553544D01*
X139293000Y-125553544D01*
X139299401Y-125613072D01*
X139299403Y-125613079D01*
X139349645Y-125747786D01*
X139349649Y-125747793D01*
X139435809Y-125862887D01*
X139435812Y-125862890D01*
X139550906Y-125949050D01*
X139550913Y-125949054D01*
X139685620Y-125999296D01*
X139685627Y-125999298D01*
X139745155Y-126005699D01*
X139745172Y-126005700D01*
X144750000Y-126005700D01*
X145250000Y-126005700D01*
X150254828Y-126005700D01*
X150254844Y-126005699D01*
X150314372Y-125999298D01*
X150314379Y-125999296D01*
X150449086Y-125949054D01*
X150449093Y-125949050D01*
X150564187Y-125862890D01*
X150564190Y-125862887D01*
X150650350Y-125747793D01*
X150650354Y-125747786D01*
X150700596Y-125613079D01*
X150700598Y-125613072D01*
X150706999Y-125553544D01*
X150707000Y-125553527D01*
X150707000Y-120523300D01*
X145250000Y-120523300D01*
X145250000Y-126005700D01*
X144750000Y-126005700D01*
X144750000Y-120523300D01*
X139293000Y-120523300D01*
X139293000Y-125553544D01*
X125500500Y-125553544D01*
X125500500Y-122868872D01*
X126999500Y-122868872D01*
X126999500Y-123131127D01*
X127016936Y-123263555D01*
X127033730Y-123391116D01*
X127098831Y-123634076D01*
X127101602Y-123644418D01*
X127101605Y-123644428D01*
X127201953Y-123886690D01*
X127201958Y-123886700D01*
X127333075Y-124113803D01*
X127492718Y-124321851D01*
X127492726Y-124321860D01*
X127678140Y-124507274D01*
X127678148Y-124507281D01*
X127886196Y-124666924D01*
X128113299Y-124798041D01*
X128113309Y-124798046D01*
X128355571Y-124898394D01*
X128355581Y-124898398D01*
X128608884Y-124966270D01*
X128868880Y-125000500D01*
X128868887Y-125000500D01*
X129131113Y-125000500D01*
X129131120Y-125000500D01*
X129391116Y-124966270D01*
X129644419Y-124898398D01*
X129882856Y-124799634D01*
X129886690Y-124798046D01*
X129886691Y-124798045D01*
X129886697Y-124798043D01*
X130113803Y-124666924D01*
X130321851Y-124507282D01*
X130321855Y-124507277D01*
X130321860Y-124507274D01*
X130507274Y-124321860D01*
X130507277Y-124321855D01*
X130507282Y-124321851D01*
X130666924Y-124113803D01*
X130798043Y-123886697D01*
X130898398Y-123644419D01*
X130966270Y-123391116D01*
X131000500Y-123131120D01*
X131000500Y-122868880D01*
X130966270Y-122608884D01*
X130898398Y-122355581D01*
X130800204Y-122118520D01*
X130798046Y-122113309D01*
X130798041Y-122113299D01*
X130666924Y-121886196D01*
X130507281Y-121678148D01*
X130507274Y-121678140D01*
X130321860Y-121492726D01*
X130321851Y-121492718D01*
X130113803Y-121333075D01*
X129886700Y-121201958D01*
X129886690Y-121201953D01*
X129644428Y-121101605D01*
X129644421Y-121101603D01*
X129644419Y-121101602D01*
X129391116Y-121033730D01*
X129333339Y-121026123D01*
X129131127Y-120999500D01*
X129131120Y-120999500D01*
X128868880Y-120999500D01*
X128868872Y-120999500D01*
X128637772Y-121029926D01*
X128608884Y-121033730D01*
X128441053Y-121078700D01*
X128355581Y-121101602D01*
X128355571Y-121101605D01*
X128113309Y-121201953D01*
X128113299Y-121201958D01*
X127886196Y-121333075D01*
X127678148Y-121492718D01*
X127492718Y-121678148D01*
X127333075Y-121886196D01*
X127201958Y-122113299D01*
X127201953Y-122113309D01*
X127101605Y-122355571D01*
X127101602Y-122355581D01*
X127047396Y-122557884D01*
X127033730Y-122608885D01*
X126999500Y-122868872D01*
X125500500Y-122868872D01*
X125500500Y-114993055D01*
X139293000Y-114993055D01*
X139293000Y-120023300D01*
X144750000Y-120023300D01*
X144750000Y-114540900D01*
X139745155Y-114540900D01*
X139685627Y-114547301D01*
X139685620Y-114547303D01*
X139550913Y-114597545D01*
X139550906Y-114597549D01*
X139435812Y-114683709D01*
X139435809Y-114683712D01*
X139349649Y-114798806D01*
X139349645Y-114798813D01*
X139299403Y-114933520D01*
X139299401Y-114933527D01*
X139293000Y-114993055D01*
X125500500Y-114993055D01*
X125500500Y-109733191D01*
X130597800Y-109733191D01*
X130597800Y-109983808D01*
X130637006Y-110231342D01*
X130637006Y-110231345D01*
X130714449Y-110469690D01*
X130828229Y-110692994D01*
X130901333Y-110793612D01*
X130901333Y-110793613D01*
X131444916Y-110250030D01*
X131447197Y-110255537D01*
X131538927Y-110392822D01*
X131655678Y-110509573D01*
X131792963Y-110601303D01*
X131798468Y-110603583D01*
X131254885Y-111147165D01*
X131355505Y-111220270D01*
X131578809Y-111334050D01*
X131817156Y-111411493D01*
X132064692Y-111450700D01*
X132315308Y-111450700D01*
X132562842Y-111411493D01*
X132562845Y-111411493D01*
X132801190Y-111334050D01*
X133024486Y-111220274D01*
X133024492Y-111220270D01*
X133125112Y-111147165D01*
X133125113Y-111147165D01*
X132581531Y-110603583D01*
X132587037Y-110601303D01*
X132724322Y-110509573D01*
X132841073Y-110392822D01*
X132932803Y-110255537D01*
X132935083Y-110250031D01*
X133478665Y-110793613D01*
X133478665Y-110793612D01*
X133551770Y-110692992D01*
X133551774Y-110692986D01*
X133665550Y-110469690D01*
X133742993Y-110231345D01*
X133742993Y-110231342D01*
X133782200Y-109983808D01*
X133782200Y-109733191D01*
X133742993Y-109485657D01*
X133742993Y-109485654D01*
X133665550Y-109247309D01*
X133551770Y-109024005D01*
X133478665Y-108923386D01*
X133478665Y-108923385D01*
X132935083Y-109466967D01*
X132932803Y-109461463D01*
X132841073Y-109324178D01*
X132724322Y-109207427D01*
X132587037Y-109115697D01*
X132581529Y-109113415D01*
X133125113Y-108569833D01*
X133024494Y-108496729D01*
X132801190Y-108382949D01*
X132562843Y-108305506D01*
X132315308Y-108266300D01*
X132064692Y-108266300D01*
X131817157Y-108305506D01*
X131817154Y-108305506D01*
X131578809Y-108382949D01*
X131355502Y-108496731D01*
X131254886Y-108569832D01*
X131254885Y-108569833D01*
X131798468Y-109113416D01*
X131792963Y-109115697D01*
X131655678Y-109207427D01*
X131538927Y-109324178D01*
X131447197Y-109461463D01*
X131444916Y-109466968D01*
X130901333Y-108923385D01*
X130901332Y-108923386D01*
X130828231Y-109024002D01*
X130714449Y-109247309D01*
X130637006Y-109485654D01*
X130637006Y-109485657D01*
X130597800Y-109733191D01*
X125500500Y-109733191D01*
X125500500Y-86911421D01*
X128064500Y-86911421D01*
X128064500Y-95751078D01*
X128092214Y-95926056D01*
X128146956Y-96094539D01*
X128146957Y-96094542D01*
X128227386Y-96252390D01*
X128265271Y-96304534D01*
X128331514Y-96395710D01*
X128331519Y-96395716D01*
X138798605Y-106862804D01*
X138798627Y-106862824D01*
X141298181Y-109362378D01*
X141331666Y-109423701D01*
X141334500Y-109450059D01*
X141334500Y-109869800D01*
X141314815Y-109936839D01*
X141262011Y-109982594D01*
X141210500Y-109993800D01*
X140710329Y-109993800D01*
X140710323Y-109993801D01*
X140650716Y-110000208D01*
X140515871Y-110050502D01*
X140515864Y-110050506D01*
X140400655Y-110136752D01*
X140400652Y-110136755D01*
X140314406Y-110251964D01*
X140314402Y-110251971D01*
X140264108Y-110386817D01*
X140257701Y-110446416D01*
X140257700Y-110446435D01*
X140257700Y-113234570D01*
X140257701Y-113234576D01*
X140264108Y-113294183D01*
X140314402Y-113429028D01*
X140314406Y-113429035D01*
X140400652Y-113544244D01*
X140400655Y-113544247D01*
X140515864Y-113630493D01*
X140515871Y-113630497D01*
X140650717Y-113680791D01*
X140650716Y-113680791D01*
X140657644Y-113681535D01*
X140710327Y-113687200D01*
X141669672Y-113687199D01*
X141670277Y-113687199D01*
X141737316Y-113706883D01*
X141743149Y-113710871D01*
X141870110Y-113803114D01*
X141926523Y-113831858D01*
X142027957Y-113883542D01*
X142027960Y-113883543D01*
X142112201Y-113910914D01*
X142196445Y-113938286D01*
X142371421Y-113966000D01*
X142371422Y-113966000D01*
X142548578Y-113966000D01*
X142548579Y-113966000D01*
X142723555Y-113938286D01*
X142892042Y-113883542D01*
X143049890Y-113803114D01*
X143176839Y-113710879D01*
X143242642Y-113687401D01*
X143249722Y-113687199D01*
X143250318Y-113687199D01*
X143250327Y-113687200D01*
X144209672Y-113687199D01*
X144269283Y-113680791D01*
X144322380Y-113660986D01*
X144392071Y-113656002D01*
X144409048Y-113660986D01*
X144460823Y-113680297D01*
X144460827Y-113680298D01*
X144520355Y-113686699D01*
X144520372Y-113686700D01*
X144750000Y-113686700D01*
X144750000Y-109994300D01*
X144604500Y-109994300D01*
X144537461Y-109974615D01*
X144491706Y-109921811D01*
X144480500Y-109870300D01*
X144480500Y-108272229D01*
X144500185Y-108205190D01*
X144516815Y-108184552D01*
X145289549Y-107411817D01*
X145350872Y-107378333D01*
X145377230Y-107375499D01*
X146090002Y-107375499D01*
X146090008Y-107375499D01*
X146192797Y-107364999D01*
X146359334Y-107309814D01*
X146508656Y-107217712D01*
X146632712Y-107093656D01*
X146724814Y-106944334D01*
X146779999Y-106777797D01*
X146790500Y-106675009D01*
X146790499Y-105325013D01*
X147590000Y-105325013D01*
X147590000Y-105750000D01*
X148490000Y-105750000D01*
X148490000Y-104625000D01*
X148290029Y-104625000D01*
X148290012Y-104625001D01*
X148187302Y-104635494D01*
X148020880Y-104690641D01*
X148020875Y-104690643D01*
X147871654Y-104782684D01*
X147747684Y-104906654D01*
X147655643Y-105055875D01*
X147655641Y-105055880D01*
X147600494Y-105222302D01*
X147600493Y-105222309D01*
X147590000Y-105325013D01*
X146790499Y-105325013D01*
X146790499Y-105324992D01*
X146779999Y-105222203D01*
X146724814Y-105055666D01*
X146632712Y-104906344D01*
X146508656Y-104782288D01*
X146359334Y-104690186D01*
X146192797Y-104635001D01*
X146192795Y-104635000D01*
X146090010Y-104624500D01*
X145189998Y-104624500D01*
X145189980Y-104624501D01*
X145087203Y-104635000D01*
X145087200Y-104635001D01*
X144920668Y-104690185D01*
X144920663Y-104690187D01*
X144771342Y-104782289D01*
X144647289Y-104906342D01*
X144555187Y-105055663D01*
X144555185Y-105055668D01*
X144555115Y-105055880D01*
X144500001Y-105222203D01*
X144500001Y-105222204D01*
X144500000Y-105222204D01*
X144489500Y-105324983D01*
X144489500Y-106037769D01*
X144469815Y-106104808D01*
X144453181Y-106125450D01*
X143147050Y-107431580D01*
X143147044Y-107431588D01*
X143097812Y-107505268D01*
X143097813Y-107505269D01*
X143064921Y-107554496D01*
X143064914Y-107554509D01*
X143021350Y-107659683D01*
X142977509Y-107714086D01*
X142911215Y-107736151D01*
X142843515Y-107718872D01*
X142819108Y-107699911D01*
X140390324Y-105271127D01*
X140390304Y-105271105D01*
X130351819Y-95232620D01*
X130318334Y-95171297D01*
X130315500Y-95144939D01*
X130315500Y-88371500D01*
X130335185Y-88304461D01*
X130387989Y-88258706D01*
X130439500Y-88247500D01*
X130475481Y-88247500D01*
X130542520Y-88267185D01*
X130588275Y-88319989D01*
X130598770Y-88384757D01*
X130597300Y-88398421D01*
X130597300Y-90678570D01*
X130597301Y-90678576D01*
X130603708Y-90738183D01*
X130654002Y-90873028D01*
X130654006Y-90873035D01*
X130740252Y-90988244D01*
X130740255Y-90988247D01*
X130855464Y-91074493D01*
X130855471Y-91074497D01*
X130900418Y-91091261D01*
X130990317Y-91124791D01*
X131049927Y-91131200D01*
X131065496Y-91131199D01*
X131132534Y-91150880D01*
X131178292Y-91203682D01*
X131189500Y-91255199D01*
X131189500Y-95288544D01*
X131208724Y-95385188D01*
X131227946Y-95481828D01*
X131227948Y-95481832D01*
X131227949Y-95481836D01*
X131250038Y-95535164D01*
X131303366Y-95663911D01*
X131303371Y-95663920D01*
X131412860Y-95827781D01*
X131412863Y-95827785D01*
X131556537Y-95971459D01*
X131556559Y-95971479D01*
X137222858Y-101637778D01*
X137222861Y-101637782D01*
X137362218Y-101777139D01*
X137362220Y-101777140D01*
X137369289Y-101784209D01*
X139486215Y-103901137D01*
X139486219Y-103901140D01*
X139650079Y-104010628D01*
X139650088Y-104010633D01*
X139653915Y-104012218D01*
X139832165Y-104086052D01*
X140025455Y-104124500D01*
X140025458Y-104124501D01*
X140025460Y-104124501D01*
X140228655Y-104124501D01*
X140228675Y-104124500D01*
X141424238Y-104124500D01*
X141491277Y-104144185D01*
X141497119Y-104148179D01*
X141618390Y-104236287D01*
X141734607Y-104295503D01*
X141800776Y-104329218D01*
X141800778Y-104329218D01*
X141800781Y-104329220D01*
X141889849Y-104358160D01*
X141995465Y-104392477D01*
X142096557Y-104408488D01*
X142197648Y-104424500D01*
X142197649Y-104424500D01*
X142402351Y-104424500D01*
X142402352Y-104424500D01*
X142604534Y-104392477D01*
X142799219Y-104329220D01*
X142981610Y-104236287D01*
X143108379Y-104144185D01*
X143147213Y-104115971D01*
X143147215Y-104115968D01*
X143147219Y-104115966D01*
X143291966Y-103971219D01*
X143291968Y-103971215D01*
X143291971Y-103971213D01*
X143386068Y-103841697D01*
X143412287Y-103805610D01*
X143505220Y-103623219D01*
X143568477Y-103428534D01*
X143600500Y-103226352D01*
X143600500Y-103021648D01*
X143568477Y-102819466D01*
X143505220Y-102624781D01*
X143505218Y-102624778D01*
X143505218Y-102624776D01*
X143469427Y-102554534D01*
X143412287Y-102442390D01*
X143399654Y-102425003D01*
X143324182Y-102321122D01*
X143300702Y-102255316D01*
X143300500Y-102248237D01*
X143300500Y-102096638D01*
X143320185Y-102029599D01*
X143321401Y-102027743D01*
X143326628Y-102019920D01*
X143326628Y-102019919D01*
X143326632Y-102019914D01*
X143381839Y-101886631D01*
X143402051Y-101837836D01*
X143437403Y-101660109D01*
X143440500Y-101644541D01*
X143440500Y-101464227D01*
X143440539Y-101462673D01*
X143450767Y-101430815D01*
X143460185Y-101398743D01*
X143461647Y-101396928D01*
X143461898Y-101396148D01*
X143463022Y-101395222D01*
X143476819Y-101378101D01*
X145275698Y-99579222D01*
X145275710Y-99579208D01*
X146319102Y-98535819D01*
X146380425Y-98502334D01*
X146406783Y-98499500D01*
X152095953Y-98499500D01*
X152162992Y-98519185D01*
X152183634Y-98535819D01*
X152404181Y-98756366D01*
X152437666Y-98817689D01*
X152440500Y-98844047D01*
X152440500Y-101283217D01*
X152420815Y-101350256D01*
X152404181Y-101370898D01*
X151174872Y-102600206D01*
X151113549Y-102633691D01*
X151043857Y-102628707D01*
X150987924Y-102586835D01*
X150976706Y-102568820D01*
X150912284Y-102442385D01*
X150791971Y-102276786D01*
X150647213Y-102132028D01*
X150481613Y-102011715D01*
X150481612Y-102011714D01*
X150481610Y-102011713D01*
X150424653Y-101982691D01*
X150299223Y-101918781D01*
X150104534Y-101855522D01*
X149929995Y-101827878D01*
X149902352Y-101823500D01*
X149697648Y-101823500D01*
X149673329Y-101827351D01*
X149495465Y-101855522D01*
X149300776Y-101918781D01*
X149118386Y-102011715D01*
X148952786Y-102132028D01*
X148808028Y-102276786D01*
X148687715Y-102442386D01*
X148594781Y-102624776D01*
X148531522Y-102819465D01*
X148499500Y-103021648D01*
X148499500Y-103226351D01*
X148531522Y-103428534D01*
X148594781Y-103623223D01*
X148687715Y-103805613D01*
X148808028Y-103971213D01*
X148952782Y-104115967D01*
X148983492Y-104138279D01*
X149038384Y-104178160D01*
X149081051Y-104233489D01*
X149089500Y-104278478D01*
X149089500Y-104501000D01*
X149069815Y-104568039D01*
X149017011Y-104613794D01*
X148996811Y-104618188D01*
X148990000Y-104625000D01*
X148990000Y-105876000D01*
X148970315Y-105943039D01*
X148917511Y-105988794D01*
X148866000Y-106000000D01*
X148740000Y-106000000D01*
X148740000Y-106126000D01*
X148720315Y-106193039D01*
X148667511Y-106238794D01*
X148616000Y-106250000D01*
X147590001Y-106250000D01*
X147590001Y-106674986D01*
X147600494Y-106777697D01*
X147655641Y-106944119D01*
X147655643Y-106944124D01*
X147747684Y-107093345D01*
X147751263Y-107096924D01*
X147784748Y-107158247D01*
X147779764Y-107227939D01*
X147751263Y-107272286D01*
X145632221Y-109391328D01*
X145632218Y-109391331D01*
X145593629Y-109429920D01*
X145492859Y-109530689D01*
X145383371Y-109694549D01*
X145383364Y-109694562D01*
X145307949Y-109876633D01*
X145307947Y-109876641D01*
X145300459Y-109914287D01*
X145268074Y-109976198D01*
X145266524Y-109977775D01*
X145250000Y-109994299D01*
X145250000Y-113686700D01*
X145479628Y-113686700D01*
X145479644Y-113686699D01*
X145539177Y-113680297D01*
X145539179Y-113680297D01*
X145590951Y-113660987D01*
X145660643Y-113656002D01*
X145677609Y-113660982D01*
X145708159Y-113672377D01*
X145733712Y-113685455D01*
X145753958Y-113698983D01*
X145796086Y-113727132D01*
X145796088Y-113727133D01*
X145796092Y-113727135D01*
X145978160Y-113802549D01*
X145978165Y-113802551D01*
X145978169Y-113802551D01*
X145978170Y-113802552D01*
X146171456Y-113841000D01*
X146290500Y-113841000D01*
X146357539Y-113860685D01*
X146403294Y-113913489D01*
X146414500Y-113965000D01*
X146414500Y-114416900D01*
X146394815Y-114483939D01*
X146342011Y-114529694D01*
X146290500Y-114540900D01*
X145250000Y-114540900D01*
X145250000Y-120023300D01*
X150707000Y-120023300D01*
X150707000Y-119647682D01*
X156890000Y-119647682D01*
X156890000Y-119852317D01*
X156922009Y-120054417D01*
X156985244Y-120249031D01*
X157078141Y-120431350D01*
X157078147Y-120431359D01*
X157110523Y-120475921D01*
X157110524Y-120475922D01*
X157790000Y-119796446D01*
X157790000Y-119802661D01*
X157817259Y-119904394D01*
X157869920Y-119995606D01*
X157944394Y-120070080D01*
X158035606Y-120122741D01*
X158137339Y-120150000D01*
X158143553Y-120150000D01*
X157464076Y-120829474D01*
X157508650Y-120861859D01*
X157690968Y-120954755D01*
X157885582Y-121017990D01*
X158087683Y-121050000D01*
X158292317Y-121050000D01*
X158494417Y-121017990D01*
X158689031Y-120954755D01*
X158871349Y-120861859D01*
X158915921Y-120829474D01*
X158236447Y-120150000D01*
X158242661Y-120150000D01*
X158344394Y-120122741D01*
X158435606Y-120070080D01*
X158510080Y-119995606D01*
X158562741Y-119904394D01*
X158590000Y-119802661D01*
X158590000Y-119796447D01*
X159269474Y-120475921D01*
X159301859Y-120431349D01*
X159394755Y-120249031D01*
X159457990Y-120054417D01*
X159490000Y-119852317D01*
X159490000Y-119647682D01*
X159457990Y-119445582D01*
X159394755Y-119250968D01*
X159301859Y-119068650D01*
X159269474Y-119024077D01*
X159269474Y-119024076D01*
X158590000Y-119703551D01*
X158590000Y-119697339D01*
X158562741Y-119595606D01*
X158510080Y-119504394D01*
X158435606Y-119429920D01*
X158344394Y-119377259D01*
X158242661Y-119350000D01*
X158236446Y-119350000D01*
X158915922Y-118670524D01*
X158915921Y-118670523D01*
X158871359Y-118638147D01*
X158871350Y-118638141D01*
X158689031Y-118545244D01*
X158494417Y-118482009D01*
X158292317Y-118450000D01*
X158087683Y-118450000D01*
X157885582Y-118482009D01*
X157690968Y-118545244D01*
X157508644Y-118638143D01*
X157464077Y-118670523D01*
X157464077Y-118670524D01*
X158143554Y-119350000D01*
X158137339Y-119350000D01*
X158035606Y-119377259D01*
X157944394Y-119429920D01*
X157869920Y-119504394D01*
X157817259Y-119595606D01*
X157790000Y-119697339D01*
X157790000Y-119703553D01*
X157110524Y-119024077D01*
X157110523Y-119024077D01*
X157078143Y-119068644D01*
X156985244Y-119250968D01*
X156922009Y-119445582D01*
X156890000Y-119647682D01*
X150707000Y-119647682D01*
X150707000Y-115249500D01*
X150726685Y-115182461D01*
X150779489Y-115136706D01*
X150831000Y-115125500D01*
X153278578Y-115125500D01*
X153278579Y-115125500D01*
X153453555Y-115097786D01*
X153622042Y-115043042D01*
X153779890Y-114962614D01*
X153923214Y-114858483D01*
X154048483Y-114733214D01*
X154152614Y-114589890D01*
X154233042Y-114432042D01*
X154287786Y-114263555D01*
X154315500Y-114088579D01*
X154315500Y-110964891D01*
X154335185Y-110897852D01*
X154387989Y-110852097D01*
X154457147Y-110842153D01*
X154503460Y-110861001D01*
X154504495Y-110859314D01*
X154508642Y-110861855D01*
X154690968Y-110954755D01*
X154885582Y-111017990D01*
X155087683Y-111050000D01*
X155292317Y-111050000D01*
X155494417Y-111017990D01*
X155689031Y-110954755D01*
X155871349Y-110861859D01*
X155915921Y-110829474D01*
X155236447Y-110150000D01*
X155242661Y-110150000D01*
X155344394Y-110122741D01*
X155435606Y-110070080D01*
X155510080Y-109995606D01*
X155562741Y-109904394D01*
X155590000Y-109802661D01*
X155590000Y-109796447D01*
X156269474Y-110475921D01*
X156301859Y-110431349D01*
X156394755Y-110249031D01*
X156457990Y-110054417D01*
X156490000Y-109852317D01*
X156490000Y-109647682D01*
X156457990Y-109445582D01*
X156394755Y-109250968D01*
X156301859Y-109068650D01*
X156269474Y-109024077D01*
X156269474Y-109024076D01*
X155590000Y-109703551D01*
X155590000Y-109697339D01*
X155562741Y-109595606D01*
X155510080Y-109504394D01*
X155435606Y-109429920D01*
X155344394Y-109377259D01*
X155242661Y-109350000D01*
X155236446Y-109350000D01*
X155915922Y-108670524D01*
X155915921Y-108670523D01*
X155871359Y-108638147D01*
X155871350Y-108638141D01*
X155689031Y-108545244D01*
X155494417Y-108482009D01*
X155292317Y-108450000D01*
X155087683Y-108450000D01*
X154885582Y-108482009D01*
X154690968Y-108545244D01*
X154508642Y-108638144D01*
X154504495Y-108640686D01*
X154503282Y-108638707D01*
X154446425Y-108658915D01*
X154378390Y-108643004D01*
X154329758Y-108592838D01*
X154315500Y-108535108D01*
X154315500Y-104767558D01*
X154335185Y-104700519D01*
X154351815Y-104679881D01*
X155102318Y-103929377D01*
X155163641Y-103895893D01*
X155233333Y-103900877D01*
X155277680Y-103929378D01*
X157028181Y-105679878D01*
X157061666Y-105741201D01*
X157064500Y-105767559D01*
X157064500Y-111564550D01*
X157050985Y-111620844D01*
X156984779Y-111750780D01*
X156984779Y-111750781D01*
X156921523Y-111945461D01*
X156921523Y-111945464D01*
X156889500Y-112147648D01*
X156889500Y-112352351D01*
X156921522Y-112554534D01*
X156984781Y-112749223D01*
X157077715Y-112931613D01*
X157198028Y-113097213D01*
X157342786Y-113241971D01*
X157497749Y-113354556D01*
X157508390Y-113362287D01*
X157690781Y-113455220D01*
X157690783Y-113455221D01*
X157829474Y-113500284D01*
X157878837Y-113530534D01*
X163488181Y-119139878D01*
X163521666Y-119201201D01*
X163524500Y-119227559D01*
X163524500Y-123818578D01*
X163552213Y-123993554D01*
X163552214Y-123993556D01*
X163563431Y-124028081D01*
X163569500Y-124066396D01*
X163569500Y-124897870D01*
X163569501Y-124897876D01*
X163575908Y-124957483D01*
X163626202Y-125092328D01*
X163626206Y-125092335D01*
X163712452Y-125207544D01*
X163712455Y-125207547D01*
X163827664Y-125293793D01*
X163827671Y-125293797D01*
X163962517Y-125344091D01*
X163962516Y-125344091D01*
X163969444Y-125344835D01*
X164022127Y-125350500D01*
X165817872Y-125350499D01*
X165877483Y-125344091D01*
X166012331Y-125293796D01*
X166127546Y-125207546D01*
X166213796Y-125092331D01*
X166264091Y-124957483D01*
X166270500Y-124897873D01*
X166270499Y-124873979D01*
X166273330Y-124860963D01*
X166283940Y-124841525D01*
X166290179Y-124820275D01*
X166306803Y-124799643D01*
X166306808Y-124799636D01*
X166306811Y-124799634D01*
X166306818Y-124799626D01*
X166977037Y-124129408D01*
X166994075Y-124192993D01*
X167059901Y-124307007D01*
X167152993Y-124400099D01*
X167267007Y-124465925D01*
X167330590Y-124482962D01*
X166698282Y-125115269D01*
X166698282Y-125115270D01*
X166752449Y-125154624D01*
X166941782Y-125251095D01*
X167143870Y-125316757D01*
X167353754Y-125350000D01*
X167566246Y-125350000D01*
X167776127Y-125316757D01*
X167776130Y-125316757D01*
X167978217Y-125251095D01*
X168167554Y-125154622D01*
X168221716Y-125115270D01*
X168221717Y-125115270D01*
X167589408Y-124482962D01*
X167652993Y-124465925D01*
X167767007Y-124400099D01*
X167860099Y-124307007D01*
X167925925Y-124192993D01*
X167942962Y-124129409D01*
X168575270Y-124761717D01*
X168575270Y-124761716D01*
X168614622Y-124707555D01*
X168619232Y-124698507D01*
X168667205Y-124647709D01*
X168735025Y-124630912D01*
X168801161Y-124653447D01*
X168840204Y-124698504D01*
X168844949Y-124707817D01*
X168969890Y-124879786D01*
X169120213Y-125030109D01*
X169292179Y-125155048D01*
X169292181Y-125155049D01*
X169292184Y-125155051D01*
X169481588Y-125251557D01*
X169683757Y-125317246D01*
X169893713Y-125350500D01*
X169893714Y-125350500D01*
X170106286Y-125350500D01*
X170106287Y-125350500D01*
X170316243Y-125317246D01*
X170518412Y-125251557D01*
X170707816Y-125155051D01*
X170794138Y-125092335D01*
X170879786Y-125030109D01*
X170879788Y-125030106D01*
X170879792Y-125030104D01*
X171030104Y-124879792D01*
X171030106Y-124879788D01*
X171030109Y-124879786D01*
X171155048Y-124707820D01*
X171155050Y-124707817D01*
X171155051Y-124707816D01*
X171251557Y-124518412D01*
X171317246Y-124316243D01*
X171318806Y-124306387D01*
X171348730Y-124243251D01*
X171353581Y-124238114D01*
X171858484Y-123733214D01*
X171962614Y-123589890D01*
X172043042Y-123432042D01*
X172097786Y-123263555D01*
X172125500Y-123088578D01*
X172125500Y-122911421D01*
X172125500Y-107911421D01*
X172125500Y-88911421D01*
X172101732Y-88761361D01*
X172097786Y-88736444D01*
X172069414Y-88649123D01*
X172043043Y-88567960D01*
X172043042Y-88567957D01*
X171962614Y-88410110D01*
X171858483Y-88266785D01*
X170335064Y-86743366D01*
X168803877Y-85212180D01*
X168770393Y-85150858D01*
X168775377Y-85081166D01*
X168817249Y-85025233D01*
X168882713Y-85000816D01*
X168891559Y-85000500D01*
X169131113Y-85000500D01*
X169131120Y-85000500D01*
X169391116Y-84966270D01*
X169644419Y-84898398D01*
X169886697Y-84798043D01*
X170113803Y-84666924D01*
X170321851Y-84507282D01*
X170321855Y-84507277D01*
X170321860Y-84507274D01*
X170507274Y-84321860D01*
X170507277Y-84321855D01*
X170507282Y-84321851D01*
X170666924Y-84113803D01*
X170798043Y-83886697D01*
X170898398Y-83644419D01*
X170966270Y-83391116D01*
X171000500Y-83131120D01*
X171000500Y-82868880D01*
X170966270Y-82608884D01*
X170898398Y-82355581D01*
X170800204Y-82118520D01*
X170798046Y-82113309D01*
X170798041Y-82113299D01*
X170666924Y-81886196D01*
X170507281Y-81678148D01*
X170507274Y-81678140D01*
X170321860Y-81492726D01*
X170321851Y-81492718D01*
X170113803Y-81333075D01*
X169886700Y-81201958D01*
X169886690Y-81201953D01*
X169644428Y-81101605D01*
X169644421Y-81101603D01*
X169644419Y-81101602D01*
X169391116Y-81033730D01*
X169333339Y-81026123D01*
X169131127Y-80999500D01*
X169131120Y-80999500D01*
X168868880Y-80999500D01*
X168868872Y-80999500D01*
X168637772Y-81029926D01*
X168608884Y-81033730D01*
X168355581Y-81101602D01*
X168355571Y-81101605D01*
X168113309Y-81201953D01*
X168113299Y-81201958D01*
X167886196Y-81333075D01*
X167678148Y-81492718D01*
X167492718Y-81678148D01*
X167333075Y-81886196D01*
X167201958Y-82113299D01*
X167201953Y-82113309D01*
X167101605Y-82355571D01*
X167101602Y-82355581D01*
X167033730Y-82608885D01*
X166999500Y-82868872D01*
X166999500Y-83108441D01*
X166979815Y-83175480D01*
X166927011Y-83221235D01*
X166857853Y-83231179D01*
X166794297Y-83202154D01*
X166787819Y-83196122D01*
X166733216Y-83141519D01*
X166733214Y-83141517D01*
X166718904Y-83131120D01*
X166718901Y-83131117D01*
X166589893Y-83037388D01*
X166589892Y-83037387D01*
X166589890Y-83037386D01*
X166539320Y-83011619D01*
X166432042Y-82956957D01*
X166432039Y-82956956D01*
X166263557Y-82902214D01*
X166176067Y-82888357D01*
X166088579Y-82874500D01*
X164247212Y-82874500D01*
X142148578Y-82874500D01*
X141971421Y-82874500D01*
X141913095Y-82883738D01*
X141796442Y-82902214D01*
X141627960Y-82956956D01*
X141627947Y-82956962D01*
X141470113Y-83037383D01*
X141462211Y-83043125D01*
X141462210Y-83043124D01*
X141462210Y-83043125D01*
X141326792Y-83141511D01*
X141326787Y-83141515D01*
X138098490Y-86369811D01*
X138037167Y-86403296D01*
X137967475Y-86398312D01*
X137951378Y-86390960D01*
X137946329Y-86388202D01*
X137811482Y-86337908D01*
X137811483Y-86337908D01*
X137751883Y-86331501D01*
X137751881Y-86331500D01*
X137751873Y-86331500D01*
X137751865Y-86331500D01*
X137250559Y-86331500D01*
X137183520Y-86311815D01*
X137162878Y-86295181D01*
X137131213Y-86263516D01*
X137118780Y-86254483D01*
X137118780Y-86254482D01*
X136987893Y-86159388D01*
X136987892Y-86159387D01*
X136987890Y-86159386D01*
X136937320Y-86133619D01*
X136830042Y-86078957D01*
X136830039Y-86078956D01*
X136661557Y-86024214D01*
X136536419Y-86004394D01*
X136486579Y-85996500D01*
X136486578Y-85996500D01*
X129729418Y-85996500D01*
X129673123Y-85982985D01*
X129622042Y-85956957D01*
X129622039Y-85956956D01*
X129453556Y-85902214D01*
X129295998Y-85877259D01*
X129278579Y-85874500D01*
X129101421Y-85874500D01*
X129084002Y-85877259D01*
X128926443Y-85902214D01*
X128757960Y-85956956D01*
X128757957Y-85956957D01*
X128600109Y-86037386D01*
X128542894Y-86078956D01*
X128456786Y-86141517D01*
X128456784Y-86141519D01*
X128456783Y-86141519D01*
X128331519Y-86266783D01*
X128331519Y-86266784D01*
X128331517Y-86266786D01*
X128298802Y-86311815D01*
X128227386Y-86410109D01*
X128146957Y-86567957D01*
X128146956Y-86567960D01*
X128092214Y-86736443D01*
X128064500Y-86911421D01*
X125500500Y-86911421D01*
X125500500Y-79624500D01*
X125520185Y-79557461D01*
X125572989Y-79511706D01*
X125624500Y-79500500D01*
X172375500Y-79500500D01*
X172442539Y-79520185D01*
G37*
%TD.AperFunction*%
%TD*%
M02*
