%TF.GenerationSoftware,KiCad,Pcbnew,10.0.0*%
%TF.CreationDate,2026-04-24T18:37:38-04:00*%
%TF.ProjectId,LM2679PiRegulator,4c4d3236-3739-4506-9952-6567756c6174,rev?*%
%TF.SameCoordinates,Original*%
%TF.FileFunction,Copper,L2,Bot*%
%TF.FilePolarity,Positive*%
%FSLAX46Y46*%
G04 Gerber Fmt 4.6, Leading zero omitted, Abs format (unit mm)*
G04 Created by KiCad (PCBNEW 10.0.0) date 2026-04-24 18:37:38*
%MOMM*%
%LPD*%
G01*
G04 APERTURE LIST*
%TA.AperFunction,ComponentPad*%
%ADD10C,1.600000*%
%TD*%
%TA.AperFunction,ComponentPad*%
%ADD11R,1.596000X1.596000*%
%TD*%
%TA.AperFunction,ComponentPad*%
%ADD12C,1.596000*%
%TD*%
%TA.AperFunction,ComponentPad*%
%ADD13R,2.184400X2.184400*%
%TD*%
%TA.AperFunction,ComponentPad*%
%ADD14C,2.184400*%
%TD*%
%TA.AperFunction,ComponentPad*%
%ADD15R,1.700000X1.700000*%
%TD*%
%TA.AperFunction,ComponentPad*%
%ADD16C,1.700000*%
%TD*%
%TA.AperFunction,ViaPad*%
%ADD17C,0.600000*%
%TD*%
G04 APERTURE END LIST*
D10*
%TO.P,C6,1*%
%TO.N,/Vout*%
X167190000Y-96000000D03*
%TO.P,C6,2*%
%TO.N,GND*%
X167190000Y-99500000D03*
%TD*%
%TO.P,C7,1*%
%TO.N,/Vout*%
X164190000Y-89750000D03*
%TO.P,C7,2*%
%TO.N,GND*%
X164190000Y-86250000D03*
%TD*%
%TO.P,C5,1*%
%TO.N,/Switch*%
X142300000Y-103124000D03*
%TO.P,C5,2*%
%TO.N,/Boost*%
X149800000Y-103124000D03*
%TD*%
%TO.P,C4,1*%
%TO.N,/Vin*%
X155190000Y-102250000D03*
%TO.P,C4,2*%
%TO.N,GND*%
X155190000Y-109750000D03*
%TD*%
D11*
%TO.P,L2,1,1_1*%
%TO.N,/Vout*%
X136906000Y-87630000D03*
D12*
%TO.P,L2,2,2_2*%
%TO.N,/Switch*%
X156210000Y-87630000D03*
%TD*%
D10*
%TO.P,C3,1*%
%TO.N,/Vin*%
X162190000Y-102250000D03*
%TO.P,C3,2*%
%TO.N,GND*%
X162190000Y-109750000D03*
%TD*%
%TO.P,C2,1*%
%TO.N,/Vin*%
X158190000Y-112250000D03*
%TO.P,C2,2*%
%TO.N,GND*%
X158190000Y-119750000D03*
%TD*%
%TO.P,C1,1*%
%TO.N,/Vin*%
X166190000Y-112250000D03*
%TO.P,C1,2*%
%TO.N,GND*%
X166190000Y-119750000D03*
%TD*%
D13*
%TO.P,CR1,1*%
%TO.N,/Switch*%
X132190000Y-89538500D03*
D14*
%TO.P,CR1,2*%
%TO.N,GND*%
X132190000Y-109858500D03*
%TD*%
D15*
%TO.P,J2,1,Pin_1_1*%
%TO.N,/Vin*%
X164920000Y-124000000D03*
D16*
%TO.P,J2,2,Pin_2_2*%
%TO.N,GND*%
X167460000Y-124000000D03*
%TO.P,J2,3,Pin_3_3*%
%TO.N,/Vout*%
X170000000Y-124000000D03*
%TD*%
D17*
%TO.N,GND*%
X151130000Y-95504000D03*
X140970000Y-96520000D03*
%TD*%
%TA.AperFunction,Conductor*%
%TO.N,GND*%
G36*
X172442539Y-79520185D02*
G01*
X172488294Y-79572989D01*
X172499500Y-79624500D01*
X172499500Y-126375500D01*
X172479815Y-126442539D01*
X172427011Y-126488294D01*
X172375500Y-126499500D01*
X125624500Y-126499500D01*
X125557461Y-126479815D01*
X125511706Y-126427011D01*
X125500500Y-126375500D01*
X125500500Y-122868872D01*
X126999500Y-122868872D01*
X126999500Y-123131127D01*
X127020436Y-123290140D01*
X127033730Y-123391116D01*
X127098831Y-123634076D01*
X127101602Y-123644418D01*
X127101605Y-123644428D01*
X127201953Y-123886690D01*
X127201958Y-123886700D01*
X127333075Y-124113803D01*
X127492718Y-124321851D01*
X127492726Y-124321860D01*
X127678140Y-124507274D01*
X127678148Y-124507281D01*
X127678149Y-124507282D01*
X127726554Y-124544424D01*
X127886196Y-124666924D01*
X128113299Y-124798041D01*
X128113309Y-124798046D01*
X128355571Y-124898394D01*
X128355581Y-124898398D01*
X128608884Y-124966270D01*
X128868880Y-125000500D01*
X128868887Y-125000500D01*
X129131113Y-125000500D01*
X129131120Y-125000500D01*
X129391116Y-124966270D01*
X129644419Y-124898398D01*
X129882856Y-124799634D01*
X129886690Y-124798046D01*
X129886691Y-124798045D01*
X129886697Y-124798043D01*
X130113803Y-124666924D01*
X130321851Y-124507282D01*
X130321855Y-124507277D01*
X130321860Y-124507274D01*
X130507274Y-124321860D01*
X130507277Y-124321855D01*
X130507282Y-124321851D01*
X130666924Y-124113803D01*
X130798043Y-123886697D01*
X130898398Y-123644419D01*
X130966270Y-123391116D01*
X131000500Y-123131120D01*
X131000500Y-123102135D01*
X163569500Y-123102135D01*
X163569500Y-124897870D01*
X163569501Y-124897876D01*
X163575908Y-124957483D01*
X163626202Y-125092328D01*
X163626206Y-125092335D01*
X163712452Y-125207544D01*
X163712455Y-125207547D01*
X163827664Y-125293793D01*
X163827671Y-125293797D01*
X163962517Y-125344091D01*
X163962516Y-125344091D01*
X163969444Y-125344835D01*
X164022127Y-125350500D01*
X165817872Y-125350499D01*
X165877483Y-125344091D01*
X166012331Y-125293796D01*
X166127546Y-125207546D01*
X166213796Y-125092331D01*
X166264091Y-124957483D01*
X166270500Y-124897873D01*
X166270499Y-124873979D01*
X166273330Y-124860963D01*
X166283940Y-124841525D01*
X166290179Y-124820275D01*
X166306803Y-124799643D01*
X166306808Y-124799636D01*
X166306811Y-124799634D01*
X166306818Y-124799626D01*
X166977037Y-124129408D01*
X166994075Y-124192993D01*
X167059901Y-124307007D01*
X167152993Y-124400099D01*
X167267007Y-124465925D01*
X167330590Y-124482962D01*
X166698282Y-125115269D01*
X166698282Y-125115270D01*
X166752449Y-125154624D01*
X166941782Y-125251095D01*
X167143870Y-125316757D01*
X167353754Y-125350000D01*
X167566246Y-125350000D01*
X167776127Y-125316757D01*
X167776130Y-125316757D01*
X167978217Y-125251095D01*
X168167554Y-125154622D01*
X168221716Y-125115270D01*
X168221717Y-125115270D01*
X167589408Y-124482962D01*
X167652993Y-124465925D01*
X167767007Y-124400099D01*
X167860099Y-124307007D01*
X167925925Y-124192993D01*
X167942962Y-124129409D01*
X168575270Y-124761717D01*
X168575270Y-124761716D01*
X168614622Y-124707555D01*
X168619232Y-124698507D01*
X168667205Y-124647709D01*
X168735025Y-124630912D01*
X168801161Y-124653447D01*
X168840204Y-124698504D01*
X168844949Y-124707817D01*
X168969890Y-124879786D01*
X169120213Y-125030109D01*
X169292179Y-125155048D01*
X169292181Y-125155049D01*
X169292184Y-125155051D01*
X169481588Y-125251557D01*
X169683757Y-125317246D01*
X169893713Y-125350500D01*
X169893714Y-125350500D01*
X170106286Y-125350500D01*
X170106287Y-125350500D01*
X170316243Y-125317246D01*
X170518412Y-125251557D01*
X170707816Y-125155051D01*
X170794138Y-125092335D01*
X170879786Y-125030109D01*
X170879788Y-125030106D01*
X170879792Y-125030104D01*
X171030104Y-124879792D01*
X171030106Y-124879788D01*
X171030109Y-124879786D01*
X171155048Y-124707820D01*
X171155050Y-124707817D01*
X171155051Y-124707816D01*
X171251557Y-124518412D01*
X171317246Y-124316243D01*
X171350500Y-124106287D01*
X171350500Y-123893713D01*
X171317246Y-123683757D01*
X171251557Y-123481588D01*
X171155051Y-123292184D01*
X171155049Y-123292181D01*
X171155048Y-123292179D01*
X171030109Y-123120213D01*
X170879786Y-122969890D01*
X170707820Y-122844951D01*
X170518414Y-122748444D01*
X170518413Y-122748443D01*
X170518412Y-122748443D01*
X170316243Y-122682754D01*
X170316241Y-122682753D01*
X170316240Y-122682753D01*
X170154957Y-122657208D01*
X170106287Y-122649500D01*
X169893713Y-122649500D01*
X169845042Y-122657208D01*
X169683760Y-122682753D01*
X169481585Y-122748444D01*
X169292179Y-122844951D01*
X169120213Y-122969890D01*
X168969890Y-123120213D01*
X168844949Y-123292182D01*
X168840202Y-123301499D01*
X168792227Y-123352293D01*
X168724405Y-123369087D01*
X168658271Y-123346548D01*
X168619234Y-123301495D01*
X168614626Y-123292452D01*
X168575270Y-123238282D01*
X168575269Y-123238282D01*
X167942962Y-123870590D01*
X167925925Y-123807007D01*
X167860099Y-123692993D01*
X167767007Y-123599901D01*
X167652993Y-123534075D01*
X167589409Y-123517037D01*
X168221716Y-122884728D01*
X168167550Y-122845375D01*
X167978217Y-122748904D01*
X167776129Y-122683242D01*
X167566246Y-122650000D01*
X167353754Y-122650000D01*
X167143872Y-122683242D01*
X167143869Y-122683242D01*
X166941782Y-122748904D01*
X166752439Y-122845380D01*
X166698282Y-122884727D01*
X166698282Y-122884728D01*
X167330591Y-123517037D01*
X167267007Y-123534075D01*
X167152993Y-123599901D01*
X167059901Y-123692993D01*
X166994075Y-123807007D01*
X166977037Y-123870591D01*
X166306818Y-123200372D01*
X166273333Y-123139049D01*
X166273330Y-123139036D01*
X166270499Y-123126015D01*
X166270499Y-123102128D01*
X166264091Y-123042517D01*
X166235926Y-122967002D01*
X166213798Y-122907673D01*
X166213793Y-122907664D01*
X166127547Y-122792455D01*
X166127544Y-122792452D01*
X166012335Y-122706206D01*
X166012328Y-122706202D01*
X165877482Y-122655908D01*
X165877483Y-122655908D01*
X165817883Y-122649501D01*
X165817881Y-122649500D01*
X165817873Y-122649500D01*
X165817864Y-122649500D01*
X164022129Y-122649500D01*
X164022123Y-122649501D01*
X163962516Y-122655908D01*
X163827671Y-122706202D01*
X163827664Y-122706206D01*
X163712455Y-122792452D01*
X163712452Y-122792455D01*
X163626206Y-122907664D01*
X163626202Y-122907671D01*
X163575908Y-123042517D01*
X163569501Y-123102116D01*
X163569500Y-123102135D01*
X131000500Y-123102135D01*
X131000500Y-122868880D01*
X130966270Y-122608884D01*
X130898398Y-122355581D01*
X130800204Y-122118520D01*
X130798046Y-122113309D01*
X130798041Y-122113299D01*
X130666924Y-121886196D01*
X130507281Y-121678148D01*
X130507274Y-121678140D01*
X130321860Y-121492726D01*
X130321851Y-121492718D01*
X130113803Y-121333075D01*
X129886700Y-121201958D01*
X129886690Y-121201953D01*
X129644428Y-121101605D01*
X129644421Y-121101603D01*
X129644419Y-121101602D01*
X129391116Y-121033730D01*
X129333339Y-121026123D01*
X129131127Y-120999500D01*
X129131120Y-120999500D01*
X128868880Y-120999500D01*
X128868872Y-120999500D01*
X128637772Y-121029926D01*
X128608884Y-121033730D01*
X128355581Y-121101602D01*
X128355571Y-121101605D01*
X128113309Y-121201953D01*
X128113299Y-121201958D01*
X127886196Y-121333075D01*
X127678148Y-121492718D01*
X127492718Y-121678148D01*
X127333075Y-121886196D01*
X127201958Y-122113299D01*
X127201953Y-122113309D01*
X127101605Y-122355571D01*
X127101602Y-122355581D01*
X127033730Y-122608885D01*
X126999500Y-122868872D01*
X125500500Y-122868872D01*
X125500500Y-119647682D01*
X156890000Y-119647682D01*
X156890000Y-119852317D01*
X156922009Y-120054417D01*
X156985244Y-120249031D01*
X157078141Y-120431350D01*
X157078147Y-120431359D01*
X157110523Y-120475921D01*
X157110524Y-120475922D01*
X157790000Y-119796446D01*
X157790000Y-119802661D01*
X157817259Y-119904394D01*
X157869920Y-119995606D01*
X157944394Y-120070080D01*
X158035606Y-120122741D01*
X158137339Y-120150000D01*
X158143553Y-120150000D01*
X157464076Y-120829474D01*
X157508650Y-120861859D01*
X157690968Y-120954755D01*
X157885582Y-121017990D01*
X158087683Y-121050000D01*
X158292317Y-121050000D01*
X158494417Y-121017990D01*
X158689031Y-120954755D01*
X158871349Y-120861859D01*
X158915921Y-120829474D01*
X158236447Y-120150000D01*
X158242661Y-120150000D01*
X158344394Y-120122741D01*
X158435606Y-120070080D01*
X158510080Y-119995606D01*
X158562741Y-119904394D01*
X158590000Y-119802661D01*
X158590000Y-119796447D01*
X159269474Y-120475921D01*
X159301859Y-120431349D01*
X159394755Y-120249031D01*
X159457990Y-120054417D01*
X159490000Y-119852317D01*
X159490000Y-119647682D01*
X164890000Y-119647682D01*
X164890000Y-119852317D01*
X164922009Y-120054417D01*
X164985244Y-120249031D01*
X165078141Y-120431350D01*
X165078147Y-120431359D01*
X165110523Y-120475921D01*
X165110524Y-120475922D01*
X165790000Y-119796446D01*
X165790000Y-119802661D01*
X165817259Y-119904394D01*
X165869920Y-119995606D01*
X165944394Y-120070080D01*
X166035606Y-120122741D01*
X166137339Y-120150000D01*
X166143553Y-120150000D01*
X165464076Y-120829474D01*
X165508650Y-120861859D01*
X165690968Y-120954755D01*
X165885582Y-121017990D01*
X166087683Y-121050000D01*
X166292317Y-121050000D01*
X166494417Y-121017990D01*
X166689031Y-120954755D01*
X166871349Y-120861859D01*
X166915921Y-120829474D01*
X166236447Y-120150000D01*
X166242661Y-120150000D01*
X166344394Y-120122741D01*
X166435606Y-120070080D01*
X166510080Y-119995606D01*
X166562741Y-119904394D01*
X166590000Y-119802661D01*
X166590000Y-119796447D01*
X167269474Y-120475921D01*
X167301859Y-120431349D01*
X167394755Y-120249031D01*
X167457990Y-120054417D01*
X167490000Y-119852317D01*
X167490000Y-119647682D01*
X167457990Y-119445582D01*
X167394755Y-119250968D01*
X167301859Y-119068650D01*
X167269474Y-119024077D01*
X167269474Y-119024076D01*
X166590000Y-119703551D01*
X166590000Y-119697339D01*
X166562741Y-119595606D01*
X166510080Y-119504394D01*
X166435606Y-119429920D01*
X166344394Y-119377259D01*
X166242661Y-119350000D01*
X166236446Y-119350000D01*
X166915922Y-118670524D01*
X166915921Y-118670523D01*
X166871359Y-118638147D01*
X166871350Y-118638141D01*
X166689031Y-118545244D01*
X166494417Y-118482009D01*
X166292317Y-118450000D01*
X166087683Y-118450000D01*
X165885582Y-118482009D01*
X165690968Y-118545244D01*
X165508644Y-118638143D01*
X165464077Y-118670523D01*
X165464077Y-118670524D01*
X166143554Y-119350000D01*
X166137339Y-119350000D01*
X166035606Y-119377259D01*
X165944394Y-119429920D01*
X165869920Y-119504394D01*
X165817259Y-119595606D01*
X165790000Y-119697339D01*
X165790000Y-119703553D01*
X165110524Y-119024077D01*
X165110523Y-119024077D01*
X165078143Y-119068644D01*
X164985244Y-119250968D01*
X164922009Y-119445582D01*
X164890000Y-119647682D01*
X159490000Y-119647682D01*
X159457990Y-119445582D01*
X159394755Y-119250968D01*
X159301859Y-119068650D01*
X159269474Y-119024077D01*
X159269474Y-119024076D01*
X158590000Y-119703551D01*
X158590000Y-119697339D01*
X158562741Y-119595606D01*
X158510080Y-119504394D01*
X158435606Y-119429920D01*
X158344394Y-119377259D01*
X158242661Y-119350000D01*
X158236446Y-119350000D01*
X158915922Y-118670524D01*
X158915921Y-118670523D01*
X158871359Y-118638147D01*
X158871350Y-118638141D01*
X158689031Y-118545244D01*
X158494417Y-118482009D01*
X158292317Y-118450000D01*
X158087683Y-118450000D01*
X157885582Y-118482009D01*
X157690968Y-118545244D01*
X157508644Y-118638143D01*
X157464077Y-118670523D01*
X157464077Y-118670524D01*
X158143554Y-119350000D01*
X158137339Y-119350000D01*
X158035606Y-119377259D01*
X157944394Y-119429920D01*
X157869920Y-119504394D01*
X157817259Y-119595606D01*
X157790000Y-119697339D01*
X157790000Y-119703553D01*
X157110524Y-119024077D01*
X157110523Y-119024077D01*
X157078143Y-119068644D01*
X156985244Y-119250968D01*
X156922009Y-119445582D01*
X156890000Y-119647682D01*
X125500500Y-119647682D01*
X125500500Y-112147648D01*
X156889500Y-112147648D01*
X156889500Y-112352351D01*
X156921522Y-112554534D01*
X156984781Y-112749223D01*
X157077715Y-112931613D01*
X157198028Y-113097213D01*
X157342786Y-113241971D01*
X157497749Y-113354556D01*
X157508390Y-113362287D01*
X157624607Y-113421503D01*
X157690776Y-113455218D01*
X157690778Y-113455218D01*
X157690781Y-113455220D01*
X157795137Y-113489127D01*
X157885465Y-113518477D01*
X157986557Y-113534488D01*
X158087648Y-113550500D01*
X158087649Y-113550500D01*
X158292351Y-113550500D01*
X158292352Y-113550500D01*
X158494534Y-113518477D01*
X158689219Y-113455220D01*
X158871610Y-113362287D01*
X158964590Y-113294732D01*
X159037213Y-113241971D01*
X159037215Y-113241968D01*
X159037219Y-113241966D01*
X159181966Y-113097219D01*
X159181968Y-113097215D01*
X159181971Y-113097213D01*
X159234732Y-113024590D01*
X159302287Y-112931610D01*
X159395220Y-112749219D01*
X159458477Y-112554534D01*
X159490500Y-112352352D01*
X159490500Y-112147648D01*
X164889500Y-112147648D01*
X164889500Y-112352351D01*
X164921522Y-112554534D01*
X164984781Y-112749223D01*
X165077715Y-112931613D01*
X165198028Y-113097213D01*
X165342786Y-113241971D01*
X165497749Y-113354556D01*
X165508390Y-113362287D01*
X165624607Y-113421503D01*
X165690776Y-113455218D01*
X165690778Y-113455218D01*
X165690781Y-113455220D01*
X165795137Y-113489127D01*
X165885465Y-113518477D01*
X165986557Y-113534488D01*
X166087648Y-113550500D01*
X166087649Y-113550500D01*
X166292351Y-113550500D01*
X166292352Y-113550500D01*
X166494534Y-113518477D01*
X166689219Y-113455220D01*
X166871610Y-113362287D01*
X166964590Y-113294732D01*
X167037213Y-113241971D01*
X167037215Y-113241968D01*
X167037219Y-113241966D01*
X167181966Y-113097219D01*
X167181968Y-113097215D01*
X167181971Y-113097213D01*
X167234732Y-113024590D01*
X167302287Y-112931610D01*
X167395220Y-112749219D01*
X167458477Y-112554534D01*
X167490500Y-112352352D01*
X167490500Y-112147648D01*
X167458477Y-111945466D01*
X167395220Y-111750781D01*
X167395218Y-111750778D01*
X167395218Y-111750776D01*
X167361503Y-111684607D01*
X167302287Y-111568390D01*
X167294556Y-111557749D01*
X167181971Y-111402786D01*
X167037213Y-111258028D01*
X166871613Y-111137715D01*
X166871612Y-111137714D01*
X166871610Y-111137713D01*
X166814653Y-111108691D01*
X166689223Y-111044781D01*
X166494534Y-110981522D01*
X166319995Y-110953878D01*
X166292352Y-110949500D01*
X166087648Y-110949500D01*
X166063329Y-110953351D01*
X165885465Y-110981522D01*
X165690776Y-111044781D01*
X165508386Y-111137715D01*
X165342786Y-111258028D01*
X165198028Y-111402786D01*
X165077715Y-111568386D01*
X164984781Y-111750776D01*
X164921522Y-111945465D01*
X164889500Y-112147648D01*
X159490500Y-112147648D01*
X159458477Y-111945466D01*
X159395220Y-111750781D01*
X159395218Y-111750778D01*
X159395218Y-111750776D01*
X159361503Y-111684607D01*
X159302287Y-111568390D01*
X159294556Y-111557749D01*
X159181971Y-111402786D01*
X159037213Y-111258028D01*
X158871613Y-111137715D01*
X158871612Y-111137714D01*
X158871610Y-111137713D01*
X158814653Y-111108691D01*
X158689223Y-111044781D01*
X158494534Y-110981522D01*
X158319995Y-110953878D01*
X158292352Y-110949500D01*
X158087648Y-110949500D01*
X158063329Y-110953351D01*
X157885465Y-110981522D01*
X157690776Y-111044781D01*
X157508386Y-111137715D01*
X157342786Y-111258028D01*
X157198028Y-111402786D01*
X157077715Y-111568386D01*
X156984781Y-111750776D01*
X156921522Y-111945465D01*
X156889500Y-112147648D01*
X125500500Y-112147648D01*
X125500500Y-109733191D01*
X130597800Y-109733191D01*
X130597800Y-109983808D01*
X130637006Y-110231342D01*
X130637006Y-110231345D01*
X130714449Y-110469690D01*
X130828229Y-110692994D01*
X130901333Y-110793612D01*
X130901333Y-110793613D01*
X131444916Y-110250030D01*
X131447197Y-110255537D01*
X131538927Y-110392822D01*
X131655678Y-110509573D01*
X131792963Y-110601303D01*
X131798468Y-110603583D01*
X131254885Y-111147165D01*
X131355505Y-111220270D01*
X131578809Y-111334050D01*
X131817156Y-111411493D01*
X132064692Y-111450700D01*
X132315308Y-111450700D01*
X132562842Y-111411493D01*
X132562845Y-111411493D01*
X132801190Y-111334050D01*
X133024486Y-111220274D01*
X133024492Y-111220270D01*
X133125112Y-111147165D01*
X133125113Y-111147165D01*
X132581531Y-110603583D01*
X132587037Y-110601303D01*
X132724322Y-110509573D01*
X132841073Y-110392822D01*
X132932803Y-110255537D01*
X132935083Y-110250031D01*
X133478665Y-110793613D01*
X133478665Y-110793612D01*
X133539902Y-110709329D01*
X133539903Y-110709327D01*
X133551766Y-110692999D01*
X133551774Y-110692986D01*
X133665550Y-110469690D01*
X133742993Y-110231345D01*
X133742993Y-110231342D01*
X133782200Y-109983808D01*
X133782200Y-109733192D01*
X133770958Y-109662214D01*
X133768656Y-109647682D01*
X153890000Y-109647682D01*
X153890000Y-109852317D01*
X153922009Y-110054417D01*
X153985244Y-110249031D01*
X154078141Y-110431350D01*
X154078147Y-110431359D01*
X154110523Y-110475921D01*
X154110524Y-110475922D01*
X154790000Y-109796446D01*
X154790000Y-109802661D01*
X154817259Y-109904394D01*
X154869920Y-109995606D01*
X154944394Y-110070080D01*
X155035606Y-110122741D01*
X155137339Y-110150000D01*
X155143553Y-110150000D01*
X154464076Y-110829474D01*
X154508650Y-110861859D01*
X154690968Y-110954755D01*
X154885582Y-111017990D01*
X155087683Y-111050000D01*
X155292317Y-111050000D01*
X155494417Y-111017990D01*
X155689031Y-110954755D01*
X155871349Y-110861859D01*
X155915921Y-110829474D01*
X155236447Y-110150000D01*
X155242661Y-110150000D01*
X155344394Y-110122741D01*
X155435606Y-110070080D01*
X155510080Y-109995606D01*
X155562741Y-109904394D01*
X155590000Y-109802661D01*
X155590000Y-109796447D01*
X156269474Y-110475921D01*
X156301859Y-110431349D01*
X156394755Y-110249031D01*
X156457990Y-110054417D01*
X156490000Y-109852317D01*
X156490000Y-109647682D01*
X160890000Y-109647682D01*
X160890000Y-109852317D01*
X160922009Y-110054417D01*
X160985244Y-110249031D01*
X161078141Y-110431350D01*
X161078147Y-110431359D01*
X161110523Y-110475921D01*
X161110524Y-110475922D01*
X161790000Y-109796446D01*
X161790000Y-109802661D01*
X161817259Y-109904394D01*
X161869920Y-109995606D01*
X161944394Y-110070080D01*
X162035606Y-110122741D01*
X162137339Y-110150000D01*
X162143553Y-110150000D01*
X161464076Y-110829474D01*
X161508650Y-110861859D01*
X161690968Y-110954755D01*
X161885582Y-111017990D01*
X162087683Y-111050000D01*
X162292317Y-111050000D01*
X162494417Y-111017990D01*
X162689031Y-110954755D01*
X162871349Y-110861859D01*
X162915921Y-110829474D01*
X162236447Y-110150000D01*
X162242661Y-110150000D01*
X162344394Y-110122741D01*
X162435606Y-110070080D01*
X162510080Y-109995606D01*
X162562741Y-109904394D01*
X162590000Y-109802661D01*
X162590000Y-109796447D01*
X163269474Y-110475921D01*
X163301859Y-110431349D01*
X163394755Y-110249031D01*
X163457990Y-110054417D01*
X163490000Y-109852317D01*
X163490000Y-109647682D01*
X163457990Y-109445582D01*
X163394755Y-109250968D01*
X163301859Y-109068650D01*
X163269474Y-109024077D01*
X163269474Y-109024076D01*
X162590000Y-109703551D01*
X162590000Y-109697339D01*
X162562741Y-109595606D01*
X162510080Y-109504394D01*
X162435606Y-109429920D01*
X162344394Y-109377259D01*
X162242661Y-109350000D01*
X162236446Y-109350000D01*
X162915922Y-108670524D01*
X162915921Y-108670523D01*
X162871359Y-108638147D01*
X162871350Y-108638141D01*
X162689031Y-108545244D01*
X162494417Y-108482009D01*
X162292317Y-108450000D01*
X162087683Y-108450000D01*
X161885582Y-108482009D01*
X161690968Y-108545244D01*
X161508644Y-108638143D01*
X161464077Y-108670523D01*
X161464077Y-108670524D01*
X162143554Y-109350000D01*
X162137339Y-109350000D01*
X162035606Y-109377259D01*
X161944394Y-109429920D01*
X161869920Y-109504394D01*
X161817259Y-109595606D01*
X161790000Y-109697339D01*
X161790000Y-109703553D01*
X161110524Y-109024077D01*
X161110523Y-109024077D01*
X161078143Y-109068644D01*
X160985244Y-109250968D01*
X160922009Y-109445582D01*
X160890000Y-109647682D01*
X156490000Y-109647682D01*
X156457990Y-109445582D01*
X156394755Y-109250968D01*
X156301859Y-109068650D01*
X156269474Y-109024077D01*
X156269474Y-109024076D01*
X155590000Y-109703551D01*
X155590000Y-109697339D01*
X155562741Y-109595606D01*
X155510080Y-109504394D01*
X155435606Y-109429920D01*
X155344394Y-109377259D01*
X155242661Y-109350000D01*
X155236446Y-109350000D01*
X155915922Y-108670524D01*
X155915921Y-108670523D01*
X155871359Y-108638147D01*
X155871350Y-108638141D01*
X155689031Y-108545244D01*
X155494417Y-108482009D01*
X155292317Y-108450000D01*
X155087683Y-108450000D01*
X154885582Y-108482009D01*
X154690968Y-108545244D01*
X154508644Y-108638143D01*
X154464077Y-108670523D01*
X154464077Y-108670524D01*
X155143554Y-109350000D01*
X155137339Y-109350000D01*
X155035606Y-109377259D01*
X154944394Y-109429920D01*
X154869920Y-109504394D01*
X154817259Y-109595606D01*
X154790000Y-109697339D01*
X154790000Y-109703553D01*
X154110524Y-109024077D01*
X154110523Y-109024077D01*
X154078143Y-109068644D01*
X153985244Y-109250968D01*
X153922009Y-109445582D01*
X153890000Y-109647682D01*
X133768656Y-109647682D01*
X133742993Y-109485657D01*
X133742993Y-109485654D01*
X133665550Y-109247309D01*
X133551770Y-109024005D01*
X133478665Y-108923386D01*
X133478665Y-108923385D01*
X132935083Y-109466967D01*
X132932803Y-109461463D01*
X132841073Y-109324178D01*
X132724322Y-109207427D01*
X132587037Y-109115697D01*
X132581529Y-109113415D01*
X133064845Y-108630102D01*
X133125113Y-108569833D01*
X133024494Y-108496729D01*
X132801190Y-108382949D01*
X132562843Y-108305506D01*
X132315308Y-108266300D01*
X132064692Y-108266300D01*
X131817157Y-108305506D01*
X131817154Y-108305506D01*
X131578809Y-108382949D01*
X131355502Y-108496731D01*
X131254886Y-108569832D01*
X131254885Y-108569833D01*
X131798468Y-109113416D01*
X131792963Y-109115697D01*
X131655678Y-109207427D01*
X131538927Y-109324178D01*
X131447197Y-109461463D01*
X131444916Y-109466968D01*
X130901333Y-108923385D01*
X130901332Y-108923386D01*
X130828231Y-109024002D01*
X130714449Y-109247309D01*
X130637006Y-109485654D01*
X130637006Y-109485657D01*
X130597800Y-109733191D01*
X125500500Y-109733191D01*
X125500500Y-103021648D01*
X140999500Y-103021648D01*
X140999500Y-103226351D01*
X141031522Y-103428534D01*
X141094781Y-103623223D01*
X141187715Y-103805613D01*
X141308028Y-103971213D01*
X141452786Y-104115971D01*
X141607749Y-104228556D01*
X141618390Y-104236287D01*
X141734607Y-104295503D01*
X141800776Y-104329218D01*
X141800778Y-104329218D01*
X141800781Y-104329220D01*
X141905137Y-104363127D01*
X141995465Y-104392477D01*
X142096557Y-104408488D01*
X142197648Y-104424500D01*
X142197649Y-104424500D01*
X142402351Y-104424500D01*
X142402352Y-104424500D01*
X142604534Y-104392477D01*
X142799219Y-104329220D01*
X142981610Y-104236287D01*
X143074590Y-104168732D01*
X143147213Y-104115971D01*
X143147215Y-104115968D01*
X143147219Y-104115966D01*
X143291966Y-103971219D01*
X143291968Y-103971215D01*
X143291971Y-103971213D01*
X143344732Y-103898590D01*
X143412287Y-103805610D01*
X143505220Y-103623219D01*
X143568477Y-103428534D01*
X143600500Y-103226352D01*
X143600500Y-103021648D01*
X148499500Y-103021648D01*
X148499500Y-103226351D01*
X148531522Y-103428534D01*
X148594781Y-103623223D01*
X148687715Y-103805613D01*
X148808028Y-103971213D01*
X148952786Y-104115971D01*
X149107749Y-104228556D01*
X149118390Y-104236287D01*
X149234607Y-104295503D01*
X149300776Y-104329218D01*
X149300778Y-104329218D01*
X149300781Y-104329220D01*
X149405137Y-104363127D01*
X149495465Y-104392477D01*
X149596557Y-104408488D01*
X149697648Y-104424500D01*
X149697649Y-104424500D01*
X149902351Y-104424500D01*
X149902352Y-104424500D01*
X150104534Y-104392477D01*
X150299219Y-104329220D01*
X150481610Y-104236287D01*
X150574590Y-104168732D01*
X150647213Y-104115971D01*
X150647215Y-104115968D01*
X150647219Y-104115966D01*
X150791966Y-103971219D01*
X150791968Y-103971215D01*
X150791971Y-103971213D01*
X150844732Y-103898590D01*
X150912287Y-103805610D01*
X151005220Y-103623219D01*
X151068477Y-103428534D01*
X151100500Y-103226352D01*
X151100500Y-103021648D01*
X151068477Y-102819466D01*
X151005220Y-102624781D01*
X151005218Y-102624778D01*
X151005218Y-102624776D01*
X150969427Y-102554534D01*
X150912287Y-102442390D01*
X150904556Y-102431749D01*
X150791971Y-102276786D01*
X150662833Y-102147648D01*
X153889500Y-102147648D01*
X153889500Y-102352351D01*
X153921522Y-102554534D01*
X153984781Y-102749223D01*
X154077715Y-102931613D01*
X154198028Y-103097213D01*
X154342786Y-103241971D01*
X154497749Y-103354556D01*
X154508390Y-103362287D01*
X154624607Y-103421503D01*
X154690776Y-103455218D01*
X154690778Y-103455218D01*
X154690781Y-103455220D01*
X154795137Y-103489127D01*
X154885465Y-103518477D01*
X154986557Y-103534488D01*
X155087648Y-103550500D01*
X155087649Y-103550500D01*
X155292351Y-103550500D01*
X155292352Y-103550500D01*
X155494534Y-103518477D01*
X155689219Y-103455220D01*
X155871610Y-103362287D01*
X155964590Y-103294732D01*
X156037213Y-103241971D01*
X156037215Y-103241968D01*
X156037219Y-103241966D01*
X156181966Y-103097219D01*
X156181968Y-103097215D01*
X156181971Y-103097213D01*
X156236871Y-103021648D01*
X156302287Y-102931610D01*
X156395220Y-102749219D01*
X156458477Y-102554534D01*
X156490500Y-102352352D01*
X156490500Y-102147648D01*
X160889500Y-102147648D01*
X160889500Y-102352351D01*
X160921522Y-102554534D01*
X160984781Y-102749223D01*
X161077715Y-102931613D01*
X161198028Y-103097213D01*
X161342786Y-103241971D01*
X161497749Y-103354556D01*
X161508390Y-103362287D01*
X161624607Y-103421503D01*
X161690776Y-103455218D01*
X161690778Y-103455218D01*
X161690781Y-103455220D01*
X161795137Y-103489127D01*
X161885465Y-103518477D01*
X161986557Y-103534488D01*
X162087648Y-103550500D01*
X162087649Y-103550500D01*
X162292351Y-103550500D01*
X162292352Y-103550500D01*
X162494534Y-103518477D01*
X162689219Y-103455220D01*
X162871610Y-103362287D01*
X162964590Y-103294732D01*
X163037213Y-103241971D01*
X163037215Y-103241968D01*
X163037219Y-103241966D01*
X163181966Y-103097219D01*
X163181968Y-103097215D01*
X163181971Y-103097213D01*
X163236871Y-103021648D01*
X163302287Y-102931610D01*
X163395220Y-102749219D01*
X163458477Y-102554534D01*
X163490500Y-102352352D01*
X163490500Y-102147648D01*
X163458477Y-101945466D01*
X163395220Y-101750781D01*
X163395218Y-101750778D01*
X163395218Y-101750776D01*
X163361503Y-101684607D01*
X163302287Y-101568390D01*
X163294556Y-101557749D01*
X163181971Y-101402786D01*
X163037213Y-101258028D01*
X162871613Y-101137715D01*
X162871612Y-101137714D01*
X162871610Y-101137713D01*
X162814653Y-101108691D01*
X162689223Y-101044781D01*
X162494534Y-100981522D01*
X162319995Y-100953878D01*
X162292352Y-100949500D01*
X162087648Y-100949500D01*
X162063329Y-100953351D01*
X161885465Y-100981522D01*
X161690776Y-101044781D01*
X161508386Y-101137715D01*
X161342786Y-101258028D01*
X161198028Y-101402786D01*
X161077715Y-101568386D01*
X160984781Y-101750776D01*
X160921522Y-101945465D01*
X160889500Y-102147648D01*
X156490500Y-102147648D01*
X156458477Y-101945466D01*
X156395220Y-101750781D01*
X156395218Y-101750778D01*
X156395218Y-101750776D01*
X156361503Y-101684607D01*
X156302287Y-101568390D01*
X156294556Y-101557749D01*
X156181971Y-101402786D01*
X156037213Y-101258028D01*
X155871613Y-101137715D01*
X155871612Y-101137714D01*
X155871610Y-101137713D01*
X155814653Y-101108691D01*
X155689223Y-101044781D01*
X155494534Y-100981522D01*
X155319995Y-100953878D01*
X155292352Y-100949500D01*
X155087648Y-100949500D01*
X155063329Y-100953351D01*
X154885465Y-100981522D01*
X154690776Y-101044781D01*
X154508386Y-101137715D01*
X154342786Y-101258028D01*
X154198028Y-101402786D01*
X154077715Y-101568386D01*
X153984781Y-101750776D01*
X153921522Y-101945465D01*
X153889500Y-102147648D01*
X150662833Y-102147648D01*
X150647213Y-102132028D01*
X150481613Y-102011715D01*
X150481612Y-102011714D01*
X150481610Y-102011713D01*
X150424653Y-101982691D01*
X150299223Y-101918781D01*
X150104534Y-101855522D01*
X149929995Y-101827878D01*
X149902352Y-101823500D01*
X149697648Y-101823500D01*
X149673329Y-101827351D01*
X149495465Y-101855522D01*
X149300776Y-101918781D01*
X149118386Y-102011715D01*
X148952786Y-102132028D01*
X148808028Y-102276786D01*
X148687715Y-102442386D01*
X148594781Y-102624776D01*
X148531522Y-102819465D01*
X148499500Y-103021648D01*
X143600500Y-103021648D01*
X143568477Y-102819466D01*
X143505220Y-102624781D01*
X143505218Y-102624778D01*
X143505218Y-102624776D01*
X143469427Y-102554534D01*
X143412287Y-102442390D01*
X143404556Y-102431749D01*
X143291971Y-102276786D01*
X143147213Y-102132028D01*
X142981613Y-102011715D01*
X142981612Y-102011714D01*
X142981610Y-102011713D01*
X142924653Y-101982691D01*
X142799223Y-101918781D01*
X142604534Y-101855522D01*
X142429995Y-101827878D01*
X142402352Y-101823500D01*
X142197648Y-101823500D01*
X142173329Y-101827351D01*
X141995465Y-101855522D01*
X141800776Y-101918781D01*
X141618386Y-102011715D01*
X141452786Y-102132028D01*
X141308028Y-102276786D01*
X141187715Y-102442386D01*
X141094781Y-102624776D01*
X141031522Y-102819465D01*
X140999500Y-103021648D01*
X125500500Y-103021648D01*
X125500500Y-99397682D01*
X165890000Y-99397682D01*
X165890000Y-99602317D01*
X165922009Y-99804417D01*
X165985244Y-99999031D01*
X166078141Y-100181350D01*
X166078147Y-100181359D01*
X166110523Y-100225921D01*
X166110524Y-100225922D01*
X166790000Y-99546446D01*
X166790000Y-99552661D01*
X166817259Y-99654394D01*
X166869920Y-99745606D01*
X166944394Y-99820080D01*
X167035606Y-99872741D01*
X167137339Y-99900000D01*
X167143553Y-99900000D01*
X166464076Y-100579474D01*
X166508650Y-100611859D01*
X166690968Y-100704755D01*
X166885582Y-100767990D01*
X167087683Y-100800000D01*
X167292317Y-100800000D01*
X167494417Y-100767990D01*
X167689031Y-100704755D01*
X167871349Y-100611859D01*
X167915921Y-100579474D01*
X167236447Y-99900000D01*
X167242661Y-99900000D01*
X167344394Y-99872741D01*
X167435606Y-99820080D01*
X167510080Y-99745606D01*
X167562741Y-99654394D01*
X167590000Y-99552661D01*
X167590000Y-99546448D01*
X168269474Y-100225922D01*
X168269474Y-100225921D01*
X168301859Y-100181349D01*
X168394755Y-99999031D01*
X168457990Y-99804417D01*
X168490000Y-99602317D01*
X168490000Y-99397682D01*
X168457990Y-99195582D01*
X168394755Y-99000968D01*
X168301859Y-98818650D01*
X168269474Y-98774077D01*
X168269474Y-98774076D01*
X167590000Y-99453551D01*
X167590000Y-99447339D01*
X167562741Y-99345606D01*
X167510080Y-99254394D01*
X167435606Y-99179920D01*
X167344394Y-99127259D01*
X167242661Y-99100000D01*
X167236446Y-99100000D01*
X167915922Y-98420524D01*
X167915921Y-98420523D01*
X167871359Y-98388147D01*
X167871350Y-98388141D01*
X167689031Y-98295244D01*
X167494417Y-98232009D01*
X167292317Y-98200000D01*
X167087683Y-98200000D01*
X166885582Y-98232009D01*
X166690968Y-98295244D01*
X166508644Y-98388143D01*
X166464077Y-98420523D01*
X166464077Y-98420524D01*
X167143554Y-99100000D01*
X167137339Y-99100000D01*
X167035606Y-99127259D01*
X166944394Y-99179920D01*
X166869920Y-99254394D01*
X166817259Y-99345606D01*
X166790000Y-99447339D01*
X166790000Y-99453553D01*
X166110524Y-98774077D01*
X166110523Y-98774077D01*
X166078143Y-98818644D01*
X165985244Y-99000968D01*
X165922009Y-99195582D01*
X165890000Y-99397682D01*
X125500500Y-99397682D01*
X125500500Y-95897648D01*
X165889500Y-95897648D01*
X165889500Y-96102351D01*
X165921522Y-96304534D01*
X165984781Y-96499223D01*
X166077715Y-96681613D01*
X166198028Y-96847213D01*
X166342786Y-96991971D01*
X166497749Y-97104556D01*
X166508390Y-97112287D01*
X166624607Y-97171503D01*
X166690776Y-97205218D01*
X166690778Y-97205218D01*
X166690781Y-97205220D01*
X166795137Y-97239127D01*
X166885465Y-97268477D01*
X166986557Y-97284488D01*
X167087648Y-97300500D01*
X167087649Y-97300500D01*
X167292351Y-97300500D01*
X167292352Y-97300500D01*
X167494534Y-97268477D01*
X167689219Y-97205220D01*
X167871610Y-97112287D01*
X167964590Y-97044732D01*
X168037213Y-96991971D01*
X168037215Y-96991968D01*
X168037219Y-96991966D01*
X168181966Y-96847219D01*
X168181968Y-96847215D01*
X168181971Y-96847213D01*
X168234732Y-96774590D01*
X168302287Y-96681610D01*
X168395220Y-96499219D01*
X168458477Y-96304534D01*
X168490500Y-96102352D01*
X168490500Y-95897648D01*
X168458477Y-95695466D01*
X168395220Y-95500781D01*
X168395218Y-95500778D01*
X168395218Y-95500776D01*
X168361503Y-95434607D01*
X168302287Y-95318390D01*
X168294556Y-95307749D01*
X168181971Y-95152786D01*
X168037213Y-95008028D01*
X167871613Y-94887715D01*
X167871612Y-94887714D01*
X167871610Y-94887713D01*
X167814653Y-94858691D01*
X167689223Y-94794781D01*
X167494534Y-94731522D01*
X167319995Y-94703878D01*
X167292352Y-94699500D01*
X167087648Y-94699500D01*
X167063329Y-94703351D01*
X166885465Y-94731522D01*
X166690776Y-94794781D01*
X166508386Y-94887715D01*
X166342786Y-95008028D01*
X166198028Y-95152786D01*
X166077715Y-95318386D01*
X165984781Y-95500776D01*
X165921522Y-95695465D01*
X165889500Y-95897648D01*
X125500500Y-95897648D01*
X125500500Y-88398435D01*
X130597300Y-88398435D01*
X130597300Y-90678570D01*
X130597301Y-90678576D01*
X130603708Y-90738183D01*
X130654002Y-90873028D01*
X130654006Y-90873035D01*
X130740252Y-90988244D01*
X130740255Y-90988247D01*
X130855464Y-91074493D01*
X130855471Y-91074497D01*
X130990317Y-91124791D01*
X130990316Y-91124791D01*
X130997244Y-91125535D01*
X131049927Y-91131200D01*
X133330072Y-91131199D01*
X133389683Y-91124791D01*
X133524531Y-91074496D01*
X133639746Y-90988246D01*
X133725996Y-90873031D01*
X133776291Y-90738183D01*
X133782700Y-90678573D01*
X133782699Y-89647648D01*
X162889500Y-89647648D01*
X162889500Y-89852351D01*
X162921522Y-90054534D01*
X162984781Y-90249223D01*
X163077715Y-90431613D01*
X163198028Y-90597213D01*
X163342786Y-90741971D01*
X163497749Y-90854556D01*
X163508390Y-90862287D01*
X163624607Y-90921503D01*
X163690776Y-90955218D01*
X163690778Y-90955218D01*
X163690781Y-90955220D01*
X163792418Y-90988244D01*
X163885465Y-91018477D01*
X163986557Y-91034488D01*
X164087648Y-91050500D01*
X164087649Y-91050500D01*
X164292351Y-91050500D01*
X164292352Y-91050500D01*
X164494534Y-91018477D01*
X164689219Y-90955220D01*
X164871610Y-90862287D01*
X164964590Y-90794732D01*
X165037213Y-90741971D01*
X165037215Y-90741968D01*
X165037219Y-90741966D01*
X165181966Y-90597219D01*
X165181968Y-90597215D01*
X165181971Y-90597213D01*
X165234732Y-90524590D01*
X165302287Y-90431610D01*
X165395220Y-90249219D01*
X165458477Y-90054534D01*
X165490500Y-89852352D01*
X165490500Y-89647648D01*
X165458477Y-89445466D01*
X165395220Y-89250781D01*
X165395218Y-89250778D01*
X165395218Y-89250776D01*
X165361503Y-89184607D01*
X165302287Y-89068390D01*
X165294556Y-89057749D01*
X165181971Y-88902786D01*
X165037213Y-88758028D01*
X164871613Y-88637715D01*
X164871612Y-88637714D01*
X164871610Y-88637713D01*
X164814653Y-88608691D01*
X164689223Y-88544781D01*
X164494534Y-88481522D01*
X164319995Y-88453878D01*
X164292352Y-88449500D01*
X164087648Y-88449500D01*
X164063329Y-88453351D01*
X163885465Y-88481522D01*
X163690776Y-88544781D01*
X163508386Y-88637715D01*
X163342786Y-88758028D01*
X163198028Y-88902786D01*
X163077715Y-89068386D01*
X162984781Y-89250776D01*
X162921522Y-89445465D01*
X162889500Y-89647648D01*
X133782699Y-89647648D01*
X133782699Y-89445466D01*
X133782699Y-88398429D01*
X133782698Y-88398423D01*
X133782697Y-88398416D01*
X133776291Y-88338817D01*
X133725996Y-88203969D01*
X133725995Y-88203968D01*
X133725993Y-88203964D01*
X133639747Y-88088755D01*
X133639744Y-88088752D01*
X133524535Y-88002506D01*
X133524528Y-88002502D01*
X133389682Y-87952208D01*
X133389683Y-87952208D01*
X133330083Y-87945801D01*
X133330081Y-87945800D01*
X133330073Y-87945800D01*
X133330064Y-87945800D01*
X131049929Y-87945800D01*
X131049923Y-87945801D01*
X130990316Y-87952208D01*
X130855471Y-88002502D01*
X130855464Y-88002506D01*
X130740255Y-88088752D01*
X130740252Y-88088755D01*
X130654006Y-88203964D01*
X130654002Y-88203971D01*
X130603708Y-88338817D01*
X130597301Y-88398416D01*
X130597301Y-88398423D01*
X130597300Y-88398435D01*
X125500500Y-88398435D01*
X125500500Y-86784135D01*
X135607500Y-86784135D01*
X135607500Y-88475870D01*
X135607501Y-88475876D01*
X135613908Y-88535483D01*
X135664202Y-88670328D01*
X135664206Y-88670335D01*
X135750452Y-88785544D01*
X135750455Y-88785547D01*
X135865664Y-88871793D01*
X135865671Y-88871797D01*
X136000517Y-88922091D01*
X136000516Y-88922091D01*
X136007444Y-88922835D01*
X136060127Y-88928500D01*
X137751872Y-88928499D01*
X137811483Y-88922091D01*
X137946331Y-88871796D01*
X138061546Y-88785546D01*
X138147796Y-88670331D01*
X138198091Y-88535483D01*
X138204500Y-88475873D01*
X138204499Y-87527806D01*
X154911500Y-87527806D01*
X154911500Y-87732193D01*
X154943474Y-87934067D01*
X155006631Y-88128448D01*
X155006632Y-88128451D01*
X155045111Y-88203969D01*
X155099423Y-88310562D01*
X155219560Y-88475916D01*
X155364084Y-88620440D01*
X155529438Y-88740577D01*
X155617691Y-88785544D01*
X155711548Y-88833367D01*
X155711551Y-88833368D01*
X155808741Y-88864946D01*
X155905934Y-88896526D01*
X156107806Y-88928500D01*
X156107807Y-88928500D01*
X156312193Y-88928500D01*
X156312194Y-88928500D01*
X156514066Y-88896526D01*
X156708451Y-88833367D01*
X156890562Y-88740577D01*
X157055916Y-88620440D01*
X157200440Y-88475916D01*
X157320577Y-88310562D01*
X157413367Y-88128451D01*
X157476526Y-87934066D01*
X157508500Y-87732194D01*
X157508500Y-87527806D01*
X157476526Y-87325934D01*
X157413367Y-87131549D01*
X157413367Y-87131548D01*
X157334071Y-86975922D01*
X157320577Y-86949438D01*
X157200440Y-86784084D01*
X157055916Y-86639560D01*
X156890562Y-86519423D01*
X156708451Y-86426632D01*
X156708448Y-86426631D01*
X156514067Y-86363474D01*
X156413130Y-86347487D01*
X156312194Y-86331500D01*
X156107806Y-86331500D01*
X156067342Y-86337909D01*
X155905932Y-86363474D01*
X155711551Y-86426631D01*
X155711548Y-86426632D01*
X155529437Y-86519423D01*
X155481273Y-86554417D01*
X155364084Y-86639560D01*
X155364082Y-86639562D01*
X155364081Y-86639562D01*
X155219562Y-86784081D01*
X155219562Y-86784082D01*
X155219560Y-86784084D01*
X155219523Y-86784135D01*
X155099423Y-86949437D01*
X155006632Y-87131548D01*
X155006631Y-87131551D01*
X154943474Y-87325932D01*
X154911500Y-87527806D01*
X138204499Y-87527806D01*
X138204499Y-86784128D01*
X138198091Y-86724517D01*
X138152974Y-86603553D01*
X138147797Y-86589671D01*
X138147793Y-86589664D01*
X138061547Y-86474455D01*
X138061544Y-86474452D01*
X137946335Y-86388206D01*
X137946328Y-86388202D01*
X137811482Y-86337908D01*
X137811483Y-86337908D01*
X137751883Y-86331501D01*
X137751881Y-86331500D01*
X137751873Y-86331500D01*
X137751864Y-86331500D01*
X136060129Y-86331500D01*
X136060123Y-86331501D01*
X136000516Y-86337908D01*
X135865671Y-86388202D01*
X135865664Y-86388206D01*
X135750455Y-86474452D01*
X135750452Y-86474455D01*
X135664206Y-86589664D01*
X135664202Y-86589671D01*
X135613908Y-86724517D01*
X135607501Y-86784116D01*
X135607501Y-86784123D01*
X135607500Y-86784135D01*
X125500500Y-86784135D01*
X125500500Y-86147682D01*
X162890000Y-86147682D01*
X162890000Y-86352317D01*
X162922009Y-86554417D01*
X162985244Y-86749031D01*
X163078141Y-86931350D01*
X163078147Y-86931359D01*
X163110523Y-86975921D01*
X163110524Y-86975922D01*
X163790000Y-86296446D01*
X163790000Y-86302661D01*
X163817259Y-86404394D01*
X163869920Y-86495606D01*
X163944394Y-86570080D01*
X164035606Y-86622741D01*
X164137339Y-86650000D01*
X164143553Y-86650000D01*
X163464076Y-87329474D01*
X163508650Y-87361859D01*
X163690968Y-87454755D01*
X163885582Y-87517990D01*
X164087683Y-87550000D01*
X164292317Y-87550000D01*
X164494417Y-87517990D01*
X164689031Y-87454755D01*
X164871349Y-87361859D01*
X164915921Y-87329474D01*
X164236447Y-86650000D01*
X164242661Y-86650000D01*
X164344394Y-86622741D01*
X164435606Y-86570080D01*
X164510080Y-86495606D01*
X164562741Y-86404394D01*
X164590000Y-86302661D01*
X164590000Y-86296448D01*
X165269474Y-86975922D01*
X165269474Y-86975921D01*
X165301859Y-86931349D01*
X165394755Y-86749031D01*
X165457990Y-86554417D01*
X165490000Y-86352317D01*
X165490000Y-86147682D01*
X165457990Y-85945582D01*
X165394755Y-85750968D01*
X165301859Y-85568650D01*
X165269474Y-85524077D01*
X165269474Y-85524076D01*
X164590000Y-86203551D01*
X164590000Y-86197339D01*
X164562741Y-86095606D01*
X164510080Y-86004394D01*
X164435606Y-85929920D01*
X164344394Y-85877259D01*
X164242661Y-85850000D01*
X164236446Y-85850000D01*
X164915922Y-85170524D01*
X164915921Y-85170523D01*
X164871359Y-85138147D01*
X164871350Y-85138141D01*
X164689031Y-85045244D01*
X164494417Y-84982009D01*
X164292317Y-84950000D01*
X164087683Y-84950000D01*
X163885582Y-84982009D01*
X163690968Y-85045244D01*
X163508644Y-85138143D01*
X163464077Y-85170523D01*
X163464077Y-85170524D01*
X164143554Y-85850000D01*
X164137339Y-85850000D01*
X164035606Y-85877259D01*
X163944394Y-85929920D01*
X163869920Y-86004394D01*
X163817259Y-86095606D01*
X163790000Y-86197339D01*
X163790000Y-86203553D01*
X163110524Y-85524077D01*
X163110523Y-85524077D01*
X163078143Y-85568644D01*
X162985244Y-85750968D01*
X162922009Y-85945582D01*
X162890000Y-86147682D01*
X125500500Y-86147682D01*
X125500500Y-82868872D01*
X166999500Y-82868872D01*
X166999500Y-83131127D01*
X167020436Y-83290140D01*
X167033730Y-83391116D01*
X167055178Y-83471161D01*
X167101602Y-83644418D01*
X167101605Y-83644428D01*
X167201953Y-83886690D01*
X167201958Y-83886700D01*
X167333075Y-84113803D01*
X167492718Y-84321851D01*
X167492726Y-84321860D01*
X167678140Y-84507274D01*
X167678148Y-84507281D01*
X167886196Y-84666924D01*
X168113299Y-84798041D01*
X168113309Y-84798046D01*
X168355571Y-84898394D01*
X168355581Y-84898398D01*
X168608884Y-84966270D01*
X168868880Y-85000500D01*
X168868887Y-85000500D01*
X169131113Y-85000500D01*
X169131120Y-85000500D01*
X169391116Y-84966270D01*
X169644419Y-84898398D01*
X169886697Y-84798043D01*
X170113803Y-84666924D01*
X170321851Y-84507282D01*
X170321855Y-84507277D01*
X170321860Y-84507274D01*
X170507274Y-84321860D01*
X170507277Y-84321855D01*
X170507282Y-84321851D01*
X170666924Y-84113803D01*
X170798043Y-83886697D01*
X170898398Y-83644419D01*
X170966270Y-83391116D01*
X171000500Y-83131120D01*
X171000500Y-82868880D01*
X170966270Y-82608884D01*
X170898398Y-82355581D01*
X170800204Y-82118520D01*
X170798046Y-82113309D01*
X170798041Y-82113299D01*
X170666924Y-81886196D01*
X170507281Y-81678148D01*
X170507274Y-81678140D01*
X170321860Y-81492726D01*
X170321851Y-81492718D01*
X170113803Y-81333075D01*
X169886700Y-81201958D01*
X169886690Y-81201953D01*
X169644428Y-81101605D01*
X169644421Y-81101603D01*
X169644419Y-81101602D01*
X169391116Y-81033730D01*
X169333339Y-81026123D01*
X169131127Y-80999500D01*
X169131120Y-80999500D01*
X168868880Y-80999500D01*
X168868872Y-80999500D01*
X168637772Y-81029926D01*
X168608884Y-81033730D01*
X168355581Y-81101602D01*
X168355571Y-81101605D01*
X168113309Y-81201953D01*
X168113299Y-81201958D01*
X167886196Y-81333075D01*
X167678148Y-81492718D01*
X167492718Y-81678148D01*
X167333075Y-81886196D01*
X167201958Y-82113299D01*
X167201953Y-82113309D01*
X167101605Y-82355571D01*
X167101602Y-82355581D01*
X167033730Y-82608885D01*
X166999500Y-82868872D01*
X125500500Y-82868872D01*
X125500500Y-79624500D01*
X125520185Y-79557461D01*
X125572989Y-79511706D01*
X125624500Y-79500500D01*
X172375500Y-79500500D01*
X172442539Y-79520185D01*
G37*
%TD.AperFunction*%
%TD*%
M02*
