*
*
G04 PADS VX.2 Build Number: 5060570 generated Gerber (RS-274-X) file*
G04 PC Version=2.1*
*
%IN "PCB_ESP32-S3-WROOM-2_V1"*%
*
%MOIN*%
*
%FSLAX35Y35*%
*
*
*
*
G04 PC Standard Apertures*
*
*
G04 Thermal Relief Aperture macro.*
%AMTER*
1,1,$1,0,0*
1,0,$1-$2,0,0*
21,0,$3,$4,0,0,45*
21,0,$3,$4,0,0,135*
%
*
*
G04 Annular Aperture macro.*
%AMANN*
1,1,$1,0,0*
1,0,$2,0,0*
%
*
*
G04 Odd Aperture macro.*
%AMODD*
1,1,$1,0,0*
1,0,$1-0.005,0,0*
%
*
*
G04 PC Custom Aperture Macros*
*
*
*
*
*
*
G04 PC Aperture Table*
*
%ADD010C,0.001*%
%ADD030C,0.01*%
%ADD036C,0.006*%
%ADD037C,0.005*%
%ADD131C,0.01575*%
%ADD212R,0.06693X0.03543*%
%ADD213R,0.03543X0.06693*%
%ADD265R,0.03937X0.03937*%
*
*
*
*
G04 PC Circuitry*
G04 Layer Name PCB_ESP32-S3-WROOM-2_V1 - circuitry*
%LPD*%
*
*
G04 PC Custom Flashes*
G04 Layer Name PCB_ESP32-S3-WROOM-2_V1 - flashes*
%LPD*%
*
*
G04 PC Circuitry*
G04 Layer Name PCB_ESP32-S3-WROOM-2_V1 - circuitry*
%LPD*%
*
G54D10*
G54D30*
G01X100000Y200394D02*
X170866D01*
Y100000*
X100000*
Y200394*
G54D36*
X125841Y157399D02*
X122504D01*
Y154062*
X125841*
Y157399*
X122800Y154062D02*
Y157399D01*
X123100Y154062D02*
Y157399D01*
X123400Y154062D02*
Y157399D01*
X123700Y154062D02*
Y157399D01*
X124000Y154062D02*
Y157399D01*
X124300Y154062D02*
Y157399D01*
X124600Y154062D02*
Y157399D01*
X124900Y154062D02*
Y157399D01*
X125200Y154062D02*
Y157399D01*
X125500Y154062D02*
Y157399D01*
X125800Y154062D02*
Y157399D01*
X131747D02*
X128410D01*
Y154062*
X131747*
Y157399*
X128500Y154062D02*
Y157399D01*
X128800Y154062D02*
Y157399D01*
X129100Y154062D02*
Y157399D01*
X129400Y154062D02*
Y157399D01*
X129700Y154062D02*
Y157399D01*
X130000Y154062D02*
Y157399D01*
X130300Y154062D02*
Y157399D01*
X130600Y154062D02*
Y157399D01*
X130900Y154062D02*
Y157399D01*
X131200Y154062D02*
Y157399D01*
X131500Y154062D02*
Y157399D01*
X137652D02*
X134315D01*
Y154062*
X137652*
Y157399*
X134500Y154062D02*
Y157399D01*
X134800Y154062D02*
Y157399D01*
X135100Y154062D02*
Y157399D01*
X135400Y154062D02*
Y157399D01*
X135700Y154062D02*
Y157399D01*
X136000Y154062D02*
Y157399D01*
X136300Y154062D02*
Y157399D01*
X136600Y154062D02*
Y157399D01*
X136900Y154062D02*
Y157399D01*
X137200Y154062D02*
Y157399D01*
X137500Y154062D02*
Y157399D01*
X137652Y151493D02*
X134315D01*
Y148156*
X137652*
Y151493*
X134500Y148156D02*
Y151493D01*
X134800Y148156D02*
Y151493D01*
X135100Y148156D02*
Y151493D01*
X135400Y148156D02*
Y151493D01*
X135700Y148156D02*
Y151493D01*
X136000Y148156D02*
Y151493D01*
X136300Y148156D02*
Y151493D01*
X136600Y148156D02*
Y151493D01*
X136900Y148156D02*
Y151493D01*
X137200Y148156D02*
Y151493D01*
X137500Y148156D02*
Y151493D01*
X125841Y145588D02*
X122504D01*
Y142251*
X125841*
Y145588*
X122800Y142251D02*
Y145588D01*
X123100Y142251D02*
Y145588D01*
X123400Y142251D02*
Y145588D01*
X123700Y142251D02*
Y145588D01*
X124000Y142251D02*
Y145588D01*
X124300Y142251D02*
Y145588D01*
X124600Y142251D02*
Y145588D01*
X124900Y142251D02*
Y145588D01*
X125200Y142251D02*
Y145588D01*
X125500Y142251D02*
Y145588D01*
X125800Y142251D02*
Y145588D01*
X125841Y151493D02*
X122504D01*
Y148156*
X125841*
Y151493*
X122800Y148156D02*
Y151493D01*
X123100Y148156D02*
Y151493D01*
X123400Y148156D02*
Y151493D01*
X123700Y148156D02*
Y151493D01*
X124000Y148156D02*
Y151493D01*
X124300Y148156D02*
Y151493D01*
X124600Y148156D02*
Y151493D01*
X124900Y148156D02*
Y151493D01*
X125200Y148156D02*
Y151493D01*
X125500Y148156D02*
Y151493D01*
X125800Y148156D02*
Y151493D01*
X131747Y145588D02*
X128410D01*
Y142251*
X131747*
Y145588*
X128500Y142251D02*
Y145588D01*
X128800Y142251D02*
Y145588D01*
X129100Y142251D02*
Y145588D01*
X129400Y142251D02*
Y145588D01*
X129700Y142251D02*
Y145588D01*
X130000Y142251D02*
Y145588D01*
X130300Y142251D02*
Y145588D01*
X130600Y142251D02*
Y145588D01*
X130900Y142251D02*
Y145588D01*
X131200Y142251D02*
Y145588D01*
X131500Y142251D02*
Y145588D01*
X137652D02*
X134315D01*
Y142251*
X137652*
Y145588*
X134500Y142251D02*
Y145588D01*
X134800Y142251D02*
Y145588D01*
X135100Y142251D02*
Y145588D01*
X135400Y142251D02*
Y145588D01*
X135700Y142251D02*
Y145588D01*
X136000Y142251D02*
Y145588D01*
X136300Y142251D02*
Y145588D01*
X136600Y142251D02*
Y145588D01*
X136900Y142251D02*
Y145588D01*
X137200Y142251D02*
Y145588D01*
X137500Y142251D02*
Y145588D01*
G54D37*
X141411Y102476D02*
G75*
G03X140426Y103757I-5405J-3140D01*
X141411Y103067I2450J2450*
G01X140426Y103757D02*
X141411Y102772D01*
X110250Y116764D02*
X118264Y108750D01*
X129500*
X132500Y105750*
X135725*
X137225Y104250*
X139933*
X142933Y101250*
Y100000*
X118091Y152963D02*
G03X118199Y153506I-351J352D01*
G01X118634Y153071D02*
G03X118091Y152963I-191J-459D01*
G01X118348Y153220*
X110250Y116764D02*
Y136050D01*
X114000Y139800*
Y145650*
X117250Y148900*
Y152122*
X118728Y153600*
X131411Y103097D02*
G03X130668Y104082I-3896J-2168D01*
X132253Y103097I2904J2905*
G01X130668Y104082D02*
G03X131832Y103097I6499J6500D01*
G01X108250Y115778D02*
X117278Y106750D01*
X128000*
X132933Y101817*
Y100000*
X113241Y155988D02*
G03X113349Y156531I-351J352D01*
G01X113784Y156096D02*
G03X113241Y155988I-191J-459D01*
G01X113498Y156245*
X108250Y115778D02*
Y140700D01*
X110250Y142700*
Y151875*
X112400Y154025*
Y155147*
X113878Y156625*
X126411Y102476D02*
G03X125426Y103757I-5405J-3140D01*
X126411Y103067I2450J2450*
G01X125426Y103757D02*
X126411Y102772D01*
X107250Y115364D02*
X116864Y105750D01*
X123433*
X127933Y101250*
Y100000*
X110720Y156610D02*
G03X111179Y156918I-0J497D01*
G01Y156302D02*
G03X110720Y156610I-459J-189D01*
G01X111083*
X107250Y115364D02*
Y141120D01*
X109250Y143120*
Y155438*
X110422Y156610*
X111620*
X121411Y102476D02*
G03X120426Y103757I-5405J-3140D01*
X121411Y103067I2450J2450*
G01X120426Y103757D02*
X121411Y102772D01*
X106250Y114950D02*
X116450Y104750D01*
X119433*
X122933Y101250*
Y100000*
X113241Y159188D02*
G03X113349Y159731I-351J352D01*
G01X113784Y159296D02*
G03X113241Y159188I-191J-459D01*
G01X113498Y159445*
X106250Y114950D02*
Y141540D01*
X108250Y143540*
Y155852*
X110616Y158218*
X110616D02*
X112271D01*
X112271D02*
X113878Y159825D01*
X116411Y103097D02*
G03X115668Y104082I-3896J-2168D01*
X117253Y103097I2904J2905*
G01X115668Y104082D02*
G03X116832Y103097I6499J6500D01*
G01X105250Y114500D02*
X117933Y101817D01*
Y100000*
X110809Y159825D02*
G03X111232Y160124I-0J448D01*
G01Y159526D02*
G03X110809Y159825I-423J-149D01*
G01X111141*
X105250Y114500D02*
Y141960D01*
X107250Y143960*
Y156266*
X110809Y159825*
X111678*
X102797Y117428D02*
G03X104063Y118413I-3313J5564D01*
G01X103096Y117428*
X120118Y161362D02*
G03X120548Y161321I240J241D01*
G01X120159Y160932D02*
G03X120118Y161362I-282J190D01*
G01X120118D02*
X120300Y161180D01*
X100000Y115906D02*
X101556D01*
X104250Y118600*
Y142380*
X106250Y144380*
Y156680*
X110932Y161362*
X110932D02*
X120118D01*
X120118D02*
X120680Y160800D01*
X153041Y107508D02*
G03X153500Y107200I459J189D01*
X153041Y106892I0J-497*
G01X153500Y107200D02*
X153137D01*
X152600D02*
X156625D01*
X161750Y112325*
X113000Y136750D02*
G03X113459Y137058I-0J497D01*
G01Y136442D02*
G03X113000Y136750I-459J-189D01*
G01X113363*
X111250Y135600D02*
X112400Y136750D01*
X113900*
X146411Y103097D02*
G03X145618Y104082I-4970J-3191D01*
X147197Y103097I2917J2918*
G01X145618Y104082D02*
G03X146804Y103097I5916J5916D01*
G01X111250Y135600D02*
Y117178D01*
X118678Y109750*
X130250*
X133250Y106750*
X136500*
X138000Y105250*
X144450*
X147933Y101767*
Y100000*
X113532Y153743D02*
G03X113523Y154239I-244J244D01*
G01X114194Y154033D02*
G03X113532Y153743I40J-992D01*
X113736Y154045I-672J672*
G01X109250Y140280D02*
X111250Y142280D01*
Y151461*
X113978Y154189*
Y154525*
X136411Y102476D02*
G03X135426Y103757I-5405J-3140D01*
X136411Y103067I2450J2450*
G01X135426Y103757D02*
X136411Y102772D01*
X109250Y140280D02*
Y116350D01*
X117850Y107750*
X128750*
X131975Y104525*
X134658*
X137933Y101250*
Y100000*
X130184Y127665D02*
G03X130229Y127171I319J-220D01*
X129539Y127387I-551J-551*
G01X129993Y127449D02*
G03X130229Y127171I1782J1268D01*
G01X157948Y119200D02*
G03X158347Y119495I-0J418D01*
G01X158567Y118828D02*
G03X157948Y119200I-619J-330D01*
G01X158312Y119209*
X129700Y127900D02*
Y127700D01*
X133650Y123750*
X141250*
X143250Y121750*
X154583*
X157133Y119200*
X158755*
X158844Y119289*
X132108Y127559D02*
G03X131800Y127099I189J-460D01*
X131492Y127559I-497J0*
G01X131800Y127099D02*
Y127462D01*
X156839Y121014D02*
G03X157028Y121234I-0J192D01*
G01Y120794D02*
G03X156839Y121014I-189J29D01*
G01X156981*
X131800Y128000D02*
Y127050D01*
X134100Y124750*
X141850*
X143850Y122750*
X155103*
X156839Y121014*
X157519*
X102559Y142428D02*
G03X103813Y143413I-3482J5721D01*
X103096Y142428I2765J-2765*
G01X103813Y143413D02*
X102828Y142428D01*
X122750Y161100D02*
G03X122950Y160949I157J0D01*
G01X122550D02*
G03X122750Y161100I43J151D01*
G01Y160987*
X100000Y140906D02*
X101306D01*
X105250Y144850*
Y157259*
X110366Y162375*
X121475*
X122750Y161100*
Y160450*
X104082Y153332D02*
X103096Y152428D01*
X104082Y153332D02*
G03X103096Y151765I2945J-2945D01*
G01X104082Y153332D02*
G03X103096Y152096I4989J-4989D01*
G01X124430Y161218D02*
G03X125100Y160949I650J650D01*
G01X124436Y160721D02*
G03X124430Y161218I-257J246D01*
G01X124643Y160922D02*
G03X124430Y161218I-1012J-503D01*
G01X100000Y150906D02*
X101656D01*
X104250Y153500*
Y157675*
X109950Y163375*
X122273*
X124900Y160748*
Y160450*
X166784Y143484D02*
G03X167770Y145052I-2943J2944D01*
G01Y144384D02*
G03X166784Y143484I9448J-11333D01*
X167770Y144718I-5017J5017*
G01X147500Y143300D02*
Y138275D01*
X150525Y135250*
X159100*
X165750Y141900*
Y142450*
X169206Y145906*
X170866*
X147500Y143300D02*
X148550Y144350D01*
X139738Y153769D02*
G03X139846Y154312I-351J352D01*
G01X140281Y153877D02*
G03X139738Y153769I-191J-459D01*
G01X139995Y154026*
X139435Y151715D02*
Y153466D01*
X140375Y154406*
X139435Y151715D02*
X140300Y150850D01*
X141850*
X143250Y149450*
Y136161*
X148661Y130750*
X152924*
X161750Y121924*
Y112325*
X166376Y140906D02*
G03X167770Y142054I0J1420D01*
G01Y139758D02*
G03X166376Y140906I-1394J-272D01*
X167770Y141595I0J1753*
G01X166376Y140906D02*
G03X167770Y141136I0J4342D01*
G01Y140676D02*
G03X166376Y140906I-1394J-4112D01*
G01X167770Y140217D02*
G03X166376Y140906I-1394J-1064D01*
G01X146500Y137850D02*
X150100Y134250D01*
X159550*
X166206Y140906*
X170866*
X146500Y144500D02*
G03X146492Y144826I-159J159D01*
G01X146826Y144492D02*
G03X146500Y144500I-167J-150D01*
G01X146620Y144620D02*
X146500Y144500D01*
Y137850*
Y144500D02*
X147000Y145000D01*
X141472Y152663D02*
G03X141750Y152406I278J22D01*
X141472Y152149I0J-279*
G01X141750Y152406D02*
X141537D01*
X161635Y103097D02*
G03X162750Y104490I-313J1393D01*
X163865Y103097I1428J0*
G01X162081D02*
G03X162750Y104490I-1117J1393D01*
G01X162527Y103097D02*
G03X162750Y104490I-4242J1393D01*
X162973Y103097I4465J0*
G01X162750Y104490D02*
G03X163419Y103097I1786J0D01*
G01X141000Y152406D02*
X141750D01*
X144250Y149906*
Y136575*
X149075Y131750*
X153408*
X162750Y122408*
Y100184*
X162933Y100000*
X148039Y147037D02*
G03X148147Y146494I459J-192D01*
X147604Y146601I-352J-352*
G01X148147Y146494D02*
X147890Y146750D01*
X147510Y147130D02*
X148550Y146090D01*
Y144350*
X162057Y131626D02*
G03X162731Y131886I44J889D01*
X162718Y131389I255J-255*
G01X162731Y131886D02*
G03X162514Y131593I874J-875D01*
G01X166751Y135906D02*
G03X167770Y136520I-0J1152D01*
G01Y135292D02*
G03X166751Y135906I-1019J-538D01*
X167770Y136111I-0J2638*
G01Y135701D02*
G03X166751Y135906I-1019J-2433D01*
G01X162250Y131125D02*
Y131405D01*
X166751Y135906*
X170866*
X130929Y159556D02*
G03X131037Y159013I459J-191D01*
X130494Y159121I-352J-351*
G01X131037Y159013D02*
X130780Y159270D01*
X167550Y162350D02*
G03X167770Y162394I95J95D01*
G01Y162095D02*
G03X167550Y162350I-1830J-1355D01*
G01X130400Y159650D02*
X131375Y158675D01*
X133078*
X135128Y160725*
X144525*
X145800Y162000*
X149250*
X149600Y162350*
X167550*
X168994Y160906*
X170866*
X132544Y160754D02*
G03X133087Y160862I191J459D01*
X132979Y160319I351J-352*
G01X133087Y160862D02*
X132830Y160605D01*
X166784Y163634D02*
G03X167770Y165218I-2906J2906D01*
G01Y164384D02*
G03X166784Y163634I2272J-4007D01*
X167770Y164801I-6418J6419*
G01X132450Y160225D02*
X133950Y161725D01*
X144025*
X145300Y163000*
X148750*
X149100Y163350*
X166500*
X169056Y165906*
X170866*
X107844Y163919D02*
G03X108387Y164026I191J459D01*
X108279Y163483I351J-351*
G01X108387Y164026D02*
X108130Y163770D01*
X126484Y161387D02*
G03X127169Y161160I569J570D01*
G01X126520Y160892D02*
G03X126484Y161387I-305J227D01*
G01X126714Y161105D02*
G03X126484Y161387I-1519J-1006D01*
G01X107750Y163390D02*
X108740Y164380D01*
X123491*
X127000Y160871*
Y160650*
X104082Y163332D02*
X103096Y162428D01*
X104082Y163332D02*
G03X103096Y161765I2945J-2945D01*
G01X104082Y163332D02*
G03X103096Y162096I4989J-4989D01*
G01X132113Y167237D02*
G03X132656Y167129I352J351D01*
G01X132221Y166694D02*
G03X132113Y167237I-459J191D01*
G01X132370Y166980*
X100000Y160906D02*
X101656D01*
X104828Y164078*
Y165584*
X106744Y167500*
X131850*
X132750Y166600*
X153038Y118500D02*
G03X153038I-1538J0D01*
G01X146338Y116400D02*
G03X146338I-1538J0D01*
G01X140975Y108000D02*
G03X140975I-1538J0D01*
G01X143008Y116250D02*
G03X143008I-1538J0D01*
G01X143479Y119427D02*
G03X143479I-1537J0D01*
G01X127988Y170170D02*
G03X127988I-1538J0D01*
G01X119958D02*
G03X119958I-1538J0D01*
G01X135038Y112125D02*
G03X135038I-1538J0D01*
G01X139538Y119375D02*
G03X139538I-1538J0D01*
G01X131788Y115375D02*
G03X131788I-1538J0D01*
G01X148538Y127500D02*
G03X148538I-1538J0D01*
G01X153188Y140700D02*
G03X153188I-1538J0D01*
G01X147846Y153125D02*
G03X147846I-1538J0D01*
G01X148538Y159300D02*
G03X148538I-1538J0D01*
G01X140838Y138952D02*
G03X140838I-1538J0D01*
G01X141918Y148106D02*
G03X141918I-1538J0D01*
G01X126228Y128840D02*
G03X126228I-1538J0D01*
G01X117238Y117600D02*
G03X117238I-1538J0D01*
G01X119798Y127260D02*
G03X119798I-1538J0D01*
G01X122465Y129428D02*
G03X122465I-1538J0D01*
G01X119839Y131303D02*
G03X119839I-1537J0D01*
G01X118658Y137220D02*
G03X118658I-1538J0D01*
G01X169616Y176458D02*
G03X169553Y176521I-63J-0D01*
G01X101314*
G03X101250Y176458I-0J-63*
G01Y169456*
G03X101314Y169392I64J-0*
G01X104350*
X104600Y169142D02*
G03X104350Y169392I-250J0D01*
G01X104600Y169142D02*
Y166924D01*
G03X104708Y166879I64J-0*
G01X106037Y168207*
X106744Y168500D02*
G03X106037Y168207I0J-1000D01*
G01X106744Y168500D02*
X131850D01*
X132557Y168207D02*
G03X131850Y168500I-707J-707D01*
G01X132557Y168207D02*
X132611Y168153D01*
G03X132660Y168135I45J45*
G01X134288Y166600D02*
G03X132660Y168135I-1538J0D01*
G01X131221Y166443D02*
G03X134288Y166600I1529J157D01*
G01X131221Y166443D02*
G03X131157Y166500I-64J-7D01*
G01X107185*
G03X107140Y166481I-0J-64*
G01X105847Y165188*
G03X105828Y165143I45J-45*
G01Y164078*
X105535Y163371D02*
G03X105828Y164078I-707J707D01*
G01X105535Y163371D02*
X104789Y162625D01*
G03X104615Y162436I2238J-2238*
X104600Y162395I49J-41*
G01Y159593*
G03X104708Y159548I64J-0*
G01X107075Y161914*
G03X107094Y161959I-45J45*
X107059Y162016I-64J0*
G01X106212Y163390D02*
G03X107059Y162016I1538J-0D01*
G01X107840Y164924D02*
G03X106212Y163390I-90J-1534D01*
G01X107840Y164924D02*
G03X107889Y164943I4J64D01*
G01X108033Y165087*
X108740Y165380D02*
G03X108033Y165087I0J-1000D01*
G01X108740Y165380D02*
X123491D01*
X124198Y165087D02*
G03X123491Y165380I-707J-707D01*
G01X124198Y165087D02*
X127084Y162201D01*
G03X127124Y162183I45J45*
G01X128538Y160650D02*
G03X127124Y162183I-1538J0D01*
G01X126101Y159402D02*
G03X128538Y160650I899J1248D01*
G01X126101Y159402D02*
G03X126018Y159395I-37J-51D01*
G01X123868Y159311D02*
G03X126018Y159395I1032J1139D01*
G01X123868Y159311D02*
G03X123782I-43J-47D01*
G01X121563Y159473D02*
G03X123782Y159311I1187J977D01*
G01X121563Y159473D02*
G03X121480Y159487I-50J-40D01*
G01X119220Y160319D02*
G03X121480Y159487I1460J481D01*
G01X119220Y160319D02*
G03X119159Y160362I-61J-20D01*
G01X115407*
G03X115344Y160299I0J-63*
X115347Y160280I63J-0*
G01X115416Y159825D02*
G03X115347Y160280I-1538J0D01*
G01X115416Y159825D02*
X115416D01*
X113933Y158288D02*
G03X115416Y159825I-55J1537D01*
G01X113933Y158288D02*
G03X113878Y158252I2J-63D01*
X113823Y158288I-57J-27*
G01X113788Y158290D02*
G03X113823Y158288I90J1535D01*
G01X113788Y158290D02*
G03X113739Y158272I-4J-63D01*
G01X113735Y158268*
G03X113717Y158223I45J-45*
X113784Y158160I63J0*
G01X113823Y158162D02*
G03X113784Y158160I55J-1537D01*
G01X113823Y158162D02*
G03X113878Y158198I-2J63D01*
X113933Y158162I57J27*
G01X115416Y156625D02*
G03X113933Y158162I-1538J0D01*
G01X115084Y155672D02*
G03X115416Y156625I-1206J953D01*
G01X115084Y155672D02*
G03X115071Y155632I50J-40D01*
X115088Y155589I63J0*
G01X115516Y154525D02*
G03X115088Y155589I-1538J0D01*
G01X115144Y153523D02*
G03X115516Y154525I-1166J1002D01*
G01X115144Y153523D02*
G03X115129Y153481I48J-42D01*
X115157Y153429I63J0*
G01X115838Y152152D02*
G03X115157Y153429I-1538J0D01*
G01X112883Y151556D02*
G03X115838Y152152I1417J596D01*
G01X112883Y151556D02*
G03X112779Y151576I-59J-25D01*
G01X112269Y151065*
G03X112250Y151020I45J-45*
G01Y142280*
X111957Y141573D02*
G03X112250Y142280I-707J707D01*
G01X111957Y141573D02*
X110269Y139884D01*
G03X110250Y139839I45J-45*
G01Y137618*
G03X110358Y137573I64J-0*
G01X112981Y140196*
G03X113000Y140241I-45J45*
G01Y145650*
X113293Y146357D02*
G03X113000Y145650I707J-707D01*
G01X113293Y146357D02*
X116231Y149296D01*
G03X116250Y149341I-45J45*
G01Y152122*
X116543Y152829D02*
G03X116250Y152122I707J-707D01*
G01X116543Y152829D02*
X117175Y153461D01*
G03X117193Y153506I-45J45*
Y153510I-63J-0*
G01X117190Y153600D02*
G03X117193Y153510I1538J0D01*
G01X120266Y153600D02*
G03X117190I-1538J0D01*
G01X118638Y152065D02*
G03X120266Y153600I90J1535D01*
G01X118638Y152065D02*
G03X118589Y152047I-4J-63D01*
G01X118269Y151726*
G03X118250Y151681I45J-45*
G01Y148900*
X117957Y148193D02*
G03X118250Y148900I-707J707D01*
G01X117957Y148193D02*
X115019Y145254D01*
G03X115000Y145209I45J-45*
G01Y139800*
X114707Y139093D02*
G03X115000Y139800I-707J707D01*
G01X114707Y139093D02*
X114003Y138389D01*
G03X113985Y138344I45J-45*
X114042Y138281I63J0*
G01X115438Y136750D02*
G03X114042Y138281I-1538J0D01*
G01X112815Y135661D02*
G03X115438Y136750I1085J1089D01*
G01X112815Y135661D02*
G03X112725I-45J-45D01*
G01X112269Y135204*
G03X112250Y135159I45J-45*
G01Y117619*
G03X112269Y117574I64J-0*
G01X119074Y110769*
G03X119119Y110750I45J45*
G01X130250*
X130957Y110457D02*
G03X130250Y110750I-707J-707D01*
G01X130957Y110457D02*
X133646Y107769D01*
G03X133691Y107750I45J45*
G01X136500*
X137207Y107457D02*
G03X136500Y107750I-707J-707D01*
G01X137207Y107457D02*
X138396Y106269D01*
G03X138441Y106250I45J45*
G01X144450*
X145157Y105957D02*
G03X144450Y106250I-707J-707D01*
G01X145157Y105957D02*
X146325Y104789D01*
G03X146519Y104611I2210J2211*
X146560Y104596I41J49*
G01X161686*
G03X161750Y104660I0J64*
G01Y110758*
G03X161642Y110803I-64J-0*
G01X157332Y106493*
X156625Y106200D02*
G03X157332Y106493I-0J1000D01*
G01X156625Y106200D02*
X153797D01*
G03X153749Y106179I-0J-64*
G01X151062Y107200D02*
G03X153749Y106179I1538J0D01*
G01Y108221D02*
G03X151062Y107200I-1149J-1021D01*
G01X153749Y108221D02*
G03X153797Y108200I48J43D01*
G01X156184*
G03X156229Y108219I0J64*
G01X160731Y112721*
G03X160750Y112766I-45J45*
G01Y121484*
G03X160731Y121529I-64J-0*
G01X152529Y129731*
G03X152484Y129750I-45J-45*
G01X148661*
X147954Y130043D02*
G03X148661Y129750I707J707D01*
G01X147954Y130043D02*
X142543Y135454D01*
X142250Y136161D02*
G03X142543Y135454I1000J-0D01*
G01X142250Y136161D02*
Y149009D01*
G03X142231Y149054I-64J0*
G01X141454Y149831*
G03X141409Y149850I-45J-45*
G01X140300*
X139593Y150143D02*
G03X140300Y149850I707J707D01*
G01X139593Y150143D02*
X138729Y151007D01*
X138435Y151715D02*
G03X138729Y151007I1000J-0D01*
G01X138435Y151715D02*
Y153466D01*
X138728Y154173D02*
G03X138435Y153466I707J-707D01*
G01X138728Y154173D02*
X138822Y154267D01*
G03X138840Y154312I-45J45*
Y154315I-63J-0*
G01X138837Y154406D02*
G03X138840Y154315I1538J-0D01*
G01X141913Y154406D02*
G03X138837I-1538J-0D01*
G01X141785Y153792D02*
G03X141913Y154406I-1410J614D01*
G01X141785Y153792D02*
G03X141780Y153767I58J-25D01*
X141810Y153713I63J0*
G01X142277Y153262D02*
G03X141810Y153713I-1277J-856D01*
G01X142277Y153262D02*
G03X142295Y153244I53J35D01*
G01X142458Y153112D02*
G03X142295Y153244I-708J-706D01*
G01X142458Y153112D02*
X144957Y150613D01*
X145250Y149906D02*
G03X144957Y150613I-1000J-0D01*
G01X145250Y149906D02*
Y137016D01*
G03X145269Y136971I64J-0*
G01X149471Y132769*
G03X149516Y132750I45J45*
G01X153408*
X154116Y132457D02*
G03X153408Y132750I-708J-707D01*
G01X154116Y132457D02*
X163457Y123116D01*
X163750Y122408D02*
G03X163457Y123116I-1000J0D01*
G01X163750Y122408D02*
Y104660D01*
G03X163814Y104596I64J-0*
G01X165700*
X165950Y104346D02*
G03X165700Y104596I-250J0D01*
G01X165950Y104346D02*
Y101314D01*
G03X166014Y101250I64J-0*
G01X169553*
G03X169616Y101314I-0J64*
G01Y102596*
G03X169553Y102660I-63J0*
G01X166520*
X166270Y102910D02*
G03X166520Y102660I250J0D01*
G01X166270Y102910D02*
Y133857D01*
G03X166162Y133902I-64J0*
G01X163769Y131510*
G03X163751Y131465I45J-45*
G01X163751*
G03X163752Y131452I63J0*
G01X163788Y131125D02*
G03X163752Y131452I-1538J-0D01*
G01X160712Y131125D02*
G03X163788I1538J-0D01*
G01X162062Y132651D02*
G03X160712Y131125I188J-1526D01*
G01X162062Y132651D02*
G03X162099Y132669I-8J63D01*
G01X166043Y136613*
X166239Y136765D02*
G03X166043Y136613I512J-859D01*
G01X166239Y136765D02*
G03X166270Y136820I-33J55D01*
G01Y139403*
G03X166162Y139448I-64J-0*
G01X160257Y133543*
X159550Y133250D02*
G03X160257Y133543I-0J1000D01*
G01X159550Y133250D02*
X150100D01*
X149392Y133543D02*
G03X150100Y133250I708J707D01*
G01X149392Y133543D02*
X145793Y137142D01*
X145500Y137850D02*
G03X145793Y137142I1000J0D01*
G01X145500Y137850D02*
Y144500D01*
X145507Y144617D02*
G03X145500Y144500I993J-117D01*
G01X145507Y144617D02*
G03Y144624I-63J7D01*
G01X145507*
G03X145505Y144639I-63J0*
G01X145462Y145000D02*
G03X145505Y144639I1538J0D01*
G01X146154Y146284D02*
G03X145462Y145000I846J-1284D01*
G01X146154Y146284D02*
G03X146183Y146337I-35J53D01*
X146174Y146369I-64J0*
G01X145972Y147130D02*
G03X146174Y146369I1538J0D01*
G01X149048Y147130D02*
G03X145972I-1538J0D01*
G01X149045Y147040D02*
G03X149048Y147130I-1535J90D01*
G01X149045Y147040D02*
G03Y147036I63J-4D01*
X149063Y146991I63J0*
G01X149257Y146798*
X149550Y146090D02*
G03X149257Y146798I-1000J0D01*
G01X149550Y146090D02*
Y144350D01*
X149257Y143642D02*
G03X149550Y144350I-707J708D01*
G01X149257Y143642D02*
X148519Y142904D01*
G03X148500Y142859I45J-45*
G01Y138716*
G03X148519Y138671I64J-0*
G01X150920Y136269*
G03X150965Y136250I45J45*
G01X158659*
G03X158704Y136269I0J64*
G01X164731Y142296*
G03X164750Y142341I-45J45*
G01Y142450*
X165043Y143157D02*
G03X164750Y142450I707J-707D01*
G01X165043Y143157D02*
X166077Y144192D01*
G03X166255Y144385I-2236J2236*
X166270Y144426I-49J41*
G01Y161286*
G03X166206Y161350I-64J0*
G01X150041*
G03X149996Y161331I-0J-64*
G01X149957Y161293*
X149250Y161000D02*
G03X149957Y161293I-0J1000D01*
G01X149250Y161000D02*
X146241D01*
G03X146196Y160981I-0J-64*
G01X145232Y160018*
X144525Y159725D02*
G03X145232Y160018I-0J1000D01*
G01X144525Y159725D02*
X137403D01*
G03X137340Y159661I0J-64*
X137343Y159642I63J0*
G01X137416Y159175D02*
G03X137343Y159642I-1538J0D01*
G01X134478Y158539D02*
G03X137416Y159175I1400J636D01*
G01X134478Y158539D02*
G03X134375Y158558I-58J-26D01*
G01X133785Y157968*
X133078Y157675D02*
G03X133785Y157968I-0J1000D01*
G01X133078Y157675D02*
X131375D01*
X130668Y157968D02*
G03X131375Y157675I707J707D01*
G01X130668Y157968D02*
X130539Y158097D01*
G03X130490Y158115I-45J-45*
G01X128862Y159650D02*
G03X130490Y158115I1538J0D01*
G01X131074Y161032D02*
G03X128862Y159650I-674J-1382D01*
G01X131074Y161032D02*
G03X131156Y161055I28J57D01*
G01X132540Y161760D02*
G03X131156Y161055I-90J-1535D01*
G01X132540Y161760D02*
G03X132589Y161778I4J63D01*
G01X133243Y162432*
X133950Y162725D02*
G03X133243Y162432I0J-1000D01*
G01X133950Y162725D02*
X143584D01*
G03X143629Y162744I0J64*
G01X144593Y163707*
X145300Y164000D02*
G03X144593Y163707I0J-1000D01*
G01X145300Y164000D02*
X148309D01*
G03X148354Y164019I0J64*
G01X148393Y164057*
X149100Y164350D02*
G03X148393Y164057I0J-1000D01*
G01X149100Y164350D02*
X166059D01*
G03X166105Y164369I0J64*
X166255Y164535I-2227J2171*
X166270Y164576I-49J41*
G01Y169150*
X166520Y169400D02*
G03X166270Y169150I0J-250D01*
G01X166520Y169400D02*
X169553D01*
G03X169616Y169464I-0J64*
G01Y176458*
X113650Y104660D02*
G03X113631Y104704I-64J-0D01*
G01X104708Y113627*
G03X104600Y113582I-44J-45*
G01Y103136*
X104350Y102886D02*
G03X104600Y103136I0J250D01*
G01X104350Y102886D02*
X101314D01*
G03X101250Y102822I-0J-64*
G01Y101314*
G03X101314Y101250I64J-0*
G01X104846*
G03X104910Y101314I0J64*
G01Y104346*
X105160Y104596D02*
G03X104910Y104346I0J-250D01*
G01X105160Y104596D02*
X113586D01*
G03X113650Y104660I0J64*
G01X153038Y118500D02*
G03X153038I-1538J0D01*
G01X146338Y116400D02*
G03X146338I-1538J0D01*
G01X140975Y108000D02*
G03X140975I-1538J0D01*
G01X143008Y116250D02*
G03X143008I-1538J0D01*
G01X143479Y119427D02*
G03X143479I-1537J0D01*
G01X127988Y170170D02*
G03X127988I-1538J0D01*
G01X119958D02*
G03X119958I-1538J0D01*
G01X109240Y169005D02*
G03X111738Y170206I960J1201D01*
G01X109240Y169005D02*
G03X109160I-40J-49D01*
G01X106662Y170206D02*
G03X109160Y169005I1538J0D01*
G01Y171407D02*
G03X106662Y170206I-960J-1201D01*
G01X109160Y171407D02*
G03X109240I40J49D01*
G01X111738Y170206D02*
G03X109240Y171407I-1538J0D01*
G01X135038Y112125D02*
G03X135038I-1538J0D01*
G01X137244Y114987D02*
G03X139788Y116150I1006J1163D01*
G01X137244Y114987D02*
G03X137159Y114985I-41J-48D01*
G01X135075Y114954D02*
G03X137159Y114985I1025J1146D01*
G01X135075Y114954D02*
G03X134977Y114937I-43J-48D01*
G01X132091Y115676D02*
G03X134977Y114937I1538J0D01*
G01X134654Y116822D02*
G03X132091Y115676I-1025J-1146D01*
G01X134654Y116822D02*
G03X134752Y116839I42J47D01*
G01X137106Y117263D02*
G03X134752Y116839I-1006J-1163D01*
G01X137106Y117263D02*
G03X137191Y117265I41J48D01*
G01X139788Y116150D02*
G03X137191Y117265I-1538J0D01*
G01X139538Y119375D02*
G03X139538I-1538J0D01*
G01X131788Y115375D02*
G03X131788I-1538J0D01*
G01X158056Y117969D02*
G03X160381Y119289I788J1320D01*
G01X158056Y117969D02*
X158056D01*
X158049Y117973D02*
G03X158056Y117969I518J855D01*
G01X158049Y117973D02*
X158048D01*
X157777Y118182D02*
G03X158048Y117973I1067J1107D01*
G01X157777Y118182D02*
G03X157732Y118200I-45J-46D01*
G01X157133*
X156425Y118493D02*
G03X157133Y118200I708J707D01*
G01X156425Y118493D02*
X154187Y120731D01*
G03X154142Y120750I-45J-45*
G01X143250*
X142543Y121042D02*
G03X143250Y120750I707J708D01*
G01X142543Y121042D02*
X140854Y122731D01*
G03X140809Y122750I-45J-45*
G01X133650*
X132942Y123043D02*
G03X133650Y122750I708J707D01*
G01X132942Y123043D02*
X129638Y126347D01*
G03X129598Y126365I-45J-45*
G01X129244Y126431D02*
G03X129598Y126365I456J1469D01*
G01X129244Y126431D02*
X129244D01*
X129237Y126433D02*
G03X129244Y126431I302J954D01*
G01X129237Y126433D02*
X129237D01*
X128203Y127551D02*
G03X129237Y126433I1497J349D01*
G01X128203Y127551D02*
G03X128134Y127599I-62J-15D01*
G01X126428Y129128D02*
G03X128134Y127599I1537J-0D01*
G01X129463Y129477D02*
G03X126428Y129128I-1498J-349D01*
G01X129463Y129477D02*
G03X129532Y129428I62J14D01*
G01X130653Y129106D02*
G03X129532Y129428I-953J-1206D01*
G01X130653Y129106D02*
G03X130736Y129110I40J50D01*
G01X133027Y128926D02*
G03X130736Y129110I-1227J-926D01*
G01X133027Y128926D02*
G03X133141Y128964I51J38D01*
X133134Y128993I-63J-0*
G01X132962Y129700D02*
G03X133134Y128993I1538J-0D01*
G01X135783Y130547D02*
G03X132962Y129700I-1283J-847D01*
G01X135783Y130547D02*
G03X135886Y130543I53J35D01*
G01X138108Y130760D02*
G03X135886Y130543I-1008J-1160D01*
G01X138108Y130760D02*
G03X138192I42J48D01*
G01X140586Y130264D02*
G03X138192Y130760I-1386J-664D01*
G01X140586Y130264D02*
G03X140693Y130253I58J28D01*
G01X143052Y130317D02*
G03X140693Y130252I-1152J-1017D01*
G01X143052Y130317D02*
G03X143148I48J42D01*
G01X145838Y129300D02*
G03X143148Y130317I-1538J-0D01*
G01Y128282D02*
G03X145838Y129300I1152J1018D01*
G01X143148Y128282D02*
G03X143052I-48J-42D01*
G01X140514Y128635D02*
G03X143052Y128282I1386J665D01*
G01X140514Y128635D02*
G03X140407Y128647I-58J-28D01*
G01X138192Y128439D02*
G03X140407Y128647I1008J1161D01*
G01X138192Y128439D02*
G03X138108I-42J-48D01*
G01X137293Y128074D02*
G03X138108Y128439I-193J1526D01*
G01X137293Y128074D02*
G03X137237Y128011I8J-63D01*
G01X137237*
X137238Y128000D02*
G03X137237Y128011I-1538J-0D01*
G01X137238Y128000D02*
X137238D01*
X134162D02*
G03X137238I1538J-0D01*
G01X134169Y128142D02*
G03X134162Y128000I1531J-142D01*
G01X134169Y128142D02*
G03Y128148I-63J6D01*
X134121Y128209I-63J-0*
G01X133273Y128773D02*
G03X134121Y128209I1227J927D01*
G01X133273Y128773D02*
G03X133159Y128735I-51J-38D01*
X133166Y128706I63J0*
G01X133338Y128000D02*
G03X133166Y128706I-1538J-0D01*
G01X133120Y127212D02*
G03X133338Y128000I-1320J788D01*
G01X133120Y127212D02*
G03X133111Y127179I55J-33D01*
X133130Y127134I64J0*
G01X134496Y125769*
G03X134541Y125750I45J45*
G01X141850*
X142557Y125457D02*
G03X141850Y125750I-707J-707D01*
G01X142557Y125457D02*
X144246Y123768D01*
G03X144291Y123750I45J45*
G01X155103*
X155811Y123457D02*
G03X155103Y123750I-708J-707D01*
G01X155811Y123457D02*
X156831Y122436D01*
G03X156902Y122423I45J45*
G01X159056Y121014D02*
G03X156902Y122423I-1537J0D01*
G01X159056Y121014D02*
X159056D01*
X159050Y120873D02*
G03X159056Y121014I-1531J141D01*
G01X159050Y120873D02*
G03X159049Y120867I63J-6D01*
X159102Y120805I64J0*
G01X160381Y119289D02*
G03X159102Y120805I-1537J0D01*
G01X148538Y127500D02*
G03X148538I-1538J0D01*
G01X153188Y140700D02*
G03X153188I-1538J0D01*
G01X147846Y153125D02*
G03X147846I-1538J0D01*
G01X148538Y159300D02*
G03X148538I-1538J0D01*
G01X140838Y138952D02*
G03X140838I-1538J0D01*
G01X141918Y148106D02*
G03X141918I-1538J0D01*
G01X126228Y128840D02*
G03X126228I-1538J0D01*
G01X117238Y117600D02*
G03X117238I-1538J0D01*
G01X119798Y127260D02*
G03X119798I-1538J0D01*
G01X122465Y129428D02*
G03X122465I-1538J0D01*
G01X119839Y131303D02*
G03X119839I-1537J0D01*
G01X118658Y137220D02*
G03X118658I-1538J0D01*
G01X101250Y176399D02*
X169616D01*
X101250Y175949D02*
X169616D01*
X101250Y175499D02*
X169616D01*
X101250Y175049D02*
X169616D01*
X101250Y174599D02*
X169616D01*
X101250Y174149D02*
X169616D01*
X101250Y173699D02*
X169616D01*
X101250Y173249D02*
X169616D01*
X101250Y172799D02*
X169616D01*
X101250Y172349D02*
X169616D01*
X101250Y171899D02*
X169616D01*
X127303Y171449D02*
X169616D01*
X127745Y170999D02*
X169616D01*
X127940Y170549D02*
X169616D01*
X127986Y170099D02*
X169616D01*
X127897Y169649D02*
X169616D01*
X165950Y102149D02*
X169616D01*
X165950Y101699D02*
X169616D01*
X165950Y102599D02*
X169616D01*
X127642Y169199D02*
X166275D01*
X127038Y168749D02*
X166270D01*
X132452Y168299D02*
X166270D01*
X133647Y167849D02*
X166270D01*
X134064Y167399D02*
X166270D01*
X134247Y166949D02*
X166270D01*
X134284Y166499D02*
X166270D01*
X134185Y166049D02*
X166270D01*
X133917Y165599D02*
X166270D01*
X133258Y165149D02*
X166270D01*
X124587Y164699D02*
X166270D01*
X149683Y161099D02*
X166270D01*
X147738Y160649D02*
X166270D01*
X148248Y160199D02*
X166270D01*
X148471Y159749D02*
X166270D01*
X148538Y159299D02*
X166270D01*
X148470Y158849D02*
X166270D01*
X148246Y158399D02*
X166270D01*
X147733Y157949D02*
X166270D01*
X115143Y157499D02*
X166270D01*
X115356Y157049D02*
X166270D01*
X115415Y156599D02*
X166270D01*
X115340Y156149D02*
X166270D01*
X141207Y155699D02*
X166270D01*
X141661Y155249D02*
X166270D01*
X141862Y154799D02*
X166270D01*
X147239Y154349D02*
X166270D01*
X147637Y153899D02*
X166270D01*
X147811Y153449D02*
X166270D01*
X147840Y152999D02*
X166270D01*
X147733Y152549D02*
X166270D01*
X147453Y152099D02*
X166270D01*
X146736Y151649D02*
X166270D01*
X144371Y151199D02*
X166270D01*
X144821Y150749D02*
X166270D01*
X145170Y150299D02*
X166270D01*
X145250Y149849D02*
X166270D01*
X145250Y149399D02*
X166270D01*
X145250Y148949D02*
X166270D01*
X148211Y148499D02*
X166270D01*
X148743Y148049D02*
X166270D01*
X148974Y147599D02*
X166270D01*
X149047Y147149D02*
X166270D01*
X149344Y146699D02*
X166270D01*
X149537Y146249D02*
X166270D01*
X149550Y145799D02*
X166270D01*
X149550Y145349D02*
X166270D01*
X149550Y144899D02*
X166270D01*
X149550Y144449D02*
X166270D01*
X165763Y139049D02*
X166270D01*
X165313Y138599D02*
X166270D01*
X164863Y138149D02*
X166270D01*
X164413Y137699D02*
X166270D01*
X163963Y137249D02*
X166270D01*
X165908Y133649D02*
X166270D01*
X165458Y133199D02*
X166270D01*
X165008Y132749D02*
X166270D01*
X164558Y132299D02*
X166270D01*
X164108Y131849D02*
X166270D01*
X163763Y131399D02*
X166270D01*
X163777Y130949D02*
X166270D01*
X163654Y130499D02*
X166270D01*
X163348Y130049D02*
X166270D01*
X162439Y129599D02*
X166270D01*
X157424Y129149D02*
X166270D01*
X157874Y128699D02*
X166270D01*
X158324Y128249D02*
X166270D01*
X158774Y127799D02*
X166270D01*
X159224Y127349D02*
X166270D01*
X159674Y126899D02*
X166270D01*
X160124Y126449D02*
X166270D01*
X160574Y125999D02*
X166270D01*
X161024Y125549D02*
X166270D01*
X161474Y125099D02*
X166270D01*
X161924Y124649D02*
X166270D01*
X162374Y124199D02*
X166270D01*
X162824Y123749D02*
X166270D01*
X163274Y123299D02*
X166270D01*
X163648Y122849D02*
X166270D01*
X163750Y122399D02*
X166270D01*
X163750Y121949D02*
X166270D01*
X163750Y121499D02*
X166270D01*
X163750Y121049D02*
X166270D01*
X163750Y120599D02*
X166270D01*
X163750Y120149D02*
X166270D01*
X163750Y119699D02*
X166270D01*
X163750Y119249D02*
X166270D01*
X163750Y118799D02*
X166270D01*
X163750Y118349D02*
X166270D01*
X163750Y117899D02*
X166270D01*
X163750Y117449D02*
X166270D01*
X163750Y116999D02*
X166270D01*
X163750Y116549D02*
X166270D01*
X163750Y116099D02*
X166270D01*
X163750Y115649D02*
X166270D01*
X163750Y115199D02*
X166270D01*
X163750Y114749D02*
X166270D01*
X163750Y114299D02*
X166270D01*
X163750Y113849D02*
X166270D01*
X163750Y113399D02*
X166270D01*
X163750Y112949D02*
X166270D01*
X163750Y112499D02*
X166270D01*
X163750Y112049D02*
X166270D01*
X163750Y111599D02*
X166270D01*
X163750Y111149D02*
X166270D01*
X163750Y110699D02*
X166270D01*
X163750Y110249D02*
X166270D01*
X163750Y109799D02*
X166270D01*
X163750Y109349D02*
X166270D01*
X163750Y108899D02*
X166270D01*
X163750Y108449D02*
X166270D01*
X163750Y107999D02*
X166270D01*
X163750Y107549D02*
X166270D01*
X163750Y107099D02*
X166270D01*
X163750Y106649D02*
X166270D01*
X163750Y106199D02*
X166270D01*
X163750Y105749D02*
X166270D01*
X163750Y105299D02*
X166270D01*
X163750Y104849D02*
X166270D01*
X165944Y104399D02*
X166270D01*
X165950Y103949D02*
X166270D01*
X165950Y103499D02*
X166270D01*
X165950Y103049D02*
X166270D01*
X163513Y136799D02*
X166266D01*
X149486Y143999D02*
X165884D01*
X163063Y136349D02*
X165779D01*
X149163Y143549D02*
X165434D01*
X162613Y135899D02*
X165329D01*
X148713Y143099D02*
X164989D01*
X162163Y135449D02*
X164879D01*
X148500Y142649D02*
X164770D01*
X151993Y142199D02*
X164634D01*
X161713Y134999D02*
X164429D01*
X152774Y141749D02*
X164184D01*
X161263Y134549D02*
X163979D01*
X153066Y141299D02*
X163734D01*
X160813Y134099D02*
X163529D01*
X153180Y140849D02*
X163284D01*
X160363Y133649D02*
X163079D01*
X153158Y140399D02*
X162834D01*
X149041Y133199D02*
X162629D01*
X152991Y139949D02*
X162384D01*
X153460Y132749D02*
X162179D01*
X156974Y129599D02*
X162061D01*
X152610Y139499D02*
X161934D01*
X161538Y110699D02*
X161750D01*
X161088Y110249D02*
X161750D01*
X160638Y109799D02*
X161750D01*
X160188Y109349D02*
X161750D01*
X159738Y108899D02*
X161750D01*
X159288Y108449D02*
X161750D01*
X158838Y107999D02*
X161750D01*
X158388Y107549D02*
X161750D01*
X157938Y107099D02*
X161750D01*
X157488Y106649D02*
X161750D01*
X153784Y106199D02*
X161750D01*
X153108Y105749D02*
X161750D01*
X145816Y105299D02*
X161750D01*
X146266Y104849D02*
X161750D01*
X148500Y139049D02*
X161484D01*
X154274Y132299D02*
X161257D01*
X156524Y130049D02*
X161152D01*
X148591Y138599D02*
X161034D01*
X154724Y131849D02*
X160894D01*
X156074Y130499D02*
X160846D01*
X159056Y121049D02*
X160750D01*
X159649Y120599D02*
X160750D01*
X160118Y120149D02*
X160750D01*
X160326Y119699D02*
X160750D01*
X160381Y119249D02*
X160750D01*
X160301Y118799D02*
X160750D01*
X160060Y118349D02*
X160750D01*
X159500Y117899D02*
X160750D01*
X152622Y117449D02*
X160750D01*
X151834Y116999D02*
X160750D01*
X146330Y116549D02*
X160750D01*
X146308Y116099D02*
X160750D01*
X146142Y115649D02*
X160750D01*
X145760Y115199D02*
X160750D01*
X141802Y114749D02*
X160750D01*
X134312Y114299D02*
X160750D01*
X130439Y113849D02*
X160750D01*
X134360Y113399D02*
X160750D01*
X134798Y112949D02*
X160750D01*
X158978Y121499D02*
X160748D01*
X155174Y131399D02*
X160737D01*
X155624Y130949D02*
X160723D01*
X149041Y138149D02*
X160584D01*
X134991Y112499D02*
X160509D01*
X158739Y121949D02*
X160311D01*
X149491Y137699D02*
X160134D01*
X135036Y112049D02*
X160059D01*
X158187Y122399D02*
X159861D01*
X149941Y137249D02*
X159684D01*
X134945Y111599D02*
X159609D01*
X156419Y122849D02*
X159411D01*
X150391Y136799D02*
X159234D01*
X134688Y111149D02*
X159159D01*
X155969Y123299D02*
X158961D01*
X150841Y136349D02*
X158784D01*
X134075Y110699D02*
X158709D01*
X155144Y123749D02*
X158511D01*
X131166Y110249D02*
X158259D01*
X152915Y117899D02*
X158187D01*
X143815Y124199D02*
X158061D01*
X131616Y109799D02*
X157809D01*
X143365Y124649D02*
X157611D01*
X140175Y109349D02*
X157359D01*
X142915Y125099D02*
X157161D01*
X140685Y108899D02*
X156909D01*
X142451Y125549D02*
X156711D01*
X153030Y118349D02*
X156608D01*
X153497Y108449D02*
X156459D01*
X147334Y125999D02*
X156261D01*
X153008Y118799D02*
X156120D01*
X148122Y126449D02*
X155811D01*
X152843Y119249D02*
X155670D01*
X148415Y126899D02*
X155361D01*
X152462Y119699D02*
X155220D01*
X148530Y127349D02*
X154911D01*
X143299Y120149D02*
X154770D01*
X148508Y127799D02*
X154461D01*
X142937Y120599D02*
X154320D01*
X148343Y128249D02*
X154011D01*
X147962Y128699D02*
X153561D01*
X145830Y129149D02*
X153111D01*
X145808Y129599D02*
X152661D01*
X145366Y105749D02*
X152092D01*
X140908Y108449D02*
X151703D01*
X144766Y106199D02*
X151433D01*
X148500Y142199D02*
X151307D01*
X140975Y107999D02*
X151286D01*
X146216Y116999D02*
X151166D01*
X140170Y106649D02*
X151165D01*
X140907Y107549D02*
X151103D01*
X140683Y107099D02*
X151066D01*
X148500Y139499D02*
X150690D01*
X143455Y119699D02*
X150538D01*
X148500Y141749D02*
X150526D01*
X145924Y117449D02*
X150378D01*
X148500Y139949D02*
X150309D01*
X148500Y141299D02*
X150234D01*
X143469Y119249D02*
X150157D01*
X148500Y140399D02*
X150142D01*
X148500Y140849D02*
X150120D01*
X145141Y117899D02*
X150085D01*
X143345Y118799D02*
X149992D01*
X143038Y118349D02*
X149970D01*
X148591Y133649D02*
X149287D01*
X148141Y134099D02*
X148837D01*
X125037Y164249D02*
X148661D01*
X147691Y134549D02*
X148387D01*
X145643Y130049D02*
X147948D01*
X147241Y134999D02*
X147937D01*
X145262Y130499D02*
X147498D01*
X146791Y135449D02*
X147487D01*
X139937Y130949D02*
X147048D01*
X146341Y135899D02*
X147037D01*
X145250Y148499D02*
X146809D01*
X134266Y125999D02*
X146666D01*
X119836Y131399D02*
X146598D01*
X145891Y136349D02*
X146587D01*
X145250Y148049D02*
X146277D01*
X136805Y157949D02*
X146267D01*
X145863Y160649D02*
X146262D01*
X119739Y131849D02*
X146148D01*
X145441Y136799D02*
X146137D01*
X145250Y146249D02*
X146102D01*
X145250Y147599D02*
X146046D01*
X145715Y128699D02*
X146038D01*
X145250Y146699D02*
X146034D01*
X145250Y147149D02*
X145973D01*
X143921Y151649D02*
X145880D01*
X133816Y126449D02*
X145878D01*
X137205Y158399D02*
X145754D01*
X145413Y160199D02*
X145752D01*
X145250Y137249D02*
X145701D01*
X119473Y132299D02*
X145698D01*
X145250Y145799D02*
X145686D01*
X145422Y128249D02*
X145657D01*
X136773Y126899D02*
X145585D01*
X137381Y158849D02*
X145530D01*
X144742Y159749D02*
X145529D01*
X145250Y137699D02*
X145511D01*
X145250Y145349D02*
X145502D01*
X145250Y144449D02*
X145500D01*
X145250Y143999D02*
X145500D01*
X145250Y143549D02*
X145500D01*
X145250Y143099D02*
X145500D01*
X145250Y142649D02*
X145500D01*
X145250Y142199D02*
X145500D01*
X145250Y141749D02*
X145500D01*
X145250Y141299D02*
X145500D01*
X145250Y140849D02*
X145500D01*
X145250Y140399D02*
X145500D01*
X145250Y139949D02*
X145500D01*
X145250Y139499D02*
X145500D01*
X145250Y139049D02*
X145500D01*
X145250Y138599D02*
X145500D01*
X145250Y138149D02*
X145500D01*
X144634Y127799D02*
X145492D01*
X137093Y127349D02*
X145470D01*
X145250Y144899D02*
X145466D01*
X137411Y159299D02*
X145462D01*
X141911Y154349D02*
X145377D01*
X118825Y132749D02*
X145248D01*
X143471Y152099D02*
X145164D01*
X141826Y153899D02*
X144979D01*
X143021Y152549D02*
X144883D01*
X142130Y153449D02*
X144805D01*
X112250Y133199D02*
X144798D01*
X142571Y152999D02*
X144776D01*
X125487Y163799D02*
X144698D01*
X142114Y117899D02*
X144459D01*
X112250Y133649D02*
X144348D01*
X125937Y163349D02*
X144234D01*
X142234Y127799D02*
X143966D01*
X112250Y134099D02*
X143898D01*
X142592Y115199D02*
X143840D01*
X126387Y162899D02*
X143784D01*
X142433Y117449D02*
X143676D01*
X142885Y115649D02*
X143458D01*
X112250Y134549D02*
X143448D01*
X142813Y116999D02*
X143384D01*
X142862Y130499D02*
X143338D01*
X143000Y116099D02*
X143292D01*
X142978Y116549D02*
X143270D01*
X143022Y128249D02*
X143178D01*
X112250Y134999D02*
X142998D01*
X114719Y135449D02*
X142548D01*
X112250Y121049D02*
X142537D01*
X117907Y135899D02*
X142285D01*
X141666Y148949D02*
X142250D01*
X141867Y148499D02*
X142250D01*
X141916Y148049D02*
X142250D01*
X141831Y147599D02*
X142250D01*
X141583Y147149D02*
X142250D01*
X140999Y146699D02*
X142250D01*
X116013Y146249D02*
X142250D01*
X115563Y145799D02*
X142250D01*
X115113Y145349D02*
X142250D01*
X115000Y144899D02*
X142250D01*
X115000Y144449D02*
X142250D01*
X115000Y143999D02*
X142250D01*
X115000Y143549D02*
X142250D01*
X115000Y143099D02*
X142250D01*
X115000Y142649D02*
X142250D01*
X115000Y142199D02*
X142250D01*
X115000Y141749D02*
X142250D01*
X115000Y141299D02*
X142250D01*
X115000Y140849D02*
X142250D01*
X139821Y140399D02*
X142250D01*
X140471Y139949D02*
X142250D01*
X140737Y139499D02*
X142250D01*
X140834Y139049D02*
X142250D01*
X140796Y138599D02*
X142250D01*
X140611Y138149D02*
X142250D01*
X140191Y137699D02*
X142250D01*
X118657Y137249D02*
X142250D01*
X118599Y136799D02*
X142250D01*
X118387Y136349D02*
X142250D01*
X112250Y121499D02*
X142087D01*
X141212Y149399D02*
X141887D01*
X138431Y117899D02*
X141770D01*
X112250Y121949D02*
X141637D01*
X137224Y127799D02*
X141566D01*
X118250Y149849D02*
X141422D01*
X112250Y122399D02*
X141187D01*
X138883Y114749D02*
X141138D01*
X138930Y120599D02*
X140947D01*
X140447Y130499D02*
X140938D01*
X139145Y118349D02*
X140845D01*
X139934Y128249D02*
X140778D01*
X139328Y120149D02*
X140585D01*
X139426Y118799D02*
X140538D01*
X139073Y117449D02*
X140507D01*
X139503Y119699D02*
X140429D01*
X139532Y119249D02*
X140415D01*
X139458Y115199D02*
X140348D01*
X139532Y116999D02*
X140127D01*
X139704Y115649D02*
X140055D01*
X139735Y116549D02*
X139962D01*
X139787Y116099D02*
X139940D01*
X116463Y146699D02*
X139761D01*
X118250Y149399D02*
X139548D01*
X115105Y155699D02*
X139543D01*
X118250Y150299D02*
X139437D01*
X116913Y147149D02*
X139177D01*
X118250Y148949D02*
X139094D01*
X115335Y155249D02*
X139089D01*
X118250Y150749D02*
X138987D01*
X117363Y147599D02*
X138929D01*
X118166Y148499D02*
X138894D01*
X119691Y154799D02*
X138889D01*
X117813Y148049D02*
X138844D01*
X120071Y154349D02*
X138839D01*
X115000Y140399D02*
X138779D01*
X138016Y106649D02*
X138704D01*
X132066Y109349D02*
X138699D01*
X118250Y151199D02*
X138579D01*
X120236Y153899D02*
X138534D01*
X137834Y128249D02*
X138466D01*
X137837Y130949D02*
X138463D01*
X118250Y151649D02*
X138437D01*
X120258Y153449D02*
X138435D01*
X120143Y152999D02*
X138435D01*
X119850Y152549D02*
X138435D01*
X119060Y152099D02*
X138435D01*
X118581Y137699D02*
X138409D01*
X137566Y107099D02*
X138191D01*
X132516Y108899D02*
X138189D01*
X115000Y139949D02*
X138129D01*
X118345Y138149D02*
X137989D01*
X137102Y107549D02*
X137967D01*
X132966Y108449D02*
X137966D01*
X133416Y107999D02*
X137899D01*
X114954Y139499D02*
X137863D01*
X117800Y138599D02*
X137804D01*
X114663Y139049D02*
X137766D01*
X136834Y114749D02*
X137617D01*
X117208Y117899D02*
X137569D01*
X136837Y117449D02*
X137427D01*
X112250Y120599D02*
X137070D01*
X117043Y118349D02*
X136855D01*
X112250Y120149D02*
X136672D01*
X116662Y118799D02*
X136574D01*
X112250Y119699D02*
X136497D01*
X112250Y119249D02*
X136468D01*
X135396Y130949D02*
X136363D01*
X134855Y114749D02*
X135366D01*
X117230Y117449D02*
X135363D01*
X133765Y157949D02*
X134951D01*
X134413Y116999D02*
X134853D01*
X133366Y126899D02*
X134627D01*
X134216Y158399D02*
X134551D01*
X133193Y127349D02*
X134307D01*
X133324Y127799D02*
X134176D01*
X133317Y128249D02*
X133991D01*
X121151Y130949D02*
X133604D01*
X133169Y128699D02*
X133333D01*
X126837Y162449D02*
X133260D01*
X112250Y122849D02*
X133216D01*
X128661Y130499D02*
X133187D01*
X132821Y129149D02*
X133065D01*
X129196Y130049D02*
X133003D01*
X129429Y129599D02*
X132966D01*
X131348Y114299D02*
X132945D01*
X130566Y110699D02*
X132925D01*
X117115Y116999D02*
X132844D01*
X127738Y161999D02*
X132809D01*
X112250Y123299D02*
X132687D01*
X116444Y113399D02*
X132640D01*
X131654Y114749D02*
X132402D01*
X131243Y116549D02*
X132363D01*
X118694Y111149D02*
X132312D01*
X124131Y165149D02*
X132242D01*
X112250Y123749D02*
X132237D01*
X116894Y112949D02*
X132202D01*
X131777Y115199D02*
X132167D01*
X131606Y116099D02*
X132150D01*
X131763Y115649D02*
X132091D01*
X118244Y111599D02*
X132055D01*
X117344Y112499D02*
X132009D01*
X117794Y112049D02*
X131964D01*
X112250Y124199D02*
X131787D01*
X128248Y161549D02*
X131668D01*
X106257Y165599D02*
X131583D01*
X112250Y124649D02*
X131337D01*
X106707Y166049D02*
X131315D01*
X130915Y161099D02*
X131185D01*
X107172Y166499D02*
X131170D01*
X112250Y125099D02*
X130887D01*
X130596Y129149D02*
X130779D01*
X114660Y157949D02*
X130688D01*
X112250Y125549D02*
X130437D01*
X115994Y113849D02*
X130061D01*
X119140Y125999D02*
X129987D01*
X128471Y161099D02*
X129885D01*
X114452Y158399D02*
X129507D01*
X116822Y116549D02*
X129257D01*
X128538Y160649D02*
X129231D01*
X119566Y126449D02*
X129191D01*
X115544Y114299D02*
X129152D01*
X115066Y158849D02*
X129088D01*
X128470Y160199D02*
X128964D01*
X127733Y159299D02*
X128903D01*
X116034Y116099D02*
X128894D01*
X128246Y159749D02*
X128866D01*
X115094Y114749D02*
X128846D01*
X114194Y115649D02*
X128737D01*
X114644Y115199D02*
X128723D01*
X119755Y126899D02*
X128533D01*
X125064Y127349D02*
X128265D01*
X122030Y130499D02*
X127270D01*
X125821Y127799D02*
X127192D01*
X125640Y130049D02*
X126734D01*
X126109Y128249D02*
X126704D01*
X126027Y129599D02*
X126502D01*
X126221Y128699D02*
X126489D01*
X126196Y129149D02*
X126428D01*
X125919Y159299D02*
X126267D01*
X119008Y168749D02*
X125862D01*
X119273Y171449D02*
X125597D01*
X119612Y169199D02*
X125258D01*
X119715Y170999D02*
X125155D01*
X119867Y169649D02*
X125003D01*
X119910Y170549D02*
X124960D01*
X119956Y170099D02*
X124914D01*
X119795Y127349D02*
X124316D01*
X123769Y159299D02*
X123881D01*
X122334Y130049D02*
X123740D01*
X119700Y127799D02*
X123559D01*
X122455Y129599D02*
X123353D01*
X121914Y128249D02*
X123271D01*
X122439Y129149D02*
X123184D01*
X122281Y128699D02*
X123159D01*
X121012Y159299D02*
X121731D01*
X119798Y130949D02*
X120703D01*
X115323Y159299D02*
X120348D01*
X119437Y128249D02*
X119940D01*
X119612Y130499D02*
X119824D01*
X118801Y128699D02*
X119573D01*
X115414Y159749D02*
X119558D01*
X119191Y130049D02*
X119521D01*
X112250Y129149D02*
X119415D01*
X112250Y129599D02*
X119399D01*
X115369Y160199D02*
X119265D01*
X110690Y168749D02*
X117832D01*
X112250Y132749D02*
X117779D01*
X115491Y154799D02*
X117765D01*
X112250Y128699D02*
X117719D01*
X111105Y171449D02*
X117567D01*
X112250Y130049D02*
X117412D01*
X115505Y154349D02*
X117385D01*
X112250Y125999D02*
X117380D01*
X111362Y169199D02*
X117228D01*
X115382Y153899D02*
X117220D01*
X115138Y153449D02*
X117162D01*
X112250Y132299D02*
X117131D01*
X111517Y170999D02*
X117125D01*
X112250Y128249D02*
X117083D01*
X112250Y130499D02*
X116991D01*
X111633Y169649D02*
X116973D01*
X112250Y126449D02*
X116954D01*
X111699Y170549D02*
X116930D01*
X111734Y170099D02*
X116884D01*
X112250Y131849D02*
X116865D01*
X112250Y127799D02*
X116820D01*
X112250Y130949D02*
X116806D01*
X112250Y131399D02*
X116767D01*
X112250Y126899D02*
X116765D01*
X112250Y127349D02*
X116725D01*
X115583Y152999D02*
X116712D01*
X114213Y138599D02*
X116440D01*
X115785Y152549D02*
X116346D01*
X115180Y135899D02*
X116333D01*
X115837Y152099D02*
X116250D01*
X115753Y151649D02*
X116250D01*
X115506Y151199D02*
X116250D01*
X114928Y150749D02*
X116250D01*
X112250Y150299D02*
X116250D01*
X112250Y149849D02*
X116250D01*
X112250Y149399D02*
X116250D01*
X114538Y138149D02*
X115895D01*
X112250Y148949D02*
X115884D01*
X115384Y136349D02*
X115853D01*
X115110Y137699D02*
X115659D01*
X115437Y136799D02*
X115641D01*
X115354Y137249D02*
X115583D01*
X112250Y148499D02*
X115434D01*
X113744Y116099D02*
X115366D01*
X112250Y148049D02*
X114984D01*
X112250Y118799D02*
X114738D01*
X113294Y116549D02*
X114578D01*
X112250Y147599D02*
X114534D01*
X112250Y118349D02*
X114357D01*
X112844Y116999D02*
X114285D01*
X112250Y117899D02*
X114192D01*
X112394Y117449D02*
X114170D01*
X112250Y147149D02*
X114084D01*
X112250Y150749D02*
X113672D01*
X112250Y146699D02*
X113634D01*
X112250Y146249D02*
X113199D01*
X112402Y151199D02*
X113094D01*
X112513Y135449D02*
X113081D01*
X112250Y145799D02*
X113011D01*
X112250Y145349D02*
X113000D01*
X112250Y144899D02*
X113000D01*
X112250Y144449D02*
X113000D01*
X112250Y143999D02*
X113000D01*
X112250Y143549D02*
X113000D01*
X112250Y143099D02*
X113000D01*
X112250Y142649D02*
X113000D01*
X112247Y142199D02*
X113000D01*
X112097Y141749D02*
X113000D01*
X111683Y141299D02*
X113000D01*
X111233Y140849D02*
X113000D01*
X110783Y140399D02*
X113000D01*
X110333Y139949D02*
X112734D01*
X110250Y139499D02*
X112284D01*
X110250Y139049D02*
X111834D01*
X110250Y138599D02*
X111384D01*
X110250Y138149D02*
X110934D01*
X110250Y137699D02*
X110484D01*
X108690Y168749D02*
X109710D01*
X109105Y171449D02*
X109295D01*
X105828Y165149D02*
X108101D01*
X104600Y168749D02*
X107710D01*
X101250Y171449D02*
X107295D01*
X104600Y161999D02*
X107080D01*
X104594Y169199D02*
X107038D01*
X105828Y164699D02*
X106944D01*
X101250Y170999D02*
X106883D01*
X101250Y169649D02*
X106767D01*
X104600Y161549D02*
X106709D01*
X101250Y170549D02*
X106701D01*
X101250Y170099D02*
X106666D01*
X104626Y162449D02*
X106534D01*
X105828Y164249D02*
X106475D01*
X105063Y162899D02*
X106293D01*
X105788Y163799D02*
X106268D01*
X104600Y161099D02*
X106259D01*
X105513Y163349D02*
X106213D01*
X104600Y168299D02*
X106142D01*
X104600Y160649D02*
X105809D01*
X104600Y167849D02*
X105678D01*
X104600Y160199D02*
X105359D01*
X104600Y167399D02*
X105228D01*
X104600Y159749D02*
X104909D01*
X104600Y166949D02*
X104778D01*
X104600Y104849D02*
X113487D01*
X104600Y105299D02*
X113037D01*
X104600Y105749D02*
X112587D01*
X104600Y106199D02*
X112137D01*
X104600Y106649D02*
X111687D01*
X104600Y107099D02*
X111237D01*
X104600Y107549D02*
X110787D01*
X104600Y107999D02*
X110337D01*
X104600Y108449D02*
X109887D01*
X104600Y108899D02*
X109437D01*
X104600Y109349D02*
X108987D01*
X104600Y109799D02*
X108537D01*
X104600Y110249D02*
X108087D01*
X104600Y110699D02*
X107637D01*
X104600Y111149D02*
X107187D01*
X104600Y111599D02*
X106737D01*
X104600Y112049D02*
X106287D01*
X104600Y112499D02*
X105837D01*
X104600Y112949D02*
X105387D01*
X104600Y113399D02*
X104937D01*
X104600Y104399D02*
X104916D01*
X104600Y103949D02*
X104910D01*
X104600Y103499D02*
X104910D01*
X104584Y103049D02*
X104910D01*
X101250Y102599D02*
X104910D01*
X101250Y102149D02*
X104910D01*
X101250Y101699D02*
X104910D01*
G54D131*
X133629Y115676D03*
X136100Y116100D03*
X133500Y112125D03*
X130250Y115375D03*
X115700Y117600D03*
X121600Y113300D03*
X113650Y117050D03*
X118300Y116600D03*
X110000Y107500D03*
Y105200D03*
X102125Y102155D03*
X105400Y105200D03*
X105197Y111200D03*
X161177Y109505D03*
X138250Y116150D03*
X144800Y116400D03*
X141470Y116250D03*
X152600Y107200D03*
X139437Y108000D03*
X151500Y118500D03*
X149700Y114900D03*
X148450Y119000D03*
X147250Y107250D03*
X150300Y110100D03*
X154700Y105200D03*
X154200Y113500D03*
X155125Y119000D03*
X165700Y111500D03*
X160000Y112750D03*
X165700Y116100D03*
X167875Y101905D03*
X150600Y105200D03*
X165700Y105400D03*
X161000Y105200D03*
X120927Y129428D03*
X124690Y128840D03*
X134500Y129700D03*
X135700Y128000D03*
X118302Y131303D03*
X127965Y129128D03*
X117120Y137220D03*
X118260Y127260D03*
X118728Y153600D03*
X129700Y127900D03*
X131800Y128000D03*
X113900Y136750D03*
X113878Y156625D03*
X111620Y156610D03*
X113978Y154525D03*
X115700Y135700D03*
X110800Y139550D03*
X119650Y140750D03*
X135978Y146875D03*
X136000Y140800D03*
X130078Y146875D03*
X133028Y149825D03*
Y143925D03*
X113650Y121200D03*
X126865Y140791D03*
X119700Y144000D03*
X127128Y155725D03*
X124178Y152775D03*
X112800Y147800D03*
X127128Y149825D03*
X119700Y147850D03*
X130078Y152775D03*
X127128Y143925D03*
X113300Y134700D03*
X124178Y146875D03*
X110800Y154650D03*
X133028Y155725D03*
X135978Y152775D03*
X131500Y140800D03*
X114300Y152152D03*
X141900Y129300D03*
X139200Y129600D03*
X141942Y119427D03*
X137100Y129600D03*
X147000Y127500D03*
X144300Y129300D03*
X138000Y119375D03*
X140380Y148106D03*
X140375Y154406D03*
X141000Y152406D03*
X147510Y147130D03*
X162250Y131125D03*
X158844Y119289D03*
X151650Y140700D03*
X147000Y145000D03*
X157519Y121014D03*
X140450Y156625D03*
X160150Y121150D03*
X153700Y141450D03*
X153200Y124400D03*
X163950Y136300D03*
X154750Y137250D03*
X165700Y158000D03*
X151850Y142900D03*
X165700Y120700D03*
X159703Y150893D03*
X155503Y142293D03*
X139642Y145867D03*
X156875Y131200D03*
X148500Y124350D03*
X149050Y138900D03*
X158406Y137316D03*
X150940Y137386D03*
X165700Y125800D03*
X150450Y128250D03*
X160800Y127700D03*
X165700Y138100D03*
X162203Y150893D03*
X160403Y158693D03*
X165600Y152900D03*
X162103Y157093D03*
X165100Y155950D03*
X151186Y149201D03*
X150150Y151000D03*
X151400Y147100D03*
Y144950D03*
X153853Y143893D03*
X163700Y142900D03*
X156403Y143993D03*
X152400Y158100D03*
X153150Y128300D03*
X160000Y131125D03*
X157230Y124231D03*
X162200Y141500D03*
X146308Y153125D03*
X139300Y138952D03*
X130400Y159650D03*
X122750Y160450D03*
X135878Y159175D03*
X132450Y160225D03*
X113878Y159825D03*
X127000Y160650D03*
X107750Y163390D03*
X132750Y166600D03*
X124900Y160450D03*
X120680Y160800D03*
X135000Y173050D03*
X119200Y173000D03*
X114500Y175350D03*
X124000Y175450D03*
X106600Y173300D03*
X103450Y175250D03*
X127250Y175500D03*
X136070Y170290D03*
X105750Y162750D03*
X115150Y165950D03*
X132050Y173000D03*
X116000D03*
X136550Y175500D03*
X130250Y165875D03*
X106680Y165206D03*
X111050Y165950D03*
X133500Y175500D03*
X105150Y160750D03*
X129000Y173000D03*
X130500Y175500D03*
X122550Y173000D03*
X125800D03*
X120600Y175450D03*
X117500Y175400D03*
X112500Y173050D03*
X110950Y175250D03*
X109250Y173000D03*
X107000Y175250D03*
X104850Y171950D03*
X102000Y173750D03*
X110200Y170206D03*
X108200D03*
X118420Y170170D03*
X126450D03*
X111678Y159825D03*
X166500Y175550D03*
X139500Y175500D03*
X145100Y172900D03*
X157800Y170000D03*
X142450Y175350D03*
X142100Y171400D03*
X145766Y165099D03*
X147300Y174000D03*
X159450Y160800D03*
X159625Y175125D03*
X161451Y172831D03*
X157331Y172786D03*
X152250Y160800D03*
X164500Y160100D03*
X165207Y165681D03*
X164650Y167750D03*
X165000Y170905D03*
X163000Y175150D03*
X166300Y173105D03*
X168696Y174306D03*
X138000Y173000D03*
X145250Y175500D03*
X149300Y175600D03*
X154700Y175800D03*
Y173500D03*
X162500Y160800D03*
X156500D03*
X154150Y159650D03*
X148200Y165100D03*
X142878Y163325D03*
X149300Y167250D03*
X151250Y165300D03*
X146700Y167400D03*
X154400Y171100D03*
X156750Y165350D03*
X162250Y169750D03*
X159750Y168250D03*
X161375Y165531D03*
X156200Y167450D03*
X154900Y169250D03*
X138600Y167900D03*
X141000Y173000D03*
X140400Y169700D03*
X149300Y173000D03*
X147000Y159300D03*
G54D212*
X100000Y170906D03*
Y165906D03*
Y160906D03*
Y155906D03*
Y150906D03*
Y145906D03*
Y140906D03*
Y135906D03*
Y130906D03*
Y125906D03*
Y120906D03*
Y115906D03*
Y110906D03*
Y105906D03*
X170866D03*
Y110906D03*
Y115906D03*
Y120906D03*
Y125906D03*
Y130906D03*
Y135906D03*
Y140906D03*
Y145906D03*
Y150906D03*
Y155906D03*
Y160906D03*
Y165906D03*
Y170906D03*
G54D213*
X107933Y100000D03*
X112933D03*
X117933D03*
X122933D03*
X127933D03*
X132933D03*
X137933D03*
X142933D03*
X147933D03*
X152933D03*
X157933D03*
X162933D03*
G54D265*
X130078Y149825D03*
G74*
X0Y0D02*
M02*
