*
*
G04 PADS VX.2 Build Number: 5060570 generated Gerber (RS-274-X) file*
G04 PC Version=2.1*
*
%IN "PCB_ESP32-S3-WROOM-2_V1"*%
*
%MOIN*%
*
%FSLAX35Y35*%
*
*
*
*
G04 PC Standard Apertures*
*
*
G04 Thermal Relief Aperture macro.*
%AMTER*
1,1,$1,0,0*
1,0,$1-$2,0,0*
21,0,$3,$4,0,0,45*
21,0,$3,$4,0,0,135*
%
*
*
G04 Annular Aperture macro.*
%AMANN*
1,1,$1,0,0*
1,0,$2,0,0*
%
*
*
G04 Odd Aperture macro.*
%AMODD*
1,1,$1,0,0*
1,0,$1-0.005,0,0*
%
*
*
G04 PC Custom Aperture Macros*
*
*
*
*
*
*
G04 PC Aperture Table*
*
%ADD010C,0.001*%
%ADD030C,0.01*%
*
*
*
*
G04 PC Circuitry*
G04 Layer Name PCB_ESP32-S3-WROOM-2_V1 - circuitry*
%LPD*%
*
*
G04 PC Custom Flashes*
G04 Layer Name PCB_ESP32-S3-WROOM-2_V1 - flashes*
%LPD*%
*
*
G04 PC Circuitry*
G04 Layer Name PCB_ESP32-S3-WROOM-2_V1 - circuitry*
%LPD*%
*
G54D10*
G54D30*
G01X96000Y166906D02*
X104000Y174906D01*
X96000D02*
X104000Y166906D01*
X96000Y161906D02*
X104000Y169906D01*
X96000D02*
X104000Y161906D01*
X96000Y156906D02*
X104000Y164906D01*
X96000D02*
X104000Y156906D01*
X96000Y151906D02*
X104000Y159906D01*
X96000D02*
X104000Y151906D01*
X96000Y146906D02*
X104000Y154906D01*
X96000D02*
X104000Y146906D01*
X96000Y141906D02*
X104000Y149906D01*
X96000D02*
X104000Y141906D01*
X96000Y136906D02*
X104000Y144906D01*
X96000D02*
X104000Y136906D01*
X96000Y131906D02*
X104000Y139906D01*
X96000D02*
X104000Y131906D01*
X96000Y126906D02*
X104000Y134906D01*
X96000D02*
X104000Y126906D01*
X96000Y121906D02*
X104000Y129906D01*
X96000D02*
X104000Y121906D01*
X96000Y116906D02*
X104000Y124906D01*
X96000D02*
X104000Y116906D01*
X96000Y111906D02*
X104000Y119906D01*
X96000D02*
X104000Y111906D01*
X96000Y106906D02*
X104000Y114906D01*
X96000D02*
X104000Y106906D01*
X96000Y101906D02*
X104000Y109906D01*
X96000D02*
X104000Y101906D01*
X103933Y96000D02*
X111933Y104000D01*
X103933D02*
X111933Y96000D01*
X108933D02*
X116933Y104000D01*
X108933D02*
X116933Y96000D01*
X113933D02*
X121933Y104000D01*
X113933D02*
X121933Y96000D01*
X118933D02*
X126933Y104000D01*
X118933D02*
X126933Y96000D01*
X123933D02*
X131933Y104000D01*
X123933D02*
X131933Y96000D01*
X128933D02*
X136933Y104000D01*
X128933D02*
X136933Y96000D01*
X133933D02*
X141933Y104000D01*
X133933D02*
X141933Y96000D01*
X138933D02*
X146933Y104000D01*
X138933D02*
X146933Y96000D01*
X143933D02*
X151933Y104000D01*
X143933D02*
X151933Y96000D01*
X148933D02*
X156933Y104000D01*
X148933D02*
X156933Y96000D01*
X153933D02*
X161933Y104000D01*
X153933D02*
X161933Y96000D01*
X158933D02*
X166933Y104000D01*
X158933D02*
X166933Y96000D01*
X166866Y101906D02*
X174866Y109906D01*
X166866D02*
X174866Y101906D01*
X166866Y106906D02*
X174866Y114906D01*
X166866D02*
X174866Y106906D01*
X166866Y111906D02*
X174866Y119906D01*
X166866D02*
X174866Y111906D01*
X166866Y116906D02*
X174866Y124906D01*
X166866D02*
X174866Y116906D01*
X166866Y121906D02*
X174866Y129906D01*
X166866D02*
X174866Y121906D01*
X166866Y126906D02*
X174866Y134906D01*
X166866D02*
X174866Y126906D01*
X166866Y131906D02*
X174866Y139906D01*
X166866D02*
X174866Y131906D01*
X166866Y136906D02*
X174866Y144906D01*
X166866D02*
X174866Y136906D01*
X166866Y141906D02*
X174866Y149906D01*
X166866D02*
X174866Y141906D01*
X166866Y146906D02*
X174866Y154906D01*
X166866D02*
X174866Y146906D01*
X166866Y151906D02*
X174866Y159906D01*
X166866D02*
X174866Y151906D01*
X166866Y156906D02*
X174866Y164906D01*
X166866D02*
X174866Y156906D01*
X166866Y161906D02*
X174866Y169906D01*
X166866D02*
X174866Y161906D01*
X166866Y166906D02*
X174866Y174906D01*
X166866D02*
X174866Y166906D01*
X129629Y115676D02*
X137629D01*
X133629Y111676D02*
Y119676D01*
X132100Y116100D02*
X140100D01*
X136100Y112100D02*
Y120100D01*
X129500Y112125D02*
X137500D01*
X133500Y108125D02*
Y116125D01*
X126250Y115375D02*
X134250D01*
X130250Y111375D02*
Y119375D01*
X111700Y117600D02*
X119700D01*
X115700Y113600D02*
Y121600D01*
X117600Y113300D02*
X125600D01*
X121600Y109300D02*
Y117300D01*
X109650Y117050D02*
X117650D01*
X113650Y113050D02*
Y121050D01*
X114300Y116600D02*
X122300D01*
X118300Y112600D02*
Y120600D01*
X106000Y107500D02*
X114000D01*
X110000Y103500D02*
Y111500D01*
X106000Y105200D02*
X114000D01*
X110000Y101200D02*
Y109200D01*
X98125Y102155D02*
X106125D01*
X102125Y98155D02*
Y106155D01*
X101400Y105200D02*
X109400D01*
X105400Y101200D02*
Y109200D01*
X101197Y111200D02*
X109197D01*
X105197Y107200D02*
Y115200D01*
X157177Y109505D02*
X165177D01*
X161177Y105505D02*
Y113505D01*
X134250Y116150D02*
X142250D01*
X138250Y112150D02*
Y120150D01*
X140800Y116400D02*
X148800D01*
X144800Y112400D02*
Y120400D01*
X137470Y116250D02*
X145470D01*
X141470Y112250D02*
Y120250D01*
X148600Y107200D02*
X156600D01*
X152600Y103200D02*
Y111200D01*
X135437Y108000D02*
X143437D01*
X139437Y104000D02*
Y112000D01*
X147500Y118500D02*
X155500D01*
X151500Y114500D02*
Y122500D01*
X145700Y114900D02*
X153700D01*
X149700Y110900D02*
Y118900D01*
X144450Y119000D02*
X152450D01*
X148450Y115000D02*
Y123000D01*
X143250Y107250D02*
X151250D01*
X147250Y103250D02*
Y111250D01*
X146300Y110100D02*
X154300D01*
X150300Y106100D02*
Y114100D01*
X150700Y105200D02*
X158700D01*
X154700Y101200D02*
Y109200D01*
X150200Y113500D02*
X158200D01*
X154200Y109500D02*
Y117500D01*
X151125Y119000D02*
X159125D01*
X155125Y115000D02*
Y123000D01*
X161700Y111500D02*
X169700D01*
X165700Y107500D02*
Y115500D01*
X156000Y112750D02*
X164000D01*
X160000Y108750D02*
Y116750D01*
X161700Y116100D02*
X169700D01*
X165700Y112100D02*
Y120100D01*
X163875Y101905D02*
X171875D01*
X167875Y97905D02*
Y105905D01*
X146600Y105200D02*
X154600D01*
X150600Y101200D02*
Y109200D01*
X161700Y105400D02*
X169700D01*
X165700Y101400D02*
Y109400D01*
X157000Y105200D02*
X165000D01*
X161000Y101200D02*
Y109200D01*
X116927Y129428D02*
X124927D01*
X120927Y125428D02*
Y133428D01*
X120690Y128840D02*
X128690D01*
X124690Y124840D02*
Y132840D01*
X130500Y129700D02*
X138500D01*
X134500Y125700D02*
Y133700D01*
X131700Y128000D02*
X139700D01*
X135700Y124000D02*
Y132000D01*
X114302Y131303D02*
X122302D01*
X118302Y127303D02*
Y135303D01*
X123965Y129128D02*
X131965D01*
X127965Y125128D02*
Y133128D01*
X113120Y137220D02*
X121120D01*
X117120Y133220D02*
Y141220D01*
X114260Y127260D02*
X122260D01*
X118260Y123260D02*
Y131260D01*
X114728Y153600D02*
X122728D01*
X118728Y149600D02*
Y157600D01*
X125700Y127900D02*
X133700D01*
X129700Y123900D02*
Y131900D01*
X127800Y128000D02*
X135800D01*
X131800Y124000D02*
Y132000D01*
X109900Y136750D02*
X117900D01*
X113900Y132750D02*
Y140750D01*
X109878Y156625D02*
X117878D01*
X113878Y152625D02*
Y160625D01*
X107620Y156610D02*
X115620D01*
X111620Y152610D02*
Y160610D01*
X109978Y154525D02*
X117978D01*
X113978Y150525D02*
Y158525D01*
X111700Y135700D02*
X119700D01*
X115700Y131700D02*
Y139700D01*
X106800Y139550D02*
X114800D01*
X110800Y135550D02*
Y143550D01*
X115650Y140750D02*
X123650D01*
X119650Y136750D02*
Y144750D01*
X131978Y146875D02*
X139978D01*
X135978Y142875D02*
Y150875D01*
X132000Y140800D02*
X140000D01*
X136000Y136800D02*
Y144800D01*
X126078Y146875D02*
X134078D01*
X130078Y142875D02*
Y150875D01*
X129028Y149825D02*
X137028D01*
X133028Y145825D02*
Y153825D01*
X129028Y143925D02*
X137028D01*
X133028Y139925D02*
Y147925D01*
X109650Y121200D02*
X117650D01*
X113650Y117200D02*
Y125200D01*
X122865Y140791D02*
X130865D01*
X126865Y136791D02*
Y144791D01*
X115700Y144000D02*
X123700D01*
X119700Y140000D02*
Y148000D01*
X123128Y155725D02*
X131128D01*
X127128Y151725D02*
Y159725D01*
X120178Y152775D02*
X128178D01*
X124178Y148775D02*
Y156775D01*
X108800Y147800D02*
X116800D01*
X112800Y143800D02*
Y151800D01*
X123128Y149825D02*
X131128D01*
X127128Y145825D02*
Y153825D01*
X115700Y147850D02*
X123700D01*
X119700Y143850D02*
Y151850D01*
X126078Y152775D02*
X134078D01*
X130078Y148775D02*
Y156775D01*
X123128Y143925D02*
X131128D01*
X127128Y139925D02*
Y147925D01*
X109300Y134700D02*
X117300D01*
X113300Y130700D02*
Y138700D01*
X120178Y146875D02*
X128178D01*
X124178Y142875D02*
Y150875D01*
X106800Y154650D02*
X114800D01*
X110800Y150650D02*
Y158650D01*
X129028Y155725D02*
X137028D01*
X133028Y151725D02*
Y159725D01*
X131978Y152775D02*
X139978D01*
X135978Y148775D02*
Y156775D01*
X127500Y140800D02*
X135500D01*
X131500Y136800D02*
Y144800D01*
X110300Y152152D02*
X118300D01*
X114300Y148152D02*
Y156152D01*
X137900Y129300D02*
X145900D01*
X141900Y125300D02*
Y133300D01*
X135200Y129600D02*
X143200D01*
X139200Y125600D02*
Y133600D01*
X137942Y119427D02*
X145942D01*
X141942Y115427D02*
Y123427D01*
X133100Y129600D02*
X141100D01*
X137100Y125600D02*
Y133600D01*
X143000Y127500D02*
X151000D01*
X147000Y123500D02*
Y131500D01*
X140300Y129300D02*
X148300D01*
X144300Y125300D02*
Y133300D01*
X134000Y119375D02*
X142000D01*
X138000Y115375D02*
Y123375D01*
X136380Y148106D02*
X144380D01*
X140380Y144106D02*
Y152106D01*
X136375Y154406D02*
X144375D01*
X140375Y150406D02*
Y158406D01*
X137000Y152406D02*
X145000D01*
X141000Y148406D02*
Y156406D01*
X143510Y147130D02*
X151510D01*
X147510Y143130D02*
Y151130D01*
X158250Y131125D02*
X166250D01*
X162250Y127125D02*
Y135125D01*
X154844Y119289D02*
X162844D01*
X158844Y115289D02*
Y123289D01*
X147650Y140700D02*
X155650D01*
X151650Y136700D02*
Y144700D01*
X143000Y145000D02*
X151000D01*
X147000Y141000D02*
Y149000D01*
X153519Y121014D02*
X161519D01*
X157519Y117014D02*
Y125014D01*
X136450Y156625D02*
X144450D01*
X140450Y152625D02*
Y160625D01*
X156150Y121150D02*
X164150D01*
X160150Y117150D02*
Y125150D01*
X149700Y141450D02*
X157700D01*
X153700Y137450D02*
Y145450D01*
X149200Y124400D02*
X157200D01*
X153200Y120400D02*
Y128400D01*
X159950Y136300D02*
X167950D01*
X163950Y132300D02*
Y140300D01*
X150750Y137250D02*
X158750D01*
X154750Y133250D02*
Y141250D01*
X161700Y158000D02*
X169700D01*
X165700Y154000D02*
Y162000D01*
X147850Y142900D02*
X155850D01*
X151850Y138900D02*
Y146900D01*
X161700Y120700D02*
X169700D01*
X165700Y116700D02*
Y124700D01*
X155703Y150893D02*
X163703D01*
X159703Y146893D02*
Y154893D01*
X151503Y142293D02*
X159503D01*
X155503Y138293D02*
Y146293D01*
X135642Y145867D02*
X143642D01*
X139642Y141867D02*
Y149867D01*
X152875Y131200D02*
X160875D01*
X156875Y127200D02*
Y135200D01*
X144500Y124350D02*
X152500D01*
X148500Y120350D02*
Y128350D01*
X145050Y138900D02*
X153050D01*
X149050Y134900D02*
Y142900D01*
X154406Y137316D02*
X162406D01*
X158406Y133316D02*
Y141316D01*
X146940Y137386D02*
X154940D01*
X150940Y133386D02*
Y141386D01*
X161700Y125800D02*
X169700D01*
X165700Y121800D02*
Y129800D01*
X146450Y128250D02*
X154450D01*
X150450Y124250D02*
Y132250D01*
X156800Y127700D02*
X164800D01*
X160800Y123700D02*
Y131700D01*
X161700Y138100D02*
X169700D01*
X165700Y134100D02*
Y142100D01*
X158203Y150893D02*
X166203D01*
X162203Y146893D02*
Y154893D01*
X156403Y158693D02*
X164403D01*
X160403Y154693D02*
Y162693D01*
X161600Y152900D02*
X169600D01*
X165600Y148900D02*
Y156900D01*
X158103Y157093D02*
X166103D01*
X162103Y153093D02*
Y161093D01*
X161100Y155950D02*
X169100D01*
X165100Y151950D02*
Y159950D01*
X147186Y149201D02*
X155186D01*
X151186Y145201D02*
Y153201D01*
X146150Y151000D02*
X154150D01*
X150150Y147000D02*
Y155000D01*
X147400Y147100D02*
X155400D01*
X151400Y143100D02*
Y151100D01*
X147400Y144950D02*
X155400D01*
X151400Y140950D02*
Y148950D01*
X149853Y143893D02*
X157853D01*
X153853Y139893D02*
Y147893D01*
X159700Y142900D02*
X167700D01*
X163700Y138900D02*
Y146900D01*
X152403Y143993D02*
X160403D01*
X156403Y139993D02*
Y147993D01*
X148400Y158100D02*
X156400D01*
X152400Y154100D02*
Y162100D01*
X149150Y128300D02*
X157150D01*
X153150Y124300D02*
Y132300D01*
X156000Y131125D02*
X164000D01*
X160000Y127125D02*
Y135125D01*
X153230Y124231D02*
X161230D01*
X157230Y120231D02*
Y128231D01*
X158200Y141500D02*
X166200D01*
X162200Y137500D02*
Y145500D01*
X142308Y153125D02*
X150308D01*
X146308Y149125D02*
Y157125D01*
X135300Y138952D02*
X143300D01*
X139300Y134952D02*
Y142952D01*
X126400Y159650D02*
X134400D01*
X130400Y155650D02*
Y163650D01*
X118750Y160450D02*
X126750D01*
X122750Y156450D02*
Y164450D01*
X131878Y159175D02*
X139878D01*
X135878Y155175D02*
Y163175D01*
X128450Y160225D02*
X136450D01*
X132450Y156225D02*
Y164225D01*
X109878Y159825D02*
X117878D01*
X113878Y155825D02*
Y163825D01*
X123000Y160650D02*
X131000D01*
X127000Y156650D02*
Y164650D01*
X103750Y163390D02*
X111750D01*
X107750Y159390D02*
Y167390D01*
X128750Y166600D02*
X136750D01*
X132750Y162600D02*
Y170600D01*
X120900Y160450D02*
X128900D01*
X124900Y156450D02*
Y164450D01*
X116680Y160800D02*
X124680D01*
X120680Y156800D02*
Y164800D01*
X131000Y173050D02*
X139000D01*
X135000Y169050D02*
Y177050D01*
X115200Y173000D02*
X123200D01*
X119200Y169000D02*
Y177000D01*
X110500Y175350D02*
X118500D01*
X114500Y171350D02*
Y179350D01*
X120000Y175450D02*
X128000D01*
X124000Y171450D02*
Y179450D01*
X102600Y173300D02*
X110600D01*
X106600Y169300D02*
Y177300D01*
X99450Y175250D02*
X107450D01*
X103450Y171250D02*
Y179250D01*
X123250Y175500D02*
X131250D01*
X127250Y171500D02*
Y179500D01*
X132070Y170290D02*
X140070D01*
X136070Y166290D02*
Y174290D01*
X101750Y162750D02*
X109750D01*
X105750Y158750D02*
Y166750D01*
X111150Y165950D02*
X119150D01*
X115150Y161950D02*
Y169950D01*
X128050Y173000D02*
X136050D01*
X132050Y169000D02*
Y177000D01*
X112000Y173000D02*
X120000D01*
X116000Y169000D02*
Y177000D01*
X132550Y175500D02*
X140550D01*
X136550Y171500D02*
Y179500D01*
X126250Y165875D02*
X134250D01*
X130250Y161875D02*
Y169875D01*
X102680Y165206D02*
X110680D01*
X106680Y161206D02*
Y169206D01*
X107050Y165950D02*
X115050D01*
X111050Y161950D02*
Y169950D01*
X129500Y175500D02*
X137500D01*
X133500Y171500D02*
Y179500D01*
X101150Y160750D02*
X109150D01*
X105150Y156750D02*
Y164750D01*
X125000Y173000D02*
X133000D01*
X129000Y169000D02*
Y177000D01*
X126500Y175500D02*
X134500D01*
X130500Y171500D02*
Y179500D01*
X118550Y173000D02*
X126550D01*
X122550Y169000D02*
Y177000D01*
X121800Y173000D02*
X129800D01*
X125800Y169000D02*
Y177000D01*
X116600Y175450D02*
X124600D01*
X120600Y171450D02*
Y179450D01*
X113500Y175400D02*
X121500D01*
X117500Y171400D02*
Y179400D01*
X108500Y173050D02*
X116500D01*
X112500Y169050D02*
Y177050D01*
X106950Y175250D02*
X114950D01*
X110950Y171250D02*
Y179250D01*
X105250Y173000D02*
X113250D01*
X109250Y169000D02*
Y177000D01*
X103000Y175250D02*
X111000D01*
X107000Y171250D02*
Y179250D01*
X100850Y171950D02*
X108850D01*
X104850Y167950D02*
Y175950D01*
X98000Y173750D02*
X106000D01*
X102000Y169750D02*
Y177750D01*
X106200Y170206D02*
X114200D01*
X110200Y166206D02*
Y174206D01*
X104200Y170206D02*
X112200D01*
X108200Y166206D02*
Y174206D01*
X114420Y170170D02*
X122420D01*
X118420Y166170D02*
Y174170D01*
X122450Y170170D02*
X130450D01*
X126450Y166170D02*
Y174170D01*
X107678Y159825D02*
X115678D01*
X111678Y155825D02*
Y163825D01*
X162500Y175550D02*
X170500D01*
X166500Y171550D02*
Y179550D01*
X135500Y175500D02*
X143500D01*
X139500Y171500D02*
Y179500D01*
X141100Y172900D02*
X149100D01*
X145100Y168900D02*
Y176900D01*
X153800Y170000D02*
X161800D01*
X157800Y166000D02*
Y174000D01*
X138450Y175350D02*
X146450D01*
X142450Y171350D02*
Y179350D01*
X138100Y171400D02*
X146100D01*
X142100Y167400D02*
Y175400D01*
X141766Y165099D02*
X149766D01*
X145766Y161099D02*
Y169099D01*
X143300Y174000D02*
X151300D01*
X147300Y170000D02*
Y178000D01*
X155450Y160800D02*
X163450D01*
X159450Y156800D02*
Y164800D01*
X155625Y175125D02*
X163625D01*
X159625Y171125D02*
Y179125D01*
X157451Y172831D02*
X165451D01*
X161451Y168831D02*
Y176831D01*
X153331Y172786D02*
X161331D01*
X157331Y168786D02*
Y176786D01*
X148250Y160800D02*
X156250D01*
X152250Y156800D02*
Y164800D01*
X160500Y160100D02*
X168500D01*
X164500Y156100D02*
Y164100D01*
X161207Y165681D02*
X169207D01*
X165207Y161681D02*
Y169681D01*
X160650Y167750D02*
X168650D01*
X164650Y163750D02*
Y171750D01*
X161000Y170905D02*
X169000D01*
X165000Y166905D02*
Y174905D01*
X159000Y175150D02*
X167000D01*
X163000Y171150D02*
Y179150D01*
X162300Y173105D02*
X170300D01*
X166300Y169105D02*
Y177105D01*
X164696Y174306D02*
X172696D01*
X168696Y170306D02*
Y178306D01*
X134000Y173000D02*
X142000D01*
X138000Y169000D02*
Y177000D01*
X141250Y175500D02*
X149250D01*
X145250Y171500D02*
Y179500D01*
X145300Y175600D02*
X153300D01*
X149300Y171600D02*
Y179600D01*
X150700Y175800D02*
X158700D01*
X154700Y171800D02*
Y179800D01*
X150700Y173500D02*
X158700D01*
X154700Y169500D02*
Y177500D01*
X158500Y160800D02*
X166500D01*
X162500Y156800D02*
Y164800D01*
X152500Y160800D02*
X160500D01*
X156500Y156800D02*
Y164800D01*
X150150Y159650D02*
X158150D01*
X154150Y155650D02*
Y163650D01*
X144200Y165100D02*
X152200D01*
X148200Y161100D02*
Y169100D01*
X138878Y163325D02*
X146878D01*
X142878Y159325D02*
Y167325D01*
X145300Y167250D02*
X153300D01*
X149300Y163250D02*
Y171250D01*
X147250Y165300D02*
X155250D01*
X151250Y161300D02*
Y169300D01*
X142700Y167400D02*
X150700D01*
X146700Y163400D02*
Y171400D01*
X150400Y171100D02*
X158400D01*
X154400Y167100D02*
Y175100D01*
X152750Y165350D02*
X160750D01*
X156750Y161350D02*
Y169350D01*
X158250Y169750D02*
X166250D01*
X162250Y165750D02*
Y173750D01*
X155750Y168250D02*
X163750D01*
X159750Y164250D02*
Y172250D01*
X157375Y165531D02*
X165375D01*
X161375Y161531D02*
Y169531D01*
X152200Y167450D02*
X160200D01*
X156200Y163450D02*
Y171450D01*
X150900Y169250D02*
X158900D01*
X154900Y165250D02*
Y173250D01*
X134600Y167900D02*
X142600D01*
X138600Y163900D02*
Y171900D01*
X137000Y173000D02*
X145000D01*
X141000Y169000D02*
Y177000D01*
X136400Y169700D02*
X144400D01*
X140400Y165700D02*
Y173700D01*
X145300Y173000D02*
X153300D01*
X149300Y169000D02*
Y177000D01*
X143000Y159300D02*
X151000D01*
X147000Y155300D02*
Y163300D01*
X100000Y200394D02*
X170866D01*
Y100000*
X100000*
Y200394*
X300000Y172000D02*
X558000D01*
X300000Y148000D02*
X558000D01*
X300000Y124000D02*
X558000D01*
X300000Y100000D02*
X558000D01*
X300000Y172000D02*
Y100000D01*
X384000Y172000D02*
Y100000D01*
X420000Y172000D02*
Y100000D01*
X456000Y172000D02*
Y100000D01*
X510000Y172000D02*
Y100000D01*
X558000Y172000D02*
Y100000D01*
X335500Y160750D02*
X334955Y161500D01*
X334136Y161875*
X333045*
X332227Y161500*
X331682Y160750*
Y160000*
X331955Y159250*
X332227Y158875*
X332773Y158500*
X334409Y157750*
X334955Y157375*
X335227Y157000*
X335500Y156250*
Y155125*
X334955Y154375*
X334136Y154000*
X333045*
X332227Y154375*
X331682Y155125*
X337955Y161875D02*
Y154000D01*
X344227Y161875D02*
X340409Y154000D01*
Y161875D02*
X344227D01*
X340409Y154000D02*
X344227D01*
X346682Y161875D02*
Y154000D01*
Y161875D02*
X350227D01*
X346682Y158125D02*
X348864D01*
X346682Y154000D02*
X350227D01*
X393864Y161875D02*
X393318Y161500D01*
X392773Y160750*
X392500Y160000*
X392227Y158875*
Y157000*
X392500Y155875*
X392773Y155125*
X393318Y154375*
X393864Y154000*
X394955*
X395500Y154375*
X396045Y155125*
X396318Y155875*
X396591Y157000*
Y158875*
X396318Y160000*
X396045Y160750*
X395500Y161500*
X394955Y161875*
X393864*
X394682Y155500D02*
X396318Y153250D01*
X400955Y161875D02*
Y154000D01*
X399045Y161875D02*
X402864D01*
X405318D02*
X407500Y158125D01*
Y154000*
X409682Y161875D02*
X407500Y158125D01*
X432045Y160750D02*
X431500Y161500D01*
X430682Y161875*
X429591*
X428773Y161500*
X428227Y160750*
Y160000*
X428500Y159250*
X428773Y158875*
X429318Y158500*
X430955Y157750*
X431500Y157375*
X431773Y157000*
X432045Y156250*
Y155125*
X431500Y154375*
X430682Y154000*
X429591*
X428773Y154375*
X428227Y155125*
X434500Y161875D02*
X436682Y158125D01*
Y154000*
X438864Y161875D02*
X436682Y158125D01*
X441318Y161875D02*
Y154000D01*
Y161875D02*
X443500Y154000D01*
X445682Y161875D02*
X443500Y154000D01*
X445682Y161875D02*
Y154000D01*
X467500Y161875D02*
Y154000D01*
Y161875D02*
X469955D01*
X470773Y161500*
X471045Y161125*
X471318Y160375*
Y159250*
X471045Y158500*
X470773Y158125*
X469955Y157750*
X467500*
X473773Y161875D02*
Y154000D01*
X477045*
X481682Y161875D02*
X479500Y154000D01*
X481682Y161875D02*
X483864Y154000D01*
X480318Y156625D02*
X483045D01*
X488227Y161875D02*
Y154000D01*
X486318Y161875D02*
X490136D01*
X492591D02*
Y154000D01*
Y161875D02*
X496136D01*
X492591Y158125D02*
X494773D01*
X492591Y154000D02*
X496136D01*
X498591Y161875D02*
Y154000D01*
Y161875D02*
X500500D01*
X501318Y161500*
X501864Y160750*
X502136Y160000*
X502409Y158875*
Y157000*
X502136Y155875*
X501864Y155125*
X501318Y154375*
X500500Y154000*
X498591*
X526682Y161875D02*
Y154000D01*
X524773Y161875D02*
X528591D01*
X532682D02*
X532136Y161500D01*
X531591Y160750*
X531318Y160000*
X531045Y158875*
Y157000*
X531318Y155875*
X531591Y155125*
X532136Y154375*
X532682Y154000*
X533773*
X534318Y154375*
X534864Y155125*
X535136Y155875*
X535409Y157000*
Y158875*
X535136Y160000*
X534864Y160750*
X534318Y161500*
X533773Y161875*
X532682*
X537864D02*
Y154000D01*
X541136*
X309545Y135250D02*
X309273Y134125D01*
X308727Y133375*
X307909Y133000*
X307636*
X306818Y133375*
X306273Y134125*
X306000Y135250*
Y135625*
X306273Y136750*
X306818Y137500*
X307636Y137875*
X307909*
X308727Y137500*
X309273Y136750*
X309545Y135250*
Y133375*
X309273Y131500*
X308727Y130375*
X307909Y130000*
X307364*
X306545Y130375*
X306273Y131125*
X312273Y130750D02*
X312000Y130375D01*
X312273Y130000*
X312545Y130375*
X312273Y130750*
X316364Y137875D02*
X315545Y137500D01*
X315273Y136750*
Y136000*
X315545Y135250*
X316091Y134875*
X317182Y134500*
X318000Y134125*
X318545Y133375*
X318818Y132625*
Y131500*
X318545Y130750*
X318273Y130375*
X317455Y130000*
X316364*
X315545Y130375*
X315273Y130750*
X315000Y131500*
Y132625*
X315273Y133375*
X315818Y134125*
X316636Y134500*
X317727Y134875*
X318273Y135250*
X318545Y136000*
Y136750*
X318273Y137500*
X317455Y137875*
X316364*
X324000D02*
X321273Y132625D01*
X325364*
X324000Y137875D02*
Y130000D01*
X393045Y136000D02*
Y136375D01*
X393318Y137125*
X393591Y137500*
X394136Y137875*
X395227*
X395773Y137500*
X396045Y137125*
X396318Y136375*
Y135625*
X396045Y134875*
X395500Y133750*
X392773Y130000*
X396591*
X399318Y136000D02*
Y136375D01*
X399591Y137125*
X399864Y137500*
X400409Y137875*
X401500*
X402045Y137500*
X402318Y137125*
X402591Y136375*
Y135625*
X402318Y134875*
X401773Y133750*
X399045Y130000*
X402864*
X406955Y137875D02*
X406136Y137500D01*
X405591Y136375*
X405318Y134500*
Y133375*
X405591Y131500*
X406136Y130375*
X406955Y130000*
X407500*
X408318Y130375*
X408864Y131500*
X409136Y133375*
Y134500*
X408864Y136375*
X408318Y137500*
X407500Y137875*
X406955*
X432000Y136000D02*
X444000D01*
X438000Y130000D02*
Y142000D01*
X464636Y137875D02*
X466818Y134125D01*
Y130000*
X469000Y137875D02*
X466818Y134125D01*
X471455Y137875D02*
Y130000D01*
Y137875D02*
X475000D01*
X471455Y134125D02*
X473636D01*
X471455Y130000D02*
X475000D01*
X481273Y136750D02*
X480727Y137500D01*
X479909Y137875*
X478818*
X478000Y137500*
X477455Y136750*
Y136000*
X477727Y135250*
X478000Y134875*
X478545Y134500*
X480182Y133750*
X480727Y133375*
X481000Y133000*
X481273Y132250*
Y131125*
X480727Y130375*
X479909Y130000*
X478818*
X478000Y130375*
X477455Y131125*
X517818Y136750D02*
Y130000D01*
X515364Y133375D02*
X520273D01*
X527636Y139375D02*
X522727Y127375D01*
X530091Y133375D02*
X535000D01*
X538000Y137875D02*
X541000D01*
X539364Y134875*
X540182*
X540727Y134500*
X541000Y134125*
X541273Y133000*
Y132250*
X541000Y131125*
X540455Y130375*
X539636Y130000*
X538818*
X538000Y130375*
X537727Y130750*
X537455Y131500*
X544000Y130750D02*
X543727Y130375D01*
X544000Y130000*
X544273Y130375*
X544000Y130750*
X548364Y137875D02*
X547545Y137500D01*
X547000Y136375*
X546727Y134500*
Y133375*
X547000Y131500*
X547545Y130375*
X548364Y130000*
X548909*
X549727Y130375*
X550273Y131500*
X550545Y133375*
Y134500*
X550273Y136375*
X549727Y137500*
X548909Y137875*
X548364*
X306273Y112000D02*
Y112375D01*
X306545Y113125*
X306818Y113500*
X307364Y113875*
X308455*
X309000Y113500*
X309273Y113125*
X309545Y112375*
Y111625*
X309273Y110875*
X308727Y109750*
X306000Y106000*
X309818*
X312273Y112375D02*
X312818Y112750D01*
X313636Y113875*
Y106000*
X316364Y106750D02*
X316091Y106375D01*
X316364Y106000*
X316636Y106375*
X316364Y106750*
X322364Y112750D02*
X322091Y113500D01*
X321273Y113875*
X320727*
X319909Y113500*
X319364Y112375*
X319091Y110500*
Y108625*
X319364Y107125*
X319909Y106375*
X320727Y106000*
X321000*
X321818Y106375*
X322364Y107125*
X322636Y108250*
Y108625*
X322364Y109750*
X321818Y110500*
X321000Y110875*
X320727*
X319909Y110500*
X319364Y109750*
X319091Y108625*
X328636Y113875D02*
X325909D01*
X325636Y110500*
X325909Y110875*
X326727Y111250*
X327545*
X328364Y110875*
X328909Y110125*
X329182Y109000*
X328909Y108250*
X328636Y107125*
X328091Y106375*
X327273Y106000*
X326455*
X325636Y106375*
X325364Y106750*
X325091Y107500*
X398500Y113875D02*
X395773Y108625D01*
X399864*
X398500Y113875D02*
Y106000D01*
X403955Y113875D02*
X403136Y113500D01*
X402591Y112375*
X402318Y110500*
Y109375*
X402591Y107500*
X403136Y106375*
X403955Y106000*
X404500*
X405318Y106375*
X405864Y107500*
X406136Y109375*
Y110500*
X405864Y112375*
X405318Y113500*
X404500Y113875*
X403955*
X432000Y106000D02*
X444000Y118000D01*
X432000D02*
X444000Y106000D01*
X464636Y113875D02*
X466818Y110125D01*
Y106000*
X469000Y113875D02*
X466818Y110125D01*
X471455Y113875D02*
Y106000D01*
Y113875D02*
X475000D01*
X471455Y110125D02*
X473636D01*
X471455Y106000D02*
X475000D01*
X481273Y112750D02*
X480727Y113500D01*
X479909Y113875*
X478818*
X478000Y113500*
X477455Y112750*
Y112000*
X477727Y111250*
X478000Y110875*
X478545Y110500*
X480182Y109750*
X480727Y109375*
X481000Y109000*
X481273Y108250*
Y107125*
X480727Y106375*
X479909Y106000*
X478818*
X478000Y106375*
X477455Y107125*
X517818Y112750D02*
Y106000D01*
X515364Y109375D02*
X520273D01*
X527636Y115375D02*
X522727Y103375D01*
X530091Y109375D02*
X535000D01*
X538000Y113875D02*
X541000D01*
X539364Y110875*
X540182*
X540727Y110500*
X541000Y110125*
X541273Y109000*
Y108250*
X541000Y107125*
X540455Y106375*
X539636Y106000*
X538818*
X538000Y106375*
X537727Y106750*
X537455Y107500*
X544000Y106750D02*
X543727Y106375D01*
X544000Y106000*
X544273Y106375*
X544000Y106750*
X548364Y113875D02*
X547545Y113500D01*
X547000Y112375*
X546727Y110500*
Y109375*
X547000Y107500*
X547545Y106375*
X548364Y106000*
X548909*
X549727Y106375*
X550273Y107500*
X550545Y109375*
Y110500*
X550273Y112375*
X549727Y113500*
X548909Y113875*
X548364*
X0Y0D02*
M02*
