M48
;FILE_FORMAT=2:4
INCH,LZ
FMAT,2
ICI,OFF
;TYPE=PLATED
T1C.00984
T2C.02165
%
M72
G90
G93X0Y0
T1C.00984F0S0
X010213Y010216
X011Y01052
X01054Y01052
X011Y01075
X01052Y01112
X01216Y01133
X01183Y01166
X011365Y011705
X01157Y01176
X011365Y01212
X011826Y012726
X012469Y012884
X012093Y012943
X01183Y01313
X01133Y01347
X01157Y01357
X01139Y013675
X011712Y013722
X01108Y013955
X011965Y014075
X01197Y0144
X012418Y014688
X01128Y01478
X01197Y014785
X01143Y015215
X012418Y015278
X011873Y01536
X011398Y015453
X01108Y015465
X011162Y015661
X011388Y015663
X011388Y015983
X011168Y015983
X01249Y016045
X012275Y016045
X010515Y016075
X012068Y01608
X010575Y016275
X010775Y016339
X010668Y016521
X011515Y016595
X011105Y016595
X011842Y017017
X01102Y017021
X01082Y017021
X010485Y017195
X01192Y0173
X012255Y0173
X010925Y0173
X0116Y0173
X01125Y017305
X01066Y01733
X0102Y017375
X0107Y017525
X011095Y017525
X010345Y017525
X01145Y017535
X01175Y01754
X01206Y017545
X0124Y017545
X01493Y01756
X012725Y01755
X013655Y01755
X01335Y01755
X01305Y01755
X01395Y01755
X014525Y01755
X014245Y017535
X01473Y0174
X0135Y017305
X013205Y0173
X0129Y0173
X01258Y0173
X0138Y0173
X0141Y0173
X01493Y0173
X01451Y01729
X01421Y01714
X013607Y017029
X012645Y017017
X01404Y01697
X01386Y01679
X01467Y01674
X01493Y016725
X013275Y01666
X013025Y016587
X01482Y01651
X014577Y01651
X014288Y016333
X0127Y016065
X013245Y016023
X01304Y015965
X0147Y01593
X013588Y015918
X014045Y015663
X013303Y015573
X012713Y015573
X014038Y015441
X014631Y015313
X013008Y015278
X013598Y015278
X0141Y015241
X013303Y014983
X012713Y014983
X014038Y014811
X014751Y014713
X013598Y014688
X013008Y014688
X013964Y014587
X0147Y0145
X012713Y014393
X013303Y014393
X0136Y01408
X01315Y01408
X012687Y014079
X01393Y013895
X014905Y01389
X01345Y01297
X01371Y01296
X01392Y01296
X01419Y01293
X01443Y01293
X012797Y012913
X01318Y0128
X01357Y0128
X01297Y01279
X0147Y01275
X01485Y012435
X014194Y011943
X0138Y011937
X014845Y0119
X01448Y01164
X014147Y011625
X013825Y011615
X01361Y01161
X013363Y011568
X013025Y011537
X01497Y01149
X01335Y011212
X013944Y0108
X014725Y010725
X016788Y010191
X0161Y01052
X01547Y01052
X01506Y01052
X01657Y01054
X01526Y01072
X016118Y010951
X01503Y01101
X01657Y01115
X016Y011275
X01542Y01135
X01657Y01161
X01515Y01185
X015513Y0119
X015884Y011929
X01657Y01207
X015752Y012101
X016015Y012115
X015723Y012423
X01532Y01244
X01657Y01258
X01608Y01277
X015045Y012825
X015315Y01283
X016Y013112
X016225Y013112
X015688Y01312
X016395Y01363
X015475Y013725
X015841Y013732
X015094Y013739
X01657Y01381
X015165Y01407
X01537Y014145
X01622Y01415
X01555Y014229
X01637Y01429
X015185Y01429
X015385Y014389
X01564Y014399
X01514Y014495
X01514Y01471
X015119Y01492
X01622Y015089
X01597Y015089
X015015Y0151
X01656Y01529
X01651Y015595
X01621Y015709
X01657Y0158
X01524Y01581
X01604Y015869
X015415Y015965
X01645Y01601
X01625Y01608
X01565Y01608
X015225Y01608
X015945Y01608
X015125Y01653
X015675Y016535
X016138Y016553
X016521Y016568
X01562Y016745
X016465Y016775
X015975Y016825
X01549Y016925
X016225Y016975
X01578Y017
X0165Y017091
X01544Y01711
X015733Y017279
X016145Y017283
X01663Y017311
X01547Y01735
X01687Y017431
X015963Y017512
X0163Y017515
X01665Y017555
X01547Y01758
T2C.02165F197S55
X010793Y01
X011293Y01
X011793Y01
X012293Y01
X01Y010591
X01Y011091
X01Y011591
X01Y012091
X01Y012591
X01Y013091
X01Y013591
X01Y014091
X01Y014591
X01Y015091
X01Y015591
X01Y016091
X01Y016591
X01Y017091
X012793Y01
X013293Y01
X013793Y01
X014293Y01
X014793Y01
X015293Y01
X015793Y01
X016293Y01
X017087Y010591
X017087Y011091
X017087Y011591
X017087Y012091
X017087Y012591
X017087Y013091
X017087Y013591
X017087Y014091
X017087Y014591
X017087Y015091
X017087Y015591
X017087Y016091
X017087Y016591
X017087Y017091
M30
