*
*
G04 PADS VX.2 Build Number: 5060570 generated Gerber (RS-274-X) file*
G04 PC Version=2.1*
*
%IN "PCB_ESP32-S3-WROOM-2_V1"*%
*
%MOIN*%
*
%FSLAX35Y35*%
*
*
*
*
G04 PC Standard Apertures*
*
*
G04 Thermal Relief Aperture macro.*
%AMTER*
1,1,$1,0,0*
1,0,$1-$2,0,0*
21,0,$3,$4,0,0,45*
21,0,$3,$4,0,0,135*
%
*
*
G04 Annular Aperture macro.*
%AMANN*
1,1,$1,0,0*
1,0,$2,0,0*
%
*
*
G04 Odd Aperture macro.*
%AMODD*
1,1,$1,0,0*
1,0,$1-0.005,0,0*
%
*
*
G04 PC Custom Aperture Macros*
*
*
*
*
*
*
G04 PC Aperture Table*
*
%ADD010C,0.001*%
%ADD011R,0.02X0.02*%
%ADD027C,0.00394*%
%ADD030C,0.01*%
%ADD036C,0.006*%
%ADD123R,0.02756X0.01575*%
%ADD133C,0.02362*%
%ADD134C,0.01575*%
%ADD148C,0.00394*%
%ADD172C,0.02362*%
%ADD209R,0.03937X0.03937*%
%ADD210R,0.01969X0.02362*%
%ADD211R,0.03937X0.04331*%
%ADD251R,0.01181X0.01181*%
%ADD259R,0.00866X0.02559*%
%ADD260R,0.02559X0.00866*%
%ADD263O,0.00866X0.02559*%
%ADD264O,0.02559X0.00866*%
*
*
*
*
G04 PC Circuitry*
G04 Layer Name PCB_ESP32-S3-WROOM-2_V1 - circuitry*
%LPD*%
*
*
G04 PC Custom Flashes*
G04 Layer Name PCB_ESP32-S3-WROOM-2_V1 - flashes*
%LPD*%
*
*
G04 PC Circuitry*
G04 Layer Name PCB_ESP32-S3-WROOM-2_V1 - circuitry*
%LPD*%
*
G54D10*
G01X142906Y166408D02*
X142142Y165644D01*
X142906Y164880*
X143670Y165644*
X142906Y166408*
X142886Y164900D02*
X142926D01*
X142786Y165000D02*
X143026D01*
X142686Y165100D02*
X143126D01*
X142586Y165200D02*
X143226D01*
X142486Y165300D02*
X143326D01*
X142386Y165400D02*
X143426D01*
X142286Y165500D02*
X143526D01*
X142186Y165600D02*
X143626D01*
X142197Y165700D02*
X143614D01*
X142297Y165800D02*
X143514D01*
X142397Y165900D02*
X143414D01*
X142497Y166000D02*
X143314D01*
X142597Y166100D02*
X143214D01*
X142697Y166200D02*
X143114D01*
X142797Y166300D02*
X143014D01*
X142897Y166400D02*
X142914D01*
X142200Y165586D02*
Y165703D01*
X142300Y165486D02*
Y165803D01*
X142400Y165386D02*
Y165903D01*
X142500Y165286D02*
Y166003D01*
X142600Y165186D02*
Y166103D01*
X142700Y165086D02*
Y166203D01*
X142800Y164986D02*
Y166303D01*
X142900Y164886D02*
Y166403D01*
X143000Y164974D02*
Y166314D01*
X143100Y165074D02*
Y166214D01*
X143200Y165174D02*
Y166114D01*
X143300Y165274D02*
Y166014D01*
X143400Y165374D02*
Y165914D01*
X143500Y165474D02*
Y165814D01*
X143600Y165574D02*
Y165714D01*
X141514Y167800D02*
X140750Y167036D01*
X141514Y166272*
X142278Y167036*
X141514Y167800*
X141486Y166300D02*
X141543D01*
X141386Y166400D02*
X141643D01*
X141286Y166500D02*
X141743D01*
X141186Y166600D02*
X141843D01*
X141086Y166700D02*
X141943D01*
X140986Y166800D02*
X142043D01*
X140886Y166900D02*
X142143D01*
X140786Y167000D02*
X142243D01*
X140814Y167100D02*
X142214D01*
X140914Y167200D02*
X142114D01*
X141014Y167300D02*
X142014D01*
X141114Y167400D02*
X141914D01*
X141214Y167500D02*
X141814D01*
X141314Y167600D02*
X141714D01*
X141414Y167700D02*
X141614D01*
X141514Y167800D02*
X141514D01*
X140800Y166986D02*
Y167086D01*
X140900Y166886D02*
Y167186D01*
X141000Y166786D02*
Y167286D01*
X141100Y166686D02*
Y167386D01*
X141200Y166586D02*
Y167486D01*
X141300Y166486D02*
Y167586D01*
X141400Y166386D02*
Y167686D01*
X141500Y166286D02*
Y167786D01*
X141600Y166357D02*
Y167714D01*
X141700Y166457D02*
Y167614D01*
X141800Y166557D02*
Y167514D01*
X141900Y166657D02*
Y167414D01*
X142000Y166757D02*
Y167314D01*
X142100Y166857D02*
Y167214D01*
X142200Y166957D02*
Y167114D01*
X135784Y168548D02*
X135020Y167784D01*
X135784Y167020*
X136548Y167784*
X135784Y168548*
X135704Y167100D02*
X135864D01*
X135604Y167200D02*
X135964D01*
X135504Y167300D02*
X136064D01*
X135404Y167400D02*
X136164D01*
X135304Y167500D02*
X136264D01*
X135204Y167600D02*
X136364D01*
X135104Y167700D02*
X136464D01*
X135036Y167800D02*
X136533D01*
X135136Y167900D02*
X136433D01*
X135236Y168000D02*
X136333D01*
X135336Y168100D02*
X136233D01*
X135436Y168200D02*
X136133D01*
X135536Y168300D02*
X136033D01*
X135636Y168400D02*
X135933D01*
X135736Y168500D02*
X135833D01*
X135100Y167704D02*
Y167864D01*
X135200Y167604D02*
Y167964D01*
X135300Y167504D02*
Y168064D01*
X135400Y167404D02*
Y168164D01*
X135500Y167304D02*
Y168264D01*
X135600Y167204D02*
Y168364D01*
X135700Y167104D02*
Y168464D01*
X135800Y167036D02*
Y168533D01*
X135900Y167136D02*
Y168433D01*
X136000Y167236D02*
Y168333D01*
X136100Y167336D02*
Y168233D01*
X136200Y167436D02*
Y168133D01*
X136300Y167536D02*
Y168033D01*
X136400Y167636D02*
Y167933D01*
X136500Y167736D02*
Y167833D01*
X137176Y169940D02*
X136412Y169176D01*
X137176Y168412*
X137940Y169176*
X137176Y169940*
X137087Y168500D02*
X137264D01*
X136987Y168600D02*
X137364D01*
X136887Y168700D02*
X137464D01*
X136787Y168800D02*
X137564D01*
X136687Y168900D02*
X137664D01*
X136587Y169000D02*
X137764D01*
X136487Y169100D02*
X137864D01*
X136436Y169200D02*
X137916D01*
X136536Y169300D02*
X137816D01*
X136636Y169400D02*
X137716D01*
X136736Y169500D02*
X137616D01*
X136836Y169600D02*
X137516D01*
X136936Y169700D02*
X137416D01*
X137036Y169800D02*
X137316D01*
X137136Y169900D02*
X137216D01*
X136500Y169087D02*
Y169264D01*
X136600Y168987D02*
Y169364D01*
X136700Y168887D02*
Y169464D01*
X136800Y168787D02*
Y169564D01*
X136900Y168687D02*
Y169664D01*
X137000Y168587D02*
Y169764D01*
X137100Y168487D02*
Y169864D01*
X137200Y168436D02*
Y169916D01*
X137300Y168536D02*
Y169816D01*
X137400Y168636D02*
Y169716D01*
X137500Y168736D02*
Y169616D01*
X137600Y168836D02*
Y169516D01*
X137700Y168936D02*
Y169416D01*
X137800Y169036D02*
Y169316D01*
X137900Y169136D02*
Y169216D01*
X143154Y169428D02*
X142390Y168664D01*
X143154Y167900*
X143918Y168664*
X143154Y169428*
Y167900D02*
X143154D01*
X143054Y168000D02*
X143254D01*
X142954Y168100D02*
X143354D01*
X142854Y168200D02*
X143454D01*
X142754Y168300D02*
X143554D01*
X142654Y168400D02*
X143654D01*
X142554Y168500D02*
X143754D01*
X142454Y168600D02*
X143854D01*
X142426Y168700D02*
X143883D01*
X142526Y168800D02*
X143783D01*
X142626Y168900D02*
X143683D01*
X142726Y169000D02*
X143583D01*
X142826Y169100D02*
X143483D01*
X142926Y169200D02*
X143383D01*
X143026Y169300D02*
X143283D01*
X143126Y169400D02*
X143183D01*
X142400Y168654D02*
Y168674D01*
X142500Y168554D02*
Y168774D01*
X142600Y168454D02*
Y168874D01*
X142700Y168354D02*
Y168974D01*
X142800Y168254D02*
Y169074D01*
X142900Y168154D02*
Y169174D01*
X143000Y168054D02*
Y169274D01*
X143100Y167954D02*
Y169374D01*
X143200Y167946D02*
Y169383D01*
X143300Y168046D02*
Y169283D01*
X143400Y168146D02*
Y169183D01*
X143500Y168246D02*
Y169083D01*
X143600Y168346D02*
Y168983D01*
X143700Y168446D02*
Y168883D01*
X143800Y168546D02*
Y168783D01*
X143900Y168646D02*
Y168683D01*
X144546Y170820D02*
X143782Y170056D01*
X144546Y169292*
X145310Y170056*
X144546Y170820*
X144537Y169300D02*
X144554D01*
X144437Y169400D02*
X144654D01*
X144337Y169500D02*
X144754D01*
X144237Y169600D02*
X144854D01*
X144137Y169700D02*
X144954D01*
X144037Y169800D02*
X145054D01*
X143937Y169900D02*
X145154D01*
X143837Y170000D02*
X145254D01*
X143826Y170100D02*
X145266D01*
X143926Y170200D02*
X145166D01*
X144026Y170300D02*
X145066D01*
X144126Y170400D02*
X144966D01*
X144226Y170500D02*
X144866D01*
X144326Y170600D02*
X144766D01*
X144426Y170700D02*
X144666D01*
X144526Y170800D02*
X144566D01*
X143800Y170037D02*
Y170074D01*
X143900Y169937D02*
Y170174D01*
X144000Y169837D02*
Y170274D01*
X144100Y169737D02*
Y170374D01*
X144200Y169637D02*
Y170474D01*
X144300Y169537D02*
Y170574D01*
X144400Y169437D02*
Y170674D01*
X144500Y169337D02*
Y170774D01*
X144600Y169346D02*
Y170766D01*
X144700Y169446D02*
Y170666D01*
X144800Y169546D02*
Y170566D01*
X144900Y169646D02*
Y170466D01*
X145000Y169746D02*
Y170366D01*
X145100Y169846D02*
Y170266D01*
X145200Y169946D02*
Y170166D01*
X145300Y170046D02*
Y170066D01*
X154696Y166368D02*
X153932Y165604D01*
X154696Y164840*
X155460Y165604*
X154696Y166368*
X154636Y164900D02*
X154756D01*
X154536Y165000D02*
X154856D01*
X154436Y165100D02*
X154956D01*
X154336Y165200D02*
X155056D01*
X154236Y165300D02*
X155156D01*
X154136Y165400D02*
X155256D01*
X154036Y165500D02*
X155356D01*
X153936Y165600D02*
X155456D01*
X154027Y165700D02*
X155364D01*
X154127Y165800D02*
X155264D01*
X154227Y165900D02*
X155164D01*
X154327Y166000D02*
X155064D01*
X154427Y166100D02*
X154964D01*
X154527Y166200D02*
X154864D01*
X154627Y166300D02*
X154764D01*
X154000Y165536D02*
Y165673D01*
X154100Y165436D02*
Y165773D01*
X154200Y165336D02*
Y165873D01*
X154300Y165236D02*
Y165973D01*
X154400Y165136D02*
Y166073D01*
X154500Y165036D02*
Y166173D01*
X154600Y164936D02*
Y166273D01*
X154700Y164844D02*
Y166364D01*
X154800Y164944D02*
Y166264D01*
X154900Y165044D02*
Y166164D01*
X155000Y165144D02*
Y166064D01*
X155100Y165244D02*
Y165964D01*
X155200Y165344D02*
Y165864D01*
X155300Y165444D02*
Y165764D01*
X155400Y165544D02*
Y165664D01*
X153304Y167760D02*
X152540Y166996D01*
X153304Y166232*
X154068Y166996*
X153304Y167760*
X153236Y166300D02*
X153373D01*
X153136Y166400D02*
X153473D01*
X153036Y166500D02*
X153573D01*
X152936Y166600D02*
X153673D01*
X152836Y166700D02*
X153773D01*
X152736Y166800D02*
X153873D01*
X152636Y166900D02*
X153973D01*
X152544Y167000D02*
X154064D01*
X152644Y167100D02*
X153964D01*
X152744Y167200D02*
X153864D01*
X152844Y167300D02*
X153764D01*
X152944Y167400D02*
X153664D01*
X153044Y167500D02*
X153564D01*
X153144Y167600D02*
X153464D01*
X153244Y167700D02*
X153364D01*
X152600Y166936D02*
Y167056D01*
X152700Y166836D02*
Y167156D01*
X152800Y166736D02*
Y167256D01*
X152900Y166636D02*
Y167356D01*
X153000Y166536D02*
Y167456D01*
X153100Y166436D02*
Y167556D01*
X153200Y166336D02*
Y167656D01*
X153300Y166236D02*
Y167756D01*
X153400Y166327D02*
Y167664D01*
X153500Y166427D02*
Y167564D01*
X153600Y166527D02*
Y167464D01*
X153700Y166627D02*
Y167364D01*
X153800Y166727D02*
Y167264D01*
X153900Y166827D02*
Y167164D01*
X154000Y166927D02*
Y167064D01*
X150254Y170810D02*
X149490Y170046D01*
X150254Y169282*
X151018Y170046*
X150254Y170810*
X150236Y169300D02*
X150273D01*
X150136Y169400D02*
X150373D01*
X150036Y169500D02*
X150473D01*
X149936Y169600D02*
X150573D01*
X149836Y169700D02*
X150673D01*
X149736Y169800D02*
X150773D01*
X149636Y169900D02*
X150873D01*
X149536Y170000D02*
X150973D01*
X149544Y170100D02*
X150964D01*
X149644Y170200D02*
X150864D01*
X149744Y170300D02*
X150764D01*
X149844Y170400D02*
X150664D01*
X149944Y170500D02*
X150564D01*
X150044Y170600D02*
X150464D01*
X150144Y170700D02*
X150364D01*
X150244Y170800D02*
X150264D01*
X149500Y170036D02*
Y170056D01*
X149600Y169936D02*
Y170156D01*
X149700Y169836D02*
Y170256D01*
X149800Y169736D02*
Y170356D01*
X149900Y169636D02*
Y170456D01*
X150000Y169536D02*
Y170556D01*
X150100Y169436D02*
Y170656D01*
X150200Y169336D02*
Y170756D01*
X150300Y169327D02*
Y170764D01*
X150400Y169427D02*
Y170664D01*
X150500Y169527D02*
Y170564D01*
X150600Y169627D02*
Y170464D01*
X150700Y169727D02*
Y170364D01*
X150800Y169827D02*
Y170264D01*
X150900Y169927D02*
Y170164D01*
X151000Y170027D02*
Y170064D01*
X151646Y169418D02*
X150882Y168654D01*
X151646Y167890*
X152410Y168654*
X151646Y169418*
X151636Y167900D02*
X151656D01*
X151536Y168000D02*
X151756D01*
X151436Y168100D02*
X151856D01*
X151336Y168200D02*
X151956D01*
X151236Y168300D02*
X152056D01*
X151136Y168400D02*
X152156D01*
X151036Y168500D02*
X152256D01*
X150936Y168600D02*
X152356D01*
X150927Y168700D02*
X152364D01*
X151027Y168800D02*
X152264D01*
X151127Y168900D02*
X152164D01*
X151227Y169000D02*
X152064D01*
X151327Y169100D02*
X151964D01*
X151427Y169200D02*
X151864D01*
X151527Y169300D02*
X151764D01*
X151627Y169400D02*
X151664D01*
X150900Y168636D02*
Y168673D01*
X151000Y168536D02*
Y168773D01*
X151100Y168436D02*
Y168873D01*
X151200Y168336D02*
Y168973D01*
X151300Y168236D02*
Y169073D01*
X151400Y168136D02*
Y169173D01*
X151500Y168036D02*
Y169273D01*
X151600Y167936D02*
Y169373D01*
X151700Y167944D02*
Y169364D01*
X151800Y168044D02*
Y169264D01*
X151900Y168144D02*
Y169164D01*
X152000Y168244D02*
Y169064D01*
X152100Y168344D02*
Y168964D01*
X152200Y168444D02*
Y168864D01*
X152300Y168544D02*
Y168764D01*
X152400Y168644D02*
Y168664D01*
G54D11*
X113110Y169405D03*
Y166027D03*
G54D27*
X155753Y152074D02*
X156819Y153140D01*
Y156011*
X153276*
Y152074*
X155753*
X153276D02*
Y156011D01*
X153472Y152074D02*
Y156011D01*
X153669Y152074D02*
Y156011D01*
X153866Y152074D02*
Y156011D01*
X154063Y152074D02*
Y156011D01*
X154260Y152074D02*
Y156011D01*
X154457Y152074D02*
Y156011D01*
X154654Y152074D02*
Y156011D01*
X154850Y152074D02*
Y156011D01*
X155047Y152074D02*
Y156011D01*
X155244Y152074D02*
Y156011D01*
X155441Y152074D02*
Y156011D01*
X155638Y152074D02*
Y156011D01*
X155835Y152156D02*
Y156011D01*
X156031Y152353D02*
Y156011D01*
X156228Y152550D02*
Y156011D01*
X156425Y152746D02*
Y156011D01*
X156622Y152943D02*
Y156011D01*
X166407Y104727D02*
Y109173D01*
X161961Y104727*
X166407*
X166294Y109060D02*
X166407D01*
X165900Y108666D02*
X166407D01*
X165506Y108272D02*
X166407D01*
X165112Y107878D02*
X166407D01*
X164718Y107484D02*
X166407D01*
X164324Y107090D02*
X166407D01*
X163930Y106696D02*
X166407D01*
X163536Y106302D02*
X166407D01*
X163142Y105908D02*
X166407D01*
X162748Y105514D02*
X166407D01*
X162354Y105120D02*
X166407D01*
X166295Y104727D02*
Y109061D01*
X165901Y104727D02*
Y108667D01*
X165507Y104727D02*
Y108273D01*
X165113Y104727D02*
Y107879D01*
X164719Y104727D02*
Y107485D01*
X164325Y104727D02*
Y107091D01*
X163931Y104727D02*
Y106697D01*
X163537Y104727D02*
Y106303D01*
X163143Y104727D02*
Y105909D01*
X162749Y104727D02*
Y105515D01*
X162355Y104727D02*
Y105121D01*
G54D30*
X100000Y200394D02*
X170866D01*
Y100000*
X100000*
Y200394*
G54D36*
X137652Y154062D02*
Y157399D01*
X134315*
Y154062*
X137652*
X134578D02*
Y157399D01*
X134878Y154062D02*
Y157399D01*
X135178Y154062D02*
Y157399D01*
X135478Y154062D02*
Y157399D01*
X135778Y154062D02*
Y157399D01*
X136078Y154062D02*
Y157399D01*
X136378Y154062D02*
Y157399D01*
X136678Y154062D02*
Y157399D01*
X136978Y154062D02*
Y157399D01*
X137278Y154062D02*
Y157399D01*
X137578Y154062D02*
Y157399D01*
X137652Y148156D02*
Y151494D01*
X134315*
Y148156*
X137652*
X134578D02*
Y151494D01*
X134878Y148156D02*
Y151494D01*
X135178Y148156D02*
Y151494D01*
X135478Y148156D02*
Y151494D01*
X135778Y148156D02*
Y151494D01*
X136078Y148156D02*
Y151494D01*
X136378Y148156D02*
Y151494D01*
X136678Y148156D02*
Y151494D01*
X136978Y148156D02*
Y151494D01*
X137278Y148156D02*
Y151494D01*
X137578Y148156D02*
Y151494D01*
X137652Y142251D02*
Y145588D01*
X134315*
Y142251*
X137652*
X134578D02*
Y145588D01*
X134878Y142251D02*
Y145588D01*
X135178Y142251D02*
Y145588D01*
X135478Y142251D02*
Y145588D01*
X135778Y142251D02*
Y145588D01*
X136078Y142251D02*
Y145588D01*
X136378Y142251D02*
Y145588D01*
X136678Y142251D02*
Y145588D01*
X136978Y142251D02*
Y145588D01*
X137278Y142251D02*
Y145588D01*
X137578Y142251D02*
Y145588D01*
X131747Y142251D02*
Y145588D01*
X128409*
Y142251*
X131747*
X128578D02*
Y145588D01*
X128878Y142251D02*
Y145588D01*
X129178Y142251D02*
Y145588D01*
X129478Y142251D02*
Y145588D01*
X129778Y142251D02*
Y145588D01*
X130078Y142251D02*
Y145588D01*
X130378Y142251D02*
Y145588D01*
X130678Y142251D02*
Y145588D01*
X130978Y142251D02*
Y145588D01*
X131278Y142251D02*
Y145588D01*
X131578Y142251D02*
Y145588D01*
X125841Y142251D02*
Y145588D01*
X122504*
Y142251*
X125841*
X122578D02*
Y145588D01*
X122878Y142251D02*
Y145588D01*
X123178Y142251D02*
Y145588D01*
X123478Y142251D02*
Y145588D01*
X123778Y142251D02*
Y145588D01*
X124078Y142251D02*
Y145588D01*
X124378Y142251D02*
Y145588D01*
X124678Y142251D02*
Y145588D01*
X124978Y142251D02*
Y145588D01*
X125278Y142251D02*
Y145588D01*
X125578Y142251D02*
Y145588D01*
X125841Y148156D02*
Y151494D01*
X122504*
Y148156*
X125841*
X122578D02*
Y151494D01*
X122878Y148156D02*
Y151494D01*
X123178Y148156D02*
Y151494D01*
X123478Y148156D02*
Y151494D01*
X123778Y148156D02*
Y151494D01*
X124078Y148156D02*
Y151494D01*
X124378Y148156D02*
Y151494D01*
X124678Y148156D02*
Y151494D01*
X124978Y148156D02*
Y151494D01*
X125278Y148156D02*
Y151494D01*
X125578Y148156D02*
Y151494D01*
X125841Y154062D02*
Y157399D01*
X122504*
Y154062*
X125841*
X122578D02*
Y157399D01*
X122878Y154062D02*
Y157399D01*
X123178Y154062D02*
Y157399D01*
X123478Y154062D02*
Y157399D01*
X123778Y154062D02*
Y157399D01*
X124078Y154062D02*
Y157399D01*
X124378Y154062D02*
Y157399D01*
X124678Y154062D02*
Y157399D01*
X124978Y154062D02*
Y157399D01*
X125278Y154062D02*
Y157399D01*
X125578Y154062D02*
Y157399D01*
X131747Y154062D02*
Y157399D01*
X128409*
Y154062*
X131747*
X128578D02*
Y157399D01*
X128878Y154062D02*
Y157399D01*
X129178Y154062D02*
Y157399D01*
X129478Y154062D02*
Y157399D01*
X129778Y154062D02*
Y157399D01*
X130078Y154062D02*
Y157399D01*
X130378Y154062D02*
Y157399D01*
X130678Y154062D02*
Y157399D01*
X130978Y154062D02*
Y157399D01*
X131278Y154062D02*
Y157399D01*
X131578Y154062D02*
Y157399D01*
G54D123*
X108858Y168584D03*
Y165828D03*
G54D133*
X105197Y121600D02*
Y111200D01*
Y173031D02*
Y160143D01*
X166614Y136000D02*
Y173016D01*
Y126000D02*
Y104531D01*
Y173031D02*
X155906D01*
G54D134*
X127626Y114063D03*
Y118000D03*
Y121937D03*
Y125874D03*
X131563Y110126D03*
Y114063D03*
Y118000D03*
Y121937D03*
Y125874D03*
X135500Y110126D03*
Y114063D03*
Y118000D03*
Y121937D03*
Y125874D03*
X139437Y110126D03*
Y114063D03*
Y118000D03*
Y121937D03*
Y125874D03*
X143374Y110126D03*
Y114063D03*
Y118000D03*
Y121937D03*
Y125874D03*
G54D148*
X166407Y172819D02*
X161961D01*
X166407Y168373*
Y172819*
X162153Y172627D02*
X166407D01*
X162508Y172272D02*
X166407D01*
X162862Y171918D02*
X166407D01*
X163217Y171563D02*
X166407D01*
X163572Y171208D02*
X166407D01*
X163926Y170854D02*
X166407D01*
X164281Y170499D02*
X166407D01*
X164635Y170145D02*
X166407D01*
X164990Y169790D02*
X166407D01*
X165345Y169435D02*
X166407D01*
X165699Y169081D02*
X166407D01*
X166054Y168726D02*
X166407D01*
G54D172*
X142126Y173031D02*
X105197D01*
X166614Y104528D02*
X105197D01*
G54D209*
X130078Y149825D03*
X130078D03*
G54D210*
X155047Y154043D03*
X155047D03*
G54D211*
Y146956D03*
X160953D03*
Y154043D03*
G54D251*
X112792Y152375D03*
X110824D03*
X146969Y142985D03*
Y141016D03*
X148716Y158950D03*
X150684D03*
X116153Y169488D03*
Y167519D03*
X128265Y169478D03*
Y167510D03*
X116284Y133303D03*
X114316D03*
X159734Y142250D03*
X157766D03*
X147408Y172023D03*
Y170055D03*
X116284Y130887D03*
X114316D03*
X148716Y161375D03*
X150684D03*
X156574Y158750D03*
X158542D03*
X150684Y156000D03*
X148716D03*
X148250Y152185D03*
Y150216D03*
X149900Y142985D03*
Y141016D03*
X124600Y133334D03*
Y131365D03*
X119714Y133334D03*
Y131365D03*
X122178Y133334D03*
Y131365D03*
X127050Y133334D03*
Y131365D03*
X129450Y133334D03*
Y131365D03*
X130669Y169482D03*
X132638D03*
X115766Y121487D03*
X117734D03*
X115766Y123875D03*
X117734D03*
X143787Y133334D03*
Y131365D03*
X141343Y133334D03*
Y131365D03*
X138229Y133334D03*
Y131365D03*
X135840Y133334D03*
Y131365D03*
X133500Y133334D03*
Y131365D03*
G54D259*
X138739Y163309D03*
X137165D03*
X135590D03*
X134015D03*
X132440D03*
X130865D03*
X129291D03*
X127716D03*
X126141D03*
X124566D03*
X122991D03*
X121417D03*
X119842D03*
Y136341D03*
X121417D03*
X122991D03*
X124566D03*
X126141D03*
X127716D03*
X129291D03*
X130865D03*
X132440D03*
X134015D03*
X135590D03*
X137165D03*
X138739D03*
X140314D03*
G54D260*
X116594Y160061D03*
Y158486D03*
Y156912D03*
Y155337D03*
Y153762D03*
Y152187D03*
Y150612D03*
Y149038D03*
Y147463D03*
Y145888D03*
Y144313D03*
Y142738D03*
Y141164D03*
Y139589D03*
X143562D03*
Y141164D03*
Y142738D03*
Y144313D03*
Y145888D03*
Y147463D03*
Y149038D03*
Y150612D03*
Y152187D03*
Y153762D03*
Y155337D03*
Y156912D03*
Y158486D03*
G54D263*
X140314Y163309D03*
G54D264*
X143562Y160061D03*
X0Y0D02*
M02*
