*
*
G04 PADS VX.2 Build Number: 5060570 generated Gerber (RS-274-X) file*
G04 PC Version=2.1*
*
%IN "PCB_ESP32-S3-WROOM-2_V1"*%
*
%MOIN*%
*
%FSLAX35Y35*%
*
*
*
*
G04 PC Standard Apertures*
*
*
G04 Thermal Relief Aperture macro.*
%AMTER*
1,1,$1,0,0*
1,0,$1-$2,0,0*
21,0,$3,$4,0,0,45*
21,0,$3,$4,0,0,135*
%
*
*
G04 Annular Aperture macro.*
%AMANN*
1,1,$1,0,0*
1,0,$2,0,0*
%
*
*
G04 Odd Aperture macro.*
%AMODD*
1,1,$1,0,0*
1,0,$1-0.005,0,0*
%
*
*
G04 PC Custom Aperture Macros*
*
*
*
*
*
*
G04 PC Aperture Table*
*
%ADD010C,0.001*%
%ADD028C,0.015*%
%ADD029C,0.008*%
%ADD030C,0.01*%
%ADD037C,0.005*%
%ADD060C,0.025*%
%ADD131C,0.01575*%
%ADD145R,0.03543X0.03543*%
*
*
*
*
G04 PC Circuitry*
G04 Layer Name PCB_ESP32-S3-WROOM-2_V1 - circuitry*
%LPD*%
*
*
G04 PC Custom Flashes*
G04 Layer Name PCB_ESP32-S3-WROOM-2_V1 - flashes*
%LPD*%
*
*
G04 PC Circuitry*
G04 Layer Name PCB_ESP32-S3-WROOM-2_V1 - circuitry*
%LPD*%
*
G54D10*
G54D28*
G01X121935Y150500D02*
Y141158D01*
X124803Y138290*
X138638*
X139300Y138952*
X109753Y169250D02*
Y169759D01*
X110200Y170206*
X117381Y159598D02*
X121935Y155044D01*
Y150500*
X117381Y159598D02*
Y169131D01*
X118420Y170170*
X126450D02*
Y166705D01*
X126465*
X129745Y163425*
X136525*
X140900Y159050*
X144125*
G54D29*
X139755Y108222D02*
G75*
G03X140086Y108000I331J136D01*
X139755Y107778I0J-358*
G01X151722Y118182D02*
G03X151500Y117850I136J-332D01*
X151278Y118182I-358J0*
G01X139437Y108000D02*
X145250D01*
X151500Y114250*
Y118500*
G54D30*
X115865Y117364D02*
G03X115700Y117118I101J-246D01*
X115535Y117364I-266J-0*
G01X139096Y108341D02*
G03X139387Y108283I189J188D01*
G01X139154Y108050D02*
G03X139096Y108341I-246J102D01*
G01X115700Y117600D02*
Y116600D01*
X123800Y108500*
X138937*
X139437Y108000*
X114583Y152102D02*
G03X114641Y151811I246J-102D01*
X114350Y151869I-189J-188*
G01X114300Y152152D02*
X115952Y150500D01*
X121935*
X145968Y153466D02*
G03X146258Y153408I188J188D01*
G01X146025Y153176D02*
G03X145968Y153466I-245J102D01*
G01X144125Y159050D02*
Y155308D01*
X146308Y153125*
X146518Y159300D02*
G03X146764Y159465I0J266D01*
G01Y159135D02*
G03X146518Y159300I-246J-101D01*
G01X144125Y159050D02*
Y159300D01*
X147000*
X100000Y200394D02*
X170866D01*
Y100000*
X100000*
Y200394*
G54D37*
X136629Y116006D02*
G03X136737Y115463I459J-192D01*
X136194Y115570I-352J-352*
G01X136737Y115463D02*
X136480Y115719D01*
X136100Y116100D02*
X137600Y114600D01*
X145200*
X146400Y115800*
Y125800*
X113199Y101499D02*
G03X114735Y101803I541J1299D01*
X114431Y100266I996J-996*
G01X113653Y101341D02*
G03X114735Y101803I-33J1577D01*
G01X113907Y101170D02*
G03X114735Y101803I-1948J3409D01*
X114102Y100974I2777J-2777*
G01X114735Y101803D02*
G03X114274Y100721I1116J-1116D01*
G01X151700Y107200D02*
G03X152159Y107508I-0J497D01*
G01Y106892D02*
G03X151700Y107200I-459J-189D01*
G01X152063*
X112933Y100000D02*
X116683Y103750D01*
X146242*
X149750Y107200*
X152600*
X144718Y116931D02*
G03X145100Y117248I59J317D01*
X145313Y116558I1222J0*
G01X145004Y116897D02*
G03X145100Y117248I-599J351D01*
G01X144800Y116400D02*
X145100Y116700D01*
Y121200*
X141914Y116553D02*
G03X142350Y116250I436J163D01*
X141914Y115947I0J-466*
G01X142007Y116250D02*
X142350D01*
X141470*
X142350D02*
X143600Y117500D01*
Y120600*
X157933Y102549D02*
G03X158805Y101248I1408J0D01*
G01X157061D02*
G03X157933Y102549I-535J1301D01*
X158372Y101458I1578J0*
G01X157933Y102549D02*
G03X158072Y101516I3927J0D01*
G01X157795D02*
G03X157933Y102549I-3789J1033D01*
G01X157494Y101458D02*
G03X157933Y102549I-1139J1091D01*
G01X158207Y118652D02*
G03X158314Y119195I-352J352D01*
G01X158750Y118760D02*
G03X158207Y118652I-191J-459D01*
G01X158464Y118909*
X157933Y100000D02*
Y118378D01*
X158844Y119289*
X152592Y101483D02*
G03X154585Y101941I631J1821D01*
X154350Y100556I858J-858*
G01X153448Y101432D02*
G03X154585Y101941I-99J1746D01*
G01X153744Y101288D02*
G03X154585Y101941I-2176J3670D01*
X153965Y101119I2615J-2614*
G01X154585Y101941D02*
G03X154159Y100902I1028J-1028D01*
G01X156882Y120378D02*
G03X156989Y120920I-352J351D01*
G01X157425Y120485D02*
G03X156882Y120378I-192J-459D01*
G01X157138Y120634*
X152933Y100000D02*
Y100290D01*
X156743Y104100*
Y120239*
X157519Y121014*
X108058Y162949D02*
G03X107750Y162489I189J-460D01*
X107442Y162949I-497J0*
G01X107750Y162489D02*
Y162852D01*
X105750Y155500D02*
X107750Y157500D01*
Y163390*
X107933Y102549D02*
G03X108805Y101248I1408J0D01*
G01X107061D02*
G03X107933Y102549I-535J1301D01*
X108372Y101458I1578J0*
G01X107933Y102549D02*
G03X108072Y101516I3927J0D01*
G01X107795D02*
G03X107933Y102549I-3789J1033D01*
G01X107494Y101458D02*
G03X107933Y102549I-1139J1091D01*
G01X105750Y155500D02*
Y113000D01*
X107933Y110817*
Y100000*
X141042Y119427D02*
G03X141501Y119735I-0J497D01*
G01Y119119D02*
G03X141042Y119427I-459J-190D01*
G01X141404*
X129200Y123300D02*
X129850Y122650D01*
X136950*
X140173Y119427*
X141942*
X129200Y123300D02*
Y124900D01*
X129850Y125550*
X136650*
X137300Y126200*
X114300Y132100D02*
X117250Y135050D01*
Y137090*
X132600Y112125D02*
G03X133059Y112432I-0J497D01*
G01Y111817D02*
G03X132600Y112125I-459J-190D01*
G01X132963*
X114300Y132100D02*
Y122800D01*
X124975Y112125*
X133500*
X123855Y128505D02*
G03X124232Y129121I-1092J1091D01*
G01X124345Y128428D02*
G03X123855Y128505I-273J-141D01*
G01X124182Y128665D02*
G03X123855Y128505I71J-559D01*
G01X122200Y126850D02*
X124190Y128840D01*
X124690*
X138250Y116950D02*
G03X138527Y116611I346J0D01*
G01X137973D02*
G03X138250Y116950I-69J339D01*
G01Y116687*
X122200Y126850D02*
Y123700D01*
X126950Y118950*
X132550*
X133700Y117800*
X137400*
X138250Y116950*
Y116150*
X117623Y126623D02*
G03X117731Y127166I-351J351D01*
G01X118166Y126730D02*
G03X117623Y126623I-191J-459D01*
G01X117880Y126879*
X116900Y125900D02*
X118260Y127260D01*
X129350Y115375D02*
G03X129809Y115682I-0J497D01*
G01Y115067D02*
G03X129350Y115375I-459J-190D01*
G01X129713*
X116900Y125900D02*
Y123450D01*
X124975Y115375*
X130250*
X137363Y120011D02*
G03X137906Y119904I352J352D01*
G01X137471Y119468D02*
G03X137363Y120011I-459J192D01*
G01X137620Y119755*
X123800Y124300D02*
X124450Y123650D01*
X127200*
X127750Y123100*
Y121050*
X128250Y120550*
X133150*
X134300Y119400*
X135250*
X136150Y120300*
X137075*
X138000Y119375*
X128273Y128687D02*
G03X127965Y128227I190J-460D01*
X127657Y128687I-497J0*
G01X127965Y128227D02*
Y128590D01*
X123800Y124300D02*
Y125750D01*
X124450Y126400*
X127300*
X127965Y127065*
Y129128*
X132992Y116313D02*
G03X133535Y116205I351J351D01*
G01X133099Y115770D02*
G03X132992Y116313I-459J191D01*
G01X133248Y116056*
X120550Y122850D02*
X126150Y117250D01*
X132055*
X133629Y115676*
X120550Y128610D02*
G03X120401Y129317I-1753J0D01*
G01X120959Y128891D02*
G03X120550Y128610I-108J-281D01*
G01X120678Y128952D02*
G03X120550Y128610I392J-342D01*
G01Y122850D02*
Y129050D01*
X120927Y129428*
X134500Y130600D02*
G03X134808Y130140I497J-0D01*
G01X134192D02*
G03X134500Y130600I-189J460D01*
G01Y130237*
Y129700D02*
Y132800D01*
X135300Y133600*
X145000*
X148250Y130350*
Y128750*
X118396Y131832D02*
G03X118939Y131939I191J459D01*
X118831Y131397I351J-351*
G01X118939Y131939D02*
X118682Y131683D01*
X134800Y128000D02*
G03X135259Y128307I-0J497D01*
G01Y127692D02*
G03X134800Y128000I-459J-190D01*
G01X135163*
X118302Y131303D02*
X120499Y133500D01*
X132100*
X132800Y132800*
Y129200*
X134000Y128000*
X135700*
X117593Y136964D02*
G03X117250Y136329I417J-635D01*
X116937Y136714I-394J-0*
G01X117250Y136329D02*
G03X117224Y136692I-2583J-0D01*
G01X117120Y137220D02*
X117250Y137090D01*
X139700Y122800D02*
X140250Y123350D01*
X142750*
X143350Y123950*
Y124850*
X139700Y122800D02*
Y121700D01*
X140200Y121200*
X143000*
X143600Y120600*
X144450Y122950D02*
X145100Y123600D01*
Y125050*
X144450Y122950D02*
Y121850D01*
X145100Y121200*
X141263Y128663D02*
G03X141371Y129206I-351J351D01*
G01X141806Y128770D02*
G03X141263Y128663I-191J-459D01*
G01X141520Y128919*
X141900Y129300D02*
X141100Y128500D01*
Y127450*
X141550Y127000*
X143150*
X145100Y125050*
X138700Y129100D02*
G03X138692Y129425I-159J158D01*
G01X139026Y129091D02*
G03X138700Y129100I-167J-150D01*
G01X138820Y129219D02*
X138700Y129100D01*
X139200Y129600*
X138700Y129100D02*
Y126100D01*
X139300Y125500*
X142700*
X143350Y124850*
X137592Y129382D02*
G03X137300Y128722I602J-660D01*
X136958Y129081I-360J-0*
G01X137300Y128722D02*
G03X137246Y129082I-1222J-0D01*
G01X137100Y129600D02*
X137300Y129400D01*
Y126200*
X147094Y128029D02*
G03X147637Y128136I191J459D01*
X147529Y127593I351J-351*
G01X147637Y128136D02*
X147380Y127880D01*
X147000Y127500D02*
X148250Y128750D01*
X144608Y128859D02*
G03X144300Y128399I189J-460D01*
X143992Y128859I-497J0*
G01X144300Y128399D02*
Y128762D01*
Y129300D02*
Y127900D01*
X146400Y125800*
X140835Y147820D02*
G03X140826Y147324I235J-252D01*
X140164Y147614I-701J-701*
G01X140623Y147626D02*
G03X140826Y147324I876J371D01*
G01X168317Y150906D02*
G03X169619Y151778I0J1408D01*
G01Y150034D02*
G03X168317Y150906I-1302J-536D01*
X169409Y151345I0J1578*
G01X168317Y150906D02*
G03X169351Y151044I0J3927D01*
G01Y150768D02*
G03X168317Y150906I-1034J-3789D01*
G01X169409Y150467D02*
G03X168317Y150906I-1092J-1139D01*
G01X140380Y148106D02*
Y147770D01*
X146400Y141750*
X148400*
X151250Y138900*
X163481*
X166250Y141669*
Y149630*
X167526Y150906*
X170866*
X152179Y140606D02*
G03X152287Y140063I459J-191D01*
X151744Y140171I-352J-351*
G01X152287Y140063D02*
X152030Y140320D01*
X169064Y154104D02*
G03X169368Y155641I-995J995D01*
G01X170601Y154408D02*
G03X169064Y154104I-542J-1300D01*
X169526Y155186I-1116J1115*
G01X169064Y154104D02*
G03X169697Y154932I-2777J2776D01*
G01X169893Y154737D02*
G03X169064Y154104I1947J-3410D01*
G01X170146Y154565D02*
G03X169064Y154104I33J-1577D01*
G01X151650Y140700D02*
X152450Y139900D01*
X163000*
X165250Y142150*
Y150290*
X170866Y155906*
X136407Y159081D02*
G03X136515Y158538I459J-191D01*
X135972Y158646I-352J-351*
G01X136515Y158538D02*
X136258Y158795D01*
X168317Y105906D02*
G03X169619Y106778I0J1408D01*
G01Y105034D02*
G03X168317Y105906I-1302J-536D01*
X169409Y106345I0J1578*
G01X168317Y105906D02*
G03X169351Y106044I0J3927D01*
G01Y105768D02*
G03X168317Y105906I-1034J-3789D01*
G01X169409Y105467D02*
G03X168317Y105906I-1092J-1139D01*
G01X135878Y159175D02*
X137640Y157413D01*
Y145260*
X149650Y133250*
X152650*
X163250Y122650*
Y110905*
X168249Y105906*
X170866*
X107650Y170514D02*
X107892Y170756D01*
X110750*
Y168056*
X107650*
Y170514*
X143425Y159525D02*
Y158729D01*
X143897Y158256*
X144153*
X144947Y159051*
Y159525*
X143425*
X122175Y151175D02*
X121379D01*
X120906Y150703*
Y150447*
X121701Y149653*
X122175*
Y151175*
X107891Y170755D02*
X110750D01*
X107650Y170305D02*
X110750D01*
X107650Y169855D02*
X110750D01*
X107650Y169405D02*
X110750D01*
X107650Y168955D02*
X110750D01*
X107650Y168505D02*
X110750D01*
X143425Y159155D02*
X144947D01*
X143449Y158705D02*
X144601D01*
X121205Y151002D02*
X122175D01*
X120906Y150552D02*
X122175D01*
X121252Y150102D02*
X122175D01*
X163788Y131125D02*
G03X163788I-1538J0D01*
G01X115438Y136750D02*
G03X115438I-1538J0D01*
G01X120266Y153600D02*
G03X120266I-1538J0D01*
G01X134288Y166600D02*
G03X134288I-1538J0D01*
G01X169616Y176458D02*
G03X169553Y176521I-63J-0D01*
G01X101314*
G03X101250Y176458I-0J-63*
G01Y169456*
G03X101314Y169392I64J-0*
G01X102770*
X102901Y169355D02*
G03X102770Y169392I-131J-213D01*
G01X102901Y169355D02*
G03X102979Y169364I34J54D01*
G01X104280Y170664*
X105694Y171250D02*
G03X104280Y170664I0J-2000D01*
G01X105694Y171250D02*
X106946D01*
G03X106990Y171269I-0J64*
G01X107185Y171463*
X107892Y171756D02*
G03X107185Y171463I0J-1000D01*
G01X107892Y171756D02*
X110750D01*
X111750Y170756D02*
G03X110750Y171756I-1000J0D01*
G01X111750Y170756D02*
Y169361D01*
G03Y169358I64J0*
G01X111753Y169250D02*
G03X111750Y169358I-2000J-0D01*
G01Y169142D02*
G03X111753Y169250I-1997J108D01*
G01X111750Y169142D02*
G03Y169139I64J-3D01*
G01Y168056*
X110750Y167056D02*
G03X111750Y168056I0J1000D01*
G01X110750Y167056D02*
X107650D01*
X107074Y167238D02*
G03X107650Y167056I576J818D01*
G01X107074Y167238D02*
G03X107038Y167250I-36J-52D01*
G01X106549*
G03X106504Y167231I-0J-64*
G01X104214Y164942*
X103075Y164375D02*
G03X104214Y164942I-275J1981D01*
G01X103075Y164375D02*
G03X103020Y164312I9J-63D01*
G01Y103136*
X102770Y102886D02*
G03X103020Y103136I0J250D01*
G01X102770Y102886D02*
X101314D01*
G03X101250Y102822I-0J-64*
G01Y101314*
G03X101314Y101250I64J-0*
G01X104846*
G03X104910Y101314I0J64*
G01Y102766*
X105160Y103016D02*
G03X104910Y102766I0J-250D01*
G01X105160Y103016D02*
X106870D01*
G03X106933Y103080I-0J64*
G01Y110376*
G03X106914Y110421I-63J0*
G01X105043Y112293*
X104750Y113000D02*
G03X105043Y112293I1000J0D01*
G01X104750Y113000D02*
Y155500D01*
X105043Y156208D02*
G03X104750Y155500I707J-708D01*
G01X105043Y156208D02*
X106731Y157896D01*
G03X106750Y157941I-45J45*
G01Y162193*
G03X106729Y162240I-64J-0*
G01X106212Y163390D02*
G03X106729Y162240I1538J-0D01*
G01X109288Y163390D02*
G03X106212I-1538J-0D01*
G01X108771Y162240D02*
G03X109288Y163390I-1021J1150D01*
G01X108771Y162240D02*
G03X108750Y162193I43J-47D01*
G01Y157500*
X108457Y156793D02*
G03X108750Y157500I-707J707D01*
G01X108457Y156793D02*
X106769Y155104D01*
G03X106750Y155059I45J-45*
G01Y113441*
G03X106769Y113396I64J-0*
G01X108640Y111524*
X108933Y110817D02*
G03X108640Y111524I-1000J-0D01*
G01X108933Y110817D02*
Y103080D01*
G03X108997Y103016I64J-0*
G01X114508*
G03X114553Y103035I0J64*
G01X115975Y104457*
X116683Y104750D02*
G03X115975Y104457I-0J-1000D01*
G01X116683Y104750D02*
X145806D01*
G03X145851Y104768I0J64*
G01X149049Y107913*
X149750Y108200D02*
G03X149049Y107913I0J-1000D01*
G01X149750Y108200D02*
X151403D01*
G03X151451Y108221I0J64*
G01X154138Y107200D02*
G03X151451Y108221I-1538J0D01*
G01Y106179D02*
G03X154138Y107200I1149J1021D01*
G01X151451Y106179D02*
G03X151403Y106200I-48J-43D01*
G01X150185*
G03X150141Y106182I0J-64*
G01X147032Y103125*
G03X147013Y103080I45J-45*
X147077Y103016I64J-0*
G01X154219*
G03X154264Y103035I-0J64*
G01X155725Y104496*
G03X155743Y104540I-45J44*
G01Y120239*
X155970Y120873D02*
G03X155743Y120239I773J-634D01*
G01X155970Y120873D02*
G03X155984Y120913I-49J40D01*
G01X155984*
G03Y120917I-63J0*
G01X155981Y121014D02*
G03X155984Y120917I1538J0D01*
G01X159056Y121014D02*
G03X155981I-1537J0D01*
G01X159056D02*
X159056D01*
X159050Y120873D02*
G03X159056Y121014I-1531J141D01*
G01X159050Y120873D02*
G03X159049Y120867I63J-6D01*
X159102Y120805I64J0*
G01X160381Y119289D02*
G03X159102Y120805I-1537J0D01*
G01X158991Y117759D02*
G03X160381Y119289I-147J1530D01*
G01X158991Y117759D02*
G03X158933Y117695I6J-64D01*
G01Y103080*
G03X158997Y103016I64J-0*
G01X165700*
X165950Y102766D02*
G03X165700Y103016I-250J0D01*
G01X165950Y102766D02*
Y101314D01*
G03X166014Y101250I64J-0*
G01X169553*
G03X169616Y101314I-0J64*
G01Y102592*
G03X169553Y102656I-63J0*
G01X168096*
X167846Y102906D02*
G03X168096Y102656I250J0D01*
G01X167846Y102906D02*
Y104950D01*
G03X167810Y105007I-64J0*
G01X167542Y105199D02*
G03X167810Y105007I707J707D01*
G01X167542Y105199D02*
X162543Y110198D01*
X162250Y110905D02*
G03X162543Y110198I1000J0D01*
G01X162250Y110905D02*
Y122209D01*
G03X162231Y122254I-64J0*
G01X152254Y132231*
G03X152209Y132250I-45J-45*
G01X149650*
X148943Y132543D02*
G03X149650Y132250I707J707D01*
G01X148943Y132543D02*
X136933Y144553D01*
X136640Y145260D02*
G03X136933Y144553I1000J0D01*
G01X136640Y145260D02*
Y156972D01*
G03X136621Y157017I-64J0*
G01X136017Y157622*
G03X135968Y157640I-45J-45*
G01X134340Y159175D02*
G03X135968Y157640I1538J0D01*
G01X137416Y159175D02*
G03X134340I-1538J0D01*
G01X137413Y159085D02*
G03X137416Y159175I-1535J90D01*
G01X137413Y159085D02*
G03Y159081I63J-4D01*
X137431Y159036I63J-0*
G01X138347Y158120*
X138640Y157413D02*
G03X138347Y158120I-1000J-0D01*
G01X138640Y157413D02*
Y145701D01*
G03X138659Y145656I64J-0*
G01X150046Y134269*
G03X150091Y134250I45J45*
G01X152650*
X153357Y133957D02*
G03X152650Y134250I-707J-707D01*
G01X153357Y133957D02*
X163957Y123357D01*
X164250Y122650D02*
G03X163957Y123357I-1000J-0D01*
G01X164250Y122650D02*
Y111346D01*
G03X164269Y111301I64J-0*
G01X167738Y107832*
G03X167846Y107877I44J45*
G01Y149658*
G03X167738Y149703I-64J-0*
G01X167269Y149234*
G03X167250Y149189I45J-45*
G01Y141669*
X166957Y140962D02*
G03X167250Y141669I-707J707D01*
G01X166957Y140962D02*
X164188Y138193D01*
X163481Y137900D02*
G03X164188Y138193I-0J1000D01*
G01X163481Y137900D02*
X151250D01*
X150543Y138193D02*
G03X151250Y137900I707J707D01*
G01X150543Y138193D02*
X148004Y140731D01*
G03X147959Y140750I-45J-45*
G01X146400*
X145693Y141043D02*
G03X146400Y140750I707J707D01*
G01X145693Y141043D02*
X140165Y146571D01*
G03X140130Y146589I-45J-45*
G01X139768Y146695D02*
G03X140130Y146589I612J1411D01*
G01X139768Y146695D02*
X139768D01*
X139759Y146700D02*
G03X139768Y146695I405J914D01*
G01X139759Y146700D02*
X139758D01*
X138842Y148106D02*
G03X139758Y146700I1538J-0D01*
G01X141918Y148106D02*
G03X138842I-1538J-0D01*
G01X141918D02*
X141918D01*
X141872Y147735D02*
G03X141918Y148106I-1492J371D01*
G01X141872Y147735D02*
G03X141870Y147720I62J-15D01*
X141889Y147675I64J0*
G01X146796Y142769*
G03X146841Y142750I45J45*
G01X148400*
X149107Y142457D02*
G03X148400Y142750I-707J-707D01*
G01X149107Y142457D02*
X150180Y141384D01*
G03X150281Y141400I45J45*
G01X153167Y140953D02*
G03X150281Y141400I-1517J-253D01*
G01X153167Y140953D02*
G03X153229Y140900I62J11D01*
G01X162559*
G03X162604Y140919I0J64*
G01X164231Y142546*
G03X164250Y142591I-45J45*
G01Y150290*
X164543Y150997D02*
G03X164250Y150290I707J-707D01*
G01X164543Y150997D02*
X167827Y154281D01*
G03X167846Y154326I-45J45*
G01Y169150*
X168096Y169400D02*
G03X167846Y169150I0J-250D01*
G01X168096Y169400D02*
X169553D01*
G03X169616Y169464I-0J64*
G01Y176458*
X152665Y117497D02*
G03X153038Y118500I-1165J1003D01*
G01X152665Y117497D02*
G03X152650Y117455I49J-42D01*
G01Y114250*
X152313Y113437D02*
G03X152650Y114250I-813J813D01*
G01X152313Y113437D02*
X146063Y107187D01*
X145250Y106850D02*
G03X146063Y107187I-0J1150D01*
G01X145250Y106850D02*
X140481D01*
G03X140440Y106835I0J-64*
G01X138113Y107219D02*
G03X140440Y106835I1324J781D01*
G01X138113Y107219D02*
G03X138058Y107250I-55J-33D01*
G01X123800*
X122916Y107616D02*
G03X123800Y107250I884J884D01*
G01X122916Y107616D02*
X114816Y115716D01*
X114450Y116600D02*
G03X114816Y115716I1250J0D01*
G01X114450Y116600D02*
Y116684D01*
G03X114439Y116720I-64J0*
G01X114162Y117600D02*
G03X114439Y116720I1538J-0D01*
G01X117238Y117600D02*
G03X114162I-1538J-0D01*
G01X117118Y117005D02*
G03X117238Y117600I-1418J595D01*
G01X117118Y117005D02*
G03X117113Y116981I59J-24D01*
X117132Y116936I64J-0*
G01X124299Y109769*
G03X124344Y109750I45J45*
G01X138937*
X139645Y109530D02*
G03X138937Y109750I-708J-1030D01*
G01X139645Y109530D02*
G03X139672Y109520I36J52D01*
G01X140440Y109165D02*
G03X139672Y109520I-1003J-1165D01*
G01X140440Y109165D02*
G03X140481Y109150I41J49D01*
G01X144747*
G03X144792Y109169I0J64*
G01X150331Y114708*
G03X150350Y114753I-45J45*
G01Y117455*
G03X150335Y117497I-64J0*
G01X149962Y118500D02*
G03X150335Y117497I1538J-0D01*
G01X153038Y118500D02*
G03X149962I-1538J-0D01*
G01X149750Y130350D02*
Y128750D01*
X149311Y127689D02*
G03X149750Y128750I-1061J1061D01*
G01X149311Y127689D02*
X149031Y127409D01*
G03X149013Y127374I45J-45*
G01X147921Y126145D02*
G03X149013Y127374I-392J1448D01*
G01X147921Y126145D02*
G03X147874Y126084I16J-61D01*
X147875Y126072I63J-0*
G01X147900Y125800D02*
G03X147875Y126072I-1500J-0D01*
G01X147900Y125800D02*
Y115800D01*
X147461Y114739D02*
G03X147900Y115800I-1061J1061D01*
G01X147461Y114739D02*
X146261Y113539D01*
X145200Y113100D02*
G03X146261Y113539I0J1500D01*
G01X145200Y113100D02*
X137600D01*
X137072Y113195D02*
G03X137600Y113100I528J1405D01*
G01X137072Y113195D02*
G03X137050Y113200I-22J-59D01*
G01X134741*
G03X134678Y113136I0J-64*
X134692Y113096I63J0*
G01X135038Y112125D02*
G03X134692Y113096I-1538J-0D01*
G01X132351Y111103D02*
G03X135038Y112125I1149J1022D01*
G01X132351Y111103D02*
G03X132303Y111125I-48J-42D01*
G01X124975*
X124268Y111417D02*
G03X124975Y111125I707J708D01*
G01X124268Y111417D02*
X113593Y122092D01*
X113300Y122800D02*
G03X113593Y122092I1000J-0D01*
G01X113300Y122800D02*
Y132100D01*
X113593Y132808D02*
G03X113300Y132100I707J-708D01*
G01X113593Y132808D02*
X116231Y135446D01*
G03X116250Y135491I-45J45*
G01Y135919*
G03X116224Y135970I-64J-0*
G01X115582Y137220D02*
G03X116224Y135970I1538J-0D01*
G01X118658Y137220D02*
G03X115582I-1538J-0D01*
G01X118266Y136195D02*
G03X118658Y137220I-1146J1025D01*
G01X118266Y136195D02*
G03X118250Y136152I48J-43D01*
G01Y135163*
G03X118314Y135100I64J0*
G01X145000*
X146061Y134660D02*
G03X145000Y135100I-1061J-1060D01*
G01X146061Y134660D02*
X149311Y131410D01*
X149750Y130350D02*
G03X149311Y131410I-1500J-0D01*
G01X140128Y137656D02*
G03X140838Y138952I-828J1296D01*
G01X140128Y137656D02*
G03X140117Y137648I34J-53D01*
G01X139698Y137229*
X138638Y136790D02*
G03X139698Y137229I-0J1500D01*
G01X138638Y136790D02*
X124803D01*
X123742Y137229D02*
G03X124803Y136790I1061J1061D01*
G01X123742Y137229D02*
X120874Y140097D01*
X120435Y141158D02*
G03X120874Y140097I1500J-0D01*
G01X120435Y141158D02*
Y149186D01*
G03X120371Y149250I-64J0*
G01X115952*
X115068Y149616D02*
G03X115952Y149250I884J884D01*
G01X115068Y149616D02*
X114063Y150621D01*
G03X114030Y150638I-45J-45*
G01X112762Y152152D02*
G03X114030Y150638I1538J0D01*
G01X113134Y153154D02*
G03X112762Y152152I1166J-1002D01*
G01X113134Y153154D02*
G03X113149Y153196I-48J42D01*
X113121Y153248I-63J-0*
G01X112440Y154525D02*
G03X113121Y153248I1538J0D01*
G01X112659Y155315D02*
G03X112440Y154525I1319J-790D01*
G01X112659Y155315D02*
G03X112668Y155347I-55J32D01*
X112565Y155397I-64J0*
G01X110082Y156610D02*
G03X112565Y155397I1538J0D01*
G01X112697Y157707D02*
G03X110082Y156610I-1077J-1097D01*
G01X112697Y157707D02*
G03X112787Y157708I44J46D01*
G01X113823Y158162D02*
G03X112787Y157708I55J-1537D01*
G01X113823Y158162D02*
G03X113878Y158198I-2J63D01*
X113933Y158162I57J27*
G01X115416Y156625D02*
G03X113933Y158162I-1538J0D01*
G01X115084Y155672D02*
G03X115416Y156625I-1206J953D01*
G01X115084Y155672D02*
G03X115071Y155632I50J-40D01*
X115088Y155589I63J0*
G01X115516Y154525D02*
G03X115088Y155589I-1538J0D01*
G01X115144Y153523D02*
G03X115516Y154525I-1166J1002D01*
G01X115144Y153523D02*
G03X115129Y153481I48J-42D01*
X115157Y153429I63J0*
G01X115814Y152422D02*
G03X115157Y153429I-1514J-270D01*
G01X115814Y152422D02*
G03X115831Y152389I62J12D01*
G01X116451Y151769*
G03X116496Y151750I45J45*
G01X120371*
G03X120435Y151814I0J64*
G01Y154396*
G03X120416Y154441I-64J0*
G01X116320Y158537*
X115881Y159598D02*
G03X116320Y158537I1500J0D01*
G01X115881Y159598D02*
Y169131D01*
X116320Y170191D02*
G03X115881Y169131I1061J-1060D01*
G01X116320Y170191D02*
X117116Y170987D01*
G03X117124Y170997I-45J45*
G01X119958Y170170D02*
G03X117124Y170997I-1538J-0D01*
G01X119248Y168874D02*
G03X119958Y170170I-828J1296D01*
G01X119248Y168874D02*
G03X119237Y168865I34J-54D01*
G01X118900Y168528*
G03X118881Y168483I45J-45*
G01Y160246*
G03X118900Y160201I64J-0*
G01X122996Y156105*
X123435Y155044D02*
G03X122996Y156105I-1500J0D01*
G01X123435Y155044D02*
Y141805D01*
G03X123454Y141760I64J0*
G01X125406Y139808*
G03X125451Y139790I45J45*
G01X137977*
G03X138029Y139817I-0J63*
G01X140838Y138952D02*
G03X138029Y139817I-1538J0D01*
G01X163788Y131125D02*
G03X163788I-1538J0D01*
G01X148356Y145846D02*
G03X149048Y147130I-846J1284D01*
G01X148356Y145846D02*
G03X148327Y145793I35J-53D01*
X148336Y145762I64J0*
G01X148538Y145000D02*
G03X148336Y145762I-1538J0D01*
G01X145462Y145000D02*
G03X148538I1538J0D01*
G01X146154Y146284D02*
G03X145462Y145000I846J-1284D01*
G01X146154Y146284D02*
G03X146183Y146337I-35J53D01*
X146174Y146369I-64J0*
G01X145972Y147130D02*
G03X146174Y146369I1538J0D01*
G01X149048Y147130D02*
G03X145972I-1538J0D01*
G01X146121Y158039D02*
G03X148538Y159300I879J1261D01*
G01X146121Y158039D02*
G03X146085Y158050I-36J-53D01*
G01X145439*
G03X145375Y157986I-0J-64*
G01Y155853*
G03X145394Y155808I64J-0*
G01X146545Y154657*
G03X146578Y154639I45J44*
G01X147846Y153125D02*
G03X146578Y154639I-1538J0D01*
G01X144795Y152855D02*
G03X147846Y153125I1513J270D01*
G01X144795Y152855D02*
G03X144777Y152889I-63J-11D01*
G01X143241Y154425*
X142875Y155308D02*
G03X143241Y154425I1250J0D01*
G01X142875Y155308D02*
Y157486D01*
G03X142811Y157550I-64J0*
G01X140900*
X139839Y157989D02*
G03X140900Y157550I1061J1061D01*
G01X139839Y157989D02*
X135922Y161906D01*
G03X135877Y161925I-45J-45*
G01X129745*
X128684Y162364D02*
G03X129745Y161925I1061J1061D01*
G01X128684Y162364D02*
X125525Y165523D01*
G03X125520Y165528I-45J-45*
G01X124950Y166705D02*
G03X125520Y165528I1500J-0D01*
G01X124950Y166705D02*
Y169825D01*
G03X124948Y169839I-64J0*
G01X124912Y170170D02*
G03X124948Y169839I1538J-0D01*
G01X127988Y170170D02*
G03X124912I-1538J-0D01*
G01X127952Y169839D02*
G03X127988Y170170I-1502J331D01*
G01X127952Y169839D02*
G03X127950Y169825I62J-14D01*
G01Y167367*
G03X127969Y167322I64J0*
G01X130347Y164944*
G03X130392Y164925I45J45*
G01X136525*
X137586Y164486D02*
G03X136525Y164925I-1061J-1061D01*
G01X137586Y164486D02*
X141503Y160569D01*
G03X141548Y160550I45J45*
G01X146085*
G03X146121Y160561I-0J64*
G01X148538Y159300D02*
G03X146121Y160561I-1538J0D01*
G01X139462Y152406D02*
G03X142538I1538J-0D01*
G01X139590Y153019D02*
G03X139462Y152406I1410J-613D01*
G01X139590Y153019D02*
G03X139595Y153045I-58J26D01*
X139565Y153099I-63J-0*
G01X138837Y154406D02*
G03X139565Y153099I1538J-0D01*
G01X141913Y154406D02*
G03X138837I-1538J-0D01*
G01X141785Y153792D02*
G03X141913Y154406I-1410J614D01*
G01X141785Y153792D02*
G03X141780Y153767I58J-25D01*
X141810Y153713I63J0*
G01X142538Y152406D02*
G03X141810Y153713I-1538J-0D01*
G01X131776Y158843D02*
G03X133988Y160225I674J1382D01*
G01X131776Y158843D02*
G03X131694Y158820I-28J-57D01*
G01X128862Y159650D02*
G03X131694Y158820I1538J0D01*
G01X131074Y161032D02*
G03X128862Y159650I-674J-1382D01*
G01X131074Y161032D02*
G03X131156Y161055I28J57D01*
G01X133988Y160225D02*
G03X131156Y161055I-1538J0D01*
G01X115438Y136750D02*
G03X115438I-1538J0D01*
G01X120266Y153600D02*
G03X120266I-1538J0D01*
G01X126101Y159402D02*
G03X128538Y160650I899J1248D01*
G01X126101Y159402D02*
G03X126018Y159395I-37J-51D01*
G01X123868Y159311D02*
G03X126018Y159395I1032J1139D01*
G01X123868Y159311D02*
G03X123782I-43J-47D01*
G01X121563Y159473D02*
G03X123782Y159311I1187J977D01*
G01X121563Y159473D02*
G03X121480Y159487I-50J-40D01*
G01X119142Y160800D02*
G03X121480Y159487I1538J0D01*
G01X121867Y161777D02*
G03X119142Y160800I-1187J-977D01*
G01X121868Y161777D02*
G03X121950Y161763I49J40D01*
G01X123782Y161589D02*
G03X121950Y161763I-1032J-1139D01*
G01X123782Y161589D02*
G03X123868I43J47D01*
G01X125799Y161698D02*
G03X123868Y161589I-899J-1248D01*
G01X125799Y161698D02*
G03X125882Y161705I37J51D01*
G01X128538Y160650D02*
G03X125882Y161705I-1538J0D01*
G01X139000Y169715D02*
Y169200D01*
X138927Y169023D02*
G03X139000Y169200I-177J177D01*
G01X138927Y169023D02*
X137477Y167573D01*
X137300Y167500D02*
G03X137477Y167573I-0J250D01*
G01X137300Y167500D02*
X136800D01*
X136623Y167573D02*
G03X136800Y167500I177J177D01*
G01X136623Y167573D02*
X134408Y169788D01*
X134335Y169965D02*
G03X134408Y169788I250J-0D01*
G01X134335Y169965D02*
Y170925D01*
X134408Y171102D02*
G03X134335Y170925I177J-177D01*
G01X134408Y171102D02*
X135253Y171947D01*
X135430Y172020D02*
G03X135253Y171947I0J-250D01*
G01X135430Y172020D02*
X136695D01*
X136872Y171947D02*
G03X136695Y172020I-177J-177D01*
G01X136872Y171947D02*
X138927Y169892D01*
X139000Y169715D02*
G03X138927Y169892I-250J-0D01*
G01X134288Y166600D02*
G03X134288I-1538J0D01*
G01X113933Y158288D02*
G03X115416Y159825I-55J1537D01*
G01X113933Y158288D02*
G03X113878Y158252I2J-63D01*
X113823Y158288I-57J-27*
G01X112822Y158708D02*
G03X113823Y158288I1056J1117D01*
G01X112822Y158708D02*
G03X112734I-44J-46D01*
G01X110140Y159825D02*
G03X112734Y158708I1538J0D01*
G01Y160942D02*
G03X110140Y159825I-1056J-1117D01*
G01X112734Y160942D02*
G03X112822I44J46D01*
G01X115416Y159825D02*
G03X112822Y160942I-1538J0D01*
G01X101250Y176399D02*
X169616D01*
X101250Y175949D02*
X169616D01*
X101250Y175499D02*
X169616D01*
X101250Y175049D02*
X169616D01*
X101250Y174599D02*
X169616D01*
X101250Y174149D02*
X169616D01*
X101250Y173699D02*
X169616D01*
X101250Y173249D02*
X169616D01*
X101250Y172799D02*
X169616D01*
X101250Y172349D02*
X169616D01*
X136920Y171899D02*
X169616D01*
X137370Y171449D02*
X169616D01*
X137820Y170999D02*
X169616D01*
X138270Y170549D02*
X169616D01*
X138720Y170099D02*
X169616D01*
X139000Y169649D02*
X169616D01*
X165950Y102149D02*
X169616D01*
X165950Y101699D02*
X169616D01*
X165950Y102599D02*
X169616D01*
X139000Y169199D02*
X167851D01*
X138652Y168749D02*
X167846D01*
X138202Y168299D02*
X167846D01*
X137752Y167849D02*
X167846D01*
X134064Y167399D02*
X167846D01*
X134247Y166949D02*
X167846D01*
X134284Y166499D02*
X167846D01*
X134185Y166049D02*
X167846D01*
X133917Y165599D02*
X167846D01*
X133258Y165149D02*
X167846D01*
X137317Y164699D02*
X167846D01*
X137823Y164249D02*
X167846D01*
X138273Y163799D02*
X167846D01*
X138723Y163349D02*
X167846D01*
X139173Y162899D02*
X167846D01*
X139623Y162449D02*
X167846D01*
X140073Y161999D02*
X167846D01*
X140523Y161549D02*
X167846D01*
X140973Y161099D02*
X167846D01*
X147738Y160649D02*
X167846D01*
X148248Y160199D02*
X167846D01*
X148471Y159749D02*
X167846D01*
X148538Y159299D02*
X167846D01*
X148470Y158849D02*
X167846D01*
X148246Y158399D02*
X167846D01*
X147733Y157949D02*
X167846D01*
X145375Y157499D02*
X167846D01*
X145375Y157049D02*
X167846D01*
X145375Y156599D02*
X167846D01*
X145375Y156149D02*
X167846D01*
X145503Y155699D02*
X167846D01*
X145953Y155249D02*
X167846D01*
X146403Y154799D02*
X167846D01*
X147239Y154349D02*
X167846D01*
X167433Y149399D02*
X167846D01*
X167250Y148949D02*
X167846D01*
X167250Y148499D02*
X167846D01*
X167250Y148049D02*
X167846D01*
X167250Y147599D02*
X167846D01*
X167250Y147149D02*
X167846D01*
X167250Y146699D02*
X167846D01*
X167250Y146249D02*
X167846D01*
X167250Y145799D02*
X167846D01*
X167250Y145349D02*
X167846D01*
X167250Y144899D02*
X167846D01*
X167250Y144449D02*
X167846D01*
X167250Y143999D02*
X167846D01*
X167250Y143549D02*
X167846D01*
X167250Y143099D02*
X167846D01*
X167250Y142649D02*
X167846D01*
X167250Y142199D02*
X167846D01*
X167250Y141749D02*
X167846D01*
X167179Y141299D02*
X167846D01*
X166844Y140849D02*
X167846D01*
X166394Y140399D02*
X167846D01*
X165944Y139949D02*
X167846D01*
X165494Y139499D02*
X167846D01*
X165044Y139049D02*
X167846D01*
X164594Y138599D02*
X167846D01*
X164141Y138149D02*
X167846D01*
X146616Y137699D02*
X167846D01*
X147066Y137249D02*
X167846D01*
X147516Y136799D02*
X167846D01*
X147966Y136349D02*
X167846D01*
X148416Y135899D02*
X167846D01*
X148866Y135449D02*
X167846D01*
X149316Y134999D02*
X167846D01*
X149766Y134549D02*
X167846D01*
X153179Y134099D02*
X167846D01*
X153666Y133649D02*
X167846D01*
X154116Y133199D02*
X167846D01*
X154566Y132749D02*
X167846D01*
X163243Y132299D02*
X167846D01*
X163606Y131849D02*
X167846D01*
X163763Y131399D02*
X167846D01*
X163777Y130949D02*
X167846D01*
X163654Y130499D02*
X167846D01*
X163348Y130049D02*
X167846D01*
X162439Y129599D02*
X167846D01*
X158166Y129149D02*
X167846D01*
X158616Y128699D02*
X167846D01*
X159066Y128249D02*
X167846D01*
X159516Y127799D02*
X167846D01*
X159966Y127349D02*
X167846D01*
X160416Y126899D02*
X167846D01*
X160866Y126449D02*
X167846D01*
X161316Y125999D02*
X167846D01*
X161766Y125549D02*
X167846D01*
X162216Y125099D02*
X167846D01*
X162666Y124649D02*
X167846D01*
X163116Y124199D02*
X167846D01*
X163566Y123749D02*
X167846D01*
X164011Y123299D02*
X167846D01*
X164230Y122849D02*
X167846D01*
X164250Y122399D02*
X167846D01*
X164250Y121949D02*
X167846D01*
X164250Y121499D02*
X167846D01*
X164250Y121049D02*
X167846D01*
X164250Y120599D02*
X167846D01*
X164250Y120149D02*
X167846D01*
X164250Y119699D02*
X167846D01*
X164250Y119249D02*
X167846D01*
X164250Y118799D02*
X167846D01*
X164250Y118349D02*
X167846D01*
X164250Y117899D02*
X167846D01*
X164250Y117449D02*
X167846D01*
X164250Y116999D02*
X167846D01*
X164250Y116549D02*
X167846D01*
X164250Y116099D02*
X167846D01*
X164250Y115649D02*
X167846D01*
X164250Y115199D02*
X167846D01*
X164250Y114749D02*
X167846D01*
X164250Y114299D02*
X167846D01*
X164250Y113849D02*
X167846D01*
X164250Y113399D02*
X167846D01*
X164250Y112949D02*
X167846D01*
X164250Y112499D02*
X167846D01*
X164250Y112049D02*
X167846D01*
X164250Y111599D02*
X167846D01*
X164421Y111149D02*
X167846D01*
X164871Y110699D02*
X167846D01*
X165321Y110249D02*
X167846D01*
X165771Y109799D02*
X167846D01*
X166221Y109349D02*
X167846D01*
X166671Y108899D02*
X167846D01*
X167121Y108449D02*
X167846D01*
X167571Y107999D02*
X167846D01*
X158933Y104849D02*
X167846D01*
X158933Y104399D02*
X167846D01*
X158933Y103949D02*
X167846D01*
X158933Y103499D02*
X167846D01*
X158941Y103049D02*
X167846D01*
X147637Y153899D02*
X167445D01*
X158933Y105299D02*
X167442D01*
X147811Y153449D02*
X166995D01*
X158933Y105749D02*
X166992D01*
X147840Y152999D02*
X166545D01*
X158933Y106199D02*
X166542D01*
X147733Y152549D02*
X166095D01*
X158933Y106649D02*
X166092D01*
X147453Y152099D02*
X165645D01*
X158933Y107099D02*
X165642D01*
X146736Y151649D02*
X165195D01*
X158933Y107549D02*
X165192D01*
X141952Y151199D02*
X164745D01*
X158933Y107999D02*
X164742D01*
X138640Y150749D02*
X164361D01*
X158933Y108449D02*
X164292D01*
X138640Y150299D02*
X164250D01*
X138640Y149849D02*
X164250D01*
X141212Y149399D02*
X164250D01*
X141666Y148949D02*
X164250D01*
X148211Y148499D02*
X164250D01*
X148743Y148049D02*
X164250D01*
X148974Y147599D02*
X164250D01*
X149047Y147149D02*
X164250D01*
X148986Y146699D02*
X164250D01*
X148770Y146249D02*
X164250D01*
X148328Y145799D02*
X164250D01*
X148498Y145349D02*
X164250D01*
X148534Y144899D02*
X164250D01*
X148435Y144449D02*
X164250D01*
X148166Y143999D02*
X164250D01*
X147507Y143549D02*
X164250D01*
X146466Y143099D02*
X164250D01*
X148839Y142649D02*
X164250D01*
X151993Y142199D02*
X163884D01*
X158933Y108899D02*
X163842D01*
X152774Y141749D02*
X163434D01*
X158933Y109349D02*
X163392D01*
X153066Y141299D02*
X162984D01*
X158933Y109799D02*
X162942D01*
X158933Y110249D02*
X162496D01*
X158933Y110699D02*
X162271D01*
X158739Y121949D02*
X162250D01*
X158978Y121499D02*
X162250D01*
X159056Y121049D02*
X162250D01*
X159649Y120599D02*
X162250D01*
X160118Y120149D02*
X162250D01*
X160326Y119699D02*
X162250D01*
X160381Y119249D02*
X162250D01*
X160301Y118799D02*
X162250D01*
X160060Y118349D02*
X162250D01*
X159500Y117899D02*
X162250D01*
X158933Y117449D02*
X162250D01*
X158933Y116999D02*
X162250D01*
X158933Y116549D02*
X162250D01*
X158933Y116099D02*
X162250D01*
X158933Y115649D02*
X162250D01*
X158933Y115199D02*
X162250D01*
X158933Y114749D02*
X162250D01*
X158933Y114299D02*
X162250D01*
X158933Y113849D02*
X162250D01*
X158933Y113399D02*
X162250D01*
X158933Y112949D02*
X162250D01*
X158933Y112499D02*
X162250D01*
X158933Y112049D02*
X162250D01*
X158933Y111599D02*
X162250D01*
X158933Y111149D02*
X162250D01*
X158187Y122399D02*
X162087D01*
X157716Y129599D02*
X162061D01*
X147900Y122849D02*
X161637D01*
X155016Y132299D02*
X161257D01*
X147900Y123299D02*
X161187D01*
X157266Y130049D02*
X161152D01*
X155466Y131849D02*
X160894D01*
X156816Y130499D02*
X160846D01*
X155916Y131399D02*
X160737D01*
X147900Y123749D02*
X160737D01*
X156366Y130949D02*
X160723D01*
X147900Y124199D02*
X160287D01*
X147900Y124649D02*
X159837D01*
X147900Y125099D02*
X159387D01*
X147900Y125549D02*
X158937D01*
X147887Y125999D02*
X158487D01*
X148499Y126449D02*
X158037D01*
X148859Y126899D02*
X157587D01*
X149009Y127349D02*
X157137D01*
X147900Y122399D02*
X156850D01*
X149410Y127799D02*
X156687D01*
X147900Y121949D02*
X156298D01*
X149664Y128249D02*
X156237D01*
X147900Y121499D02*
X156059D01*
X147900Y121049D02*
X155981D01*
X147900Y120599D02*
X155810D01*
X149749Y128699D02*
X155787D01*
X147900Y120149D02*
X155743D01*
X152462Y119699D02*
X155743D01*
X152843Y119249D02*
X155743D01*
X153008Y118799D02*
X155743D01*
X153030Y118349D02*
X155743D01*
X152915Y117899D02*
X155743D01*
X152650Y117449D02*
X155743D01*
X152650Y116999D02*
X155743D01*
X152650Y116549D02*
X155743D01*
X152650Y116099D02*
X155743D01*
X152650Y115649D02*
X155743D01*
X152650Y115199D02*
X155743D01*
X152650Y114749D02*
X155743D01*
X152650Y114299D02*
X155743D01*
X152578Y113849D02*
X155743D01*
X152275Y113399D02*
X155743D01*
X151825Y112949D02*
X155743D01*
X151375Y112499D02*
X155743D01*
X150925Y112049D02*
X155743D01*
X150475Y111599D02*
X155743D01*
X150025Y111149D02*
X155743D01*
X149575Y110699D02*
X155743D01*
X149125Y110249D02*
X155743D01*
X148675Y109799D02*
X155743D01*
X148225Y109349D02*
X155743D01*
X147775Y108899D02*
X155743D01*
X153497Y108449D02*
X155743D01*
X153914Y107999D02*
X155743D01*
X154097Y107549D02*
X155743D01*
X154134Y107099D02*
X155743D01*
X154035Y106649D02*
X155743D01*
X153767Y106199D02*
X155743D01*
X153108Y105749D02*
X155743D01*
X149243Y105299D02*
X155743D01*
X148785Y104849D02*
X155743D01*
X148328Y104399D02*
X155628D01*
X149750Y129149D02*
X155337D01*
X147870Y103949D02*
X155178D01*
X149750Y129599D02*
X154887D01*
X147412Y103499D02*
X154728D01*
X149750Y130049D02*
X154437D01*
X147021Y103049D02*
X154278D01*
X149743Y130499D02*
X153987D01*
X149625Y130949D02*
X153537D01*
X149322Y131399D02*
X153087D01*
X148872Y131849D02*
X152637D01*
X149700Y105749D02*
X152092D01*
X147325Y108449D02*
X151703D01*
X150173Y106199D02*
X151416D01*
X149366Y142199D02*
X151307D01*
X146166Y138149D02*
X150590D01*
X147900Y119699D02*
X150538D01*
X149816Y141749D02*
X150526D01*
X147900Y117449D02*
X150350D01*
X147900Y116999D02*
X150350D01*
X147900Y116549D02*
X150350D01*
X147900Y116099D02*
X150350D01*
X147892Y115649D02*
X150350D01*
X147774Y115199D02*
X150350D01*
X147470Y114749D02*
X150350D01*
X147900Y119249D02*
X150157D01*
X145716Y138599D02*
X150137D01*
X147900Y117899D02*
X150085D01*
X147900Y118799D02*
X149992D01*
X147900Y118349D02*
X149970D01*
X147021Y114299D02*
X149922D01*
X145266Y139049D02*
X149687D01*
X146571Y113849D02*
X149472D01*
X148422Y132299D02*
X149342D01*
X144816Y139499D02*
X149237D01*
X146875Y107999D02*
X149148D01*
X146099Y113399D02*
X149022D01*
X144366Y139949D02*
X148787D01*
X147972Y132749D02*
X148737D01*
X146425Y107549D02*
X148678D01*
X134798Y112949D02*
X148572D01*
X143916Y140399D02*
X148337D01*
X147522Y133199D02*
X148287D01*
X145964Y107099D02*
X148221D01*
X134991Y112499D02*
X148122D01*
X147072Y133649D02*
X147837D01*
X140170Y106649D02*
X147763D01*
X135036Y112049D02*
X147672D01*
X146622Y134099D02*
X147387D01*
X108933Y106199D02*
X147305D01*
X134945Y111599D02*
X147222D01*
X146172Y134549D02*
X146937D01*
X108933Y105749D02*
X146848D01*
X141867Y148499D02*
X146809D01*
X134688Y111149D02*
X146772D01*
X146016Y143549D02*
X146493D01*
X145541Y134999D02*
X146487D01*
X108933Y105299D02*
X146390D01*
X134075Y110699D02*
X146322D01*
X141916Y148049D02*
X146277D01*
X145375Y157949D02*
X146267D01*
X141423Y160649D02*
X146262D01*
X143316Y146249D02*
X146102D01*
X141966Y147599D02*
X146046D01*
X118250Y135449D02*
X146037D01*
X142866Y146699D02*
X146034D01*
X142416Y147149D02*
X145973D01*
X143466Y140849D02*
X145967D01*
X108933Y104849D02*
X145933D01*
X142338Y151649D02*
X145880D01*
X123819Y110249D02*
X145872D01*
X145566Y143999D02*
X145834D01*
X143766Y145799D02*
X145686D01*
X118250Y135899D02*
X145587D01*
X145116Y144449D02*
X145565D01*
X144216Y145349D02*
X145502D01*
X144666Y144899D02*
X145466D01*
X143016Y141299D02*
X145437D01*
X124269Y109799D02*
X145422D01*
X142507Y152099D02*
X145164D01*
X118387Y136349D02*
X145137D01*
X142566Y141749D02*
X144987D01*
X140175Y109349D02*
X144972D01*
X142531Y152549D02*
X144883D01*
X138803Y136799D02*
X144687D01*
X142419Y152999D02*
X144667D01*
X142116Y142199D02*
X144537D01*
X139718Y137249D02*
X144237D01*
X142130Y153449D02*
X144217D01*
X141666Y142649D02*
X144087D01*
X140191Y137699D02*
X143787D01*
X141826Y153899D02*
X143767D01*
X141216Y143099D02*
X143637D01*
X140611Y138149D02*
X143337D01*
X141911Y154349D02*
X143317D01*
X140766Y143549D02*
X143187D01*
X141862Y154799D02*
X142984D01*
X140796Y138599D02*
X142887D01*
X141661Y155249D02*
X142876D01*
X138640Y157049D02*
X142875D01*
X138640Y156599D02*
X142875D01*
X138640Y156149D02*
X142875D01*
X141207Y155699D02*
X142875D01*
X138636Y157499D02*
X142874D01*
X140316Y143999D02*
X142737D01*
X140834Y139049D02*
X142437D01*
X139866Y144449D02*
X142287D01*
X140737Y139499D02*
X141987D01*
X139416Y144899D02*
X141837D01*
X140471Y139949D02*
X141537D01*
X138966Y145349D02*
X141387D01*
X139821Y140399D02*
X141087D01*
X138640Y145799D02*
X140937D01*
X124365Y140849D02*
X140637D01*
X138640Y146249D02*
X140487D01*
X123915Y141299D02*
X140187D01*
X138640Y151199D02*
X140048D01*
X138484Y157949D02*
X139882D01*
X138640Y146699D02*
X139761D01*
X123465Y141749D02*
X139737D01*
X138640Y151649D02*
X139662D01*
X138640Y152999D02*
X139581D01*
X138640Y149399D02*
X139548D01*
X138640Y155699D02*
X139543D01*
X138640Y152099D02*
X139493D01*
X138640Y152549D02*
X139469D01*
X138069Y158399D02*
X139430D01*
X123435Y142199D02*
X139287D01*
X138640Y147149D02*
X139177D01*
X138640Y153449D02*
X139172D01*
X138640Y148949D02*
X139094D01*
X138640Y155249D02*
X139089D01*
X137619Y158849D02*
X138980D01*
X138640Y147599D02*
X138929D01*
X138640Y153899D02*
X138924D01*
X138640Y148499D02*
X138894D01*
X138640Y154799D02*
X138889D01*
X138640Y148049D02*
X138844D01*
X138640Y154349D02*
X138839D01*
X123435Y142649D02*
X138837D01*
X124815Y140399D02*
X138779D01*
X108933Y106649D02*
X138704D01*
X137411Y159299D02*
X138530D01*
X123435Y143099D02*
X138387D01*
X108933Y107099D02*
X138191D01*
X125265Y139949D02*
X138129D01*
X137304Y159749D02*
X138080D01*
X123435Y143549D02*
X137937D01*
X137025Y160199D02*
X137630D01*
X123435Y143999D02*
X137487D01*
X136316Y160649D02*
X137180D01*
X123435Y144449D02*
X137037D01*
X133715Y161099D02*
X136730D01*
X123435Y144899D02*
X136708D01*
X122502Y156599D02*
X136640D01*
X122952Y156149D02*
X136640D01*
X123285Y155699D02*
X136640D01*
X123421Y155249D02*
X136640D01*
X123435Y154799D02*
X136640D01*
X123435Y154349D02*
X136640D01*
X123435Y153899D02*
X136640D01*
X123435Y153449D02*
X136640D01*
X123435Y152999D02*
X136640D01*
X123435Y152549D02*
X136640D01*
X123435Y152099D02*
X136640D01*
X123435Y151649D02*
X136640D01*
X123435Y151199D02*
X136640D01*
X123435Y150749D02*
X136640D01*
X123435Y150299D02*
X136640D01*
X123435Y149849D02*
X136640D01*
X123435Y149399D02*
X136640D01*
X123435Y148949D02*
X136640D01*
X123435Y148499D02*
X136640D01*
X123435Y148049D02*
X136640D01*
X123435Y147599D02*
X136640D01*
X123435Y147149D02*
X136640D01*
X123435Y146699D02*
X136640D01*
X123435Y146249D02*
X136640D01*
X123435Y145799D02*
X136640D01*
X123435Y145349D02*
X136640D01*
X122052Y157049D02*
X136590D01*
X133647Y167849D02*
X136347D01*
X133232Y161549D02*
X136280D01*
X121602Y157499D02*
X136140D01*
X127950Y168299D02*
X135897D01*
X127950Y168749D02*
X135447D01*
X133928Y160649D02*
X135440D01*
X101250Y171899D02*
X135205D01*
X127950Y169199D02*
X134997D01*
X121152Y157949D02*
X134951D01*
X127303Y171449D02*
X134755D01*
X133987Y160199D02*
X134731D01*
X131293Y158399D02*
X134551D01*
X127950Y169649D02*
X134547D01*
X133912Y159749D02*
X134452D01*
X133135Y158849D02*
X134376D01*
X127745Y170999D02*
X134346D01*
X133677Y159299D02*
X134345D01*
X127940Y170549D02*
X134335D01*
X127986Y170099D02*
X134335D01*
X123369Y110699D02*
X132925D01*
X130142Y165149D02*
X132242D01*
X127950Y167849D02*
X131853D01*
X131737Y158849D02*
X131759D01*
X128248Y161549D02*
X131668D01*
X129692Y165599D02*
X131583D01*
X127950Y167399D02*
X131436D01*
X129242Y166049D02*
X131315D01*
X128342Y166949D02*
X131253D01*
X128792Y166499D02*
X131216D01*
X130915Y161099D02*
X131185D01*
X128471D02*
X129885D01*
X120702Y158399D02*
X129507D01*
X127738Y161999D02*
X129280D01*
X128538Y160649D02*
X129231D01*
X120252Y158849D02*
X129088D01*
X128470Y160199D02*
X128964D01*
X127733Y159299D02*
X128903D01*
X128246Y159749D02*
X128866D01*
X118881Y162449D02*
X128599D01*
X118881Y162899D02*
X128149D01*
X118881Y163349D02*
X127699D01*
X118881Y163799D02*
X127249D01*
X118881Y164249D02*
X126799D01*
X118881Y164699D02*
X126349D01*
X125919Y159299D02*
X126267D01*
X121643Y161999D02*
X126262D01*
X118881Y165149D02*
X125899D01*
X119273Y171449D02*
X125597D01*
X118881Y165599D02*
X125436D01*
X119715Y170999D02*
X125155D01*
X118881Y166049D02*
X125101D01*
X118881Y166499D02*
X124964D01*
X119910Y170549D02*
X124960D01*
X119867Y169649D02*
X124950D01*
X119612Y169199D02*
X124950D01*
X119121Y168749D02*
X124950D01*
X118881Y168299D02*
X124950D01*
X118881Y167849D02*
X124950D01*
X118881Y167399D02*
X124950D01*
X118881Y166949D02*
X124950D01*
X119956Y170099D02*
X124914D01*
X122919Y111149D02*
X124756D01*
X118599Y136799D02*
X124637D01*
X122469Y111599D02*
X124087D01*
X123769Y159299D02*
X123881D01*
X118657Y137249D02*
X123722D01*
X122019Y112049D02*
X123637D01*
X118581Y137699D02*
X123272D01*
X121569Y112499D02*
X123187D01*
X108933Y107549D02*
X122989D01*
X118345Y138149D02*
X122822D01*
X121119Y112949D02*
X122737D01*
X108933Y107999D02*
X122533D01*
X117800Y138599D02*
X122372D01*
X120669Y113399D02*
X122287D01*
X108933Y108449D02*
X122083D01*
X106750Y139049D02*
X121922D01*
X120219Y113849D02*
X121837D01*
X121012Y159299D02*
X121731D01*
X108933Y108899D02*
X121633D01*
X106750Y139499D02*
X121472D01*
X119769Y114299D02*
X121387D01*
X108933Y109349D02*
X121183D01*
X106750Y139949D02*
X121022D01*
X119319Y114749D02*
X120937D01*
X108933Y109799D02*
X120733D01*
X106750Y140399D02*
X120641D01*
X118869Y115199D02*
X120487D01*
X106750Y140849D02*
X120467D01*
X120071Y154349D02*
X120435D01*
X120236Y153899D02*
X120435D01*
X120258Y153449D02*
X120435D01*
X120143Y152999D02*
X120435D01*
X119850Y152549D02*
X120435D01*
X119060Y152099D02*
X120435D01*
X106750Y148949D02*
X120435D01*
X106750Y148499D02*
X120435D01*
X106750Y148049D02*
X120435D01*
X106750Y147599D02*
X120435D01*
X106750Y147149D02*
X120435D01*
X106750Y146699D02*
X120435D01*
X106750Y146249D02*
X120435D01*
X106750Y145799D02*
X120435D01*
X106750Y145349D02*
X120435D01*
X106750Y144899D02*
X120435D01*
X106750Y144449D02*
X120435D01*
X106750Y143999D02*
X120435D01*
X106750Y143549D02*
X120435D01*
X106750Y143099D02*
X120435D01*
X106750Y142649D02*
X120435D01*
X106750Y142199D02*
X120435D01*
X106750Y141749D02*
X120435D01*
X106750Y141299D02*
X120435D01*
X119802Y159299D02*
X120348D01*
X108933Y110249D02*
X120283D01*
X119691Y154799D02*
X120059D01*
X118419Y115649D02*
X120037D01*
X108933Y110699D02*
X119833D01*
X118881Y161999D02*
X119717D01*
X115335Y155249D02*
X119609D01*
X117969Y116099D02*
X119587D01*
X119352Y159749D02*
X119558D01*
X108876Y111149D02*
X119383D01*
X118881Y161549D02*
X119337D01*
X118902Y160199D02*
X119265D01*
X118881Y161099D02*
X119172D01*
X115105Y155699D02*
X119159D01*
X118881Y160649D02*
X119150D01*
X117519Y116549D02*
X119137D01*
X108566Y111599D02*
X118933D01*
X115340Y156149D02*
X118709D01*
X117116Y116999D02*
X118687D01*
X108116Y112049D02*
X118483D01*
X116121Y152099D02*
X118396D01*
X115415Y156599D02*
X118259D01*
X117230Y117449D02*
X118237D01*
X107666Y112499D02*
X118033D01*
X115356Y157049D02*
X117809D01*
X117208Y117899D02*
X117787D01*
X115491Y154799D02*
X117765D01*
X115785Y152549D02*
X117606D01*
X107216Y112949D02*
X117583D01*
X111471Y171449D02*
X117567D01*
X115505Y154349D02*
X117385D01*
X115143Y157499D02*
X117359D01*
X117043Y118349D02*
X117337D01*
X115583Y152999D02*
X117313D01*
X115382Y153899D02*
X117220D01*
X115138Y153449D02*
X117198D01*
X106766Y113399D02*
X117133D01*
X111720Y170999D02*
X117125D01*
X114660Y157949D02*
X116909D01*
X116662Y118799D02*
X116887D01*
X106750Y113849D02*
X116683D01*
X111750Y170549D02*
X116678D01*
X114452Y158399D02*
X116459D01*
X106750Y138599D02*
X116440D01*
X106750Y119249D02*
X116437D01*
X115180Y135899D02*
X116250D01*
X111750Y170099D02*
X116235D01*
X114719Y135449D02*
X116234D01*
X106750Y114299D02*
X116233D01*
X115066Y158849D02*
X116082D01*
X106750Y119699D02*
X115987D01*
X111750Y169649D02*
X115973D01*
X108933Y104399D02*
X115917D01*
X115323Y159299D02*
X115911D01*
X114538Y138149D02*
X115895D01*
X111752Y169199D02*
X115883D01*
X111750Y168749D02*
X115881D01*
X111750Y168299D02*
X115881D01*
X111728Y167849D02*
X115881D01*
X111504Y167399D02*
X115881D01*
X106221Y166949D02*
X115881D01*
X105771Y166499D02*
X115881D01*
X105321Y166049D02*
X115881D01*
X104871Y165599D02*
X115881D01*
X104421Y165149D02*
X115881D01*
X108556Y164699D02*
X115881D01*
X109025Y164249D02*
X115881D01*
X109232Y163799D02*
X115881D01*
X109287Y163349D02*
X115881D01*
X109207Y162899D02*
X115881D01*
X108966Y162449D02*
X115881D01*
X108750Y161999D02*
X115881D01*
X108750Y161549D02*
X115881D01*
X114739Y161099D02*
X115881D01*
X115176Y160649D02*
X115881D01*
X115369Y160199D02*
X115881D01*
X115414Y159749D02*
X115881D01*
X115384Y136349D02*
X115853D01*
X106750Y134999D02*
X115784D01*
X106750Y114749D02*
X115783D01*
X115110Y137699D02*
X115659D01*
X115437Y136799D02*
X115641D01*
X115354Y137249D02*
X115583D01*
X106750Y120149D02*
X115537D01*
X108933Y103949D02*
X115467D01*
X106750Y149399D02*
X115361D01*
X106750Y134549D02*
X115334D01*
X106750Y115199D02*
X115333D01*
X106750Y120599D02*
X115087D01*
X108933Y103499D02*
X115017D01*
X106750Y134099D02*
X114884D01*
X106750Y115649D02*
X114883D01*
X106750Y149849D02*
X114835D01*
X106750Y118799D02*
X114738D01*
X106750Y121049D02*
X114637D01*
X108941Y103049D02*
X114567D01*
X106750Y116099D02*
X114555D01*
X106750Y116549D02*
X114451D01*
X106750Y133649D02*
X114434D01*
X106750Y150299D02*
X114385D01*
X106750Y118349D02*
X114357D01*
X106750Y116999D02*
X114285D01*
X106750Y117899D02*
X114192D01*
X106750Y121499D02*
X114187D01*
X106750Y117449D02*
X114170D01*
X106750Y133199D02*
X113984D01*
X106750Y121949D02*
X113737D01*
X106750Y150749D02*
X113672D01*
X106750Y132749D02*
X113539D01*
X106750Y122399D02*
X113384D01*
X106750Y132299D02*
X113320D01*
X112252Y158399D02*
X113304D01*
X106750Y131849D02*
X113300D01*
X106750Y131399D02*
X113300D01*
X106750Y130949D02*
X113300D01*
X106750Y130499D02*
X113300D01*
X106750Y130049D02*
X113300D01*
X106750Y129599D02*
X113300D01*
X106750Y129149D02*
X113300D01*
X106750Y128699D02*
X113300D01*
X106750Y128249D02*
X113300D01*
X106750Y127799D02*
X113300D01*
X106750Y127349D02*
X113300D01*
X106750Y126899D02*
X113300D01*
X106750Y126449D02*
X113300D01*
X106750Y125999D02*
X113300D01*
X106750Y125549D02*
X113300D01*
X106750Y125099D02*
X113300D01*
X106750Y124649D02*
X113300D01*
X106750Y124199D02*
X113300D01*
X106750Y123749D02*
X113300D01*
X106750Y123299D02*
X113300D01*
X106750Y122849D02*
X113300D01*
X106750Y138149D02*
X113262D01*
X112376Y157949D02*
X113096D01*
X106750Y151199D02*
X113094D01*
X106750Y135449D02*
X113081D01*
X112539Y161099D02*
X113017D01*
X106750Y152999D02*
X113017D01*
X106750Y153449D02*
X112880D01*
X106750Y151649D02*
X112847D01*
X106750Y152549D02*
X112815D01*
X106750Y152099D02*
X112763D01*
X106750Y137699D02*
X112690D01*
X112335Y155249D02*
X112621D01*
X106750Y135899D02*
X112620D01*
X106750Y153899D02*
X112574D01*
X106750Y154799D02*
X112465D01*
X106750Y154349D02*
X112451D01*
X106750Y137249D02*
X112446D01*
X106750Y136349D02*
X112416D01*
X106750Y136799D02*
X112363D01*
X108750Y158399D02*
X111104D01*
X106913Y155249D02*
X110905D01*
X108750Y157949D02*
X110864D01*
X108750Y161099D02*
X110817D01*
X108750Y158849D02*
X110490D01*
X107363Y155699D02*
X110382D01*
X108750Y160649D02*
X110380D01*
X108750Y157499D02*
X110365D01*
X108750Y159299D02*
X110233D01*
X108750Y160199D02*
X110187D01*
X107813Y156149D02*
X110153D01*
X108642Y157049D02*
X110146D01*
X108750Y159749D02*
X110142D01*
X108263Y156599D02*
X110083D01*
X101250Y171449D02*
X107171D01*
X103920Y164699D02*
X106944D01*
X103020Y110249D02*
X106933D01*
X103020Y109799D02*
X106933D01*
X103020Y109349D02*
X106933D01*
X103020Y108899D02*
X106933D01*
X103020Y108449D02*
X106933D01*
X103020Y107999D02*
X106933D01*
X103020Y107549D02*
X106933D01*
X103020Y107099D02*
X106933D01*
X103020Y106649D02*
X106933D01*
X103020Y106199D02*
X106933D01*
X103020Y105749D02*
X106933D01*
X103020Y105299D02*
X106933D01*
X103020Y104849D02*
X106933D01*
X103020Y104399D02*
X106933D01*
X103020Y103949D02*
X106933D01*
X103020Y103499D02*
X106933D01*
X103004Y103049D02*
X106925D01*
X103020Y161999D02*
X106750D01*
X103020Y161549D02*
X106750D01*
X103020Y161099D02*
X106750D01*
X103020Y160649D02*
X106750D01*
X103020Y160199D02*
X106750D01*
X103020Y159749D02*
X106750D01*
X103020Y159299D02*
X106750D01*
X103020Y158849D02*
X106750D01*
X103020Y158399D02*
X106750D01*
X103020Y157949D02*
X106750D01*
X103020Y110699D02*
X106637D01*
X103020Y162449D02*
X106534D01*
X103020Y164249D02*
X106475D01*
X103020Y157499D02*
X106334D01*
X103020Y162899D02*
X106293D01*
X103020Y163799D02*
X106268D01*
X103020Y163349D02*
X106213D01*
X103020Y111149D02*
X106187D01*
X103020Y157049D02*
X105884D01*
X103020Y111599D02*
X105737D01*
X103020Y156599D02*
X105434D01*
X103020Y112049D02*
X105287D01*
X103020Y156149D02*
X104989D01*
X101250Y102599D02*
X104910D01*
X101250Y102149D02*
X104910D01*
X101250Y101699D02*
X104910D01*
X103020Y112499D02*
X104885D01*
X103020Y155699D02*
X104770D01*
X103020Y112949D02*
X104751D01*
X103020Y155249D02*
X104750D01*
X103020Y154799D02*
X104750D01*
X103020Y154349D02*
X104750D01*
X103020Y153899D02*
X104750D01*
X103020Y153449D02*
X104750D01*
X103020Y152999D02*
X104750D01*
X103020Y152549D02*
X104750D01*
X103020Y152099D02*
X104750D01*
X103020Y151649D02*
X104750D01*
X103020Y151199D02*
X104750D01*
X103020Y150749D02*
X104750D01*
X103020Y150299D02*
X104750D01*
X103020Y149849D02*
X104750D01*
X103020Y149399D02*
X104750D01*
X103020Y148949D02*
X104750D01*
X103020Y148499D02*
X104750D01*
X103020Y148049D02*
X104750D01*
X103020Y147599D02*
X104750D01*
X103020Y147149D02*
X104750D01*
X103020Y146699D02*
X104750D01*
X103020Y146249D02*
X104750D01*
X103020Y145799D02*
X104750D01*
X103020Y145349D02*
X104750D01*
X103020Y144899D02*
X104750D01*
X103020Y144449D02*
X104750D01*
X103020Y143999D02*
X104750D01*
X103020Y143549D02*
X104750D01*
X103020Y143099D02*
X104750D01*
X103020Y142649D02*
X104750D01*
X103020Y142199D02*
X104750D01*
X103020Y141749D02*
X104750D01*
X103020Y141299D02*
X104750D01*
X103020Y140849D02*
X104750D01*
X103020Y140399D02*
X104750D01*
X103020Y139949D02*
X104750D01*
X103020Y139499D02*
X104750D01*
X103020Y139049D02*
X104750D01*
X103020Y138599D02*
X104750D01*
X103020Y138149D02*
X104750D01*
X103020Y137699D02*
X104750D01*
X103020Y137249D02*
X104750D01*
X103020Y136799D02*
X104750D01*
X103020Y136349D02*
X104750D01*
X103020Y135899D02*
X104750D01*
X103020Y135449D02*
X104750D01*
X103020Y134999D02*
X104750D01*
X103020Y134549D02*
X104750D01*
X103020Y134099D02*
X104750D01*
X103020Y133649D02*
X104750D01*
X103020Y133199D02*
X104750D01*
X103020Y132749D02*
X104750D01*
X103020Y132299D02*
X104750D01*
X103020Y131849D02*
X104750D01*
X103020Y131399D02*
X104750D01*
X103020Y130949D02*
X104750D01*
X103020Y130499D02*
X104750D01*
X103020Y130049D02*
X104750D01*
X103020Y129599D02*
X104750D01*
X103020Y129149D02*
X104750D01*
X103020Y128699D02*
X104750D01*
X103020Y128249D02*
X104750D01*
X103020Y127799D02*
X104750D01*
X103020Y127349D02*
X104750D01*
X103020Y126899D02*
X104750D01*
X103020Y126449D02*
X104750D01*
X103020Y125999D02*
X104750D01*
X103020Y125549D02*
X104750D01*
X103020Y125099D02*
X104750D01*
X103020Y124649D02*
X104750D01*
X103020Y124199D02*
X104750D01*
X103020Y123749D02*
X104750D01*
X103020Y123299D02*
X104750D01*
X103020Y122849D02*
X104750D01*
X103020Y122399D02*
X104750D01*
X103020Y121949D02*
X104750D01*
X103020Y121499D02*
X104750D01*
X103020Y121049D02*
X104750D01*
X103020Y120599D02*
X104750D01*
X103020Y120149D02*
X104750D01*
X103020Y119699D02*
X104750D01*
X103020Y119249D02*
X104750D01*
X103020Y118799D02*
X104750D01*
X103020Y118349D02*
X104750D01*
X103020Y117899D02*
X104750D01*
X103020Y117449D02*
X104750D01*
X103020Y116999D02*
X104750D01*
X103020Y116549D02*
X104750D01*
X103020Y116099D02*
X104750D01*
X103020Y115649D02*
X104750D01*
X103020Y115199D02*
X104750D01*
X103020Y114749D02*
X104750D01*
X103020Y114299D02*
X104750D01*
X103020Y113849D02*
X104750D01*
X103020Y113399D02*
X104750D01*
X101250Y170999D02*
X104723D01*
X101250Y170549D02*
X104164D01*
X101250Y170099D02*
X103714D01*
X101250Y169649D02*
X103264D01*
G54D60*
X100000Y165906D02*
X100450Y166356D01*
X102800*
X105694Y169250*
X109753*
G54D131*
X133629Y115676D03*
X136100Y116100D03*
X133500Y112125D03*
X130250Y115375D03*
X115700Y117600D03*
X121600Y113300D03*
X113650Y117050D03*
X118300Y116600D03*
X110000Y107500D03*
Y105200D03*
X102125Y102155D03*
X105400Y105200D03*
X105197Y111200D03*
X161177Y109505D03*
X138250Y116150D03*
X144800Y116400D03*
X141470Y116250D03*
X152600Y107200D03*
X139437Y108000D03*
X151500Y118500D03*
X149700Y114900D03*
X148450Y119000D03*
X147250Y107250D03*
X150300Y110100D03*
X154700Y105200D03*
X154200Y113500D03*
X155125Y119000D03*
X165700Y111500D03*
X160000Y112750D03*
X165700Y116100D03*
X167875Y101905D03*
X150600Y105200D03*
X165700Y105400D03*
X161000Y105200D03*
X120927Y129428D03*
X124690Y128840D03*
X134500Y129700D03*
X135700Y128000D03*
X118302Y131303D03*
X127965Y129128D03*
X117120Y137220D03*
X118260Y127260D03*
X118728Y153600D03*
X129700Y127900D03*
X131800Y128000D03*
X113900Y136750D03*
X113878Y156625D03*
X111620Y156610D03*
X113978Y154525D03*
X115700Y135700D03*
X110800Y139550D03*
X119650Y140750D03*
X135978Y146875D03*
X136000Y140800D03*
X130078Y146875D03*
X133028Y149825D03*
Y143925D03*
X113650Y121200D03*
X126865Y140791D03*
X119700Y144000D03*
X127128Y155725D03*
X124178Y152775D03*
X112800Y147800D03*
X127128Y149825D03*
X119700Y147850D03*
X130078Y152775D03*
X127128Y143925D03*
X113300Y134700D03*
X124178Y146875D03*
X110800Y154650D03*
X133028Y155725D03*
X135978Y152775D03*
X131500Y140800D03*
X114300Y152152D03*
X141900Y129300D03*
X139200Y129600D03*
X141942Y119427D03*
X137100Y129600D03*
X147000Y127500D03*
X144300Y129300D03*
X138000Y119375D03*
X140380Y148106D03*
X140375Y154406D03*
X141000Y152406D03*
X147510Y147130D03*
X162250Y131125D03*
X158844Y119289D03*
X151650Y140700D03*
X147000Y145000D03*
X157519Y121014D03*
X140450Y156625D03*
X160150Y121150D03*
X153700Y141450D03*
X153200Y124400D03*
X163950Y136300D03*
X154750Y137250D03*
X165700Y158000D03*
X151850Y142900D03*
X165700Y120700D03*
X159703Y150893D03*
X155503Y142293D03*
X139642Y145867D03*
X156875Y131200D03*
X148500Y124350D03*
X149050Y138900D03*
X158406Y137316D03*
X150940Y137386D03*
X165700Y125800D03*
X150450Y128250D03*
X160800Y127700D03*
X165700Y138100D03*
X162203Y150893D03*
X160403Y158693D03*
X165600Y152900D03*
X162103Y157093D03*
X165100Y155950D03*
X151186Y149201D03*
X150150Y151000D03*
X151400Y147100D03*
Y144950D03*
X153853Y143893D03*
X163700Y142900D03*
X156403Y143993D03*
X152400Y158100D03*
X153150Y128300D03*
X160000Y131125D03*
X157230Y124231D03*
X162200Y141500D03*
X146308Y153125D03*
X139300Y138952D03*
X130400Y159650D03*
X122750Y160450D03*
X135878Y159175D03*
X132450Y160225D03*
X113878Y159825D03*
X127000Y160650D03*
X107750Y163390D03*
X132750Y166600D03*
X124900Y160450D03*
X120680Y160800D03*
X135000Y173050D03*
X119200Y173000D03*
X114500Y175350D03*
X124000Y175450D03*
X106600Y173300D03*
X103450Y175250D03*
X127250Y175500D03*
X136070Y170290D03*
X105750Y162750D03*
X115150Y165950D03*
X132050Y173000D03*
X116000D03*
X136550Y175500D03*
X130250Y165875D03*
X106680Y165206D03*
X111050Y165950D03*
X133500Y175500D03*
X105150Y160750D03*
X129000Y173000D03*
X130500Y175500D03*
X122550Y173000D03*
X125800D03*
X120600Y175450D03*
X117500Y175400D03*
X112500Y173050D03*
X110950Y175250D03*
X109250Y173000D03*
X107000Y175250D03*
X104850Y171950D03*
X102000Y173750D03*
X110200Y170206D03*
X108200D03*
X118420Y170170D03*
X126450D03*
X111678Y159825D03*
X166500Y175550D03*
X139500Y175500D03*
X145100Y172900D03*
X157800Y170000D03*
X142450Y175350D03*
X142100Y171400D03*
X145766Y165099D03*
X147300Y174000D03*
X159450Y160800D03*
X159625Y175125D03*
X161451Y172831D03*
X157331Y172786D03*
X152250Y160800D03*
X164500Y160100D03*
X165207Y165681D03*
X164650Y167750D03*
X165000Y170905D03*
X163000Y175150D03*
X166300Y173105D03*
X168696Y174306D03*
X138000Y173000D03*
X145250Y175500D03*
X149300Y175600D03*
X154700Y175800D03*
Y173500D03*
X162500Y160800D03*
X156500D03*
X154150Y159650D03*
X148200Y165100D03*
X142878Y163325D03*
X149300Y167250D03*
X151250Y165300D03*
X146700Y167400D03*
X154400Y171100D03*
X156750Y165350D03*
X162250Y169750D03*
X159750Y168250D03*
X161375Y165531D03*
X156200Y167450D03*
X154900Y169250D03*
X138600Y167900D03*
X141000Y173000D03*
X140400Y169700D03*
X149300Y173000D03*
X147000Y159300D03*
G54D145*
X100000Y170906D03*
Y165906D03*
Y160906D03*
Y155906D03*
Y150906D03*
Y145906D03*
Y140906D03*
Y135906D03*
Y130906D03*
Y125906D03*
Y120906D03*
Y115906D03*
Y110906D03*
Y105906D03*
X107933Y100000D03*
X112933D03*
X117933D03*
X122933D03*
X127933D03*
X132933D03*
X137933D03*
X142933D03*
X147933D03*
X152933D03*
X157933D03*
X162933D03*
X170866Y105906D03*
Y110906D03*
Y115906D03*
Y120906D03*
Y125906D03*
Y130906D03*
Y135906D03*
Y140906D03*
Y145906D03*
Y150906D03*
Y155906D03*
Y160906D03*
Y165906D03*
Y170906D03*
G74*
X0Y0D02*
M02*
