*
*
G04 PADS VX.2 Build Number: 5060570 generated Gerber (RS-274-X) file*
G04 PC Version=2.1*
*
%IN "PCB_ESP32-S3-WROOM-2_V1"*%
*
%MOIN*%
*
%FSLAX35Y35*%
*
*
*
*
G04 PC Standard Apertures*
*
*
G04 Thermal Relief Aperture macro.*
%AMTER*
1,1,$1,0,0*
1,0,$1-$2,0,0*
21,0,$3,$4,0,0,45*
21,0,$3,$4,0,0,135*
%
*
*
G04 Annular Aperture macro.*
%AMANN*
1,1,$1,0,0*
1,0,$2,0,0*
%
*
*
G04 Odd Aperture macro.*
%AMODD*
1,1,$1,0,0*
1,0,$1-0.005,0,0*
%
*
*
G04 PC Custom Aperture Macros*
*
*
*
*
*
*
G04 PC Aperture Table*
*
%ADD010C,0.001*%
%ADD030C,0.01*%
%ADD038C,0.004*%
%ADD133C,0.02362*%
%ADD187C,0.002*%
*
*
*
*
G04 PC Circuitry*
G04 Layer Name PCB_ESP32-S3-WROOM-2_V1 - circuitry*
%LPD*%
*
*
G04 PC Custom Flashes*
G04 Layer Name PCB_ESP32-S3-WROOM-2_V1 - flashes*
%LPD*%
*
*
G04 PC Circuitry*
G04 Layer Name PCB_ESP32-S3-WROOM-2_V1 - circuitry*
%LPD*%
*
G54D10*
G54D30*
G01X152748Y158582D02*
X154154D01*
X153451Y157879*
X152748Y158582*
X100000Y200394D02*
X170866D01*
Y100000*
X100000*
Y200394*
G54D38*
X118267Y136045D02*
X116298D01*
Y138014*
X118267Y163605D02*
X116298D01*
Y161636*
X143858Y138014D02*
Y136045D01*
X141889*
X143858Y161439D02*
Y161636D01*
X141889Y163605*
X141692*
X144569D02*
G75*
G03X144569I-711J0D01*
G01X163843Y157047D02*
Y143933D01*
X152350*
Y157047*
X163843*
X114610Y166716D02*
Y164516D01*
X114211Y164116*
X112023*
X111610Y164529*
Y166716*
X114610Y168716D02*
Y170916D01*
X114210Y171316*
X112010*
X111610Y170916*
Y168716*
X151248Y106189D02*
X119752D01*
Y129811*
X151248*
Y106189*
X122500Y107500D02*
X120500D01*
Y109500*
X122500Y107500*
G54D133*
X166614Y129250D02*
Y132500D01*
X105197Y125000D02*
Y156500D01*
Y107500D02*
Y108050D01*
G54D187*
X112399Y151275D02*
X113608D01*
X113808Y151475*
Y153275*
X113608Y153475*
X112399*
X111218Y151275D02*
X110008D01*
X109808Y151475*
Y153275*
X110008Y153475*
X111218*
X148069Y142591D02*
Y143801D01*
X147869Y144001*
X146069*
X145869Y143801*
Y142591*
X148069Y141410D02*
Y140201D01*
X147869Y140001*
X146069*
X145869Y140201*
Y141410*
X110827Y164500D02*
X106890D01*
X110827Y167600D02*
Y169765D01*
X106889*
Y167600*
Y166812D02*
Y164056D01*
X110827*
Y166812*
X149109Y160050D02*
X147900D01*
X147700Y159850*
Y158050*
X147900Y157850*
X149109*
X150291Y160050D02*
X151500D01*
X151700Y159850*
Y158050*
X151500Y157850*
X150291*
X117253Y169094D02*
Y170303D01*
X117053Y170503*
X115253*
X115053Y170303*
Y169094*
X117253Y167913D02*
Y166703D01*
X117053Y166503*
X115253*
X115053Y166703*
Y167913*
X129365Y169085D02*
Y170294D01*
X129165Y170494*
X127365*
X127165Y170294*
Y169085*
X129365Y167904D02*
Y166694D01*
X129165Y166494*
X127365*
X127165Y166694*
Y167904*
X115891Y132203D02*
X117100D01*
X117300Y132403*
Y134203*
X117100Y134403*
X115891*
X114709Y132203D02*
X113500D01*
X113300Y132403*
Y134203*
X113500Y134403*
X114709*
X159341Y141150D02*
X160550D01*
X160750Y141350*
Y143150*
X160550Y143350*
X159341*
X158159Y141150D02*
X156950D01*
X156750Y141350*
Y143150*
X156950Y143350*
X158159*
X148508Y171630D02*
Y172839D01*
X148308Y173039*
X146508*
X146308Y172839*
Y171630*
X148508Y170448D02*
Y169239D01*
X148308Y169039*
X146508*
X146308Y169239*
Y170448*
X141850Y165145D02*
X142705Y164289D01*
X142988*
X144261Y165562*
Y165845*
X143405Y166700*
X141015Y165980D02*
X140159Y166835D01*
Y167118*
X141432Y168391*
X141715*
X142570Y167535*
X115891Y129787D02*
X117100D01*
X117300Y129987*
Y131787*
X117100Y131987*
X115891*
X114709Y129787D02*
X113500D01*
X113300Y129987*
Y131787*
X113500Y131987*
X114709*
X149109Y162475D02*
X147900D01*
X147700Y162275*
Y160475*
X147900Y160275*
X149109*
X150291Y162475D02*
X151500D01*
X151700Y162275*
Y160475*
X151500Y160275*
X150291*
X156967Y159850D02*
X155758D01*
X155558Y159650*
Y157850*
X155758Y157650*
X156967*
X158149Y159850D02*
X159358D01*
X159558Y159650*
Y157850*
X159358Y157650*
X158149*
X135285Y168840D02*
X134429Y167985D01*
Y167702*
X135702Y166429*
X135985*
X136840Y167285*
X136120Y169675D02*
X136975Y170531D01*
X137258*
X138531Y169258*
Y168975*
X137675Y168120*
X150291Y154897D02*
X151669D01*
Y157102*
X150291*
X149109Y154897D02*
X147731D01*
Y157102*
X149109*
X149352Y151791D02*
Y153169D01*
X147148*
Y151791*
X149352Y150610D02*
Y149232D01*
X147148*
Y150610*
X151002Y142591D02*
Y143969D01*
X148798*
Y142591*
X151002Y141410D02*
Y140032D01*
X148798*
Y141410*
X125702Y132940D02*
Y134318D01*
X123498*
Y132940*
X125702Y131759D02*
Y130381D01*
X123498*
Y131759*
X120816Y132940D02*
Y134318D01*
X118612*
Y132940*
X120816Y131759D02*
Y130381D01*
X118612*
Y131759*
X123281Y132940D02*
Y134318D01*
X121076*
Y132940*
X123281Y131759D02*
Y130381D01*
X121076*
Y131759*
X128152Y132940D02*
Y134318D01*
X125948*
Y132940*
X128152Y131759D02*
Y130381D01*
X125948*
Y131759*
X130552Y132940D02*
Y134318D01*
X128348*
Y132940*
X130552Y131759D02*
Y130381D01*
X128348*
Y131759*
X129685Y170584D02*
X133622D01*
Y168379*
X129685*
Y170584*
X141679Y168748D02*
X144462Y171531D01*
X146021Y169972*
X143238Y167189*
X141679Y168748*
X116159Y122589D02*
X114781D01*
Y120384*
X116159*
X117341Y122589D02*
X118719D01*
Y120384*
X117341*
X116159Y124977D02*
X114781D01*
Y122772*
X116159*
X117341Y124977D02*
X118719D01*
Y122772*
X117341*
X144890Y132940D02*
Y134318D01*
X142685*
Y132940*
X144890Y131759D02*
Y130381D01*
X142685*
Y131759*
X142445Y132940D02*
Y134318D01*
X140240*
Y132940*
X142445Y131759D02*
Y130381D01*
X140240*
Y131759*
X139331Y132940D02*
Y134318D01*
X137126*
Y132940*
X139331Y131759D02*
Y130381D01*
X137126*
Y131759*
X136943Y132940D02*
Y134318D01*
X134738*
Y132940*
X136943Y131759D02*
Y130381D01*
X134738*
Y131759*
X134603Y132940D02*
Y134318D01*
X132398*
Y132940*
X134603Y131759D02*
Y130381D01*
X132398*
Y131759*
X153640Y165105D02*
X154495Y164249D01*
X154778*
X156051Y165522*
Y165805*
X155195Y166660*
X152805Y165940D02*
X151949Y166795D01*
Y167078*
X153222Y168351*
X153505*
X154360Y167495*
X150338Y171521D02*
X153121Y168738D01*
X151562Y167179*
X148779Y169962*
X150338Y171521*
G74*
X0Y0D02*
M02*
