*
*
G04 PADS VX.2 Build Number: 5060570 generated Gerber (RS-274-X) file*
G04 PC Version=2.1*
*
%IN "PCB_ESP32-S3-WROOM-2_V1"*%
*
%MOIN*%
*
%FSLAX35Y35*%
*
*
*
*
G04 PC Standard Apertures*
*
*
G04 Thermal Relief Aperture macro.*
%AMTER*
1,1,$1,0,0*
1,0,$1-$2,0,0*
21,0,$3,$4,0,0,45*
21,0,$3,$4,0,0,135*
%
*
*
G04 Annular Aperture macro.*
%AMANN*
1,1,$1,0,0*
1,0,$2,0,0*
%
*
*
G04 Odd Aperture macro.*
%AMODD*
1,1,$1,0,0*
1,0,$1-0.005,0,0*
%
*
*
G04 PC Custom Aperture Macros*
*
*
*
*
*
*
G04 PC Aperture Table*
*
%ADD010C,0.001*%
%ADD030C,0.01*%
%ADD036C,0.006*%
%ADD246R,0.06993X0.03843*%
%ADD247R,0.03843X0.06993*%
%ADD268R,0.04237X0.04237*%
*
*
*
*
G04 PC Circuitry*
G04 Layer Name PCB_ESP32-S3-WROOM-2_V1 - circuitry*
%LPD*%
*
*
G04 PC Custom Flashes*
G04 Layer Name PCB_ESP32-S3-WROOM-2_V1 - flashes*
%LPD*%
*
*
G04 PC Circuitry*
G04 Layer Name PCB_ESP32-S3-WROOM-2_V1 - circuitry*
%LPD*%
*
G54D10*
G54D30*
G01X100000Y200394D02*
X170866D01*
Y100000*
X100000*
Y200394*
G54D36*
X125991Y157549D02*
X122354D01*
Y153912*
X125991*
Y157549*
X122500Y153912D02*
Y157549D01*
X122800Y153912D02*
Y157549D01*
X123100Y153912D02*
Y157549D01*
X123400Y153912D02*
Y157549D01*
X123700Y153912D02*
Y157549D01*
X124000Y153912D02*
Y157549D01*
X124300Y153912D02*
Y157549D01*
X124600Y153912D02*
Y157549D01*
X124900Y153912D02*
Y157549D01*
X125200Y153912D02*
Y157549D01*
X125500Y153912D02*
Y157549D01*
X125800Y153912D02*
Y157549D01*
X131897D02*
X128260D01*
Y153912*
X131897*
Y157549*
X128500Y153912D02*
Y157549D01*
X128800Y153912D02*
Y157549D01*
X129100Y153912D02*
Y157549D01*
X129400Y153912D02*
Y157549D01*
X129700Y153912D02*
Y157549D01*
X130000Y153912D02*
Y157549D01*
X130300Y153912D02*
Y157549D01*
X130600Y153912D02*
Y157549D01*
X130900Y153912D02*
Y157549D01*
X131200Y153912D02*
Y157549D01*
X131500Y153912D02*
Y157549D01*
X131800Y153912D02*
Y157549D01*
X137802D02*
X134165D01*
Y153912*
X137802*
Y157549*
X134200Y153912D02*
Y157549D01*
X134500Y153912D02*
Y157549D01*
X134800Y153912D02*
Y157549D01*
X135100Y153912D02*
Y157549D01*
X135400Y153912D02*
Y157549D01*
X135700Y153912D02*
Y157549D01*
X136000Y153912D02*
Y157549D01*
X136300Y153912D02*
Y157549D01*
X136600Y153912D02*
Y157549D01*
X136900Y153912D02*
Y157549D01*
X137200Y153912D02*
Y157549D01*
X137500Y153912D02*
Y157549D01*
X137800Y153912D02*
Y157549D01*
X137802Y151643D02*
X134165D01*
Y148006*
X137802*
Y151643*
X134200Y148006D02*
Y151643D01*
X134500Y148006D02*
Y151643D01*
X134800Y148006D02*
Y151643D01*
X135100Y148006D02*
Y151643D01*
X135400Y148006D02*
Y151643D01*
X135700Y148006D02*
Y151643D01*
X136000Y148006D02*
Y151643D01*
X136300Y148006D02*
Y151643D01*
X136600Y148006D02*
Y151643D01*
X136900Y148006D02*
Y151643D01*
X137200Y148006D02*
Y151643D01*
X137500Y148006D02*
Y151643D01*
X137800Y148006D02*
Y151643D01*
X125991Y145738D02*
X122354D01*
Y142101*
X125991*
Y145738*
X122500Y142101D02*
Y145738D01*
X122800Y142101D02*
Y145738D01*
X123100Y142101D02*
Y145738D01*
X123400Y142101D02*
Y145738D01*
X123700Y142101D02*
Y145738D01*
X124000Y142101D02*
Y145738D01*
X124300Y142101D02*
Y145738D01*
X124600Y142101D02*
Y145738D01*
X124900Y142101D02*
Y145738D01*
X125200Y142101D02*
Y145738D01*
X125500Y142101D02*
Y145738D01*
X125800Y142101D02*
Y145738D01*
X125991Y151643D02*
X122354D01*
Y148006*
X125991*
Y151643*
X122500Y148006D02*
Y151643D01*
X122800Y148006D02*
Y151643D01*
X123100Y148006D02*
Y151643D01*
X123400Y148006D02*
Y151643D01*
X123700Y148006D02*
Y151643D01*
X124000Y148006D02*
Y151643D01*
X124300Y148006D02*
Y151643D01*
X124600Y148006D02*
Y151643D01*
X124900Y148006D02*
Y151643D01*
X125200Y148006D02*
Y151643D01*
X125500Y148006D02*
Y151643D01*
X125800Y148006D02*
Y151643D01*
X131897Y145738D02*
X128260D01*
Y142101*
X131897*
Y145738*
X128500Y142101D02*
Y145738D01*
X128800Y142101D02*
Y145738D01*
X129100Y142101D02*
Y145738D01*
X129400Y142101D02*
Y145738D01*
X129700Y142101D02*
Y145738D01*
X130000Y142101D02*
Y145738D01*
X130300Y142101D02*
Y145738D01*
X130600Y142101D02*
Y145738D01*
X130900Y142101D02*
Y145738D01*
X131200Y142101D02*
Y145738D01*
X131500Y142101D02*
Y145738D01*
X131800Y142101D02*
Y145738D01*
X137802D02*
X134165D01*
Y142101*
X137802*
Y145738*
X134200Y142101D02*
Y145738D01*
X134500Y142101D02*
Y145738D01*
X134800Y142101D02*
Y145738D01*
X135100Y142101D02*
Y145738D01*
X135400Y142101D02*
Y145738D01*
X135700Y142101D02*
Y145738D01*
X136000Y142101D02*
Y145738D01*
X136300Y142101D02*
Y145738D01*
X136600Y142101D02*
Y145738D01*
X136900Y142101D02*
Y145738D01*
X137200Y142101D02*
Y145738D01*
X137500Y142101D02*
Y145738D01*
X137800Y142101D02*
Y145738D01*
G54D246*
X100000Y170906D03*
Y165906D03*
Y160906D03*
Y155906D03*
Y150906D03*
Y145906D03*
Y140906D03*
Y135906D03*
Y130906D03*
Y125906D03*
Y120906D03*
Y115906D03*
Y110906D03*
Y105906D03*
X170866D03*
Y110906D03*
Y115906D03*
Y120906D03*
Y125906D03*
Y130906D03*
Y135906D03*
Y140906D03*
Y145906D03*
Y150906D03*
Y155906D03*
Y160906D03*
Y165906D03*
Y170906D03*
G54D247*
X107933Y100000D03*
X112933D03*
X117933D03*
X122933D03*
X127933D03*
X132933D03*
X137933D03*
X142933D03*
X147933D03*
X152933D03*
X157933D03*
X162933D03*
G54D268*
X130078Y149825D03*
X0Y0D02*
M02*
