*
*
G04 PADS VX.2 Build Number: 5060570 generated Gerber (RS-274-X) file*
G04 PC Version=2.1*
*
%IN "PCB_ESP32-S3-WROOM-2_V1"*%
*
%MOIN*%
*
%FSLAX35Y35*%
*
*
*
*
G04 PC Standard Apertures*
*
*
G04 Thermal Relief Aperture macro.*
%AMTER*
1,1,$1,0,0*
1,0,$1-$2,0,0*
21,0,$3,$4,0,0,45*
21,0,$3,$4,0,0,135*
%
*
*
G04 Annular Aperture macro.*
%AMANN*
1,1,$1,0,0*
1,0,$2,0,0*
%
*
*
G04 Odd Aperture macro.*
%AMODD*
1,1,$1,0,0*
1,0,$1-0.005,0,0*
%
*
*
G04 PC Custom Aperture Macros*
*
*
*
*
*
*
G04 PC Aperture Table*
*
%ADD010C,0.001*%
%ADD027C,0.00394*%
%ADD030C,0.01*%
%ADD036C,0.006*%
%ADD133C,0.02362*%
%ADD172C,0.02362*%
%ADD233R,0.03843X0.03843*%
%ADD235R,0.03056X0.01875*%
%ADD236R,0.02269X0.02662*%
%ADD237R,0.04237X0.04631*%
%ADD244R,0.04237X0.04237*%
%ADD245C,0.01875*%
%ADD256R,0.03843X0.03843*%
%ADD257R,0.01717X0.01717*%
%ADD258R,0.027X0.027*%
%ADD261R,0.01166X0.02859*%
%ADD262R,0.02859X0.01166*%
%ADD266O,0.01166X0.02859*%
%ADD267O,0.02859X0.01166*%
*
*
*
*
G04 PC Circuitry*
G04 Layer Name PCB_ESP32-S3-WROOM-2_V1 - circuitry*
%LPD*%
*
*
G04 PC Custom Flashes*
G04 Layer Name PCB_ESP32-S3-WROOM-2_V1 - flashes*
%LPD*%
*
*
G04 PC Circuitry*
G04 Layer Name PCB_ESP32-S3-WROOM-2_V1 - circuitry*
%LPD*%
*
G54D10*
G01X142906Y166788D02*
X141762Y165644D01*
X142906Y164500*
X144050Y165644*
X142906Y166788*
X142806Y164600D02*
X143006D01*
X142706Y164700D02*
X143106D01*
X142606Y164800D02*
X143206D01*
X142506Y164900D02*
X143306D01*
X142406Y165000D02*
X143406D01*
X142306Y165100D02*
X143506D01*
X142206Y165200D02*
X143606D01*
X142106Y165300D02*
X143706D01*
X142006Y165400D02*
X143806D01*
X141906Y165500D02*
X143906D01*
X141806Y165600D02*
X144006D01*
X141818Y165700D02*
X143994D01*
X141918Y165800D02*
X143894D01*
X142018Y165900D02*
X143794D01*
X142118Y166000D02*
X143694D01*
X142218Y166100D02*
X143594D01*
X142318Y166200D02*
X143494D01*
X142418Y166300D02*
X143394D01*
X142518Y166400D02*
X143294D01*
X142618Y166500D02*
X143194D01*
X142718Y166600D02*
X143094D01*
X142818Y166700D02*
X142994D01*
X141800Y165606D02*
Y165682D01*
X141900Y165506D02*
Y165782D01*
X142000Y165406D02*
Y165882D01*
X142100Y165306D02*
Y165982D01*
X142200Y165206D02*
Y166082D01*
X142300Y165106D02*
Y166182D01*
X142400Y165006D02*
Y166282D01*
X142500Y164906D02*
Y166382D01*
X142600Y164806D02*
Y166482D01*
X142700Y164706D02*
Y166582D01*
X142800Y164606D02*
Y166682D01*
X142900Y164506D02*
Y166782D01*
X143000Y164594D02*
Y166694D01*
X143100Y164694D02*
Y166594D01*
X143200Y164794D02*
Y166494D01*
X143300Y164894D02*
Y166394D01*
X143400Y164994D02*
Y166294D01*
X143500Y165094D02*
Y166194D01*
X143600Y165194D02*
Y166094D01*
X143700Y165294D02*
Y165994D01*
X143800Y165394D02*
Y165894D01*
X143900Y165494D02*
Y165794D01*
X144000Y165594D02*
Y165694D01*
X141514Y168180D02*
X140370Y167036D01*
X141514Y165892*
X142658Y167036*
X141514Y168180*
X141506Y165900D02*
X141522D01*
X141406Y166000D02*
X141622D01*
X141306Y166100D02*
X141722D01*
X141206Y166200D02*
X141822D01*
X141106Y166300D02*
X141922D01*
X141006Y166400D02*
X142022D01*
X140906Y166500D02*
X142122D01*
X140806Y166600D02*
X142222D01*
X140706Y166700D02*
X142322D01*
X140606Y166800D02*
X142422D01*
X140506Y166900D02*
X142522D01*
X140406Y167000D02*
X142622D01*
X140434Y167100D02*
X142594D01*
X140534Y167200D02*
X142494D01*
X140634Y167300D02*
X142394D01*
X140734Y167400D02*
X142294D01*
X140834Y167500D02*
X142194D01*
X140934Y167600D02*
X142094D01*
X141034Y167700D02*
X141994D01*
X141134Y167800D02*
X141894D01*
X141234Y167900D02*
X141794D01*
X141334Y168000D02*
X141694D01*
X141434Y168100D02*
X141594D01*
X140400Y167006D02*
Y167066D01*
X140500Y166906D02*
Y167166D01*
X140600Y166806D02*
Y167266D01*
X140700Y166706D02*
Y167366D01*
X140800Y166606D02*
Y167466D01*
X140900Y166506D02*
Y167566D01*
X141000Y166406D02*
Y167666D01*
X141100Y166306D02*
Y167766D01*
X141200Y166206D02*
Y167866D01*
X141300Y166106D02*
Y167966D01*
X141400Y166006D02*
Y168066D01*
X141500Y165906D02*
Y168166D01*
X141600Y165978D02*
Y168094D01*
X141700Y166078D02*
Y167994D01*
X141800Y166178D02*
Y167894D01*
X141900Y166278D02*
Y167794D01*
X142000Y166378D02*
Y167694D01*
X142100Y166478D02*
Y167594D01*
X142200Y166578D02*
Y167494D01*
X142300Y166678D02*
Y167394D01*
X142400Y166778D02*
Y167294D01*
X142500Y166878D02*
Y167194D01*
X142600Y166978D02*
Y167094D01*
X135784Y168928D02*
X134640Y167784D01*
X135784Y166640*
X136928Y167784*
X135784Y168928*
X135724Y166700D02*
X135844D01*
X135624Y166800D02*
X135944D01*
X135524Y166900D02*
X136044D01*
X135424Y167000D02*
X136144D01*
X135324Y167100D02*
X136244D01*
X135224Y167200D02*
X136344D01*
X135124Y167300D02*
X136444D01*
X135024Y167400D02*
X136544D01*
X134924Y167500D02*
X136644D01*
X134824Y167600D02*
X136744D01*
X134724Y167700D02*
X136844D01*
X134656Y167800D02*
X136912D01*
X134756Y167900D02*
X136812D01*
X134856Y168000D02*
X136712D01*
X134956Y168100D02*
X136612D01*
X135056Y168200D02*
X136512D01*
X135156Y168300D02*
X136412D01*
X135256Y168400D02*
X136312D01*
X135356Y168500D02*
X136212D01*
X135456Y168600D02*
X136112D01*
X135556Y168700D02*
X136012D01*
X135656Y168800D02*
X135912D01*
X135756Y168900D02*
X135812D01*
X134700Y167724D02*
Y167844D01*
X134800Y167624D02*
Y167944D01*
X134900Y167524D02*
Y168044D01*
X135000Y167424D02*
Y168144D01*
X135100Y167324D02*
Y168244D01*
X135200Y167224D02*
Y168344D01*
X135300Y167124D02*
Y168444D01*
X135400Y167024D02*
Y168544D01*
X135500Y166924D02*
Y168644D01*
X135600Y166824D02*
Y168744D01*
X135700Y166724D02*
Y168844D01*
X135800Y166656D02*
Y168912D01*
X135900Y166756D02*
Y168812D01*
X136000Y166856D02*
Y168712D01*
X136100Y166956D02*
Y168612D01*
X136200Y167056D02*
Y168512D01*
X136300Y167156D02*
Y168412D01*
X136400Y167256D02*
Y168312D01*
X136500Y167356D02*
Y168212D01*
X136600Y167456D02*
Y168112D01*
X136700Y167556D02*
Y168012D01*
X136800Y167656D02*
Y167912D01*
X136900Y167756D02*
Y167812D01*
X137176Y170320D02*
X136032Y169176D01*
X137176Y168032*
X138320Y169176*
X137176Y170320*
X137108Y168100D02*
X137244D01*
X137008Y168200D02*
X137344D01*
X136908Y168300D02*
X137444D01*
X136808Y168400D02*
X137544D01*
X136708Y168500D02*
X137644D01*
X136608Y168600D02*
X137744D01*
X136508Y168700D02*
X137844D01*
X136408Y168800D02*
X137944D01*
X136308Y168900D02*
X138044D01*
X136208Y169000D02*
X138144D01*
X136108Y169100D02*
X138244D01*
X136056Y169200D02*
X138296D01*
X136156Y169300D02*
X138196D01*
X136256Y169400D02*
X138096D01*
X136356Y169500D02*
X137996D01*
X136456Y169600D02*
X137896D01*
X136556Y169700D02*
X137796D01*
X136656Y169800D02*
X137696D01*
X136756Y169900D02*
X137596D01*
X136856Y170000D02*
X137496D01*
X136956Y170100D02*
X137396D01*
X137056Y170200D02*
X137296D01*
X137156Y170300D02*
X137196D01*
X136100Y169108D02*
Y169244D01*
X136200Y169008D02*
Y169344D01*
X136300Y168908D02*
Y169444D01*
X136400Y168808D02*
Y169544D01*
X136500Y168708D02*
Y169644D01*
X136600Y168608D02*
Y169744D01*
X136700Y168508D02*
Y169844D01*
X136800Y168408D02*
Y169944D01*
X136900Y168308D02*
Y170044D01*
X137000Y168208D02*
Y170144D01*
X137100Y168108D02*
Y170244D01*
X137200Y168056D02*
Y170296D01*
X137300Y168156D02*
Y170196D01*
X137400Y168256D02*
Y170096D01*
X137500Y168356D02*
Y169996D01*
X137600Y168456D02*
Y169896D01*
X137700Y168556D02*
Y169796D01*
X137800Y168656D02*
Y169696D01*
X137900Y168756D02*
Y169596D01*
X138000Y168856D02*
Y169496D01*
X138100Y168956D02*
Y169396D01*
X138200Y169056D02*
Y169296D01*
X138300Y169156D02*
Y169196D01*
X143154Y169808D02*
X142010Y168664D01*
X143154Y167520*
X144298Y168664*
X143154Y169808*
X143074Y167600D02*
X143234D01*
X142974Y167700D02*
X143334D01*
X142874Y167800D02*
X143434D01*
X142774Y167900D02*
X143534D01*
X142674Y168000D02*
X143634D01*
X142574Y168100D02*
X143734D01*
X142474Y168200D02*
X143834D01*
X142374Y168300D02*
X143934D01*
X142274Y168400D02*
X144034D01*
X142174Y168500D02*
X144134D01*
X142074Y168600D02*
X144234D01*
X142046Y168700D02*
X144262D01*
X142146Y168800D02*
X144162D01*
X142246Y168900D02*
X144062D01*
X142346Y169000D02*
X143962D01*
X142446Y169100D02*
X143862D01*
X142546Y169200D02*
X143762D01*
X142646Y169300D02*
X143662D01*
X142746Y169400D02*
X143562D01*
X142846Y169500D02*
X143462D01*
X142946Y169600D02*
X143362D01*
X143046Y169700D02*
X143262D01*
X143146Y169800D02*
X143162D01*
X142100Y168574D02*
Y168754D01*
X142200Y168474D02*
Y168854D01*
X142300Y168374D02*
Y168954D01*
X142400Y168274D02*
Y169054D01*
X142500Y168174D02*
Y169154D01*
X142600Y168074D02*
Y169254D01*
X142700Y167974D02*
Y169354D01*
X142800Y167874D02*
Y169454D01*
X142900Y167774D02*
Y169554D01*
X143000Y167674D02*
Y169654D01*
X143100Y167574D02*
Y169754D01*
X143200Y167566D02*
Y169762D01*
X143300Y167666D02*
Y169662D01*
X143400Y167766D02*
Y169562D01*
X143500Y167866D02*
Y169462D01*
X143600Y167966D02*
Y169362D01*
X143700Y168066D02*
Y169262D01*
X143800Y168166D02*
Y169162D01*
X143900Y168266D02*
Y169062D01*
X144000Y168366D02*
Y168962D01*
X144100Y168466D02*
Y168862D01*
X144200Y168566D02*
Y168762D01*
X144546Y171200D02*
X143402Y170056D01*
X144546Y168912*
X145690Y170056*
X144546Y171200*
X144458Y169000D02*
X144634D01*
X144358Y169100D02*
X144734D01*
X144258Y169200D02*
X144834D01*
X144158Y169300D02*
X144934D01*
X144058Y169400D02*
X145034D01*
X143958Y169500D02*
X145134D01*
X143858Y169600D02*
X145234D01*
X143758Y169700D02*
X145334D01*
X143658Y169800D02*
X145434D01*
X143558Y169900D02*
X145534D01*
X143458Y170000D02*
X145634D01*
X143446Y170100D02*
X145646D01*
X143546Y170200D02*
X145546D01*
X143646Y170300D02*
X145446D01*
X143746Y170400D02*
X145346D01*
X143846Y170500D02*
X145246D01*
X143946Y170600D02*
X145146D01*
X144046Y170700D02*
X145046D01*
X144146Y170800D02*
X144946D01*
X144246Y170900D02*
X144846D01*
X144346Y171000D02*
X144746D01*
X144446Y171100D02*
X144646D01*
X143500Y169958D02*
Y170154D01*
X143600Y169858D02*
Y170254D01*
X143700Y169758D02*
Y170354D01*
X143800Y169658D02*
Y170454D01*
X143900Y169558D02*
Y170554D01*
X144000Y169458D02*
Y170654D01*
X144100Y169358D02*
Y170754D01*
X144200Y169258D02*
Y170854D01*
X144300Y169158D02*
Y170954D01*
X144400Y169058D02*
Y171054D01*
X144500Y168958D02*
Y171154D01*
X144600Y168966D02*
Y171146D01*
X144700Y169066D02*
Y171046D01*
X144800Y169166D02*
Y170946D01*
X144900Y169266D02*
Y170846D01*
X145000Y169366D02*
Y170746D01*
X145100Y169466D02*
Y170646D01*
X145200Y169566D02*
Y170546D01*
X145300Y169666D02*
Y170446D01*
X145400Y169766D02*
Y170346D01*
X145500Y169866D02*
Y170246D01*
X145600Y169966D02*
Y170146D01*
X154696Y166748D02*
X153552Y165604D01*
X154696Y164460*
X155840Y165604*
X154696Y166748*
X154656Y164500D02*
X154736D01*
X154556Y164600D02*
X154836D01*
X154456Y164700D02*
X154936D01*
X154356Y164800D02*
X155036D01*
X154256Y164900D02*
X155136D01*
X154156Y165000D02*
X155236D01*
X154056Y165100D02*
X155336D01*
X153956Y165200D02*
X155436D01*
X153856Y165300D02*
X155536D01*
X153756Y165400D02*
X155636D01*
X153656Y165500D02*
X155736D01*
X153556Y165600D02*
X155836D01*
X153648Y165700D02*
X155744D01*
X153748Y165800D02*
X155644D01*
X153848Y165900D02*
X155544D01*
X153948Y166000D02*
X155444D01*
X154048Y166100D02*
X155344D01*
X154148Y166200D02*
X155244D01*
X154248Y166300D02*
X155144D01*
X154348Y166400D02*
X155044D01*
X154448Y166500D02*
X154944D01*
X154548Y166600D02*
X154844D01*
X154648Y166700D02*
X154744D01*
X153600Y165556D02*
Y165652D01*
X153700Y165456D02*
Y165752D01*
X153800Y165356D02*
Y165852D01*
X153900Y165256D02*
Y165952D01*
X154000Y165156D02*
Y166052D01*
X154100Y165056D02*
Y166152D01*
X154200Y164956D02*
Y166252D01*
X154300Y164856D02*
Y166352D01*
X154400Y164756D02*
Y166452D01*
X154500Y164656D02*
Y166552D01*
X154600Y164556D02*
Y166652D01*
X154700Y164464D02*
Y166744D01*
X154800Y164564D02*
Y166644D01*
X154900Y164664D02*
Y166544D01*
X155000Y164764D02*
Y166444D01*
X155100Y164864D02*
Y166344D01*
X155200Y164964D02*
Y166244D01*
X155300Y165064D02*
Y166144D01*
X155400Y165164D02*
Y166044D01*
X155500Y165264D02*
Y165944D01*
X155600Y165364D02*
Y165844D01*
X155700Y165464D02*
Y165744D01*
X155800Y165564D02*
Y165644D01*
X153304Y168140D02*
X152160Y166996D01*
X153304Y165852*
X154448Y166996*
X153304Y168140*
X153256Y165900D02*
X153352D01*
X153156Y166000D02*
X153452D01*
X153056Y166100D02*
X153552D01*
X152956Y166200D02*
X153652D01*
X152856Y166300D02*
X153752D01*
X152756Y166400D02*
X153852D01*
X152656Y166500D02*
X153952D01*
X152556Y166600D02*
X154052D01*
X152456Y166700D02*
X154152D01*
X152356Y166800D02*
X154252D01*
X152256Y166900D02*
X154352D01*
X152164Y167000D02*
X154444D01*
X152264Y167100D02*
X154344D01*
X152364Y167200D02*
X154244D01*
X152464Y167300D02*
X154144D01*
X152564Y167400D02*
X154044D01*
X152664Y167500D02*
X153944D01*
X152764Y167600D02*
X153844D01*
X152864Y167700D02*
X153744D01*
X152964Y167800D02*
X153644D01*
X153064Y167900D02*
X153544D01*
X153164Y168000D02*
X153444D01*
X153264Y168100D02*
X153344D01*
X152200Y166956D02*
Y167036D01*
X152300Y166856D02*
Y167136D01*
X152400Y166756D02*
Y167236D01*
X152500Y166656D02*
Y167336D01*
X152600Y166556D02*
Y167436D01*
X152700Y166456D02*
Y167536D01*
X152800Y166356D02*
Y167636D01*
X152900Y166256D02*
Y167736D01*
X153000Y166156D02*
Y167836D01*
X153100Y166056D02*
Y167936D01*
X153200Y165956D02*
Y168036D01*
X153300Y165856D02*
Y168136D01*
X153400Y165948D02*
Y168044D01*
X153500Y166048D02*
Y167944D01*
X153600Y166148D02*
Y167844D01*
X153700Y166248D02*
Y167744D01*
X153800Y166348D02*
Y167644D01*
X153900Y166448D02*
Y167544D01*
X154000Y166548D02*
Y167444D01*
X154100Y166648D02*
Y167344D01*
X154200Y166748D02*
Y167244D01*
X154300Y166848D02*
Y167144D01*
X154400Y166948D02*
Y167044D01*
X150254Y171190D02*
X149110Y170046D01*
X150254Y168902*
X151398Y170046*
X150254Y171190*
X150156Y169000D02*
X150352D01*
X150056Y169100D02*
X150452D01*
X149956Y169200D02*
X150552D01*
X149856Y169300D02*
X150652D01*
X149756Y169400D02*
X150752D01*
X149656Y169500D02*
X150852D01*
X149556Y169600D02*
X150952D01*
X149456Y169700D02*
X151052D01*
X149356Y169800D02*
X151152D01*
X149256Y169900D02*
X151252D01*
X149156Y170000D02*
X151352D01*
X149164Y170100D02*
X151344D01*
X149264Y170200D02*
X151244D01*
X149364Y170300D02*
X151144D01*
X149464Y170400D02*
X151044D01*
X149564Y170500D02*
X150944D01*
X149664Y170600D02*
X150844D01*
X149764Y170700D02*
X150744D01*
X149864Y170800D02*
X150644D01*
X149964Y170900D02*
X150544D01*
X150064Y171000D02*
X150444D01*
X150164Y171100D02*
X150344D01*
X149200Y169956D02*
Y170136D01*
X149300Y169856D02*
Y170236D01*
X149400Y169756D02*
Y170336D01*
X149500Y169656D02*
Y170436D01*
X149600Y169556D02*
Y170536D01*
X149700Y169456D02*
Y170636D01*
X149800Y169356D02*
Y170736D01*
X149900Y169256D02*
Y170836D01*
X150000Y169156D02*
Y170936D01*
X150100Y169056D02*
Y171036D01*
X150200Y168956D02*
Y171136D01*
X150300Y168948D02*
Y171144D01*
X150400Y169048D02*
Y171044D01*
X150500Y169148D02*
Y170944D01*
X150600Y169248D02*
Y170844D01*
X150700Y169348D02*
Y170744D01*
X150800Y169448D02*
Y170644D01*
X150900Y169548D02*
Y170544D01*
X151000Y169648D02*
Y170444D01*
X151100Y169748D02*
Y170344D01*
X151200Y169848D02*
Y170244D01*
X151300Y169948D02*
Y170144D01*
X151646Y169798D02*
X150502Y168654D01*
X151646Y167510*
X152790Y168654*
X151646Y169798*
X151556Y167600D02*
X151736D01*
X151456Y167700D02*
X151836D01*
X151356Y167800D02*
X151936D01*
X151256Y167900D02*
X152036D01*
X151156Y168000D02*
X152136D01*
X151056Y168100D02*
X152236D01*
X150956Y168200D02*
X152336D01*
X150856Y168300D02*
X152436D01*
X150756Y168400D02*
X152536D01*
X150656Y168500D02*
X152636D01*
X150556Y168600D02*
X152736D01*
X150548Y168700D02*
X152744D01*
X150648Y168800D02*
X152644D01*
X150748Y168900D02*
X152544D01*
X150848Y169000D02*
X152444D01*
X150948Y169100D02*
X152344D01*
X151048Y169200D02*
X152244D01*
X151148Y169300D02*
X152144D01*
X151248Y169400D02*
X152044D01*
X151348Y169500D02*
X151944D01*
X151448Y169600D02*
X151844D01*
X151548Y169700D02*
X151744D01*
X150600Y168556D02*
Y168752D01*
X150700Y168456D02*
Y168852D01*
X150800Y168356D02*
Y168952D01*
X150900Y168256D02*
Y169052D01*
X151000Y168156D02*
Y169152D01*
X151100Y168056D02*
Y169252D01*
X151200Y167956D02*
Y169352D01*
X151300Y167856D02*
Y169452D01*
X151400Y167756D02*
Y169552D01*
X151500Y167656D02*
Y169652D01*
X151600Y167556D02*
Y169752D01*
X151700Y167564D02*
Y169744D01*
X151800Y167664D02*
Y169644D01*
X151900Y167764D02*
Y169544D01*
X152000Y167864D02*
Y169444D01*
X152100Y167964D02*
Y169344D01*
X152200Y168064D02*
Y169244D01*
X152300Y168164D02*
Y169144D01*
X152400Y168264D02*
Y169044D01*
X152500Y168364D02*
Y168944D01*
X152600Y168464D02*
Y168844D01*
X152700Y168564D02*
Y168744D01*
G54D27*
X155815Y151924D02*
X156969Y153078D01*
Y156161*
X153126*
Y151924*
X155815*
X153276D02*
Y156161D01*
X153472Y151924D02*
Y156161D01*
X153669Y151924D02*
Y156161D01*
X153866Y151924D02*
Y156161D01*
X154063Y151924D02*
Y156161D01*
X154260Y151924D02*
Y156161D01*
X154457Y151924D02*
Y156161D01*
X154654Y151924D02*
Y156161D01*
X154850Y151924D02*
Y156161D01*
X155047Y151924D02*
Y156161D01*
X155244Y151924D02*
Y156161D01*
X155441Y151924D02*
Y156161D01*
X155638Y151924D02*
Y156161D01*
X155835Y151944D02*
Y156161D01*
X156031Y152141D02*
Y156161D01*
X156228Y152337D02*
Y156161D01*
X156425Y152534D02*
Y156161D01*
X156622Y152731D02*
Y156161D01*
X156819Y152928D02*
Y156161D01*
X166407Y104727D02*
Y109173D01*
X161961Y104727*
X166407*
Y172803D02*
X161961D01*
X166407Y168357*
Y172803*
X166294Y109060D02*
X166407D01*
X165900Y108666D02*
X166407D01*
X165506Y108272D02*
X166407D01*
X165112Y107878D02*
X166407D01*
X164718Y107484D02*
X166407D01*
X164324Y107090D02*
X166407D01*
X163930Y106696D02*
X166407D01*
X163536Y106302D02*
X166407D01*
X163142Y105908D02*
X166407D01*
X162748Y105514D02*
X166407D01*
X162354Y105120D02*
X166407D01*
X162074Y172689D02*
X166407D01*
X162468Y172295D02*
X166407D01*
X162862Y171901D02*
X166407D01*
X163256Y171507D02*
X166407D01*
X163650Y171113D02*
X166407D01*
X164044Y170719D02*
X166407D01*
X164438Y170325D02*
X166407D01*
X164832Y169931D02*
X166407D01*
X165226Y169537D02*
X166407D01*
X165620Y169143D02*
X166407D01*
X166014Y168749D02*
X166407D01*
X166295Y104727D02*
Y109061D01*
X165901Y104727D02*
Y108667D01*
X165507Y104727D02*
Y108273D01*
X165113Y104727D02*
Y107879D01*
X164719Y104727D02*
Y107485D01*
X164325Y104727D02*
Y107091D01*
X163931Y104727D02*
Y106697D01*
X163537Y104727D02*
Y106303D01*
X163143Y104727D02*
Y105909D01*
X162749Y104727D02*
Y105515D01*
X162355Y104727D02*
Y105121D01*
X166295Y168469D02*
Y172803D01*
X165901Y168863D02*
Y172803D01*
X165507Y169257D02*
Y172803D01*
X165113Y169651D02*
Y172803D01*
X164719Y170045D02*
Y172803D01*
X164325Y170439D02*
Y172803D01*
X163931Y170833D02*
Y172803D01*
X163537Y171227D02*
Y172803D01*
X163143Y171621D02*
Y172803D01*
X162749Y172015D02*
Y172803D01*
X162355Y172409D02*
Y172803D01*
G54D30*
X100000Y200394D02*
X170866D01*
Y100000*
X100000*
Y200394*
G54D36*
X137802Y153912D02*
Y157549D01*
X134165*
Y153912*
X137802*
X134278D02*
Y157549D01*
X134578Y153912D02*
Y157549D01*
X134878Y153912D02*
Y157549D01*
X135178Y153912D02*
Y157549D01*
X135478Y153912D02*
Y157549D01*
X135778Y153912D02*
Y157549D01*
X136078Y153912D02*
Y157549D01*
X136378Y153912D02*
Y157549D01*
X136678Y153912D02*
Y157549D01*
X136978Y153912D02*
Y157549D01*
X137278Y153912D02*
Y157549D01*
X137578Y153912D02*
Y157549D01*
X137802Y148006D02*
Y151644D01*
X134165*
Y148006*
X137802*
X134278D02*
Y151644D01*
X134578Y148006D02*
Y151644D01*
X134878Y148006D02*
Y151644D01*
X135178Y148006D02*
Y151644D01*
X135478Y148006D02*
Y151644D01*
X135778Y148006D02*
Y151644D01*
X136078Y148006D02*
Y151644D01*
X136378Y148006D02*
Y151644D01*
X136678Y148006D02*
Y151644D01*
X136978Y148006D02*
Y151644D01*
X137278Y148006D02*
Y151644D01*
X137578Y148006D02*
Y151644D01*
X137802Y142101D02*
Y145738D01*
X134165*
Y142101*
X137802*
X134278D02*
Y145738D01*
X134578Y142101D02*
Y145738D01*
X134878Y142101D02*
Y145738D01*
X135178Y142101D02*
Y145738D01*
X135478Y142101D02*
Y145738D01*
X135778Y142101D02*
Y145738D01*
X136078Y142101D02*
Y145738D01*
X136378Y142101D02*
Y145738D01*
X136678Y142101D02*
Y145738D01*
X136978Y142101D02*
Y145738D01*
X137278Y142101D02*
Y145738D01*
X137578Y142101D02*
Y145738D01*
X131897Y142101D02*
Y145738D01*
X128259*
Y142101*
X131897*
X128278D02*
Y145738D01*
X128578Y142101D02*
Y145738D01*
X128878Y142101D02*
Y145738D01*
X129178Y142101D02*
Y145738D01*
X129478Y142101D02*
Y145738D01*
X129778Y142101D02*
Y145738D01*
X130078Y142101D02*
Y145738D01*
X130378Y142101D02*
Y145738D01*
X130678Y142101D02*
Y145738D01*
X130978Y142101D02*
Y145738D01*
X131278Y142101D02*
Y145738D01*
X131578Y142101D02*
Y145738D01*
X131878Y142101D02*
Y145738D01*
X125991Y142101D02*
Y145738D01*
X122354*
Y142101*
X125991*
X122578D02*
Y145738D01*
X122878Y142101D02*
Y145738D01*
X123178Y142101D02*
Y145738D01*
X123478Y142101D02*
Y145738D01*
X123778Y142101D02*
Y145738D01*
X124078Y142101D02*
Y145738D01*
X124378Y142101D02*
Y145738D01*
X124678Y142101D02*
Y145738D01*
X124978Y142101D02*
Y145738D01*
X125278Y142101D02*
Y145738D01*
X125578Y142101D02*
Y145738D01*
X125878Y142101D02*
Y145738D01*
X125991Y148006D02*
Y151644D01*
X122354*
Y148006*
X125991*
X122578D02*
Y151644D01*
X122878Y148006D02*
Y151644D01*
X123178Y148006D02*
Y151644D01*
X123478Y148006D02*
Y151644D01*
X123778Y148006D02*
Y151644D01*
X124078Y148006D02*
Y151644D01*
X124378Y148006D02*
Y151644D01*
X124678Y148006D02*
Y151644D01*
X124978Y148006D02*
Y151644D01*
X125278Y148006D02*
Y151644D01*
X125578Y148006D02*
Y151644D01*
X125878Y148006D02*
Y151644D01*
X125991Y153912D02*
Y157549D01*
X122354*
Y153912*
X125991*
X122578D02*
Y157549D01*
X122878Y153912D02*
Y157549D01*
X123178Y153912D02*
Y157549D01*
X123478Y153912D02*
Y157549D01*
X123778Y153912D02*
Y157549D01*
X124078Y153912D02*
Y157549D01*
X124378Y153912D02*
Y157549D01*
X124678Y153912D02*
Y157549D01*
X124978Y153912D02*
Y157549D01*
X125278Y153912D02*
Y157549D01*
X125578Y153912D02*
Y157549D01*
X125878Y153912D02*
Y157549D01*
X131897Y153912D02*
Y157549D01*
X128259*
Y153912*
X131897*
X128278D02*
Y157549D01*
X128578Y153912D02*
Y157549D01*
X128878Y153912D02*
Y157549D01*
X129178Y153912D02*
Y157549D01*
X129478Y153912D02*
Y157549D01*
X129778Y153912D02*
Y157549D01*
X130078Y153912D02*
Y157549D01*
X130378Y153912D02*
Y157549D01*
X130678Y153912D02*
Y157549D01*
X130978Y153912D02*
Y157549D01*
X131278Y153912D02*
Y157549D01*
X131578Y153912D02*
Y157549D01*
X131878Y153912D02*
Y157549D01*
X137652Y157399D02*
Y154062D01*
X134315*
Y157399*
X137652*
X134315Y148156D02*
Y151494D01*
X137652*
Y148156*
X134315*
Y142251D02*
Y145588D01*
X137652*
Y142251*
X134315*
X128409D02*
Y145588D01*
X131747*
Y142251*
X128409*
X131747Y157399D02*
Y154062D01*
X128409*
Y157399*
X131747*
X125841D02*
Y154062D01*
X122504*
Y157399*
X125841*
X122504Y148156D02*
Y151494D01*
X125841*
Y148156*
X122504*
Y142251D02*
Y145588D01*
X125841*
Y142251*
X122504*
X128409Y148156D02*
Y151494D01*
X131747*
Y148156*
X128409*
X134315Y157301D02*
X137652D01*
X134315Y156761D02*
X137652D01*
X134315Y156221D02*
X137652D01*
X134315Y155681D02*
X137652D01*
X134315Y155141D02*
X137652D01*
X134315Y154601D02*
X137652D01*
X134315Y151395D02*
X137652D01*
X134315Y150855D02*
X137652D01*
X134315Y150315D02*
X137652D01*
X134315Y149775D02*
X137652D01*
X134315Y149235D02*
X137652D01*
X134315Y148695D02*
X137652D01*
X134315Y145490D02*
X137652D01*
X134315Y144950D02*
X137652D01*
X134315Y144410D02*
X137652D01*
X134315Y143870D02*
X137652D01*
X134315Y143330D02*
X137652D01*
X134315Y142790D02*
X137652D01*
X128409Y145490D02*
X131747D01*
X128409Y144950D02*
X131747D01*
X128409Y144410D02*
X131747D01*
X128409Y143870D02*
X131747D01*
X128409Y143330D02*
X131747D01*
X128409Y142790D02*
X131747D01*
X128409Y157301D02*
X131747D01*
X128409Y156761D02*
X131747D01*
X128409Y156221D02*
X131747D01*
X128409Y155681D02*
X131747D01*
X128409Y155141D02*
X131747D01*
X128409Y154601D02*
X131747D01*
X122504Y157301D02*
X125841D01*
X122504Y156761D02*
X125841D01*
X122504Y156221D02*
X125841D01*
X122504Y155681D02*
X125841D01*
X122504Y155141D02*
X125841D01*
X122504Y154601D02*
X125841D01*
X122504Y151395D02*
X125841D01*
X122504Y150855D02*
X125841D01*
X122504Y150315D02*
X125841D01*
X122504Y149775D02*
X125841D01*
X122504Y149235D02*
X125841D01*
X122504Y148695D02*
X125841D01*
X122504Y145490D02*
X125841D01*
X122504Y144950D02*
X125841D01*
X122504Y144410D02*
X125841D01*
X122504Y143870D02*
X125841D01*
X122504Y143330D02*
X125841D01*
X122504Y142790D02*
X125841D01*
X128409Y151395D02*
X131747D01*
X128409Y150855D02*
X131747D01*
X128409Y150315D02*
X131747D01*
X128409Y149775D02*
X131747D01*
X128409Y149235D02*
X131747D01*
X128409Y148695D02*
X131747D01*
G54D133*
X105197Y121600D02*
Y111200D01*
Y173031D02*
Y160143D01*
X166614Y126000D02*
Y104531D01*
Y136000D02*
Y173016D01*
G54D172*
X142126Y173031D02*
X105197D01*
X166614Y104528D02*
X105197D01*
X166614Y173031D02*
X155906D01*
G54D233*
X100000Y170906D03*
Y165906D03*
Y160906D03*
Y155906D03*
Y150906D03*
Y145906D03*
Y140906D03*
Y135906D03*
Y130906D03*
Y125906D03*
Y120906D03*
Y115906D03*
Y110906D03*
Y105906D03*
X170866D03*
Y110906D03*
Y115906D03*
Y120906D03*
Y125906D03*
Y130906D03*
Y135906D03*
Y140906D03*
Y145906D03*
Y150906D03*
Y155906D03*
Y160906D03*
Y165906D03*
Y170906D03*
G54D235*
X108858Y168584D03*
Y165828D03*
G54D236*
X155047Y154043D03*
G54D237*
Y146956D03*
X160953D03*
Y154043D03*
G54D244*
X130078Y149825D03*
G54D245*
X152000Y176893D03*
X160806D03*
X127626Y114063D03*
Y118000D03*
Y121937D03*
Y125874D03*
X131563Y110126D03*
Y114063D03*
Y118000D03*
Y121937D03*
Y125874D03*
X135500Y110126D03*
Y114063D03*
Y118000D03*
Y121937D03*
Y125874D03*
X139437Y110126D03*
Y114063D03*
Y118000D03*
Y121937D03*
Y125874D03*
X143374Y110126D03*
Y114063D03*
Y118000D03*
Y121937D03*
Y125874D03*
G54D256*
X107933Y100000D03*
X112933D03*
X117933D03*
X122933D03*
X127933D03*
X132933D03*
X137933D03*
X142933D03*
X147933D03*
X152933D03*
X157933D03*
X162933D03*
G54D257*
X112792Y152375D03*
X110824D03*
X146969Y142985D03*
Y141016D03*
X148716Y158950D03*
X150684D03*
X116153Y169488D03*
Y167519D03*
X128265Y169478D03*
Y167510D03*
X116284Y133303D03*
X114316D03*
X159734Y142250D03*
X157766D03*
X147408Y172023D03*
Y170055D03*
X116284Y130887D03*
X114316D03*
X148716Y161375D03*
X150684D03*
X156574Y158750D03*
X158542D03*
X150684Y156000D03*
X148716D03*
X148250Y152185D03*
Y150216D03*
X149900Y142985D03*
Y141016D03*
X124600Y133334D03*
Y131365D03*
X119714Y133334D03*
Y131365D03*
X122178Y133334D03*
Y131365D03*
X127050Y133334D03*
Y131365D03*
X129450Y133334D03*
Y131365D03*
X130669Y169482D03*
X132638D03*
X115766Y121487D03*
X117734D03*
X115766Y123875D03*
X117734D03*
X143787Y133334D03*
Y131365D03*
X141343Y133334D03*
Y131365D03*
X138229Y133334D03*
Y131365D03*
X135840Y133334D03*
Y131365D03*
X133500Y133334D03*
Y131365D03*
G54D258*
X113110Y169405D03*
Y166027D03*
G54D261*
X138739Y163309D03*
X137165D03*
X135590D03*
X134015D03*
X132440D03*
X130865D03*
X129291D03*
X127716D03*
X126141D03*
X124566D03*
X122991D03*
X121417D03*
X119842D03*
Y136341D03*
X121417D03*
X122991D03*
X124566D03*
X126141D03*
X127716D03*
X129291D03*
X130865D03*
X132440D03*
X134015D03*
X135590D03*
X137165D03*
X138739D03*
X140314D03*
G54D262*
X116594Y160061D03*
Y158486D03*
Y156912D03*
Y155337D03*
Y153762D03*
Y152187D03*
Y150612D03*
Y149038D03*
Y147463D03*
Y145888D03*
Y144313D03*
Y142738D03*
Y141164D03*
Y139589D03*
X143562D03*
Y141164D03*
Y142738D03*
Y144313D03*
Y145888D03*
Y147463D03*
Y149038D03*
Y150612D03*
Y152187D03*
Y153762D03*
Y155337D03*
Y156912D03*
Y158486D03*
G54D266*
X140314Y163309D03*
G54D267*
X143562Y160061D03*
X0Y0D02*
M02*
