*
*
G04 PADS VX.2 Build Number: 5060570 generated Gerber (RS-274-X) file*
G04 PC Version=2.1*
*
%IN "PCB_ESP32-S3-WROOM-2_V1"*%
*
%MOIN*%
*
%FSLAX35Y35*%
*
*
*
*
G04 PC Standard Apertures*
*
*
G04 Thermal Relief Aperture macro.*
%AMTER*
1,1,$1,0,0*
1,0,$1-$2,0,0*
21,0,$3,$4,0,0,45*
21,0,$3,$4,0,0,135*
%
*
*
G04 Annular Aperture macro.*
%AMANN*
1,1,$1,0,0*
1,0,$2,0,0*
%
*
*
G04 Odd Aperture macro.*
%AMODD*
1,1,$1,0,0*
1,0,$1-0.005,0,0*
%
*
*
G04 PC Custom Aperture Macros*
*
*
*
*
*
*
G04 PC Aperture Table*
*
%ADD010C,0.001*%
%ADD011R,0.02X0.02*%
%ADD027C,0.00394*%
%ADD029C,0.008*%
%ADD030C,0.01*%
%ADD031C,0.012*%
%ADD036C,0.006*%
%ADD037C,0.005*%
%ADD038C,0.004*%
%ADD100C,0.00787*%
%ADD123R,0.02756X0.01575*%
%ADD131C,0.01575*%
%ADD134C,0.01575*%
%ADD145R,0.03543X0.03543*%
%ADD204C,0.009*%
%ADD209R,0.03937X0.03937*%
%ADD210R,0.01969X0.02362*%
%ADD211R,0.03937X0.04331*%
%ADD230C,0.0126*%
%ADD250R,0.03543X0.03543*%
%ADD251R,0.01181X0.01181*%
%ADD259R,0.00866X0.02559*%
%ADD260R,0.02559X0.00866*%
%ADD263O,0.00866X0.02559*%
%ADD264O,0.02559X0.00866*%
*
*
*
*
G04 PC Circuitry*
G04 Layer Name PCB_ESP32-S3-WROOM-2_V1 - circuitry*
%LPD*%
*
*
G04 PC Custom Flashes*
G04 Layer Name PCB_ESP32-S3-WROOM-2_V1 - flashes*
%LPD*%
*
*
G04 PC Circuitry*
G04 Layer Name PCB_ESP32-S3-WROOM-2_V1 - circuitry*
%LPD*%
*
G54D10*
G01X142906Y166408D02*
X142142Y165644D01*
X142906Y164880*
X143670Y165644*
X142906Y166408*
X142886Y164900D02*
X142926D01*
X142786Y165000D02*
X143026D01*
X142686Y165100D02*
X143126D01*
X142586Y165200D02*
X143226D01*
X142486Y165300D02*
X143326D01*
X142386Y165400D02*
X143426D01*
X142286Y165500D02*
X143526D01*
X142186Y165600D02*
X143626D01*
X142197Y165700D02*
X143614D01*
X142297Y165800D02*
X143514D01*
X142397Y165900D02*
X143414D01*
X142497Y166000D02*
X143314D01*
X142597Y166100D02*
X143214D01*
X142697Y166200D02*
X143114D01*
X142797Y166300D02*
X143014D01*
X142897Y166400D02*
X142914D01*
X142200Y165586D02*
Y165703D01*
X142300Y165486D02*
Y165803D01*
X142400Y165386D02*
Y165903D01*
X142500Y165286D02*
Y166003D01*
X142600Y165186D02*
Y166103D01*
X142700Y165086D02*
Y166203D01*
X142800Y164986D02*
Y166303D01*
X142900Y164886D02*
Y166403D01*
X143000Y164974D02*
Y166314D01*
X143100Y165074D02*
Y166214D01*
X143200Y165174D02*
Y166114D01*
X143300Y165274D02*
Y166014D01*
X143400Y165374D02*
Y165914D01*
X143500Y165474D02*
Y165814D01*
X143600Y165574D02*
Y165714D01*
X141514Y167800D02*
X140750Y167036D01*
X141514Y166272*
X142278Y167036*
X141514Y167800*
X141486Y166300D02*
X141543D01*
X141386Y166400D02*
X141643D01*
X141286Y166500D02*
X141743D01*
X141186Y166600D02*
X141843D01*
X141086Y166700D02*
X141943D01*
X140986Y166800D02*
X142043D01*
X140886Y166900D02*
X142143D01*
X140786Y167000D02*
X142243D01*
X140814Y167100D02*
X142214D01*
X140914Y167200D02*
X142114D01*
X141014Y167300D02*
X142014D01*
X141114Y167400D02*
X141914D01*
X141214Y167500D02*
X141814D01*
X141314Y167600D02*
X141714D01*
X141414Y167700D02*
X141614D01*
X141514Y167800D02*
X141514D01*
X140800Y166986D02*
Y167086D01*
X140900Y166886D02*
Y167186D01*
X141000Y166786D02*
Y167286D01*
X141100Y166686D02*
Y167386D01*
X141200Y166586D02*
Y167486D01*
X141300Y166486D02*
Y167586D01*
X141400Y166386D02*
Y167686D01*
X141500Y166286D02*
Y167786D01*
X141600Y166357D02*
Y167714D01*
X141700Y166457D02*
Y167614D01*
X141800Y166557D02*
Y167514D01*
X141900Y166657D02*
Y167414D01*
X142000Y166757D02*
Y167314D01*
X142100Y166857D02*
Y167214D01*
X142200Y166957D02*
Y167114D01*
X135784Y168548D02*
X135020Y167784D01*
X135784Y167020*
X136548Y167784*
X135784Y168548*
X135704Y167100D02*
X135864D01*
X135604Y167200D02*
X135964D01*
X135504Y167300D02*
X136064D01*
X135404Y167400D02*
X136164D01*
X135304Y167500D02*
X136264D01*
X135204Y167600D02*
X136364D01*
X135104Y167700D02*
X136464D01*
X135036Y167800D02*
X136533D01*
X135136Y167900D02*
X136433D01*
X135236Y168000D02*
X136333D01*
X135336Y168100D02*
X136233D01*
X135436Y168200D02*
X136133D01*
X135536Y168300D02*
X136033D01*
X135636Y168400D02*
X135933D01*
X135736Y168500D02*
X135833D01*
X135100Y167704D02*
Y167864D01*
X135200Y167604D02*
Y167964D01*
X135300Y167504D02*
Y168064D01*
X135400Y167404D02*
Y168164D01*
X135500Y167304D02*
Y168264D01*
X135600Y167204D02*
Y168364D01*
X135700Y167104D02*
Y168464D01*
X135800Y167036D02*
Y168533D01*
X135900Y167136D02*
Y168433D01*
X136000Y167236D02*
Y168333D01*
X136100Y167336D02*
Y168233D01*
X136200Y167436D02*
Y168133D01*
X136300Y167536D02*
Y168033D01*
X136400Y167636D02*
Y167933D01*
X136500Y167736D02*
Y167833D01*
X137176Y169940D02*
X136412Y169176D01*
X137176Y168412*
X137940Y169176*
X137176Y169940*
X137087Y168500D02*
X137264D01*
X136987Y168600D02*
X137364D01*
X136887Y168700D02*
X137464D01*
X136787Y168800D02*
X137564D01*
X136687Y168900D02*
X137664D01*
X136587Y169000D02*
X137764D01*
X136487Y169100D02*
X137864D01*
X136436Y169200D02*
X137916D01*
X136536Y169300D02*
X137816D01*
X136636Y169400D02*
X137716D01*
X136736Y169500D02*
X137616D01*
X136836Y169600D02*
X137516D01*
X136936Y169700D02*
X137416D01*
X137036Y169800D02*
X137316D01*
X137136Y169900D02*
X137216D01*
X136500Y169087D02*
Y169264D01*
X136600Y168987D02*
Y169364D01*
X136700Y168887D02*
Y169464D01*
X136800Y168787D02*
Y169564D01*
X136900Y168687D02*
Y169664D01*
X137000Y168587D02*
Y169764D01*
X137100Y168487D02*
Y169864D01*
X137200Y168436D02*
Y169916D01*
X137300Y168536D02*
Y169816D01*
X137400Y168636D02*
Y169716D01*
X137500Y168736D02*
Y169616D01*
X137600Y168836D02*
Y169516D01*
X137700Y168936D02*
Y169416D01*
X137800Y169036D02*
Y169316D01*
X137900Y169136D02*
Y169216D01*
X143154Y169428D02*
X142390Y168664D01*
X143154Y167900*
X143918Y168664*
X143154Y169428*
Y167900D02*
X143154D01*
X143054Y168000D02*
X143254D01*
X142954Y168100D02*
X143354D01*
X142854Y168200D02*
X143454D01*
X142754Y168300D02*
X143554D01*
X142654Y168400D02*
X143654D01*
X142554Y168500D02*
X143754D01*
X142454Y168600D02*
X143854D01*
X142426Y168700D02*
X143883D01*
X142526Y168800D02*
X143783D01*
X142626Y168900D02*
X143683D01*
X142726Y169000D02*
X143583D01*
X142826Y169100D02*
X143483D01*
X142926Y169200D02*
X143383D01*
X143026Y169300D02*
X143283D01*
X143126Y169400D02*
X143183D01*
X142400Y168654D02*
Y168674D01*
X142500Y168554D02*
Y168774D01*
X142600Y168454D02*
Y168874D01*
X142700Y168354D02*
Y168974D01*
X142800Y168254D02*
Y169074D01*
X142900Y168154D02*
Y169174D01*
X143000Y168054D02*
Y169274D01*
X143100Y167954D02*
Y169374D01*
X143200Y167946D02*
Y169383D01*
X143300Y168046D02*
Y169283D01*
X143400Y168146D02*
Y169183D01*
X143500Y168246D02*
Y169083D01*
X143600Y168346D02*
Y168983D01*
X143700Y168446D02*
Y168883D01*
X143800Y168546D02*
Y168783D01*
X143900Y168646D02*
Y168683D01*
X144546Y170820D02*
X143782Y170056D01*
X144546Y169292*
X145310Y170056*
X144546Y170820*
X144537Y169300D02*
X144554D01*
X144437Y169400D02*
X144654D01*
X144337Y169500D02*
X144754D01*
X144237Y169600D02*
X144854D01*
X144137Y169700D02*
X144954D01*
X144037Y169800D02*
X145054D01*
X143937Y169900D02*
X145154D01*
X143837Y170000D02*
X145254D01*
X143826Y170100D02*
X145266D01*
X143926Y170200D02*
X145166D01*
X144026Y170300D02*
X145066D01*
X144126Y170400D02*
X144966D01*
X144226Y170500D02*
X144866D01*
X144326Y170600D02*
X144766D01*
X144426Y170700D02*
X144666D01*
X144526Y170800D02*
X144566D01*
X143800Y170037D02*
Y170074D01*
X143900Y169937D02*
Y170174D01*
X144000Y169837D02*
Y170274D01*
X144100Y169737D02*
Y170374D01*
X144200Y169637D02*
Y170474D01*
X144300Y169537D02*
Y170574D01*
X144400Y169437D02*
Y170674D01*
X144500Y169337D02*
Y170774D01*
X144600Y169346D02*
Y170766D01*
X144700Y169446D02*
Y170666D01*
X144800Y169546D02*
Y170566D01*
X144900Y169646D02*
Y170466D01*
X145000Y169746D02*
Y170366D01*
X145100Y169846D02*
Y170266D01*
X145200Y169946D02*
Y170166D01*
X145300Y170046D02*
Y170066D01*
X154696Y166368D02*
X153932Y165604D01*
X154696Y164840*
X155460Y165604*
X154696Y166368*
X154636Y164900D02*
X154756D01*
X154536Y165000D02*
X154856D01*
X154436Y165100D02*
X154956D01*
X154336Y165200D02*
X155056D01*
X154236Y165300D02*
X155156D01*
X154136Y165400D02*
X155256D01*
X154036Y165500D02*
X155356D01*
X153936Y165600D02*
X155456D01*
X154027Y165700D02*
X155364D01*
X154127Y165800D02*
X155264D01*
X154227Y165900D02*
X155164D01*
X154327Y166000D02*
X155064D01*
X154427Y166100D02*
X154964D01*
X154527Y166200D02*
X154864D01*
X154627Y166300D02*
X154764D01*
X154000Y165536D02*
Y165673D01*
X154100Y165436D02*
Y165773D01*
X154200Y165336D02*
Y165873D01*
X154300Y165236D02*
Y165973D01*
X154400Y165136D02*
Y166073D01*
X154500Y165036D02*
Y166173D01*
X154600Y164936D02*
Y166273D01*
X154700Y164844D02*
Y166364D01*
X154800Y164944D02*
Y166264D01*
X154900Y165044D02*
Y166164D01*
X155000Y165144D02*
Y166064D01*
X155100Y165244D02*
Y165964D01*
X155200Y165344D02*
Y165864D01*
X155300Y165444D02*
Y165764D01*
X155400Y165544D02*
Y165664D01*
X153304Y167760D02*
X152540Y166996D01*
X153304Y166232*
X154068Y166996*
X153304Y167760*
X153236Y166300D02*
X153373D01*
X153136Y166400D02*
X153473D01*
X153036Y166500D02*
X153573D01*
X152936Y166600D02*
X153673D01*
X152836Y166700D02*
X153773D01*
X152736Y166800D02*
X153873D01*
X152636Y166900D02*
X153973D01*
X152544Y167000D02*
X154064D01*
X152644Y167100D02*
X153964D01*
X152744Y167200D02*
X153864D01*
X152844Y167300D02*
X153764D01*
X152944Y167400D02*
X153664D01*
X153044Y167500D02*
X153564D01*
X153144Y167600D02*
X153464D01*
X153244Y167700D02*
X153364D01*
X152600Y166936D02*
Y167056D01*
X152700Y166836D02*
Y167156D01*
X152800Y166736D02*
Y167256D01*
X152900Y166636D02*
Y167356D01*
X153000Y166536D02*
Y167456D01*
X153100Y166436D02*
Y167556D01*
X153200Y166336D02*
Y167656D01*
X153300Y166236D02*
Y167756D01*
X153400Y166327D02*
Y167664D01*
X153500Y166427D02*
Y167564D01*
X153600Y166527D02*
Y167464D01*
X153700Y166627D02*
Y167364D01*
X153800Y166727D02*
Y167264D01*
X153900Y166827D02*
Y167164D01*
X154000Y166927D02*
Y167064D01*
X150254Y170810D02*
X149490Y170046D01*
X150254Y169282*
X151018Y170046*
X150254Y170810*
X150236Y169300D02*
X150273D01*
X150136Y169400D02*
X150373D01*
X150036Y169500D02*
X150473D01*
X149936Y169600D02*
X150573D01*
X149836Y169700D02*
X150673D01*
X149736Y169800D02*
X150773D01*
X149636Y169900D02*
X150873D01*
X149536Y170000D02*
X150973D01*
X149544Y170100D02*
X150964D01*
X149644Y170200D02*
X150864D01*
X149744Y170300D02*
X150764D01*
X149844Y170400D02*
X150664D01*
X149944Y170500D02*
X150564D01*
X150044Y170600D02*
X150464D01*
X150144Y170700D02*
X150364D01*
X150244Y170800D02*
X150264D01*
X149500Y170036D02*
Y170056D01*
X149600Y169936D02*
Y170156D01*
X149700Y169836D02*
Y170256D01*
X149800Y169736D02*
Y170356D01*
X149900Y169636D02*
Y170456D01*
X150000Y169536D02*
Y170556D01*
X150100Y169436D02*
Y170656D01*
X150200Y169336D02*
Y170756D01*
X150300Y169327D02*
Y170764D01*
X150400Y169427D02*
Y170664D01*
X150500Y169527D02*
Y170564D01*
X150600Y169627D02*
Y170464D01*
X150700Y169727D02*
Y170364D01*
X150800Y169827D02*
Y170264D01*
X150900Y169927D02*
Y170164D01*
X151000Y170027D02*
Y170064D01*
X151646Y169418D02*
X150882Y168654D01*
X151646Y167890*
X152410Y168654*
X151646Y169418*
X151636Y167900D02*
X151656D01*
X151536Y168000D02*
X151756D01*
X151436Y168100D02*
X151856D01*
X151336Y168200D02*
X151956D01*
X151236Y168300D02*
X152056D01*
X151136Y168400D02*
X152156D01*
X151036Y168500D02*
X152256D01*
X150936Y168600D02*
X152356D01*
X150927Y168700D02*
X152364D01*
X151027Y168800D02*
X152264D01*
X151127Y168900D02*
X152164D01*
X151227Y169000D02*
X152064D01*
X151327Y169100D02*
X151964D01*
X151427Y169200D02*
X151864D01*
X151527Y169300D02*
X151764D01*
X151627Y169400D02*
X151664D01*
X150900Y168636D02*
Y168673D01*
X151000Y168536D02*
Y168773D01*
X151100Y168436D02*
Y168873D01*
X151200Y168336D02*
Y168973D01*
X151300Y168236D02*
Y169073D01*
X151400Y168136D02*
Y169173D01*
X151500Y168036D02*
Y169273D01*
X151600Y167936D02*
Y169373D01*
X151700Y167944D02*
Y169364D01*
X151800Y168044D02*
Y169264D01*
X151900Y168144D02*
Y169164D01*
X152000Y168244D02*
Y169064D01*
X152100Y168344D02*
Y168964D01*
X152200Y168444D02*
Y168864D01*
X152300Y168544D02*
Y168764D01*
X152400Y168644D02*
Y168664D01*
G54D11*
X113110Y169405D03*
Y166027D03*
G54D27*
X155753Y152074D02*
X156819Y153140D01*
Y156011*
X153276*
Y152074*
X155753*
X153276D02*
Y156011D01*
X153472Y152074D02*
Y156011D01*
X153669Y152074D02*
Y156011D01*
X153866Y152074D02*
Y156011D01*
X154063Y152074D02*
Y156011D01*
X154260Y152074D02*
Y156011D01*
X154457Y152074D02*
Y156011D01*
X154654Y152074D02*
Y156011D01*
X154850Y152074D02*
Y156011D01*
X155047Y152074D02*
Y156011D01*
X155244Y152074D02*
Y156011D01*
X155441Y152074D02*
Y156011D01*
X155638Y152074D02*
Y156011D01*
X155835Y152156D02*
Y156011D01*
X156031Y152353D02*
Y156011D01*
X156228Y152550D02*
Y156011D01*
X156425Y152746D02*
Y156011D01*
X156622Y152943D02*
Y156011D01*
G54D29*
X135722Y109808D02*
G75*
G03X135500Y109477I136J-331D01*
X135278Y109808I-358J-0*
G01X135500Y107600D02*
Y110126D01*
X130914Y118000D02*
G03X131245Y118221I0J358D01*
G01Y117778D02*
G03X130914Y118000I-331J-137D01*
G01X125414Y116125D02*
X128375D01*
X130250Y118000*
X131563*
X115744Y119814D02*
Y119844D01*
X115750Y119850*
X131104Y121478D02*
G03X131182Y121869I-253J253D01*
G01X131495Y121555D02*
G03X131104Y121478I-137J-331D01*
G01X115744Y119814D02*
X129441D01*
X131563Y121937*
X118977Y135566D02*
X119751Y136339D01*
X119842*
X115700Y119814D02*
X115744D01*
X114567Y152433D02*
G03X114948Y152187I381J173D01*
X114646Y151978I0J-322*
G01X114300Y152152D02*
X114335Y152187D01*
X116594*
X113691Y152375D02*
G03X114190Y152523I-0J916D01*
G01X113916Y152098D02*
G03X113691Y152375I-225J47D01*
G01X112792D02*
X114077D01*
X114300Y152152*
X119842Y136341D02*
Y136339D01*
X139300Y139601D02*
G03X139522Y139270I358J0D01*
G01X139078D02*
G03X139300Y139601I-136J331D01*
G01Y138952D02*
Y142635D01*
X140977Y144312*
X145098*
X146425Y142985*
X146969*
X143755Y121869D02*
G03X143833Y121478I331J-138D01*
X143442Y121555I-254J-254*
G01X151041Y118958D02*
G03X151432Y118881I254J254D01*
G01X151118Y118567D02*
G03X151041Y118958I-330J138D01*
G01X143374Y121937D02*
X144561Y120750D01*
X149250*
X151500Y118500*
X143562Y158486D02*
X146186D01*
X146930Y159230*
X147000Y159300*
X143562Y160061D02*
X146099D01*
X146930Y159230*
G54D30*
X139437Y108000D02*
Y110126D01*
X118977Y135566D02*
X119640D01*
X116284Y133303D02*
X116424Y133442D01*
Y133454*
X118536Y135566*
X118977*
X143610Y126038D02*
G03X143855Y125874I245J101D01*
X143610Y125709I0J-266*
G01X143374Y125874D02*
X144750D01*
X145250Y125374*
X145626*
X148716Y158950D02*
Y161375D01*
X147283Y159250D02*
G03X147341Y158959I246J-102D01*
X147050Y159017I-189J-188*
G01X147000Y159300D02*
X147350Y158950D01*
X148716*
X151016Y176943D02*
X152985D01*
Y196234*
X159573*
Y176943*
X162040*
Y198203*
X142853*
Y187573*
X134936*
Y198203*
X123913*
Y187573*
X116039*
Y198203*
X105409*
Y181962*
X107377*
Y196234*
X114070*
Y185605*
X125881*
Y196234*
X132968*
Y185605*
X144822*
Y196234*
X151016*
Y176943*
X142853Y197642D02*
X162040D01*
X142853Y196742D02*
X162040D01*
X159573Y195842D02*
X162040D01*
X159573Y194942D02*
X162040D01*
X159573Y194042D02*
X162040D01*
X159573Y193142D02*
X162040D01*
X159573Y192242D02*
X162040D01*
X159573Y191342D02*
X162040D01*
X159573Y190442D02*
X162040D01*
X159573Y189542D02*
X162040D01*
X159573Y188642D02*
X162040D01*
X159573Y187742D02*
X162040D01*
X159573Y186842D02*
X162040D01*
X159573Y185942D02*
X162040D01*
X159573Y185042D02*
X162040D01*
X159573Y184142D02*
X162040D01*
X159573Y183242D02*
X162040D01*
X159573Y182342D02*
X162040D01*
X159573Y181442D02*
X162040D01*
X159573Y180542D02*
X162040D01*
X159573Y179642D02*
X162040D01*
X159573Y178742D02*
X162040D01*
X159573Y177842D02*
X162040D01*
X151016Y195842D02*
X152985D01*
X151016Y194942D02*
X152985D01*
X151016Y194042D02*
X152985D01*
X151016Y193142D02*
X152985D01*
X151016Y192242D02*
X152985D01*
X151016Y191342D02*
X152985D01*
X151016Y190442D02*
X152985D01*
X151016Y189542D02*
X152985D01*
X151016Y188642D02*
X152985D01*
X151016Y187742D02*
X152985D01*
X151016Y186842D02*
X152985D01*
X151016Y185942D02*
X152985D01*
X151016Y185042D02*
X152985D01*
X151016Y184142D02*
X152985D01*
X151016Y183242D02*
X152985D01*
X151016Y182342D02*
X152985D01*
X151016Y181442D02*
X152985D01*
X151016Y180542D02*
X152985D01*
X151016Y179642D02*
X152985D01*
X151016Y178742D02*
X152985D01*
X151016Y177842D02*
X152985D01*
X142853Y195842D02*
X144822D01*
X142853Y194942D02*
X144822D01*
X142853Y194042D02*
X144822D01*
X142853Y193142D02*
X144822D01*
X142853Y192242D02*
X144822D01*
X142853Y191342D02*
X144822D01*
X142853Y190442D02*
X144822D01*
X142853Y189542D02*
X144822D01*
X142853Y188642D02*
X144822D01*
X142853Y187742D02*
X144822D01*
X132968Y186842D02*
X144822D01*
X132968Y185942D02*
X144822D01*
X123913Y197642D02*
X134936D01*
X123913Y196742D02*
X134936D01*
X132968Y195842D02*
X134936D01*
X132968Y194942D02*
X134936D01*
X132968Y194042D02*
X134936D01*
X132968Y193142D02*
X134936D01*
X132968Y192242D02*
X134936D01*
X132968Y191342D02*
X134936D01*
X132968Y190442D02*
X134936D01*
X132968Y189542D02*
X134936D01*
X132968Y188642D02*
X134936D01*
X132968Y187742D02*
X134936D01*
X123913Y195842D02*
X125881D01*
X123913Y194942D02*
X125881D01*
X123913Y194042D02*
X125881D01*
X123913Y193142D02*
X125881D01*
X123913Y192242D02*
X125881D01*
X123913Y191342D02*
X125881D01*
X123913Y190442D02*
X125881D01*
X123913Y189542D02*
X125881D01*
X123913Y188642D02*
X125881D01*
X123913Y187742D02*
X125881D01*
X114070Y186842D02*
X125881D01*
X114070Y185942D02*
X125881D01*
X105409Y197642D02*
X116039D01*
X105409Y196742D02*
X116039D01*
X114070Y195842D02*
X116039D01*
X114070Y194942D02*
X116039D01*
X114070Y194042D02*
X116039D01*
X114070Y193142D02*
X116039D01*
X114070Y192242D02*
X116039D01*
X114070Y191342D02*
X116039D01*
X114070Y190442D02*
X116039D01*
X114070Y189542D02*
X116039D01*
X114070Y188642D02*
X116039D01*
X114070Y187742D02*
X116039D01*
X105409Y195842D02*
X107377D01*
X105409Y194942D02*
X107377D01*
X105409Y194042D02*
X107377D01*
X105409Y193142D02*
X107377D01*
X105409Y192242D02*
X107377D01*
X105409Y191342D02*
X107377D01*
X105409Y190442D02*
X107377D01*
X105409Y189542D02*
X107377D01*
X105409Y188642D02*
X107377D01*
X105409Y187742D02*
X107377D01*
X105409Y186842D02*
X107377D01*
X105409Y185942D02*
X107377D01*
X105409Y185042D02*
X107377D01*
X105409Y184142D02*
X107377D01*
X105409Y183242D02*
X107377D01*
X105409Y182342D02*
X107377D01*
X100000Y200394D02*
X170866D01*
Y100000*
X100000*
Y200394*
G54D31*
X115700Y117600D02*
Y119814D01*
X115766Y122260D02*
Y123875D01*
X115750Y119850D02*
Y122244D01*
X115766Y122260*
X115700Y119814D02*
X115750Y119850D01*
X114674Y125190D02*
Y128070D01*
X116284Y129680*
Y130887*
X114674Y125190D02*
X115766Y124098D01*
Y123875*
Y121487D02*
Y122260D01*
X116284Y130887D02*
Y133303D01*
X159861Y152477D02*
G03X159703Y151773I1484J-704D01*
X159584Y152477I-2153J0*
G01X159703Y150893D02*
Y152793D01*
X160953Y154043*
X155503Y142293D02*
X155909Y141887D01*
X157403*
X157766Y142250*
X160403Y158693D02*
X160503D01*
X162103Y157093*
X153853Y143893D02*
X153903D01*
X155503Y142293*
X154018Y145391D02*
G03X153853Y144686I1417J-705D01*
X153687Y145391I-1583J0*
G01X153853Y143893D02*
Y145762D01*
X155047Y146956*
X158542Y158750D02*
X160403D01*
Y158693*
X162103Y156313D02*
G03X162290Y155608I1420J-0D01*
G01X161916D02*
G03X162103Y156313I-1234J705D01*
G01X160953Y154043D02*
X162103Y155193D01*
Y157093*
X162321Y152477D02*
G03X162203Y151773I2035J-704D01*
X162044Y152477I-1643J0*
G01X160953Y154043D02*
X162203Y152793D01*
Y150893*
X156403Y144686D02*
X156416Y145391D01*
X156403Y144686D02*
G03X156240Y145391I-1607J0D01*
G01X155047Y146956D02*
X156403Y145601D01*
Y143993*
X146969Y141016D02*
Y140981D01*
X149050Y138900*
G54D36*
X137652Y154062D02*
Y157399D01*
X134315*
Y154062*
X137652*
X134578D02*
Y157399D01*
X134878Y154062D02*
Y157399D01*
X135178Y154062D02*
Y157399D01*
X135478Y154062D02*
Y157399D01*
X135778Y154062D02*
Y157399D01*
X136078Y154062D02*
Y157399D01*
X136378Y154062D02*
Y157399D01*
X136678Y154062D02*
Y157399D01*
X136978Y154062D02*
Y157399D01*
X137278Y154062D02*
Y157399D01*
X137578Y154062D02*
Y157399D01*
X137652Y148156D02*
Y151494D01*
X134315*
Y148156*
X137652*
X134578D02*
Y151494D01*
X134878Y148156D02*
Y151494D01*
X135178Y148156D02*
Y151494D01*
X135478Y148156D02*
Y151494D01*
X135778Y148156D02*
Y151494D01*
X136078Y148156D02*
Y151494D01*
X136378Y148156D02*
Y151494D01*
X136678Y148156D02*
Y151494D01*
X136978Y148156D02*
Y151494D01*
X137278Y148156D02*
Y151494D01*
X137578Y148156D02*
Y151494D01*
X137652Y142251D02*
Y145588D01*
X134315*
Y142251*
X137652*
X134578D02*
Y145588D01*
X134878Y142251D02*
Y145588D01*
X135178Y142251D02*
Y145588D01*
X135478Y142251D02*
Y145588D01*
X135778Y142251D02*
Y145588D01*
X136078Y142251D02*
Y145588D01*
X136378Y142251D02*
Y145588D01*
X136678Y142251D02*
Y145588D01*
X136978Y142251D02*
Y145588D01*
X137278Y142251D02*
Y145588D01*
X137578Y142251D02*
Y145588D01*
X131747Y142251D02*
Y145588D01*
X128409*
Y142251*
X131747*
X128578D02*
Y145588D01*
X128878Y142251D02*
Y145588D01*
X129178Y142251D02*
Y145588D01*
X129478Y142251D02*
Y145588D01*
X129778Y142251D02*
Y145588D01*
X130078Y142251D02*
Y145588D01*
X130378Y142251D02*
Y145588D01*
X130678Y142251D02*
Y145588D01*
X130978Y142251D02*
Y145588D01*
X131278Y142251D02*
Y145588D01*
X131578Y142251D02*
Y145588D01*
X125841Y142251D02*
Y145588D01*
X122504*
Y142251*
X125841*
X122578D02*
Y145588D01*
X122878Y142251D02*
Y145588D01*
X123178Y142251D02*
Y145588D01*
X123478Y142251D02*
Y145588D01*
X123778Y142251D02*
Y145588D01*
X124078Y142251D02*
Y145588D01*
X124378Y142251D02*
Y145588D01*
X124678Y142251D02*
Y145588D01*
X124978Y142251D02*
Y145588D01*
X125278Y142251D02*
Y145588D01*
X125578Y142251D02*
Y145588D01*
X125841Y148156D02*
Y151494D01*
X122504*
Y148156*
X125841*
X122578D02*
Y151494D01*
X122878Y148156D02*
Y151494D01*
X123178Y148156D02*
Y151494D01*
X123478Y148156D02*
Y151494D01*
X123778Y148156D02*
Y151494D01*
X124078Y148156D02*
Y151494D01*
X124378Y148156D02*
Y151494D01*
X124678Y148156D02*
Y151494D01*
X124978Y148156D02*
Y151494D01*
X125278Y148156D02*
Y151494D01*
X125578Y148156D02*
Y151494D01*
X125841Y154062D02*
Y157399D01*
X122504*
Y154062*
X125841*
X122578D02*
Y157399D01*
X122878Y154062D02*
Y157399D01*
X123178Y154062D02*
Y157399D01*
X123478Y154062D02*
Y157399D01*
X123778Y154062D02*
Y157399D01*
X124078Y154062D02*
Y157399D01*
X124378Y154062D02*
Y157399D01*
X124678Y154062D02*
Y157399D01*
X124978Y154062D02*
Y157399D01*
X125278Y154062D02*
Y157399D01*
X125578Y154062D02*
Y157399D01*
X131747Y154062D02*
Y157399D01*
X128409*
Y154062*
X131747*
X128578D02*
Y157399D01*
X128878Y154062D02*
Y157399D01*
X129178Y154062D02*
Y157399D01*
X129478Y154062D02*
Y157399D01*
X129778Y154062D02*
Y157399D01*
X130078Y154062D02*
Y157399D01*
X130378Y154062D02*
Y157399D01*
X130678Y154062D02*
Y157399D01*
X130978Y154062D02*
Y157399D01*
X131278Y154062D02*
Y157399D01*
X131578Y154062D02*
Y157399D01*
X146788Y153040D02*
G03X146885Y152548I416J-173D01*
X146393Y152645I-318J-319*
G01X146885Y152548D02*
X146653Y152781D01*
X147777Y152300D02*
G03X148137Y152452I0J501D01*
G01X147969Y152112D02*
G03X147777Y152300I-192J-4D01*
G01X146308Y153125D02*
X147133Y152300D01*
X148135*
X148250Y152185*
G54D37*
X133629Y116576D02*
G03X133936Y116117I497J0D01*
G01X133321D02*
G03X133629Y116576I-190J459D01*
G01Y116214*
X134863Y121300D02*
G03X134971Y121843I-351J352D01*
G01X135406Y121407D02*
G03X134864Y121300I-191J-458D01*
G01X134863D02*
X135120Y121557D01*
X133629Y115676D02*
Y120065D01*
X135500Y121937*
X133594Y112654D02*
G03X134137Y112761I191J459D01*
X134029Y112218I351J-351*
G01X134137Y112761D02*
X133880Y112505D01*
X134833Y113458D02*
G03X134963Y114061I-402J402D01*
G01X135338Y113550D02*
G03X134833Y113458I-186J-411D01*
G01X135090Y113715*
X133500Y112125D02*
X135438Y114063D01*
X135500*
X130779Y115281D02*
G03X130887Y114738I459J-192D01*
X130344Y114845I-352J-352*
G01X130887Y114738D02*
X130630Y114994D01*
X130926Y114699D02*
G03X131468Y114591I351J350D01*
G01X131034Y114155D02*
G03X130926Y114699I-460J191D01*
G01X131183Y114442*
X130250Y115375D02*
X131562Y114063D01*
X131563*
X136026Y117889D02*
G03X136100Y117400I369J-195D01*
X135611Y117474I-295J-295*
G01X136100Y117400D02*
X135880Y117620D01*
X136100Y117000D02*
G03X136408Y116540I497J-0D01*
G01X135792D02*
G03X136100Y117000I-189J460D01*
G01Y116637*
X135500Y118000D02*
X136100Y117400D01*
Y116100*
X100656Y107279D02*
G03X101250Y107156I337J134D01*
X101373Y106562I257J-257*
G01X100982Y107068D02*
G03X101250Y107156I48J308D01*
X101162Y106888I220J-220*
G01X115101Y142738D02*
G03X115564Y142903I-0J734D01*
G01Y142574D02*
G03X115101Y142738I-463J-569D01*
G01X100000Y105906D02*
X101250Y107156D01*
X106220*
X111750Y112686*
Y136800*
X113350Y138400*
Y141350*
X114738Y142738*
X116594*
X101498Y110641D02*
G03X101802Y109104I1300J-542D01*
X100265Y109408I-995J-996*
G01X101341Y110186D02*
G03X101802Y109104I1577J33D01*
G01X101169Y109932D02*
G03X101802Y109104I3410J1948D01*
X100974Y109737I-2776J-2777*
G01X101802Y109104D02*
G03X100720Y109565I-1115J-1116D01*
G01X115101Y144175D02*
G03X115564Y144460I-0J519D01*
G01Y144130D02*
G03X115101Y144175I-463J-2369D01*
G01X100000Y110906D02*
X102156Y108750D01*
X106400*
X110750Y113100*
Y137300*
X112340Y138890*
Y141871*
X114644Y144175*
X116456*
X116594Y144313*
X140850Y115630D02*
G03X140942Y116149I-325J325D01*
G01X141369Y115722D02*
G03X140850Y115630I-194J-417D01*
G01X141090Y115870D02*
X140850Y115630D01*
X141470Y116250*
X142481Y113950D02*
G03X142872Y114255I-0J404D01*
G01X143110Y113595D02*
G03X142481Y113950I-629J-379D01*
X142845Y113969I-0J3571*
G01X140850Y115630D02*
Y114700D01*
X141600Y113950*
X143261*
X143374Y114063*
X138779Y116056D02*
G03X138887Y115513I459J-191D01*
X138344Y115621I-352J-351*
G01X138887Y115513D02*
X138630Y115770D01*
X139437Y114963D02*
G03X139745Y114503I497J-0D01*
G01X139129D02*
G03X139437Y114963I-189J460D01*
G01Y114600*
X138250Y116150D02*
X139437Y114963D01*
Y114063*
X145241Y116707D02*
G03X145700Y116400I459J190D01*
X145241Y116092I0J-498*
G01X145700Y116400D02*
X145337D01*
X144800D02*
X146900D01*
X147600Y115700*
X143814Y110433D02*
G03X144274Y110126I460J190D01*
X143814Y109818I0J-498*
G01X144274Y110126D02*
X143911D01*
X143374D02*
X146526D01*
X147600Y111200*
Y115700*
X119640Y135566D02*
X119807D01*
Y136304*
X119842Y136339*
X121775Y130962D02*
G03X121843Y131306I-223J223D01*
G01X122119Y131030D02*
G03X121775Y130962I-121J-291D01*
G01X120915Y130101D02*
X122178Y131365D01*
X120927Y130089D02*
G03X121135Y129923I170J-0D01*
G01X120719D02*
G03X120927Y130089I38J166D01*
G01Y129965D02*
Y130089D01*
X120915Y130101*
X120927Y130089D02*
Y129428D01*
X124544Y129357D02*
G03X125239Y129554I171J720D01*
X125180Y129061I283J-284*
G01X125239Y129554D02*
G03X124996Y129282I2305J-2306D01*
G01X126647Y130962D02*
G03X126715Y131306I-223J223D01*
G01X126991Y131030D02*
G03X126647Y130962I-122J-291D01*
G01X124690Y128840D02*
Y129005D01*
X127050Y131365*
X136229Y127906D02*
G03X136337Y127363I459J-192D01*
X135794Y127470I-352J-352*
G01X136337Y127363D02*
X136080Y127619D01*
X138801Y122573D02*
G03X139343Y122466I351J352D01*
G01X138908Y122030D02*
G03X138801Y122573I-459J192D01*
G01X139057Y122317*
X135700Y128000D02*
X137500Y126200D01*
Y123874*
X139437Y121937*
X118631Y131728D02*
G03X119200Y131365I569J265D01*
X118791Y131079I0J-436*
G01X119200Y131365D02*
X118836D01*
X119143D02*
G03X119435Y131560I0J315D01*
G01Y131170D02*
G03X119143Y131365I-292J-120D01*
G01X118302Y131303D02*
X118364Y131365D01*
X119714*
X128421Y129413D02*
G03X128740Y129140I319J50D01*
X128441Y128877I0J-302*
G01X128740Y129140D02*
X128503D01*
X129645Y131086D02*
G03X129450Y130795I120J-291D01*
X129255Y131086I-315J-0*
G01X127965Y129128D02*
Y129140D01*
X128740*
X129450Y129850*
Y131365*
X117423Y137664D02*
G03X117918Y137636I260J207D01*
X117604Y136986I777J-776*
G01X117608Y137444D02*
G03X117918Y137636I-254J756D01*
G01X124566Y137834D02*
G03X124731Y137370I734J-0D01*
G01X124401D02*
G03X124566Y137834I-569J464D01*
G01X117120Y137220D02*
X117502D01*
X118786Y138504*
X123896*
X124566Y137834*
Y136341*
X118536Y127721D02*
G03X119156Y127350I620J333D01*
X118757Y127055I-0J-416*
G01X119156Y127350D02*
X118791Y127341D01*
X124197Y130962D02*
G03X124265Y131306I-223J223D01*
G01X124541Y131030D02*
G03X124197Y130962I-122J-291D01*
G01X118260Y127260D02*
X118351Y127350D01*
X122051*
X122659Y127958*
Y129424*
X124600Y131365*
X129499Y128398D02*
G03X130169Y128668I17J923D01*
X130163Y128172I251J-251*
G01X130169Y128668D02*
G03X129956Y128372I791J-791D01*
G01X131012Y135311D02*
G03X130819Y134848I460J-463D01*
X130682Y135311I-854J-0*
G01X129700Y127900D02*
Y128200D01*
X130819Y129319*
X130819D02*
Y136294D01*
X130865Y136341*
X131519Y128458D02*
G03X131819Y128900I-176J442D01*
X132137Y128419I523J-0*
G01X131819Y128900D02*
Y128537D01*
X132605Y135311D02*
G03X132440Y134848I569J-463D01*
X132275Y135311I-734J-0*
G01X131800Y128000D02*
X131819Y128019D01*
Y134219*
X132440Y134840*
Y136341*
X113900Y137500D02*
G03X114157Y137222I279J0D01*
G01X113643D02*
G03X113900Y137500I-22J278D01*
G01Y137287*
X115164Y141164D02*
G03X115564Y141328I-0J569D01*
G01Y140999D02*
G03X115164Y141164I-400J-405D01*
G01X113900Y136750D02*
Y137500D01*
X114500Y138100*
Y140500*
X115164Y141164*
X116594*
X114045Y157136D02*
G03X114731Y156912I686J938D01*
X114408Y156535I0J-328*
G01X114731Y156912D02*
G03X114378Y156822I0J-738D01*
G01X115101Y156912D02*
G03X115564Y157076I-0J733D01*
G01Y156747D02*
G03X115101Y156912I-463J-569D01*
G01X113878Y156625D02*
X114165Y156912D01*
X116594*
X111714Y157139D02*
G03X112257Y157247I191J459D01*
X112149Y156704I351J-352*
G01X112257Y157247D02*
X112000Y156990D01*
X115486Y158486D02*
G03X115564Y158516I0J117D01*
G01Y158457D02*
G03X115486Y158486I-78J-87D01*
G01X111620Y156610D02*
X113260Y158250D01*
X115250*
X115486Y158486*
X116594*
X114072Y155054D02*
G03X114615Y155162I191J459D01*
X114507Y154619I351J-352*
G01X114615Y155162D02*
X114358Y154905D01*
X115101Y155337D02*
G03X115564Y155502I-0J734D01*
G01Y155172D02*
G03X115101Y155337I-463J-569D01*
G01X113978Y154525D02*
X114790Y155337D01*
X116594*
X133836Y131306D02*
G03X133904Y130962I290J-121D01*
X133560Y131030I-223J-223*
G01X134500Y130366D02*
G03X134711Y130194I176J-0D01*
G01X134289D02*
G03X134500Y130366I35J172D01*
G01Y130237D02*
Y130366D01*
X133500Y131365*
X134500Y130366D02*
Y129700D01*
X133403Y133660D02*
G03X133841Y133791I97J472D01*
X133809Y133478I177J-176*
G01X134180Y135311D02*
G03X134015Y134848I569J-463D01*
X133850Y135311I-734J-0*
G01X133500Y133334D02*
Y133450D01*
X134015Y133965*
Y136341*
X136176Y131306D02*
G03X136244Y130962I290J-121D01*
X135900Y131030I-223J-223*
G01X136769Y130437D02*
G03X137383Y130057I1115J1114D01*
G01X136690Y129947D02*
G03X136769Y130437I-138J273D01*
G01X136928Y130109D02*
G03X136769Y130437I-552J-65D01*
G01X135840Y131365D02*
X137100Y130105D01*
Y129600*
X134856Y125245D02*
G03X134968Y125799I-361J361D01*
G01X135388Y125348D02*
G03X134856Y125245I-189J-446D01*
G01X135113Y125501*
X117734Y123875D02*
Y123641D01*
X117774Y123602*
X117936Y123765*
X133376*
X135485Y125874*
X135500*
X117794Y121822D02*
G03X118138Y121890I121J291D01*
X118070Y121546I222J-223*
G01X126726Y121937D02*
G03X127186Y122244I-0J497D01*
G01Y121629D02*
G03X126726Y121937I-460J-190D01*
G01X127089*
X117734Y121487D02*
X118184Y121937D01*
X127626*
X127109Y133669D02*
G03X127453Y133737I122J291D01*
X127385Y133393I223J-223*
G01X127881Y135311D02*
G03X127716Y134848I569J-463D01*
X127551Y135311I-734J-0*
G01X127050Y133334D02*
X127716Y134000D01*
Y136341*
X122238Y133669D02*
G03X122582Y133737I121J291D01*
X122514Y133393I223J-223*
G01X123156Y135311D02*
G03X122991Y134848I569J-463D01*
X122827Y135311I-733J-0*
G01X122178Y133334D02*
X122991Y134147D01*
Y136341*
X119773Y133669D02*
G03X120117Y133737I122J291D01*
X120049Y133393I223J-223*
G01X121563Y135311D02*
G03X121300Y134920I160J-391D01*
X121234Y135311I-1185J-0*
G01X119714Y133334D02*
X121300Y134920D01*
Y136224*
X121417Y136341*
X124659Y133669D02*
G03X125003Y133737I122J291D01*
X124935Y133393I223J-223*
G01X126306Y135311D02*
G03X126141Y134875I495J-436D01*
X125976Y135311I-660J-0*
G01X124600Y133334D02*
X126141Y134875D01*
Y136341*
X100265Y122404D02*
G03X101802Y122708I542J1300D01*
X101498Y121171I996J-995*
G01X100720Y122247D02*
G03X101802Y122708I-33J1577D01*
G01X100974Y122075D02*
G03X101802Y122708I-1948J3410D01*
X101169Y121880I2777J-2776*
G01X101802Y122708D02*
G03X101341Y121626I1116J-1115D01*
G01X115101Y145888D02*
G03X115564Y146053I-0J734D01*
G01Y145723D02*
G03X115101Y145888I-463J-569D01*
G01X100000Y120906D02*
X107750Y128656D01*
Y139500*
X109750Y141500*
Y143750*
X111250Y145250*
X114357*
X114996Y145888*
X116594*
X101247Y126778D02*
G03X102549Y125906I1302J536D01*
X101247Y125034I-0J-1408*
G01X101457Y126345D02*
G03X102549Y125906I1092J1139D01*
G01X101515Y126044D02*
G03X102549Y125906I1034J3789D01*
X101515Y125768I-0J-3927*
G01X102549Y125906D02*
G03X101457Y125467I-0J-1578D01*
G01X115101Y147463D02*
G03X115564Y147628I-0J734D01*
G01Y147298D02*
G03X115101Y147463I-463J-569D01*
G01X100000Y125906D02*
X103256D01*
X106750Y129400*
Y139920*
X108750Y141920*
Y144200*
X110800Y146250*
X113875*
X115088Y147463*
X116594*
X100265Y132404D02*
G03X101802Y132708I542J1300D01*
X101498Y131171I996J-995*
G01X100720Y132247D02*
G03X101802Y132708I-33J1577D01*
G01X100974Y132075D02*
G03X101802Y132708I-1948J3410D01*
X101169Y131880I2777J-2776*
G01X101802Y132708D02*
G03X101341Y131626I1116J-1115D01*
G01X115101Y149038D02*
G03X115564Y149202I-0J733D01*
G01Y148873D02*
G03X115101Y149038I-463J-569D01*
G01X100000Y130906D02*
X103250Y134156D01*
Y137400*
X104500Y138650*
Y141920*
X105828Y143248*
Y145700*
X109478Y149350*
X114600*
X114912Y149038*
X116594*
X100265Y137404D02*
G03X101802Y137708I542J1300D01*
X101498Y136171I996J-995*
G01X100720Y137247D02*
G03X101802Y137708I-33J1577D01*
G01X100974Y137075D02*
G03X101802Y137708I-1948J3410D01*
X101169Y136880I2777J-2776*
G01X101802Y137708D02*
G03X101341Y136626I1116J-1115D01*
G01X115101Y150612D02*
G03X115564Y150777I-0J734D01*
G01Y150448D02*
G03X115101Y150612I-463J-569D01*
G01X100000Y135906D02*
X103500Y139406D01*
Y142340*
X104828Y143668*
Y146150*
X109028Y150350*
X114650*
X114912Y150612*
X116594*
X100265Y147404D02*
G03X101802Y147708I542J1300D01*
X101498Y146171I996J-995*
G01X100720Y147247D02*
G03X101802Y147708I-33J1577D01*
G01X100974Y147075D02*
G03X101802Y147708I-1948J3410D01*
X101169Y146880I2777J-2776*
G01X101802Y147708D02*
G03X101341Y146626I1116J-1115D01*
G01X124566Y164802D02*
G03X124731Y164339I734J0D01*
G01X124401D02*
G03X124566Y164802I-569J463D01*
G01X100000Y145906D02*
X103250Y149156D01*
Y153600*
X112520Y162870*
X116600*
X119080Y165350*
X124059*
X124566Y164843*
Y163309*
X101247Y156778D02*
G03X102549Y155906I1302J536D01*
X101247Y155034I-0J-1408*
G01X101457Y156345D02*
G03X102549Y155906I1092J1139D01*
G01X101515Y156044D02*
G03X102549Y155906I1034J3789D01*
X101515Y155768I-0J-3927*
G01X102549Y155906D02*
G03X101457Y155467I-0J-1578D01*
G01X127716Y164744D02*
G03X127881Y164339I581J0D01*
G01X127551D02*
G03X127716Y164744I-416J405D01*
G01X100000Y155906D02*
X104106D01*
X112080Y163880*
X116150*
X118620Y166350*
X124500*
X125500Y165350*
X127110*
X127716Y164744*
Y163309*
X135755Y135311D02*
G03X135590Y134848I569J-463D01*
X135425Y135311I-734J-0*
G01X135590Y133584D02*
G03X135645Y133613I23J23D01*
G01X135561Y133529D02*
G03X135590Y133584I6J32D01*
G01Y136341D02*
Y133584D01*
X135840Y133334*
X129455Y135311D02*
G03X129291Y134848I569J-463D01*
X129126Y135311I-734J-0*
G01X129291Y133881D02*
G03X129521Y133667I215J0D01*
G01X129131Y133453D02*
G03X129291Y133881I-496J428D01*
G01Y136341D02*
Y133493D01*
X129450Y133334*
X119842Y136341D02*
Y136339D01*
X117623Y153927D02*
G03X118087Y153762I464J569D01*
X117623Y153597I-0J-734*
G01X117842Y153762D02*
G03X118490Y154082I0J815D01*
G01X118216Y153435D02*
G03X117842Y153762I-374J-50D01*
G01X118205Y153723D02*
G03X117842Y153762I-363J-1673D01*
G01X116594D02*
X118566D01*
X118728Y153600*
X144035Y139589D02*
X144596Y139028D01*
X144596D02*
X144597D01*
X144035Y139589D02*
X144191D01*
X144590Y139190*
Y139035*
X144597Y139028*
X169064Y127708D02*
G03X170601Y127404I995J996D01*
G01X169368Y126171D02*
G03X169064Y127708I-1299J542D01*
X170146Y127247I1115J1116*
G01X169064Y127708D02*
G03X169893Y127075I2776J2777D01*
G01X169697Y126880D02*
G03X169064Y127708I-3410J-1948D01*
G01X169526Y126626D02*
G03X169064Y127708I-1578J-33D01*
G01X144597Y139028D02*
X149875Y133750D01*
X163023*
X170866Y125906*
X142364Y142738D02*
G03X142533Y142879I-0J172D01*
G01Y142598D02*
G03X142364Y142738I-169J-31D01*
G01X141506Y141880D02*
X142364Y142738D01*
X143562*
X161613Y131761D02*
G03X162156Y131654I352J352D01*
G01X161721Y131218D02*
G03X161613Y131761I-459J192D01*
G01X161870Y131505*
X141506Y141880D02*
Y138872D01*
X142628Y137750*
X144400*
X149400Y132750*
X160625*
X162250Y131125*
X142069Y150500D02*
G03X142533Y150759I0J544D01*
G01Y150429D02*
G03X142069Y150500I-464J-1483D01*
G01X140375Y149075D02*
X141800Y150500D01*
X143450*
X143562Y150612*
X140375Y149006D02*
G03X140681Y148551I491J0D01*
G01X140065Y148541D02*
G03X140375Y149006I-194J465D01*
G01Y148643*
Y149075D02*
Y148111D01*
X140380Y148106*
X142471Y119333D02*
G03X142579Y118790I459J-191D01*
X142036Y118897I-352J-352*
G01X142579Y118790D02*
X142322Y119046D01*
X142735Y118633D02*
G03X143274Y118528I348J349D01*
G01X142844Y118087D02*
G03X142735Y118633I-464J192D01*
G01X142991Y118377*
X141942Y119427D02*
X143369Y118000D01*
X143374*
X138308Y118934D02*
G03X138000Y118474I189J-460D01*
X137692Y118934I-497J0*
G01X138000Y118474D02*
Y118837D01*
X138537Y118000D02*
G03X138997Y118307I-0J497D01*
G01Y117692D02*
G03X138537Y118000I-460J-190D01*
G01X138900*
X138000Y119375D02*
Y118300D01*
X138300Y118000*
X139437*
X140824Y154701D02*
G03X141230Y154406I406J131D01*
X140824Y154111I-0J-426*
G01X141230Y154406D02*
X140912D01*
X142069Y153762D02*
G03X142533Y153927I0J734D01*
G01Y153597D02*
G03X142069Y153762I-464J-569D01*
G01X140375Y154406D02*
X141230D01*
X141874Y153762*
X143562*
X141521Y152537D02*
G03X141873Y152187I352J2D01*
X141207Y151910I0J-940*
G01X141514Y152249D02*
G03X141873Y152187I359J1009D01*
G01X142069D02*
G03X142533Y152352I0J734D01*
G01Y152022D02*
G03X142069Y152187I-464J-569D01*
G01X141000Y152406D02*
X141219Y152187D01*
X143562*
X138564Y131306D02*
G03X138632Y130962I291J-121D01*
X138288Y131030I-223J-223*
G01X139200Y130394D02*
G03X139475Y130061I339J-0D01*
G01X138925D02*
G03X139200Y130394I-64J333D01*
G01Y130137D02*
Y130394D01*
X138229Y131365*
X139200Y130394D02*
Y129600D01*
X141538Y131086D02*
G03X141343Y130795I120J-291D01*
X141147Y131086I-315J-0*
G01X141343Y129857D02*
G03X141765Y129820I233J234D01*
G01X141380Y129434D02*
G03X141343Y129857I-271J189D01*
G01X141520Y129680D02*
X141343Y129857D01*
Y131365*
Y129857D02*
X141900Y129300D01*
X143983Y131086D02*
G03X143787Y130795I119J-291D01*
X143592Y131086I-315J-0*
G01X143787Y129812D02*
G03X144135Y129811I175J175D01*
G01X143788Y129464D02*
G03X143787Y129812I-175J174D01*
G01X143920Y129680D02*
X143787Y129812D01*
Y131365*
Y129812D02*
X144300Y129300D01*
X139531Y126403D02*
G03X140074Y126510I191J459D01*
X139966Y125967I351J-351*
G01X140074Y126510D02*
X139817Y126254D01*
X146100Y127500D02*
G03X146559Y127807I-0J497D01*
G01Y127192D02*
G03X146100Y127500I-459J-190D01*
G01X146463*
X139437Y125874D02*
X141063Y127500D01*
X147000*
X150179Y141211D02*
G03X150470Y141016I291J120D01*
X150179Y140821I0J-315*
G01X150807Y141016D02*
G03X151501Y141216I0J1303D01*
G01X151117Y140629D02*
G03X150807Y141016I-310J69D01*
G01X151157Y140914D02*
G03X150807Y141016I-350J-547D01*
G01X149900D02*
X151334D01*
X151650Y140700*
X150963Y156195D02*
G03X151255Y156000I292J120D01*
X150963Y155804I-0J-315*
G01X154017Y155073D02*
G03X154313Y154944I314J314D01*
G01Y154672D02*
G03X154017Y155073I-1478J-780D01*
G01X150684Y156000D02*
X153091D01*
X155047Y154043*
X159734Y142820D02*
G03X159929Y142529I315J-0D01*
G01X159539D02*
G03X159734Y142820I-120J291D01*
G01X159987Y145041D02*
G03X159734Y144179I1342J-862D01*
X159310Y145041I-1087J-0*
G01X159734Y144179D02*
G03X159648Y145041I-4368J-0D01*
G01X159734Y142250D02*
Y145738D01*
X160953Y146956*
X155781Y154944D02*
G03X156078Y155073I-17J443D01*
X155781Y154672I1181J-1181*
G01X156769Y158470D02*
G03X156574Y158179I120J-291D01*
X156379Y158470I-315J0*
G01X155047Y154043D02*
X156574Y155569D01*
Y158750*
X144592Y157058D02*
G03X145055Y156751I463J196D01*
X144592Y156729I0J-4783*
G01X148145Y156000D02*
G03X148437Y156195I0J315D01*
G01Y155804D02*
G03X148145Y156000I-292J-119D01*
G01X143562Y156912D02*
X143723Y156751D01*
X146998*
X147750Y156000*
X148716*
X144592Y155502D02*
G03X145055Y155337I463J569D01*
X144592Y155172I0J-734*
G01X158625Y149284D02*
G03X159234Y148855I1538J1538D01*
G01Y148494D02*
G03X158625Y149284I-3366J-1967D01*
G01X143562Y155337D02*
X146663D01*
X147500Y154500*
X149250*
X153250Y150500*
X157409*
X160953Y146956*
X144592Y152352D02*
G03X145055Y152187I463J569D01*
X144592Y152022I0J-734*
G01X147847Y150619D02*
G03X148191Y150551I222J223D01*
G01X147915Y150276D02*
G03X147847Y150619I-291J121D01*
G01X143562Y152187D02*
X145063D01*
X146450Y150800*
X147666*
X148250Y150216*
X144592Y149202D02*
G03X145055Y149038I463J569D01*
X144592Y148873I0J-734*
G01X143562Y149038D02*
X145923D01*
X146210Y148750*
X148150*
X149700Y147200*
Y143260*
X149900Y143060*
Y142985*
X144592Y147609D02*
G03X145055Y147300I463J193D01*
X144592Y147280I0J-5303*
G01X146626Y147300D02*
G03X147276Y147614I-0J830D01*
G01X146997Y146970D02*
G03X146626Y147300I-371J-44D01*
G01X146988Y147258D02*
G03X146626Y147300I-362J-1543D01*
G01X143562Y147463D02*
X143725Y147300D01*
X147340*
X147510Y147130*
X144592Y146053D02*
G03X145055Y145888I463J569D01*
X144592Y145723I0J-734*
G01X146363Y145637D02*
G03X146906Y145530I352J352D01*
G01X146471Y145094D02*
G03X146363Y145637I-459J191D01*
G01X146620Y145380*
X143562Y145888D02*
X146112D01*
X147000Y145000*
X144592Y141301D02*
G03X144933Y141000I341J43D01*
X144592Y140981I0J-2999*
G01X168317Y130906D02*
G03X169619Y131778I0J1408D01*
G01Y130034D02*
G03X168317Y130906I-1302J-536D01*
X169409Y131345I0J1578*
G01X168317Y130906D02*
G03X169351Y131044I0J3927D01*
G01Y130768D02*
G03X168317Y130906I-1034J-3789D01*
G01X169409Y130467D02*
G03X168317Y130906I-1092J-1139D01*
G01X143562Y141164D02*
X143726Y141000D01*
X144933*
X145637Y140296*
Y139425*
X150313Y134750*
X150313D02*
X163656D01*
X167500Y130906*
X170866*
X143562Y139589D02*
X144035D01*
X140497Y135442D02*
G03X140961Y135350I464J1124D01*
X140497Y135311I-0J-2787*
G01X143347Y133697D02*
G03X143658Y133649I188J188D01*
G01X143457Y133252D02*
G03X143347Y133697I-422J132D01*
G01X140314Y136341D02*
Y135350D01*
X141694*
X143787Y133257*
Y133334*
X138922Y135311D02*
G03X138900Y134950I2890J-361D01*
X138593Y135311I-366J0*
G01X140772Y133334D02*
G03X141063Y133529I0J315D01*
G01Y133139D02*
G03X140772Y133334I-291J-120D01*
G01X138739Y136341D02*
X138900Y136180D01*
Y134950*
X140516Y133334*
X141343*
X137329Y135311D02*
G03X137165Y134848I569J-463D01*
X137000Y135311I-734J-0*
G01X137825Y133737D02*
G03X138169Y133669I223J223D01*
G01X137893Y133393D02*
G03X137825Y133737I-290J121D01*
G01X137165Y136341D02*
Y134398D01*
X138229Y133334*
X111857Y169488D02*
G03X112633Y169984I-0J855D01*
G01X112431Y169087D02*
G03X111857Y169488I-574J-211D01*
X112387Y169604I-0J1268*
G01X112361Y169374D02*
G03X111857Y169488I-504J-1060D01*
G01X108858D02*
X113028D01*
X113110Y169405*
X130605Y160147D02*
G03X130865Y160115I143J86D01*
X130897Y159855I118J-117*
G01X130865Y160115D02*
X130780Y160030D01*
X131030Y162280D02*
G03X130865Y161816I569J-464D01*
X130701Y162280I-733J0*
G01X130400Y159650D02*
X130865Y160115D01*
Y163309*
X122632Y160974D02*
G03X122991Y161317I16J343D01*
X123251Y160644I1003J0*
G01X122920Y160960D02*
G03X122991Y161317I-859J357D01*
G01X123156Y162280D02*
G03X122991Y161816I569J-464D01*
X122827Y162280I-733J0*
G01X122750Y160450D02*
X122991Y160691D01*
Y163309*
X114075Y160325D02*
G03X114747Y160061I672J724D01*
X114402Y159704I-0J-345*
G01X114747Y160061D02*
G03X114389Y159992I-0J-959D01*
G01X115101Y160061D02*
G03X115564Y160226I-0J734D01*
G01Y159896D02*
G03X115101Y160061I-463J-569D01*
G01X113878Y159825D02*
X114114Y160061D01*
X116594*
X127441Y160958D02*
G03X127900Y160650I459J189D01*
X127441Y160342I0J-497*
G01X127900Y160650D02*
X127537D01*
X129455Y162280D02*
G03X129291Y161816I569J-464D01*
X129126Y162280I-734J0*
G01X127000Y160650D02*
X128173D01*
X129291Y161768*
Y163309*
X133191Y166908D02*
G03X133650Y166600I459J189D01*
X133191Y166292I0J-497*
G01X133650Y166600D02*
X133287D01*
X135590Y164746D02*
G03X135755Y164339I585J-0D01*
G01X135425D02*
G03X135590Y164746I-420J407D01*
G01X132750Y166600D02*
X133736D01*
X135590Y164746*
Y163309*
X124694Y160946D02*
G03X125361Y161223I-1J945D01*
Y160727I249J-248*
G01Y161223D02*
G03X125152Y160925I748J-747D01*
G01X126287Y162280D02*
G03X125965Y161827I157J-453D01*
G01X125958Y162280*
X124900Y160450D02*
Y160762D01*
X125965Y161827*
Y163133*
X126141Y163309*
X120507Y161309D02*
G03X121191Y161541I107J810D01*
X121158Y161046I267J-266*
G01X121191Y161541D02*
G03X120963Y161257I1203J-1203D01*
G01X121581Y162280D02*
G03X121417Y161816I569J-464D01*
X121252Y162280I-734J0*
G01X120680Y160800D02*
Y161030D01*
X121417Y161767*
Y163309*
X111772Y160354D02*
G03X112315Y160462I191J459D01*
X112207Y159919I351J-352*
G01X112315Y160462D02*
X112058Y160205D01*
X119331Y162155D02*
G03X119659Y162598I-1313J1313D01*
G01Y162312D02*
G03X119331Y162155I58J-543D01*
G01X111678Y159825D02*
X113723Y161870D01*
X119046*
X119842Y162666*
Y163309*
X113588Y169984D02*
G03X114364Y169488I776J359D01*
X113790Y169087I-0J-612*
G01X113833Y169604D02*
G03X114364Y169488I531J1152D01*
X113860Y169374I-0J-1175*
G01X115582Y169488D02*
G03X115874Y169683I0J315D01*
G01Y169293D02*
G03X115582Y169488I-292J-120D01*
G01X113110Y169405D02*
X113193Y169488D01*
X116153*
X128545Y169674D02*
G03X128836Y169478I291J119D01*
X128545Y169283I-0J-315*
G01X130099Y169478D02*
G03X130387Y169672I-0J311D01*
G01X130393Y169282D02*
G03X130099Y169478I-294J-123D01*
G01X128265D02*
X130666D01*
X130669Y169482*
X116440Y169670D02*
G03X116723Y169478I283J113D01*
X116422Y169279I-0J-327*
G01X127695Y169478D02*
G03X127986Y169674I0J315D01*
G01Y169283D02*
G03X127695Y169478I-291J-120D01*
G01X116153Y169488D02*
X116162Y169478D01*
X128265*
X132615Y162280D02*
G03X132450Y161816I569J-464D01*
X132285Y162280I-734J0*
G01X132450Y161125D02*
G03X132758Y160666I497J0D01*
G01X132142D02*
G03X132450Y161125I-189J459D01*
G01Y160762*
X132440Y163309D02*
X132450Y163299D01*
Y160225*
X134180Y162280D02*
G03X134015Y161816I569J-464D01*
X133850Y162280I-734J0*
G01X135241Y159812D02*
G03X135784Y159704I352J351D01*
G01X135349Y159269D02*
G03X135241Y159812I-459J191D01*
G01X135498Y159555*
X134015Y163309D02*
Y161038D01*
X135878Y159175*
X150254Y170046D02*
Y170254D01*
X150265Y170265*
X159321Y178016D02*
Y176520D01*
X157104*
Y173891*
X163921*
Y176520*
X162288*
Y178016*
X159321*
X107650Y168056D02*
Y170502D01*
X107898Y170750*
X131128*
Y169100*
X114496*
X113452Y168056*
X107650*
X132257Y170750D02*
X133409D01*
X138194Y165965*
Y165368*
X136778*
X133045Y169100*
X132257*
Y170750*
X157104Y176139D02*
X163921D01*
X157104Y175689D02*
X163921D01*
X157104Y175239D02*
X163921D01*
X157104Y174789D02*
X163921D01*
X157104Y174339D02*
X163921D01*
X159321Y177939D02*
X162288D01*
X159321Y177489D02*
X162288D01*
X159321Y177039D02*
X162288D01*
X159321Y176589D02*
X162288D01*
X107650Y169405D02*
X131128D01*
X107650Y169855D02*
X131128D01*
X107650Y170305D02*
X131128D01*
X107650Y168955D02*
X114351D01*
X107650Y168505D02*
X113901D01*
X136329Y165816D02*
X138194D01*
X135879Y166266D02*
X137893D01*
X135429Y166716D02*
X137443D01*
X134979Y167166D02*
X136993D01*
X134529Y167616D02*
X136543D01*
X134079Y168066D02*
X136093D01*
X133629Y168516D02*
X135643D01*
X133179Y168966D02*
X135193D01*
X132257Y169416D02*
X134743D01*
X132257Y169866D02*
X134293D01*
X132257Y170316D02*
X133843D01*
X154138Y107200D02*
G03X154138I-1538J0D01*
G01X109288Y163390D02*
G03X109288I-1538J0D01*
G01X169616Y102581D02*
G03X169541Y102656I-75J-0D01*
G01X168096*
X167846Y102906D02*
G03X168096Y102656I250J0D01*
G01X167846Y102906D02*
Y127481D01*
G03X167824Y127534I-75J-0*
G01X163889Y131469*
G03X163761Y131416I-53J-53*
X163762Y131402I75J-0*
G01X163788Y131125D02*
G03X163762Y131402I-1538J-0D01*
G01X163788Y131125D02*
X163788D01*
X160712D02*
G03X163788I1538J-0D01*
G01X160712D02*
X160712D01*
X160715Y131210D02*
G03X160712Y131125I1535J-85D01*
G01X160715Y131210D02*
G03Y131214I-75J4D01*
G01X160715*
G03X160693Y131267I-75J0*
G01X160232Y131728*
G03X160179Y131750I-53J-53*
G01X149400*
X148693Y132043D02*
G03X149400Y131750I707J707D01*
G01X148693Y132043D02*
X144008Y136728D01*
G03X143955Y136750I-53J-53*
G01X142628*
X141921Y137043D02*
G03X142628Y136750I707J707D01*
G01X141921Y137043D02*
X141625Y137338D01*
G03X141497Y137285I-53J-53*
G01Y136425*
G03X141572Y136350I75J0*
G01X141694*
X142401Y136057D02*
G03X141694Y136350I-707J-707D01*
G01X142401Y136057D02*
X143762Y134696D01*
G03X143815Y134674I53J53*
G01X144378*
X145128Y133924D02*
G03X144378Y134674I-750J0D01*
G01X145128Y133924D02*
Y132743D01*
X145037Y132385D02*
G03X145128Y132743I-659J358D01*
G01X145037Y132385D02*
G03X145028Y132350I66J-35D01*
G01X145028*
G03X145037Y132314I75J-0*
G01X145117Y132084D02*
G03X145037Y132314I-739J-128D01*
G01X145117Y132084D02*
G03X145133Y132048I74J12D01*
G01X145483Y131086D02*
G03X145133Y132048I-1500J0D01*
G01X145416Y130644D02*
G03X145483Y131086I-1433J442D01*
G01X145416Y130644D02*
G03X145412Y130621I71J-23D01*
X145423Y130583I75J0*
G01X145604Y130123D02*
G03X145423Y130583I-1468J-311D01*
G01X145604Y130123D02*
G03X145613Y130099I73J16D01*
G01X145838Y129300D02*
G03X145613Y130099I-1538J-0D01*
G01X145838Y129300D02*
Y129299D01*
X145837Y129246D02*
G03X145838Y129299I-1537J53D01*
G01X145837Y129246D02*
G03Y129243I75J-3D01*
X145942Y129175I75J0*
G01X147538Y128945D02*
G03X145942Y129175I-979J-1138D01*
G01X147538Y128945D02*
G03X147559Y128932I48J57D01*
G01X148538Y127500D02*
G03X147559Y128932I-1538J-0D01*
G01Y126067D02*
G03X148538Y127500I-559J1433D01*
G01X147559Y126067D02*
G03X147538Y126054I27J-70D01*
G01X145668Y125985D02*
G03X147538Y126054I891J1207D01*
G01X145668Y125985D02*
G03X145624Y126000I-44J-60D01*
G01X144825*
G03X144750Y125925I0J-75*
G01Y122640*
G03X144758Y122607I75J-0*
G01X144907Y122056D02*
G03X144758Y122607I-1533J-119D01*
G01X144907Y122056D02*
G03X144929Y122008I75J5D01*
G01X145015Y121922*
G03X145068Y121900I53J53*
G01X149250*
X150063Y121563D02*
G03X149250Y121900I-813J-813D01*
G01X150063Y121563D02*
X151572Y120054D01*
G03X151619Y120032I53J53*
G01X153038Y118500D02*
G03X151619Y120032I-1538J-0D01*
G01X149967Y118381D02*
G03X153038Y118500I1533J119D01*
G01X149967Y118381D02*
G03X149945Y118428I-75J-6D01*
G01X148796Y119578*
G03X148743Y119600I-53J-53*
G01X144825*
G03X144750Y119525I0J-75*
G01Y118703*
G03X144758Y118670I75J-0*
G01X144892Y118246D02*
G03X144758Y118670I-1518J-246D01*
G01X144892Y118246D02*
G03X144979Y118184I74J12D01*
G01X146132Y117914D02*
G03X144979Y118184I-891J-1207D01*
G01X146132Y117914D02*
G03X146176Y117900I44J61D01*
G01X146900*
X147961Y117460D02*
G03X146900Y117900I-1061J-1060D01*
G01X147961Y117460D02*
X148661Y116760D01*
X149100Y115700D02*
G03X148661Y116760I-1500J-0D01*
G01X149100Y115700D02*
Y111200D01*
X148661Y110139D02*
G03X149100Y111200I-1061J1061D01*
G01X148661Y110139D02*
X147587Y109065D01*
X146526Y108625D02*
G03X147587Y109065I-0J1501D01*
G01X146526Y108625D02*
X144750D01*
G03X144705Y108611I-0J-75*
G01X143031Y108538D02*
G03X144705Y108611I783J1280D01*
G01X143031Y108538D02*
G03X142992Y108550I-39J-63D01*
G01X141010*
G03X140935Y108475I0J-75*
G01Y108354*
G03X140937Y108338I75J0*
G01X140975Y108000D02*
G03X140937Y108338I-1538J-0D01*
G01X137899Y108000D02*
G03X140975I1538J0D01*
G01X137937Y108338D02*
G03X137899Y108000I1500J-338D01*
G01X137937Y108338D02*
G03X137939Y108354I-73J16D01*
G01Y108475*
G03X137864Y108550I-75J-0*
G01X130700*
X130523Y108623D02*
G03X130700Y108550I177J177D01*
G01X130523Y108623D02*
X126023Y113123D01*
X125950Y113300D02*
G03X126023Y113123I250J-0D01*
G01X125950Y113300D02*
Y118589D01*
G03X125875Y118664I-75J0*
G01X117125*
G03X117050Y118589I0J-75*
G01Y118354*
G03X117059Y118319I75J0*
G01X117238Y117600D02*
G03X117059Y118319I-1538J-0D01*
G01X114162Y117600D02*
G03X117238I1538J-0D01*
G01X114341Y118319D02*
G03X114162Y117600I1359J-719D01*
G01X114341Y118319D02*
G03X114350Y118354I-66J35D01*
G01Y119814*
X114397Y120169D02*
G03X114350Y119814I1303J-355D01*
G01X114397Y120169D02*
G03X114400Y120188I-72J19D01*
G01Y122244*
X114415Y122444D02*
G03X114400Y122244I1335J-200D01*
G01X114415Y122444D02*
G03X114416Y122455I-74J11D01*
G01Y123508*
G03X114394Y123561I-75J-0*
G01X113720Y124235*
X113324Y125190D02*
G03X113720Y124235I1350J-0D01*
G01X113324Y125190D02*
Y128070D01*
X113720Y129024D02*
G03X113324Y128070I954J-954D01*
G01X113720Y129024D02*
X114912Y130217D01*
G03X114934Y130270I-53J53*
G01Y133303*
X114943Y133458D02*
G03X114934Y133303I1341J-155D01*
G01X114943Y133458D02*
G03X114944Y133466I-74J8D01*
G01Y133893*
X115694Y134643D02*
G03X114944Y133893I-0J-750D01*
G01X115694Y134643D02*
X115814D01*
G03X115867Y134665I0J75*
G01X116800Y135598*
G03X116822Y135651I-53J53*
X116764Y135724I-75J-0*
G01X115582Y137220D02*
G03X116764Y135724I1538J-0D01*
G01X116006Y138279D02*
G03X115582Y137220I1114J-1059D01*
G01X116006Y138279D02*
G03X116026Y138331I-55J52D01*
X115951Y138406I-75J-0*
G01X115575*
G03X115500Y138331I0J-75*
G01Y138100*
X115294Y137493D02*
G03X115500Y138100I-794J607D01*
G01X115294Y137493D02*
G03X115279Y137447I60J-46D01*
X115286Y137415I75J0*
G01X115438Y136750D02*
G03X115286Y137415I-1538J0D01*
G01X112875Y135604D02*
G03X115438Y136750I1025J1146D01*
G01X112875Y135604D02*
G03X112750Y135548I-50J-56D01*
G01Y112686*
X112457Y111979D02*
G03X112750Y112686I-707J707D01*
G01X112457Y111979D02*
X106927Y106449D01*
X106220Y106156D02*
G03X106927Y106449I0J1000D01*
G01X106220Y106156D02*
X103095D01*
G03X103020Y106081I0J-75*
G01Y103136*
X102770Y102886D02*
G03X103020Y103136I0J250D01*
G01X102770Y102886D02*
X101325D01*
G03X101250Y102811I0J-75*
G01Y101325*
G03X101325Y101250I75J0*
G01X104835*
G03X104910Y101325I-0J75*
G01Y102766*
X105160Y103016D02*
G03X104910Y102766I0J-250D01*
G01X105160Y103016D02*
X165700D01*
X165950Y102766D02*
G03X165700Y103016I-250J0D01*
G01X165950Y102766D02*
Y101325D01*
G03X166025Y101250I75J0*
G01X169541*
G03X169616Y101325I0J75*
G01Y102581*
Y176440D02*
G03X169541Y176515I-75J0D01*
G01X163265*
G03X163196Y176469I0J-75*
G01X162040Y175693D02*
G03X163196Y176469I-0J1250D01*
G01X162040Y175693D02*
X159573D01*
X158416Y176469D02*
G03X159573Y175693I1157J474D01*
G01X158416Y176469D02*
G03X158347Y176515I-69J-29D01*
G01X154288*
G03X154214Y176455I-0J-75*
G01X154105Y176078D02*
G03X154214Y176455I-2105J815D01*
G01X154105Y176078D02*
G03X154100Y176051I70J-27D01*
G01Y172870*
X153251Y170105D02*
G03X154100Y172870I-4074J2765D01*
G01X153251Y170105D02*
G03X153260Y170010I62J-42D01*
G01X154789Y168481*
X155044Y168172D02*
G03X154789Y168481I-1740J-1176D01*
G01X155044Y168172D02*
G03X155053Y168161I62J42D01*
G01X155179Y168035*
X155609Y166996D02*
G03X155179Y168035I-1470J-0D01*
G01Y165957D02*
G03X155609Y166996I-1040J1039D01*
G01X155179Y165957D02*
X155053Y165831D01*
G03X155044Y165819I53J-54*
G01X154481Y165256D02*
G03X155044Y165819I-1177J1740D01*
G01X154481Y165256D02*
G03X154469Y165247I42J-62D01*
G01X154343Y165121*
X152265D02*
G03X154343I1039J1040D01*
G01X152265D02*
X152139Y165247D01*
G03X152128Y165256I-53J-53*
G01X151819Y165511D02*
G03X152128Y165256I1485J1485D01*
G01X151819Y165511D02*
X150161Y167169D01*
X149906Y167478D02*
G03X150161Y167169I1740J1176D01*
G01X149906Y167478D02*
G03X149897Y167489I-62J-42D01*
G01X149771Y167615*
X149541Y167914D02*
G03X149771Y167615I1270J740D01*
G01X149541Y167914D02*
G03X149514Y167941I-65J-38D01*
G01X149505Y167946D02*
G03X149514Y167941I749J1265D01*
G01X149505Y167946D02*
G03X149464Y167956I-38J-65D01*
G01X149385Y167955D02*
G03X149464Y167956I-0J2100D01*
G01X149385Y167955D02*
X145320D01*
G03X145256Y167918I0J-75*
G01X145029Y167625D02*
G03X145256Y167918I-1040J1039D01*
G01X145029Y167625D02*
X144949Y167545D01*
G03X144939Y167533I53J-53*
G01X144642Y167167D02*
G03X144939Y167533I-1472J1497D01*
G01X144642Y167167D02*
X144151Y166683D01*
G03X144128Y166630I52J-53*
X144150Y166577I75J-0*
G01X144415Y166312*
G03X144468Y166290I53J53*
G01X144635*
G03X144688Y166312I0J75*
G01X145203Y166827*
X145380Y166900D02*
G03X145203Y166827I0J-250D01*
G01X145380Y166900D02*
X146410D01*
X146587Y166827D02*
G03X146410Y166900I-177J-177D01*
G01X146587Y166827D02*
X147493Y165921D01*
X147566Y165744D02*
G03X147493Y165921I-250J-0D01*
G01X147566Y165744D02*
Y164456D01*
X147493Y164279D02*
G03X147566Y164456I-177J177D01*
G01X147493Y164279D02*
X146587Y163373D01*
X146410Y163300D02*
G03X146587Y163373I-0J250D01*
G01X146410Y163300D02*
X145120D01*
X144943Y163373D02*
G03X145120Y163300I177J177D01*
G01X144943Y163373D02*
X144443Y163873D01*
G03X144390Y163895I-53J-53*
G01X142580*
X142403Y163968D02*
G03X142580Y163895I177J177D01*
G01X142403Y163968D02*
X142362Y164009D01*
G03X142234Y163956I-53J-53*
G01Y163309*
X142218Y163060D02*
G03X142234Y163309I-1904J249D01*
G01X142218Y163060D02*
G03X142217Y163050I74J-10D01*
G01Y162463*
X139599Y160699D02*
G03X142217Y162463I715J1764D01*
G01X139599Y160699D02*
G03X139518Y160683I-28J-69D01*
G01X137163Y158328*
G03X137154Y158317I53J-53*
G01X136736Y157899D02*
G03X137154Y158317I-858J1276D01*
G01X136736Y157899D02*
G03X136725Y157890I42J-62D01*
G01X136554Y157719*
X136377Y157646D02*
G03X136554Y157719I0J250D01*
G01X136377Y157646D02*
X136042D01*
G03X136034Y157645I0J-75*
G01X135722D02*
G03X136034I156J1530D01*
G01X135722D02*
G03X135714Y157646I-8J-74D01*
G01X122332*
G03X122257Y157571I0J-75*
G01Y142079*
G03X122332Y142004I75J0*
G01X137824*
G03X137899Y142079I-0J75*
G01Y155534*
X137972Y155710D02*
G03X137899Y155534I177J-176D01*
G01X137972Y155710D02*
X141665Y159404D01*
G03X141687Y159457I-53J53*
G01X141687*
G03X141678Y159493I-75J-0*
G01X141533Y160061D02*
G03X141678Y159493I1183J0D01*
G01X142716Y161244D02*
G03X141533Y160061I-0J-1183D01*
G01X142716Y161244D02*
X144409D01*
X144678Y161213D02*
G03X144409Y161244I-269J-1152D01*
G01X144678Y161213D02*
G03X144695Y161211I17J73D01*
G01X146099*
X146912Y160874D02*
G03X146099Y161211I-813J-813D01*
G01X146912Y160874D02*
X146927Y160859D01*
G03X146981Y160837I53J53*
G01X147286Y160811D02*
G03X146981Y160837I-286J-1511D01*
G01X147286Y160811D02*
G03X147375Y160884I14J73D01*
G01Y161965*
X148125Y162715D02*
G03X147375Y161965I0J-750D01*
G01X148125Y162715D02*
X149306D01*
X150056Y161965D02*
G03X149306Y162715I-750J0D01*
G01X150056Y161965D02*
Y160784D01*
X149974Y160443D02*
G03X150056Y160784I-668J341D01*
G01X149974Y160443D02*
G03X149966Y160409I67J-34D01*
G01Y159916*
G03X149974Y159882I75J0*
G01X150056Y159541D02*
G03X149974Y159882I-750J-0D01*
G01X150056Y159541D02*
Y158359D01*
X149306Y157609D02*
G03X150056Y158359I0J750D01*
G01X149306Y157609D02*
X148125D01*
X147784Y157692D02*
G03X148125Y157609I341J667D01*
G01X147784Y157692D02*
G03X147749Y157700I-35J-67D01*
G01X147635*
G03X147560Y157625I-0J-75*
X147582Y157572I75J-0*
G01X147613Y157541*
G03X147619Y157535I53J53*
G01X147706Y157458D02*
G03X147619Y157535I-708J-707D01*
G01X147706Y157458D02*
X147836Y157328D01*
G03X147911Y157309I53J53*
G01X148125Y157340D02*
G03X147911Y157309I0J-750D01*
G01X148125Y157340D02*
X149306D01*
X149601Y157280D02*
G03X149306Y157340I-295J-690D01*
G01X149601Y157280D02*
G03X149631Y157274I30J69D01*
G01X149769*
G03X149799Y157280I0J75*
G01X150094Y157340D02*
G03X149799Y157280I-0J-750D01*
G01X150094Y157340D02*
X151275D01*
X151570Y157280D02*
G03X151275Y157340I-295J-690D01*
G01X151570Y157280D02*
G03X151599Y157274I29J69D01*
G01X152589*
G03X152642Y157296I-0J75*
G01X155523Y160177*
X155700Y160250D02*
G03X155523Y160177I0J-250D01*
G01X155700Y160250D02*
X162067D01*
X162244Y160177D02*
G03X162067Y160250I-177J-177D01*
G01X162244Y160177D02*
X164277Y158144D01*
X164350Y157967D02*
G03X164277Y158144I-250J0D01*
G01X164350Y157967D02*
Y144600D01*
X164277Y144423D02*
G03X164350Y144600I-177J177D01*
G01X164277Y144423D02*
X160577Y140723D01*
X160400Y140650D02*
G03X160577Y140723I-0J250D01*
G01X160400Y140650D02*
X155400D01*
X155224Y140723D02*
G03X155400Y140650I176J177D01*
G01X155224Y140723D02*
X152173Y143773D01*
X152100Y143950D02*
G03X152173Y143773I250J0D01*
G01X152100Y143950D02*
Y149928D01*
G03X152078Y149981I-75J-0*
G01X149719Y152340*
G03X149591Y152287I-53J-53*
G01Y151594*
X149500Y151236D02*
G03X149591Y151594I-659J358D01*
G01X149500Y151236D02*
G03X149491Y151200I66J-36D01*
G01X149491*
G03X149500Y151165I75J0*
G01X149591Y150807D02*
G03X149500Y151165I-750J-0D01*
G01X149591Y150807D02*
Y149626D01*
X149350Y149075D02*
G03X149591Y149626I-509J551D01*
G01X149350Y149075D02*
G03X149326Y149020I51J-55D01*
X149348Y148967I75J-0*
G01X150407Y147907*
X150700Y147200D02*
G03X150407Y147907I-1000J-0D01*
G01X150700Y147200D02*
Y144350D01*
G03X150749Y144279I75J-0*
G01X151241Y143575D02*
G03X150749Y144279I-750J0D01*
G01X151241Y143575D02*
Y142394D01*
X151233Y142286D02*
G03X151241Y142394I-742J108D01*
G01X151233Y142286D02*
G03X151232Y142276I74J-10D01*
X151323Y142202I75J-0*
G01X153188Y140700D02*
G03X151323Y142202I-1538J0D01*
G01X150525Y139652D02*
G03X153188Y140700I1125J1048D01*
G01X150525Y139652D02*
G03X150470Y139676I-55J-51D01*
G01X149309*
X148559Y140426D02*
G03X149309Y139676I750J-0D01*
G01X148559Y140426D02*
Y141607D01*
X148650Y141965D02*
G03X148559Y141607I659J-358D01*
G01X148650Y141965D02*
G03X148659Y142001I-66J36D01*
G01X148659*
G03X148650Y142036I-75J-0*
G01X148559Y142394D02*
G03X148650Y142036I750J0D01*
G01X148559Y142394D02*
Y143575D01*
X148687Y143994D02*
G03X148559Y143575I622J-419D01*
G01X148687Y143994D02*
G03X148700Y144036I-62J42D01*
G01Y145965*
G03X148573Y146020I-75J0*
G01X148364Y145852D02*
G03X148573Y146020I-854J1278D01*
G01X148364Y145852D02*
G03X148331Y145790I42J-62D01*
X148341Y145753I75J-0*
G01X148538Y145000D02*
G03X148341Y145753I-1538J0D01*
G01X148207Y144048D02*
G03X148538Y145000I-1207J952D01*
G01X148207Y144048D02*
G03X148191Y144002I59J-46D01*
X148202Y143963I75J-0*
G01X148310Y143575D02*
G03X148202Y143963I-750J0D01*
G01X148310Y143575D02*
Y142394D01*
X147560Y141644D02*
G03X148310Y142394I-0J750D01*
G01X147560Y141644D02*
X146378D01*
X145696Y142084D02*
G03X146378Y141644I682J310D01*
G01X145696Y142084D02*
G03X145556Y142076I-69J-31D01*
G01X145519Y141983D02*
G03X145556Y142076I-677J322D01*
G01X145519Y141983D02*
G03X145512Y141951I68J-32D01*
G01X145512*
G03X145519Y141919I75J-0*
G01X145566Y141792D02*
G03X145519Y141919I-724J-195D01*
G01X145566Y141792D02*
G03X145589Y141755I72J19D01*
G01X145640Y141707D02*
G03X145589Y141755I-707J-707D01*
G01X145640Y141707D02*
X146344Y141003D01*
X146637Y140296D02*
G03X146344Y141003I-1000J0D01*
G01X146637Y140296D02*
Y139870D01*
G03X146659Y139817I75J0*
G01X150705Y135772*
G03X150758Y135750I53J53*
G01X163656*
X164363Y135457D02*
G03X163656Y135750I-707J-707D01*
G01X164363Y135457D02*
X167718Y132102D01*
G03X167846Y132155I53J53*
G01Y169150*
X168096Y169400D02*
G03X167846Y169150I0J-250D01*
G01X168096Y169400D02*
X169541D01*
G03X169616Y169475I0J75*
G01Y176440*
X149900Y176051D02*
G03X149895Y176078I-75J-0D01*
G01X149786Y176455D02*
G03X149895Y176078I2214J438D01*
G01X149786Y176455D02*
G03X149712Y176515I-74J-15D01*
G01X101325*
G03X101250Y176440I0J-75*
G01Y169467*
G03X101325Y169392I75J0*
G01X102770*
X103020Y169142D02*
G03X102770Y169392I-250J0D01*
G01X103020Y169142D02*
Y156981D01*
G03X103095Y156906I75J0*
G01X103661*
G03X103714Y156928I-0J75*
G01X111373Y164587*
X112080Y164880D02*
G03X111373Y164587I0J-1000D01*
G01X112080Y164880D02*
X115705D01*
G03X115758Y164902I-0J75*
G01X117913Y167057*
X118620Y167350D02*
G03X117913Y167057I0J-1000D01*
G01X118620Y167350D02*
X124500D01*
X125207Y167057D02*
G03X124500Y167350I-707J-707D01*
G01X125207Y167057D02*
X125892Y166372D01*
G03X125945Y166350I53J53*
G01X127110*
X127817Y166057D02*
G03X127110Y166350I-707J-707D01*
G01X127817Y166057D02*
X128423Y165451D01*
X128529Y165326D02*
G03X128423Y165451I-813J-582D01*
G01X128529Y165326D02*
G03X128615Y165298I61J43D01*
G01X128858Y165339D02*
G03X128615Y165298I-0J-750D01*
G01X128858Y165339D02*
X129724D01*
X130046Y165266D02*
G03X129724Y165339I-322J-677D01*
G01X130046Y165266D02*
G03X130110I32J68D01*
G01X130432Y165339D02*
G03X130110Y165266I0J-750D01*
G01X130432Y165339D02*
X131298D01*
X131621Y165266D02*
G03X131298Y165339I-323J-677D01*
G01X131621Y165266D02*
G03X131685I32J68D01*
G01X131744Y165291D02*
G03X131685Y165266I263J-702D01*
G01X131744Y165291D02*
G03X131793Y165361I-26J70D01*
X131766Y165419I-75J0*
G01X131212Y166600D02*
G03X131766Y165419I1538J0D01*
G01X131212Y166600D02*
X131212D01*
X132072Y167980D02*
G03X131212Y166600I678J-1380D01*
G01X132072Y167980D02*
G03X132114Y168047I-33J67D01*
X132054Y168121I-75J0*
G01X131960Y168145D02*
G03X132054Y168121I297J955D01*
G01X131960Y168145D02*
G03X131947Y168148I-22J-71D01*
G01X131693Y168230D02*
G03X131947Y168148I354J661D01*
G01X131693Y168230D02*
G03X131620Y168229I-36J-66D01*
G01X131128Y168100D02*
G03X131620Y168229I0J1000D01*
G01X131128Y168100D02*
X114942D01*
G03X114889Y168078I-0J-75*
G01X114160Y167349*
X113452Y167056D02*
G03X114160Y167349I0J1000D01*
G01X113452Y167056D02*
X110360D01*
G03X110349Y167055I0J-75*
G01X110236Y167047D02*
G03X110349Y167055I-0J750D01*
G01X110236Y167047D02*
X107480D01*
X106754Y167608D02*
G03X107480Y167047I726J189D01*
G01X106754Y167608D02*
G03X106749Y167622I-73J-18D01*
G01X106650Y168056D02*
G03X106749Y167622I1000J0D01*
G01X106650Y168056D02*
Y170502D01*
X106943Y171210D02*
G03X106650Y170502I707J-708D01*
G01X106943Y171210D02*
X107190Y171457D01*
X107898Y171750D02*
G03X107190Y171457I-0J-1000D01*
G01X107898Y171750D02*
X131128D01*
X131653Y171601D02*
G03X131128Y171750I-525J-851D01*
G01X131653Y171601D02*
G03X131732I40J64D01*
G01X132257Y171750D02*
G03X131732Y171601I0J-1000D01*
G01X132257Y171750D02*
X133409D01*
X134116Y171457D02*
G03X133409Y171750I-707J-707D01*
G01X134116Y171457D02*
X134387Y171186D01*
G03X134493I53J53*
G01X135253Y171947*
X135430Y172020D02*
G03X135253Y171947I0J-250D01*
G01X135430Y172020D02*
X136695D01*
X136872Y171947D02*
G03X136695Y172020I-177J-177D01*
G01X136872Y171947D02*
X138927Y169892D01*
X139000Y169715D02*
G03X138927Y169892I-250J-0D01*
G01X139000Y169715D02*
Y169200D01*
X138927Y169023D02*
G03X139000Y169200I-177J177D01*
G01X138927Y169023D02*
X137791Y167888D01*
G03X137769Y167835I53J-53*
G01X137769*
G03X137791Y167782I75J-0*
G01X138512Y167061*
G03X138627Y167071I53J53*
G01X138862Y167352D02*
G03X138627Y167071I1485J-1485D01*
G01X138862Y167352D02*
X139975Y168465D01*
G03X139977Y168467I-53J53*
G01X140042Y168533D02*
G03X139977Y168467I1472J-1497D01*
G01X140042Y168533D02*
X141532Y169999D01*
G03X141538Y170005I-52J54*
G01X141978Y170404D02*
G03X141538Y170005I1176J-1740D01*
G01X141978Y170404D02*
G03X141989Y170413I-42J62D01*
G01X142115Y170539*
X142414Y170769D02*
G03X142115Y170539I740J-1270D01*
G01X142414Y170769D02*
G03X142441Y170796I-38J65D01*
G01X142671Y171095D02*
G03X142441Y170796I1040J-1039D01*
G01X142671Y171095D02*
X142797Y171221D01*
G03X142806Y171232I-53J53*
G01X143369Y171796D02*
G03X142806Y171232I1177J-1740D01*
G01X143369Y171796D02*
G03X143381Y171805I-42J62D01*
G01X143507Y171931*
X145280Y172165D02*
G03X143507Y171931I-734J-1274D01*
G01X145280Y172165D02*
G03X145317Y172155I37J65D01*
G01X149276*
G03X149288Y172156I0J75*
X149456Y172203I-111J714*
X149900Y172870I-279J667*
G01Y176051*
X113198Y144175D02*
G03X113123Y144250I-75J-0D01*
G01X111695*
G03X111642Y144228I-0J-75*
G01X110772Y143358*
G03X110750Y143305I53J-53*
G01Y141500*
X110457Y140793D02*
G03X110750Y141500I-707J707D01*
G01X110457Y140793D02*
X108772Y139108D01*
G03X108750Y139055I53J-53*
G01Y128656*
X108457Y127949D02*
G03X108750Y128656I-707J707D01*
G01X108457Y127949D02*
X103042Y122534D01*
G03X103020Y122481I53J-53*
G01Y109825*
G03X103095Y109750I75J0*
G01X105955*
G03X106008Y109772I-0J75*
G01X109728Y113492*
G03X109750Y113545I-53J53*
G01Y137300*
X110043Y138007D02*
G03X109750Y137300I707J-707D01*
G01X110043Y138007D02*
X111318Y139282D01*
G03X111340Y139335I-53J53*
G01Y141871*
X111633Y142578D02*
G03X111340Y141871I707J-707D01*
G01X111633Y142578D02*
X113176Y144121D01*
G03X113198Y144175I-53J54*
G01X114351Y148171D02*
G03X114321Y148231I-75J0D01*
G01X114208Y148328D02*
G03X114321Y148231I704J710D01*
G01X114208Y148328D02*
G03X114155Y148350I-53J-53D01*
G01X109923*
G03X109870Y148328I0J-75*
G01X106850Y145308*
G03X106828Y145255I53J-53*
G01Y143248*
X106535Y142541D02*
G03X106828Y143248I-707J707D01*
G01X106535Y142541D02*
X105522Y141528D01*
G03X105500Y141475I53J-53*
G01Y138650*
X105207Y137943D02*
G03X105500Y138650I-707J707D01*
G01X105207Y137943D02*
X104272Y137008D01*
G03X104250Y136955I53J-53*
G01Y134156*
X103957Y133449D02*
G03X104250Y134156I-707J707D01*
G01X103957Y133449D02*
X103042Y132534D01*
G03X103020Y132481I53J-53*
G01Y127265*
G03X103148Y127212I75J0*
G01X105728Y129792*
G03X105750Y129845I-53J53*
G01Y139920*
X106043Y140627D02*
G03X105750Y139920I707J-707D01*
G01X106043Y140627D02*
X107728Y142312D01*
G03X107750Y142365I-53J53*
G01Y144200*
X108043Y144907D02*
G03X107750Y144200I707J-707D01*
G01X108043Y144907D02*
X110092Y146957D01*
X110800Y147250D02*
G03X110092Y146957I-0J-1000D01*
G01X110800Y147250D02*
X113430D01*
G03X113483Y147272I-0J75*
G01X114329Y148118*
G03X114351Y148171I-53J53*
G01X112641Y155304D02*
G03X112522Y155365I-75J0D01*
G01X110082Y156610D02*
G03X112522Y155365I1538J0D01*
G01X111530Y158145D02*
G03X110082Y156610I90J-1535D01*
G01X111530Y158145D02*
G03X111600Y158220I-5J75D01*
X111532Y158294I-75J-0*
G01X110315Y159113D02*
G03X111532Y158294I1363J712D01*
G01X110315Y159113D02*
G03X110196Y159131I-66J-35D01*
G01X104272Y153208*
G03X104250Y153155I53J-53*
G01Y149156*
X103957Y148449D02*
G03X104250Y149156I-707J707D01*
G01X103957Y148449D02*
X103042Y147534D01*
G03X103020Y147481I53J-53*
G01Y143455*
G03X103148Y143402I75J0*
G01X103806Y144060*
G03X103828Y144113I-53J53*
G01Y146150*
X104121Y146857D02*
G03X103828Y146150I707J-707D01*
G01X104121Y146857D02*
X108321Y151057D01*
X109028Y151350D02*
G03X108321Y151057I0J-1000D01*
G01X109028Y151350D02*
X111459D01*
G03X111534Y151425I0J75*
X111527Y151458I-75J0*
G01X111452Y151785D02*
G03X111527Y151458I750J-0D01*
G01X111452Y151785D02*
Y152966D01*
X112202Y153716D02*
G03X111452Y152966I-0J-750D01*
G01X112202Y153716D02*
X112542D01*
G03X112617Y153791I0J75*
X112609Y153825I-75J-0*
G01X112440Y154525D02*
G03X112609Y153825I1538J0D01*
G01X112632Y155268D02*
G03X112440Y154525I1346J-743D01*
G01X112632Y155268D02*
G03X112641Y155304I-66J36D01*
G01X157306Y119289D02*
G03X160381I1538J0D01*
G01X157306D02*
X157306D01*
X157312Y119420D02*
G03X157306Y119289I1532J-131D01*
G01X157312Y119420D02*
G03Y119426I-75J6D01*
X157250Y119500I-75J0*
G01X155981Y121014D02*
G03X157250Y119500I1538J0D01*
G01X159056Y121014D02*
G03X155981I-1537J0D01*
G01X159056D02*
X159056D01*
X159050Y120883D02*
G03X159056Y121014I-1531J131D01*
G01X159050Y120883D02*
G03Y120877I75J-6D01*
X159112Y120803I75J-0*
G01X160381Y119289D02*
G03X159112Y120803I-1537J0D01*
G01X154138Y107200D02*
G03X154138I-1538J0D01*
G01X109288Y163390D02*
G03X109288I-1538J0D01*
G01X165950Y102149D02*
X169616D01*
X165950Y101699D02*
X169616D01*
X165950Y102599D02*
X169614D01*
X148530Y127349D02*
X167846D01*
X148415Y126899D02*
X167846D01*
X148122Y126449D02*
X167846D01*
X147469Y125999D02*
X167846D01*
X144750Y125549D02*
X167846D01*
X144750Y125099D02*
X167846D01*
X144750Y124649D02*
X167846D01*
X144750Y124199D02*
X167846D01*
X144750Y123749D02*
X167846D01*
X144750Y123299D02*
X167846D01*
X144750Y122849D02*
X167846D01*
X158187Y122399D02*
X167846D01*
X158739Y121949D02*
X167846D01*
X158978Y121499D02*
X167846D01*
X159056Y121049D02*
X167846D01*
X159649Y120599D02*
X167846D01*
X160118Y120149D02*
X167846D01*
X160326Y119699D02*
X167846D01*
X160381Y119249D02*
X167846D01*
X160301Y118799D02*
X167846D01*
X160060Y118349D02*
X167846D01*
X159500Y117899D02*
X167846D01*
X152622Y117449D02*
X167846D01*
X151834Y116999D02*
X167846D01*
X148837Y116549D02*
X167846D01*
X149046Y116099D02*
X167846D01*
X149100Y115649D02*
X167846D01*
X149100Y115199D02*
X167846D01*
X149100Y114749D02*
X167846D01*
X149100Y114299D02*
X167846D01*
X149100Y113849D02*
X167846D01*
X149100Y113399D02*
X167846D01*
X149100Y112949D02*
X167846D01*
X149100Y112499D02*
X167846D01*
X149100Y112049D02*
X167846D01*
X149100Y111599D02*
X167846D01*
X149099Y111149D02*
X167846D01*
X149014Y110699D02*
X167846D01*
X148760Y110249D02*
X167846D01*
X148321Y109799D02*
X167846D01*
X147871Y109349D02*
X167846D01*
X147389Y108899D02*
X167846D01*
X153497Y108449D02*
X167846D01*
X153914Y107999D02*
X167846D01*
X154097Y107549D02*
X167846D01*
X154134Y107099D02*
X167846D01*
X154035Y106649D02*
X167846D01*
X153767Y106199D02*
X167846D01*
X153108Y105749D02*
X167846D01*
X103020Y105299D02*
X167846D01*
X103020Y104849D02*
X167846D01*
X103020Y104399D02*
X167846D01*
X103020Y103949D02*
X167846D01*
X103020Y103499D02*
X167846D01*
X103004Y103049D02*
X167846D01*
X148508Y127799D02*
X167559D01*
X148343Y128249D02*
X167109D01*
X147962Y128699D02*
X166659D01*
X147231Y129149D02*
X166209D01*
X162439Y129599D02*
X165759D01*
X163348Y130049D02*
X165309D01*
X163654Y130499D02*
X164859D01*
X163777Y130949D02*
X164409D01*
X163763Y131399D02*
X163959D01*
X145808Y129599D02*
X162061D01*
X145643Y130049D02*
X161152D01*
X145470Y130499D02*
X160846D01*
X145476Y130949D02*
X160723D01*
X145450Y131399D02*
X160562D01*
X152915Y117899D02*
X158187D01*
X153030Y118349D02*
X157627D01*
X153008Y118799D02*
X157386D01*
X152843Y119249D02*
X157307D01*
X144840Y122399D02*
X156850D01*
X152462Y119699D02*
X156723D01*
X144988Y121949D02*
X156298D01*
X151477Y120149D02*
X156248D01*
X150127Y121499D02*
X156059D01*
X151027Y120599D02*
X156038D01*
X150577Y121049D02*
X155981D01*
X103020Y105749D02*
X152092D01*
X144428Y108449D02*
X151703D01*
X106509Y106199D02*
X151433D01*
X140975Y107999D02*
X151286D01*
X148422Y116999D02*
X151166D01*
X140170Y106649D02*
X151165D01*
X140907Y107549D02*
X151103D01*
X140683Y107099D02*
X151066D01*
X147972Y117449D02*
X150378D01*
X146950Y117899D02*
X150085D01*
X144871Y118349D02*
X149970D01*
X144750Y118799D02*
X149574D01*
X144750Y119249D02*
X149124D01*
X145274Y131849D02*
X148967D01*
X145045Y132299D02*
X148437D01*
X145128Y132749D02*
X147987D01*
X145128Y133199D02*
X147537D01*
X145128Y133649D02*
X147087D01*
X145107Y134099D02*
X146637D01*
X144794Y134549D02*
X146187D01*
X143460Y134999D02*
X145737D01*
X144814Y125999D02*
X145635D01*
X143010Y135449D02*
X145287D01*
X142560Y135899D02*
X144837D01*
X141745Y136349D02*
X144387D01*
X140935Y108449D02*
X143201D01*
X141497Y136799D02*
X142319D01*
X141497Y137249D02*
X141715D01*
X107127Y106649D02*
X138704D01*
X107577Y107099D02*
X138191D01*
X108027Y107549D02*
X137967D01*
X108927Y108449D02*
X137939D01*
X108477Y107999D02*
X137899D01*
X109377Y108899D02*
X130247D01*
X109827Y109349D02*
X129797D01*
X110277Y109799D02*
X129347D01*
X110727Y110249D02*
X128897D01*
X111177Y110699D02*
X128447D01*
X111627Y111149D02*
X127997D01*
X112077Y111599D02*
X127547D01*
X112521Y112049D02*
X127097D01*
X112732Y112499D02*
X126647D01*
X112750Y112949D02*
X126197D01*
X117050Y118349D02*
X125950D01*
X117208Y117899D02*
X125950D01*
X117230Y117449D02*
X125950D01*
X117115Y116999D02*
X125950D01*
X116822Y116549D02*
X125950D01*
X116034Y116099D02*
X125950D01*
X112750Y115649D02*
X125950D01*
X112750Y115199D02*
X125950D01*
X112750Y114749D02*
X125950D01*
X112750Y114299D02*
X125950D01*
X112750Y113849D02*
X125950D01*
X112750Y113399D02*
X125950D01*
X114719Y135449D02*
X116651D01*
X115180Y135899D02*
X116333D01*
X112750Y134999D02*
X116201D01*
X115500Y138149D02*
X115895D01*
X115384Y136349D02*
X115853D01*
X115416Y137699D02*
X115659D01*
X115437Y136799D02*
X115641D01*
X115354Y137249D02*
X115583D01*
X112750Y116099D02*
X115366D01*
X112750Y134549D02*
X115329D01*
X112750Y134099D02*
X114972D01*
X112750Y133649D02*
X114944D01*
X112750Y133199D02*
X114934D01*
X112750Y132749D02*
X114934D01*
X112750Y132299D02*
X114934D01*
X112750Y131849D02*
X114934D01*
X112750Y131399D02*
X114934D01*
X112750Y130949D02*
X114934D01*
X112750Y130499D02*
X114934D01*
X112750Y130049D02*
X114744D01*
X112750Y116549D02*
X114578D01*
X112750Y123299D02*
X114416D01*
X112750Y122849D02*
X114416D01*
X112750Y122399D02*
X114409D01*
X112750Y121949D02*
X114400D01*
X112750Y121499D02*
X114400D01*
X112750Y121049D02*
X114400D01*
X112750Y120599D02*
X114400D01*
X112750Y120149D02*
X114392D01*
X112750Y119699D02*
X114350D01*
X112750Y119249D02*
X114350D01*
X112750Y118799D02*
X114350D01*
X112750Y118349D02*
X114350D01*
X112750Y129599D02*
X114294D01*
X112750Y116999D02*
X114285D01*
X112750Y123749D02*
X114206D01*
X112750Y117899D02*
X114192D01*
X112750Y117449D02*
X114170D01*
X112750Y129149D02*
X113844D01*
X112750Y124199D02*
X113756D01*
X112750Y128699D02*
X113480D01*
X112750Y124649D02*
X113437D01*
X112750Y128249D02*
X113336D01*
X112750Y125099D02*
X113327D01*
X112750Y127799D02*
X113324D01*
X112750Y127349D02*
X113324D01*
X112750Y126899D02*
X113324D01*
X112750Y126449D02*
X113324D01*
X112750Y125999D02*
X113324D01*
X112750Y125549D02*
X113324D01*
X112750Y135449D02*
X113081D01*
X101250Y102599D02*
X104910D01*
X101250Y102149D02*
X104910D01*
X101250Y101699D02*
X104910D01*
X163165Y176399D02*
X169616D01*
X162797Y175949D02*
X169616D01*
X154100Y175499D02*
X169616D01*
X154100Y175049D02*
X169616D01*
X154100Y174599D02*
X169616D01*
X154100Y174149D02*
X169616D01*
X154100Y173699D02*
X169616D01*
X154100Y173249D02*
X169616D01*
X154100Y172799D02*
X169616D01*
X154072Y172349D02*
X169616D01*
X154003Y171899D02*
X169616D01*
X153890Y171449D02*
X169616D01*
X153731Y170999D02*
X169616D01*
X153518Y170549D02*
X169616D01*
X153246Y170099D02*
X169616D01*
X153621Y169649D02*
X169616D01*
X154071Y169199D02*
X167851D01*
X154521Y168749D02*
X167846D01*
X154951Y168299D02*
X167846D01*
X155337Y167849D02*
X167846D01*
X155553Y167399D02*
X167846D01*
X155608Y166949D02*
X167846D01*
X155523Y166499D02*
X167846D01*
X155263Y166049D02*
X167846D01*
X154872Y165599D02*
X167846D01*
X154371Y165149D02*
X167846D01*
X153456Y164699D02*
X167846D01*
X147462Y164249D02*
X167846D01*
X147012Y163799D02*
X167846D01*
X146558Y163349D02*
X167846D01*
X142217Y162899D02*
X167846D01*
X149880Y162449D02*
X167846D01*
X150056Y161999D02*
X167846D01*
X150056Y161549D02*
X167846D01*
X150056Y161099D02*
X167846D01*
X150044Y160649D02*
X167846D01*
X162219Y160199D02*
X167846D01*
X162672Y159749D02*
X167846D01*
X163122Y159299D02*
X167846D01*
X163572Y158849D02*
X167846D01*
X164022Y158399D02*
X167846D01*
X164350Y157949D02*
X167846D01*
X164350Y157499D02*
X167846D01*
X164350Y157049D02*
X167846D01*
X164350Y156599D02*
X167846D01*
X164350Y156149D02*
X167846D01*
X164350Y155699D02*
X167846D01*
X164350Y155249D02*
X167846D01*
X164350Y154799D02*
X167846D01*
X164350Y154349D02*
X167846D01*
X164350Y153899D02*
X167846D01*
X164350Y153449D02*
X167846D01*
X164350Y152999D02*
X167846D01*
X164350Y152549D02*
X167846D01*
X164350Y152099D02*
X167846D01*
X164350Y151649D02*
X167846D01*
X164350Y151199D02*
X167846D01*
X164350Y150749D02*
X167846D01*
X164350Y150299D02*
X167846D01*
X164350Y149849D02*
X167846D01*
X164350Y149399D02*
X167846D01*
X164350Y148949D02*
X167846D01*
X164350Y148499D02*
X167846D01*
X164350Y148049D02*
X167846D01*
X164350Y147599D02*
X167846D01*
X164350Y147149D02*
X167846D01*
X164350Y146699D02*
X167846D01*
X164350Y146249D02*
X167846D01*
X164350Y145799D02*
X167846D01*
X164350Y145349D02*
X167846D01*
X164350Y144899D02*
X167846D01*
X164299Y144449D02*
X167846D01*
X163852Y143999D02*
X167846D01*
X163402Y143549D02*
X167846D01*
X162952Y143099D02*
X167846D01*
X162502Y142649D02*
X167846D01*
X162052Y142199D02*
X167846D01*
X161602Y141749D02*
X167846D01*
X161152Y141299D02*
X167846D01*
X160702Y140849D02*
X167846D01*
X153158Y140399D02*
X167846D01*
X152991Y139949D02*
X167846D01*
X152610Y139499D02*
X167846D01*
X147428Y139049D02*
X167846D01*
X147878Y138599D02*
X167846D01*
X148328Y138149D02*
X167846D01*
X148778Y137699D02*
X167846D01*
X149228Y137249D02*
X167846D01*
X149678Y136799D02*
X167846D01*
X150128Y136349D02*
X167846D01*
X150578Y135899D02*
X167846D01*
X164371Y135449D02*
X167846D01*
X164821Y134999D02*
X167846D01*
X165271Y134549D02*
X167846D01*
X165721Y134099D02*
X167846D01*
X166171Y133649D02*
X167846D01*
X166621Y133199D02*
X167846D01*
X167071Y132749D02*
X167846D01*
X167521Y132299D02*
X167846D01*
X154100Y175949D02*
X158815D01*
X154203Y176399D02*
X158447D01*
X149966Y160199D02*
X155548D01*
X153180Y140849D02*
X155098D01*
X150027Y159749D02*
X155095D01*
X153066Y141299D02*
X154648D01*
X150056Y159299D02*
X154645D01*
X152774Y141749D02*
X154198D01*
X150056Y158849D02*
X154195D01*
X151993Y142199D02*
X153748D01*
X150056Y158399D02*
X153745D01*
X151241Y142649D02*
X153298D01*
X149934Y157949D02*
X153295D01*
X147566Y164699D02*
X153152D01*
X151241Y143099D02*
X152848D01*
X147663Y157499D02*
X152845D01*
X151241Y143549D02*
X152398D01*
X147566Y165149D02*
X152237D01*
X149591Y149849D02*
X152100D01*
X149555Y149399D02*
X152100D01*
X149366Y148949D02*
X152100D01*
X149816Y148499D02*
X152100D01*
X150266Y148049D02*
X152100D01*
X150617Y147599D02*
X152100D01*
X150700Y147149D02*
X152100D01*
X150700Y146699D02*
X152100D01*
X150700Y146249D02*
X152100D01*
X150700Y145799D02*
X152100D01*
X150700Y145349D02*
X152100D01*
X150700Y144899D02*
X152100D01*
X150700Y144449D02*
X152100D01*
X151110Y143999D02*
X152100D01*
X149591Y150299D02*
X151760D01*
X147566Y165599D02*
X151731D01*
X149591Y150749D02*
X151310D01*
X147365Y166049D02*
X151281D01*
X149491Y151199D02*
X150860D01*
X146915Y166499D02*
X150831D01*
X146978Y139499D02*
X150690D01*
X149591Y151649D02*
X150410D01*
X144421Y166949D02*
X150381D01*
X144846Y167399D02*
X149962D01*
X149591Y152099D02*
X149960D01*
X145212Y167849D02*
X149581D01*
X146637Y139949D02*
X148731D01*
X148332Y145799D02*
X148700D01*
X148498Y145349D02*
X148700D01*
X148534Y144899D02*
X148700D01*
X148435Y144449D02*
X148700D01*
X148191Y143999D02*
X148690D01*
X148284Y142199D02*
X148585D01*
X147941Y141749D02*
X148573D01*
X146632Y140399D02*
X148560D01*
X148310Y143549D02*
X148559D01*
X148310Y143099D02*
X148559D01*
X148310Y142649D02*
X148559D01*
X146049Y141299D02*
X148559D01*
X146470Y140849D02*
X148559D01*
X142217Y162449D02*
X147552D01*
X142160Y161999D02*
X147376D01*
X141983Y161549D02*
X147375D01*
X146595Y161099D02*
X147375D01*
X145596Y141749D02*
X145997D01*
X142234Y163349D02*
X144972D01*
X144228Y166499D02*
X144875D01*
X142234Y163799D02*
X144518D01*
X141641Y161099D02*
X142147D01*
X140889Y160649D02*
X141689D01*
X138584Y159749D02*
X141575D01*
X138134Y159299D02*
X141560D01*
X139034Y160199D02*
X141541D01*
X137684Y158849D02*
X141110D01*
X137234Y158399D02*
X140660D01*
X136805Y157949D02*
X140210D01*
X122257Y157499D02*
X139760D01*
X139484Y160649D02*
X139739D01*
X122257Y157049D02*
X139310D01*
X122257Y156599D02*
X138860D01*
X122257Y156149D02*
X138410D01*
X122257Y155699D02*
X137961D01*
X122257Y155249D02*
X137899D01*
X122257Y154799D02*
X137899D01*
X122257Y154349D02*
X137899D01*
X122257Y153899D02*
X137899D01*
X122257Y153449D02*
X137899D01*
X122257Y152999D02*
X137899D01*
X122257Y152549D02*
X137899D01*
X122257Y152099D02*
X137899D01*
X122257Y151649D02*
X137899D01*
X122257Y151199D02*
X137899D01*
X122257Y150749D02*
X137899D01*
X122257Y150299D02*
X137899D01*
X122257Y149849D02*
X137899D01*
X122257Y149399D02*
X137899D01*
X122257Y148949D02*
X137899D01*
X122257Y148499D02*
X137899D01*
X122257Y148049D02*
X137899D01*
X122257Y147599D02*
X137899D01*
X122257Y147149D02*
X137899D01*
X122257Y146699D02*
X137899D01*
X122257Y146249D02*
X137899D01*
X122257Y145799D02*
X137899D01*
X122257Y145349D02*
X137899D01*
X122257Y144899D02*
X137899D01*
X122257Y144449D02*
X137899D01*
X122257Y143999D02*
X137899D01*
X122257Y143549D02*
X137899D01*
X122257Y143099D02*
X137899D01*
X122257Y142649D02*
X137899D01*
X122257Y142199D02*
X137899D01*
X101250Y175949D02*
X149900D01*
X101250Y175499D02*
X149900D01*
X101250Y175049D02*
X149900D01*
X101250Y174599D02*
X149900D01*
X101250Y174149D02*
X149900D01*
X101250Y173699D02*
X149900D01*
X101250Y173249D02*
X149900D01*
X101250Y172799D02*
X149896D01*
X101250Y176399D02*
X149797D01*
X144737Y172349D02*
X149678D01*
X101250D02*
X144355D01*
X136920Y171899D02*
X143475D01*
X137370Y171449D02*
X142974D01*
X137820Y170999D02*
X142583D01*
X138270Y170549D02*
X142125D01*
X138720Y170099D02*
X141620D01*
X139000Y169649D02*
X141176D01*
X139000Y169199D02*
X140718D01*
X138652Y168749D02*
X140261D01*
X138202Y168299D02*
X139809D01*
X137771Y167849D02*
X139359D01*
X138175Y167399D02*
X138909D01*
X101250Y171899D02*
X135205D01*
X134125Y171449D02*
X134755D01*
X114659Y167849D02*
X131853D01*
X128276Y165599D02*
X131583D01*
X114209Y167399D02*
X131436D01*
X127826Y166049D02*
X131315D01*
X125316Y166949D02*
X131253D01*
X125766Y166499D02*
X131216D01*
X103020Y166949D02*
X117804D01*
X103020Y166499D02*
X117354D01*
X103020Y166049D02*
X116904D01*
X103020Y165599D02*
X116454D01*
X103020Y165149D02*
X116004D01*
X108556Y164699D02*
X111506D01*
X109025Y164249D02*
X111034D01*
X109232Y163799D02*
X110584D01*
X109287Y163349D02*
X110134D01*
X109207Y162899D02*
X109684D01*
X108966Y162449D02*
X109234D01*
X108405Y161999D02*
X108784D01*
X103020Y161549D02*
X108334D01*
X103020Y161099D02*
X107884D01*
X103020Y160649D02*
X107434D01*
X101250Y171449D02*
X107182D01*
X103020Y161999D02*
X107095D01*
X103020Y160199D02*
X106984D01*
X103020Y164699D02*
X106944D01*
X103020Y167399D02*
X106844D01*
X101250Y170999D02*
X106782D01*
X103020Y167849D02*
X106672D01*
X101250Y170549D02*
X106651D01*
X101250Y170099D02*
X106650D01*
X101250Y169649D02*
X106650D01*
X103014Y169199D02*
X106650D01*
X103020Y168749D02*
X106650D01*
X103020Y168299D02*
X106650D01*
X103020Y159749D02*
X106534D01*
X103020Y162449D02*
X106534D01*
X103020Y164249D02*
X106475D01*
X103020Y162899D02*
X106293D01*
X103020Y163799D02*
X106268D01*
X103020Y163349D02*
X106213D01*
X103020Y159299D02*
X106084D01*
X103020Y158849D02*
X105634D01*
X103020Y158399D02*
X105184D01*
X103020Y157949D02*
X104734D01*
X103020Y157499D02*
X104284D01*
X103020Y157049D02*
X103834D01*
X111413Y143999D02*
X113054D01*
X110963Y143549D02*
X112604D01*
X110750Y143099D02*
X112154D01*
X110750Y142649D02*
X111704D01*
X110750Y142199D02*
X111395D01*
X110750Y141749D02*
X111340D01*
X110730Y141299D02*
X111340D01*
X110509Y140849D02*
X111340D01*
X110063Y140399D02*
X111340D01*
X109613Y139949D02*
X111340D01*
X109163Y139499D02*
X111340D01*
X108750Y139049D02*
X111084D01*
X108750Y138599D02*
X110634D01*
X108750Y138149D02*
X110184D01*
X108750Y137699D02*
X109833D01*
X108750Y137249D02*
X109750D01*
X108750Y136799D02*
X109750D01*
X108750Y136349D02*
X109750D01*
X108750Y135899D02*
X109750D01*
X108750Y135449D02*
X109750D01*
X108750Y134999D02*
X109750D01*
X108750Y134549D02*
X109750D01*
X108750Y134099D02*
X109750D01*
X108750Y133649D02*
X109750D01*
X108750Y133199D02*
X109750D01*
X108750Y132749D02*
X109750D01*
X108750Y132299D02*
X109750D01*
X108750Y131849D02*
X109750D01*
X108750Y131399D02*
X109750D01*
X108750Y130949D02*
X109750D01*
X108750Y130499D02*
X109750D01*
X108750Y130049D02*
X109750D01*
X108750Y129599D02*
X109750D01*
X108750Y129149D02*
X109750D01*
X108750Y128699D02*
X109750D01*
X108663Y128249D02*
X109750D01*
X108307Y127799D02*
X109750D01*
X107857Y127349D02*
X109750D01*
X107407Y126899D02*
X109750D01*
X106957Y126449D02*
X109750D01*
X106507Y125999D02*
X109750D01*
X106057Y125549D02*
X109750D01*
X105607Y125099D02*
X109750D01*
X105157Y124649D02*
X109750D01*
X104707Y124199D02*
X109750D01*
X104257Y123749D02*
X109750D01*
X103807Y123299D02*
X109750D01*
X103357Y122849D02*
X109750D01*
X103020Y122399D02*
X109750D01*
X103020Y121949D02*
X109750D01*
X103020Y121499D02*
X109750D01*
X103020Y121049D02*
X109750D01*
X103020Y120599D02*
X109750D01*
X103020Y120149D02*
X109750D01*
X103020Y119699D02*
X109750D01*
X103020Y119249D02*
X109750D01*
X103020Y118799D02*
X109750D01*
X103020Y118349D02*
X109750D01*
X103020Y117899D02*
X109750D01*
X103020Y117449D02*
X109750D01*
X103020Y116999D02*
X109750D01*
X103020Y116549D02*
X109750D01*
X103020Y116099D02*
X109750D01*
X103020Y115649D02*
X109750D01*
X103020Y115199D02*
X109750D01*
X103020Y114749D02*
X109750D01*
X103020Y114299D02*
X109750D01*
X103020Y113849D02*
X109750D01*
X103020Y113399D02*
X109634D01*
X103020Y112949D02*
X109184D01*
X103020Y112499D02*
X108734D01*
X103020Y112049D02*
X108284D01*
X103020Y111599D02*
X107834D01*
X103020Y111149D02*
X107384D01*
X103020Y110699D02*
X106934D01*
X103020Y110249D02*
X106484D01*
X103025Y109799D02*
X106034D01*
X109591Y148049D02*
X114260D01*
X109141Y147599D02*
X113810D01*
X108691Y147149D02*
X110362D01*
X108241Y146699D02*
X109834D01*
X107791Y146249D02*
X109384D01*
X107341Y145799D02*
X108934D01*
X106891Y145349D02*
X108484D01*
X106828Y144899D02*
X108035D01*
X106828Y144449D02*
X107781D01*
X106828Y143999D02*
X107750D01*
X106828Y143549D02*
X107750D01*
X106817Y143099D02*
X107750D01*
X106629Y142649D02*
X107750D01*
X106193Y142199D02*
X107614D01*
X105743Y141749D02*
X107164D01*
X105500Y141299D02*
X106714D01*
X105500Y140849D02*
X106264D01*
X105500Y140399D02*
X105872D01*
X105500Y139949D02*
X105750D01*
X105500Y139499D02*
X105750D01*
X105500Y139049D02*
X105750D01*
X105499Y138599D02*
X105750D01*
X105365Y138149D02*
X105750D01*
X104963Y137699D02*
X105750D01*
X104513Y137249D02*
X105750D01*
X104250Y136799D02*
X105750D01*
X104250Y136349D02*
X105750D01*
X104250Y135899D02*
X105750D01*
X104250Y135449D02*
X105750D01*
X104250Y134999D02*
X105750D01*
X104250Y134549D02*
X105750D01*
X104248Y134099D02*
X105750D01*
X104112Y133649D02*
X105750D01*
X103707Y133199D02*
X105750D01*
X103257Y132749D02*
X105750D01*
X103020Y132299D02*
X105750D01*
X103020Y131849D02*
X105750D01*
X103020Y131399D02*
X105750D01*
X103020Y130949D02*
X105750D01*
X103020Y130499D02*
X105750D01*
X103020Y130049D02*
X105750D01*
X103020Y129599D02*
X105534D01*
X103020Y129149D02*
X105084D01*
X103020Y128699D02*
X104634D01*
X103020Y128249D02*
X104184D01*
X103020Y127799D02*
X103734D01*
X103020Y127349D02*
X103284D01*
X112335Y155249D02*
X112621D01*
X104963Y153899D02*
X112574D01*
X105863Y154799D02*
X112465D01*
X105413Y154349D02*
X112451D01*
X104513Y153449D02*
X111628D01*
X104250Y151649D02*
X111464D01*
X104250Y152999D02*
X111452D01*
X104250Y152549D02*
X111452D01*
X104250Y152099D02*
X111452D01*
X109463Y158399D02*
X111104D01*
X106313Y155249D02*
X110905D01*
X109013Y157949D02*
X110864D01*
X109913Y158849D02*
X110490D01*
X106763Y155699D02*
X110382D01*
X108563Y157499D02*
X110365D01*
X107213Y156149D02*
X110153D01*
X108113Y157049D02*
X110146D01*
X107663Y156599D02*
X110083D01*
X104250Y151199D02*
X108499D01*
X104250Y150749D02*
X108012D01*
X104250Y150299D02*
X107562D01*
X104250Y149849D02*
X107112D01*
X104250Y149399D02*
X106662D01*
X104228Y148949D02*
X106212D01*
X104004Y148499D02*
X105762D01*
X103557Y148049D02*
X105312D01*
X103107Y147599D02*
X104862D01*
X103020Y147149D02*
X104412D01*
X103020Y146699D02*
X103992D01*
X103020Y146249D02*
X103833D01*
X103020Y145799D02*
X103828D01*
X103020Y145349D02*
X103828D01*
X103020Y144899D02*
X103828D01*
X103020Y144449D02*
X103828D01*
X103020Y143999D02*
X103744D01*
X103020Y143549D02*
X103294D01*
G54D38*
X136648Y170188D02*
G03X136766Y169594I502J-210D01*
X136172Y169712I-384J-384*
G01X136544Y169943D02*
G03X136766Y169594I893J322D01*
X136417Y169816I-671J-671*
G01X136717Y169643D02*
G03X137118Y169562I261J260D01*
G01X136793Y169254D02*
G03X136717Y169643I-326J138D01*
G01X136904Y169456*
X136070Y170290D02*
X137176Y169184D01*
Y169176*
X143291Y165576D02*
G03X143369Y165181I333J-139D01*
X142974Y165259I-256J-255*
G01X143369Y165181D02*
X143182Y165368D01*
X144782Y165099D02*
G03X145284Y165436I-0J543D01*
G01Y164762D02*
G03X144782Y165099I-502J-206D01*
X145185Y165189I-0J949*
G01Y165009D02*
G03X144782Y165099I-403J-859D01*
G01X142906Y165644D02*
X143451Y165099D01*
X145766*
G54D100*
X139791Y108172D02*
Y109954D01*
X139083Y108172D02*
Y109954D01*
G54D123*
X108858Y168584D03*
Y165828D03*
G54D131*
X133629Y115676D03*
X136100Y116100D03*
X133500Y112125D03*
X130250Y115375D03*
X115700Y117600D03*
X121600Y113300D03*
X113650Y117050D03*
X118300Y116600D03*
X110000Y107500D03*
Y105200D03*
X102125Y102155D03*
X105400Y105200D03*
X105197Y111200D03*
X161177Y109505D03*
X138250Y116150D03*
X144800Y116400D03*
X141470Y116250D03*
X152600Y107200D03*
X139437Y108000D03*
X151500Y118500D03*
X149700Y114900D03*
X148450Y119000D03*
X147250Y107250D03*
X150300Y110100D03*
X154700Y105200D03*
X154200Y113500D03*
X155125Y119000D03*
X165700Y111500D03*
X160000Y112750D03*
X165700Y116100D03*
X167875Y101905D03*
X150600Y105200D03*
X165700Y105400D03*
X161000Y105200D03*
X120927Y129428D03*
X124690Y128840D03*
X134500Y129700D03*
X135700Y128000D03*
X118302Y131303D03*
X127965Y129128D03*
X117120Y137220D03*
X118260Y127260D03*
X118728Y153600D03*
X129700Y127900D03*
X131800Y128000D03*
X113900Y136750D03*
X113878Y156625D03*
X111620Y156610D03*
X113978Y154525D03*
X115700Y135700D03*
X110800Y139550D03*
X119650Y140750D03*
X135978Y146875D03*
X136000Y140800D03*
X130078Y146875D03*
X133028Y149825D03*
Y143925D03*
X113650Y121200D03*
X126865Y140791D03*
X119700Y144000D03*
X127128Y155725D03*
X124178Y152775D03*
X112800Y147800D03*
X127128Y149825D03*
X119700Y147850D03*
X130078Y152775D03*
X127128Y143925D03*
X113300Y134700D03*
X124178Y146875D03*
X110800Y154650D03*
X133028Y155725D03*
X135978Y152775D03*
X131500Y140800D03*
X114300Y152152D03*
X141900Y129300D03*
X139200Y129600D03*
X141942Y119427D03*
X137100Y129600D03*
X147000Y127500D03*
X144300Y129300D03*
X138000Y119375D03*
X140380Y148106D03*
X140375Y154406D03*
X141000Y152406D03*
X147510Y147130D03*
X162250Y131125D03*
X158844Y119289D03*
X151650Y140700D03*
X147000Y145000D03*
X157519Y121014D03*
X140450Y156625D03*
X160150Y121150D03*
X153700Y141450D03*
X153200Y124400D03*
X163950Y136300D03*
X154750Y137250D03*
X165700Y158000D03*
X151850Y142900D03*
X165700Y120700D03*
X159703Y150893D03*
X155503Y142293D03*
X139642Y145867D03*
X156875Y131200D03*
X148500Y124350D03*
X149050Y138900D03*
X158406Y137316D03*
X150940Y137386D03*
X165700Y125800D03*
X150450Y128250D03*
X160800Y127700D03*
X165700Y138100D03*
X162203Y150893D03*
X160403Y158693D03*
X165600Y152900D03*
X162103Y157093D03*
X165100Y155950D03*
X151186Y149201D03*
X150150Y151000D03*
X151400Y147100D03*
Y144950D03*
X153853Y143893D03*
X163700Y142900D03*
X156403Y143993D03*
X152400Y158100D03*
X153150Y128300D03*
X160000Y131125D03*
X157230Y124231D03*
X162200Y141500D03*
X146308Y153125D03*
X139300Y138952D03*
X130400Y159650D03*
X122750Y160450D03*
X135878Y159175D03*
X132450Y160225D03*
X113878Y159825D03*
X127000Y160650D03*
X107750Y163390D03*
X132750Y166600D03*
X124900Y160450D03*
X120680Y160800D03*
X135000Y173050D03*
X119200Y173000D03*
X114500Y175350D03*
X124000Y175450D03*
X106600Y173300D03*
X103450Y175250D03*
X127250Y175500D03*
X136070Y170290D03*
X105750Y162750D03*
X115150Y165950D03*
X132050Y173000D03*
X116000D03*
X136550Y175500D03*
X130250Y165875D03*
X106680Y165206D03*
X111050Y165950D03*
X133500Y175500D03*
X105150Y160750D03*
X129000Y173000D03*
X130500Y175500D03*
X122550Y173000D03*
X125800D03*
X120600Y175450D03*
X117500Y175400D03*
X112500Y173050D03*
X110950Y175250D03*
X109250Y173000D03*
X107000Y175250D03*
X104850Y171950D03*
X102000Y173750D03*
X110200Y170206D03*
X108200D03*
X118420Y170170D03*
X126450D03*
X111678Y159825D03*
X166500Y175550D03*
X139500Y175500D03*
X145100Y172900D03*
X157800Y170000D03*
X142450Y175350D03*
X142100Y171400D03*
X145766Y165099D03*
X147300Y174000D03*
X159450Y160800D03*
X159625Y175125D03*
X161451Y172831D03*
X157331Y172786D03*
X152250Y160800D03*
X164500Y160100D03*
X165207Y165681D03*
X164650Y167750D03*
X165000Y170905D03*
X163000Y175150D03*
X166300Y173105D03*
X168696Y174306D03*
X138000Y173000D03*
X145250Y175500D03*
X149300Y175600D03*
X154700Y175800D03*
Y173500D03*
X162500Y160800D03*
X156500D03*
X154150Y159650D03*
X148200Y165100D03*
X142878Y163325D03*
X149300Y167250D03*
X151250Y165300D03*
X146700Y167400D03*
X154400Y171100D03*
X156750Y165350D03*
X162250Y169750D03*
X159750Y168250D03*
X161375Y165531D03*
X156200Y167450D03*
X154900Y169250D03*
X138600Y167900D03*
X141000Y173000D03*
X140400Y169700D03*
X149300Y173000D03*
X147000Y159300D03*
G54D134*
X152000Y176893D03*
X160806D03*
X127626Y114063D03*
Y118000D03*
Y121937D03*
Y125874D03*
X131563Y110126D03*
Y114063D03*
Y118000D03*
Y121937D03*
Y125874D03*
X135500Y110126D03*
Y114063D03*
Y118000D03*
Y121937D03*
Y125874D03*
X139437Y110126D03*
Y114063D03*
Y118000D03*
Y121937D03*
Y125874D03*
X143374Y110126D03*
Y114063D03*
Y118000D03*
Y121937D03*
Y125874D03*
G54D145*
X100000Y170906D03*
Y165906D03*
Y160906D03*
Y155906D03*
Y150906D03*
Y145906D03*
Y140906D03*
Y135906D03*
Y130906D03*
Y125906D03*
Y120906D03*
Y115906D03*
Y110906D03*
Y105906D03*
X170866D03*
Y110906D03*
Y115906D03*
Y120906D03*
Y125906D03*
Y130906D03*
Y135906D03*
Y140906D03*
Y145906D03*
Y150906D03*
Y155906D03*
Y160906D03*
Y165906D03*
Y170906D03*
G54D204*
X137165Y163309D02*
Y165699D01*
X138175*
X138739Y165134*
Y163309*
X140314D02*
Y165834D01*
X140347Y165867*
G54D209*
X130078Y149825D03*
G54D210*
X155047Y154043D03*
G54D211*
Y146956D03*
X160953D03*
Y154043D03*
G54D230*
X152000Y172870D02*
Y176893D01*
X149385Y170055D02*
G03X150265Y170265I-208J2815D01*
G01X140347Y165867D02*
X141514Y167034D01*
Y167036*
X150265Y170265D02*
G03X152000Y172870I-1088J2605D01*
G01X151646Y168654D02*
X153304Y166996D01*
X144546Y170056D02*
X144547Y170055D01*
X147408*
X143154Y168664D02*
X143170D01*
X141514Y167036*
X147408Y170055D02*
X149385D01*
G54D250*
X107933Y100000D03*
X112933D03*
X117933D03*
X122933D03*
X127933D03*
X132933D03*
X137933D03*
X142933D03*
X147933D03*
X152933D03*
X157933D03*
X162933D03*
G54D251*
X112792Y152375D03*
X110824D03*
X146969Y142985D03*
Y141016D03*
X148716Y158950D03*
X150684D03*
X116153Y169488D03*
Y167519D03*
X128265Y169478D03*
Y167510D03*
X116284Y133303D03*
X114316D03*
X159734Y142250D03*
X157766D03*
X147408Y172023D03*
Y170055D03*
X116284Y130887D03*
X114316D03*
X148716Y161375D03*
X150684D03*
X156574Y158750D03*
X158542D03*
X150684Y156000D03*
X148716D03*
X148250Y152185D03*
Y150216D03*
X149900Y142985D03*
Y141016D03*
X124600Y133334D03*
Y131365D03*
X119714Y133334D03*
Y131365D03*
X122178Y133334D03*
Y131365D03*
X127050Y133334D03*
Y131365D03*
X129450Y133334D03*
Y131365D03*
X130669Y169482D03*
X132638D03*
X115766Y121487D03*
X117734D03*
X115766Y123875D03*
X117734D03*
X143787Y133334D03*
Y131365D03*
X141343Y133334D03*
Y131365D03*
X138229Y133334D03*
Y131365D03*
X135840Y133334D03*
Y131365D03*
X133500Y133334D03*
Y131365D03*
G54D259*
X138739Y163309D03*
X137165D03*
X135590D03*
X134015D03*
X132440D03*
X130865D03*
X129291D03*
X127716D03*
X126141D03*
X124566D03*
X122991D03*
X121417D03*
X119842D03*
Y136341D03*
X121417D03*
X122991D03*
X124566D03*
X126141D03*
X127716D03*
X129291D03*
X130865D03*
X132440D03*
X134015D03*
X135590D03*
X137165D03*
X138739D03*
X140314D03*
G54D260*
X116594Y160061D03*
Y158486D03*
Y156912D03*
Y155337D03*
Y153762D03*
Y152187D03*
Y150612D03*
Y149038D03*
Y147463D03*
Y145888D03*
Y144313D03*
Y142738D03*
Y141164D03*
Y139589D03*
X143562D03*
Y141164D03*
Y142738D03*
Y144313D03*
Y145888D03*
Y147463D03*
Y149038D03*
Y150612D03*
Y152187D03*
Y153762D03*
Y155337D03*
Y156912D03*
Y158486D03*
G54D263*
X140314Y163309D03*
G54D264*
X143562Y160061D03*
G74*
X0Y0D02*
M02*
