%TF.GenerationSoftware,KiCad,Pcbnew,10.0.0*%
%TF.CreationDate,2026-04-24T18:35:15-04:00*%
%TF.ProjectId,LM2576_Var_Volt_Reg,4c4d3235-3736-45f5-9661-725f566f6c74,rev?*%
%TF.SameCoordinates,Original*%
%TF.FileFunction,Copper,L1,Top*%
%TF.FilePolarity,Positive*%
%FSLAX46Y46*%
G04 Gerber Fmt 4.6, Leading zero omitted, Abs format (unit mm)*
G04 Created by KiCad (PCBNEW 10.0.0) date 2026-04-24 18:35:15*
%MOMM*%
%LPD*%
G01*
G04 APERTURE LIST*
G04 Aperture macros list*
%AMRoundRect*
0 Rectangle with rounded corners*
0 $1 Rounding radius*
0 $2 $3 $4 $5 $6 $7 $8 $9 X,Y pos of 4 corners*
0 Add a 4 corners polygon primitive as box body*
4,1,4,$2,$3,$4,$5,$6,$7,$8,$9,$2,$3,0*
0 Add four circle primitives for the rounded corners*
1,1,$1+$1,$2,$3*
1,1,$1+$1,$4,$5*
1,1,$1+$1,$6,$7*
1,1,$1+$1,$8,$9*
0 Add four rect primitives between the rounded corners*
20,1,$1+$1,$2,$3,$4,$5,0*
20,1,$1+$1,$4,$5,$6,$7,0*
20,1,$1+$1,$6,$7,$8,$9,0*
20,1,$1+$1,$8,$9,$2,$3,0*%
G04 Aperture macros list end*
%TA.AperFunction,SMDPad,CuDef*%
%ADD10RoundRect,0.250000X-0.625000X0.400000X-0.625000X-0.400000X0.625000X-0.400000X0.625000X0.400000X0*%
%TD*%
%TA.AperFunction,ComponentPad*%
%ADD11R,2.057400X2.057400*%
%TD*%
%TA.AperFunction,ComponentPad*%
%ADD12C,2.057400*%
%TD*%
%TA.AperFunction,SMDPad,CuDef*%
%ADD13RoundRect,0.250000X0.450000X-0.325000X0.450000X0.325000X-0.450000X0.325000X-0.450000X-0.325000X0*%
%TD*%
%TA.AperFunction,ComponentPad*%
%ADD14RoundRect,0.250000X-0.550000X0.550000X-0.550000X-0.550000X0.550000X-0.550000X0.550000X0.550000X0*%
%TD*%
%TA.AperFunction,ComponentPad*%
%ADD15C,1.600000*%
%TD*%
%TA.AperFunction,SMDPad,CuDef*%
%ADD16RoundRect,0.250000X0.400000X0.625000X-0.400000X0.625000X-0.400000X-0.625000X0.400000X-0.625000X0*%
%TD*%
%TA.AperFunction,ComponentPad*%
%ADD17RoundRect,0.250000X-0.550000X-0.550000X0.550000X-0.550000X0.550000X0.550000X-0.550000X0.550000X0*%
%TD*%
%TA.AperFunction,ComponentPad*%
%ADD18R,1.700000X1.700000*%
%TD*%
%TA.AperFunction,ComponentPad*%
%ADD19C,1.700000*%
%TD*%
%TA.AperFunction,ComponentPad*%
%ADD20C,3.600000*%
%TD*%
%TA.AperFunction,SMDPad,CuDef*%
%ADD21RoundRect,0.250000X-0.312500X-0.625000X0.312500X-0.625000X0.312500X0.625000X-0.312500X0.625000X0*%
%TD*%
%TA.AperFunction,SMDPad,CuDef*%
%ADD22RoundRect,0.250000X0.300000X-2.050000X0.300000X2.050000X-0.300000X2.050000X-0.300000X-2.050000X0*%
%TD*%
%TA.AperFunction,SMDPad,CuDef*%
%ADD23RoundRect,0.250002X5.149998X-4.449998X5.149998X4.449998X-5.149998X4.449998X-5.149998X-4.449998X0*%
%TD*%
%TA.AperFunction,ViaPad*%
%ADD24C,0.600000*%
%TD*%
%TA.AperFunction,Conductor*%
%ADD25C,2.000000*%
%TD*%
%TA.AperFunction,Conductor*%
%ADD26C,1.000000*%
%TD*%
%TA.AperFunction,Conductor*%
%ADD27C,0.406400*%
%TD*%
%TA.AperFunction,Conductor*%
%ADD28C,0.200000*%
%TD*%
G04 APERTURE END LIST*
D10*
%TO.P,R3,1*%
%TO.N,/Vout*%
X181525000Y-55787500D03*
%TO.P,R3,2*%
%TO.N,Net-(D2-A)*%
X181525000Y-58887500D03*
%TD*%
D11*
%TO.P,CR1,1*%
%TO.N,Net-(U2-OUT)*%
X163000000Y-59342350D03*
D12*
%TO.P,CR1,2*%
%TO.N,GND*%
X163000000Y-75342350D03*
%TD*%
D13*
%TO.P,D2,1,K*%
%TO.N,GND*%
X181525000Y-66900000D03*
%TO.P,D2,2,A*%
%TO.N,Net-(D2-A)*%
X181525000Y-64850000D03*
%TD*%
D14*
%TO.P,C3,1*%
%TO.N,/Vout*%
X174525000Y-58375000D03*
D15*
%TO.P,C3,2*%
%TO.N,GND*%
X174525000Y-60875000D03*
%TD*%
D16*
%TO.P,R4,1*%
%TO.N,Net-(R2-Pad2)*%
X175159000Y-70612000D03*
%TO.P,R4,2*%
%TO.N,/FB*%
X172059000Y-70612000D03*
%TD*%
D15*
%TO.P,C4,1*%
%TO.N,/Vin*%
X188000000Y-77000000D03*
%TO.P,C4,2*%
%TO.N,GND*%
X183000000Y-77000000D03*
%TD*%
D17*
%TO.P,C1,1*%
%TO.N,/Vin*%
X154025000Y-60875000D03*
D15*
%TO.P,C1,2*%
%TO.N,GND*%
X156525000Y-60875000D03*
%TD*%
%TO.P,C5,1*%
%TO.N,/Vout*%
X188000000Y-72000000D03*
%TO.P,C5,2*%
%TO.N,GND*%
X183000000Y-72000000D03*
%TD*%
D18*
%TO.P,J1,1,Pin_1*%
%TO.N,/Vin*%
X192525000Y-77415000D03*
D19*
%TO.P,J1,2,Pin_2*%
%TO.N,GND*%
X192525000Y-74875000D03*
%TO.P,J1,3,Pin_3*%
%TO.N,/Vout*%
X192525000Y-72335000D03*
%TD*%
D16*
%TO.P,R2,1*%
%TO.N,/Vout*%
X175087500Y-66875000D03*
%TO.P,R2,2*%
%TO.N,Net-(R2-Pad2)*%
X171987500Y-66875000D03*
%TD*%
D20*
%TO.P,L1,1,1*%
%TO.N,Net-(U2-OUT)*%
X181525000Y-43765000D03*
%TO.P,L1,2,2*%
%TO.N,/Vout*%
X181525000Y-50875000D03*
%TD*%
D21*
%TO.P,R1,1*%
%TO.N,/FB*%
X172273500Y-73533000D03*
%TO.P,R1,2*%
%TO.N,GND*%
X175198500Y-73533000D03*
%TD*%
D22*
%TO.P,U2,1,VIN*%
%TO.N,/Vin*%
X157900000Y-51450000D03*
%TO.P,U2,2,OUT*%
%TO.N,Net-(U2-OUT)*%
X159600000Y-51450000D03*
%TO.P,U2,3,GND*%
%TO.N,GND*%
X161300000Y-51450000D03*
D23*
X161300000Y-42300000D03*
D22*
%TO.P,U2,4,FB*%
%TO.N,/FB*%
X163000000Y-51450000D03*
%TO.P,U2,5,~{ON}/OFF*%
%TO.N,GND*%
X164700000Y-51450000D03*
%TD*%
D14*
%TO.P,C2,1*%
%TO.N,/Vout*%
X190525000Y-58375000D03*
D15*
%TO.P,C2,2*%
%TO.N,GND*%
X190525000Y-60875000D03*
%TD*%
D24*
%TO.N,Net-(U2-OUT)*%
X159766000Y-48000000D03*
%TD*%
%TO.N,/Vout*%
D25*
X192525000Y-72335000D02*
X194000000Y-70860000D01*
X175087500Y-64343500D02*
X174752000Y-64008000D01*
X181525000Y-50875000D02*
X181525000Y-54875000D01*
X175087500Y-66875000D02*
X175087500Y-64343500D01*
X186525000Y-54875000D02*
X181525000Y-54875000D01*
X194000000Y-70860000D02*
X194000000Y-60000000D01*
X192000000Y-72000000D02*
X188000000Y-72000000D01*
X192375000Y-58375000D02*
X190525000Y-58375000D01*
X171958000Y-64008000D02*
X171958000Y-58420000D01*
D26*
X190525000Y-58375000D02*
X190025000Y-58375000D01*
X192335000Y-72335000D02*
X192000000Y-72000000D01*
D25*
X174752000Y-64008000D02*
X171958000Y-64008000D01*
X190025000Y-58375000D02*
X186525000Y-54875000D01*
D26*
X181525000Y-55875000D02*
X181525000Y-54875000D01*
D25*
X171958000Y-58420000D02*
X173228000Y-58420000D01*
D26*
X192525000Y-72335000D02*
X192335000Y-72335000D01*
D25*
X178025000Y-54875000D02*
X174525000Y-58375000D01*
X181525000Y-54875000D02*
X178025000Y-54875000D01*
X173228000Y-58420000D02*
X173273000Y-58375000D01*
X194000000Y-60000000D02*
X192375000Y-58375000D01*
X173273000Y-58375000D02*
X174525000Y-58375000D01*
%TO.N,Net-(D2-A)*%
D26*
X181525000Y-58800000D02*
X181525000Y-64850000D01*
%TO.N,Net-(U2-OUT)*%
X159600000Y-51450000D02*
X159600000Y-48166000D01*
X159600000Y-51450000D02*
X159600000Y-56771175D01*
X159600000Y-48166000D02*
X159766000Y-48000000D01*
X162171175Y-59342350D02*
X163000000Y-59342350D01*
X159600000Y-56771175D02*
X162171175Y-59342350D01*
%TO.N,GND*%
D27*
X171557692Y-76962000D02*
X171684692Y-76835000D01*
X156525000Y-68867350D02*
X164492650Y-76835000D01*
X174987500Y-76875000D02*
X174987500Y-76472500D01*
X165525000Y-57525000D02*
X165525000Y-60563400D01*
X157324999Y-61674999D02*
X156525000Y-60875000D01*
X180550000Y-66900000D02*
X181525000Y-66900000D01*
X164492650Y-76835000D02*
X170154308Y-76835000D01*
X164295800Y-48745800D02*
X161704200Y-48745800D01*
X164700000Y-51450000D02*
X164700000Y-49150000D01*
X181525000Y-66900000D02*
X181525000Y-70575000D01*
D28*
X164700000Y-45700000D02*
X161300000Y-42300000D01*
D27*
X156525000Y-60875000D02*
X156525000Y-68867350D01*
X183700000Y-77000000D02*
X175112500Y-77000000D01*
X161300000Y-49150000D02*
X161300000Y-51450000D01*
X161300000Y-53300000D02*
X165525000Y-57525000D01*
X187525000Y-74875000D02*
X185825000Y-74875000D01*
X174525000Y-60875000D02*
X180550000Y-66900000D01*
X185825000Y-74875000D02*
X183700000Y-77000000D01*
X164700000Y-49150000D02*
X164295800Y-48745800D01*
X161704200Y-48745800D02*
X161300000Y-49150000D01*
X161300000Y-42300000D02*
X161300000Y-51450000D01*
X175198500Y-76261500D02*
X175198500Y-73533000D01*
X174987500Y-76472500D02*
X175198500Y-76261500D01*
X175112500Y-77000000D02*
X174987500Y-76875000D01*
X170281308Y-76962000D02*
X171557692Y-76962000D01*
X164413401Y-61674999D02*
X157324999Y-61674999D01*
X187550000Y-60875000D02*
X181525000Y-66900000D01*
X187525000Y-74875000D02*
X192525000Y-74875000D01*
X170154308Y-76835000D02*
X170281308Y-76962000D01*
X161300000Y-51450000D02*
X161300000Y-53300000D01*
X171684692Y-76835000D02*
X174947500Y-76835000D01*
X181525000Y-70575000D02*
X185825000Y-74875000D01*
X174947500Y-76835000D02*
X174987500Y-76875000D01*
X190525000Y-60875000D02*
X187550000Y-60875000D01*
X165525000Y-60563400D02*
X164413401Y-61674999D01*
%TO.N,Net-(R2-Pad2)*%
D26*
X171987500Y-66875000D02*
X171987500Y-67440500D01*
X171987500Y-67440500D02*
X175159000Y-70612000D01*
%TO.N,/FB*%
X170000000Y-60750000D02*
X163000000Y-53750000D01*
X172059000Y-70612000D02*
X172059000Y-73318500D01*
X170712000Y-70612000D02*
X172059000Y-70612000D01*
X170000000Y-69900000D02*
X170000000Y-60750000D01*
X163000000Y-53750000D02*
X163000000Y-51450000D01*
X170000000Y-69900000D02*
X170712000Y-70612000D01*
X172059000Y-73318500D02*
X172273500Y-73533000D01*
%TO.N,/Vin*%
D25*
X154025000Y-56375000D02*
X154025000Y-60875000D01*
X157900000Y-52500000D02*
X154025000Y-56375000D01*
X157353000Y-73025000D02*
X163328000Y-79000000D01*
X186000000Y-79000000D02*
X188000000Y-77000000D01*
X154025000Y-73025000D02*
X157353000Y-73025000D01*
X188000000Y-77000000D02*
X192110000Y-77000000D01*
X163328000Y-79000000D02*
X186000000Y-79000000D01*
X154025000Y-60875000D02*
X154025000Y-73025000D01*
D26*
X192110000Y-77000000D02*
X192525000Y-77415000D01*
D27*
X157900000Y-51450000D02*
X157900000Y-52500000D01*
%TD*%
%TA.AperFunction,Conductor*%
%TO.N,GND*%
G36*
X197967539Y-33395185D02*
G01*
X198013294Y-33447989D01*
X198024500Y-33499500D01*
X198024500Y-80401500D01*
X198004815Y-80468539D01*
X197952011Y-80514294D01*
X197900500Y-80525500D01*
X186827672Y-80525500D01*
X186760633Y-80505815D01*
X186714878Y-80453011D01*
X186704934Y-80383853D01*
X186733959Y-80320297D01*
X186771376Y-80291016D01*
X186779413Y-80286919D01*
X186786434Y-80283343D01*
X186977510Y-80144517D01*
X188585208Y-78536819D01*
X188646531Y-78503334D01*
X188672889Y-78500500D01*
X191164021Y-78500500D01*
X191231060Y-78520185D01*
X191263286Y-78550187D01*
X191317454Y-78622546D01*
X191363643Y-78657123D01*
X191432664Y-78708793D01*
X191432671Y-78708797D01*
X191567517Y-78759091D01*
X191567516Y-78759091D01*
X191574444Y-78759835D01*
X191627127Y-78765500D01*
X193422872Y-78765499D01*
X193482483Y-78759091D01*
X193617331Y-78708796D01*
X193732546Y-78622546D01*
X193818796Y-78507331D01*
X193869091Y-78372483D01*
X193875500Y-78312873D01*
X193875499Y-76517128D01*
X193870299Y-76468757D01*
X193869091Y-76457516D01*
X193818797Y-76322671D01*
X193818793Y-76322664D01*
X193732547Y-76207455D01*
X193732544Y-76207452D01*
X193617335Y-76121206D01*
X193617328Y-76121202D01*
X193482482Y-76070908D01*
X193482483Y-76070908D01*
X193422883Y-76064501D01*
X193422881Y-76064500D01*
X193422873Y-76064500D01*
X193422865Y-76064500D01*
X193412309Y-76064500D01*
X193345270Y-76044815D01*
X193324628Y-76028181D01*
X192654408Y-75357962D01*
X192717993Y-75340925D01*
X192832007Y-75275099D01*
X192925099Y-75182007D01*
X192990925Y-75067993D01*
X193007962Y-75004408D01*
X193640270Y-75636717D01*
X193640270Y-75636716D01*
X193679622Y-75582554D01*
X193776095Y-75393217D01*
X193841757Y-75191130D01*
X193841757Y-75191127D01*
X193875000Y-74981246D01*
X193875000Y-74768753D01*
X193841757Y-74558872D01*
X193841757Y-74558869D01*
X193776095Y-74356782D01*
X193679624Y-74167449D01*
X193640270Y-74113282D01*
X193640269Y-74113282D01*
X193007962Y-74745590D01*
X192990925Y-74682007D01*
X192925099Y-74567993D01*
X192832007Y-74474901D01*
X192717993Y-74409075D01*
X192654409Y-74392037D01*
X193286716Y-73759728D01*
X193282976Y-73712207D01*
X193297340Y-73643830D01*
X193333705Y-73602161D01*
X193502510Y-73479517D01*
X195144517Y-71837510D01*
X195283343Y-71646434D01*
X195390568Y-71435992D01*
X195463553Y-71211368D01*
X195500500Y-70978097D01*
X195500500Y-59881902D01*
X195463553Y-59648631D01*
X195395861Y-59440299D01*
X195390568Y-59424008D01*
X195390566Y-59424005D01*
X195390566Y-59424003D01*
X195365852Y-59375500D01*
X195283342Y-59213565D01*
X195144517Y-59022490D01*
X193352510Y-57230483D01*
X193161434Y-57091657D01*
X193105213Y-57063011D01*
X192950996Y-56984433D01*
X192726368Y-56911446D01*
X192493097Y-56874500D01*
X192493092Y-56874500D01*
X190697889Y-56874500D01*
X190630850Y-56854815D01*
X190610208Y-56838181D01*
X187502511Y-53730484D01*
X187395447Y-53652697D01*
X187311434Y-53591657D01*
X187100996Y-53484433D01*
X186876368Y-53411446D01*
X186643097Y-53374500D01*
X186643092Y-53374500D01*
X183149500Y-53374500D01*
X183082461Y-53354815D01*
X183036706Y-53302011D01*
X183025500Y-53250500D01*
X183025500Y-52679262D01*
X183045185Y-52612223D01*
X183061819Y-52591581D01*
X183258314Y-52395085D01*
X183258319Y-52395080D01*
X183441900Y-52155832D01*
X183592683Y-51894668D01*
X183708087Y-51616058D01*
X183786138Y-51324768D01*
X183825500Y-51025783D01*
X183825500Y-50724217D01*
X183786138Y-50425232D01*
X183708087Y-50133942D01*
X183592683Y-49855332D01*
X183441900Y-49594168D01*
X183258319Y-49354920D01*
X183258314Y-49354914D01*
X183045085Y-49141685D01*
X183045078Y-49141679D01*
X182805831Y-48958099D01*
X182544671Y-48807318D01*
X182544661Y-48807314D01*
X182266060Y-48691913D01*
X181974766Y-48613861D01*
X181675793Y-48574501D01*
X181675788Y-48574500D01*
X181675783Y-48574500D01*
X181374217Y-48574500D01*
X181374211Y-48574500D01*
X181374206Y-48574501D01*
X181075233Y-48613861D01*
X180783939Y-48691913D01*
X180505338Y-48807314D01*
X180505328Y-48807318D01*
X180244168Y-48958099D01*
X180004921Y-49141679D01*
X180004914Y-49141685D01*
X179791685Y-49354914D01*
X179791679Y-49354921D01*
X179608099Y-49594168D01*
X179457318Y-49855328D01*
X179457314Y-49855338D01*
X179341913Y-50133939D01*
X179263861Y-50425233D01*
X179224501Y-50724206D01*
X179224500Y-50724223D01*
X179224500Y-51025776D01*
X179224501Y-51025793D01*
X179263861Y-51324766D01*
X179341913Y-51616060D01*
X179457314Y-51894661D01*
X179457318Y-51894671D01*
X179608099Y-52155831D01*
X179791679Y-52395078D01*
X179791685Y-52395085D01*
X179988181Y-52591581D01*
X180021666Y-52652904D01*
X180024500Y-52679262D01*
X180024500Y-53250500D01*
X180004815Y-53317539D01*
X179952011Y-53363294D01*
X179900500Y-53374500D01*
X177906903Y-53374500D01*
X177673631Y-53411446D01*
X177558168Y-53448963D01*
X177529852Y-53458164D01*
X177449009Y-53484430D01*
X177449006Y-53484431D01*
X177238565Y-53591657D01*
X177047488Y-53730484D01*
X177047487Y-53730485D01*
X173939792Y-56838181D01*
X173878469Y-56871666D01*
X173852111Y-56874500D01*
X173154903Y-56874500D01*
X172921631Y-56911446D01*
X172915525Y-56913431D01*
X172877207Y-56919500D01*
X171839903Y-56919500D01*
X171606631Y-56956446D01*
X171382003Y-57029433D01*
X171171566Y-57136657D01*
X171062550Y-57215862D01*
X170980490Y-57275483D01*
X170980488Y-57275485D01*
X170980487Y-57275485D01*
X170813485Y-57442487D01*
X170813485Y-57442488D01*
X170813483Y-57442490D01*
X170753862Y-57524550D01*
X170674657Y-57633566D01*
X170567433Y-57844003D01*
X170494446Y-58068631D01*
X170457500Y-58301902D01*
X170457500Y-59493218D01*
X170437815Y-59560257D01*
X170385011Y-59606012D01*
X170315853Y-59615956D01*
X170252297Y-59586931D01*
X170245819Y-59580899D01*
X165108371Y-54443451D01*
X165074886Y-54382128D01*
X165079870Y-54312436D01*
X165121742Y-54256503D01*
X165157048Y-54238064D01*
X165319119Y-54184358D01*
X165319124Y-54184356D01*
X165468345Y-54092315D01*
X165592315Y-53968345D01*
X165684356Y-53819124D01*
X165684358Y-53819119D01*
X165739505Y-53652697D01*
X165739506Y-53652690D01*
X165749999Y-53549986D01*
X165750000Y-53549973D01*
X165750000Y-51700000D01*
X164824000Y-51700000D01*
X164756961Y-51680315D01*
X164711206Y-51627511D01*
X164700000Y-51576000D01*
X164700000Y-51450000D01*
X164574000Y-51450000D01*
X164506961Y-51430315D01*
X164461206Y-51377511D01*
X164450000Y-51326000D01*
X164450000Y-51200000D01*
X164950000Y-51200000D01*
X165749999Y-51200000D01*
X165749999Y-49350028D01*
X165749998Y-49350013D01*
X165739505Y-49247302D01*
X165684358Y-49080880D01*
X165684356Y-49080875D01*
X165592315Y-48931654D01*
X165468345Y-48807684D01*
X165319124Y-48715643D01*
X165319119Y-48715641D01*
X165152697Y-48660494D01*
X165152690Y-48660493D01*
X165049986Y-48650000D01*
X164950000Y-48650000D01*
X164950000Y-51200000D01*
X164450000Y-51200000D01*
X164450000Y-48649999D01*
X164350028Y-48650000D01*
X164350012Y-48650001D01*
X164247302Y-48660494D01*
X164080880Y-48715641D01*
X164080875Y-48715643D01*
X163931649Y-48807687D01*
X163927305Y-48811122D01*
X163862507Y-48837255D01*
X163793866Y-48824207D01*
X163773497Y-48811116D01*
X163768660Y-48807292D01*
X163768656Y-48807288D01*
X163619334Y-48715186D01*
X163452797Y-48660001D01*
X163452795Y-48660000D01*
X163350010Y-48649500D01*
X162649998Y-48649500D01*
X162649980Y-48649501D01*
X162547203Y-48660000D01*
X162547200Y-48660001D01*
X162380668Y-48715185D01*
X162380663Y-48715187D01*
X162276157Y-48779646D01*
X162231344Y-48807288D01*
X162231343Y-48807288D01*
X162231330Y-48807297D01*
X162226487Y-48811126D01*
X162161687Y-48837256D01*
X162093047Y-48824204D01*
X162072683Y-48811114D01*
X162068346Y-48807684D01*
X161919124Y-48715643D01*
X161919119Y-48715641D01*
X161752697Y-48660494D01*
X161752690Y-48660493D01*
X161649986Y-48650000D01*
X161550000Y-48650000D01*
X161550000Y-54249999D01*
X161649972Y-54249999D01*
X161649986Y-54249998D01*
X161752697Y-54239505D01*
X161919119Y-54184358D01*
X161919125Y-54184355D01*
X161937031Y-54173311D01*
X162004423Y-54154870D01*
X162071087Y-54175791D01*
X162111489Y-54220399D01*
X162113369Y-54223916D01*
X162222860Y-54387781D01*
X162222863Y-54387785D01*
X162366537Y-54531459D01*
X162366559Y-54531479D01*
X168963181Y-61128101D01*
X168996666Y-61189424D01*
X168999500Y-61215782D01*
X168999500Y-69998544D01*
X169027257Y-70138086D01*
X169037947Y-70191829D01*
X169037949Y-70191837D01*
X169113364Y-70373907D01*
X169113371Y-70373920D01*
X169222860Y-70537781D01*
X169222863Y-70537785D01*
X169366537Y-70681459D01*
X169366559Y-70681479D01*
X169931735Y-71246655D01*
X169931764Y-71246686D01*
X170074214Y-71389136D01*
X170074218Y-71389139D01*
X170238079Y-71498628D01*
X170238092Y-71498635D01*
X170300537Y-71524500D01*
X170358638Y-71548566D01*
X170420164Y-71574051D01*
X170516812Y-71593275D01*
X170591350Y-71608102D01*
X170613458Y-71612500D01*
X170613459Y-71612500D01*
X170613460Y-71612500D01*
X170810540Y-71612500D01*
X170934500Y-71612500D01*
X171001539Y-71632185D01*
X171047294Y-71684989D01*
X171058500Y-71736500D01*
X171058500Y-73417044D01*
X171095089Y-73600989D01*
X171096948Y-73610334D01*
X171172366Y-73792410D01*
X171172368Y-73792414D01*
X171189603Y-73818208D01*
X171210480Y-73884883D01*
X171210500Y-73887097D01*
X171210500Y-74208000D01*
X171210501Y-74208019D01*
X171221000Y-74310796D01*
X171221001Y-74310799D01*
X171268022Y-74452696D01*
X171276186Y-74477334D01*
X171368288Y-74626656D01*
X171492344Y-74750712D01*
X171641666Y-74842814D01*
X171808203Y-74897999D01*
X171910991Y-74908500D01*
X172636008Y-74908499D01*
X172636016Y-74908498D01*
X172636019Y-74908498D01*
X172692302Y-74902748D01*
X172738797Y-74897999D01*
X172905334Y-74842814D01*
X173054656Y-74750712D01*
X173178712Y-74626656D01*
X173270814Y-74477334D01*
X173325999Y-74310797D01*
X173336500Y-74208009D01*
X173336500Y-74207986D01*
X174136001Y-74207986D01*
X174146494Y-74310697D01*
X174201641Y-74477119D01*
X174201643Y-74477124D01*
X174293684Y-74626345D01*
X174417654Y-74750315D01*
X174566875Y-74842356D01*
X174566880Y-74842358D01*
X174733302Y-74897505D01*
X174733309Y-74897506D01*
X174836019Y-74907999D01*
X174948499Y-74907999D01*
X175448500Y-74907999D01*
X175560972Y-74907999D01*
X175560986Y-74907998D01*
X175663697Y-74897505D01*
X175830119Y-74842358D01*
X175830124Y-74842356D01*
X175979345Y-74750315D01*
X176103315Y-74626345D01*
X176195356Y-74477124D01*
X176195358Y-74477119D01*
X176250505Y-74310697D01*
X176250506Y-74310690D01*
X176260999Y-74207986D01*
X176261000Y-74207973D01*
X176261000Y-73783000D01*
X175448500Y-73783000D01*
X175448500Y-74907999D01*
X174948499Y-74907999D01*
X174948500Y-74907998D01*
X174948500Y-73783000D01*
X174136001Y-73783000D01*
X174136001Y-74207986D01*
X173336500Y-74207986D01*
X173336499Y-73524182D01*
X173336499Y-72857998D01*
X173336498Y-72857981D01*
X173325999Y-72755203D01*
X173325998Y-72755200D01*
X173301526Y-72681349D01*
X173270814Y-72588666D01*
X173178712Y-72439344D01*
X173095819Y-72356451D01*
X173062334Y-72295128D01*
X173059500Y-72268770D01*
X173059500Y-71728195D01*
X173077960Y-71663099D01*
X173143814Y-71556334D01*
X173198999Y-71389797D01*
X173209500Y-71287009D01*
X173209499Y-70376780D01*
X173229183Y-70309742D01*
X173281987Y-70263987D01*
X173351146Y-70254043D01*
X173414702Y-70283068D01*
X173421176Y-70289096D01*
X173741511Y-70609432D01*
X173972181Y-70840102D01*
X174005666Y-70901425D01*
X174008500Y-70927783D01*
X174008500Y-71287001D01*
X174008501Y-71287019D01*
X174019000Y-71389796D01*
X174019001Y-71389799D01*
X174074185Y-71556331D01*
X174074187Y-71556336D01*
X174085114Y-71574051D01*
X174166288Y-71705656D01*
X174290344Y-71829712D01*
X174439666Y-71921814D01*
X174603489Y-71976099D01*
X174660933Y-72015870D01*
X174687756Y-72080386D01*
X174675441Y-72149162D01*
X174627899Y-72200362D01*
X174603491Y-72211509D01*
X174566882Y-72223640D01*
X174566875Y-72223643D01*
X174417654Y-72315684D01*
X174293684Y-72439654D01*
X174201643Y-72588875D01*
X174201641Y-72588880D01*
X174146494Y-72755302D01*
X174146493Y-72755309D01*
X174136000Y-72858013D01*
X174136000Y-73283000D01*
X176260999Y-73283000D01*
X176260999Y-72858028D01*
X176260998Y-72858013D01*
X176250505Y-72755302D01*
X176195358Y-72588880D01*
X176195356Y-72588875D01*
X176103315Y-72439654D01*
X175979345Y-72315684D01*
X175830124Y-72223643D01*
X175830119Y-72223641D01*
X175754012Y-72198422D01*
X175696567Y-72158649D01*
X175669744Y-72094133D01*
X175682059Y-72025358D01*
X175729602Y-71974158D01*
X175754009Y-71963011D01*
X175878334Y-71921814D01*
X175917458Y-71897682D01*
X181700000Y-71897682D01*
X181700000Y-72102317D01*
X181732009Y-72304417D01*
X181795244Y-72499031D01*
X181888141Y-72681350D01*
X181888147Y-72681359D01*
X181920523Y-72725921D01*
X181920524Y-72725922D01*
X182600000Y-72046446D01*
X182600000Y-72052661D01*
X182627259Y-72154394D01*
X182679920Y-72245606D01*
X182754394Y-72320080D01*
X182845606Y-72372741D01*
X182947339Y-72400000D01*
X182953553Y-72400000D01*
X182274076Y-73079474D01*
X182318650Y-73111859D01*
X182500968Y-73204755D01*
X182695582Y-73267990D01*
X182897683Y-73300000D01*
X183102317Y-73300000D01*
X183304417Y-73267990D01*
X183499031Y-73204755D01*
X183681349Y-73111859D01*
X183725921Y-73079474D01*
X183046447Y-72400000D01*
X183052661Y-72400000D01*
X183154394Y-72372741D01*
X183245606Y-72320080D01*
X183320080Y-72245606D01*
X183372741Y-72154394D01*
X183400000Y-72052661D01*
X183400000Y-72046447D01*
X184079474Y-72725921D01*
X184111859Y-72681349D01*
X184204755Y-72499031D01*
X184267990Y-72304417D01*
X184300000Y-72102317D01*
X184300000Y-71897682D01*
X184267990Y-71695582D01*
X184204755Y-71500968D01*
X184111859Y-71318650D01*
X184079474Y-71274077D01*
X184079474Y-71274076D01*
X183400000Y-71953551D01*
X183400000Y-71947339D01*
X183372741Y-71845606D01*
X183320080Y-71754394D01*
X183245606Y-71679920D01*
X183154394Y-71627259D01*
X183052661Y-71600000D01*
X183046446Y-71600000D01*
X183725922Y-70920524D01*
X183725921Y-70920523D01*
X183681359Y-70888147D01*
X183681350Y-70888141D01*
X183499031Y-70795244D01*
X183304417Y-70732009D01*
X183102317Y-70700000D01*
X182897683Y-70700000D01*
X182695582Y-70732009D01*
X182500968Y-70795244D01*
X182318644Y-70888143D01*
X182274077Y-70920523D01*
X182274077Y-70920524D01*
X182953554Y-71600000D01*
X182947339Y-71600000D01*
X182845606Y-71627259D01*
X182754394Y-71679920D01*
X182679920Y-71754394D01*
X182627259Y-71845606D01*
X182600000Y-71947339D01*
X182600000Y-71953553D01*
X181920524Y-71274077D01*
X181920523Y-71274077D01*
X181888143Y-71318644D01*
X181795244Y-71500968D01*
X181732009Y-71695582D01*
X181700000Y-71897682D01*
X175917458Y-71897682D01*
X176027656Y-71829712D01*
X176151712Y-71705656D01*
X176243814Y-71556334D01*
X176298999Y-71389797D01*
X176309500Y-71287009D01*
X176309499Y-70609433D01*
X176309499Y-69936998D01*
X176309498Y-69936981D01*
X176298999Y-69834203D01*
X176298998Y-69834200D01*
X176288149Y-69801460D01*
X176243814Y-69667666D01*
X176151712Y-69518344D01*
X176027656Y-69394288D01*
X175878334Y-69302186D01*
X175711797Y-69247001D01*
X175711795Y-69247000D01*
X175609016Y-69236500D01*
X175609009Y-69236500D01*
X175249783Y-69236500D01*
X175182744Y-69216815D01*
X175162102Y-69200181D01*
X174983236Y-69021315D01*
X174456005Y-68494084D01*
X174422521Y-68432763D01*
X174427505Y-68363072D01*
X174469376Y-68307138D01*
X174534841Y-68282721D01*
X174582004Y-68288473D01*
X174639447Y-68307138D01*
X174736131Y-68338553D01*
X174969403Y-68375500D01*
X174969408Y-68375500D01*
X175205597Y-68375500D01*
X175438868Y-68338553D01*
X175663492Y-68265568D01*
X175873933Y-68158343D01*
X176065010Y-68019517D01*
X176232017Y-67852510D01*
X176370843Y-67661433D01*
X176478068Y-67450992D01*
X176535256Y-67274986D01*
X180325001Y-67274986D01*
X180335494Y-67377697D01*
X180390641Y-67544119D01*
X180390643Y-67544124D01*
X180482684Y-67693345D01*
X180606654Y-67817315D01*
X180755875Y-67909356D01*
X180755880Y-67909358D01*
X180922302Y-67964505D01*
X180922309Y-67964506D01*
X181025019Y-67974999D01*
X181274999Y-67974999D01*
X181775000Y-67974999D01*
X182024972Y-67974999D01*
X182024986Y-67974998D01*
X182127697Y-67964505D01*
X182294119Y-67909358D01*
X182294124Y-67909356D01*
X182443345Y-67817315D01*
X182567315Y-67693345D01*
X182659356Y-67544124D01*
X182659358Y-67544119D01*
X182714505Y-67377697D01*
X182714506Y-67377690D01*
X182724999Y-67274986D01*
X182725000Y-67274973D01*
X182725000Y-67150000D01*
X181775000Y-67150000D01*
X181775000Y-67974999D01*
X181274999Y-67974999D01*
X181275000Y-67974998D01*
X181275000Y-67150000D01*
X180325001Y-67150000D01*
X180325001Y-67274986D01*
X176535256Y-67274986D01*
X176551053Y-67226368D01*
X176559018Y-67176079D01*
X176574356Y-67079240D01*
X176588000Y-66993097D01*
X176588000Y-64225402D01*
X176551053Y-63992131D01*
X176478066Y-63767503D01*
X176439166Y-63691159D01*
X176370843Y-63557067D01*
X176353106Y-63532655D01*
X176232023Y-63365996D01*
X176232019Y-63365991D01*
X175729512Y-62863485D01*
X175729511Y-62863484D01*
X175538434Y-62724657D01*
X175327996Y-62617433D01*
X175103368Y-62544446D01*
X174870097Y-62507500D01*
X174870092Y-62507500D01*
X173582500Y-62507500D01*
X173515461Y-62487815D01*
X173469706Y-62435011D01*
X173458500Y-62383500D01*
X173458500Y-61639308D01*
X173478185Y-61572269D01*
X173494819Y-61551627D01*
X174125000Y-60921446D01*
X174125000Y-60927661D01*
X174152259Y-61029394D01*
X174204920Y-61120606D01*
X174279394Y-61195080D01*
X174370606Y-61247741D01*
X174472339Y-61275000D01*
X174478553Y-61275000D01*
X173799076Y-61954474D01*
X173843650Y-61986859D01*
X174025968Y-62079755D01*
X174220582Y-62142990D01*
X174422683Y-62175000D01*
X174627317Y-62175000D01*
X174829417Y-62142990D01*
X175024031Y-62079755D01*
X175206349Y-61986859D01*
X175250921Y-61954474D01*
X174571447Y-61275000D01*
X174577661Y-61275000D01*
X174679394Y-61247741D01*
X174770606Y-61195080D01*
X174845080Y-61120606D01*
X174897741Y-61029394D01*
X174925000Y-60927661D01*
X174925000Y-60921447D01*
X175604474Y-61600921D01*
X175636859Y-61556349D01*
X175729755Y-61374031D01*
X175792990Y-61179417D01*
X175825000Y-60977317D01*
X175825000Y-60772682D01*
X175792990Y-60570582D01*
X175729755Y-60375968D01*
X175636859Y-60193650D01*
X175604474Y-60149077D01*
X175604474Y-60149076D01*
X174925000Y-60828551D01*
X174925000Y-60822339D01*
X174897741Y-60720606D01*
X174845080Y-60629394D01*
X174770606Y-60554920D01*
X174679394Y-60502259D01*
X174577661Y-60475000D01*
X174571446Y-60475000D01*
X175250921Y-59795525D01*
X175249368Y-59775783D01*
X175263732Y-59707406D01*
X175308201Y-59660324D01*
X175311422Y-59658349D01*
X175311434Y-59658343D01*
X175349132Y-59630952D01*
X175383017Y-59613564D01*
X175394331Y-59609815D01*
X175394331Y-59609814D01*
X175394334Y-59609814D01*
X175543656Y-59517712D01*
X175667712Y-59393656D01*
X175723430Y-59303319D01*
X175741280Y-59280745D01*
X176584543Y-58437483D01*
X180149500Y-58437483D01*
X180149500Y-59337501D01*
X180149501Y-59337519D01*
X180160000Y-59440296D01*
X180160001Y-59440299D01*
X180215185Y-59606831D01*
X180215187Y-59606836D01*
X180307289Y-59756157D01*
X180431345Y-59880213D01*
X180446939Y-59889831D01*
X180461391Y-59898745D01*
X180465594Y-59901337D01*
X180512320Y-59953284D01*
X180524500Y-60006877D01*
X180524500Y-63962770D01*
X180504815Y-64029809D01*
X180488181Y-64050451D01*
X180482289Y-64056342D01*
X180390187Y-64205663D01*
X180390186Y-64205666D01*
X180335001Y-64372203D01*
X180335001Y-64372204D01*
X180335000Y-64372204D01*
X180324500Y-64474983D01*
X180324500Y-65225001D01*
X180324501Y-65225019D01*
X180335000Y-65327796D01*
X180335001Y-65327799D01*
X180390185Y-65494331D01*
X180390187Y-65494336D01*
X180399849Y-65510001D01*
X180482288Y-65643656D01*
X180606344Y-65767712D01*
X180609628Y-65769737D01*
X180609653Y-65769753D01*
X180611445Y-65771746D01*
X180612011Y-65772193D01*
X180611934Y-65772289D01*
X180656379Y-65821699D01*
X180667603Y-65890661D01*
X180639761Y-65954744D01*
X180609665Y-65980826D01*
X180606660Y-65982679D01*
X180606655Y-65982683D01*
X180482684Y-66106654D01*
X180390643Y-66255875D01*
X180390641Y-66255880D01*
X180335494Y-66422302D01*
X180335493Y-66422309D01*
X180325000Y-66525013D01*
X180325000Y-66650000D01*
X182724999Y-66650000D01*
X182724999Y-66525028D01*
X182724998Y-66525013D01*
X182714505Y-66422302D01*
X182659358Y-66255880D01*
X182659356Y-66255875D01*
X182567315Y-66106654D01*
X182443344Y-65982683D01*
X182443341Y-65982681D01*
X182440339Y-65980829D01*
X182438713Y-65979021D01*
X182437677Y-65978202D01*
X182437817Y-65978024D01*
X182393617Y-65928880D01*
X182382397Y-65859917D01*
X182410243Y-65795836D01*
X182440344Y-65769754D01*
X182443656Y-65767712D01*
X182567712Y-65643656D01*
X182659814Y-65494334D01*
X182714999Y-65327797D01*
X182725500Y-65225009D01*
X182725499Y-64474992D01*
X182714999Y-64372203D01*
X182659814Y-64205666D01*
X182567712Y-64056344D01*
X182561819Y-64050451D01*
X182528334Y-63989128D01*
X182525500Y-63962770D01*
X182525500Y-60006877D01*
X182545185Y-59939838D01*
X182584406Y-59901337D01*
X182618656Y-59880212D01*
X182742712Y-59756156D01*
X182834814Y-59606834D01*
X182889999Y-59440297D01*
X182900500Y-59337509D01*
X182900499Y-58437492D01*
X182889999Y-58334703D01*
X182834814Y-58168166D01*
X182742712Y-58018844D01*
X182618656Y-57894788D01*
X182469334Y-57802686D01*
X182302797Y-57747501D01*
X182302795Y-57747500D01*
X182200010Y-57737000D01*
X180849998Y-57737000D01*
X180849981Y-57737001D01*
X180747203Y-57747500D01*
X180747200Y-57747501D01*
X180580668Y-57802685D01*
X180580663Y-57802687D01*
X180431342Y-57894789D01*
X180307289Y-58018842D01*
X180215187Y-58168163D01*
X180215186Y-58168166D01*
X180160001Y-58334703D01*
X180160001Y-58334704D01*
X180160000Y-58334704D01*
X180149500Y-58437483D01*
X176584543Y-58437483D01*
X178610208Y-56411819D01*
X178671531Y-56378334D01*
X178697889Y-56375500D01*
X180082125Y-56375500D01*
X180149164Y-56395185D01*
X180194919Y-56447989D01*
X180199829Y-56460490D01*
X180215186Y-56506834D01*
X180307288Y-56656156D01*
X180431344Y-56780212D01*
X180580666Y-56872314D01*
X180747203Y-56927499D01*
X180849991Y-56938000D01*
X182200008Y-56937999D01*
X182302797Y-56927499D01*
X182469334Y-56872314D01*
X182618656Y-56780212D01*
X182742712Y-56656156D01*
X182834814Y-56506834D01*
X182850169Y-56460494D01*
X182889942Y-56403050D01*
X182954459Y-56376228D01*
X182967875Y-56375500D01*
X185852111Y-56375500D01*
X185919150Y-56395185D01*
X185939792Y-56411819D01*
X189047490Y-59519517D01*
X189238566Y-59658343D01*
X189334858Y-59707406D01*
X189449006Y-59765568D01*
X189449009Y-59765569D01*
X189532142Y-59792580D01*
X189673631Y-59838552D01*
X189834021Y-59863955D01*
X189897150Y-59893881D01*
X189902299Y-59898745D01*
X190478554Y-60475000D01*
X190472339Y-60475000D01*
X190370606Y-60502259D01*
X190279394Y-60554920D01*
X190204920Y-60629394D01*
X190152259Y-60720606D01*
X190125000Y-60822339D01*
X190125000Y-60828553D01*
X189445524Y-60149077D01*
X189445523Y-60149077D01*
X189413143Y-60193644D01*
X189320244Y-60375968D01*
X189257009Y-60570582D01*
X189225000Y-60772682D01*
X189225000Y-60977317D01*
X189257009Y-61179417D01*
X189320244Y-61374031D01*
X189413141Y-61556350D01*
X189413147Y-61556359D01*
X189445523Y-61600921D01*
X189445524Y-61600922D01*
X190125000Y-60921446D01*
X190125000Y-60927661D01*
X190152259Y-61029394D01*
X190204920Y-61120606D01*
X190279394Y-61195080D01*
X190370606Y-61247741D01*
X190472339Y-61275000D01*
X190478553Y-61275000D01*
X189799076Y-61954474D01*
X189843650Y-61986859D01*
X190025968Y-62079755D01*
X190220582Y-62142990D01*
X190422683Y-62175000D01*
X190627317Y-62175000D01*
X190829417Y-62142990D01*
X191024031Y-62079755D01*
X191206349Y-61986859D01*
X191250921Y-61954474D01*
X190571447Y-61275000D01*
X190577661Y-61275000D01*
X190679394Y-61247741D01*
X190770606Y-61195080D01*
X190845080Y-61120606D01*
X190897741Y-61029394D01*
X190925000Y-60927661D01*
X190925000Y-60921446D01*
X191604474Y-61600921D01*
X191636859Y-61556349D01*
X191729755Y-61374031D01*
X191792990Y-61179417D01*
X191825000Y-60977317D01*
X191825000Y-60772682D01*
X191792990Y-60570582D01*
X191729755Y-60375968D01*
X191636859Y-60193650D01*
X191548755Y-60072386D01*
X191525275Y-60006580D01*
X191541100Y-59938526D01*
X191591206Y-59889831D01*
X191649073Y-59875500D01*
X191702111Y-59875500D01*
X191769150Y-59895185D01*
X191789792Y-59911819D01*
X192463181Y-60585208D01*
X192496666Y-60646531D01*
X192499500Y-60672889D01*
X192499500Y-70187110D01*
X192479815Y-70254149D01*
X192463181Y-70274791D01*
X192266688Y-70471283D01*
X192205365Y-70504768D01*
X192159609Y-70506075D01*
X192118096Y-70499500D01*
X192118092Y-70499500D01*
X187881908Y-70499500D01*
X187881903Y-70499500D01*
X187648631Y-70536446D01*
X187424003Y-70609433D01*
X187213566Y-70716657D01*
X187105402Y-70795244D01*
X187022490Y-70855483D01*
X187022488Y-70855485D01*
X187022487Y-70855485D01*
X186855485Y-71022487D01*
X186855485Y-71022488D01*
X186855483Y-71022490D01*
X186795862Y-71104550D01*
X186716657Y-71213566D01*
X186609433Y-71424003D01*
X186536446Y-71648631D01*
X186499500Y-71881902D01*
X186499500Y-72118097D01*
X186536446Y-72351368D01*
X186609433Y-72575996D01*
X186716657Y-72786433D01*
X186855483Y-72977510D01*
X187022490Y-73144517D01*
X187213567Y-73283343D01*
X187312991Y-73334002D01*
X187424003Y-73390566D01*
X187424005Y-73390566D01*
X187424008Y-73390568D01*
X187544412Y-73429689D01*
X187648631Y-73463553D01*
X187881903Y-73500500D01*
X187881908Y-73500500D01*
X191536079Y-73500500D01*
X191603118Y-73520185D01*
X191608964Y-73524182D01*
X191716289Y-73602158D01*
X191758955Y-73657488D01*
X191767022Y-73712205D01*
X191763281Y-73759727D01*
X192395591Y-74392037D01*
X192332007Y-74409075D01*
X192217993Y-74474901D01*
X192124901Y-74567993D01*
X192059075Y-74682007D01*
X192042037Y-74745591D01*
X191409728Y-74113282D01*
X191409727Y-74113282D01*
X191370380Y-74167439D01*
X191273904Y-74356782D01*
X191208242Y-74558869D01*
X191208242Y-74558872D01*
X191175000Y-74768753D01*
X191175000Y-74981246D01*
X191208242Y-75191127D01*
X191208242Y-75191130D01*
X191255698Y-75337182D01*
X191257693Y-75407023D01*
X191221613Y-75466856D01*
X191158912Y-75497684D01*
X191137767Y-75499500D01*
X187881903Y-75499500D01*
X187648634Y-75536446D01*
X187424005Y-75609433D01*
X187213565Y-75716657D01*
X187022488Y-75855484D01*
X187022487Y-75855485D01*
X185414792Y-77463181D01*
X185353469Y-77496666D01*
X185327111Y-77499500D01*
X184375276Y-77499500D01*
X184308237Y-77479815D01*
X184262482Y-77427011D01*
X184252538Y-77357853D01*
X184257345Y-77337183D01*
X184267988Y-77304425D01*
X184267989Y-77304418D01*
X184300000Y-77102317D01*
X184300000Y-76897682D01*
X184267990Y-76695582D01*
X184204755Y-76500968D01*
X184111859Y-76318650D01*
X184079474Y-76274077D01*
X184079474Y-76274076D01*
X183400000Y-76953551D01*
X183400000Y-76947339D01*
X183372741Y-76845606D01*
X183320080Y-76754394D01*
X183245606Y-76679920D01*
X183154394Y-76627259D01*
X183052661Y-76600000D01*
X183046446Y-76600000D01*
X183725922Y-75920524D01*
X183725921Y-75920523D01*
X183681359Y-75888147D01*
X183681350Y-75888141D01*
X183499031Y-75795244D01*
X183304417Y-75732009D01*
X183102317Y-75700000D01*
X182897683Y-75700000D01*
X182695582Y-75732009D01*
X182500968Y-75795244D01*
X182318644Y-75888143D01*
X182274077Y-75920523D01*
X182274077Y-75920524D01*
X182953554Y-76600000D01*
X182947339Y-76600000D01*
X182845606Y-76627259D01*
X182754394Y-76679920D01*
X182679920Y-76754394D01*
X182627259Y-76845606D01*
X182600000Y-76947339D01*
X182600000Y-76953553D01*
X181920524Y-76274077D01*
X181920523Y-76274077D01*
X181888143Y-76318644D01*
X181795244Y-76500968D01*
X181732009Y-76695582D01*
X181700000Y-76897682D01*
X181700000Y-77102317D01*
X181732010Y-77304418D01*
X181732011Y-77304425D01*
X181742655Y-77337183D01*
X181744650Y-77407024D01*
X181708569Y-77466857D01*
X181645868Y-77497684D01*
X181624724Y-77499500D01*
X164000889Y-77499500D01*
X163933850Y-77479815D01*
X163913208Y-77463181D01*
X163444797Y-76994770D01*
X163411312Y-76933447D01*
X163416296Y-76863755D01*
X163458168Y-76807822D01*
X163494161Y-76789158D01*
X163586812Y-76759054D01*
X163801213Y-76649810D01*
X163889651Y-76585555D01*
X163889652Y-76585555D01*
X163342929Y-76038832D01*
X163366958Y-76028880D01*
X163493842Y-75944098D01*
X163601748Y-75836192D01*
X163686530Y-75709308D01*
X163696482Y-75685279D01*
X164243205Y-76232002D01*
X164243205Y-76232001D01*
X164307460Y-76143563D01*
X164416704Y-75929163D01*
X164491057Y-75700322D01*
X164528700Y-75462660D01*
X164528700Y-75222039D01*
X164491057Y-74984377D01*
X164416703Y-74755535D01*
X164307458Y-74541133D01*
X164243206Y-74452697D01*
X164243205Y-74452696D01*
X163696482Y-74999419D01*
X163686530Y-74975392D01*
X163601748Y-74848508D01*
X163493842Y-74740602D01*
X163366958Y-74655820D01*
X163342928Y-74645866D01*
X163889651Y-74099143D01*
X163889651Y-74099142D01*
X163801216Y-74034891D01*
X163586814Y-73925646D01*
X163357972Y-73851292D01*
X163120310Y-73813650D01*
X162879690Y-73813650D01*
X162642027Y-73851292D01*
X162413185Y-73925646D01*
X162198788Y-74034888D01*
X162198786Y-74034889D01*
X162110347Y-74099142D01*
X162110347Y-74099143D01*
X162657070Y-74645866D01*
X162633042Y-74655820D01*
X162506158Y-74740602D01*
X162398252Y-74848508D01*
X162313470Y-74975392D01*
X162303516Y-74999420D01*
X161756793Y-74452697D01*
X161756792Y-74452697D01*
X161692539Y-74541136D01*
X161692538Y-74541138D01*
X161583297Y-74755534D01*
X161553191Y-74848190D01*
X161513753Y-74905865D01*
X161449394Y-74933063D01*
X161380548Y-74921148D01*
X161347579Y-74897552D01*
X158330511Y-71880484D01*
X158271364Y-71837511D01*
X158139434Y-71741657D01*
X158068778Y-71705656D01*
X157928996Y-71634433D01*
X157704368Y-71561446D01*
X157471097Y-71524500D01*
X157471092Y-71524500D01*
X155649500Y-71524500D01*
X155582461Y-71504815D01*
X155536706Y-71452011D01*
X155525500Y-71400500D01*
X155525500Y-61999073D01*
X155545185Y-61932034D01*
X155597989Y-61886279D01*
X155667147Y-61876335D01*
X155722386Y-61898755D01*
X155843650Y-61986859D01*
X156025968Y-62079755D01*
X156220582Y-62142990D01*
X156422683Y-62175000D01*
X156627317Y-62175000D01*
X156829417Y-62142990D01*
X157024031Y-62079755D01*
X157206349Y-61986859D01*
X157250921Y-61954474D01*
X156571447Y-61275000D01*
X156577661Y-61275000D01*
X156679394Y-61247741D01*
X156770606Y-61195080D01*
X156845080Y-61120606D01*
X156897741Y-61029394D01*
X156925000Y-60927661D01*
X156925000Y-60921447D01*
X157604474Y-61600921D01*
X157636859Y-61556349D01*
X157729755Y-61374031D01*
X157792990Y-61179417D01*
X157825000Y-60977317D01*
X157825000Y-60772682D01*
X157792990Y-60570582D01*
X157729755Y-60375968D01*
X157636859Y-60193650D01*
X157604474Y-60149077D01*
X157604474Y-60149076D01*
X156925000Y-60828551D01*
X156925000Y-60822339D01*
X156897741Y-60720606D01*
X156845080Y-60629394D01*
X156770606Y-60554920D01*
X156679394Y-60502259D01*
X156577661Y-60475000D01*
X156571446Y-60475000D01*
X157250922Y-59795524D01*
X157250921Y-59795523D01*
X157206359Y-59763147D01*
X157206350Y-59763141D01*
X157024031Y-59670244D01*
X156829417Y-59607009D01*
X156627317Y-59575000D01*
X156422683Y-59575000D01*
X156220582Y-59607009D01*
X156025968Y-59670244D01*
X155843647Y-59763142D01*
X155722385Y-59851244D01*
X155656579Y-59874724D01*
X155588525Y-59858898D01*
X155539830Y-59808793D01*
X155525500Y-59750926D01*
X155525500Y-57047889D01*
X155545185Y-56980850D01*
X155561819Y-56960208D01*
X156860594Y-55661433D01*
X158242784Y-54279242D01*
X158299846Y-54246764D01*
X158308730Y-54244500D01*
X158352797Y-54239999D01*
X158440659Y-54210884D01*
X158444883Y-54209808D01*
X158475605Y-54210917D01*
X158506323Y-54209861D01*
X158510198Y-54212167D01*
X158514707Y-54212330D01*
X158539954Y-54229875D01*
X158566365Y-54245592D01*
X158568378Y-54249627D01*
X158572083Y-54252202D01*
X158583837Y-54280611D01*
X158597558Y-54308112D01*
X158598198Y-54315322D01*
X158598795Y-54316764D01*
X158598481Y-54318500D01*
X158599500Y-54329969D01*
X158599500Y-56869717D01*
X158606787Y-56906351D01*
X158613083Y-56938000D01*
X158637949Y-57063011D01*
X158647058Y-57085001D01*
X158650771Y-57093966D01*
X158650773Y-57093972D01*
X158713368Y-57245089D01*
X158713369Y-57245092D01*
X158822859Y-57408955D01*
X158822860Y-57408956D01*
X158822861Y-57408957D01*
X158962218Y-57548314D01*
X158962219Y-57548314D01*
X158969286Y-57555381D01*
X158969285Y-57555381D01*
X158969289Y-57555384D01*
X161434481Y-60020577D01*
X161467966Y-60081900D01*
X161470800Y-60108258D01*
X161470800Y-60418919D01*
X161470801Y-60418926D01*
X161477208Y-60478533D01*
X161527502Y-60613378D01*
X161527506Y-60613385D01*
X161613752Y-60728594D01*
X161613755Y-60728597D01*
X161728964Y-60814843D01*
X161728971Y-60814847D01*
X161863817Y-60865141D01*
X161863816Y-60865141D01*
X161870744Y-60865885D01*
X161923427Y-60871550D01*
X164076572Y-60871549D01*
X164136183Y-60865141D01*
X164271031Y-60814846D01*
X164386246Y-60728596D01*
X164472496Y-60613381D01*
X164522791Y-60478533D01*
X164529200Y-60418923D01*
X164529199Y-58265778D01*
X164522791Y-58206167D01*
X164508618Y-58168168D01*
X164472497Y-58071321D01*
X164472493Y-58071314D01*
X164386247Y-57956105D01*
X164386244Y-57956102D01*
X164271035Y-57869856D01*
X164271028Y-57869852D01*
X164136182Y-57819558D01*
X164136183Y-57819558D01*
X164076583Y-57813151D01*
X164076581Y-57813150D01*
X164076573Y-57813150D01*
X164076565Y-57813150D01*
X162108258Y-57813150D01*
X162041219Y-57793465D01*
X162020577Y-57776831D01*
X160636819Y-56393073D01*
X160603334Y-56331750D01*
X160600500Y-56305392D01*
X160600500Y-54329443D01*
X160620185Y-54262404D01*
X160672989Y-54216649D01*
X160742147Y-54206705D01*
X160763504Y-54211737D01*
X160847302Y-54239505D01*
X160847309Y-54239506D01*
X160950019Y-54249999D01*
X161050000Y-54249998D01*
X161050000Y-48649999D01*
X160950028Y-48650000D01*
X160950012Y-48650001D01*
X160847301Y-48660494D01*
X160779802Y-48682861D01*
X160709974Y-48685263D01*
X160649932Y-48649531D01*
X160618740Y-48587010D01*
X160626301Y-48517551D01*
X160637698Y-48496263D01*
X160652631Y-48473915D01*
X160728051Y-48291836D01*
X160766500Y-48098541D01*
X160766500Y-47901460D01*
X160766500Y-47901457D01*
X160766499Y-47901455D01*
X160728052Y-47708172D01*
X160728051Y-47708165D01*
X160713842Y-47673861D01*
X160712844Y-47671451D01*
X160705375Y-47601982D01*
X160736650Y-47539503D01*
X160796740Y-47503851D01*
X160827405Y-47499999D01*
X161050000Y-47499999D01*
X161550000Y-47499999D01*
X166499970Y-47499999D01*
X166499984Y-47499998D01*
X166602695Y-47489505D01*
X166769117Y-47434358D01*
X166769122Y-47434356D01*
X166918344Y-47342315D01*
X167042315Y-47218344D01*
X167134356Y-47069122D01*
X167134358Y-47069117D01*
X167189505Y-46902695D01*
X167189506Y-46902688D01*
X167199999Y-46799984D01*
X167200000Y-46799971D01*
X167200000Y-43614223D01*
X179224500Y-43614223D01*
X179224500Y-43915776D01*
X179224501Y-43915793D01*
X179263861Y-44214766D01*
X179341913Y-44506060D01*
X179457314Y-44784661D01*
X179457318Y-44784671D01*
X179608099Y-45045831D01*
X179791679Y-45285078D01*
X179791685Y-45285085D01*
X180004914Y-45498314D01*
X180004921Y-45498320D01*
X180244168Y-45681900D01*
X180505328Y-45832681D01*
X180505329Y-45832681D01*
X180505332Y-45832683D01*
X180691072Y-45909619D01*
X180783939Y-45948086D01*
X180783940Y-45948086D01*
X180783942Y-45948087D01*
X181075232Y-46026138D01*
X181374217Y-46065500D01*
X181374224Y-46065500D01*
X181675776Y-46065500D01*
X181675783Y-46065500D01*
X181974768Y-46026138D01*
X182266058Y-45948087D01*
X182544668Y-45832683D01*
X182805832Y-45681900D01*
X183045080Y-45498319D01*
X183258319Y-45285080D01*
X183441900Y-45045832D01*
X183592683Y-44784668D01*
X183708087Y-44506058D01*
X183786138Y-44214768D01*
X183825500Y-43915783D01*
X183825500Y-43614217D01*
X183786138Y-43315232D01*
X183708087Y-43023942D01*
X183592683Y-42745332D01*
X183441900Y-42484168D01*
X183258319Y-42244920D01*
X183258314Y-42244914D01*
X183045085Y-42031685D01*
X183045078Y-42031679D01*
X182805831Y-41848099D01*
X182544671Y-41697318D01*
X182544661Y-41697314D01*
X182266060Y-41581913D01*
X181974766Y-41503861D01*
X181675793Y-41464501D01*
X181675788Y-41464500D01*
X181675783Y-41464500D01*
X181374217Y-41464500D01*
X181374211Y-41464500D01*
X181374206Y-41464501D01*
X181075233Y-41503861D01*
X180783939Y-41581913D01*
X180505338Y-41697314D01*
X180505328Y-41697318D01*
X180244168Y-41848099D01*
X180004921Y-42031679D01*
X180004914Y-42031685D01*
X179791685Y-42244914D01*
X179791679Y-42244921D01*
X179608099Y-42484168D01*
X179457318Y-42745328D01*
X179457314Y-42745338D01*
X179341913Y-43023939D01*
X179263861Y-43315233D01*
X179224501Y-43614206D01*
X179224500Y-43614223D01*
X167200000Y-43614223D01*
X167200000Y-42550000D01*
X161550000Y-42550000D01*
X161550000Y-47499999D01*
X161050000Y-47499999D01*
X161050000Y-42550000D01*
X155400001Y-42550000D01*
X155400001Y-46799984D01*
X155410494Y-46902695D01*
X155465641Y-47069117D01*
X155465643Y-47069122D01*
X155557684Y-47218344D01*
X155681655Y-47342315D01*
X155830877Y-47434356D01*
X155830882Y-47434358D01*
X155997304Y-47489505D01*
X155997311Y-47489506D01*
X156100021Y-47499999D01*
X158609728Y-47499999D01*
X158676767Y-47519684D01*
X158722522Y-47572487D01*
X158732466Y-47641646D01*
X158723261Y-47673861D01*
X158718879Y-47683837D01*
X158713368Y-47692086D01*
X158682544Y-47766503D01*
X158682055Y-47767682D01*
X158682046Y-47767704D01*
X158637948Y-47874165D01*
X158637946Y-47874170D01*
X158628601Y-47921157D01*
X158599500Y-48067455D01*
X158599500Y-48570030D01*
X158579815Y-48637069D01*
X158527011Y-48682824D01*
X158457853Y-48692768D01*
X158436497Y-48687736D01*
X158352799Y-48660001D01*
X158352795Y-48660000D01*
X158250010Y-48649500D01*
X157549998Y-48649500D01*
X157549980Y-48649501D01*
X157447203Y-48660000D01*
X157447200Y-48660001D01*
X157280668Y-48715185D01*
X157280663Y-48715187D01*
X157131342Y-48807289D01*
X157007289Y-48931342D01*
X156915187Y-49080663D01*
X156915185Y-49080668D01*
X156915115Y-49080880D01*
X156860001Y-49247203D01*
X156860001Y-49247204D01*
X156860000Y-49247204D01*
X156849500Y-49349983D01*
X156849500Y-51377109D01*
X156829815Y-51444148D01*
X156813181Y-51464790D01*
X152880485Y-55397487D01*
X152880484Y-55397488D01*
X152741659Y-55588562D01*
X152741658Y-55588564D01*
X152704530Y-55661433D01*
X152634433Y-55799003D01*
X152561446Y-56023631D01*
X152524500Y-56256902D01*
X152524500Y-73143097D01*
X152561446Y-73376368D01*
X152634433Y-73600996D01*
X152700999Y-73731638D01*
X152741657Y-73811433D01*
X152880483Y-74002510D01*
X153047490Y-74169517D01*
X153238567Y-74308343D01*
X153333634Y-74356782D01*
X153449003Y-74415566D01*
X153449005Y-74415566D01*
X153449008Y-74415568D01*
X153563276Y-74452696D01*
X153673631Y-74488553D01*
X153906903Y-74525500D01*
X153906908Y-74525500D01*
X154143092Y-74525500D01*
X154337096Y-74525500D01*
X154404135Y-74545185D01*
X154449890Y-74597989D01*
X154459834Y-74667147D01*
X154430809Y-74730703D01*
X154372031Y-74768477D01*
X154353281Y-74772439D01*
X154113075Y-74804062D01*
X154113068Y-74804063D01*
X154113065Y-74804064D01*
X154056683Y-74819171D01*
X153846279Y-74875548D01*
X153591110Y-74981243D01*
X153591100Y-74981247D01*
X153351909Y-75119344D01*
X153132787Y-75287482D01*
X153132780Y-75287488D01*
X152937488Y-75482780D01*
X152937482Y-75482787D01*
X152769344Y-75701909D01*
X152631247Y-75941100D01*
X152631243Y-75941110D01*
X152525548Y-76196279D01*
X152454065Y-76463062D01*
X152454062Y-76463075D01*
X152418014Y-76736890D01*
X152418013Y-76736907D01*
X152418013Y-77013092D01*
X152418014Y-77013109D01*
X152454062Y-77286924D01*
X152454063Y-77286929D01*
X152454064Y-77286935D01*
X152477056Y-77372741D01*
X152525548Y-77553720D01*
X152631243Y-77808889D01*
X152631247Y-77808899D01*
X152769344Y-78048090D01*
X152937482Y-78267212D01*
X152937488Y-78267219D01*
X153132780Y-78462511D01*
X153132787Y-78462517D01*
X153351909Y-78630655D01*
X153591100Y-78768752D01*
X153591101Y-78768752D01*
X153591104Y-78768754D01*
X153846278Y-78874451D01*
X154113065Y-78945936D01*
X154386901Y-78981987D01*
X154386908Y-78981987D01*
X154663092Y-78981987D01*
X154663099Y-78981987D01*
X154936935Y-78945936D01*
X155203722Y-78874451D01*
X155458896Y-78768754D01*
X155698091Y-78630655D01*
X155917214Y-78462516D01*
X156112516Y-78267214D01*
X156280655Y-78048091D01*
X156418754Y-77808896D01*
X156524451Y-77553722D01*
X156595936Y-77286935D01*
X156631987Y-77013099D01*
X156631987Y-76736901D01*
X156595936Y-76463065D01*
X156524451Y-76196278D01*
X156418754Y-75941104D01*
X156388179Y-75888147D01*
X156280655Y-75701909D01*
X156112517Y-75482787D01*
X156112511Y-75482780D01*
X155917219Y-75287488D01*
X155917212Y-75287482D01*
X155698090Y-75119344D01*
X155458899Y-74981247D01*
X155458889Y-74981243D01*
X155203720Y-74875548D01*
X155070328Y-74839806D01*
X154936935Y-74804064D01*
X154936929Y-74804063D01*
X154936924Y-74804062D01*
X154696719Y-74772439D01*
X154632822Y-74744173D01*
X154594351Y-74685848D01*
X154593520Y-74615983D01*
X154630592Y-74556760D01*
X154693798Y-74526981D01*
X154712904Y-74525500D01*
X156680111Y-74525500D01*
X156747150Y-74545185D01*
X156767792Y-74561819D01*
X162350490Y-80144517D01*
X162541566Y-80283343D01*
X162541568Y-80283344D01*
X162556624Y-80291016D01*
X162607419Y-80338991D01*
X162624214Y-80406812D01*
X162601676Y-80472946D01*
X162546961Y-80516397D01*
X162500328Y-80525500D01*
X151149500Y-80525500D01*
X151082461Y-80505815D01*
X151036706Y-80453011D01*
X151025500Y-80401500D01*
X151025500Y-37800015D01*
X155400000Y-37800015D01*
X155400000Y-42050000D01*
X161050000Y-42050000D01*
X161550000Y-42050000D01*
X167199999Y-42050000D01*
X167199999Y-37800030D01*
X167199998Y-37800015D01*
X167189505Y-37697304D01*
X167134358Y-37530882D01*
X167134356Y-37530877D01*
X167042315Y-37381655D01*
X166918344Y-37257684D01*
X166769122Y-37165643D01*
X166769117Y-37165641D01*
X166602695Y-37110494D01*
X166602688Y-37110493D01*
X166499984Y-37100000D01*
X161550000Y-37100000D01*
X161550000Y-42050000D01*
X161050000Y-42050000D01*
X161050000Y-37100000D01*
X156100030Y-37100000D01*
X156100014Y-37100001D01*
X155997304Y-37110494D01*
X155830882Y-37165641D01*
X155830877Y-37165643D01*
X155681655Y-37257684D01*
X155557684Y-37381655D01*
X155465643Y-37530877D01*
X155465641Y-37530882D01*
X155410494Y-37697304D01*
X155410493Y-37697311D01*
X155400000Y-37800015D01*
X151025500Y-37800015D01*
X151025500Y-36742561D01*
X192504500Y-36742561D01*
X192504500Y-37007438D01*
X192525329Y-37165641D01*
X192539072Y-37270026D01*
X192561999Y-37355589D01*
X192607623Y-37525864D01*
X192708978Y-37770555D01*
X192708982Y-37770565D01*
X192841410Y-37999937D01*
X193002646Y-38210064D01*
X193002652Y-38210071D01*
X193189928Y-38397347D01*
X193189935Y-38397353D01*
X193400062Y-38558589D01*
X193629434Y-38691017D01*
X193629435Y-38691017D01*
X193629438Y-38691019D01*
X193792571Y-38758591D01*
X193874135Y-38792376D01*
X193874136Y-38792376D01*
X193874138Y-38792377D01*
X194129974Y-38860928D01*
X194392569Y-38895500D01*
X194392576Y-38895500D01*
X194657424Y-38895500D01*
X194657431Y-38895500D01*
X194920026Y-38860928D01*
X195175862Y-38792377D01*
X195420562Y-38691019D01*
X195649938Y-38558589D01*
X195860066Y-38397352D01*
X196047352Y-38210066D01*
X196208589Y-37999938D01*
X196341019Y-37770562D01*
X196442377Y-37525862D01*
X196510928Y-37270026D01*
X196545500Y-37007431D01*
X196545500Y-36742569D01*
X196510928Y-36479974D01*
X196442377Y-36224138D01*
X196341019Y-35979438D01*
X196338965Y-35975881D01*
X196208589Y-35750062D01*
X196047353Y-35539935D01*
X196047347Y-35539928D01*
X195860071Y-35352652D01*
X195860064Y-35352646D01*
X195649937Y-35191410D01*
X195420565Y-35058982D01*
X195420555Y-35058978D01*
X195175864Y-34957623D01*
X195047944Y-34923347D01*
X194920026Y-34889072D01*
X194861671Y-34881389D01*
X194657438Y-34854500D01*
X194657431Y-34854500D01*
X194392569Y-34854500D01*
X194392561Y-34854500D01*
X194159151Y-34885230D01*
X194129974Y-34889072D01*
X194066015Y-34906209D01*
X193874135Y-34957623D01*
X193629444Y-35058978D01*
X193629434Y-35058982D01*
X193400062Y-35191410D01*
X193189935Y-35352646D01*
X193189928Y-35352652D01*
X193002652Y-35539928D01*
X193002646Y-35539935D01*
X192841410Y-35750062D01*
X192708982Y-35979434D01*
X192708978Y-35979444D01*
X192607623Y-36224135D01*
X192539072Y-36479975D01*
X192504500Y-36742561D01*
X151025500Y-36742561D01*
X151025500Y-33499500D01*
X151045185Y-33432461D01*
X151097989Y-33386706D01*
X151149500Y-33375500D01*
X197900500Y-33375500D01*
X197967539Y-33395185D01*
G37*
%TD.AperFunction*%
%TD*%
M02*
