%TF.GenerationSoftware,KiCad,Pcbnew,10.0.0*%
%TF.CreationDate,2026-04-24T18:35:15-04:00*%
%TF.ProjectId,LM2576_Var_Volt_Reg,4c4d3235-3736-45f5-9661-725f566f6c74,rev?*%
%TF.SameCoordinates,Original*%
%TF.FileFunction,Copper,L2,Bot*%
%TF.FilePolarity,Positive*%
%FSLAX46Y46*%
G04 Gerber Fmt 4.6, Leading zero omitted, Abs format (unit mm)*
G04 Created by KiCad (PCBNEW 10.0.0) date 2026-04-24 18:35:15*
%MOMM*%
%LPD*%
G01*
G04 APERTURE LIST*
G04 Aperture macros list*
%AMRoundRect*
0 Rectangle with rounded corners*
0 $1 Rounding radius*
0 $2 $3 $4 $5 $6 $7 $8 $9 X,Y pos of 4 corners*
0 Add a 4 corners polygon primitive as box body*
4,1,4,$2,$3,$4,$5,$6,$7,$8,$9,$2,$3,0*
0 Add four circle primitives for the rounded corners*
1,1,$1+$1,$2,$3*
1,1,$1+$1,$4,$5*
1,1,$1+$1,$6,$7*
1,1,$1+$1,$8,$9*
0 Add four rect primitives between the rounded corners*
20,1,$1+$1,$2,$3,$4,$5,0*
20,1,$1+$1,$4,$5,$6,$7,0*
20,1,$1+$1,$6,$7,$8,$9,0*
20,1,$1+$1,$8,$9,$2,$3,0*%
G04 Aperture macros list end*
%TA.AperFunction,ComponentPad*%
%ADD10R,2.057400X2.057400*%
%TD*%
%TA.AperFunction,ComponentPad*%
%ADD11C,2.057400*%
%TD*%
%TA.AperFunction,ComponentPad*%
%ADD12RoundRect,0.250000X-0.550000X0.550000X-0.550000X-0.550000X0.550000X-0.550000X0.550000X0.550000X0*%
%TD*%
%TA.AperFunction,ComponentPad*%
%ADD13C,1.600000*%
%TD*%
%TA.AperFunction,ComponentPad*%
%ADD14RoundRect,0.250000X-0.550000X-0.550000X0.550000X-0.550000X0.550000X0.550000X-0.550000X0.550000X0*%
%TD*%
%TA.AperFunction,ComponentPad*%
%ADD15R,1.700000X1.700000*%
%TD*%
%TA.AperFunction,ComponentPad*%
%ADD16C,1.700000*%
%TD*%
%TA.AperFunction,ComponentPad*%
%ADD17C,3.600000*%
%TD*%
%TA.AperFunction,ViaPad*%
%ADD18C,0.600000*%
%TD*%
%TA.AperFunction,Conductor*%
%ADD19C,1.000000*%
%TD*%
G04 APERTURE END LIST*
D10*
%TO.P,CR1,1*%
%TO.N,Net-(U2-OUT)*%
X163000000Y-59342350D03*
D11*
%TO.P,CR1,2*%
%TO.N,GND*%
X163000000Y-75342350D03*
%TD*%
D12*
%TO.P,C3,1*%
%TO.N,/Vout*%
X174525000Y-58375000D03*
D13*
%TO.P,C3,2*%
%TO.N,GND*%
X174525000Y-60875000D03*
%TD*%
%TO.P,C4,1*%
%TO.N,/Vin*%
X188000000Y-77000000D03*
%TO.P,C4,2*%
%TO.N,GND*%
X183000000Y-77000000D03*
%TD*%
D14*
%TO.P,C1,1*%
%TO.N,/Vin*%
X154025000Y-60875000D03*
D13*
%TO.P,C1,2*%
%TO.N,GND*%
X156525000Y-60875000D03*
%TD*%
%TO.P,C5,1*%
%TO.N,/Vout*%
X188000000Y-72000000D03*
%TO.P,C5,2*%
%TO.N,GND*%
X183000000Y-72000000D03*
%TD*%
D15*
%TO.P,J1,1,Pin_1*%
%TO.N,/Vin*%
X192525000Y-77415000D03*
D16*
%TO.P,J1,2,Pin_2*%
%TO.N,GND*%
X192525000Y-74875000D03*
%TO.P,J1,3,Pin_3*%
%TO.N,/Vout*%
X192525000Y-72335000D03*
%TD*%
D17*
%TO.P,L1,1,1*%
%TO.N,Net-(U2-OUT)*%
X181525000Y-43765000D03*
%TO.P,L1,2,2*%
%TO.N,/Vout*%
X181525000Y-50875000D03*
%TD*%
D12*
%TO.P,C2,1*%
%TO.N,/Vout*%
X190525000Y-58375000D03*
D13*
%TO.P,C2,2*%
%TO.N,GND*%
X190525000Y-60875000D03*
%TD*%
D18*
%TO.N,Net-(U2-OUT)*%
X159766000Y-48000000D03*
%TD*%
%TO.N,Net-(U2-OUT)*%
D19*
X159766000Y-48000000D02*
X177290000Y-48000000D01*
X177290000Y-48000000D02*
X181525000Y-43765000D01*
%TD*%
%TA.AperFunction,Conductor*%
%TO.N,GND*%
G36*
X197967539Y-33395185D02*
G01*
X198013294Y-33447989D01*
X198024500Y-33499500D01*
X198024500Y-80401500D01*
X198004815Y-80468539D01*
X197952011Y-80514294D01*
X197900500Y-80525500D01*
X151149500Y-80525500D01*
X151082461Y-80505815D01*
X151036706Y-80453011D01*
X151025500Y-80401500D01*
X151025500Y-76736907D01*
X152418013Y-76736907D01*
X152418013Y-77013092D01*
X152418014Y-77013109D01*
X152454062Y-77286924D01*
X152454063Y-77286929D01*
X152454064Y-77286935D01*
X152458780Y-77304534D01*
X152525548Y-77553720D01*
X152631243Y-77808889D01*
X152631247Y-77808899D01*
X152769344Y-78048090D01*
X152937482Y-78267212D01*
X152937488Y-78267219D01*
X153132780Y-78462511D01*
X153132787Y-78462517D01*
X153351909Y-78630655D01*
X153591100Y-78768752D01*
X153591101Y-78768752D01*
X153591104Y-78768754D01*
X153846278Y-78874451D01*
X154113065Y-78945936D01*
X154386901Y-78981987D01*
X154386908Y-78981987D01*
X154663092Y-78981987D01*
X154663099Y-78981987D01*
X154936935Y-78945936D01*
X155203722Y-78874451D01*
X155458896Y-78768754D01*
X155698091Y-78630655D01*
X155917214Y-78462516D01*
X156112516Y-78267214D01*
X156280655Y-78048091D01*
X156418754Y-77808896D01*
X156524451Y-77553722D01*
X156595936Y-77286935D01*
X156631987Y-77013099D01*
X156631987Y-76897682D01*
X181700000Y-76897682D01*
X181700000Y-77102317D01*
X181732009Y-77304417D01*
X181795244Y-77499031D01*
X181888141Y-77681350D01*
X181888147Y-77681359D01*
X181920523Y-77725921D01*
X181920524Y-77725922D01*
X182600000Y-77046446D01*
X182600000Y-77052661D01*
X182627259Y-77154394D01*
X182679920Y-77245606D01*
X182754394Y-77320080D01*
X182845606Y-77372741D01*
X182947339Y-77400000D01*
X182953553Y-77400000D01*
X182274076Y-78079474D01*
X182318650Y-78111859D01*
X182500968Y-78204755D01*
X182695582Y-78267990D01*
X182897683Y-78300000D01*
X183102317Y-78300000D01*
X183304417Y-78267990D01*
X183499031Y-78204755D01*
X183681349Y-78111859D01*
X183725921Y-78079474D01*
X183046447Y-77400000D01*
X183052661Y-77400000D01*
X183154394Y-77372741D01*
X183245606Y-77320080D01*
X183320080Y-77245606D01*
X183372741Y-77154394D01*
X183400000Y-77052661D01*
X183400000Y-77046447D01*
X184079474Y-77725921D01*
X184111859Y-77681349D01*
X184204755Y-77499031D01*
X184267990Y-77304417D01*
X184300000Y-77102317D01*
X184300000Y-76897682D01*
X184299995Y-76897648D01*
X186699500Y-76897648D01*
X186699500Y-77102351D01*
X186731522Y-77304534D01*
X186794781Y-77499223D01*
X186842707Y-77593281D01*
X186887585Y-77681359D01*
X186887715Y-77681613D01*
X187008028Y-77847213D01*
X187152786Y-77991971D01*
X187273226Y-78079474D01*
X187318390Y-78112287D01*
X187434607Y-78171503D01*
X187500776Y-78205218D01*
X187500778Y-78205218D01*
X187500781Y-78205220D01*
X187605137Y-78239127D01*
X187695465Y-78268477D01*
X187796557Y-78284488D01*
X187897648Y-78300500D01*
X187897649Y-78300500D01*
X188102351Y-78300500D01*
X188102352Y-78300500D01*
X188304534Y-78268477D01*
X188499219Y-78205220D01*
X188681610Y-78112287D01*
X188774590Y-78044732D01*
X188847213Y-77991971D01*
X188847215Y-77991968D01*
X188847219Y-77991966D01*
X188991966Y-77847219D01*
X188991968Y-77847215D01*
X188991971Y-77847213D01*
X189044732Y-77774590D01*
X189112287Y-77681610D01*
X189205220Y-77499219D01*
X189268477Y-77304534D01*
X189300500Y-77102352D01*
X189300500Y-76897648D01*
X189278548Y-76759053D01*
X189268477Y-76695465D01*
X189232765Y-76585556D01*
X189205220Y-76500781D01*
X189112287Y-76318390D01*
X189080092Y-76274077D01*
X188991971Y-76152786D01*
X188847213Y-76008028D01*
X188681613Y-75887715D01*
X188681612Y-75887714D01*
X188681610Y-75887713D01*
X188624653Y-75858691D01*
X188499223Y-75794781D01*
X188304534Y-75731522D01*
X188129995Y-75703878D01*
X188102352Y-75699500D01*
X187897648Y-75699500D01*
X187873329Y-75703351D01*
X187695465Y-75731522D01*
X187500776Y-75794781D01*
X187318386Y-75887715D01*
X187152786Y-76008028D01*
X187008028Y-76152786D01*
X186887715Y-76318386D01*
X186794781Y-76500776D01*
X186731522Y-76695465D01*
X186699500Y-76897648D01*
X184299995Y-76897648D01*
X184267990Y-76695582D01*
X184204755Y-76500968D01*
X184111859Y-76318650D01*
X184079474Y-76274077D01*
X184079474Y-76274076D01*
X183400000Y-76953551D01*
X183400000Y-76947339D01*
X183372741Y-76845606D01*
X183320080Y-76754394D01*
X183245606Y-76679920D01*
X183154394Y-76627259D01*
X183052661Y-76600000D01*
X183046446Y-76600000D01*
X183725922Y-75920524D01*
X183725921Y-75920523D01*
X183681359Y-75888147D01*
X183681350Y-75888141D01*
X183499031Y-75795244D01*
X183304417Y-75732009D01*
X183102317Y-75700000D01*
X182897683Y-75700000D01*
X182695582Y-75732009D01*
X182500968Y-75795244D01*
X182318644Y-75888143D01*
X182274077Y-75920523D01*
X182274077Y-75920524D01*
X182953554Y-76600000D01*
X182947339Y-76600000D01*
X182845606Y-76627259D01*
X182754394Y-76679920D01*
X182679920Y-76754394D01*
X182627259Y-76845606D01*
X182600000Y-76947339D01*
X182600000Y-76953553D01*
X181920524Y-76274077D01*
X181920523Y-76274077D01*
X181888143Y-76318644D01*
X181795244Y-76500968D01*
X181732009Y-76695582D01*
X181700000Y-76897682D01*
X156631987Y-76897682D01*
X156631987Y-76736901D01*
X156595936Y-76463065D01*
X156524451Y-76196278D01*
X156418754Y-75941104D01*
X156411860Y-75929164D01*
X156280655Y-75701909D01*
X156112517Y-75482787D01*
X156112511Y-75482780D01*
X155917219Y-75287488D01*
X155917212Y-75287482D01*
X155831925Y-75222039D01*
X161471300Y-75222039D01*
X161471300Y-75462660D01*
X161508942Y-75700322D01*
X161583296Y-75929164D01*
X161692541Y-76143566D01*
X161756792Y-76232001D01*
X161756793Y-76232001D01*
X162303516Y-75685278D01*
X162313470Y-75709308D01*
X162398252Y-75836192D01*
X162506158Y-75944098D01*
X162633042Y-76028880D01*
X162657070Y-76038832D01*
X162110346Y-76585555D01*
X162110347Y-76585556D01*
X162198783Y-76649808D01*
X162413185Y-76759053D01*
X162642027Y-76833407D01*
X162879690Y-76871050D01*
X163120310Y-76871050D01*
X163357972Y-76833407D01*
X163538089Y-76774885D01*
X163538090Y-76774884D01*
X163586812Y-76759054D01*
X163801213Y-76649810D01*
X163889651Y-76585555D01*
X163889652Y-76585555D01*
X163342929Y-76038832D01*
X163366958Y-76028880D01*
X163493842Y-75944098D01*
X163601748Y-75836192D01*
X163686530Y-75709308D01*
X163696482Y-75685279D01*
X164243205Y-76232002D01*
X164243205Y-76232001D01*
X164307460Y-76143563D01*
X164416704Y-75929163D01*
X164491057Y-75700322D01*
X164528700Y-75462660D01*
X164528700Y-75222039D01*
X164491057Y-74984377D01*
X164431865Y-74802199D01*
X164431864Y-74802197D01*
X164416704Y-74755537D01*
X164307458Y-74541133D01*
X164243206Y-74452697D01*
X164243205Y-74452696D01*
X163696482Y-74999419D01*
X163686530Y-74975392D01*
X163601748Y-74848508D01*
X163493842Y-74740602D01*
X163366958Y-74655820D01*
X163342928Y-74645866D01*
X163889651Y-74099143D01*
X163889651Y-74099142D01*
X163801216Y-74034891D01*
X163586814Y-73925646D01*
X163357972Y-73851292D01*
X163120310Y-73813650D01*
X162879690Y-73813650D01*
X162642027Y-73851292D01*
X162413185Y-73925646D01*
X162198788Y-74034888D01*
X162198786Y-74034889D01*
X162110347Y-74099142D01*
X162110347Y-74099143D01*
X162657070Y-74645866D01*
X162633042Y-74655820D01*
X162506158Y-74740602D01*
X162398252Y-74848508D01*
X162313470Y-74975392D01*
X162303517Y-74999420D01*
X161756793Y-74452697D01*
X161756792Y-74452697D01*
X161692539Y-74541136D01*
X161692538Y-74541138D01*
X161583296Y-74755535D01*
X161508942Y-74984377D01*
X161471300Y-75222039D01*
X155831925Y-75222039D01*
X155698090Y-75119344D01*
X155458899Y-74981247D01*
X155458889Y-74981243D01*
X155203720Y-74875548D01*
X155070328Y-74839806D01*
X154936935Y-74804064D01*
X154936929Y-74804063D01*
X154936924Y-74804062D01*
X154663109Y-74768014D01*
X154663104Y-74768013D01*
X154663099Y-74768013D01*
X154386901Y-74768013D01*
X154386895Y-74768013D01*
X154386890Y-74768014D01*
X154113075Y-74804062D01*
X154113068Y-74804063D01*
X154113065Y-74804064D01*
X154056683Y-74819171D01*
X153846279Y-74875548D01*
X153591110Y-74981243D01*
X153591100Y-74981247D01*
X153351909Y-75119344D01*
X153132787Y-75287482D01*
X153132780Y-75287488D01*
X152937488Y-75482780D01*
X152937482Y-75482787D01*
X152769344Y-75701909D01*
X152631247Y-75941100D01*
X152631243Y-75941110D01*
X152525548Y-76196279D01*
X152454065Y-76463062D01*
X152454062Y-76463075D01*
X152418014Y-76736890D01*
X152418013Y-76736907D01*
X151025500Y-76736907D01*
X151025500Y-71897682D01*
X181700000Y-71897682D01*
X181700000Y-72102317D01*
X181732009Y-72304417D01*
X181795244Y-72499031D01*
X181888141Y-72681350D01*
X181888147Y-72681359D01*
X181920523Y-72725921D01*
X181920524Y-72725922D01*
X182600000Y-72046446D01*
X182600000Y-72052661D01*
X182627259Y-72154394D01*
X182679920Y-72245606D01*
X182754394Y-72320080D01*
X182845606Y-72372741D01*
X182947339Y-72400000D01*
X182953553Y-72400000D01*
X182274076Y-73079474D01*
X182318650Y-73111859D01*
X182500968Y-73204755D01*
X182695582Y-73267990D01*
X182897683Y-73300000D01*
X183102317Y-73300000D01*
X183304417Y-73267990D01*
X183499031Y-73204755D01*
X183681349Y-73111859D01*
X183725921Y-73079474D01*
X183046447Y-72400000D01*
X183052661Y-72400000D01*
X183154394Y-72372741D01*
X183245606Y-72320080D01*
X183320080Y-72245606D01*
X183372741Y-72154394D01*
X183400000Y-72052661D01*
X183400000Y-72046447D01*
X184079474Y-72725921D01*
X184111859Y-72681349D01*
X184204755Y-72499031D01*
X184267990Y-72304417D01*
X184300000Y-72102317D01*
X184300000Y-71897682D01*
X184299995Y-71897648D01*
X186699500Y-71897648D01*
X186699500Y-72102351D01*
X186731522Y-72304534D01*
X186794781Y-72499223D01*
X186858691Y-72624653D01*
X186887585Y-72681359D01*
X186887715Y-72681613D01*
X187008028Y-72847213D01*
X187152786Y-72991971D01*
X187273226Y-73079474D01*
X187318390Y-73112287D01*
X187434607Y-73171503D01*
X187500776Y-73205218D01*
X187500778Y-73205218D01*
X187500781Y-73205220D01*
X187530241Y-73214792D01*
X187695465Y-73268477D01*
X187796557Y-73284488D01*
X187897648Y-73300500D01*
X187897649Y-73300500D01*
X188102351Y-73300500D01*
X188102352Y-73300500D01*
X188304534Y-73268477D01*
X188499219Y-73205220D01*
X188681610Y-73112287D01*
X188777229Y-73042816D01*
X188847213Y-72991971D01*
X188847215Y-72991968D01*
X188847219Y-72991966D01*
X188991966Y-72847219D01*
X188991968Y-72847215D01*
X188991971Y-72847213D01*
X189044732Y-72774590D01*
X189112287Y-72681610D01*
X189205220Y-72499219D01*
X189268477Y-72304534D01*
X189280486Y-72228713D01*
X191174500Y-72228713D01*
X191174500Y-72441287D01*
X191207754Y-72651243D01*
X191232018Y-72725921D01*
X191273444Y-72853414D01*
X191369951Y-73042820D01*
X191494890Y-73214786D01*
X191645213Y-73365109D01*
X191817179Y-73490048D01*
X191817181Y-73490049D01*
X191817184Y-73490051D01*
X191826493Y-73494794D01*
X191877290Y-73542766D01*
X191894087Y-73610587D01*
X191871552Y-73676722D01*
X191826505Y-73715760D01*
X191817446Y-73720376D01*
X191817440Y-73720380D01*
X191763282Y-73759727D01*
X191763282Y-73759728D01*
X192395591Y-74392037D01*
X192332007Y-74409075D01*
X192217993Y-74474901D01*
X192124901Y-74567993D01*
X192059075Y-74682007D01*
X192042037Y-74745590D01*
X191409728Y-74113282D01*
X191409727Y-74113282D01*
X191370380Y-74167439D01*
X191273904Y-74356782D01*
X191208242Y-74558869D01*
X191208242Y-74558872D01*
X191175000Y-74768753D01*
X191175000Y-74981246D01*
X191208242Y-75191127D01*
X191208242Y-75191130D01*
X191273904Y-75393217D01*
X191370375Y-75582550D01*
X191409728Y-75636716D01*
X192042037Y-75004408D01*
X192059075Y-75067993D01*
X192124901Y-75182007D01*
X192217993Y-75275099D01*
X192332007Y-75340925D01*
X192395590Y-75357962D01*
X191725370Y-76028181D01*
X191664047Y-76061666D01*
X191637698Y-76064500D01*
X191627134Y-76064500D01*
X191627123Y-76064501D01*
X191567516Y-76070908D01*
X191432671Y-76121202D01*
X191432664Y-76121206D01*
X191317455Y-76207452D01*
X191317452Y-76207455D01*
X191231206Y-76322664D01*
X191231202Y-76322671D01*
X191180908Y-76457517D01*
X191176257Y-76500781D01*
X191174501Y-76517123D01*
X191174500Y-76517135D01*
X191174500Y-78312870D01*
X191174501Y-78312876D01*
X191180908Y-78372483D01*
X191231202Y-78507328D01*
X191231206Y-78507335D01*
X191317452Y-78622544D01*
X191317455Y-78622547D01*
X191432664Y-78708793D01*
X191432671Y-78708797D01*
X191567517Y-78759091D01*
X191567516Y-78759091D01*
X191574444Y-78759835D01*
X191627127Y-78765500D01*
X193422872Y-78765499D01*
X193482483Y-78759091D01*
X193617331Y-78708796D01*
X193732546Y-78622546D01*
X193818796Y-78507331D01*
X193869091Y-78372483D01*
X193875500Y-78312873D01*
X193875499Y-76517128D01*
X193870299Y-76468757D01*
X193869091Y-76457516D01*
X193818797Y-76322671D01*
X193818793Y-76322664D01*
X193732547Y-76207455D01*
X193732544Y-76207452D01*
X193617335Y-76121206D01*
X193617328Y-76121202D01*
X193482482Y-76070908D01*
X193482483Y-76070908D01*
X193422883Y-76064501D01*
X193422881Y-76064500D01*
X193422873Y-76064500D01*
X193422865Y-76064500D01*
X193412309Y-76064500D01*
X193345270Y-76044815D01*
X193324628Y-76028181D01*
X192654408Y-75357962D01*
X192717993Y-75340925D01*
X192832007Y-75275099D01*
X192925099Y-75182007D01*
X192990925Y-75067993D01*
X193007962Y-75004408D01*
X193640270Y-75636717D01*
X193640270Y-75636716D01*
X193679622Y-75582554D01*
X193776095Y-75393217D01*
X193841757Y-75191130D01*
X193841757Y-75191127D01*
X193875000Y-74981246D01*
X193875000Y-74768753D01*
X193841757Y-74558872D01*
X193841757Y-74558869D01*
X193776095Y-74356782D01*
X193679624Y-74167449D01*
X193640270Y-74113282D01*
X193640269Y-74113282D01*
X193007962Y-74745590D01*
X192990925Y-74682007D01*
X192925099Y-74567993D01*
X192832007Y-74474901D01*
X192717993Y-74409075D01*
X192654409Y-74392037D01*
X193286716Y-73759728D01*
X193232547Y-73720373D01*
X193232547Y-73720372D01*
X193223500Y-73715763D01*
X193172706Y-73667788D01*
X193155912Y-73599966D01*
X193178451Y-73533832D01*
X193223508Y-73494793D01*
X193232816Y-73490051D01*
X193312007Y-73432515D01*
X193404786Y-73365109D01*
X193404788Y-73365106D01*
X193404792Y-73365104D01*
X193555104Y-73214792D01*
X193555106Y-73214788D01*
X193555109Y-73214786D01*
X193680048Y-73042820D01*
X193680047Y-73042820D01*
X193680051Y-73042816D01*
X193776557Y-72853412D01*
X193842246Y-72651243D01*
X193875500Y-72441287D01*
X193875500Y-72228713D01*
X193842246Y-72018757D01*
X193776557Y-71816588D01*
X193680051Y-71627184D01*
X193680049Y-71627181D01*
X193680048Y-71627179D01*
X193555109Y-71455213D01*
X193404786Y-71304890D01*
X193232820Y-71179951D01*
X193043414Y-71083444D01*
X193043413Y-71083443D01*
X193043412Y-71083443D01*
X192841243Y-71017754D01*
X192841241Y-71017753D01*
X192841240Y-71017753D01*
X192679957Y-70992208D01*
X192631287Y-70984500D01*
X192418713Y-70984500D01*
X192370042Y-70992208D01*
X192208760Y-71017753D01*
X192006585Y-71083444D01*
X191817179Y-71179951D01*
X191645213Y-71304890D01*
X191494890Y-71455213D01*
X191369951Y-71627179D01*
X191273444Y-71816585D01*
X191207753Y-72018760D01*
X191186271Y-72154394D01*
X191174500Y-72228713D01*
X189280486Y-72228713D01*
X189300500Y-72102352D01*
X189300500Y-71897648D01*
X189287661Y-71816585D01*
X189268477Y-71695465D01*
X189237458Y-71600000D01*
X189205220Y-71500781D01*
X189205218Y-71500778D01*
X189205218Y-71500776D01*
X189112419Y-71318650D01*
X189112287Y-71318390D01*
X189080092Y-71274077D01*
X188991971Y-71152786D01*
X188847213Y-71008028D01*
X188681613Y-70887715D01*
X188681612Y-70887714D01*
X188681610Y-70887713D01*
X188624653Y-70858691D01*
X188499223Y-70794781D01*
X188304534Y-70731522D01*
X188129995Y-70703878D01*
X188102352Y-70699500D01*
X187897648Y-70699500D01*
X187873329Y-70703351D01*
X187695465Y-70731522D01*
X187500776Y-70794781D01*
X187318386Y-70887715D01*
X187152786Y-71008028D01*
X187008028Y-71152786D01*
X186887715Y-71318386D01*
X186794781Y-71500776D01*
X186731522Y-71695465D01*
X186699500Y-71897648D01*
X184299995Y-71897648D01*
X184267990Y-71695582D01*
X184204755Y-71500968D01*
X184111859Y-71318650D01*
X184079474Y-71274077D01*
X184079474Y-71274076D01*
X183400000Y-71953551D01*
X183400000Y-71947339D01*
X183372741Y-71845606D01*
X183320080Y-71754394D01*
X183245606Y-71679920D01*
X183154394Y-71627259D01*
X183052661Y-71600000D01*
X183046446Y-71600000D01*
X183725922Y-70920524D01*
X183725921Y-70920523D01*
X183681359Y-70888147D01*
X183681350Y-70888141D01*
X183499031Y-70795244D01*
X183304417Y-70732009D01*
X183102317Y-70700000D01*
X182897683Y-70700000D01*
X182695582Y-70732009D01*
X182500968Y-70795244D01*
X182318644Y-70888143D01*
X182274077Y-70920523D01*
X182274077Y-70920524D01*
X182953554Y-71600000D01*
X182947339Y-71600000D01*
X182845606Y-71627259D01*
X182754394Y-71679920D01*
X182679920Y-71754394D01*
X182627259Y-71845606D01*
X182600000Y-71947339D01*
X182600000Y-71953553D01*
X181920524Y-71274077D01*
X181920523Y-71274077D01*
X181888143Y-71318644D01*
X181795244Y-71500968D01*
X181732009Y-71695582D01*
X181700000Y-71897682D01*
X151025500Y-71897682D01*
X151025500Y-60274983D01*
X152724500Y-60274983D01*
X152724500Y-61475001D01*
X152724501Y-61475018D01*
X152735000Y-61577796D01*
X152735001Y-61577799D01*
X152750681Y-61625116D01*
X152790186Y-61744334D01*
X152882288Y-61893656D01*
X153006344Y-62017712D01*
X153155666Y-62109814D01*
X153322203Y-62164999D01*
X153424991Y-62175500D01*
X154625008Y-62175499D01*
X154727797Y-62164999D01*
X154894334Y-62109814D01*
X155043656Y-62017712D01*
X155167712Y-61893656D01*
X155259814Y-61744334D01*
X155283102Y-61674054D01*
X155287110Y-61666050D01*
X155305060Y-61646772D01*
X155320055Y-61625116D01*
X155328495Y-61621606D01*
X155334725Y-61614917D01*
X155360249Y-61608404D01*
X155384571Y-61598292D01*
X155400834Y-61598048D01*
X155402425Y-61597643D01*
X155403540Y-61598008D01*
X155407719Y-61597946D01*
X155445525Y-61600921D01*
X156125000Y-60921446D01*
X156125000Y-60927661D01*
X156152259Y-61029394D01*
X156204920Y-61120606D01*
X156279394Y-61195080D01*
X156370606Y-61247741D01*
X156472339Y-61275000D01*
X156478553Y-61275000D01*
X155799076Y-61954474D01*
X155843650Y-61986859D01*
X156025968Y-62079755D01*
X156220582Y-62142990D01*
X156422683Y-62175000D01*
X156627317Y-62175000D01*
X156829417Y-62142990D01*
X157024031Y-62079755D01*
X157206349Y-61986859D01*
X157250921Y-61954474D01*
X156571447Y-61275000D01*
X156577661Y-61275000D01*
X156679394Y-61247741D01*
X156770606Y-61195080D01*
X156845080Y-61120606D01*
X156897741Y-61029394D01*
X156925000Y-60927661D01*
X156925000Y-60921447D01*
X157604474Y-61600921D01*
X157636859Y-61556349D01*
X157729755Y-61374031D01*
X157792990Y-61179417D01*
X157825000Y-60977317D01*
X157825000Y-60772682D01*
X157792990Y-60570582D01*
X157729755Y-60375968D01*
X157636859Y-60193650D01*
X157604474Y-60149077D01*
X157604474Y-60149076D01*
X156925000Y-60828551D01*
X156925000Y-60822339D01*
X156897741Y-60720606D01*
X156845080Y-60629394D01*
X156770606Y-60554920D01*
X156679394Y-60502259D01*
X156577661Y-60475000D01*
X156571446Y-60475000D01*
X157250922Y-59795524D01*
X157250921Y-59795523D01*
X157206359Y-59763147D01*
X157206350Y-59763141D01*
X157024031Y-59670244D01*
X156829417Y-59607009D01*
X156627317Y-59575000D01*
X156422683Y-59575000D01*
X156220582Y-59607009D01*
X156025968Y-59670244D01*
X155843644Y-59763143D01*
X155799077Y-59795523D01*
X155799077Y-59795524D01*
X156478554Y-60475000D01*
X156472339Y-60475000D01*
X156370606Y-60502259D01*
X156279394Y-60554920D01*
X156204920Y-60629394D01*
X156152259Y-60720606D01*
X156125000Y-60822339D01*
X156125000Y-60828553D01*
X155445524Y-60149077D01*
X155407719Y-60152053D01*
X155339341Y-60137689D01*
X155289584Y-60088638D01*
X155287110Y-60083949D01*
X155283101Y-60075942D01*
X155259814Y-60005666D01*
X155167712Y-59856344D01*
X155043656Y-59732288D01*
X154894334Y-59640186D01*
X154727797Y-59585001D01*
X154727795Y-59585000D01*
X154625010Y-59574500D01*
X153424998Y-59574500D01*
X153424981Y-59574501D01*
X153322203Y-59585000D01*
X153322200Y-59585001D01*
X153155668Y-59640185D01*
X153155663Y-59640187D01*
X153006342Y-59732289D01*
X152882289Y-59856342D01*
X152790187Y-60005663D01*
X152790186Y-60005666D01*
X152735001Y-60172203D01*
X152735001Y-60172204D01*
X152735000Y-60172204D01*
X152724500Y-60274983D01*
X151025500Y-60274983D01*
X151025500Y-58265785D01*
X161470800Y-58265785D01*
X161470800Y-60418920D01*
X161470801Y-60418926D01*
X161477208Y-60478533D01*
X161527502Y-60613378D01*
X161527506Y-60613385D01*
X161613752Y-60728594D01*
X161613755Y-60728597D01*
X161728964Y-60814843D01*
X161728971Y-60814847D01*
X161863817Y-60865141D01*
X161863816Y-60865141D01*
X161870744Y-60865885D01*
X161923427Y-60871550D01*
X164076572Y-60871549D01*
X164136183Y-60865141D01*
X164271031Y-60814846D01*
X164386246Y-60728596D01*
X164472496Y-60613381D01*
X164522791Y-60478533D01*
X164529200Y-60418923D01*
X164529199Y-58265778D01*
X164522791Y-58206167D01*
X164472496Y-58071319D01*
X164472495Y-58071318D01*
X164472493Y-58071314D01*
X164386247Y-57956105D01*
X164272696Y-57871100D01*
X164272695Y-57871099D01*
X164271034Y-57869855D01*
X164271028Y-57869852D01*
X164136182Y-57819558D01*
X164136183Y-57819558D01*
X164076583Y-57813151D01*
X164076581Y-57813150D01*
X164076573Y-57813150D01*
X164076564Y-57813150D01*
X161923429Y-57813150D01*
X161923423Y-57813151D01*
X161863816Y-57819558D01*
X161728971Y-57869852D01*
X161728964Y-57869856D01*
X161613755Y-57956102D01*
X161613752Y-57956105D01*
X161527506Y-58071314D01*
X161527502Y-58071321D01*
X161477208Y-58206167D01*
X161470801Y-58265766D01*
X161470801Y-58265773D01*
X161470800Y-58265785D01*
X151025500Y-58265785D01*
X151025500Y-57774983D01*
X173224500Y-57774983D01*
X173224500Y-58975001D01*
X173224501Y-58975018D01*
X173235000Y-59077796D01*
X173235001Y-59077799D01*
X173290185Y-59244331D01*
X173290186Y-59244334D01*
X173382288Y-59393656D01*
X173506344Y-59517712D01*
X173655666Y-59609814D01*
X173717440Y-59630284D01*
X173774884Y-59670055D01*
X173801707Y-59734571D01*
X173802053Y-59757719D01*
X173799077Y-59795524D01*
X174478554Y-60475000D01*
X174472339Y-60475000D01*
X174370606Y-60502259D01*
X174279394Y-60554920D01*
X174204920Y-60629394D01*
X174152259Y-60720606D01*
X174125000Y-60822339D01*
X174125000Y-60828553D01*
X173445524Y-60149077D01*
X173445523Y-60149077D01*
X173413143Y-60193644D01*
X173320244Y-60375968D01*
X173257009Y-60570582D01*
X173225000Y-60772682D01*
X173225000Y-60977317D01*
X173257009Y-61179417D01*
X173320244Y-61374031D01*
X173413141Y-61556350D01*
X173413147Y-61556359D01*
X173445523Y-61600921D01*
X173445524Y-61600922D01*
X174125000Y-60921446D01*
X174125000Y-60927661D01*
X174152259Y-61029394D01*
X174204920Y-61120606D01*
X174279394Y-61195080D01*
X174370606Y-61247741D01*
X174472339Y-61275000D01*
X174478553Y-61275000D01*
X173799076Y-61954474D01*
X173843650Y-61986859D01*
X174025968Y-62079755D01*
X174220582Y-62142990D01*
X174422683Y-62175000D01*
X174627317Y-62175000D01*
X174829417Y-62142990D01*
X175024031Y-62079755D01*
X175206349Y-61986859D01*
X175250921Y-61954474D01*
X174571447Y-61275000D01*
X174577661Y-61275000D01*
X174679394Y-61247741D01*
X174770606Y-61195080D01*
X174845080Y-61120606D01*
X174897741Y-61029394D01*
X174925000Y-60927661D01*
X174925000Y-60921447D01*
X175604474Y-61600921D01*
X175636859Y-61556349D01*
X175729755Y-61374031D01*
X175792990Y-61179417D01*
X175825000Y-60977317D01*
X175825000Y-60772682D01*
X175792990Y-60570582D01*
X175729755Y-60375968D01*
X175636859Y-60193650D01*
X175604474Y-60149077D01*
X175604474Y-60149076D01*
X174925000Y-60828551D01*
X174925000Y-60822339D01*
X174897741Y-60720606D01*
X174845080Y-60629394D01*
X174770606Y-60554920D01*
X174679394Y-60502259D01*
X174577661Y-60475000D01*
X174571446Y-60475000D01*
X175250921Y-59795525D01*
X175247946Y-59757719D01*
X175262310Y-59689341D01*
X175311361Y-59639584D01*
X175332555Y-59630285D01*
X175394334Y-59609814D01*
X175543656Y-59517712D01*
X175667712Y-59393656D01*
X175759814Y-59244334D01*
X175814999Y-59077797D01*
X175825500Y-58975009D01*
X175825499Y-57774992D01*
X175825498Y-57774983D01*
X189224500Y-57774983D01*
X189224500Y-58975001D01*
X189224501Y-58975018D01*
X189235000Y-59077796D01*
X189235001Y-59077799D01*
X189290185Y-59244331D01*
X189290186Y-59244334D01*
X189382288Y-59393656D01*
X189506344Y-59517712D01*
X189655666Y-59609814D01*
X189717440Y-59630284D01*
X189774884Y-59670055D01*
X189801707Y-59734571D01*
X189802053Y-59757719D01*
X189799077Y-59795524D01*
X190478554Y-60475000D01*
X190472339Y-60475000D01*
X190370606Y-60502259D01*
X190279394Y-60554920D01*
X190204920Y-60629394D01*
X190152259Y-60720606D01*
X190125000Y-60822339D01*
X190125000Y-60828553D01*
X189445524Y-60149077D01*
X189445523Y-60149077D01*
X189413143Y-60193644D01*
X189320244Y-60375968D01*
X189257009Y-60570582D01*
X189225000Y-60772682D01*
X189225000Y-60977317D01*
X189257009Y-61179417D01*
X189320244Y-61374031D01*
X189413141Y-61556350D01*
X189413147Y-61556359D01*
X189445523Y-61600921D01*
X189445524Y-61600922D01*
X190125000Y-60921446D01*
X190125000Y-60927661D01*
X190152259Y-61029394D01*
X190204920Y-61120606D01*
X190279394Y-61195080D01*
X190370606Y-61247741D01*
X190472339Y-61275000D01*
X190478553Y-61275000D01*
X189799076Y-61954474D01*
X189843650Y-61986859D01*
X190025968Y-62079755D01*
X190220582Y-62142990D01*
X190422683Y-62175000D01*
X190627317Y-62175000D01*
X190829417Y-62142990D01*
X191024031Y-62079755D01*
X191206349Y-61986859D01*
X191250921Y-61954474D01*
X190571447Y-61275000D01*
X190577661Y-61275000D01*
X190679394Y-61247741D01*
X190770606Y-61195080D01*
X190845080Y-61120606D01*
X190897741Y-61029394D01*
X190925000Y-60927661D01*
X190925000Y-60921447D01*
X191604474Y-61600921D01*
X191636859Y-61556349D01*
X191729755Y-61374031D01*
X191792990Y-61179417D01*
X191825000Y-60977317D01*
X191825000Y-60772682D01*
X191792990Y-60570582D01*
X191729755Y-60375968D01*
X191636859Y-60193650D01*
X191604474Y-60149077D01*
X191604474Y-60149076D01*
X190925000Y-60828551D01*
X190925000Y-60822339D01*
X190897741Y-60720606D01*
X190845080Y-60629394D01*
X190770606Y-60554920D01*
X190679394Y-60502259D01*
X190577661Y-60475000D01*
X190571446Y-60475000D01*
X191250921Y-59795525D01*
X191247946Y-59757719D01*
X191262310Y-59689341D01*
X191311361Y-59639584D01*
X191332555Y-59630285D01*
X191394334Y-59609814D01*
X191543656Y-59517712D01*
X191667712Y-59393656D01*
X191759814Y-59244334D01*
X191814999Y-59077797D01*
X191825500Y-58975009D01*
X191825499Y-57774992D01*
X191814999Y-57672203D01*
X191759814Y-57505666D01*
X191667712Y-57356344D01*
X191543656Y-57232288D01*
X191394334Y-57140186D01*
X191227797Y-57085001D01*
X191227795Y-57085000D01*
X191125010Y-57074500D01*
X189924998Y-57074500D01*
X189924981Y-57074501D01*
X189822203Y-57085000D01*
X189822200Y-57085001D01*
X189655668Y-57140185D01*
X189655663Y-57140187D01*
X189506342Y-57232289D01*
X189382289Y-57356342D01*
X189290187Y-57505663D01*
X189290186Y-57505666D01*
X189235001Y-57672203D01*
X189235001Y-57672204D01*
X189235000Y-57672204D01*
X189224500Y-57774983D01*
X175825498Y-57774983D01*
X175814999Y-57672203D01*
X175759814Y-57505666D01*
X175667712Y-57356344D01*
X175543656Y-57232288D01*
X175394334Y-57140186D01*
X175227797Y-57085001D01*
X175227795Y-57085000D01*
X175125010Y-57074500D01*
X173924998Y-57074500D01*
X173924981Y-57074501D01*
X173822203Y-57085000D01*
X173822200Y-57085001D01*
X173655668Y-57140185D01*
X173655663Y-57140187D01*
X173506342Y-57232289D01*
X173382289Y-57356342D01*
X173290187Y-57505663D01*
X173290186Y-57505666D01*
X173235001Y-57672203D01*
X173235001Y-57672204D01*
X173235000Y-57672204D01*
X173224500Y-57774983D01*
X151025500Y-57774983D01*
X151025500Y-50724223D01*
X179224500Y-50724223D01*
X179224500Y-51025776D01*
X179224501Y-51025793D01*
X179263861Y-51324766D01*
X179341913Y-51616060D01*
X179457314Y-51894661D01*
X179457318Y-51894671D01*
X179608099Y-52155831D01*
X179791679Y-52395078D01*
X179791685Y-52395085D01*
X180004914Y-52608314D01*
X180004921Y-52608320D01*
X180244168Y-52791900D01*
X180505328Y-52942681D01*
X180505329Y-52942681D01*
X180505332Y-52942683D01*
X180691072Y-53019619D01*
X180783939Y-53058086D01*
X180783940Y-53058086D01*
X180783942Y-53058087D01*
X181075232Y-53136138D01*
X181374217Y-53175500D01*
X181374224Y-53175500D01*
X181675776Y-53175500D01*
X181675783Y-53175500D01*
X181974768Y-53136138D01*
X182266058Y-53058087D01*
X182544668Y-52942683D01*
X182805832Y-52791900D01*
X183045080Y-52608319D01*
X183258319Y-52395080D01*
X183441900Y-52155832D01*
X183592683Y-51894668D01*
X183708087Y-51616058D01*
X183786138Y-51324768D01*
X183825500Y-51025783D01*
X183825500Y-50724217D01*
X183786138Y-50425232D01*
X183708087Y-50133942D01*
X183592683Y-49855332D01*
X183441900Y-49594168D01*
X183258319Y-49354920D01*
X183258314Y-49354914D01*
X183045085Y-49141685D01*
X183045078Y-49141679D01*
X182805831Y-48958099D01*
X182544671Y-48807318D01*
X182544661Y-48807314D01*
X182266060Y-48691913D01*
X181974766Y-48613861D01*
X181675793Y-48574501D01*
X181675788Y-48574500D01*
X181675783Y-48574500D01*
X181374217Y-48574500D01*
X181374211Y-48574500D01*
X181374206Y-48574501D01*
X181075233Y-48613861D01*
X180783939Y-48691913D01*
X180505338Y-48807314D01*
X180505328Y-48807318D01*
X180244168Y-48958099D01*
X180004921Y-49141679D01*
X180004914Y-49141685D01*
X179791685Y-49354914D01*
X179791679Y-49354921D01*
X179608099Y-49594168D01*
X179457318Y-49855328D01*
X179457314Y-49855338D01*
X179341913Y-50133939D01*
X179263861Y-50425233D01*
X179224501Y-50724206D01*
X179224500Y-50724223D01*
X151025500Y-50724223D01*
X151025500Y-48098543D01*
X158765499Y-48098543D01*
X158803947Y-48291829D01*
X158803950Y-48291839D01*
X158879364Y-48473907D01*
X158879371Y-48473920D01*
X158988860Y-48637781D01*
X158988863Y-48637785D01*
X159128214Y-48777136D01*
X159128218Y-48777139D01*
X159292079Y-48886628D01*
X159292092Y-48886635D01*
X159464624Y-48958099D01*
X159474165Y-48962051D01*
X159474169Y-48962051D01*
X159474170Y-48962052D01*
X159667456Y-49000500D01*
X159667459Y-49000500D01*
X177388542Y-49000500D01*
X177419566Y-48994328D01*
X177485188Y-48981275D01*
X177581836Y-48962051D01*
X177635165Y-48939961D01*
X177763914Y-48886632D01*
X177927782Y-48777139D01*
X178067139Y-48637782D01*
X178067139Y-48637780D01*
X178077347Y-48627573D01*
X178077348Y-48627570D01*
X180711940Y-45992979D01*
X180773261Y-45959496D01*
X180831712Y-45960887D01*
X181075232Y-46026138D01*
X181374217Y-46065500D01*
X181374224Y-46065500D01*
X181675776Y-46065500D01*
X181675783Y-46065500D01*
X181974768Y-46026138D01*
X182266058Y-45948087D01*
X182544668Y-45832683D01*
X182805832Y-45681900D01*
X183045080Y-45498319D01*
X183258319Y-45285080D01*
X183441900Y-45045832D01*
X183592683Y-44784668D01*
X183708087Y-44506058D01*
X183786138Y-44214768D01*
X183825500Y-43915783D01*
X183825500Y-43614217D01*
X183786138Y-43315232D01*
X183708087Y-43023942D01*
X183592683Y-42745332D01*
X183441900Y-42484168D01*
X183258319Y-42244920D01*
X183258314Y-42244914D01*
X183045085Y-42031685D01*
X183045078Y-42031679D01*
X182805831Y-41848099D01*
X182544671Y-41697318D01*
X182544661Y-41697314D01*
X182266060Y-41581913D01*
X181974766Y-41503861D01*
X181675793Y-41464501D01*
X181675788Y-41464500D01*
X181675783Y-41464500D01*
X181374217Y-41464500D01*
X181374211Y-41464500D01*
X181374206Y-41464501D01*
X181075233Y-41503861D01*
X180783939Y-41581913D01*
X180505338Y-41697314D01*
X180505328Y-41697318D01*
X180244168Y-41848099D01*
X180004921Y-42031679D01*
X180004914Y-42031685D01*
X179791685Y-42244914D01*
X179791679Y-42244921D01*
X179608099Y-42484168D01*
X179457318Y-42745328D01*
X179457314Y-42745338D01*
X179341913Y-43023939D01*
X179263861Y-43315233D01*
X179224501Y-43614206D01*
X179224500Y-43614223D01*
X179224500Y-43915776D01*
X179224501Y-43915793D01*
X179263861Y-44214766D01*
X179329112Y-44458285D01*
X179327449Y-44528135D01*
X179297018Y-44578059D01*
X176911899Y-46963181D01*
X176850576Y-46996666D01*
X176824218Y-46999500D01*
X159667457Y-46999500D01*
X159474170Y-47037947D01*
X159474160Y-47037950D01*
X159292092Y-47113364D01*
X159292079Y-47113371D01*
X159128218Y-47222860D01*
X159128214Y-47222863D01*
X158988863Y-47362214D01*
X158988860Y-47362218D01*
X158879371Y-47526079D01*
X158879364Y-47526092D01*
X158803950Y-47708160D01*
X158803947Y-47708170D01*
X158765500Y-47901456D01*
X158765500Y-47901459D01*
X158765500Y-48098541D01*
X158765500Y-48098543D01*
X158765499Y-48098543D01*
X151025500Y-48098543D01*
X151025500Y-36742561D01*
X192504500Y-36742561D01*
X192504500Y-37007438D01*
X192526027Y-37170945D01*
X192539072Y-37270026D01*
X192561999Y-37355589D01*
X192607623Y-37525864D01*
X192708978Y-37770555D01*
X192708982Y-37770565D01*
X192841410Y-37999937D01*
X193002646Y-38210064D01*
X193002652Y-38210071D01*
X193189928Y-38397347D01*
X193189935Y-38397353D01*
X193400062Y-38558589D01*
X193629434Y-38691017D01*
X193629435Y-38691017D01*
X193629438Y-38691019D01*
X193792571Y-38758591D01*
X193874135Y-38792376D01*
X193874136Y-38792376D01*
X193874138Y-38792377D01*
X194129974Y-38860928D01*
X194392569Y-38895500D01*
X194392576Y-38895500D01*
X194657424Y-38895500D01*
X194657431Y-38895500D01*
X194920026Y-38860928D01*
X195175862Y-38792377D01*
X195420562Y-38691019D01*
X195649938Y-38558589D01*
X195860066Y-38397352D01*
X196047352Y-38210066D01*
X196208589Y-37999938D01*
X196341019Y-37770562D01*
X196442377Y-37525862D01*
X196510928Y-37270026D01*
X196545500Y-37007431D01*
X196545500Y-36742569D01*
X196510928Y-36479974D01*
X196442377Y-36224138D01*
X196341019Y-35979438D01*
X196338965Y-35975881D01*
X196208589Y-35750062D01*
X196047353Y-35539935D01*
X196047347Y-35539928D01*
X195860071Y-35352652D01*
X195860064Y-35352646D01*
X195649937Y-35191410D01*
X195420565Y-35058982D01*
X195420555Y-35058978D01*
X195175864Y-34957623D01*
X195047944Y-34923347D01*
X194920026Y-34889072D01*
X194861671Y-34881389D01*
X194657438Y-34854500D01*
X194657431Y-34854500D01*
X194392569Y-34854500D01*
X194392561Y-34854500D01*
X194159151Y-34885230D01*
X194129974Y-34889072D01*
X194066015Y-34906209D01*
X193874135Y-34957623D01*
X193629444Y-35058978D01*
X193629434Y-35058982D01*
X193400062Y-35191410D01*
X193189935Y-35352646D01*
X193189928Y-35352652D01*
X193002652Y-35539928D01*
X193002646Y-35539935D01*
X192841410Y-35750062D01*
X192708982Y-35979434D01*
X192708978Y-35979444D01*
X192607623Y-36224135D01*
X192539072Y-36479975D01*
X192504500Y-36742561D01*
X151025500Y-36742561D01*
X151025500Y-33499500D01*
X151045185Y-33432461D01*
X151097989Y-33386706D01*
X151149500Y-33375500D01*
X197900500Y-33375500D01*
X197967539Y-33395185D01*
G37*
%TD.AperFunction*%
%TD*%
M02*
