M48
; DRILL file KiCad 10.0.2 date 2026-05-29T09:27:56
; FORMAT={-:-/ absolute / metric / decimal}
; #@! TF.CreationDate,2026-05-29T09:27:56-04:00
; #@! TF.GenerationSoftware,Kicad,Pcbnew,10.0.2
; #@! TF.FileFunction,Plated,1,2,PTH
FMAT,2
METRIC
; #@! TA.AperFunction,Plated,PTH,ViaDrill
T1C0.200
; #@! TA.AperFunction,Plated,PTH,ViaDrill
T2C0.300
; #@! TA.AperFunction,Plated,PTH,ViaDrill
T3C0.400
; #@! TA.AperFunction,Plated,PTH,ViaDrill
T4C0.406
; #@! TA.AperFunction,Plated,PTH,ViaDrill
T5C0.600
; #@! TA.AperFunction,Plated,PTH,ComponentDrill
T6C0.800
; #@! TA.AperFunction,Plated,PTH,ComponentDrill
T7C0.813
; #@! TA.AperFunction,Plated,PTH,ComponentDrill
T8C0.920
; #@! TA.AperFunction,Plated,PTH,ComponentDrill
T9C0.950
; #@! TA.AperFunction,Plated,PTH,ComponentDrill
T10C1.000
; #@! TA.AperFunction,Plated,PTH,ComponentDrill
T11C1.016
; #@! TA.AperFunction,Plated,PTH,ComponentDrill
T12C1.100
; #@! TA.AperFunction,Plated,PTH,ComponentDrill
T13C1.200
; #@! TA.AperFunction,Plated,PTH,ComponentDrill
T14C1.300
; #@! TA.AperFunction,Plated,PTH,ComponentDrill
T15C1.600
; #@! TA.AperFunction,Plated,PTH,ComponentDrill
T16C2.300
; #@! TA.AperFunction,Plated,PTH,ComponentDrill
T17C2.500
%
G90
G05
T1
X220.75Y-97.9
T2
X44.5Y-172.85
X45.4Y-142.2
X46.0Y-102.6
X46.35Y-60.1
X53.3Y-183.55
X53.6Y-112.6
X56.1Y-38.2
X56.35Y-79.4
X56.6Y-142.65
X57.0Y-30.3
X57.05Y-152.45
X57.15Y-119.3
X57.4Y-101.7
X57.6Y-160.4
X57.7Y-71.3
X58.0Y-60.5
X58.8Y-45.75
X58.95Y-19.75
X69.75Y-174.6
X71.0Y-22.95
X71.05Y-185.9
X71.1Y-83.55
X71.15Y-37.0
X71.15Y-54.1
X71.15Y-68.6
X71.25Y-30.55
X71.25Y-46.4
X71.3Y-61.4
X71.3Y-74.85
X71.3Y-93.85
X71.35Y-101.6
X71.4Y-140.75
X71.45Y-132.9
X71.5Y-148.2
X71.55Y-110.5
X71.65Y-124.85
X71.7Y-153.85
X71.75Y-117.45
X71.75Y-161.75
X72.2Y-169.25
X75.8Y-45.15
X76.5Y-169.25
X78.5Y-178.8
X79.4Y-85.75
X79.55Y-170.55
X79.8Y-94.9
X79.95Y-45.2
X81.1Y-67.4
X81.1Y-72.2
X82.25Y-173.7
X82.4Y-127.5
X84.25Y-109.9
X84.25Y-119.0
X84.25Y-136.6
X84.45Y-88.15
X84.45Y-94.05
X84.5Y-121.4
X84.55Y-175.75
X84.9Y-149.2
X85.95Y-177.85
X86.0Y-63.9
X88.2Y-45.8
X88.2Y-163.8
X89.9Y-178.4
X89.9Y-180.3
X90.2Y-34.45
X91.15Y-181.2
X92.2Y-113.5
X92.45Y-51.8
X93.05Y-181.25
X93.6Y-89.35
X95.25Y-125.45
X95.8Y-170.0
X96.6Y-92.85
X97.65Y-107.6
X98.75Y-157.95
X100.0Y-43.8
X101.45Y-96.3
X101.65Y-103.7
X102.65Y-37.65
X102.8Y-163.2
X103.65Y-47.3
X105.15Y-58.7
X105.15Y-62.6
X105.15Y-100.0
X105.6Y-50.65
X108.4Y-77.45
X108.45Y-148.95
X110.35Y-114.0
X110.45Y-120.7
X110.5Y-94.45
X111.5Y-138.4
X112.4Y-108.9
X112.55Y-166.1
X112.6Y-179.6
X112.75Y-73.55
X112.9Y-107.15
X113.25Y-79.4
X113.25Y-131.85
X113.7Y-125.6
X113.75Y-110.1
X114.8Y-89.8
X116.9Y-100.8
X118.05Y-49.6
X119.2Y-58.0
X119.9Y-97.5
X120.0Y-40.65
X120.25Y-133.2
X120.55Y-127.65
X120.7Y-130.2
X120.75Y-121.0
X120.8Y-109.3
X120.8Y-137.95
X120.85Y-123.75
X121.05Y-81.9
X121.15Y-112.85
X121.3Y-179.7
X121.6Y-73.5
X122.2Y-170.4
X123.45Y-145.3
X123.9Y-164.1
X124.4Y-30.85
X125.275Y-106.925
X127.5Y-75.2
X127.6Y-65.6
X127.75Y-178.2
X127.8Y-70.05
X128.15Y-105.0
X128.25Y-82.3
X129.25Y-45.15
X130.55Y-25.15
X130.8Y-69.15
X131.05Y-123.25
X131.65Y-94.35
X131.65Y-174.55
X132.0Y-72.55
X132.25Y-180.6
X132.35Y-179.3
X132.8Y-147.35
X132.8Y-177.7
X133.0Y-181.1
X133.85Y-64.85
X133.85Y-109.35
X134.5Y-56.7
X134.95Y-81.35
X135.05Y-181.1
X135.1Y-69.5
X135.1Y-106.25
X135.55Y-61.35
X136.55Y-65.5
X136.6Y-116.6
X137.075Y-92.925
X137.15Y-72.0
X137.2Y-181.05
X137.25Y-60.35
X138.7Y-92.55
X139.86Y-56.21
X140.0Y-65.15
X140.65Y-100.15
X140.8Y-88.75
X140.95Y-71.7
X141.35Y-114.15
X141.5Y-94.95
X141.6Y-90.9
X142.55Y-134.9
X142.75Y-64.8
X142.85Y-67.8
X143.05Y-61.65
X143.45Y-44.0
X144.1Y-46.05
X144.15Y-124.6
X145.15Y-71.45
X145.35Y-84.25
X145.9Y-51.15
X145.95Y-64.8
X146.1Y-178.1
X146.65Y-61.6
X146.9Y-106.4
X146.95Y-90.6
X147.8Y-80.6
X148.1Y-69.75
X149.344Y-39.6
X149.6Y-90.8
X150.15Y-109.4
X150.15Y-118.7
X150.2Y-100.05
X150.35Y-85.2
X151.35Y-176.95
X151.65Y-160.2
X151.85Y-21.0
X151.95Y-63.83
X152.15Y-61.2
X152.15Y-66.9
X152.5Y-92.2
X152.8Y-41.05
X152.8Y-77.6
X152.9Y-34.1
X153.26Y-96.64
X153.35Y-65.95
X154.3Y-129.45
X154.5Y-96.75
X154.6Y-65.15
X154.85Y-98.95
X155.05Y-91.35
X155.6Y-51.35
X155.825Y-96.675
X155.9Y-72.5
X156.35Y-114.1
X156.6Y-40.65
X156.9Y-99.1
X157.1Y-62.7
X157.35Y-117.0
X157.4Y-177.85
X157.95Y-184.25
X158.0Y-82.2
X158.7Y-40.5
X158.8Y-50.7
X159.65Y-62.0
X160.05Y-158.95
X160.3Y-61.4
X160.35Y-83.2
X160.35Y-85.25
X160.95Y-60.75
X161.25Y-72.25
X161.3Y-40.6
X161.5Y-56.85
X161.55Y-151.75
X161.65Y-51.25
X161.65Y-60.15
X161.8Y-79.8
X162.0Y-72.95
X162.1Y-88.2
X162.75Y-73.75
X163.45Y-74.55
X163.5Y-97.25
X163.8Y-61.15
X164.0Y-55.0
X164.15Y-65.85
X164.55Y-60.6
X164.65Y-36.55
X164.7Y-82.4
X165.25Y-40.85
X165.25Y-59.95
X165.45Y-178.9
X165.55Y-171.85
X165.6Y-167.05
X165.9Y-59.1
X166.05Y-163.45
X166.4Y-92.0
X167.7Y-70.75
X167.8Y-76.8
X168.15Y-172.05
X168.5Y-87.9
X168.6Y-89.5
X169.05Y-22.3
X169.05Y-41.45
X169.65Y-63.8
X169.65Y-149.7
X170.55Y-47.2
X170.65Y-43.1
X171.1Y-77.5
X171.85Y-72.95
X171.95Y-169.1
X172.05Y-141.65
X172.1Y-121.45
X173.0Y-83.0
X173.1Y-184.6
X173.65Y-107.4
X173.8Y-18.15
X174.5Y-50.95
X174.8Y-58.9
X174.9Y-61.25
X175.0Y-158.15
X176.3Y-94.1
X176.7Y-40.95
X176.75Y-114.4
X177.25Y-46.95
X177.8Y-89.5
X178.4Y-58.95
X178.6Y-61.2
X179.55Y-170.95
X180.25Y-61.4
X181.3Y-86.75
X181.6Y-46.35
X181.7Y-53.95
X182.0Y-58.45
X182.4Y-134.4
X183.5Y-91.0
X184.1Y-56.35
X184.2Y-118.2
X184.55Y-83.1
X184.95Y-38.45
X184.95Y-49.8
X186.8Y-53.85
X187.4Y-160.85
X187.45Y-78.05
X187.8Y-34.55
X188.9Y-145.1
X189.1Y-52.15
X189.3Y-93.0
X189.45Y-35.3
X189.45Y-41.35
X190.35Y-83.15
X190.45Y-85.6
X191.0Y-54.05
X191.1Y-34.75
X191.15Y-38.4
X191.15Y-43.05
X191.25Y-49.8
X192.3Y-48.65
X192.9Y-47.05
X192.95Y-40.6
X193.25Y-51.7
X193.25Y-83.0
X193.25Y-85.6
X193.7Y-107.85
X193.85Y-31.25
X193.85Y-32.85
X193.9Y-29.8
X193.95Y-35.15
X194.45Y-38.45
X194.55Y-46.1
X194.75Y-40.55
X195.05Y-31.25
X195.1Y-44.55
X195.15Y-58.9
X195.2Y-29.8
X195.2Y-32.8
X195.2Y-35.05
X196.15Y-85.6
X196.35Y-83.05
X197.0Y-86.65
X197.0Y-98.45
X197.9Y-46.5
X198.15Y-61.65
X198.2Y-34.25
X198.65Y-30.1
X199.25Y-79.5
X199.3Y-18.65
X199.3Y-37.65
X200.0Y-44.55
X200.15Y-102.35
X200.85Y-38.5
X201.1Y-36.1
X201.65Y-70.85
X201.65Y-77.0
X201.8Y-43.0
X202.2Y-37.1
X202.25Y-47.6
X203.2Y-82.55
X203.65Y-41.3
X203.85Y-106.05
X204.25Y-34.25
X204.35Y-76.95
X204.7Y-120.55
X204.75Y-86.6
X205.25Y-91.4
X205.85Y-68.05
X206.0Y-35.45
X206.45Y-82.55
X206.75Y-27.0
X206.8Y-95.95
X206.85Y-59.1
X206.9Y-28.75
X206.9Y-67.15
X207.25Y-33.95
X207.25Y-36.95
X207.45Y-76.85
X207.65Y-30.6
X207.675Y-73.625
X208.1Y-151.0
X208.1Y-174.5
X208.5Y-56.75
X208.65Y-42.0
X208.95Y-53.75
X209.3Y-106.7
X209.65Y-98.8
X210.25Y-30.8
X210.25Y-33.95
X210.8Y-27.45
X211.25Y-79.75
X211.35Y-63.15
X212.25Y-115.25
X212.5Y-33.9
X214.3Y-67.0
X214.3Y-88.9
X214.95Y-34.0
X215.15Y-27.05
X215.5Y-54.25
X215.7Y-97.074
X216.15Y-107.7
X217.5Y-77.01
X217.65Y-30.7
X218.0Y-68.0
X218.6Y-92.6
X218.7Y-37.75
X218.85Y-61.8
X218.9Y-44.1
X219.6Y-33.9
X220.9Y-35.5
X221.25Y-93.2
X221.4Y-55.65
X222.55Y-18.0
X222.55Y-37.45
X222.6Y-95.55
X223.15Y-102.35
X223.2Y-97.55
X223.55Y-29.85
X224.4Y-35.6
X224.5Y-72.15
X224.5Y-76.8
X225.2Y-97.05
X226.1Y-95.6
X226.7Y-45.15
X226.8Y-56.8
X226.9Y-34.0
X227.0Y-105.35
X227.3Y-82.3
X227.6Y-74.05
X227.65Y-70.1
X227.85Y-29.85
X228.9Y-77.95
X229.1Y-95.6
X229.15Y-87.0
X229.2Y-171.5
X229.25Y-54.0
X229.55Y-125.25
X229.65Y-61.85
X229.9Y-95.7
X230.4Y-66.7
X230.4Y-117.3
X230.7Y-95.7
X231.35Y-45.65
X231.45Y-38.8
X232.5Y-74.2
X233.55Y-77.15
X234.1Y-72.1
X234.4Y-148.4
X234.9Y-72.1
X235.2Y-53.95
X235.2Y-75.55
X235.35Y-49.5
X235.75Y-72.05
X236.6Y-72.1
X236.85Y-90.5
X237.6Y-72.1
X239.35Y-102.2
X240.1Y-31.8
X242.0Y-65.65
X242.05Y-68.3
X242.05Y-70.7
X242.1Y-73.3
X242.1Y-86.0
X242.15Y-75.8
X242.15Y-78.2
X242.15Y-80.7
T3
X96.15Y-138.25
X101.65Y-136.15
X105.55Y-136.15
X113.5Y-65.9
X114.0Y-71.35
X122.0Y-71.65
X122.55Y-67.95
X124.35Y-119.5
X127.25Y-102.35
X135.9Y-91.65
X139.3Y-89.15
X139.5Y-81.45
X139.5Y-83.362
X140.976Y-76.924
X143.565Y-69.415
X144.335Y-70.185
X145.15Y-74.8
X146.7Y-71.85
X146.95Y-76.35
X153.341Y-122.906
X153.341Y-123.994
X158.4Y-99.95
X162.3Y-82.8
X165.806Y-135.85
X166.894Y-135.85
X167.15Y-79.2
X183.3Y-169.306
X183.3Y-170.394
X184.7Y-34.2
X186.8Y-46.85
X189.45Y-61.25
X190.075Y-50.875
X194.05Y-60.55
X199.8Y-59.65
X205.55Y-44.65
X212.7Y-28.35
X215.0Y-44.6
X215.5Y-37.8
X231.05Y-82.4
X231.1Y-74.35
X232.05Y-92.65
T4
X54.25Y-154.85
X54.75Y-74.85
X55.45Y-33.15
X55.65Y-113.85
X81.5Y-76.7
X84.05Y-54.05
X84.05Y-79.25
X84.2Y-90.55
X84.6Y-106.25
X85.15Y-81.55
X85.45Y-55.15
X88.15Y-106.95
X88.15Y-106.95
X88.15Y-117.85
X89.6Y-90.55
X89.8Y-114.6
X90.95Y-116.8
X91.6Y-60.85
X93.0Y-90.55
X93.7Y-76.95
X93.85Y-101.0
X96.1Y-67.25
X96.85Y-45.2
X97.6Y-94.6
X98.25Y-45.35
X98.25Y-52.95
X99.7Y-39.6
X99.75Y-94.85
X99.8Y-48.6
X99.8Y-74.65
X100.35Y-70.5
X102.1Y-99.3
X102.25Y-88.0
X102.9Y-75.95
X103.15Y-130.9
X103.25Y-125.1
X103.55Y-50.2
X103.65Y-84.9
X106.375Y-102.675
X106.65Y-89.95
X108.85Y-140.7
X109.0Y-106.15
X110.0Y-59.45
X111.15Y-108.2
X111.35Y-76.2
X115.7Y-83.0
X115.8Y-92.9
X117.25Y-77.95
X119.2Y-76.2
X125.95Y-117.05
X127.1Y-108.8
X127.4Y-78.75
X127.8Y-63.2
X138.7Y-60.95
X139.45Y-77.15
X142.35Y-93.7
X143.75Y-50.1
X144.45Y-64.9
X147.0Y-93.7
X147.556Y-51.244
X147.65Y-97.7
X148.175Y-74.525
X148.3Y-65.0
X152.462Y-57.451
X153.1Y-52.7
X153.5Y-60.8
X153.75Y-80.0
X153.9Y-74.35
X156.9Y-106.35
X157.55Y-56.3
X159.2Y-87.5
X159.2Y-92.55
X161.725Y-102.025
X164.25Y-75.9
X165.65Y-62.4
X165.8Y-57.6
X167.15Y-82.05
X169.575Y-80.325
X169.75Y-88.728
X169.75Y-95.9
X170.5Y-85.9
X172.05Y-114.65
X172.65Y-64.828
X172.85Y-70.4
X172.9Y-52.45
X173.2Y-61.3
X173.35Y-54.75
X173.45Y-57.7
X173.45Y-134.05
X174.05Y-40.5
X176.7Y-61.176
X179.1Y-91.45
X180.188Y-54.75
X181.7Y-64.4
X182.4Y-52.45
X183.75Y-62.55
X187.0Y-90.65
X189.2Y-54.1
X191.7Y-90.65
X194.05Y-128.05
X194.7Y-89.994
X196.05Y-39.5
X196.6Y-92.6
X196.9Y-79.4
X201.3Y-91.8
X203.9Y-100.15
X205.3Y-32.4
X215.15Y-73.8
X215.85Y-76.55
X217.2Y-89.85
X217.7Y-102.3
X223.85Y-62.6
X223.85Y-82.55
X225.5Y-67.1
X230.95Y-70.9
T5
X172.8Y-175.7
T6
X52.4Y-53.95
X52.95Y-133.55
X53.0Y-94.7
X54.35Y-171.6
X62.4Y-53.95
X62.95Y-133.55
X63.0Y-94.7
X64.35Y-171.6
X128.45Y-67.95
X132.82Y-42.05
X138.61Y-67.95
X142.98Y-42.05
X160.37Y-145.85
X170.53Y-145.85
X173.1Y-91.52
X173.1Y-101.68
X174.46Y-152.66
X177.0Y-152.66
X177.05Y-135.12
X177.05Y-145.28
X179.54Y-152.66
X180.0Y-97.72
X180.0Y-107.88
X182.25Y-32.97
X182.25Y-43.13
X210.52Y-85.35
X220.68Y-85.35
T7
X84.78Y-20.13
X84.78Y-22.67
X84.78Y-25.21
X84.78Y-27.75
X92.4Y-20.13
X92.4Y-22.67
X92.4Y-25.21
X92.4Y-27.75
X95.237Y-20.13
X95.237Y-22.67
X95.237Y-25.21
X95.237Y-27.75
X102.857Y-20.13
X102.857Y-22.67
X102.857Y-25.21
X102.857Y-27.75
X105.693Y-20.13
X105.693Y-22.67
X105.693Y-25.21
X105.693Y-27.75
X113.313Y-20.13
X113.313Y-22.67
X113.313Y-25.21
X113.313Y-27.75
X116.15Y-20.13
X116.15Y-22.67
X116.15Y-25.21
X116.15Y-27.75
X123.77Y-20.13
X123.77Y-22.67
X123.77Y-25.21
X123.77Y-27.75
T8
X184.5Y-181.2
X187.0Y-181.2
X189.0Y-181.2
X191.5Y-181.2
X238.222Y-42.9
X238.222Y-45.4
X238.222Y-47.4
X238.222Y-49.9
T9
X49.15Y-34.05
X49.15Y-36.55
X49.15Y-39.05
X49.15Y-41.55
X49.15Y-44.05
X49.15Y-46.55
X49.25Y-75.6
X49.25Y-78.1
X49.25Y-80.6
X49.25Y-83.1
X49.25Y-85.6
X49.25Y-88.1
X49.25Y-155.8
X49.25Y-158.3
X49.25Y-160.8
X49.25Y-163.3
X49.25Y-165.8
X49.25Y-168.3
X49.3Y-115.15
X49.3Y-117.65
X49.3Y-120.15
X49.3Y-122.65
X49.3Y-125.15
X49.3Y-127.65
X131.6Y-75.35
X134.1Y-75.35
X136.6Y-75.35
X186.3Y-132.55
X186.3Y-135.05
X186.3Y-137.55
X192.15Y-132.55
X192.15Y-135.05
X192.15Y-137.55
X198.0Y-132.55
X198.0Y-135.05
X198.0Y-137.55
X203.85Y-132.55
X203.85Y-135.05
X203.85Y-137.55
X211.8Y-132.5
X211.8Y-135.0
X211.8Y-137.5
X219.1Y-132.5
X219.1Y-135.0
X219.1Y-137.5
T10
X65.9Y-20.59
X65.9Y-23.13
X65.9Y-25.67
X65.9Y-28.21
X65.9Y-30.75
X65.9Y-33.29
X65.9Y-35.83
X65.9Y-38.37
X65.9Y-144.9
X65.9Y-147.44
X65.9Y-149.98
X65.9Y-152.52
X65.9Y-155.06
X65.9Y-157.6
X65.9Y-160.14
X65.9Y-162.68
X66.05Y-62.5
X66.05Y-65.04
X66.05Y-67.58
X66.05Y-70.12
X66.05Y-72.66
X66.05Y-75.2
X66.05Y-77.74
X66.05Y-80.28
X66.05Y-104.91
X66.05Y-107.45
X66.05Y-109.99
X66.05Y-112.53
X66.05Y-115.07
X66.05Y-117.61
X66.05Y-120.15
X66.05Y-122.69
X78.3Y-20.59
X78.3Y-23.13
X78.3Y-25.67
X78.3Y-28.21
X78.3Y-30.75
X78.3Y-33.29
X78.3Y-35.83
X78.3Y-38.37
X78.3Y-144.9
X78.3Y-147.44
X78.3Y-149.98
X78.3Y-152.52
X78.3Y-155.06
X78.3Y-157.6
X78.3Y-160.14
X78.3Y-162.68
X78.45Y-62.5
X78.45Y-65.04
X78.45Y-67.58
X78.45Y-70.12
X78.45Y-72.66
X78.45Y-75.2
X78.45Y-77.74
X78.45Y-80.28
X78.45Y-104.91
X78.45Y-107.45
X78.45Y-109.99
X78.45Y-112.53
X78.45Y-115.07
X78.45Y-117.61
X78.45Y-120.15
X78.45Y-122.69
T11
X65.7Y-178.44
X65.7Y-180.98
X65.7Y-183.52
X88.1Y-176.26
X90.64Y-176.26
X91.32Y-84.4
X93.18Y-176.26
X93.86Y-84.4
X96.4Y-84.4
X123.28Y-92.65
X125.82Y-92.65
X128.36Y-92.65
X134.7Y-179.25
X137.24Y-179.25
X139.78Y-179.25
X184.76Y-27.5
X187.3Y-27.5
X189.84Y-27.5
X192.38Y-27.5
X194.92Y-27.5
X197.46Y-27.5
X200.0Y-27.5
X202.54Y-27.5
X218.14Y-27.5
X220.68Y-27.5
X223.22Y-27.5
X225.76Y-27.5
X228.3Y-27.5
X230.84Y-27.5
X233.38Y-27.5
X235.92Y-27.5
X240.05Y-63.09
X240.05Y-65.63
X240.05Y-68.17
X240.05Y-70.71
X240.05Y-73.25
X240.05Y-75.79
X240.05Y-78.33
X240.05Y-80.87
X240.05Y-83.41
X240.05Y-85.95
T12
X133.2Y-32.9
X133.2Y-37.4
X139.7Y-32.9
X139.7Y-37.4
X179.7Y-68.8
X179.7Y-73.3
X186.2Y-68.8
X186.2Y-73.3
T13
X160.95Y-184.617
X164.45Y-184.617
T14
X149.1Y-184.117
X154.1Y-184.117
T15
X140.78Y-171.0
X142.13Y-151.2
X156.02Y-171.0
X157.37Y-151.2
X161.65Y-163.46
X161.65Y-178.7
X212.53Y-49.95
X227.77Y-49.95
T16
X181.325Y-183.91
X194.675Y-183.91
X240.932Y-39.725
X240.932Y-53.075
T17
X129.55Y-59.55
X129.85Y-53.7
M30
