%TF.GenerationSoftware,KiCad,Pcbnew,10.0.2*%
%TF.CreationDate,2026-05-29T09:28:03-04:00*%
%TF.ProjectId,Mainboard Layout No daisy chain cp2102 moved,4d61696e-626f-4617-9264-204c61796f75,rev?*%
%TF.SameCoordinates,Original*%
%TF.FileFunction,Legend,Top*%
%TF.FilePolarity,Positive*%
%FSLAX46Y46*%
G04 Gerber Fmt 4.6, Leading zero omitted, Abs format (unit mm)*
G04 Created by KiCad (PCBNEW 10.0.2) date 2026-05-29 09:28:03*
%MOMM*%
%LPD*%
G01*
G04 APERTURE LIST*
G04 Aperture macros list*
%AMRoundRect*
0 Rectangle with rounded corners*
0 $1 Rounding radius*
0 $2 $3 $4 $5 $6 $7 $8 $9 X,Y pos of 4 corners*
0 Add a 4 corners polygon primitive as box body*
4,1,4,$2,$3,$4,$5,$6,$7,$8,$9,$2,$3,0*
0 Add four circle primitives for the rounded corners*
1,1,$1+$1,$2,$3*
1,1,$1+$1,$4,$5*
1,1,$1+$1,$6,$7*
1,1,$1+$1,$8,$9*
0 Add four rect primitives between the rounded corners*
20,1,$1+$1,$2,$3,$4,$5,0*
20,1,$1+$1,$4,$5,$6,$7,0*
20,1,$1+$1,$6,$7,$8,$9,0*
20,1,$1+$1,$8,$9,$2,$3,0*%
G04 Aperture macros list end*
%ADD10C,0.300000*%
%ADD11C,0.150000*%
%ADD12C,0.120000*%
%ADD13C,0.152400*%
%ADD14C,0.000000*%
%ADD15RoundRect,0.200000X0.275000X-0.200000X0.275000X0.200000X-0.275000X0.200000X-0.275000X-0.200000X0*%
%ADD16C,1.600000*%
%ADD17RoundRect,0.250000X0.725000X-0.600000X0.725000X0.600000X-0.725000X0.600000X-0.725000X-0.600000X0*%
%ADD18O,1.950000X1.700000*%
%ADD19RoundRect,0.250000X0.262500X0.450000X-0.262500X0.450000X-0.262500X-0.450000X0.262500X-0.450000X0*%
%ADD20RoundRect,0.250000X1.350000X1.350000X-1.350000X1.350000X-1.350000X-1.350000X1.350000X-1.350000X0*%
%ADD21C,3.200000*%
%ADD22R,1.700000X1.700000*%
%ADD23C,1.700000*%
%ADD24RoundRect,0.102000X-0.736600X-0.177800X0.736600X-0.177800X0.736600X0.177800X-0.736600X0.177800X0*%
%ADD25RoundRect,0.250000X-0.325000X-1.100000X0.325000X-1.100000X0.325000X1.100000X-0.325000X1.100000X0*%
%ADD26RoundRect,0.250000X0.325000X1.100000X-0.325000X1.100000X-0.325000X-1.100000X0.325000X-1.100000X0*%
%ADD27RoundRect,0.250000X0.475000X-0.250000X0.475000X0.250000X-0.475000X0.250000X-0.475000X-0.250000X0*%
%ADD28R,1.320800X1.320800*%
%ADD29C,1.320800*%
%ADD30RoundRect,0.250000X0.450000X-0.262500X0.450000X0.262500X-0.450000X0.262500X-0.450000X-0.262500X0*%
%ADD31RoundRect,0.250000X0.250000X0.475000X-0.250000X0.475000X-0.250000X-0.475000X0.250000X-0.475000X0*%
%ADD32R,0.965200X0.254000*%
%ADD33R,0.254000X0.965200*%
%ADD34R,3.352800X3.352800*%
%ADD35RoundRect,0.250000X-0.725000X0.600000X-0.725000X-0.600000X0.725000X-0.600000X0.725000X0.600000X0*%
%ADD36RoundRect,0.250001X-0.949999X-0.949999X0.949999X-0.949999X0.949999X0.949999X-0.949999X0.949999X0*%
%ADD37C,2.400000*%
%ADD38RoundRect,0.250000X1.350000X-1.350000X1.350000X1.350000X-1.350000X1.350000X-1.350000X-1.350000X0*%
%ADD39RoundRect,0.250000X-0.262500X-0.450000X0.262500X-0.450000X0.262500X0.450000X-0.262500X0.450000X0*%
%ADD40RoundRect,0.243750X-0.456250X0.243750X-0.456250X-0.243750X0.456250X-0.243750X0.456250X0.243750X0*%
%ADD41C,1.879600*%
%ADD42C,2.000000*%
%ADD43RoundRect,0.225000X-0.425000X-0.225000X0.425000X-0.225000X0.425000X0.225000X-0.425000X0.225000X0*%
%ADD44RoundRect,0.225000X-0.625000X-0.225000X0.625000X-0.225000X0.625000X0.225000X-0.625000X0.225000X0*%
%ADD45RoundRect,0.250000X1.312500X-0.616500X1.312500X0.616500X-1.312500X0.616500X-1.312500X-0.616500X0*%
%ADD46RoundRect,0.250000X-1.050000X-1.050000X1.050000X-1.050000X1.050000X1.050000X-1.050000X1.050000X0*%
%ADD47C,2.600000*%
%ADD48RoundRect,0.243750X0.243750X0.456250X-0.243750X0.456250X-0.243750X-0.456250X0.243750X-0.456250X0*%
%ADD49C,4.000000*%
%ADD50RoundRect,0.250000X-0.450000X0.262500X-0.450000X-0.262500X0.450000X-0.262500X0.450000X0.262500X0*%
%ADD51RoundRect,0.250000X-0.600000X-0.725000X0.600000X-0.725000X0.600000X0.725000X-0.600000X0.725000X0*%
%ADD52O,1.700000X1.950000*%
%ADD53RoundRect,0.218750X0.256250X-0.218750X0.256250X0.218750X-0.256250X0.218750X-0.256250X-0.218750X0*%
%ADD54RoundRect,0.250000X-1.100000X0.325000X-1.100000X-0.325000X1.100000X-0.325000X1.100000X0.325000X0*%
%ADD55RoundRect,0.250000X-0.475000X0.250000X-0.475000X-0.250000X0.475000X-0.250000X0.475000X0.250000X0*%
%ADD56RoundRect,0.250000X0.512000X-0.512000X0.512000X0.512000X-0.512000X0.512000X-0.512000X-0.512000X0*%
%ADD57C,1.524000*%
%ADD58C,3.500000*%
%ADD59RoundRect,0.250000X0.625000X-0.400000X0.625000X0.400000X-0.625000X0.400000X-0.625000X-0.400000X0*%
%ADD60RoundRect,0.250000X-0.512000X-0.512000X0.512000X-0.512000X0.512000X0.512000X-0.512000X0.512000X0*%
%ADD61RoundRect,0.200000X-0.275000X0.200000X-0.275000X-0.200000X0.275000X-0.200000X0.275000X0.200000X0*%
%ADD62R,1.500000X0.900000*%
%ADD63R,0.900000X1.500000*%
%ADD64R,0.900000X0.900000*%
%ADD65R,1.500000X1.500000*%
%ADD66C,1.500000*%
%TA.AperFunction,Profile*%
%ADD67C,0.200000*%
%TD*%
G04 APERTURE END LIST*
D10*
X65240225Y-185500828D02*
X65740225Y-187000828D01*
X65740225Y-187000828D02*
X66240225Y-185500828D01*
X67025939Y-185500828D02*
X67311653Y-185500828D01*
X67311653Y-185500828D02*
X67454510Y-185572257D01*
X67454510Y-185572257D02*
X67597367Y-185715114D01*
X67597367Y-185715114D02*
X67668796Y-186000828D01*
X67668796Y-186000828D02*
X67668796Y-186500828D01*
X67668796Y-186500828D02*
X67597367Y-186786542D01*
X67597367Y-186786542D02*
X67454510Y-186929400D01*
X67454510Y-186929400D02*
X67311653Y-187000828D01*
X67311653Y-187000828D02*
X67025939Y-187000828D01*
X67025939Y-187000828D02*
X66883082Y-186929400D01*
X66883082Y-186929400D02*
X66740224Y-186786542D01*
X66740224Y-186786542D02*
X66668796Y-186500828D01*
X66668796Y-186500828D02*
X66668796Y-186000828D01*
X66668796Y-186000828D02*
X66740224Y-185715114D01*
X66740224Y-185715114D02*
X66883082Y-185572257D01*
X66883082Y-185572257D02*
X67025939Y-185500828D01*
X68311653Y-185500828D02*
X68311653Y-186715114D01*
X68311653Y-186715114D02*
X68383082Y-186857971D01*
X68383082Y-186857971D02*
X68454511Y-186929400D01*
X68454511Y-186929400D02*
X68597368Y-187000828D01*
X68597368Y-187000828D02*
X68883082Y-187000828D01*
X68883082Y-187000828D02*
X69025939Y-186929400D01*
X69025939Y-186929400D02*
X69097368Y-186857971D01*
X69097368Y-186857971D02*
X69168796Y-186715114D01*
X69168796Y-186715114D02*
X69168796Y-185500828D01*
X69668797Y-185500828D02*
X70525940Y-185500828D01*
X70097368Y-187000828D02*
X70097368Y-185500828D01*
X93190225Y-172700828D02*
X93690225Y-174200828D01*
X93690225Y-174200828D02*
X94190225Y-172700828D01*
X94975939Y-172700828D02*
X95261653Y-172700828D01*
X95261653Y-172700828D02*
X95404510Y-172772257D01*
X95404510Y-172772257D02*
X95547367Y-172915114D01*
X95547367Y-172915114D02*
X95618796Y-173200828D01*
X95618796Y-173200828D02*
X95618796Y-173700828D01*
X95618796Y-173700828D02*
X95547367Y-173986542D01*
X95547367Y-173986542D02*
X95404510Y-174129400D01*
X95404510Y-174129400D02*
X95261653Y-174200828D01*
X95261653Y-174200828D02*
X94975939Y-174200828D01*
X94975939Y-174200828D02*
X94833082Y-174129400D01*
X94833082Y-174129400D02*
X94690224Y-173986542D01*
X94690224Y-173986542D02*
X94618796Y-173700828D01*
X94618796Y-173700828D02*
X94618796Y-173200828D01*
X94618796Y-173200828D02*
X94690224Y-172915114D01*
X94690224Y-172915114D02*
X94833082Y-172772257D01*
X94833082Y-172772257D02*
X94975939Y-172700828D01*
X96261653Y-172700828D02*
X96261653Y-173915114D01*
X96261653Y-173915114D02*
X96333082Y-174057971D01*
X96333082Y-174057971D02*
X96404511Y-174129400D01*
X96404511Y-174129400D02*
X96547368Y-174200828D01*
X96547368Y-174200828D02*
X96833082Y-174200828D01*
X96833082Y-174200828D02*
X96975939Y-174129400D01*
X96975939Y-174129400D02*
X97047368Y-174057971D01*
X97047368Y-174057971D02*
X97118796Y-173915114D01*
X97118796Y-173915114D02*
X97118796Y-172700828D01*
X97618797Y-172700828D02*
X98475940Y-172700828D01*
X98047368Y-174200828D02*
X98047368Y-172700828D01*
X98690225Y-82350828D02*
X99190225Y-83850828D01*
X99190225Y-83850828D02*
X99690225Y-82350828D01*
X100475939Y-82350828D02*
X100761653Y-82350828D01*
X100761653Y-82350828D02*
X100904510Y-82422257D01*
X100904510Y-82422257D02*
X101047367Y-82565114D01*
X101047367Y-82565114D02*
X101118796Y-82850828D01*
X101118796Y-82850828D02*
X101118796Y-83350828D01*
X101118796Y-83350828D02*
X101047367Y-83636542D01*
X101047367Y-83636542D02*
X100904510Y-83779400D01*
X100904510Y-83779400D02*
X100761653Y-83850828D01*
X100761653Y-83850828D02*
X100475939Y-83850828D01*
X100475939Y-83850828D02*
X100333082Y-83779400D01*
X100333082Y-83779400D02*
X100190224Y-83636542D01*
X100190224Y-83636542D02*
X100118796Y-83350828D01*
X100118796Y-83350828D02*
X100118796Y-82850828D01*
X100118796Y-82850828D02*
X100190224Y-82565114D01*
X100190224Y-82565114D02*
X100333082Y-82422257D01*
X100333082Y-82422257D02*
X100475939Y-82350828D01*
X101761653Y-82350828D02*
X101761653Y-83565114D01*
X101761653Y-83565114D02*
X101833082Y-83707971D01*
X101833082Y-83707971D02*
X101904511Y-83779400D01*
X101904511Y-83779400D02*
X102047368Y-83850828D01*
X102047368Y-83850828D02*
X102333082Y-83850828D01*
X102333082Y-83850828D02*
X102475939Y-83779400D01*
X102475939Y-83779400D02*
X102547368Y-83707971D01*
X102547368Y-83707971D02*
X102618796Y-83565114D01*
X102618796Y-83565114D02*
X102618796Y-82350828D01*
X103118797Y-82350828D02*
X103975940Y-82350828D01*
X103547368Y-83850828D02*
X103547368Y-82350828D01*
X119440225Y-94800828D02*
X119940225Y-96300828D01*
X119940225Y-96300828D02*
X120440225Y-94800828D01*
X121225939Y-94800828D02*
X121511653Y-94800828D01*
X121511653Y-94800828D02*
X121654510Y-94872257D01*
X121654510Y-94872257D02*
X121797367Y-95015114D01*
X121797367Y-95015114D02*
X121868796Y-95300828D01*
X121868796Y-95300828D02*
X121868796Y-95800828D01*
X121868796Y-95800828D02*
X121797367Y-96086542D01*
X121797367Y-96086542D02*
X121654510Y-96229400D01*
X121654510Y-96229400D02*
X121511653Y-96300828D01*
X121511653Y-96300828D02*
X121225939Y-96300828D01*
X121225939Y-96300828D02*
X121083082Y-96229400D01*
X121083082Y-96229400D02*
X120940224Y-96086542D01*
X120940224Y-96086542D02*
X120868796Y-95800828D01*
X120868796Y-95800828D02*
X120868796Y-95300828D01*
X120868796Y-95300828D02*
X120940224Y-95015114D01*
X120940224Y-95015114D02*
X121083082Y-94872257D01*
X121083082Y-94872257D02*
X121225939Y-94800828D01*
X122511653Y-94800828D02*
X122511653Y-96015114D01*
X122511653Y-96015114D02*
X122583082Y-96157971D01*
X122583082Y-96157971D02*
X122654511Y-96229400D01*
X122654511Y-96229400D02*
X122797368Y-96300828D01*
X122797368Y-96300828D02*
X123083082Y-96300828D01*
X123083082Y-96300828D02*
X123225939Y-96229400D01*
X123225939Y-96229400D02*
X123297368Y-96157971D01*
X123297368Y-96157971D02*
X123368796Y-96015114D01*
X123368796Y-96015114D02*
X123368796Y-94800828D01*
X123868797Y-94800828D02*
X124725940Y-94800828D01*
X124297368Y-96300828D02*
X124297368Y-94800828D01*
X127990225Y-178700828D02*
X128490225Y-180200828D01*
X128490225Y-180200828D02*
X128990225Y-178700828D01*
X129775939Y-178700828D02*
X130061653Y-178700828D01*
X130061653Y-178700828D02*
X130204510Y-178772257D01*
X130204510Y-178772257D02*
X130347367Y-178915114D01*
X130347367Y-178915114D02*
X130418796Y-179200828D01*
X130418796Y-179200828D02*
X130418796Y-179700828D01*
X130418796Y-179700828D02*
X130347367Y-179986542D01*
X130347367Y-179986542D02*
X130204510Y-180129400D01*
X130204510Y-180129400D02*
X130061653Y-180200828D01*
X130061653Y-180200828D02*
X129775939Y-180200828D01*
X129775939Y-180200828D02*
X129633082Y-180129400D01*
X129633082Y-180129400D02*
X129490224Y-179986542D01*
X129490224Y-179986542D02*
X129418796Y-179700828D01*
X129418796Y-179700828D02*
X129418796Y-179200828D01*
X129418796Y-179200828D02*
X129490224Y-178915114D01*
X129490224Y-178915114D02*
X129633082Y-178772257D01*
X129633082Y-178772257D02*
X129775939Y-178700828D01*
X131061653Y-178700828D02*
X131061653Y-179915114D01*
X131061653Y-179915114D02*
X131133082Y-180057971D01*
X131133082Y-180057971D02*
X131204511Y-180129400D01*
X131204511Y-180129400D02*
X131347368Y-180200828D01*
X131347368Y-180200828D02*
X131633082Y-180200828D01*
X131633082Y-180200828D02*
X131775939Y-180129400D01*
X131775939Y-180129400D02*
X131847368Y-180057971D01*
X131847368Y-180057971D02*
X131918796Y-179915114D01*
X131918796Y-179915114D02*
X131918796Y-178700828D01*
X132418797Y-178700828D02*
X133275940Y-178700828D01*
X132847368Y-180200828D02*
X132847368Y-178700828D01*
D11*
X57307142Y-136909580D02*
X57259523Y-136957200D01*
X57259523Y-136957200D02*
X57116666Y-137004819D01*
X57116666Y-137004819D02*
X57021428Y-137004819D01*
X57021428Y-137004819D02*
X56878571Y-136957200D01*
X56878571Y-136957200D02*
X56783333Y-136861961D01*
X56783333Y-136861961D02*
X56735714Y-136766723D01*
X56735714Y-136766723D02*
X56688095Y-136576247D01*
X56688095Y-136576247D02*
X56688095Y-136433390D01*
X56688095Y-136433390D02*
X56735714Y-136242914D01*
X56735714Y-136242914D02*
X56783333Y-136147676D01*
X56783333Y-136147676D02*
X56878571Y-136052438D01*
X56878571Y-136052438D02*
X57021428Y-136004819D01*
X57021428Y-136004819D02*
X57116666Y-136004819D01*
X57116666Y-136004819D02*
X57259523Y-136052438D01*
X57259523Y-136052438D02*
X57307142Y-136100057D01*
X58259523Y-137004819D02*
X57688095Y-137004819D01*
X57973809Y-137004819D02*
X57973809Y-136004819D01*
X57973809Y-136004819D02*
X57878571Y-136147676D01*
X57878571Y-136147676D02*
X57783333Y-136242914D01*
X57783333Y-136242914D02*
X57688095Y-136290533D01*
X58878571Y-136004819D02*
X58973809Y-136004819D01*
X58973809Y-136004819D02*
X59069047Y-136052438D01*
X59069047Y-136052438D02*
X59116666Y-136100057D01*
X59116666Y-136100057D02*
X59164285Y-136195295D01*
X59164285Y-136195295D02*
X59211904Y-136385771D01*
X59211904Y-136385771D02*
X59211904Y-136623866D01*
X59211904Y-136623866D02*
X59164285Y-136814342D01*
X59164285Y-136814342D02*
X59116666Y-136909580D01*
X59116666Y-136909580D02*
X59069047Y-136957200D01*
X59069047Y-136957200D02*
X58973809Y-137004819D01*
X58973809Y-137004819D02*
X58878571Y-137004819D01*
X58878571Y-137004819D02*
X58783333Y-136957200D01*
X58783333Y-136957200D02*
X58735714Y-136909580D01*
X58735714Y-136909580D02*
X58688095Y-136814342D01*
X58688095Y-136814342D02*
X58640476Y-136623866D01*
X58640476Y-136623866D02*
X58640476Y-136385771D01*
X58640476Y-136385771D02*
X58688095Y-136195295D01*
X58688095Y-136195295D02*
X58735714Y-136100057D01*
X58735714Y-136100057D02*
X58783333Y-136052438D01*
X58783333Y-136052438D02*
X58878571Y-136004819D01*
X45904819Y-82183333D02*
X46619104Y-82183333D01*
X46619104Y-82183333D02*
X46761961Y-82230952D01*
X46761961Y-82230952D02*
X46857200Y-82326190D01*
X46857200Y-82326190D02*
X46904819Y-82469047D01*
X46904819Y-82469047D02*
X46904819Y-82564285D01*
X45904819Y-81278571D02*
X45904819Y-81469047D01*
X45904819Y-81469047D02*
X45952438Y-81564285D01*
X45952438Y-81564285D02*
X46000057Y-81611904D01*
X46000057Y-81611904D02*
X46142914Y-81707142D01*
X46142914Y-81707142D02*
X46333390Y-81754761D01*
X46333390Y-81754761D02*
X46714342Y-81754761D01*
X46714342Y-81754761D02*
X46809580Y-81707142D01*
X46809580Y-81707142D02*
X46857200Y-81659523D01*
X46857200Y-81659523D02*
X46904819Y-81564285D01*
X46904819Y-81564285D02*
X46904819Y-81373809D01*
X46904819Y-81373809D02*
X46857200Y-81278571D01*
X46857200Y-81278571D02*
X46809580Y-81230952D01*
X46809580Y-81230952D02*
X46714342Y-81183333D01*
X46714342Y-81183333D02*
X46476247Y-81183333D01*
X46476247Y-81183333D02*
X46381009Y-81230952D01*
X46381009Y-81230952D02*
X46333390Y-81278571D01*
X46333390Y-81278571D02*
X46285771Y-81373809D01*
X46285771Y-81373809D02*
X46285771Y-81564285D01*
X46285771Y-81564285D02*
X46333390Y-81659523D01*
X46333390Y-81659523D02*
X46381009Y-81707142D01*
X46381009Y-81707142D02*
X46476247Y-81754761D01*
X161907142Y-105554819D02*
X161573809Y-105078628D01*
X161335714Y-105554819D02*
X161335714Y-104554819D01*
X161335714Y-104554819D02*
X161716666Y-104554819D01*
X161716666Y-104554819D02*
X161811904Y-104602438D01*
X161811904Y-104602438D02*
X161859523Y-104650057D01*
X161859523Y-104650057D02*
X161907142Y-104745295D01*
X161907142Y-104745295D02*
X161907142Y-104888152D01*
X161907142Y-104888152D02*
X161859523Y-104983390D01*
X161859523Y-104983390D02*
X161811904Y-105031009D01*
X161811904Y-105031009D02*
X161716666Y-105078628D01*
X161716666Y-105078628D02*
X161335714Y-105078628D01*
X162811904Y-104554819D02*
X162335714Y-104554819D01*
X162335714Y-104554819D02*
X162288095Y-105031009D01*
X162288095Y-105031009D02*
X162335714Y-104983390D01*
X162335714Y-104983390D02*
X162430952Y-104935771D01*
X162430952Y-104935771D02*
X162669047Y-104935771D01*
X162669047Y-104935771D02*
X162764285Y-104983390D01*
X162764285Y-104983390D02*
X162811904Y-105031009D01*
X162811904Y-105031009D02*
X162859523Y-105126247D01*
X162859523Y-105126247D02*
X162859523Y-105364342D01*
X162859523Y-105364342D02*
X162811904Y-105459580D01*
X162811904Y-105459580D02*
X162764285Y-105507200D01*
X162764285Y-105507200D02*
X162669047Y-105554819D01*
X162669047Y-105554819D02*
X162430952Y-105554819D01*
X162430952Y-105554819D02*
X162335714Y-105507200D01*
X162335714Y-105507200D02*
X162288095Y-105459580D01*
X163764285Y-104554819D02*
X163288095Y-104554819D01*
X163288095Y-104554819D02*
X163240476Y-105031009D01*
X163240476Y-105031009D02*
X163288095Y-104983390D01*
X163288095Y-104983390D02*
X163383333Y-104935771D01*
X163383333Y-104935771D02*
X163621428Y-104935771D01*
X163621428Y-104935771D02*
X163716666Y-104983390D01*
X163716666Y-104983390D02*
X163764285Y-105031009D01*
X163764285Y-105031009D02*
X163811904Y-105126247D01*
X163811904Y-105126247D02*
X163811904Y-105364342D01*
X163811904Y-105364342D02*
X163764285Y-105459580D01*
X163764285Y-105459580D02*
X163716666Y-105507200D01*
X163716666Y-105507200D02*
X163621428Y-105554819D01*
X163621428Y-105554819D02*
X163383333Y-105554819D01*
X163383333Y-105554819D02*
X163288095Y-105507200D01*
X163288095Y-105507200D02*
X163240476Y-105459580D01*
X219411905Y-54124819D02*
X219411905Y-53124819D01*
X219411905Y-53124819D02*
X219650000Y-53124819D01*
X219650000Y-53124819D02*
X219792857Y-53172438D01*
X219792857Y-53172438D02*
X219888095Y-53267676D01*
X219888095Y-53267676D02*
X219935714Y-53362914D01*
X219935714Y-53362914D02*
X219983333Y-53553390D01*
X219983333Y-53553390D02*
X219983333Y-53696247D01*
X219983333Y-53696247D02*
X219935714Y-53886723D01*
X219935714Y-53886723D02*
X219888095Y-53981961D01*
X219888095Y-53981961D02*
X219792857Y-54077200D01*
X219792857Y-54077200D02*
X219650000Y-54124819D01*
X219650000Y-54124819D02*
X219411905Y-54124819D01*
X220364286Y-53220057D02*
X220411905Y-53172438D01*
X220411905Y-53172438D02*
X220507143Y-53124819D01*
X220507143Y-53124819D02*
X220745238Y-53124819D01*
X220745238Y-53124819D02*
X220840476Y-53172438D01*
X220840476Y-53172438D02*
X220888095Y-53220057D01*
X220888095Y-53220057D02*
X220935714Y-53315295D01*
X220935714Y-53315295D02*
X220935714Y-53410533D01*
X220935714Y-53410533D02*
X220888095Y-53553390D01*
X220888095Y-53553390D02*
X220316667Y-54124819D01*
X220316667Y-54124819D02*
X220935714Y-54124819D01*
X227508095Y-53004819D02*
X227508095Y-52004819D01*
X228079523Y-53004819D02*
X227650952Y-52433390D01*
X228079523Y-52004819D02*
X227508095Y-52576247D01*
X65090476Y-141974819D02*
X65090476Y-142689104D01*
X65090476Y-142689104D02*
X65042857Y-142831961D01*
X65042857Y-142831961D02*
X64947619Y-142927200D01*
X64947619Y-142927200D02*
X64804762Y-142974819D01*
X64804762Y-142974819D02*
X64709524Y-142974819D01*
X66090476Y-142974819D02*
X65519048Y-142974819D01*
X65804762Y-142974819D02*
X65804762Y-141974819D01*
X65804762Y-141974819D02*
X65709524Y-142117676D01*
X65709524Y-142117676D02*
X65614286Y-142212914D01*
X65614286Y-142212914D02*
X65519048Y-142260533D01*
X66566667Y-142974819D02*
X66757143Y-142974819D01*
X66757143Y-142974819D02*
X66852381Y-142927200D01*
X66852381Y-142927200D02*
X66900000Y-142879580D01*
X66900000Y-142879580D02*
X66995238Y-142736723D01*
X66995238Y-142736723D02*
X67042857Y-142546247D01*
X67042857Y-142546247D02*
X67042857Y-142165295D01*
X67042857Y-142165295D02*
X66995238Y-142070057D01*
X66995238Y-142070057D02*
X66947619Y-142022438D01*
X66947619Y-142022438D02*
X66852381Y-141974819D01*
X66852381Y-141974819D02*
X66661905Y-141974819D01*
X66661905Y-141974819D02*
X66566667Y-142022438D01*
X66566667Y-142022438D02*
X66519048Y-142070057D01*
X66519048Y-142070057D02*
X66471429Y-142165295D01*
X66471429Y-142165295D02*
X66471429Y-142403390D01*
X66471429Y-142403390D02*
X66519048Y-142498628D01*
X66519048Y-142498628D02*
X66566667Y-142546247D01*
X66566667Y-142546247D02*
X66661905Y-142593866D01*
X66661905Y-142593866D02*
X66852381Y-142593866D01*
X66852381Y-142593866D02*
X66947619Y-142546247D01*
X66947619Y-142546247D02*
X66995238Y-142498628D01*
X66995238Y-142498628D02*
X67042857Y-142403390D01*
X151653276Y-80542547D02*
X151653276Y-81870676D01*
X151653276Y-81870676D02*
X151731401Y-82026926D01*
X151731401Y-82026926D02*
X151809526Y-82105052D01*
X151809526Y-82105052D02*
X151965777Y-82183177D01*
X151965777Y-82183177D02*
X152278278Y-82183177D01*
X152278278Y-82183177D02*
X152434528Y-82105052D01*
X152434528Y-82105052D02*
X152512653Y-82026926D01*
X152512653Y-82026926D02*
X152590779Y-81870676D01*
X152590779Y-81870676D02*
X152590779Y-80542547D01*
X153293905Y-80698797D02*
X153372031Y-80620672D01*
X153372031Y-80620672D02*
X153528281Y-80542547D01*
X153528281Y-80542547D02*
X153918907Y-80542547D01*
X153918907Y-80542547D02*
X154075158Y-80620672D01*
X154075158Y-80620672D02*
X154153283Y-80698797D01*
X154153283Y-80698797D02*
X154231408Y-80855048D01*
X154231408Y-80855048D02*
X154231408Y-81011298D01*
X154231408Y-81011298D02*
X154153283Y-81245674D01*
X154153283Y-81245674D02*
X153215780Y-82183177D01*
X153215780Y-82183177D02*
X154231408Y-82183177D01*
X132887142Y-66034819D02*
X132553809Y-65558628D01*
X132315714Y-66034819D02*
X132315714Y-65034819D01*
X132315714Y-65034819D02*
X132696666Y-65034819D01*
X132696666Y-65034819D02*
X132791904Y-65082438D01*
X132791904Y-65082438D02*
X132839523Y-65130057D01*
X132839523Y-65130057D02*
X132887142Y-65225295D01*
X132887142Y-65225295D02*
X132887142Y-65368152D01*
X132887142Y-65368152D02*
X132839523Y-65463390D01*
X132839523Y-65463390D02*
X132791904Y-65511009D01*
X132791904Y-65511009D02*
X132696666Y-65558628D01*
X132696666Y-65558628D02*
X132315714Y-65558628D01*
X133791904Y-65034819D02*
X133315714Y-65034819D01*
X133315714Y-65034819D02*
X133268095Y-65511009D01*
X133268095Y-65511009D02*
X133315714Y-65463390D01*
X133315714Y-65463390D02*
X133410952Y-65415771D01*
X133410952Y-65415771D02*
X133649047Y-65415771D01*
X133649047Y-65415771D02*
X133744285Y-65463390D01*
X133744285Y-65463390D02*
X133791904Y-65511009D01*
X133791904Y-65511009D02*
X133839523Y-65606247D01*
X133839523Y-65606247D02*
X133839523Y-65844342D01*
X133839523Y-65844342D02*
X133791904Y-65939580D01*
X133791904Y-65939580D02*
X133744285Y-65987200D01*
X133744285Y-65987200D02*
X133649047Y-66034819D01*
X133649047Y-66034819D02*
X133410952Y-66034819D01*
X133410952Y-66034819D02*
X133315714Y-65987200D01*
X133315714Y-65987200D02*
X133268095Y-65939580D01*
X134458571Y-65034819D02*
X134553809Y-65034819D01*
X134553809Y-65034819D02*
X134649047Y-65082438D01*
X134649047Y-65082438D02*
X134696666Y-65130057D01*
X134696666Y-65130057D02*
X134744285Y-65225295D01*
X134744285Y-65225295D02*
X134791904Y-65415771D01*
X134791904Y-65415771D02*
X134791904Y-65653866D01*
X134791904Y-65653866D02*
X134744285Y-65844342D01*
X134744285Y-65844342D02*
X134696666Y-65939580D01*
X134696666Y-65939580D02*
X134649047Y-65987200D01*
X134649047Y-65987200D02*
X134553809Y-66034819D01*
X134553809Y-66034819D02*
X134458571Y-66034819D01*
X134458571Y-66034819D02*
X134363333Y-65987200D01*
X134363333Y-65987200D02*
X134315714Y-65939580D01*
X134315714Y-65939580D02*
X134268095Y-65844342D01*
X134268095Y-65844342D02*
X134220476Y-65653866D01*
X134220476Y-65653866D02*
X134220476Y-65415771D01*
X134220476Y-65415771D02*
X134268095Y-65225295D01*
X134268095Y-65225295D02*
X134315714Y-65130057D01*
X134315714Y-65130057D02*
X134363333Y-65082438D01*
X134363333Y-65082438D02*
X134458571Y-65034819D01*
X65240476Y-101984819D02*
X65240476Y-102699104D01*
X65240476Y-102699104D02*
X65192857Y-102841961D01*
X65192857Y-102841961D02*
X65097619Y-102937200D01*
X65097619Y-102937200D02*
X64954762Y-102984819D01*
X64954762Y-102984819D02*
X64859524Y-102984819D01*
X66240476Y-102984819D02*
X65669048Y-102984819D01*
X65954762Y-102984819D02*
X65954762Y-101984819D01*
X65954762Y-101984819D02*
X65859524Y-102127676D01*
X65859524Y-102127676D02*
X65764286Y-102222914D01*
X65764286Y-102222914D02*
X65669048Y-102270533D01*
X66811905Y-102413390D02*
X66716667Y-102365771D01*
X66716667Y-102365771D02*
X66669048Y-102318152D01*
X66669048Y-102318152D02*
X66621429Y-102222914D01*
X66621429Y-102222914D02*
X66621429Y-102175295D01*
X66621429Y-102175295D02*
X66669048Y-102080057D01*
X66669048Y-102080057D02*
X66716667Y-102032438D01*
X66716667Y-102032438D02*
X66811905Y-101984819D01*
X66811905Y-101984819D02*
X67002381Y-101984819D01*
X67002381Y-101984819D02*
X67097619Y-102032438D01*
X67097619Y-102032438D02*
X67145238Y-102080057D01*
X67145238Y-102080057D02*
X67192857Y-102175295D01*
X67192857Y-102175295D02*
X67192857Y-102222914D01*
X67192857Y-102222914D02*
X67145238Y-102318152D01*
X67145238Y-102318152D02*
X67097619Y-102365771D01*
X67097619Y-102365771D02*
X67002381Y-102413390D01*
X67002381Y-102413390D02*
X66811905Y-102413390D01*
X66811905Y-102413390D02*
X66716667Y-102461009D01*
X66716667Y-102461009D02*
X66669048Y-102508628D01*
X66669048Y-102508628D02*
X66621429Y-102603866D01*
X66621429Y-102603866D02*
X66621429Y-102794342D01*
X66621429Y-102794342D02*
X66669048Y-102889580D01*
X66669048Y-102889580D02*
X66716667Y-102937200D01*
X66716667Y-102937200D02*
X66811905Y-102984819D01*
X66811905Y-102984819D02*
X67002381Y-102984819D01*
X67002381Y-102984819D02*
X67097619Y-102937200D01*
X67097619Y-102937200D02*
X67145238Y-102889580D01*
X67145238Y-102889580D02*
X67192857Y-102794342D01*
X67192857Y-102794342D02*
X67192857Y-102603866D01*
X67192857Y-102603866D02*
X67145238Y-102508628D01*
X67145238Y-102508628D02*
X67097619Y-102461009D01*
X67097619Y-102461009D02*
X67002381Y-102413390D01*
X159107142Y-126854819D02*
X158773809Y-126378628D01*
X158535714Y-126854819D02*
X158535714Y-125854819D01*
X158535714Y-125854819D02*
X158916666Y-125854819D01*
X158916666Y-125854819D02*
X159011904Y-125902438D01*
X159011904Y-125902438D02*
X159059523Y-125950057D01*
X159059523Y-125950057D02*
X159107142Y-126045295D01*
X159107142Y-126045295D02*
X159107142Y-126188152D01*
X159107142Y-126188152D02*
X159059523Y-126283390D01*
X159059523Y-126283390D02*
X159011904Y-126331009D01*
X159011904Y-126331009D02*
X158916666Y-126378628D01*
X158916666Y-126378628D02*
X158535714Y-126378628D01*
X160059523Y-126854819D02*
X159488095Y-126854819D01*
X159773809Y-126854819D02*
X159773809Y-125854819D01*
X159773809Y-125854819D02*
X159678571Y-125997676D01*
X159678571Y-125997676D02*
X159583333Y-126092914D01*
X159583333Y-126092914D02*
X159488095Y-126140533D01*
X160916666Y-125854819D02*
X160726190Y-125854819D01*
X160726190Y-125854819D02*
X160630952Y-125902438D01*
X160630952Y-125902438D02*
X160583333Y-125950057D01*
X160583333Y-125950057D02*
X160488095Y-126092914D01*
X160488095Y-126092914D02*
X160440476Y-126283390D01*
X160440476Y-126283390D02*
X160440476Y-126664342D01*
X160440476Y-126664342D02*
X160488095Y-126759580D01*
X160488095Y-126759580D02*
X160535714Y-126807200D01*
X160535714Y-126807200D02*
X160630952Y-126854819D01*
X160630952Y-126854819D02*
X160821428Y-126854819D01*
X160821428Y-126854819D02*
X160916666Y-126807200D01*
X160916666Y-126807200D02*
X160964285Y-126759580D01*
X160964285Y-126759580D02*
X161011904Y-126664342D01*
X161011904Y-126664342D02*
X161011904Y-126426247D01*
X161011904Y-126426247D02*
X160964285Y-126331009D01*
X160964285Y-126331009D02*
X160916666Y-126283390D01*
X160916666Y-126283390D02*
X160821428Y-126235771D01*
X160821428Y-126235771D02*
X160630952Y-126235771D01*
X160630952Y-126235771D02*
X160535714Y-126283390D01*
X160535714Y-126283390D02*
X160488095Y-126331009D01*
X160488095Y-126331009D02*
X160440476Y-126426247D01*
X57833333Y-98059580D02*
X57785714Y-98107200D01*
X57785714Y-98107200D02*
X57642857Y-98154819D01*
X57642857Y-98154819D02*
X57547619Y-98154819D01*
X57547619Y-98154819D02*
X57404762Y-98107200D01*
X57404762Y-98107200D02*
X57309524Y-98011961D01*
X57309524Y-98011961D02*
X57261905Y-97916723D01*
X57261905Y-97916723D02*
X57214286Y-97726247D01*
X57214286Y-97726247D02*
X57214286Y-97583390D01*
X57214286Y-97583390D02*
X57261905Y-97392914D01*
X57261905Y-97392914D02*
X57309524Y-97297676D01*
X57309524Y-97297676D02*
X57404762Y-97202438D01*
X57404762Y-97202438D02*
X57547619Y-97154819D01*
X57547619Y-97154819D02*
X57642857Y-97154819D01*
X57642857Y-97154819D02*
X57785714Y-97202438D01*
X57785714Y-97202438D02*
X57833333Y-97250057D01*
X58738095Y-97154819D02*
X58261905Y-97154819D01*
X58261905Y-97154819D02*
X58214286Y-97631009D01*
X58214286Y-97631009D02*
X58261905Y-97583390D01*
X58261905Y-97583390D02*
X58357143Y-97535771D01*
X58357143Y-97535771D02*
X58595238Y-97535771D01*
X58595238Y-97535771D02*
X58690476Y-97583390D01*
X58690476Y-97583390D02*
X58738095Y-97631009D01*
X58738095Y-97631009D02*
X58785714Y-97726247D01*
X58785714Y-97726247D02*
X58785714Y-97964342D01*
X58785714Y-97964342D02*
X58738095Y-98059580D01*
X58738095Y-98059580D02*
X58690476Y-98107200D01*
X58690476Y-98107200D02*
X58595238Y-98154819D01*
X58595238Y-98154819D02*
X58357143Y-98154819D01*
X58357143Y-98154819D02*
X58261905Y-98107200D01*
X58261905Y-98107200D02*
X58214286Y-98059580D01*
X225329580Y-93216666D02*
X225377200Y-93264285D01*
X225377200Y-93264285D02*
X225424819Y-93407142D01*
X225424819Y-93407142D02*
X225424819Y-93502380D01*
X225424819Y-93502380D02*
X225377200Y-93645237D01*
X225377200Y-93645237D02*
X225281961Y-93740475D01*
X225281961Y-93740475D02*
X225186723Y-93788094D01*
X225186723Y-93788094D02*
X224996247Y-93835713D01*
X224996247Y-93835713D02*
X224853390Y-93835713D01*
X224853390Y-93835713D02*
X224662914Y-93788094D01*
X224662914Y-93788094D02*
X224567676Y-93740475D01*
X224567676Y-93740475D02*
X224472438Y-93645237D01*
X224472438Y-93645237D02*
X224424819Y-93502380D01*
X224424819Y-93502380D02*
X224424819Y-93407142D01*
X224424819Y-93407142D02*
X224472438Y-93264285D01*
X224472438Y-93264285D02*
X224520057Y-93216666D01*
X225424819Y-92740475D02*
X225424819Y-92549999D01*
X225424819Y-92549999D02*
X225377200Y-92454761D01*
X225377200Y-92454761D02*
X225329580Y-92407142D01*
X225329580Y-92407142D02*
X225186723Y-92311904D01*
X225186723Y-92311904D02*
X224996247Y-92264285D01*
X224996247Y-92264285D02*
X224615295Y-92264285D01*
X224615295Y-92264285D02*
X224520057Y-92311904D01*
X224520057Y-92311904D02*
X224472438Y-92359523D01*
X224472438Y-92359523D02*
X224424819Y-92454761D01*
X224424819Y-92454761D02*
X224424819Y-92645237D01*
X224424819Y-92645237D02*
X224472438Y-92740475D01*
X224472438Y-92740475D02*
X224520057Y-92788094D01*
X224520057Y-92788094D02*
X224615295Y-92835713D01*
X224615295Y-92835713D02*
X224853390Y-92835713D01*
X224853390Y-92835713D02*
X224948628Y-92788094D01*
X224948628Y-92788094D02*
X224996247Y-92740475D01*
X224996247Y-92740475D02*
X225043866Y-92645237D01*
X225043866Y-92645237D02*
X225043866Y-92454761D01*
X225043866Y-92454761D02*
X224996247Y-92359523D01*
X224996247Y-92359523D02*
X224948628Y-92311904D01*
X224948628Y-92311904D02*
X224853390Y-92264285D01*
X89923332Y-23532800D02*
X89780475Y-23485180D01*
X89780475Y-23485180D02*
X89542380Y-23485180D01*
X89542380Y-23485180D02*
X89447142Y-23532800D01*
X89447142Y-23532800D02*
X89399523Y-23580419D01*
X89399523Y-23580419D02*
X89351904Y-23675657D01*
X89351904Y-23675657D02*
X89351904Y-23770895D01*
X89351904Y-23770895D02*
X89399523Y-23866133D01*
X89399523Y-23866133D02*
X89447142Y-23913752D01*
X89447142Y-23913752D02*
X89542380Y-23961371D01*
X89542380Y-23961371D02*
X89732856Y-24008990D01*
X89732856Y-24008990D02*
X89828094Y-24056609D01*
X89828094Y-24056609D02*
X89875713Y-24104228D01*
X89875713Y-24104228D02*
X89923332Y-24199466D01*
X89923332Y-24199466D02*
X89923332Y-24294704D01*
X89923332Y-24294704D02*
X89875713Y-24389942D01*
X89875713Y-24389942D02*
X89828094Y-24437561D01*
X89828094Y-24437561D02*
X89732856Y-24485180D01*
X89732856Y-24485180D02*
X89494761Y-24485180D01*
X89494761Y-24485180D02*
X89351904Y-24437561D01*
X89018570Y-24485180D02*
X88780475Y-23485180D01*
X88780475Y-23485180D02*
X88589999Y-24199466D01*
X88589999Y-24199466D02*
X88399523Y-23485180D01*
X88399523Y-23485180D02*
X88161428Y-24485180D01*
X87875713Y-24485180D02*
X87256666Y-24485180D01*
X87256666Y-24485180D02*
X87589999Y-24104228D01*
X87589999Y-24104228D02*
X87447142Y-24104228D01*
X87447142Y-24104228D02*
X87351904Y-24056609D01*
X87351904Y-24056609D02*
X87304285Y-24008990D01*
X87304285Y-24008990D02*
X87256666Y-23913752D01*
X87256666Y-23913752D02*
X87256666Y-23675657D01*
X87256666Y-23675657D02*
X87304285Y-23580419D01*
X87304285Y-23580419D02*
X87351904Y-23532800D01*
X87351904Y-23532800D02*
X87447142Y-23485180D01*
X87447142Y-23485180D02*
X87732856Y-23485180D01*
X87732856Y-23485180D02*
X87828094Y-23532800D01*
X87828094Y-23532800D02*
X87875713Y-23580419D01*
X85729247Y-31978180D02*
X85538771Y-31978180D01*
X85538771Y-31978180D02*
X85443533Y-31930561D01*
X85443533Y-31930561D02*
X85348295Y-31835323D01*
X85348295Y-31835323D02*
X85300676Y-31644847D01*
X85300676Y-31644847D02*
X85300676Y-31311514D01*
X85300676Y-31311514D02*
X85348295Y-31121038D01*
X85348295Y-31121038D02*
X85443533Y-31025800D01*
X85443533Y-31025800D02*
X85538771Y-30978180D01*
X85538771Y-30978180D02*
X85729247Y-30978180D01*
X85729247Y-30978180D02*
X85824485Y-31025800D01*
X85824485Y-31025800D02*
X85919723Y-31121038D01*
X85919723Y-31121038D02*
X85967342Y-31311514D01*
X85967342Y-31311514D02*
X85967342Y-31644847D01*
X85967342Y-31644847D02*
X85919723Y-31835323D01*
X85919723Y-31835323D02*
X85824485Y-31930561D01*
X85824485Y-31930561D02*
X85729247Y-31978180D01*
X84872104Y-30978180D02*
X84872104Y-31978180D01*
X84872104Y-31978180D02*
X84300676Y-30978180D01*
X84300676Y-30978180D02*
X84300676Y-31978180D01*
X93022180Y-31978180D02*
X92831704Y-31978180D01*
X92831704Y-31978180D02*
X92736466Y-31930561D01*
X92736466Y-31930561D02*
X92641228Y-31835323D01*
X92641228Y-31835323D02*
X92593609Y-31644847D01*
X92593609Y-31644847D02*
X92593609Y-31311514D01*
X92593609Y-31311514D02*
X92641228Y-31121038D01*
X92641228Y-31121038D02*
X92736466Y-31025800D01*
X92736466Y-31025800D02*
X92831704Y-30978180D01*
X92831704Y-30978180D02*
X93022180Y-30978180D01*
X93022180Y-30978180D02*
X93117418Y-31025800D01*
X93117418Y-31025800D02*
X93212656Y-31121038D01*
X93212656Y-31121038D02*
X93260275Y-31311514D01*
X93260275Y-31311514D02*
X93260275Y-31644847D01*
X93260275Y-31644847D02*
X93212656Y-31835323D01*
X93212656Y-31835323D02*
X93117418Y-31930561D01*
X93117418Y-31930561D02*
X93022180Y-31978180D01*
X91831704Y-31501990D02*
X92165037Y-31501990D01*
X92165037Y-30978180D02*
X92165037Y-31978180D01*
X92165037Y-31978180D02*
X91688847Y-31978180D01*
X90974561Y-31501990D02*
X91307894Y-31501990D01*
X91307894Y-30978180D02*
X91307894Y-31978180D01*
X91307894Y-31978180D02*
X90831704Y-31978180D01*
X92400000Y-28627219D02*
X92400000Y-28865314D01*
X92161905Y-28770076D02*
X92400000Y-28865314D01*
X92400000Y-28865314D02*
X92638095Y-28770076D01*
X92257143Y-29055790D02*
X92400000Y-28865314D01*
X92400000Y-28865314D02*
X92542857Y-29055790D01*
X92399999Y-29717580D02*
X92399999Y-29479485D01*
X92638094Y-29574723D02*
X92399999Y-29479485D01*
X92399999Y-29479485D02*
X92161904Y-29574723D01*
X92542856Y-29289009D02*
X92399999Y-29479485D01*
X92399999Y-29479485D02*
X92257142Y-29289009D01*
X154604819Y-78616666D02*
X154128628Y-78949999D01*
X154604819Y-79188094D02*
X153604819Y-79188094D01*
X153604819Y-79188094D02*
X153604819Y-78807142D01*
X153604819Y-78807142D02*
X153652438Y-78711904D01*
X153652438Y-78711904D02*
X153700057Y-78664285D01*
X153700057Y-78664285D02*
X153795295Y-78616666D01*
X153795295Y-78616666D02*
X153938152Y-78616666D01*
X153938152Y-78616666D02*
X154033390Y-78664285D01*
X154033390Y-78664285D02*
X154081009Y-78711904D01*
X154081009Y-78711904D02*
X154128628Y-78807142D01*
X154128628Y-78807142D02*
X154128628Y-79188094D01*
X153700057Y-78235713D02*
X153652438Y-78188094D01*
X153652438Y-78188094D02*
X153604819Y-78092856D01*
X153604819Y-78092856D02*
X153604819Y-77854761D01*
X153604819Y-77854761D02*
X153652438Y-77759523D01*
X153652438Y-77759523D02*
X153700057Y-77711904D01*
X153700057Y-77711904D02*
X153795295Y-77664285D01*
X153795295Y-77664285D02*
X153890533Y-77664285D01*
X153890533Y-77664285D02*
X154033390Y-77711904D01*
X154033390Y-77711904D02*
X154604819Y-78283332D01*
X154604819Y-78283332D02*
X154604819Y-77664285D01*
X147661905Y-175174819D02*
X147661905Y-174174819D01*
X147661905Y-174174819D02*
X147900000Y-174174819D01*
X147900000Y-174174819D02*
X148042857Y-174222438D01*
X148042857Y-174222438D02*
X148138095Y-174317676D01*
X148138095Y-174317676D02*
X148185714Y-174412914D01*
X148185714Y-174412914D02*
X148233333Y-174603390D01*
X148233333Y-174603390D02*
X148233333Y-174746247D01*
X148233333Y-174746247D02*
X148185714Y-174936723D01*
X148185714Y-174936723D02*
X148138095Y-175031961D01*
X148138095Y-175031961D02*
X148042857Y-175127200D01*
X148042857Y-175127200D02*
X147900000Y-175174819D01*
X147900000Y-175174819D02*
X147661905Y-175174819D01*
X149185714Y-175174819D02*
X148614286Y-175174819D01*
X148900000Y-175174819D02*
X148900000Y-174174819D01*
X148900000Y-174174819D02*
X148804762Y-174317676D01*
X148804762Y-174317676D02*
X148709524Y-174412914D01*
X148709524Y-174412914D02*
X148614286Y-174460533D01*
X155758095Y-174054819D02*
X155758095Y-173054819D01*
X156329523Y-174054819D02*
X155900952Y-173483390D01*
X156329523Y-173054819D02*
X155758095Y-173626247D01*
X150507142Y-99939580D02*
X150459523Y-99987200D01*
X150459523Y-99987200D02*
X150316666Y-100034819D01*
X150316666Y-100034819D02*
X150221428Y-100034819D01*
X150221428Y-100034819D02*
X150078571Y-99987200D01*
X150078571Y-99987200D02*
X149983333Y-99891961D01*
X149983333Y-99891961D02*
X149935714Y-99796723D01*
X149935714Y-99796723D02*
X149888095Y-99606247D01*
X149888095Y-99606247D02*
X149888095Y-99463390D01*
X149888095Y-99463390D02*
X149935714Y-99272914D01*
X149935714Y-99272914D02*
X149983333Y-99177676D01*
X149983333Y-99177676D02*
X150078571Y-99082438D01*
X150078571Y-99082438D02*
X150221428Y-99034819D01*
X150221428Y-99034819D02*
X150316666Y-99034819D01*
X150316666Y-99034819D02*
X150459523Y-99082438D01*
X150459523Y-99082438D02*
X150507142Y-99130057D01*
X150888095Y-99130057D02*
X150935714Y-99082438D01*
X150935714Y-99082438D02*
X151030952Y-99034819D01*
X151030952Y-99034819D02*
X151269047Y-99034819D01*
X151269047Y-99034819D02*
X151364285Y-99082438D01*
X151364285Y-99082438D02*
X151411904Y-99130057D01*
X151411904Y-99130057D02*
X151459523Y-99225295D01*
X151459523Y-99225295D02*
X151459523Y-99320533D01*
X151459523Y-99320533D02*
X151411904Y-99463390D01*
X151411904Y-99463390D02*
X150840476Y-100034819D01*
X150840476Y-100034819D02*
X151459523Y-100034819D01*
X151792857Y-99034819D02*
X152411904Y-99034819D01*
X152411904Y-99034819D02*
X152078571Y-99415771D01*
X152078571Y-99415771D02*
X152221428Y-99415771D01*
X152221428Y-99415771D02*
X152316666Y-99463390D01*
X152316666Y-99463390D02*
X152364285Y-99511009D01*
X152364285Y-99511009D02*
X152411904Y-99606247D01*
X152411904Y-99606247D02*
X152411904Y-99844342D01*
X152411904Y-99844342D02*
X152364285Y-99939580D01*
X152364285Y-99939580D02*
X152316666Y-99987200D01*
X152316666Y-99987200D02*
X152221428Y-100034819D01*
X152221428Y-100034819D02*
X151935714Y-100034819D01*
X151935714Y-100034819D02*
X151840476Y-99987200D01*
X151840476Y-99987200D02*
X151792857Y-99939580D01*
X216461903Y-97619280D02*
X216461903Y-96809757D01*
X216461903Y-96809757D02*
X216414284Y-96714519D01*
X216414284Y-96714519D02*
X216366665Y-96666900D01*
X216366665Y-96666900D02*
X216271427Y-96619280D01*
X216271427Y-96619280D02*
X216080951Y-96619280D01*
X216080951Y-96619280D02*
X215985713Y-96666900D01*
X215985713Y-96666900D02*
X215938094Y-96714519D01*
X215938094Y-96714519D02*
X215890475Y-96809757D01*
X215890475Y-96809757D02*
X215890475Y-97619280D01*
X214890475Y-96619280D02*
X215461903Y-96619280D01*
X215176189Y-96619280D02*
X215176189Y-97619280D01*
X215176189Y-97619280D02*
X215271427Y-97476423D01*
X215271427Y-97476423D02*
X215366665Y-97381185D01*
X215366665Y-97381185D02*
X215461903Y-97333566D01*
X219141699Y-98278919D02*
X219141699Y-98517014D01*
X218903604Y-98421776D02*
X219141699Y-98517014D01*
X219141699Y-98517014D02*
X219379794Y-98421776D01*
X218998842Y-98707490D02*
X219141699Y-98517014D01*
X219141699Y-98517014D02*
X219284556Y-98707490D01*
X219141698Y-99369280D02*
X219141698Y-99131185D01*
X219379793Y-99226423D02*
X219141698Y-99131185D01*
X219141698Y-99131185D02*
X218903603Y-99226423D01*
X219284555Y-98940709D02*
X219141698Y-99131185D01*
X219141698Y-99131185D02*
X218998841Y-98940709D01*
X172854819Y-37816666D02*
X172378628Y-38149999D01*
X172854819Y-38388094D02*
X171854819Y-38388094D01*
X171854819Y-38388094D02*
X171854819Y-38007142D01*
X171854819Y-38007142D02*
X171902438Y-37911904D01*
X171902438Y-37911904D02*
X171950057Y-37864285D01*
X171950057Y-37864285D02*
X172045295Y-37816666D01*
X172045295Y-37816666D02*
X172188152Y-37816666D01*
X172188152Y-37816666D02*
X172283390Y-37864285D01*
X172283390Y-37864285D02*
X172331009Y-37911904D01*
X172331009Y-37911904D02*
X172378628Y-38007142D01*
X172378628Y-38007142D02*
X172378628Y-38388094D01*
X172188152Y-36959523D02*
X172854819Y-36959523D01*
X171807200Y-37197618D02*
X172521485Y-37435713D01*
X172521485Y-37435713D02*
X172521485Y-36816666D01*
X164807142Y-148674819D02*
X164473809Y-148198628D01*
X164235714Y-148674819D02*
X164235714Y-147674819D01*
X164235714Y-147674819D02*
X164616666Y-147674819D01*
X164616666Y-147674819D02*
X164711904Y-147722438D01*
X164711904Y-147722438D02*
X164759523Y-147770057D01*
X164759523Y-147770057D02*
X164807142Y-147865295D01*
X164807142Y-147865295D02*
X164807142Y-148008152D01*
X164807142Y-148008152D02*
X164759523Y-148103390D01*
X164759523Y-148103390D02*
X164711904Y-148151009D01*
X164711904Y-148151009D02*
X164616666Y-148198628D01*
X164616666Y-148198628D02*
X164235714Y-148198628D01*
X165664285Y-148008152D02*
X165664285Y-148674819D01*
X165426190Y-147627200D02*
X165188095Y-148341485D01*
X165188095Y-148341485D02*
X165807142Y-148341485D01*
X166378571Y-147674819D02*
X166473809Y-147674819D01*
X166473809Y-147674819D02*
X166569047Y-147722438D01*
X166569047Y-147722438D02*
X166616666Y-147770057D01*
X166616666Y-147770057D02*
X166664285Y-147865295D01*
X166664285Y-147865295D02*
X166711904Y-148055771D01*
X166711904Y-148055771D02*
X166711904Y-148293866D01*
X166711904Y-148293866D02*
X166664285Y-148484342D01*
X166664285Y-148484342D02*
X166616666Y-148579580D01*
X166616666Y-148579580D02*
X166569047Y-148627200D01*
X166569047Y-148627200D02*
X166473809Y-148674819D01*
X166473809Y-148674819D02*
X166378571Y-148674819D01*
X166378571Y-148674819D02*
X166283333Y-148627200D01*
X166283333Y-148627200D02*
X166235714Y-148579580D01*
X166235714Y-148579580D02*
X166188095Y-148484342D01*
X166188095Y-148484342D02*
X166140476Y-148293866D01*
X166140476Y-148293866D02*
X166140476Y-148055771D01*
X166140476Y-148055771D02*
X166188095Y-147865295D01*
X166188095Y-147865295D02*
X166235714Y-147770057D01*
X166235714Y-147770057D02*
X166283333Y-147722438D01*
X166283333Y-147722438D02*
X166378571Y-147674819D01*
X206104819Y-135859523D02*
X206819104Y-135859523D01*
X206819104Y-135859523D02*
X206961961Y-135907142D01*
X206961961Y-135907142D02*
X207057200Y-136002380D01*
X207057200Y-136002380D02*
X207104819Y-136145237D01*
X207104819Y-136145237D02*
X207104819Y-136240475D01*
X206104819Y-135478570D02*
X206104819Y-134859523D01*
X206104819Y-134859523D02*
X206485771Y-135192856D01*
X206485771Y-135192856D02*
X206485771Y-135049999D01*
X206485771Y-135049999D02*
X206533390Y-134954761D01*
X206533390Y-134954761D02*
X206581009Y-134907142D01*
X206581009Y-134907142D02*
X206676247Y-134859523D01*
X206676247Y-134859523D02*
X206914342Y-134859523D01*
X206914342Y-134859523D02*
X207009580Y-134907142D01*
X207009580Y-134907142D02*
X207057200Y-134954761D01*
X207057200Y-134954761D02*
X207104819Y-135049999D01*
X207104819Y-135049999D02*
X207104819Y-135335713D01*
X207104819Y-135335713D02*
X207057200Y-135430951D01*
X207057200Y-135430951D02*
X207009580Y-135478570D01*
X206104819Y-133954761D02*
X206104819Y-134430951D01*
X206104819Y-134430951D02*
X206581009Y-134478570D01*
X206581009Y-134478570D02*
X206533390Y-134430951D01*
X206533390Y-134430951D02*
X206485771Y-134335713D01*
X206485771Y-134335713D02*
X206485771Y-134097618D01*
X206485771Y-134097618D02*
X206533390Y-134002380D01*
X206533390Y-134002380D02*
X206581009Y-133954761D01*
X206581009Y-133954761D02*
X206676247Y-133907142D01*
X206676247Y-133907142D02*
X206914342Y-133907142D01*
X206914342Y-133907142D02*
X207009580Y-133954761D01*
X207009580Y-133954761D02*
X207057200Y-134002380D01*
X207057200Y-134002380D02*
X207104819Y-134097618D01*
X207104819Y-134097618D02*
X207104819Y-134335713D01*
X207104819Y-134335713D02*
X207057200Y-134430951D01*
X207057200Y-134430951D02*
X207009580Y-134478570D01*
X141607142Y-173809580D02*
X141559523Y-173857200D01*
X141559523Y-173857200D02*
X141416666Y-173904819D01*
X141416666Y-173904819D02*
X141321428Y-173904819D01*
X141321428Y-173904819D02*
X141178571Y-173857200D01*
X141178571Y-173857200D02*
X141083333Y-173761961D01*
X141083333Y-173761961D02*
X141035714Y-173666723D01*
X141035714Y-173666723D02*
X140988095Y-173476247D01*
X140988095Y-173476247D02*
X140988095Y-173333390D01*
X140988095Y-173333390D02*
X141035714Y-173142914D01*
X141035714Y-173142914D02*
X141083333Y-173047676D01*
X141083333Y-173047676D02*
X141178571Y-172952438D01*
X141178571Y-172952438D02*
X141321428Y-172904819D01*
X141321428Y-172904819D02*
X141416666Y-172904819D01*
X141416666Y-172904819D02*
X141559523Y-172952438D01*
X141559523Y-172952438D02*
X141607142Y-173000057D01*
X142559523Y-173904819D02*
X141988095Y-173904819D01*
X142273809Y-173904819D02*
X142273809Y-172904819D01*
X142273809Y-172904819D02*
X142178571Y-173047676D01*
X142178571Y-173047676D02*
X142083333Y-173142914D01*
X142083333Y-173142914D02*
X141988095Y-173190533D01*
X143035714Y-173904819D02*
X143226190Y-173904819D01*
X143226190Y-173904819D02*
X143321428Y-173857200D01*
X143321428Y-173857200D02*
X143369047Y-173809580D01*
X143369047Y-173809580D02*
X143464285Y-173666723D01*
X143464285Y-173666723D02*
X143511904Y-173476247D01*
X143511904Y-173476247D02*
X143511904Y-173095295D01*
X143511904Y-173095295D02*
X143464285Y-173000057D01*
X143464285Y-173000057D02*
X143416666Y-172952438D01*
X143416666Y-172952438D02*
X143321428Y-172904819D01*
X143321428Y-172904819D02*
X143130952Y-172904819D01*
X143130952Y-172904819D02*
X143035714Y-172952438D01*
X143035714Y-172952438D02*
X142988095Y-173000057D01*
X142988095Y-173000057D02*
X142940476Y-173095295D01*
X142940476Y-173095295D02*
X142940476Y-173333390D01*
X142940476Y-173333390D02*
X142988095Y-173428628D01*
X142988095Y-173428628D02*
X143035714Y-173476247D01*
X143035714Y-173476247D02*
X143130952Y-173523866D01*
X143130952Y-173523866D02*
X143321428Y-173523866D01*
X143321428Y-173523866D02*
X143416666Y-173476247D01*
X143416666Y-173476247D02*
X143464285Y-173428628D01*
X143464285Y-173428628D02*
X143511904Y-173333390D01*
X162366666Y-179852319D02*
X162366666Y-180566604D01*
X162366666Y-180566604D02*
X162319047Y-180709461D01*
X162319047Y-180709461D02*
X162223809Y-180804700D01*
X162223809Y-180804700D02*
X162080952Y-180852319D01*
X162080952Y-180852319D02*
X161985714Y-180852319D01*
X162747619Y-179852319D02*
X163366666Y-179852319D01*
X163366666Y-179852319D02*
X163033333Y-180233271D01*
X163033333Y-180233271D02*
X163176190Y-180233271D01*
X163176190Y-180233271D02*
X163271428Y-180280890D01*
X163271428Y-180280890D02*
X163319047Y-180328509D01*
X163319047Y-180328509D02*
X163366666Y-180423747D01*
X163366666Y-180423747D02*
X163366666Y-180661842D01*
X163366666Y-180661842D02*
X163319047Y-180757080D01*
X163319047Y-180757080D02*
X163271428Y-180804700D01*
X163271428Y-180804700D02*
X163176190Y-180852319D01*
X163176190Y-180852319D02*
X162890476Y-180852319D01*
X162890476Y-180852319D02*
X162795238Y-180804700D01*
X162795238Y-180804700D02*
X162747619Y-180757080D01*
X185074819Y-38692857D02*
X184598628Y-39026190D01*
X185074819Y-39264285D02*
X184074819Y-39264285D01*
X184074819Y-39264285D02*
X184074819Y-38883333D01*
X184074819Y-38883333D02*
X184122438Y-38788095D01*
X184122438Y-38788095D02*
X184170057Y-38740476D01*
X184170057Y-38740476D02*
X184265295Y-38692857D01*
X184265295Y-38692857D02*
X184408152Y-38692857D01*
X184408152Y-38692857D02*
X184503390Y-38740476D01*
X184503390Y-38740476D02*
X184551009Y-38788095D01*
X184551009Y-38788095D02*
X184598628Y-38883333D01*
X184598628Y-38883333D02*
X184598628Y-39264285D01*
X185074819Y-37740476D02*
X185074819Y-38311904D01*
X185074819Y-38026190D02*
X184074819Y-38026190D01*
X184074819Y-38026190D02*
X184217676Y-38121428D01*
X184217676Y-38121428D02*
X184312914Y-38216666D01*
X184312914Y-38216666D02*
X184360533Y-38311904D01*
X184170057Y-37359523D02*
X184122438Y-37311904D01*
X184122438Y-37311904D02*
X184074819Y-37216666D01*
X184074819Y-37216666D02*
X184074819Y-36978571D01*
X184074819Y-36978571D02*
X184122438Y-36883333D01*
X184122438Y-36883333D02*
X184170057Y-36835714D01*
X184170057Y-36835714D02*
X184265295Y-36788095D01*
X184265295Y-36788095D02*
X184360533Y-36788095D01*
X184360533Y-36788095D02*
X184503390Y-36835714D01*
X184503390Y-36835714D02*
X185074819Y-37407142D01*
X185074819Y-37407142D02*
X185074819Y-36788095D01*
X158384819Y-171818094D02*
X157384819Y-171818094D01*
X157384819Y-171818094D02*
X157384819Y-171579999D01*
X157384819Y-171579999D02*
X157432438Y-171437142D01*
X157432438Y-171437142D02*
X157527676Y-171341904D01*
X157527676Y-171341904D02*
X157622914Y-171294285D01*
X157622914Y-171294285D02*
X157813390Y-171246666D01*
X157813390Y-171246666D02*
X157956247Y-171246666D01*
X157956247Y-171246666D02*
X158146723Y-171294285D01*
X158146723Y-171294285D02*
X158241961Y-171341904D01*
X158241961Y-171341904D02*
X158337200Y-171437142D01*
X158337200Y-171437142D02*
X158384819Y-171579999D01*
X158384819Y-171579999D02*
X158384819Y-171818094D01*
X157718152Y-170389523D02*
X158384819Y-170389523D01*
X157337200Y-170627618D02*
X158051485Y-170865713D01*
X158051485Y-170865713D02*
X158051485Y-170246666D01*
X159504819Y-178961904D02*
X158504819Y-178961904D01*
X159504819Y-178390476D02*
X158933390Y-178819047D01*
X158504819Y-178390476D02*
X159076247Y-178961904D01*
X137833333Y-104304819D02*
X137500000Y-103828628D01*
X137261905Y-104304819D02*
X137261905Y-103304819D01*
X137261905Y-103304819D02*
X137642857Y-103304819D01*
X137642857Y-103304819D02*
X137738095Y-103352438D01*
X137738095Y-103352438D02*
X137785714Y-103400057D01*
X137785714Y-103400057D02*
X137833333Y-103495295D01*
X137833333Y-103495295D02*
X137833333Y-103638152D01*
X137833333Y-103638152D02*
X137785714Y-103733390D01*
X137785714Y-103733390D02*
X137738095Y-103781009D01*
X137738095Y-103781009D02*
X137642857Y-103828628D01*
X137642857Y-103828628D02*
X137261905Y-103828628D01*
X138309524Y-104304819D02*
X138500000Y-104304819D01*
X138500000Y-104304819D02*
X138595238Y-104257200D01*
X138595238Y-104257200D02*
X138642857Y-104209580D01*
X138642857Y-104209580D02*
X138738095Y-104066723D01*
X138738095Y-104066723D02*
X138785714Y-103876247D01*
X138785714Y-103876247D02*
X138785714Y-103495295D01*
X138785714Y-103495295D02*
X138738095Y-103400057D01*
X138738095Y-103400057D02*
X138690476Y-103352438D01*
X138690476Y-103352438D02*
X138595238Y-103304819D01*
X138595238Y-103304819D02*
X138404762Y-103304819D01*
X138404762Y-103304819D02*
X138309524Y-103352438D01*
X138309524Y-103352438D02*
X138261905Y-103400057D01*
X138261905Y-103400057D02*
X138214286Y-103495295D01*
X138214286Y-103495295D02*
X138214286Y-103733390D01*
X138214286Y-103733390D02*
X138261905Y-103828628D01*
X138261905Y-103828628D02*
X138309524Y-103876247D01*
X138309524Y-103876247D02*
X138404762Y-103923866D01*
X138404762Y-103923866D02*
X138595238Y-103923866D01*
X138595238Y-103923866D02*
X138690476Y-103876247D01*
X138690476Y-103876247D02*
X138738095Y-103828628D01*
X138738095Y-103828628D02*
X138785714Y-103733390D01*
X171184819Y-96766666D02*
X170708628Y-97099999D01*
X171184819Y-97338094D02*
X170184819Y-97338094D01*
X170184819Y-97338094D02*
X170184819Y-96957142D01*
X170184819Y-96957142D02*
X170232438Y-96861904D01*
X170232438Y-96861904D02*
X170280057Y-96814285D01*
X170280057Y-96814285D02*
X170375295Y-96766666D01*
X170375295Y-96766666D02*
X170518152Y-96766666D01*
X170518152Y-96766666D02*
X170613390Y-96814285D01*
X170613390Y-96814285D02*
X170661009Y-96861904D01*
X170661009Y-96861904D02*
X170708628Y-96957142D01*
X170708628Y-96957142D02*
X170708628Y-97338094D01*
X170613390Y-96195237D02*
X170565771Y-96290475D01*
X170565771Y-96290475D02*
X170518152Y-96338094D01*
X170518152Y-96338094D02*
X170422914Y-96385713D01*
X170422914Y-96385713D02*
X170375295Y-96385713D01*
X170375295Y-96385713D02*
X170280057Y-96338094D01*
X170280057Y-96338094D02*
X170232438Y-96290475D01*
X170232438Y-96290475D02*
X170184819Y-96195237D01*
X170184819Y-96195237D02*
X170184819Y-96004761D01*
X170184819Y-96004761D02*
X170232438Y-95909523D01*
X170232438Y-95909523D02*
X170280057Y-95861904D01*
X170280057Y-95861904D02*
X170375295Y-95814285D01*
X170375295Y-95814285D02*
X170422914Y-95814285D01*
X170422914Y-95814285D02*
X170518152Y-95861904D01*
X170518152Y-95861904D02*
X170565771Y-95909523D01*
X170565771Y-95909523D02*
X170613390Y-96004761D01*
X170613390Y-96004761D02*
X170613390Y-96195237D01*
X170613390Y-96195237D02*
X170661009Y-96290475D01*
X170661009Y-96290475D02*
X170708628Y-96338094D01*
X170708628Y-96338094D02*
X170803866Y-96385713D01*
X170803866Y-96385713D02*
X170994342Y-96385713D01*
X170994342Y-96385713D02*
X171089580Y-96338094D01*
X171089580Y-96338094D02*
X171137200Y-96290475D01*
X171137200Y-96290475D02*
X171184819Y-96195237D01*
X171184819Y-96195237D02*
X171184819Y-96004761D01*
X171184819Y-96004761D02*
X171137200Y-95909523D01*
X171137200Y-95909523D02*
X171089580Y-95861904D01*
X171089580Y-95861904D02*
X170994342Y-95814285D01*
X170994342Y-95814285D02*
X170803866Y-95814285D01*
X170803866Y-95814285D02*
X170708628Y-95861904D01*
X170708628Y-95861904D02*
X170661009Y-95909523D01*
X170661009Y-95909523D02*
X170613390Y-96004761D01*
X188554819Y-135859523D02*
X189269104Y-135859523D01*
X189269104Y-135859523D02*
X189411961Y-135907142D01*
X189411961Y-135907142D02*
X189507200Y-136002380D01*
X189507200Y-136002380D02*
X189554819Y-136145237D01*
X189554819Y-136145237D02*
X189554819Y-136240475D01*
X188554819Y-135478570D02*
X188554819Y-134859523D01*
X188554819Y-134859523D02*
X188935771Y-135192856D01*
X188935771Y-135192856D02*
X188935771Y-135049999D01*
X188935771Y-135049999D02*
X188983390Y-134954761D01*
X188983390Y-134954761D02*
X189031009Y-134907142D01*
X189031009Y-134907142D02*
X189126247Y-134859523D01*
X189126247Y-134859523D02*
X189364342Y-134859523D01*
X189364342Y-134859523D02*
X189459580Y-134907142D01*
X189459580Y-134907142D02*
X189507200Y-134954761D01*
X189507200Y-134954761D02*
X189554819Y-135049999D01*
X189554819Y-135049999D02*
X189554819Y-135335713D01*
X189554819Y-135335713D02*
X189507200Y-135430951D01*
X189507200Y-135430951D02*
X189459580Y-135478570D01*
X188983390Y-134288094D02*
X188935771Y-134383332D01*
X188935771Y-134383332D02*
X188888152Y-134430951D01*
X188888152Y-134430951D02*
X188792914Y-134478570D01*
X188792914Y-134478570D02*
X188745295Y-134478570D01*
X188745295Y-134478570D02*
X188650057Y-134430951D01*
X188650057Y-134430951D02*
X188602438Y-134383332D01*
X188602438Y-134383332D02*
X188554819Y-134288094D01*
X188554819Y-134288094D02*
X188554819Y-134097618D01*
X188554819Y-134097618D02*
X188602438Y-134002380D01*
X188602438Y-134002380D02*
X188650057Y-133954761D01*
X188650057Y-133954761D02*
X188745295Y-133907142D01*
X188745295Y-133907142D02*
X188792914Y-133907142D01*
X188792914Y-133907142D02*
X188888152Y-133954761D01*
X188888152Y-133954761D02*
X188935771Y-134002380D01*
X188935771Y-134002380D02*
X188983390Y-134097618D01*
X188983390Y-134097618D02*
X188983390Y-134288094D01*
X188983390Y-134288094D02*
X189031009Y-134383332D01*
X189031009Y-134383332D02*
X189078628Y-134430951D01*
X189078628Y-134430951D02*
X189173866Y-134478570D01*
X189173866Y-134478570D02*
X189364342Y-134478570D01*
X189364342Y-134478570D02*
X189459580Y-134430951D01*
X189459580Y-134430951D02*
X189507200Y-134383332D01*
X189507200Y-134383332D02*
X189554819Y-134288094D01*
X189554819Y-134288094D02*
X189554819Y-134097618D01*
X189554819Y-134097618D02*
X189507200Y-134002380D01*
X189507200Y-134002380D02*
X189459580Y-133954761D01*
X189459580Y-133954761D02*
X189364342Y-133907142D01*
X189364342Y-133907142D02*
X189173866Y-133907142D01*
X189173866Y-133907142D02*
X189078628Y-133954761D01*
X189078628Y-133954761D02*
X189031009Y-134002380D01*
X189031009Y-134002380D02*
X188983390Y-134097618D01*
X145604819Y-81442857D02*
X145128628Y-81776190D01*
X145604819Y-82014285D02*
X144604819Y-82014285D01*
X144604819Y-82014285D02*
X144604819Y-81633333D01*
X144604819Y-81633333D02*
X144652438Y-81538095D01*
X144652438Y-81538095D02*
X144700057Y-81490476D01*
X144700057Y-81490476D02*
X144795295Y-81442857D01*
X144795295Y-81442857D02*
X144938152Y-81442857D01*
X144938152Y-81442857D02*
X145033390Y-81490476D01*
X145033390Y-81490476D02*
X145081009Y-81538095D01*
X145081009Y-81538095D02*
X145128628Y-81633333D01*
X145128628Y-81633333D02*
X145128628Y-82014285D01*
X144604819Y-80538095D02*
X144604819Y-81014285D01*
X144604819Y-81014285D02*
X145081009Y-81061904D01*
X145081009Y-81061904D02*
X145033390Y-81014285D01*
X145033390Y-81014285D02*
X144985771Y-80919047D01*
X144985771Y-80919047D02*
X144985771Y-80680952D01*
X144985771Y-80680952D02*
X145033390Y-80585714D01*
X145033390Y-80585714D02*
X145081009Y-80538095D01*
X145081009Y-80538095D02*
X145176247Y-80490476D01*
X145176247Y-80490476D02*
X145414342Y-80490476D01*
X145414342Y-80490476D02*
X145509580Y-80538095D01*
X145509580Y-80538095D02*
X145557200Y-80585714D01*
X145557200Y-80585714D02*
X145604819Y-80680952D01*
X145604819Y-80680952D02*
X145604819Y-80919047D01*
X145604819Y-80919047D02*
X145557200Y-81014285D01*
X145557200Y-81014285D02*
X145509580Y-81061904D01*
X144700057Y-80109523D02*
X144652438Y-80061904D01*
X144652438Y-80061904D02*
X144604819Y-79966666D01*
X144604819Y-79966666D02*
X144604819Y-79728571D01*
X144604819Y-79728571D02*
X144652438Y-79633333D01*
X144652438Y-79633333D02*
X144700057Y-79585714D01*
X144700057Y-79585714D02*
X144795295Y-79538095D01*
X144795295Y-79538095D02*
X144890533Y-79538095D01*
X144890533Y-79538095D02*
X145033390Y-79585714D01*
X145033390Y-79585714D02*
X145604819Y-80157142D01*
X145604819Y-80157142D02*
X145604819Y-79538095D01*
X45904819Y-162859523D02*
X46619104Y-162859523D01*
X46619104Y-162859523D02*
X46761961Y-162907142D01*
X46761961Y-162907142D02*
X46857200Y-163002380D01*
X46857200Y-163002380D02*
X46904819Y-163145237D01*
X46904819Y-163145237D02*
X46904819Y-163240475D01*
X46904819Y-161859523D02*
X46904819Y-162430951D01*
X46904819Y-162145237D02*
X45904819Y-162145237D01*
X45904819Y-162145237D02*
X46047676Y-162240475D01*
X46047676Y-162240475D02*
X46142914Y-162335713D01*
X46142914Y-162335713D02*
X46190533Y-162430951D01*
X46000057Y-161478570D02*
X45952438Y-161430951D01*
X45952438Y-161430951D02*
X45904819Y-161335713D01*
X45904819Y-161335713D02*
X45904819Y-161097618D01*
X45904819Y-161097618D02*
X45952438Y-161002380D01*
X45952438Y-161002380D02*
X46000057Y-160954761D01*
X46000057Y-160954761D02*
X46095295Y-160907142D01*
X46095295Y-160907142D02*
X46190533Y-160907142D01*
X46190533Y-160907142D02*
X46333390Y-160954761D01*
X46333390Y-160954761D02*
X46904819Y-161526189D01*
X46904819Y-161526189D02*
X46904819Y-160907142D01*
X139954819Y-81192857D02*
X139478628Y-81526190D01*
X139954819Y-81764285D02*
X138954819Y-81764285D01*
X138954819Y-81764285D02*
X138954819Y-81383333D01*
X138954819Y-81383333D02*
X139002438Y-81288095D01*
X139002438Y-81288095D02*
X139050057Y-81240476D01*
X139050057Y-81240476D02*
X139145295Y-81192857D01*
X139145295Y-81192857D02*
X139288152Y-81192857D01*
X139288152Y-81192857D02*
X139383390Y-81240476D01*
X139383390Y-81240476D02*
X139431009Y-81288095D01*
X139431009Y-81288095D02*
X139478628Y-81383333D01*
X139478628Y-81383333D02*
X139478628Y-81764285D01*
X138954819Y-80288095D02*
X138954819Y-80764285D01*
X138954819Y-80764285D02*
X139431009Y-80811904D01*
X139431009Y-80811904D02*
X139383390Y-80764285D01*
X139383390Y-80764285D02*
X139335771Y-80669047D01*
X139335771Y-80669047D02*
X139335771Y-80430952D01*
X139335771Y-80430952D02*
X139383390Y-80335714D01*
X139383390Y-80335714D02*
X139431009Y-80288095D01*
X139431009Y-80288095D02*
X139526247Y-80240476D01*
X139526247Y-80240476D02*
X139764342Y-80240476D01*
X139764342Y-80240476D02*
X139859580Y-80288095D01*
X139859580Y-80288095D02*
X139907200Y-80335714D01*
X139907200Y-80335714D02*
X139954819Y-80430952D01*
X139954819Y-80430952D02*
X139954819Y-80669047D01*
X139954819Y-80669047D02*
X139907200Y-80764285D01*
X139907200Y-80764285D02*
X139859580Y-80811904D01*
X139954819Y-79288095D02*
X139954819Y-79859523D01*
X139954819Y-79573809D02*
X138954819Y-79573809D01*
X138954819Y-79573809D02*
X139097676Y-79669047D01*
X139097676Y-79669047D02*
X139192914Y-79764285D01*
X139192914Y-79764285D02*
X139240533Y-79859523D01*
X135116667Y-31307200D02*
X135259524Y-31354819D01*
X135259524Y-31354819D02*
X135497619Y-31354819D01*
X135497619Y-31354819D02*
X135592857Y-31307200D01*
X135592857Y-31307200D02*
X135640476Y-31259580D01*
X135640476Y-31259580D02*
X135688095Y-31164342D01*
X135688095Y-31164342D02*
X135688095Y-31069104D01*
X135688095Y-31069104D02*
X135640476Y-30973866D01*
X135640476Y-30973866D02*
X135592857Y-30926247D01*
X135592857Y-30926247D02*
X135497619Y-30878628D01*
X135497619Y-30878628D02*
X135307143Y-30831009D01*
X135307143Y-30831009D02*
X135211905Y-30783390D01*
X135211905Y-30783390D02*
X135164286Y-30735771D01*
X135164286Y-30735771D02*
X135116667Y-30640533D01*
X135116667Y-30640533D02*
X135116667Y-30545295D01*
X135116667Y-30545295D02*
X135164286Y-30450057D01*
X135164286Y-30450057D02*
X135211905Y-30402438D01*
X135211905Y-30402438D02*
X135307143Y-30354819D01*
X135307143Y-30354819D02*
X135545238Y-30354819D01*
X135545238Y-30354819D02*
X135688095Y-30402438D01*
X136021429Y-30354819D02*
X136259524Y-31354819D01*
X136259524Y-31354819D02*
X136450000Y-30640533D01*
X136450000Y-30640533D02*
X136640476Y-31354819D01*
X136640476Y-31354819D02*
X136878572Y-30354819D01*
X137402381Y-30783390D02*
X137307143Y-30735771D01*
X137307143Y-30735771D02*
X137259524Y-30688152D01*
X137259524Y-30688152D02*
X137211905Y-30592914D01*
X137211905Y-30592914D02*
X137211905Y-30545295D01*
X137211905Y-30545295D02*
X137259524Y-30450057D01*
X137259524Y-30450057D02*
X137307143Y-30402438D01*
X137307143Y-30402438D02*
X137402381Y-30354819D01*
X137402381Y-30354819D02*
X137592857Y-30354819D01*
X137592857Y-30354819D02*
X137688095Y-30402438D01*
X137688095Y-30402438D02*
X137735714Y-30450057D01*
X137735714Y-30450057D02*
X137783333Y-30545295D01*
X137783333Y-30545295D02*
X137783333Y-30592914D01*
X137783333Y-30592914D02*
X137735714Y-30688152D01*
X137735714Y-30688152D02*
X137688095Y-30735771D01*
X137688095Y-30735771D02*
X137592857Y-30783390D01*
X137592857Y-30783390D02*
X137402381Y-30783390D01*
X137402381Y-30783390D02*
X137307143Y-30831009D01*
X137307143Y-30831009D02*
X137259524Y-30878628D01*
X137259524Y-30878628D02*
X137211905Y-30973866D01*
X137211905Y-30973866D02*
X137211905Y-31164342D01*
X137211905Y-31164342D02*
X137259524Y-31259580D01*
X137259524Y-31259580D02*
X137307143Y-31307200D01*
X137307143Y-31307200D02*
X137402381Y-31354819D01*
X137402381Y-31354819D02*
X137592857Y-31354819D01*
X137592857Y-31354819D02*
X137688095Y-31307200D01*
X137688095Y-31307200D02*
X137735714Y-31259580D01*
X137735714Y-31259580D02*
X137783333Y-31164342D01*
X137783333Y-31164342D02*
X137783333Y-30973866D01*
X137783333Y-30973866D02*
X137735714Y-30878628D01*
X137735714Y-30878628D02*
X137688095Y-30831009D01*
X137688095Y-30831009D02*
X137592857Y-30783390D01*
X99807142Y-76809580D02*
X99759523Y-76857200D01*
X99759523Y-76857200D02*
X99616666Y-76904819D01*
X99616666Y-76904819D02*
X99521428Y-76904819D01*
X99521428Y-76904819D02*
X99378571Y-76857200D01*
X99378571Y-76857200D02*
X99283333Y-76761961D01*
X99283333Y-76761961D02*
X99235714Y-76666723D01*
X99235714Y-76666723D02*
X99188095Y-76476247D01*
X99188095Y-76476247D02*
X99188095Y-76333390D01*
X99188095Y-76333390D02*
X99235714Y-76142914D01*
X99235714Y-76142914D02*
X99283333Y-76047676D01*
X99283333Y-76047676D02*
X99378571Y-75952438D01*
X99378571Y-75952438D02*
X99521428Y-75904819D01*
X99521428Y-75904819D02*
X99616666Y-75904819D01*
X99616666Y-75904819D02*
X99759523Y-75952438D01*
X99759523Y-75952438D02*
X99807142Y-76000057D01*
X100759523Y-76904819D02*
X100188095Y-76904819D01*
X100473809Y-76904819D02*
X100473809Y-75904819D01*
X100473809Y-75904819D02*
X100378571Y-76047676D01*
X100378571Y-76047676D02*
X100283333Y-76142914D01*
X100283333Y-76142914D02*
X100188095Y-76190533D01*
X101330952Y-76333390D02*
X101235714Y-76285771D01*
X101235714Y-76285771D02*
X101188095Y-76238152D01*
X101188095Y-76238152D02*
X101140476Y-76142914D01*
X101140476Y-76142914D02*
X101140476Y-76095295D01*
X101140476Y-76095295D02*
X101188095Y-76000057D01*
X101188095Y-76000057D02*
X101235714Y-75952438D01*
X101235714Y-75952438D02*
X101330952Y-75904819D01*
X101330952Y-75904819D02*
X101521428Y-75904819D01*
X101521428Y-75904819D02*
X101616666Y-75952438D01*
X101616666Y-75952438D02*
X101664285Y-76000057D01*
X101664285Y-76000057D02*
X101711904Y-76095295D01*
X101711904Y-76095295D02*
X101711904Y-76142914D01*
X101711904Y-76142914D02*
X101664285Y-76238152D01*
X101664285Y-76238152D02*
X101616666Y-76285771D01*
X101616666Y-76285771D02*
X101521428Y-76333390D01*
X101521428Y-76333390D02*
X101330952Y-76333390D01*
X101330952Y-76333390D02*
X101235714Y-76381009D01*
X101235714Y-76381009D02*
X101188095Y-76428628D01*
X101188095Y-76428628D02*
X101140476Y-76523866D01*
X101140476Y-76523866D02*
X101140476Y-76714342D01*
X101140476Y-76714342D02*
X101188095Y-76809580D01*
X101188095Y-76809580D02*
X101235714Y-76857200D01*
X101235714Y-76857200D02*
X101330952Y-76904819D01*
X101330952Y-76904819D02*
X101521428Y-76904819D01*
X101521428Y-76904819D02*
X101616666Y-76857200D01*
X101616666Y-76857200D02*
X101664285Y-76809580D01*
X101664285Y-76809580D02*
X101711904Y-76714342D01*
X101711904Y-76714342D02*
X101711904Y-76523866D01*
X101711904Y-76523866D02*
X101664285Y-76428628D01*
X101664285Y-76428628D02*
X101616666Y-76381009D01*
X101616666Y-76381009D02*
X101521428Y-76333390D01*
X57233333Y-57309580D02*
X57185714Y-57357200D01*
X57185714Y-57357200D02*
X57042857Y-57404819D01*
X57042857Y-57404819D02*
X56947619Y-57404819D01*
X56947619Y-57404819D02*
X56804762Y-57357200D01*
X56804762Y-57357200D02*
X56709524Y-57261961D01*
X56709524Y-57261961D02*
X56661905Y-57166723D01*
X56661905Y-57166723D02*
X56614286Y-56976247D01*
X56614286Y-56976247D02*
X56614286Y-56833390D01*
X56614286Y-56833390D02*
X56661905Y-56642914D01*
X56661905Y-56642914D02*
X56709524Y-56547676D01*
X56709524Y-56547676D02*
X56804762Y-56452438D01*
X56804762Y-56452438D02*
X56947619Y-56404819D01*
X56947619Y-56404819D02*
X57042857Y-56404819D01*
X57042857Y-56404819D02*
X57185714Y-56452438D01*
X57185714Y-56452438D02*
X57233333Y-56500057D01*
X58185714Y-57404819D02*
X57614286Y-57404819D01*
X57900000Y-57404819D02*
X57900000Y-56404819D01*
X57900000Y-56404819D02*
X57804762Y-56547676D01*
X57804762Y-56547676D02*
X57709524Y-56642914D01*
X57709524Y-56642914D02*
X57614286Y-56690533D01*
X137733333Y-44874819D02*
X137400000Y-44398628D01*
X137161905Y-44874819D02*
X137161905Y-43874819D01*
X137161905Y-43874819D02*
X137542857Y-43874819D01*
X137542857Y-43874819D02*
X137638095Y-43922438D01*
X137638095Y-43922438D02*
X137685714Y-43970057D01*
X137685714Y-43970057D02*
X137733333Y-44065295D01*
X137733333Y-44065295D02*
X137733333Y-44208152D01*
X137733333Y-44208152D02*
X137685714Y-44303390D01*
X137685714Y-44303390D02*
X137638095Y-44351009D01*
X137638095Y-44351009D02*
X137542857Y-44398628D01*
X137542857Y-44398628D02*
X137161905Y-44398628D01*
X138638095Y-43874819D02*
X138161905Y-43874819D01*
X138161905Y-43874819D02*
X138114286Y-44351009D01*
X138114286Y-44351009D02*
X138161905Y-44303390D01*
X138161905Y-44303390D02*
X138257143Y-44255771D01*
X138257143Y-44255771D02*
X138495238Y-44255771D01*
X138495238Y-44255771D02*
X138590476Y-44303390D01*
X138590476Y-44303390D02*
X138638095Y-44351009D01*
X138638095Y-44351009D02*
X138685714Y-44446247D01*
X138685714Y-44446247D02*
X138685714Y-44684342D01*
X138685714Y-44684342D02*
X138638095Y-44779580D01*
X138638095Y-44779580D02*
X138590476Y-44827200D01*
X138590476Y-44827200D02*
X138495238Y-44874819D01*
X138495238Y-44874819D02*
X138257143Y-44874819D01*
X138257143Y-44874819D02*
X138161905Y-44827200D01*
X138161905Y-44827200D02*
X138114286Y-44779580D01*
X45954819Y-121733333D02*
X46669104Y-121733333D01*
X46669104Y-121733333D02*
X46811961Y-121780952D01*
X46811961Y-121780952D02*
X46907200Y-121876190D01*
X46907200Y-121876190D02*
X46954819Y-122019047D01*
X46954819Y-122019047D02*
X46954819Y-122114285D01*
X45954819Y-121352380D02*
X45954819Y-120685714D01*
X45954819Y-120685714D02*
X46954819Y-121114285D01*
X77490476Y-141974819D02*
X77490476Y-142689104D01*
X77490476Y-142689104D02*
X77442857Y-142831961D01*
X77442857Y-142831961D02*
X77347619Y-142927200D01*
X77347619Y-142927200D02*
X77204762Y-142974819D01*
X77204762Y-142974819D02*
X77109524Y-142974819D01*
X77919048Y-142070057D02*
X77966667Y-142022438D01*
X77966667Y-142022438D02*
X78061905Y-141974819D01*
X78061905Y-141974819D02*
X78300000Y-141974819D01*
X78300000Y-141974819D02*
X78395238Y-142022438D01*
X78395238Y-142022438D02*
X78442857Y-142070057D01*
X78442857Y-142070057D02*
X78490476Y-142165295D01*
X78490476Y-142165295D02*
X78490476Y-142260533D01*
X78490476Y-142260533D02*
X78442857Y-142403390D01*
X78442857Y-142403390D02*
X77871429Y-142974819D01*
X77871429Y-142974819D02*
X78490476Y-142974819D01*
X79061905Y-142403390D02*
X78966667Y-142355771D01*
X78966667Y-142355771D02*
X78919048Y-142308152D01*
X78919048Y-142308152D02*
X78871429Y-142212914D01*
X78871429Y-142212914D02*
X78871429Y-142165295D01*
X78871429Y-142165295D02*
X78919048Y-142070057D01*
X78919048Y-142070057D02*
X78966667Y-142022438D01*
X78966667Y-142022438D02*
X79061905Y-141974819D01*
X79061905Y-141974819D02*
X79252381Y-141974819D01*
X79252381Y-141974819D02*
X79347619Y-142022438D01*
X79347619Y-142022438D02*
X79395238Y-142070057D01*
X79395238Y-142070057D02*
X79442857Y-142165295D01*
X79442857Y-142165295D02*
X79442857Y-142212914D01*
X79442857Y-142212914D02*
X79395238Y-142308152D01*
X79395238Y-142308152D02*
X79347619Y-142355771D01*
X79347619Y-142355771D02*
X79252381Y-142403390D01*
X79252381Y-142403390D02*
X79061905Y-142403390D01*
X79061905Y-142403390D02*
X78966667Y-142451009D01*
X78966667Y-142451009D02*
X78919048Y-142498628D01*
X78919048Y-142498628D02*
X78871429Y-142593866D01*
X78871429Y-142593866D02*
X78871429Y-142784342D01*
X78871429Y-142784342D02*
X78919048Y-142879580D01*
X78919048Y-142879580D02*
X78966667Y-142927200D01*
X78966667Y-142927200D02*
X79061905Y-142974819D01*
X79061905Y-142974819D02*
X79252381Y-142974819D01*
X79252381Y-142974819D02*
X79347619Y-142927200D01*
X79347619Y-142927200D02*
X79395238Y-142879580D01*
X79395238Y-142879580D02*
X79442857Y-142784342D01*
X79442857Y-142784342D02*
X79442857Y-142593866D01*
X79442857Y-142593866D02*
X79395238Y-142498628D01*
X79395238Y-142498628D02*
X79347619Y-142451009D01*
X79347619Y-142451009D02*
X79252381Y-142403390D01*
X220464761Y-71450057D02*
X220369523Y-71402438D01*
X220369523Y-71402438D02*
X220274285Y-71307200D01*
X220274285Y-71307200D02*
X220131428Y-71164342D01*
X220131428Y-71164342D02*
X220036190Y-71116723D01*
X220036190Y-71116723D02*
X219940952Y-71116723D01*
X219988571Y-71354819D02*
X219893333Y-71307200D01*
X219893333Y-71307200D02*
X219798095Y-71211961D01*
X219798095Y-71211961D02*
X219750476Y-71021485D01*
X219750476Y-71021485D02*
X219750476Y-70688152D01*
X219750476Y-70688152D02*
X219798095Y-70497676D01*
X219798095Y-70497676D02*
X219893333Y-70402438D01*
X219893333Y-70402438D02*
X219988571Y-70354819D01*
X219988571Y-70354819D02*
X220179047Y-70354819D01*
X220179047Y-70354819D02*
X220274285Y-70402438D01*
X220274285Y-70402438D02*
X220369523Y-70497676D01*
X220369523Y-70497676D02*
X220417142Y-70688152D01*
X220417142Y-70688152D02*
X220417142Y-71021485D01*
X220417142Y-71021485D02*
X220369523Y-71211961D01*
X220369523Y-71211961D02*
X220274285Y-71307200D01*
X220274285Y-71307200D02*
X220179047Y-71354819D01*
X220179047Y-71354819D02*
X219988571Y-71354819D01*
X220798095Y-70450057D02*
X220845714Y-70402438D01*
X220845714Y-70402438D02*
X220940952Y-70354819D01*
X220940952Y-70354819D02*
X221179047Y-70354819D01*
X221179047Y-70354819D02*
X221274285Y-70402438D01*
X221274285Y-70402438D02*
X221321904Y-70450057D01*
X221321904Y-70450057D02*
X221369523Y-70545295D01*
X221369523Y-70545295D02*
X221369523Y-70640533D01*
X221369523Y-70640533D02*
X221321904Y-70783390D01*
X221321904Y-70783390D02*
X220750476Y-71354819D01*
X220750476Y-71354819D02*
X221369523Y-71354819D01*
X151266666Y-178452319D02*
X151266666Y-179166604D01*
X151266666Y-179166604D02*
X151219047Y-179309461D01*
X151219047Y-179309461D02*
X151123809Y-179404700D01*
X151123809Y-179404700D02*
X150980952Y-179452319D01*
X150980952Y-179452319D02*
X150885714Y-179452319D01*
X151695238Y-178547557D02*
X151742857Y-178499938D01*
X151742857Y-178499938D02*
X151838095Y-178452319D01*
X151838095Y-178452319D02*
X152076190Y-178452319D01*
X152076190Y-178452319D02*
X152171428Y-178499938D01*
X152171428Y-178499938D02*
X152219047Y-178547557D01*
X152219047Y-178547557D02*
X152266666Y-178642795D01*
X152266666Y-178642795D02*
X152266666Y-178738033D01*
X152266666Y-178738033D02*
X152219047Y-178880890D01*
X152219047Y-178880890D02*
X151647619Y-179452319D01*
X151647619Y-179452319D02*
X152266666Y-179452319D01*
X150487142Y-82059580D02*
X150439523Y-82107200D01*
X150439523Y-82107200D02*
X150296666Y-82154819D01*
X150296666Y-82154819D02*
X150201428Y-82154819D01*
X150201428Y-82154819D02*
X150058571Y-82107200D01*
X150058571Y-82107200D02*
X149963333Y-82011961D01*
X149963333Y-82011961D02*
X149915714Y-81916723D01*
X149915714Y-81916723D02*
X149868095Y-81726247D01*
X149868095Y-81726247D02*
X149868095Y-81583390D01*
X149868095Y-81583390D02*
X149915714Y-81392914D01*
X149915714Y-81392914D02*
X149963333Y-81297676D01*
X149963333Y-81297676D02*
X150058571Y-81202438D01*
X150058571Y-81202438D02*
X150201428Y-81154819D01*
X150201428Y-81154819D02*
X150296666Y-81154819D01*
X150296666Y-81154819D02*
X150439523Y-81202438D01*
X150439523Y-81202438D02*
X150487142Y-81250057D01*
X151439523Y-82154819D02*
X150868095Y-82154819D01*
X151153809Y-82154819D02*
X151153809Y-81154819D01*
X151153809Y-81154819D02*
X151058571Y-81297676D01*
X151058571Y-81297676D02*
X150963333Y-81392914D01*
X150963333Y-81392914D02*
X150868095Y-81440533D01*
X152296666Y-81154819D02*
X152106190Y-81154819D01*
X152106190Y-81154819D02*
X152010952Y-81202438D01*
X152010952Y-81202438D02*
X151963333Y-81250057D01*
X151963333Y-81250057D02*
X151868095Y-81392914D01*
X151868095Y-81392914D02*
X151820476Y-81583390D01*
X151820476Y-81583390D02*
X151820476Y-81964342D01*
X151820476Y-81964342D02*
X151868095Y-82059580D01*
X151868095Y-82059580D02*
X151915714Y-82107200D01*
X151915714Y-82107200D02*
X152010952Y-82154819D01*
X152010952Y-82154819D02*
X152201428Y-82154819D01*
X152201428Y-82154819D02*
X152296666Y-82107200D01*
X152296666Y-82107200D02*
X152344285Y-82059580D01*
X152344285Y-82059580D02*
X152391904Y-81964342D01*
X152391904Y-81964342D02*
X152391904Y-81726247D01*
X152391904Y-81726247D02*
X152344285Y-81631009D01*
X152344285Y-81631009D02*
X152296666Y-81583390D01*
X152296666Y-81583390D02*
X152201428Y-81535771D01*
X152201428Y-81535771D02*
X152010952Y-81535771D01*
X152010952Y-81535771D02*
X151915714Y-81583390D01*
X151915714Y-81583390D02*
X151868095Y-81631009D01*
X151868095Y-81631009D02*
X151820476Y-81726247D01*
X208454819Y-135809523D02*
X209169104Y-135809523D01*
X209169104Y-135809523D02*
X209311961Y-135857142D01*
X209311961Y-135857142D02*
X209407200Y-135952380D01*
X209407200Y-135952380D02*
X209454819Y-136095237D01*
X209454819Y-136095237D02*
X209454819Y-136190475D01*
X208454819Y-135428570D02*
X208454819Y-134809523D01*
X208454819Y-134809523D02*
X208835771Y-135142856D01*
X208835771Y-135142856D02*
X208835771Y-134999999D01*
X208835771Y-134999999D02*
X208883390Y-134904761D01*
X208883390Y-134904761D02*
X208931009Y-134857142D01*
X208931009Y-134857142D02*
X209026247Y-134809523D01*
X209026247Y-134809523D02*
X209264342Y-134809523D01*
X209264342Y-134809523D02*
X209359580Y-134857142D01*
X209359580Y-134857142D02*
X209407200Y-134904761D01*
X209407200Y-134904761D02*
X209454819Y-134999999D01*
X209454819Y-134999999D02*
X209454819Y-135285713D01*
X209454819Y-135285713D02*
X209407200Y-135380951D01*
X209407200Y-135380951D02*
X209359580Y-135428570D01*
X208788152Y-133952380D02*
X209454819Y-133952380D01*
X208407200Y-134190475D02*
X209121485Y-134428570D01*
X209121485Y-134428570D02*
X209121485Y-133809523D01*
X128788095Y-62204819D02*
X129359523Y-62204819D01*
X129073809Y-63204819D02*
X129073809Y-62204819D01*
X129692857Y-63204819D02*
X129692857Y-62204819D01*
X129692857Y-62204819D02*
X130073809Y-62204819D01*
X130073809Y-62204819D02*
X130169047Y-62252438D01*
X130169047Y-62252438D02*
X130216666Y-62300057D01*
X130216666Y-62300057D02*
X130264285Y-62395295D01*
X130264285Y-62395295D02*
X130264285Y-62538152D01*
X130264285Y-62538152D02*
X130216666Y-62633390D01*
X130216666Y-62633390D02*
X130169047Y-62681009D01*
X130169047Y-62681009D02*
X130073809Y-62728628D01*
X130073809Y-62728628D02*
X129692857Y-62728628D01*
X130645238Y-62300057D02*
X130692857Y-62252438D01*
X130692857Y-62252438D02*
X130788095Y-62204819D01*
X130788095Y-62204819D02*
X131026190Y-62204819D01*
X131026190Y-62204819D02*
X131121428Y-62252438D01*
X131121428Y-62252438D02*
X131169047Y-62300057D01*
X131169047Y-62300057D02*
X131216666Y-62395295D01*
X131216666Y-62395295D02*
X131216666Y-62490533D01*
X131216666Y-62490533D02*
X131169047Y-62633390D01*
X131169047Y-62633390D02*
X130597619Y-63204819D01*
X130597619Y-63204819D02*
X131216666Y-63204819D01*
X173004819Y-66092857D02*
X172528628Y-66426190D01*
X173004819Y-66664285D02*
X172004819Y-66664285D01*
X172004819Y-66664285D02*
X172004819Y-66283333D01*
X172004819Y-66283333D02*
X172052438Y-66188095D01*
X172052438Y-66188095D02*
X172100057Y-66140476D01*
X172100057Y-66140476D02*
X172195295Y-66092857D01*
X172195295Y-66092857D02*
X172338152Y-66092857D01*
X172338152Y-66092857D02*
X172433390Y-66140476D01*
X172433390Y-66140476D02*
X172481009Y-66188095D01*
X172481009Y-66188095D02*
X172528628Y-66283333D01*
X172528628Y-66283333D02*
X172528628Y-66664285D01*
X173004819Y-65140476D02*
X173004819Y-65711904D01*
X173004819Y-65426190D02*
X172004819Y-65426190D01*
X172004819Y-65426190D02*
X172147676Y-65521428D01*
X172147676Y-65521428D02*
X172242914Y-65616666D01*
X172242914Y-65616666D02*
X172290533Y-65711904D01*
X173004819Y-64188095D02*
X173004819Y-64759523D01*
X173004819Y-64473809D02*
X172004819Y-64473809D01*
X172004819Y-64473809D02*
X172147676Y-64569047D01*
X172147676Y-64569047D02*
X172242914Y-64664285D01*
X172242914Y-64664285D02*
X172290533Y-64759523D01*
X133766666Y-72004819D02*
X133766666Y-72719104D01*
X133766666Y-72719104D02*
X133719047Y-72861961D01*
X133719047Y-72861961D02*
X133623809Y-72957200D01*
X133623809Y-72957200D02*
X133480952Y-73004819D01*
X133480952Y-73004819D02*
X133385714Y-73004819D01*
X134766666Y-73004819D02*
X134195238Y-73004819D01*
X134480952Y-73004819D02*
X134480952Y-72004819D01*
X134480952Y-72004819D02*
X134385714Y-72147676D01*
X134385714Y-72147676D02*
X134290476Y-72242914D01*
X134290476Y-72242914D02*
X134195238Y-72290533D01*
X157354819Y-78616666D02*
X156878628Y-78949999D01*
X157354819Y-79188094D02*
X156354819Y-79188094D01*
X156354819Y-79188094D02*
X156354819Y-78807142D01*
X156354819Y-78807142D02*
X156402438Y-78711904D01*
X156402438Y-78711904D02*
X156450057Y-78664285D01*
X156450057Y-78664285D02*
X156545295Y-78616666D01*
X156545295Y-78616666D02*
X156688152Y-78616666D01*
X156688152Y-78616666D02*
X156783390Y-78664285D01*
X156783390Y-78664285D02*
X156831009Y-78711904D01*
X156831009Y-78711904D02*
X156878628Y-78807142D01*
X156878628Y-78807142D02*
X156878628Y-79188094D01*
X156354819Y-78283332D02*
X156354819Y-77616666D01*
X156354819Y-77616666D02*
X157354819Y-78045237D01*
X147274819Y-42738094D02*
X146274819Y-42738094D01*
X146274819Y-42738094D02*
X146274819Y-42499999D01*
X146274819Y-42499999D02*
X146322438Y-42357142D01*
X146322438Y-42357142D02*
X146417676Y-42261904D01*
X146417676Y-42261904D02*
X146512914Y-42214285D01*
X146512914Y-42214285D02*
X146703390Y-42166666D01*
X146703390Y-42166666D02*
X146846247Y-42166666D01*
X146846247Y-42166666D02*
X147036723Y-42214285D01*
X147036723Y-42214285D02*
X147131961Y-42261904D01*
X147131961Y-42261904D02*
X147227200Y-42357142D01*
X147227200Y-42357142D02*
X147274819Y-42499999D01*
X147274819Y-42499999D02*
X147274819Y-42738094D01*
X147274819Y-41690475D02*
X147274819Y-41499999D01*
X147274819Y-41499999D02*
X147227200Y-41404761D01*
X147227200Y-41404761D02*
X147179580Y-41357142D01*
X147179580Y-41357142D02*
X147036723Y-41261904D01*
X147036723Y-41261904D02*
X146846247Y-41214285D01*
X146846247Y-41214285D02*
X146465295Y-41214285D01*
X146465295Y-41214285D02*
X146370057Y-41261904D01*
X146370057Y-41261904D02*
X146322438Y-41309523D01*
X146322438Y-41309523D02*
X146274819Y-41404761D01*
X146274819Y-41404761D02*
X146274819Y-41595237D01*
X146274819Y-41595237D02*
X146322438Y-41690475D01*
X146322438Y-41690475D02*
X146370057Y-41738094D01*
X146370057Y-41738094D02*
X146465295Y-41785713D01*
X146465295Y-41785713D02*
X146703390Y-41785713D01*
X146703390Y-41785713D02*
X146798628Y-41738094D01*
X146798628Y-41738094D02*
X146846247Y-41690475D01*
X146846247Y-41690475D02*
X146893866Y-41595237D01*
X146893866Y-41595237D02*
X146893866Y-41404761D01*
X146893866Y-41404761D02*
X146846247Y-41309523D01*
X146846247Y-41309523D02*
X146798628Y-41261904D01*
X146798628Y-41261904D02*
X146703390Y-41214285D01*
X62634580Y-185867857D02*
X62682200Y-185915476D01*
X62682200Y-185915476D02*
X62729819Y-186058333D01*
X62729819Y-186058333D02*
X62729819Y-186153571D01*
X62729819Y-186153571D02*
X62682200Y-186296428D01*
X62682200Y-186296428D02*
X62586961Y-186391666D01*
X62586961Y-186391666D02*
X62491723Y-186439285D01*
X62491723Y-186439285D02*
X62301247Y-186486904D01*
X62301247Y-186486904D02*
X62158390Y-186486904D01*
X62158390Y-186486904D02*
X61967914Y-186439285D01*
X61967914Y-186439285D02*
X61872676Y-186391666D01*
X61872676Y-186391666D02*
X61777438Y-186296428D01*
X61777438Y-186296428D02*
X61729819Y-186153571D01*
X61729819Y-186153571D02*
X61729819Y-186058333D01*
X61729819Y-186058333D02*
X61777438Y-185915476D01*
X61777438Y-185915476D02*
X61825057Y-185867857D01*
X61825057Y-185486904D02*
X61777438Y-185439285D01*
X61777438Y-185439285D02*
X61729819Y-185344047D01*
X61729819Y-185344047D02*
X61729819Y-185105952D01*
X61729819Y-185105952D02*
X61777438Y-185010714D01*
X61777438Y-185010714D02*
X61825057Y-184963095D01*
X61825057Y-184963095D02*
X61920295Y-184915476D01*
X61920295Y-184915476D02*
X62015533Y-184915476D01*
X62015533Y-184915476D02*
X62158390Y-184963095D01*
X62158390Y-184963095D02*
X62729819Y-185534523D01*
X62729819Y-185534523D02*
X62729819Y-184915476D01*
X61729819Y-184296428D02*
X61729819Y-184201190D01*
X61729819Y-184201190D02*
X61777438Y-184105952D01*
X61777438Y-184105952D02*
X61825057Y-184058333D01*
X61825057Y-184058333D02*
X61920295Y-184010714D01*
X61920295Y-184010714D02*
X62110771Y-183963095D01*
X62110771Y-183963095D02*
X62348866Y-183963095D01*
X62348866Y-183963095D02*
X62539342Y-184010714D01*
X62539342Y-184010714D02*
X62634580Y-184058333D01*
X62634580Y-184058333D02*
X62682200Y-184105952D01*
X62682200Y-184105952D02*
X62729819Y-184201190D01*
X62729819Y-184201190D02*
X62729819Y-184296428D01*
X62729819Y-184296428D02*
X62682200Y-184391666D01*
X62682200Y-184391666D02*
X62634580Y-184439285D01*
X62634580Y-184439285D02*
X62539342Y-184486904D01*
X62539342Y-184486904D02*
X62348866Y-184534523D01*
X62348866Y-184534523D02*
X62110771Y-184534523D01*
X62110771Y-184534523D02*
X61920295Y-184486904D01*
X61920295Y-184486904D02*
X61825057Y-184439285D01*
X61825057Y-184439285D02*
X61777438Y-184391666D01*
X61777438Y-184391666D02*
X61729819Y-184296428D01*
X150454819Y-81242857D02*
X149978628Y-81576190D01*
X150454819Y-81814285D02*
X149454819Y-81814285D01*
X149454819Y-81814285D02*
X149454819Y-81433333D01*
X149454819Y-81433333D02*
X149502438Y-81338095D01*
X149502438Y-81338095D02*
X149550057Y-81290476D01*
X149550057Y-81290476D02*
X149645295Y-81242857D01*
X149645295Y-81242857D02*
X149788152Y-81242857D01*
X149788152Y-81242857D02*
X149883390Y-81290476D01*
X149883390Y-81290476D02*
X149931009Y-81338095D01*
X149931009Y-81338095D02*
X149978628Y-81433333D01*
X149978628Y-81433333D02*
X149978628Y-81814285D01*
X149454819Y-80338095D02*
X149454819Y-80814285D01*
X149454819Y-80814285D02*
X149931009Y-80861904D01*
X149931009Y-80861904D02*
X149883390Y-80814285D01*
X149883390Y-80814285D02*
X149835771Y-80719047D01*
X149835771Y-80719047D02*
X149835771Y-80480952D01*
X149835771Y-80480952D02*
X149883390Y-80385714D01*
X149883390Y-80385714D02*
X149931009Y-80338095D01*
X149931009Y-80338095D02*
X150026247Y-80290476D01*
X150026247Y-80290476D02*
X150264342Y-80290476D01*
X150264342Y-80290476D02*
X150359580Y-80338095D01*
X150359580Y-80338095D02*
X150407200Y-80385714D01*
X150407200Y-80385714D02*
X150454819Y-80480952D01*
X150454819Y-80480952D02*
X150454819Y-80719047D01*
X150454819Y-80719047D02*
X150407200Y-80814285D01*
X150407200Y-80814285D02*
X150359580Y-80861904D01*
X149454819Y-79957142D02*
X149454819Y-79338095D01*
X149454819Y-79338095D02*
X149835771Y-79671428D01*
X149835771Y-79671428D02*
X149835771Y-79528571D01*
X149835771Y-79528571D02*
X149883390Y-79433333D01*
X149883390Y-79433333D02*
X149931009Y-79385714D01*
X149931009Y-79385714D02*
X150026247Y-79338095D01*
X150026247Y-79338095D02*
X150264342Y-79338095D01*
X150264342Y-79338095D02*
X150359580Y-79385714D01*
X150359580Y-79385714D02*
X150407200Y-79433333D01*
X150407200Y-79433333D02*
X150454819Y-79528571D01*
X150454819Y-79528571D02*
X150454819Y-79814285D01*
X150454819Y-79814285D02*
X150407200Y-79909523D01*
X150407200Y-79909523D02*
X150359580Y-79957142D01*
X178689580Y-69766666D02*
X178737200Y-69814285D01*
X178737200Y-69814285D02*
X178784819Y-69957142D01*
X178784819Y-69957142D02*
X178784819Y-70052380D01*
X178784819Y-70052380D02*
X178737200Y-70195237D01*
X178737200Y-70195237D02*
X178641961Y-70290475D01*
X178641961Y-70290475D02*
X178546723Y-70338094D01*
X178546723Y-70338094D02*
X178356247Y-70385713D01*
X178356247Y-70385713D02*
X178213390Y-70385713D01*
X178213390Y-70385713D02*
X178022914Y-70338094D01*
X178022914Y-70338094D02*
X177927676Y-70290475D01*
X177927676Y-70290475D02*
X177832438Y-70195237D01*
X177832438Y-70195237D02*
X177784819Y-70052380D01*
X177784819Y-70052380D02*
X177784819Y-69957142D01*
X177784819Y-69957142D02*
X177832438Y-69814285D01*
X177832438Y-69814285D02*
X177880057Y-69766666D01*
X177784819Y-69433332D02*
X177784819Y-68814285D01*
X177784819Y-68814285D02*
X178165771Y-69147618D01*
X178165771Y-69147618D02*
X178165771Y-69004761D01*
X178165771Y-69004761D02*
X178213390Y-68909523D01*
X178213390Y-68909523D02*
X178261009Y-68861904D01*
X178261009Y-68861904D02*
X178356247Y-68814285D01*
X178356247Y-68814285D02*
X178594342Y-68814285D01*
X178594342Y-68814285D02*
X178689580Y-68861904D01*
X178689580Y-68861904D02*
X178737200Y-68909523D01*
X178737200Y-68909523D02*
X178784819Y-69004761D01*
X178784819Y-69004761D02*
X178784819Y-69290475D01*
X178784819Y-69290475D02*
X178737200Y-69385713D01*
X178737200Y-69385713D02*
X178689580Y-69433332D01*
X235327319Y-52659523D02*
X236041604Y-52659523D01*
X236041604Y-52659523D02*
X236184461Y-52707142D01*
X236184461Y-52707142D02*
X236279700Y-52802380D01*
X236279700Y-52802380D02*
X236327319Y-52945237D01*
X236327319Y-52945237D02*
X236327319Y-53040475D01*
X235327319Y-52278570D02*
X235327319Y-51659523D01*
X235327319Y-51659523D02*
X235708271Y-51992856D01*
X235708271Y-51992856D02*
X235708271Y-51849999D01*
X235708271Y-51849999D02*
X235755890Y-51754761D01*
X235755890Y-51754761D02*
X235803509Y-51707142D01*
X235803509Y-51707142D02*
X235898747Y-51659523D01*
X235898747Y-51659523D02*
X236136842Y-51659523D01*
X236136842Y-51659523D02*
X236232080Y-51707142D01*
X236232080Y-51707142D02*
X236279700Y-51754761D01*
X236279700Y-51754761D02*
X236327319Y-51849999D01*
X236327319Y-51849999D02*
X236327319Y-52135713D01*
X236327319Y-52135713D02*
X236279700Y-52230951D01*
X236279700Y-52230951D02*
X236232080Y-52278570D01*
X235327319Y-51040475D02*
X235327319Y-50945237D01*
X235327319Y-50945237D02*
X235374938Y-50849999D01*
X235374938Y-50849999D02*
X235422557Y-50802380D01*
X235422557Y-50802380D02*
X235517795Y-50754761D01*
X235517795Y-50754761D02*
X235708271Y-50707142D01*
X235708271Y-50707142D02*
X235946366Y-50707142D01*
X235946366Y-50707142D02*
X236136842Y-50754761D01*
X236136842Y-50754761D02*
X236232080Y-50802380D01*
X236232080Y-50802380D02*
X236279700Y-50849999D01*
X236279700Y-50849999D02*
X236327319Y-50945237D01*
X236327319Y-50945237D02*
X236327319Y-51040475D01*
X236327319Y-51040475D02*
X236279700Y-51135713D01*
X236279700Y-51135713D02*
X236232080Y-51183332D01*
X236232080Y-51183332D02*
X236136842Y-51230951D01*
X236136842Y-51230951D02*
X235946366Y-51278570D01*
X235946366Y-51278570D02*
X235708271Y-51278570D01*
X235708271Y-51278570D02*
X235517795Y-51230951D01*
X235517795Y-51230951D02*
X235422557Y-51183332D01*
X235422557Y-51183332D02*
X235374938Y-51135713D01*
X235374938Y-51135713D02*
X235327319Y-51040475D01*
X45804819Y-40633333D02*
X46519104Y-40633333D01*
X46519104Y-40633333D02*
X46661961Y-40680952D01*
X46661961Y-40680952D02*
X46757200Y-40776190D01*
X46757200Y-40776190D02*
X46804819Y-40919047D01*
X46804819Y-40919047D02*
X46804819Y-41014285D01*
X46138152Y-39728571D02*
X46804819Y-39728571D01*
X45757200Y-39966666D02*
X46471485Y-40204761D01*
X46471485Y-40204761D02*
X46471485Y-39585714D01*
X175134819Y-140842857D02*
X174658628Y-141176190D01*
X175134819Y-141414285D02*
X174134819Y-141414285D01*
X174134819Y-141414285D02*
X174134819Y-141033333D01*
X174134819Y-141033333D02*
X174182438Y-140938095D01*
X174182438Y-140938095D02*
X174230057Y-140890476D01*
X174230057Y-140890476D02*
X174325295Y-140842857D01*
X174325295Y-140842857D02*
X174468152Y-140842857D01*
X174468152Y-140842857D02*
X174563390Y-140890476D01*
X174563390Y-140890476D02*
X174611009Y-140938095D01*
X174611009Y-140938095D02*
X174658628Y-141033333D01*
X174658628Y-141033333D02*
X174658628Y-141414285D01*
X174468152Y-139985714D02*
X175134819Y-139985714D01*
X174087200Y-140223809D02*
X174801485Y-140461904D01*
X174801485Y-140461904D02*
X174801485Y-139842857D01*
X175134819Y-138938095D02*
X175134819Y-139509523D01*
X175134819Y-139223809D02*
X174134819Y-139223809D01*
X174134819Y-139223809D02*
X174277676Y-139319047D01*
X174277676Y-139319047D02*
X174372914Y-139414285D01*
X174372914Y-139414285D02*
X174420533Y-139509523D01*
X151653276Y-98742547D02*
X151653276Y-100070676D01*
X151653276Y-100070676D02*
X151731401Y-100226926D01*
X151731401Y-100226926D02*
X151809526Y-100305052D01*
X151809526Y-100305052D02*
X151965777Y-100383177D01*
X151965777Y-100383177D02*
X152278278Y-100383177D01*
X152278278Y-100383177D02*
X152434528Y-100305052D01*
X152434528Y-100305052D02*
X152512653Y-100226926D01*
X152512653Y-100226926D02*
X152590779Y-100070676D01*
X152590779Y-100070676D02*
X152590779Y-98742547D01*
X154075158Y-99289423D02*
X154075158Y-100383177D01*
X153684532Y-98664422D02*
X153293905Y-99836300D01*
X153293905Y-99836300D02*
X154309534Y-99836300D01*
X144624819Y-41692857D02*
X144148628Y-42026190D01*
X144624819Y-42264285D02*
X143624819Y-42264285D01*
X143624819Y-42264285D02*
X143624819Y-41883333D01*
X143624819Y-41883333D02*
X143672438Y-41788095D01*
X143672438Y-41788095D02*
X143720057Y-41740476D01*
X143720057Y-41740476D02*
X143815295Y-41692857D01*
X143815295Y-41692857D02*
X143958152Y-41692857D01*
X143958152Y-41692857D02*
X144053390Y-41740476D01*
X144053390Y-41740476D02*
X144101009Y-41788095D01*
X144101009Y-41788095D02*
X144148628Y-41883333D01*
X144148628Y-41883333D02*
X144148628Y-42264285D01*
X143624819Y-41359523D02*
X143624819Y-40740476D01*
X143624819Y-40740476D02*
X144005771Y-41073809D01*
X144005771Y-41073809D02*
X144005771Y-40930952D01*
X144005771Y-40930952D02*
X144053390Y-40835714D01*
X144053390Y-40835714D02*
X144101009Y-40788095D01*
X144101009Y-40788095D02*
X144196247Y-40740476D01*
X144196247Y-40740476D02*
X144434342Y-40740476D01*
X144434342Y-40740476D02*
X144529580Y-40788095D01*
X144529580Y-40788095D02*
X144577200Y-40835714D01*
X144577200Y-40835714D02*
X144624819Y-40930952D01*
X144624819Y-40930952D02*
X144624819Y-41216666D01*
X144624819Y-41216666D02*
X144577200Y-41311904D01*
X144577200Y-41311904D02*
X144529580Y-41359523D01*
X143624819Y-39883333D02*
X143624819Y-40073809D01*
X143624819Y-40073809D02*
X143672438Y-40169047D01*
X143672438Y-40169047D02*
X143720057Y-40216666D01*
X143720057Y-40216666D02*
X143862914Y-40311904D01*
X143862914Y-40311904D02*
X144053390Y-40359523D01*
X144053390Y-40359523D02*
X144434342Y-40359523D01*
X144434342Y-40359523D02*
X144529580Y-40311904D01*
X144529580Y-40311904D02*
X144577200Y-40264285D01*
X144577200Y-40264285D02*
X144624819Y-40169047D01*
X144624819Y-40169047D02*
X144624819Y-39978571D01*
X144624819Y-39978571D02*
X144577200Y-39883333D01*
X144577200Y-39883333D02*
X144529580Y-39835714D01*
X144529580Y-39835714D02*
X144434342Y-39788095D01*
X144434342Y-39788095D02*
X144196247Y-39788095D01*
X144196247Y-39788095D02*
X144101009Y-39835714D01*
X144101009Y-39835714D02*
X144053390Y-39883333D01*
X144053390Y-39883333D02*
X144005771Y-39978571D01*
X144005771Y-39978571D02*
X144005771Y-40169047D01*
X144005771Y-40169047D02*
X144053390Y-40264285D01*
X144053390Y-40264285D02*
X144101009Y-40311904D01*
X144101009Y-40311904D02*
X144196247Y-40359523D01*
X77640476Y-59574819D02*
X77640476Y-60289104D01*
X77640476Y-60289104D02*
X77592857Y-60431961D01*
X77592857Y-60431961D02*
X77497619Y-60527200D01*
X77497619Y-60527200D02*
X77354762Y-60574819D01*
X77354762Y-60574819D02*
X77259524Y-60574819D01*
X78069048Y-59670057D02*
X78116667Y-59622438D01*
X78116667Y-59622438D02*
X78211905Y-59574819D01*
X78211905Y-59574819D02*
X78450000Y-59574819D01*
X78450000Y-59574819D02*
X78545238Y-59622438D01*
X78545238Y-59622438D02*
X78592857Y-59670057D01*
X78592857Y-59670057D02*
X78640476Y-59765295D01*
X78640476Y-59765295D02*
X78640476Y-59860533D01*
X78640476Y-59860533D02*
X78592857Y-60003390D01*
X78592857Y-60003390D02*
X78021429Y-60574819D01*
X78021429Y-60574819D02*
X78640476Y-60574819D01*
X79021429Y-59670057D02*
X79069048Y-59622438D01*
X79069048Y-59622438D02*
X79164286Y-59574819D01*
X79164286Y-59574819D02*
X79402381Y-59574819D01*
X79402381Y-59574819D02*
X79497619Y-59622438D01*
X79497619Y-59622438D02*
X79545238Y-59670057D01*
X79545238Y-59670057D02*
X79592857Y-59765295D01*
X79592857Y-59765295D02*
X79592857Y-59860533D01*
X79592857Y-59860533D02*
X79545238Y-60003390D01*
X79545238Y-60003390D02*
X78973810Y-60574819D01*
X78973810Y-60574819D02*
X79592857Y-60574819D01*
X200254819Y-135859523D02*
X200969104Y-135859523D01*
X200969104Y-135859523D02*
X201111961Y-135907142D01*
X201111961Y-135907142D02*
X201207200Y-136002380D01*
X201207200Y-136002380D02*
X201254819Y-136145237D01*
X201254819Y-136145237D02*
X201254819Y-136240475D01*
X200254819Y-135478570D02*
X200254819Y-134859523D01*
X200254819Y-134859523D02*
X200635771Y-135192856D01*
X200635771Y-135192856D02*
X200635771Y-135049999D01*
X200635771Y-135049999D02*
X200683390Y-134954761D01*
X200683390Y-134954761D02*
X200731009Y-134907142D01*
X200731009Y-134907142D02*
X200826247Y-134859523D01*
X200826247Y-134859523D02*
X201064342Y-134859523D01*
X201064342Y-134859523D02*
X201159580Y-134907142D01*
X201159580Y-134907142D02*
X201207200Y-134954761D01*
X201207200Y-134954761D02*
X201254819Y-135049999D01*
X201254819Y-135049999D02*
X201254819Y-135335713D01*
X201254819Y-135335713D02*
X201207200Y-135430951D01*
X201207200Y-135430951D02*
X201159580Y-135478570D01*
X200254819Y-134002380D02*
X200254819Y-134192856D01*
X200254819Y-134192856D02*
X200302438Y-134288094D01*
X200302438Y-134288094D02*
X200350057Y-134335713D01*
X200350057Y-134335713D02*
X200492914Y-134430951D01*
X200492914Y-134430951D02*
X200683390Y-134478570D01*
X200683390Y-134478570D02*
X201064342Y-134478570D01*
X201064342Y-134478570D02*
X201159580Y-134430951D01*
X201159580Y-134430951D02*
X201207200Y-134383332D01*
X201207200Y-134383332D02*
X201254819Y-134288094D01*
X201254819Y-134288094D02*
X201254819Y-134097618D01*
X201254819Y-134097618D02*
X201207200Y-134002380D01*
X201207200Y-134002380D02*
X201159580Y-133954761D01*
X201159580Y-133954761D02*
X201064342Y-133907142D01*
X201064342Y-133907142D02*
X200826247Y-133907142D01*
X200826247Y-133907142D02*
X200731009Y-133954761D01*
X200731009Y-133954761D02*
X200683390Y-134002380D01*
X200683390Y-134002380D02*
X200635771Y-134097618D01*
X200635771Y-134097618D02*
X200635771Y-134288094D01*
X200635771Y-134288094D02*
X200683390Y-134383332D01*
X200683390Y-134383332D02*
X200731009Y-134430951D01*
X200731009Y-134430951D02*
X200826247Y-134478570D01*
X149011905Y-155374819D02*
X149011905Y-154374819D01*
X149011905Y-154374819D02*
X149250000Y-154374819D01*
X149250000Y-154374819D02*
X149392857Y-154422438D01*
X149392857Y-154422438D02*
X149488095Y-154517676D01*
X149488095Y-154517676D02*
X149535714Y-154612914D01*
X149535714Y-154612914D02*
X149583333Y-154803390D01*
X149583333Y-154803390D02*
X149583333Y-154946247D01*
X149583333Y-154946247D02*
X149535714Y-155136723D01*
X149535714Y-155136723D02*
X149488095Y-155231961D01*
X149488095Y-155231961D02*
X149392857Y-155327200D01*
X149392857Y-155327200D02*
X149250000Y-155374819D01*
X149250000Y-155374819D02*
X149011905Y-155374819D01*
X149916667Y-154374819D02*
X150535714Y-154374819D01*
X150535714Y-154374819D02*
X150202381Y-154755771D01*
X150202381Y-154755771D02*
X150345238Y-154755771D01*
X150345238Y-154755771D02*
X150440476Y-154803390D01*
X150440476Y-154803390D02*
X150488095Y-154851009D01*
X150488095Y-154851009D02*
X150535714Y-154946247D01*
X150535714Y-154946247D02*
X150535714Y-155184342D01*
X150535714Y-155184342D02*
X150488095Y-155279580D01*
X150488095Y-155279580D02*
X150440476Y-155327200D01*
X150440476Y-155327200D02*
X150345238Y-155374819D01*
X150345238Y-155374819D02*
X150059524Y-155374819D01*
X150059524Y-155374819D02*
X149964286Y-155327200D01*
X149964286Y-155327200D02*
X149916667Y-155279580D01*
X157108095Y-154254819D02*
X157108095Y-153254819D01*
X157679523Y-154254819D02*
X157250952Y-153683390D01*
X157679523Y-153254819D02*
X157108095Y-153826247D01*
X182824819Y-102966666D02*
X182348628Y-103299999D01*
X182824819Y-103538094D02*
X181824819Y-103538094D01*
X181824819Y-103538094D02*
X181824819Y-103157142D01*
X181824819Y-103157142D02*
X181872438Y-103061904D01*
X181872438Y-103061904D02*
X181920057Y-103014285D01*
X181920057Y-103014285D02*
X182015295Y-102966666D01*
X182015295Y-102966666D02*
X182158152Y-102966666D01*
X182158152Y-102966666D02*
X182253390Y-103014285D01*
X182253390Y-103014285D02*
X182301009Y-103061904D01*
X182301009Y-103061904D02*
X182348628Y-103157142D01*
X182348628Y-103157142D02*
X182348628Y-103538094D01*
X181824819Y-102109523D02*
X181824819Y-102299999D01*
X181824819Y-102299999D02*
X181872438Y-102395237D01*
X181872438Y-102395237D02*
X181920057Y-102442856D01*
X181920057Y-102442856D02*
X182062914Y-102538094D01*
X182062914Y-102538094D02*
X182253390Y-102585713D01*
X182253390Y-102585713D02*
X182634342Y-102585713D01*
X182634342Y-102585713D02*
X182729580Y-102538094D01*
X182729580Y-102538094D02*
X182777200Y-102490475D01*
X182777200Y-102490475D02*
X182824819Y-102395237D01*
X182824819Y-102395237D02*
X182824819Y-102204761D01*
X182824819Y-102204761D02*
X182777200Y-102109523D01*
X182777200Y-102109523D02*
X182729580Y-102061904D01*
X182729580Y-102061904D02*
X182634342Y-102014285D01*
X182634342Y-102014285D02*
X182396247Y-102014285D01*
X182396247Y-102014285D02*
X182301009Y-102061904D01*
X182301009Y-102061904D02*
X182253390Y-102109523D01*
X182253390Y-102109523D02*
X182205771Y-102204761D01*
X182205771Y-102204761D02*
X182205771Y-102395237D01*
X182205771Y-102395237D02*
X182253390Y-102490475D01*
X182253390Y-102490475D02*
X182301009Y-102538094D01*
X182301009Y-102538094D02*
X182396247Y-102585713D01*
X65240476Y-59574819D02*
X65240476Y-60289104D01*
X65240476Y-60289104D02*
X65192857Y-60431961D01*
X65192857Y-60431961D02*
X65097619Y-60527200D01*
X65097619Y-60527200D02*
X64954762Y-60574819D01*
X64954762Y-60574819D02*
X64859524Y-60574819D01*
X66240476Y-60574819D02*
X65669048Y-60574819D01*
X65954762Y-60574819D02*
X65954762Y-59574819D01*
X65954762Y-59574819D02*
X65859524Y-59717676D01*
X65859524Y-59717676D02*
X65764286Y-59812914D01*
X65764286Y-59812914D02*
X65669048Y-59860533D01*
X66573810Y-59574819D02*
X67240476Y-59574819D01*
X67240476Y-59574819D02*
X66811905Y-60574819D01*
X180283333Y-77654819D02*
X179950000Y-77178628D01*
X179711905Y-77654819D02*
X179711905Y-76654819D01*
X179711905Y-76654819D02*
X180092857Y-76654819D01*
X180092857Y-76654819D02*
X180188095Y-76702438D01*
X180188095Y-76702438D02*
X180235714Y-76750057D01*
X180235714Y-76750057D02*
X180283333Y-76845295D01*
X180283333Y-76845295D02*
X180283333Y-76988152D01*
X180283333Y-76988152D02*
X180235714Y-77083390D01*
X180235714Y-77083390D02*
X180188095Y-77131009D01*
X180188095Y-77131009D02*
X180092857Y-77178628D01*
X180092857Y-77178628D02*
X179711905Y-77178628D01*
X180616667Y-76654819D02*
X181235714Y-76654819D01*
X181235714Y-76654819D02*
X180902381Y-77035771D01*
X180902381Y-77035771D02*
X181045238Y-77035771D01*
X181045238Y-77035771D02*
X181140476Y-77083390D01*
X181140476Y-77083390D02*
X181188095Y-77131009D01*
X181188095Y-77131009D02*
X181235714Y-77226247D01*
X181235714Y-77226247D02*
X181235714Y-77464342D01*
X181235714Y-77464342D02*
X181188095Y-77559580D01*
X181188095Y-77559580D02*
X181140476Y-77607200D01*
X181140476Y-77607200D02*
X181045238Y-77654819D01*
X181045238Y-77654819D02*
X180759524Y-77654819D01*
X180759524Y-77654819D02*
X180664286Y-77607200D01*
X180664286Y-77607200D02*
X180616667Y-77559580D01*
X77640476Y-101984819D02*
X77640476Y-102699104D01*
X77640476Y-102699104D02*
X77592857Y-102841961D01*
X77592857Y-102841961D02*
X77497619Y-102937200D01*
X77497619Y-102937200D02*
X77354762Y-102984819D01*
X77354762Y-102984819D02*
X77259524Y-102984819D01*
X78069048Y-102080057D02*
X78116667Y-102032438D01*
X78116667Y-102032438D02*
X78211905Y-101984819D01*
X78211905Y-101984819D02*
X78450000Y-101984819D01*
X78450000Y-101984819D02*
X78545238Y-102032438D01*
X78545238Y-102032438D02*
X78592857Y-102080057D01*
X78592857Y-102080057D02*
X78640476Y-102175295D01*
X78640476Y-102175295D02*
X78640476Y-102270533D01*
X78640476Y-102270533D02*
X78592857Y-102413390D01*
X78592857Y-102413390D02*
X78021429Y-102984819D01*
X78021429Y-102984819D02*
X78640476Y-102984819D01*
X79497619Y-102318152D02*
X79497619Y-102984819D01*
X79259524Y-101937200D02*
X79021429Y-102651485D01*
X79021429Y-102651485D02*
X79640476Y-102651485D01*
X65090476Y-17664819D02*
X65090476Y-18379104D01*
X65090476Y-18379104D02*
X65042857Y-18521961D01*
X65042857Y-18521961D02*
X64947619Y-18617200D01*
X64947619Y-18617200D02*
X64804762Y-18664819D01*
X64804762Y-18664819D02*
X64709524Y-18664819D01*
X65519048Y-17760057D02*
X65566667Y-17712438D01*
X65566667Y-17712438D02*
X65661905Y-17664819D01*
X65661905Y-17664819D02*
X65900000Y-17664819D01*
X65900000Y-17664819D02*
X65995238Y-17712438D01*
X65995238Y-17712438D02*
X66042857Y-17760057D01*
X66042857Y-17760057D02*
X66090476Y-17855295D01*
X66090476Y-17855295D02*
X66090476Y-17950533D01*
X66090476Y-17950533D02*
X66042857Y-18093390D01*
X66042857Y-18093390D02*
X65471429Y-18664819D01*
X65471429Y-18664819D02*
X66090476Y-18664819D01*
X66709524Y-17664819D02*
X66804762Y-17664819D01*
X66804762Y-17664819D02*
X66900000Y-17712438D01*
X66900000Y-17712438D02*
X66947619Y-17760057D01*
X66947619Y-17760057D02*
X66995238Y-17855295D01*
X66995238Y-17855295D02*
X67042857Y-18045771D01*
X67042857Y-18045771D02*
X67042857Y-18283866D01*
X67042857Y-18283866D02*
X66995238Y-18474342D01*
X66995238Y-18474342D02*
X66947619Y-18569580D01*
X66947619Y-18569580D02*
X66900000Y-18617200D01*
X66900000Y-18617200D02*
X66804762Y-18664819D01*
X66804762Y-18664819D02*
X66709524Y-18664819D01*
X66709524Y-18664819D02*
X66614286Y-18617200D01*
X66614286Y-18617200D02*
X66566667Y-18569580D01*
X66566667Y-18569580D02*
X66519048Y-18474342D01*
X66519048Y-18474342D02*
X66471429Y-18283866D01*
X66471429Y-18283866D02*
X66471429Y-18045771D01*
X66471429Y-18045771D02*
X66519048Y-17855295D01*
X66519048Y-17855295D02*
X66566667Y-17760057D01*
X66566667Y-17760057D02*
X66614286Y-17712438D01*
X66614286Y-17712438D02*
X66709524Y-17664819D01*
X181740476Y-178304819D02*
X181740476Y-179019104D01*
X181740476Y-179019104D02*
X181692857Y-179161961D01*
X181692857Y-179161961D02*
X181597619Y-179257200D01*
X181597619Y-179257200D02*
X181454762Y-179304819D01*
X181454762Y-179304819D02*
X181359524Y-179304819D01*
X182121429Y-178304819D02*
X182740476Y-178304819D01*
X182740476Y-178304819D02*
X182407143Y-178685771D01*
X182407143Y-178685771D02*
X182550000Y-178685771D01*
X182550000Y-178685771D02*
X182645238Y-178733390D01*
X182645238Y-178733390D02*
X182692857Y-178781009D01*
X182692857Y-178781009D02*
X182740476Y-178876247D01*
X182740476Y-178876247D02*
X182740476Y-179114342D01*
X182740476Y-179114342D02*
X182692857Y-179209580D01*
X182692857Y-179209580D02*
X182645238Y-179257200D01*
X182645238Y-179257200D02*
X182550000Y-179304819D01*
X182550000Y-179304819D02*
X182264286Y-179304819D01*
X182264286Y-179304819D02*
X182169048Y-179257200D01*
X182169048Y-179257200D02*
X182121429Y-179209580D01*
X183121429Y-178400057D02*
X183169048Y-178352438D01*
X183169048Y-178352438D02*
X183264286Y-178304819D01*
X183264286Y-178304819D02*
X183502381Y-178304819D01*
X183502381Y-178304819D02*
X183597619Y-178352438D01*
X183597619Y-178352438D02*
X183645238Y-178400057D01*
X183645238Y-178400057D02*
X183692857Y-178495295D01*
X183692857Y-178495295D02*
X183692857Y-178590533D01*
X183692857Y-178590533D02*
X183645238Y-178733390D01*
X183645238Y-178733390D02*
X183073810Y-179304819D01*
X183073810Y-179304819D02*
X183692857Y-179304819D01*
X157811905Y-41794819D02*
X157811905Y-42604342D01*
X157811905Y-42604342D02*
X157859524Y-42699580D01*
X157859524Y-42699580D02*
X157907143Y-42747200D01*
X157907143Y-42747200D02*
X158002381Y-42794819D01*
X158002381Y-42794819D02*
X158192857Y-42794819D01*
X158192857Y-42794819D02*
X158288095Y-42747200D01*
X158288095Y-42747200D02*
X158335714Y-42699580D01*
X158335714Y-42699580D02*
X158383333Y-42604342D01*
X158383333Y-42604342D02*
X158383333Y-41794819D01*
X159383333Y-42794819D02*
X158811905Y-42794819D01*
X159097619Y-42794819D02*
X159097619Y-41794819D01*
X159097619Y-41794819D02*
X159002381Y-41937676D01*
X159002381Y-41937676D02*
X158907143Y-42032914D01*
X158907143Y-42032914D02*
X158811905Y-42080533D01*
X159764286Y-41890057D02*
X159811905Y-41842438D01*
X159811905Y-41842438D02*
X159907143Y-41794819D01*
X159907143Y-41794819D02*
X160145238Y-41794819D01*
X160145238Y-41794819D02*
X160240476Y-41842438D01*
X160240476Y-41842438D02*
X160288095Y-41890057D01*
X160288095Y-41890057D02*
X160335714Y-41985295D01*
X160335714Y-41985295D02*
X160335714Y-42080533D01*
X160335714Y-42080533D02*
X160288095Y-42223390D01*
X160288095Y-42223390D02*
X159716667Y-42794819D01*
X159716667Y-42794819D02*
X160335714Y-42794819D01*
X154288094Y-46809104D02*
X154764284Y-46809104D01*
X154192856Y-47094819D02*
X154526189Y-46094819D01*
X154526189Y-46094819D02*
X154859522Y-47094819D01*
X155192856Y-46428152D02*
X155192856Y-47094819D01*
X155192856Y-46523390D02*
X155240475Y-46475771D01*
X155240475Y-46475771D02*
X155335713Y-46428152D01*
X155335713Y-46428152D02*
X155478570Y-46428152D01*
X155478570Y-46428152D02*
X155573808Y-46475771D01*
X155573808Y-46475771D02*
X155621427Y-46571009D01*
X155621427Y-46571009D02*
X155621427Y-47094819D01*
X155954761Y-46428152D02*
X156335713Y-46428152D01*
X156097618Y-46094819D02*
X156097618Y-46951961D01*
X156097618Y-46951961D02*
X156145237Y-47047200D01*
X156145237Y-47047200D02*
X156240475Y-47094819D01*
X156240475Y-47094819D02*
X156335713Y-47094819D01*
X157049999Y-47047200D02*
X156954761Y-47094819D01*
X156954761Y-47094819D02*
X156764285Y-47094819D01*
X156764285Y-47094819D02*
X156669047Y-47047200D01*
X156669047Y-47047200D02*
X156621428Y-46951961D01*
X156621428Y-46951961D02*
X156621428Y-46571009D01*
X156621428Y-46571009D02*
X156669047Y-46475771D01*
X156669047Y-46475771D02*
X156764285Y-46428152D01*
X156764285Y-46428152D02*
X156954761Y-46428152D01*
X156954761Y-46428152D02*
X157049999Y-46475771D01*
X157049999Y-46475771D02*
X157097618Y-46571009D01*
X157097618Y-46571009D02*
X157097618Y-46666247D01*
X157097618Y-46666247D02*
X156621428Y-46761485D01*
X157526190Y-46428152D02*
X157526190Y-47094819D01*
X157526190Y-46523390D02*
X157573809Y-46475771D01*
X157573809Y-46475771D02*
X157669047Y-46428152D01*
X157669047Y-46428152D02*
X157811904Y-46428152D01*
X157811904Y-46428152D02*
X157907142Y-46475771D01*
X157907142Y-46475771D02*
X157954761Y-46571009D01*
X157954761Y-46571009D02*
X157954761Y-47094819D01*
X158430952Y-46428152D02*
X158430952Y-47094819D01*
X158430952Y-46523390D02*
X158478571Y-46475771D01*
X158478571Y-46475771D02*
X158573809Y-46428152D01*
X158573809Y-46428152D02*
X158716666Y-46428152D01*
X158716666Y-46428152D02*
X158811904Y-46475771D01*
X158811904Y-46475771D02*
X158859523Y-46571009D01*
X158859523Y-46571009D02*
X158859523Y-47094819D01*
X159764285Y-47094819D02*
X159764285Y-46571009D01*
X159764285Y-46571009D02*
X159716666Y-46475771D01*
X159716666Y-46475771D02*
X159621428Y-46428152D01*
X159621428Y-46428152D02*
X159430952Y-46428152D01*
X159430952Y-46428152D02*
X159335714Y-46475771D01*
X159764285Y-47047200D02*
X159669047Y-47094819D01*
X159669047Y-47094819D02*
X159430952Y-47094819D01*
X159430952Y-47094819D02*
X159335714Y-47047200D01*
X159335714Y-47047200D02*
X159288095Y-46951961D01*
X159288095Y-46951961D02*
X159288095Y-46856723D01*
X159288095Y-46856723D02*
X159335714Y-46761485D01*
X159335714Y-46761485D02*
X159430952Y-46713866D01*
X159430952Y-46713866D02*
X159669047Y-46713866D01*
X159669047Y-46713866D02*
X159764285Y-46666247D01*
X160954762Y-46809104D02*
X161430952Y-46809104D01*
X160859524Y-47094819D02*
X161192857Y-46094819D01*
X161192857Y-46094819D02*
X161526190Y-47094819D01*
X161859524Y-47094819D02*
X161859524Y-46428152D01*
X161859524Y-46618628D02*
X161907143Y-46523390D01*
X161907143Y-46523390D02*
X161954762Y-46475771D01*
X161954762Y-46475771D02*
X162050000Y-46428152D01*
X162050000Y-46428152D02*
X162145238Y-46428152D01*
X162859524Y-47047200D02*
X162764286Y-47094819D01*
X162764286Y-47094819D02*
X162573810Y-47094819D01*
X162573810Y-47094819D02*
X162478572Y-47047200D01*
X162478572Y-47047200D02*
X162430953Y-46951961D01*
X162430953Y-46951961D02*
X162430953Y-46571009D01*
X162430953Y-46571009D02*
X162478572Y-46475771D01*
X162478572Y-46475771D02*
X162573810Y-46428152D01*
X162573810Y-46428152D02*
X162764286Y-46428152D01*
X162764286Y-46428152D02*
X162859524Y-46475771D01*
X162859524Y-46475771D02*
X162907143Y-46571009D01*
X162907143Y-46571009D02*
X162907143Y-46666247D01*
X162907143Y-46666247D02*
X162430953Y-46761485D01*
X163764286Y-47094819D02*
X163764286Y-46571009D01*
X163764286Y-46571009D02*
X163716667Y-46475771D01*
X163716667Y-46475771D02*
X163621429Y-46428152D01*
X163621429Y-46428152D02*
X163430953Y-46428152D01*
X163430953Y-46428152D02*
X163335715Y-46475771D01*
X163764286Y-47047200D02*
X163669048Y-47094819D01*
X163669048Y-47094819D02*
X163430953Y-47094819D01*
X163430953Y-47094819D02*
X163335715Y-47047200D01*
X163335715Y-47047200D02*
X163288096Y-46951961D01*
X163288096Y-46951961D02*
X163288096Y-46856723D01*
X163288096Y-46856723D02*
X163335715Y-46761485D01*
X163335715Y-46761485D02*
X163430953Y-46713866D01*
X163430953Y-46713866D02*
X163669048Y-46713866D01*
X163669048Y-46713866D02*
X163764286Y-46666247D01*
X186104819Y-32442857D02*
X185628628Y-32776190D01*
X186104819Y-33014285D02*
X185104819Y-33014285D01*
X185104819Y-33014285D02*
X185104819Y-32633333D01*
X185104819Y-32633333D02*
X185152438Y-32538095D01*
X185152438Y-32538095D02*
X185200057Y-32490476D01*
X185200057Y-32490476D02*
X185295295Y-32442857D01*
X185295295Y-32442857D02*
X185438152Y-32442857D01*
X185438152Y-32442857D02*
X185533390Y-32490476D01*
X185533390Y-32490476D02*
X185581009Y-32538095D01*
X185581009Y-32538095D02*
X185628628Y-32633333D01*
X185628628Y-32633333D02*
X185628628Y-33014285D01*
X186104819Y-31490476D02*
X186104819Y-32061904D01*
X186104819Y-31776190D02*
X185104819Y-31776190D01*
X185104819Y-31776190D02*
X185247676Y-31871428D01*
X185247676Y-31871428D02*
X185342914Y-31966666D01*
X185342914Y-31966666D02*
X185390533Y-32061904D01*
X185104819Y-31157142D02*
X185104819Y-30490476D01*
X185104819Y-30490476D02*
X186104819Y-30919047D01*
X163107142Y-87504819D02*
X162773809Y-87028628D01*
X162535714Y-87504819D02*
X162535714Y-86504819D01*
X162535714Y-86504819D02*
X162916666Y-86504819D01*
X162916666Y-86504819D02*
X163011904Y-86552438D01*
X163011904Y-86552438D02*
X163059523Y-86600057D01*
X163059523Y-86600057D02*
X163107142Y-86695295D01*
X163107142Y-86695295D02*
X163107142Y-86838152D01*
X163107142Y-86838152D02*
X163059523Y-86933390D01*
X163059523Y-86933390D02*
X163011904Y-86981009D01*
X163011904Y-86981009D02*
X162916666Y-87028628D01*
X162916666Y-87028628D02*
X162535714Y-87028628D01*
X164011904Y-86504819D02*
X163535714Y-86504819D01*
X163535714Y-86504819D02*
X163488095Y-86981009D01*
X163488095Y-86981009D02*
X163535714Y-86933390D01*
X163535714Y-86933390D02*
X163630952Y-86885771D01*
X163630952Y-86885771D02*
X163869047Y-86885771D01*
X163869047Y-86885771D02*
X163964285Y-86933390D01*
X163964285Y-86933390D02*
X164011904Y-86981009D01*
X164011904Y-86981009D02*
X164059523Y-87076247D01*
X164059523Y-87076247D02*
X164059523Y-87314342D01*
X164059523Y-87314342D02*
X164011904Y-87409580D01*
X164011904Y-87409580D02*
X163964285Y-87457200D01*
X163964285Y-87457200D02*
X163869047Y-87504819D01*
X163869047Y-87504819D02*
X163630952Y-87504819D01*
X163630952Y-87504819D02*
X163535714Y-87457200D01*
X163535714Y-87457200D02*
X163488095Y-87409580D01*
X164392857Y-86504819D02*
X165059523Y-86504819D01*
X165059523Y-86504819D02*
X164630952Y-87504819D01*
X185957142Y-59254819D02*
X185623809Y-58778628D01*
X185385714Y-59254819D02*
X185385714Y-58254819D01*
X185385714Y-58254819D02*
X185766666Y-58254819D01*
X185766666Y-58254819D02*
X185861904Y-58302438D01*
X185861904Y-58302438D02*
X185909523Y-58350057D01*
X185909523Y-58350057D02*
X185957142Y-58445295D01*
X185957142Y-58445295D02*
X185957142Y-58588152D01*
X185957142Y-58588152D02*
X185909523Y-58683390D01*
X185909523Y-58683390D02*
X185861904Y-58731009D01*
X185861904Y-58731009D02*
X185766666Y-58778628D01*
X185766666Y-58778628D02*
X185385714Y-58778628D01*
X186909523Y-59254819D02*
X186338095Y-59254819D01*
X186623809Y-59254819D02*
X186623809Y-58254819D01*
X186623809Y-58254819D02*
X186528571Y-58397676D01*
X186528571Y-58397676D02*
X186433333Y-58492914D01*
X186433333Y-58492914D02*
X186338095Y-58540533D01*
X187766666Y-58588152D02*
X187766666Y-59254819D01*
X187528571Y-58207200D02*
X187290476Y-58921485D01*
X187290476Y-58921485D02*
X187909523Y-58921485D01*
X194404819Y-135859523D02*
X195119104Y-135859523D01*
X195119104Y-135859523D02*
X195261961Y-135907142D01*
X195261961Y-135907142D02*
X195357200Y-136002380D01*
X195357200Y-136002380D02*
X195404819Y-136145237D01*
X195404819Y-136145237D02*
X195404819Y-136240475D01*
X194404819Y-135478570D02*
X194404819Y-134859523D01*
X194404819Y-134859523D02*
X194785771Y-135192856D01*
X194785771Y-135192856D02*
X194785771Y-135049999D01*
X194785771Y-135049999D02*
X194833390Y-134954761D01*
X194833390Y-134954761D02*
X194881009Y-134907142D01*
X194881009Y-134907142D02*
X194976247Y-134859523D01*
X194976247Y-134859523D02*
X195214342Y-134859523D01*
X195214342Y-134859523D02*
X195309580Y-134907142D01*
X195309580Y-134907142D02*
X195357200Y-134954761D01*
X195357200Y-134954761D02*
X195404819Y-135049999D01*
X195404819Y-135049999D02*
X195404819Y-135335713D01*
X195404819Y-135335713D02*
X195357200Y-135430951D01*
X195357200Y-135430951D02*
X195309580Y-135478570D01*
X194404819Y-134526189D02*
X194404819Y-133859523D01*
X194404819Y-133859523D02*
X195404819Y-134288094D01*
X77490476Y-17664819D02*
X77490476Y-18379104D01*
X77490476Y-18379104D02*
X77442857Y-18521961D01*
X77442857Y-18521961D02*
X77347619Y-18617200D01*
X77347619Y-18617200D02*
X77204762Y-18664819D01*
X77204762Y-18664819D02*
X77109524Y-18664819D01*
X77919048Y-17760057D02*
X77966667Y-17712438D01*
X77966667Y-17712438D02*
X78061905Y-17664819D01*
X78061905Y-17664819D02*
X78300000Y-17664819D01*
X78300000Y-17664819D02*
X78395238Y-17712438D01*
X78395238Y-17712438D02*
X78442857Y-17760057D01*
X78442857Y-17760057D02*
X78490476Y-17855295D01*
X78490476Y-17855295D02*
X78490476Y-17950533D01*
X78490476Y-17950533D02*
X78442857Y-18093390D01*
X78442857Y-18093390D02*
X77871429Y-18664819D01*
X77871429Y-18664819D02*
X78490476Y-18664819D01*
X78823810Y-17664819D02*
X79442857Y-17664819D01*
X79442857Y-17664819D02*
X79109524Y-18045771D01*
X79109524Y-18045771D02*
X79252381Y-18045771D01*
X79252381Y-18045771D02*
X79347619Y-18093390D01*
X79347619Y-18093390D02*
X79395238Y-18141009D01*
X79395238Y-18141009D02*
X79442857Y-18236247D01*
X79442857Y-18236247D02*
X79442857Y-18474342D01*
X79442857Y-18474342D02*
X79395238Y-18569580D01*
X79395238Y-18569580D02*
X79347619Y-18617200D01*
X79347619Y-18617200D02*
X79252381Y-18664819D01*
X79252381Y-18664819D02*
X78966667Y-18664819D01*
X78966667Y-18664819D02*
X78871429Y-18617200D01*
X78871429Y-18617200D02*
X78823810Y-18569580D01*
X97713334Y-24347200D02*
X97856191Y-24394819D01*
X97856191Y-24394819D02*
X98094286Y-24394819D01*
X98094286Y-24394819D02*
X98189524Y-24347200D01*
X98189524Y-24347200D02*
X98237143Y-24299580D01*
X98237143Y-24299580D02*
X98284762Y-24204342D01*
X98284762Y-24204342D02*
X98284762Y-24109104D01*
X98284762Y-24109104D02*
X98237143Y-24013866D01*
X98237143Y-24013866D02*
X98189524Y-23966247D01*
X98189524Y-23966247D02*
X98094286Y-23918628D01*
X98094286Y-23918628D02*
X97903810Y-23871009D01*
X97903810Y-23871009D02*
X97808572Y-23823390D01*
X97808572Y-23823390D02*
X97760953Y-23775771D01*
X97760953Y-23775771D02*
X97713334Y-23680533D01*
X97713334Y-23680533D02*
X97713334Y-23585295D01*
X97713334Y-23585295D02*
X97760953Y-23490057D01*
X97760953Y-23490057D02*
X97808572Y-23442438D01*
X97808572Y-23442438D02*
X97903810Y-23394819D01*
X97903810Y-23394819D02*
X98141905Y-23394819D01*
X98141905Y-23394819D02*
X98284762Y-23442438D01*
X98618096Y-23394819D02*
X98856191Y-24394819D01*
X98856191Y-24394819D02*
X99046667Y-23680533D01*
X99046667Y-23680533D02*
X99237143Y-24394819D01*
X99237143Y-24394819D02*
X99475239Y-23394819D01*
X99808572Y-23490057D02*
X99856191Y-23442438D01*
X99856191Y-23442438D02*
X99951429Y-23394819D01*
X99951429Y-23394819D02*
X100189524Y-23394819D01*
X100189524Y-23394819D02*
X100284762Y-23442438D01*
X100284762Y-23442438D02*
X100332381Y-23490057D01*
X100332381Y-23490057D02*
X100380000Y-23585295D01*
X100380000Y-23585295D02*
X100380000Y-23680533D01*
X100380000Y-23680533D02*
X100332381Y-23823390D01*
X100332381Y-23823390D02*
X99760953Y-24394819D01*
X99760953Y-24394819D02*
X100380000Y-24394819D01*
X95236667Y-18162419D02*
X95236667Y-18400514D01*
X94998572Y-18305276D02*
X95236667Y-18400514D01*
X95236667Y-18400514D02*
X95474762Y-18305276D01*
X95093810Y-18590990D02*
X95236667Y-18400514D01*
X95236667Y-18400514D02*
X95379524Y-18590990D01*
X95236667Y-18162419D02*
X95236667Y-18400514D01*
X94998572Y-18305276D02*
X95236667Y-18400514D01*
X95236667Y-18400514D02*
X95474762Y-18305276D01*
X95093810Y-18590990D02*
X95236667Y-18400514D01*
X95236667Y-18400514D02*
X95379524Y-18590990D01*
X94614486Y-15901819D02*
X94804962Y-15901819D01*
X94804962Y-15901819D02*
X94900200Y-15949438D01*
X94900200Y-15949438D02*
X94995438Y-16044676D01*
X94995438Y-16044676D02*
X95043057Y-16235152D01*
X95043057Y-16235152D02*
X95043057Y-16568485D01*
X95043057Y-16568485D02*
X94995438Y-16758961D01*
X94995438Y-16758961D02*
X94900200Y-16854200D01*
X94900200Y-16854200D02*
X94804962Y-16901819D01*
X94804962Y-16901819D02*
X94614486Y-16901819D01*
X94614486Y-16901819D02*
X94519248Y-16854200D01*
X94519248Y-16854200D02*
X94424010Y-16758961D01*
X94424010Y-16758961D02*
X94376391Y-16568485D01*
X94376391Y-16568485D02*
X94376391Y-16235152D01*
X94376391Y-16235152D02*
X94424010Y-16044676D01*
X94424010Y-16044676D02*
X94519248Y-15949438D01*
X94519248Y-15949438D02*
X94614486Y-15901819D01*
X95804962Y-16378009D02*
X95471629Y-16378009D01*
X95471629Y-16901819D02*
X95471629Y-15901819D01*
X95471629Y-15901819D02*
X95947819Y-15901819D01*
X96662105Y-16378009D02*
X96328772Y-16378009D01*
X96328772Y-16901819D02*
X96328772Y-15901819D01*
X96328772Y-15901819D02*
X96804962Y-15901819D01*
X101907419Y-15901819D02*
X102097895Y-15901819D01*
X102097895Y-15901819D02*
X102193133Y-15949438D01*
X102193133Y-15949438D02*
X102288371Y-16044676D01*
X102288371Y-16044676D02*
X102335990Y-16235152D01*
X102335990Y-16235152D02*
X102335990Y-16568485D01*
X102335990Y-16568485D02*
X102288371Y-16758961D01*
X102288371Y-16758961D02*
X102193133Y-16854200D01*
X102193133Y-16854200D02*
X102097895Y-16901819D01*
X102097895Y-16901819D02*
X101907419Y-16901819D01*
X101907419Y-16901819D02*
X101812181Y-16854200D01*
X101812181Y-16854200D02*
X101716943Y-16758961D01*
X101716943Y-16758961D02*
X101669324Y-16568485D01*
X101669324Y-16568485D02*
X101669324Y-16235152D01*
X101669324Y-16235152D02*
X101716943Y-16044676D01*
X101716943Y-16044676D02*
X101812181Y-15949438D01*
X101812181Y-15949438D02*
X101907419Y-15901819D01*
X102764562Y-16901819D02*
X102764562Y-15901819D01*
X102764562Y-15901819D02*
X103335990Y-16901819D01*
X103335990Y-16901819D02*
X103335990Y-15901819D01*
X197904819Y-50842857D02*
X197428628Y-51176190D01*
X197904819Y-51414285D02*
X196904819Y-51414285D01*
X196904819Y-51414285D02*
X196904819Y-51033333D01*
X196904819Y-51033333D02*
X196952438Y-50938095D01*
X196952438Y-50938095D02*
X197000057Y-50890476D01*
X197000057Y-50890476D02*
X197095295Y-50842857D01*
X197095295Y-50842857D02*
X197238152Y-50842857D01*
X197238152Y-50842857D02*
X197333390Y-50890476D01*
X197333390Y-50890476D02*
X197381009Y-50938095D01*
X197381009Y-50938095D02*
X197428628Y-51033333D01*
X197428628Y-51033333D02*
X197428628Y-51414285D01*
X197904819Y-49890476D02*
X197904819Y-50461904D01*
X197904819Y-50176190D02*
X196904819Y-50176190D01*
X196904819Y-50176190D02*
X197047676Y-50271428D01*
X197047676Y-50271428D02*
X197142914Y-50366666D01*
X197142914Y-50366666D02*
X197190533Y-50461904D01*
X196904819Y-49271428D02*
X196904819Y-49176190D01*
X196904819Y-49176190D02*
X196952438Y-49080952D01*
X196952438Y-49080952D02*
X197000057Y-49033333D01*
X197000057Y-49033333D02*
X197095295Y-48985714D01*
X197095295Y-48985714D02*
X197285771Y-48938095D01*
X197285771Y-48938095D02*
X197523866Y-48938095D01*
X197523866Y-48938095D02*
X197714342Y-48985714D01*
X197714342Y-48985714D02*
X197809580Y-49033333D01*
X197809580Y-49033333D02*
X197857200Y-49080952D01*
X197857200Y-49080952D02*
X197904819Y-49176190D01*
X197904819Y-49176190D02*
X197904819Y-49271428D01*
X197904819Y-49271428D02*
X197857200Y-49366666D01*
X197857200Y-49366666D02*
X197809580Y-49414285D01*
X197809580Y-49414285D02*
X197714342Y-49461904D01*
X197714342Y-49461904D02*
X197523866Y-49509523D01*
X197523866Y-49509523D02*
X197285771Y-49509523D01*
X197285771Y-49509523D02*
X197095295Y-49461904D01*
X197095295Y-49461904D02*
X197000057Y-49414285D01*
X197000057Y-49414285D02*
X196952438Y-49366666D01*
X196952438Y-49366666D02*
X196904819Y-49271428D01*
X214957142Y-88174819D02*
X214623809Y-87698628D01*
X214385714Y-88174819D02*
X214385714Y-87174819D01*
X214385714Y-87174819D02*
X214766666Y-87174819D01*
X214766666Y-87174819D02*
X214861904Y-87222438D01*
X214861904Y-87222438D02*
X214909523Y-87270057D01*
X214909523Y-87270057D02*
X214957142Y-87365295D01*
X214957142Y-87365295D02*
X214957142Y-87508152D01*
X214957142Y-87508152D02*
X214909523Y-87603390D01*
X214909523Y-87603390D02*
X214861904Y-87651009D01*
X214861904Y-87651009D02*
X214766666Y-87698628D01*
X214766666Y-87698628D02*
X214385714Y-87698628D01*
X215909523Y-88174819D02*
X215338095Y-88174819D01*
X215623809Y-88174819D02*
X215623809Y-87174819D01*
X215623809Y-87174819D02*
X215528571Y-87317676D01*
X215528571Y-87317676D02*
X215433333Y-87412914D01*
X215433333Y-87412914D02*
X215338095Y-87460533D01*
X216242857Y-87174819D02*
X216861904Y-87174819D01*
X216861904Y-87174819D02*
X216528571Y-87555771D01*
X216528571Y-87555771D02*
X216671428Y-87555771D01*
X216671428Y-87555771D02*
X216766666Y-87603390D01*
X216766666Y-87603390D02*
X216814285Y-87651009D01*
X216814285Y-87651009D02*
X216861904Y-87746247D01*
X216861904Y-87746247D02*
X216861904Y-87984342D01*
X216861904Y-87984342D02*
X216814285Y-88079580D01*
X216814285Y-88079580D02*
X216766666Y-88127200D01*
X216766666Y-88127200D02*
X216671428Y-88174819D01*
X216671428Y-88174819D02*
X216385714Y-88174819D01*
X216385714Y-88174819D02*
X216290476Y-88127200D01*
X216290476Y-88127200D02*
X216242857Y-88079580D01*
X129088095Y-56354819D02*
X129659523Y-56354819D01*
X129373809Y-57354819D02*
X129373809Y-56354819D01*
X129992857Y-57354819D02*
X129992857Y-56354819D01*
X129992857Y-56354819D02*
X130373809Y-56354819D01*
X130373809Y-56354819D02*
X130469047Y-56402438D01*
X130469047Y-56402438D02*
X130516666Y-56450057D01*
X130516666Y-56450057D02*
X130564285Y-56545295D01*
X130564285Y-56545295D02*
X130564285Y-56688152D01*
X130564285Y-56688152D02*
X130516666Y-56783390D01*
X130516666Y-56783390D02*
X130469047Y-56831009D01*
X130469047Y-56831009D02*
X130373809Y-56878628D01*
X130373809Y-56878628D02*
X129992857Y-56878628D01*
X131516666Y-57354819D02*
X130945238Y-57354819D01*
X131230952Y-57354819D02*
X131230952Y-56354819D01*
X131230952Y-56354819D02*
X131135714Y-56497676D01*
X131135714Y-56497676D02*
X131040476Y-56592914D01*
X131040476Y-56592914D02*
X130945238Y-56640533D01*
X118626667Y-24347200D02*
X118769524Y-24394819D01*
X118769524Y-24394819D02*
X119007619Y-24394819D01*
X119007619Y-24394819D02*
X119102857Y-24347200D01*
X119102857Y-24347200D02*
X119150476Y-24299580D01*
X119150476Y-24299580D02*
X119198095Y-24204342D01*
X119198095Y-24204342D02*
X119198095Y-24109104D01*
X119198095Y-24109104D02*
X119150476Y-24013866D01*
X119150476Y-24013866D02*
X119102857Y-23966247D01*
X119102857Y-23966247D02*
X119007619Y-23918628D01*
X119007619Y-23918628D02*
X118817143Y-23871009D01*
X118817143Y-23871009D02*
X118721905Y-23823390D01*
X118721905Y-23823390D02*
X118674286Y-23775771D01*
X118674286Y-23775771D02*
X118626667Y-23680533D01*
X118626667Y-23680533D02*
X118626667Y-23585295D01*
X118626667Y-23585295D02*
X118674286Y-23490057D01*
X118674286Y-23490057D02*
X118721905Y-23442438D01*
X118721905Y-23442438D02*
X118817143Y-23394819D01*
X118817143Y-23394819D02*
X119055238Y-23394819D01*
X119055238Y-23394819D02*
X119198095Y-23442438D01*
X119531429Y-23394819D02*
X119769524Y-24394819D01*
X119769524Y-24394819D02*
X119960000Y-23680533D01*
X119960000Y-23680533D02*
X120150476Y-24394819D01*
X120150476Y-24394819D02*
X120388572Y-23394819D01*
X121293333Y-24394819D02*
X120721905Y-24394819D01*
X121007619Y-24394819D02*
X121007619Y-23394819D01*
X121007619Y-23394819D02*
X120912381Y-23537676D01*
X120912381Y-23537676D02*
X120817143Y-23632914D01*
X120817143Y-23632914D02*
X120721905Y-23680533D01*
X116150000Y-18162419D02*
X116150000Y-18400514D01*
X115911905Y-18305276D02*
X116150000Y-18400514D01*
X116150000Y-18400514D02*
X116388095Y-18305276D01*
X116007143Y-18590990D02*
X116150000Y-18400514D01*
X116150000Y-18400514D02*
X116292857Y-18590990D01*
X116150000Y-18162419D02*
X116150000Y-18400514D01*
X115911905Y-18305276D02*
X116150000Y-18400514D01*
X116150000Y-18400514D02*
X116388095Y-18305276D01*
X116007143Y-18590990D02*
X116150000Y-18400514D01*
X116150000Y-18400514D02*
X116292857Y-18590990D01*
X115527819Y-15901819D02*
X115718295Y-15901819D01*
X115718295Y-15901819D02*
X115813533Y-15949438D01*
X115813533Y-15949438D02*
X115908771Y-16044676D01*
X115908771Y-16044676D02*
X115956390Y-16235152D01*
X115956390Y-16235152D02*
X115956390Y-16568485D01*
X115956390Y-16568485D02*
X115908771Y-16758961D01*
X115908771Y-16758961D02*
X115813533Y-16854200D01*
X115813533Y-16854200D02*
X115718295Y-16901819D01*
X115718295Y-16901819D02*
X115527819Y-16901819D01*
X115527819Y-16901819D02*
X115432581Y-16854200D01*
X115432581Y-16854200D02*
X115337343Y-16758961D01*
X115337343Y-16758961D02*
X115289724Y-16568485D01*
X115289724Y-16568485D02*
X115289724Y-16235152D01*
X115289724Y-16235152D02*
X115337343Y-16044676D01*
X115337343Y-16044676D02*
X115432581Y-15949438D01*
X115432581Y-15949438D02*
X115527819Y-15901819D01*
X116718295Y-16378009D02*
X116384962Y-16378009D01*
X116384962Y-16901819D02*
X116384962Y-15901819D01*
X116384962Y-15901819D02*
X116861152Y-15901819D01*
X117575438Y-16378009D02*
X117242105Y-16378009D01*
X117242105Y-16901819D02*
X117242105Y-15901819D01*
X117242105Y-15901819D02*
X117718295Y-15901819D01*
X122820752Y-15901819D02*
X123011228Y-15901819D01*
X123011228Y-15901819D02*
X123106466Y-15949438D01*
X123106466Y-15949438D02*
X123201704Y-16044676D01*
X123201704Y-16044676D02*
X123249323Y-16235152D01*
X123249323Y-16235152D02*
X123249323Y-16568485D01*
X123249323Y-16568485D02*
X123201704Y-16758961D01*
X123201704Y-16758961D02*
X123106466Y-16854200D01*
X123106466Y-16854200D02*
X123011228Y-16901819D01*
X123011228Y-16901819D02*
X122820752Y-16901819D01*
X122820752Y-16901819D02*
X122725514Y-16854200D01*
X122725514Y-16854200D02*
X122630276Y-16758961D01*
X122630276Y-16758961D02*
X122582657Y-16568485D01*
X122582657Y-16568485D02*
X122582657Y-16235152D01*
X122582657Y-16235152D02*
X122630276Y-16044676D01*
X122630276Y-16044676D02*
X122725514Y-15949438D01*
X122725514Y-15949438D02*
X122820752Y-15901819D01*
X123677895Y-16901819D02*
X123677895Y-15901819D01*
X123677895Y-15901819D02*
X124249323Y-16901819D01*
X124249323Y-16901819D02*
X124249323Y-15901819D01*
X159107142Y-124454819D02*
X158773809Y-123978628D01*
X158535714Y-124454819D02*
X158535714Y-123454819D01*
X158535714Y-123454819D02*
X158916666Y-123454819D01*
X158916666Y-123454819D02*
X159011904Y-123502438D01*
X159011904Y-123502438D02*
X159059523Y-123550057D01*
X159059523Y-123550057D02*
X159107142Y-123645295D01*
X159107142Y-123645295D02*
X159107142Y-123788152D01*
X159107142Y-123788152D02*
X159059523Y-123883390D01*
X159059523Y-123883390D02*
X159011904Y-123931009D01*
X159011904Y-123931009D02*
X158916666Y-123978628D01*
X158916666Y-123978628D02*
X158535714Y-123978628D01*
X160059523Y-124454819D02*
X159488095Y-124454819D01*
X159773809Y-124454819D02*
X159773809Y-123454819D01*
X159773809Y-123454819D02*
X159678571Y-123597676D01*
X159678571Y-123597676D02*
X159583333Y-123692914D01*
X159583333Y-123692914D02*
X159488095Y-123740533D01*
X160964285Y-123454819D02*
X160488095Y-123454819D01*
X160488095Y-123454819D02*
X160440476Y-123931009D01*
X160440476Y-123931009D02*
X160488095Y-123883390D01*
X160488095Y-123883390D02*
X160583333Y-123835771D01*
X160583333Y-123835771D02*
X160821428Y-123835771D01*
X160821428Y-123835771D02*
X160916666Y-123883390D01*
X160916666Y-123883390D02*
X160964285Y-123931009D01*
X160964285Y-123931009D02*
X161011904Y-124026247D01*
X161011904Y-124026247D02*
X161011904Y-124264342D01*
X161011904Y-124264342D02*
X160964285Y-124359580D01*
X160964285Y-124359580D02*
X160916666Y-124407200D01*
X160916666Y-124407200D02*
X160821428Y-124454819D01*
X160821428Y-124454819D02*
X160583333Y-124454819D01*
X160583333Y-124454819D02*
X160488095Y-124407200D01*
X160488095Y-124407200D02*
X160440476Y-124359580D01*
X219829580Y-89216666D02*
X219877200Y-89264285D01*
X219877200Y-89264285D02*
X219924819Y-89407142D01*
X219924819Y-89407142D02*
X219924819Y-89502380D01*
X219924819Y-89502380D02*
X219877200Y-89645237D01*
X219877200Y-89645237D02*
X219781961Y-89740475D01*
X219781961Y-89740475D02*
X219686723Y-89788094D01*
X219686723Y-89788094D02*
X219496247Y-89835713D01*
X219496247Y-89835713D02*
X219353390Y-89835713D01*
X219353390Y-89835713D02*
X219162914Y-89788094D01*
X219162914Y-89788094D02*
X219067676Y-89740475D01*
X219067676Y-89740475D02*
X218972438Y-89645237D01*
X218972438Y-89645237D02*
X218924819Y-89502380D01*
X218924819Y-89502380D02*
X218924819Y-89407142D01*
X218924819Y-89407142D02*
X218972438Y-89264285D01*
X218972438Y-89264285D02*
X219020057Y-89216666D01*
X218924819Y-88883332D02*
X218924819Y-88216666D01*
X218924819Y-88216666D02*
X219924819Y-88645237D01*
X176904761Y-149650057D02*
X176809523Y-149602438D01*
X176809523Y-149602438D02*
X176714285Y-149507200D01*
X176714285Y-149507200D02*
X176571428Y-149364342D01*
X176571428Y-149364342D02*
X176476190Y-149316723D01*
X176476190Y-149316723D02*
X176380952Y-149316723D01*
X176428571Y-149554819D02*
X176333333Y-149507200D01*
X176333333Y-149507200D02*
X176238095Y-149411961D01*
X176238095Y-149411961D02*
X176190476Y-149221485D01*
X176190476Y-149221485D02*
X176190476Y-148888152D01*
X176190476Y-148888152D02*
X176238095Y-148697676D01*
X176238095Y-148697676D02*
X176333333Y-148602438D01*
X176333333Y-148602438D02*
X176428571Y-148554819D01*
X176428571Y-148554819D02*
X176619047Y-148554819D01*
X176619047Y-148554819D02*
X176714285Y-148602438D01*
X176714285Y-148602438D02*
X176809523Y-148697676D01*
X176809523Y-148697676D02*
X176857142Y-148888152D01*
X176857142Y-148888152D02*
X176857142Y-149221485D01*
X176857142Y-149221485D02*
X176809523Y-149411961D01*
X176809523Y-149411961D02*
X176714285Y-149507200D01*
X176714285Y-149507200D02*
X176619047Y-149554819D01*
X176619047Y-149554819D02*
X176428571Y-149554819D01*
X177809523Y-149554819D02*
X177238095Y-149554819D01*
X177523809Y-149554819D02*
X177523809Y-148554819D01*
X177523809Y-148554819D02*
X177428571Y-148697676D01*
X177428571Y-148697676D02*
X177333333Y-148792914D01*
X177333333Y-148792914D02*
X177238095Y-148840533D01*
X174314714Y-150727442D02*
X174314714Y-151627442D01*
X174314714Y-151627442D02*
X174100428Y-151627442D01*
X174100428Y-151627442D02*
X173971857Y-151584585D01*
X173971857Y-151584585D02*
X173886142Y-151498871D01*
X173886142Y-151498871D02*
X173843285Y-151413157D01*
X173843285Y-151413157D02*
X173800428Y-151241728D01*
X173800428Y-151241728D02*
X173800428Y-151113157D01*
X173800428Y-151113157D02*
X173843285Y-150941728D01*
X173843285Y-150941728D02*
X173886142Y-150856014D01*
X173886142Y-150856014D02*
X173971857Y-150770300D01*
X173971857Y-150770300D02*
X174100428Y-150727442D01*
X174100428Y-150727442D02*
X174314714Y-150727442D01*
X176764285Y-151584585D02*
X176850000Y-151627442D01*
X176850000Y-151627442D02*
X176978571Y-151627442D01*
X176978571Y-151627442D02*
X177107142Y-151584585D01*
X177107142Y-151584585D02*
X177192857Y-151498871D01*
X177192857Y-151498871D02*
X177235714Y-151413157D01*
X177235714Y-151413157D02*
X177278571Y-151241728D01*
X177278571Y-151241728D02*
X177278571Y-151113157D01*
X177278571Y-151113157D02*
X177235714Y-150941728D01*
X177235714Y-150941728D02*
X177192857Y-150856014D01*
X177192857Y-150856014D02*
X177107142Y-150770300D01*
X177107142Y-150770300D02*
X176978571Y-150727442D01*
X176978571Y-150727442D02*
X176892857Y-150727442D01*
X176892857Y-150727442D02*
X176764285Y-150770300D01*
X176764285Y-150770300D02*
X176721428Y-150813157D01*
X176721428Y-150813157D02*
X176721428Y-151113157D01*
X176721428Y-151113157D02*
X176892857Y-151113157D01*
X180178142Y-150770300D02*
X180049571Y-150727442D01*
X180049571Y-150727442D02*
X179835285Y-150727442D01*
X179835285Y-150727442D02*
X179749571Y-150770300D01*
X179749571Y-150770300D02*
X179706713Y-150813157D01*
X179706713Y-150813157D02*
X179663856Y-150898871D01*
X179663856Y-150898871D02*
X179663856Y-150984585D01*
X179663856Y-150984585D02*
X179706713Y-151070300D01*
X179706713Y-151070300D02*
X179749571Y-151113157D01*
X179749571Y-151113157D02*
X179835285Y-151156014D01*
X179835285Y-151156014D02*
X180006713Y-151198871D01*
X180006713Y-151198871D02*
X180092428Y-151241728D01*
X180092428Y-151241728D02*
X180135285Y-151284585D01*
X180135285Y-151284585D02*
X180178142Y-151370300D01*
X180178142Y-151370300D02*
X180178142Y-151456014D01*
X180178142Y-151456014D02*
X180135285Y-151541728D01*
X180135285Y-151541728D02*
X180092428Y-151584585D01*
X180092428Y-151584585D02*
X180006713Y-151627442D01*
X180006713Y-151627442D02*
X179792428Y-151627442D01*
X179792428Y-151627442D02*
X179663856Y-151584585D01*
X221529580Y-93216666D02*
X221577200Y-93264285D01*
X221577200Y-93264285D02*
X221624819Y-93407142D01*
X221624819Y-93407142D02*
X221624819Y-93502380D01*
X221624819Y-93502380D02*
X221577200Y-93645237D01*
X221577200Y-93645237D02*
X221481961Y-93740475D01*
X221481961Y-93740475D02*
X221386723Y-93788094D01*
X221386723Y-93788094D02*
X221196247Y-93835713D01*
X221196247Y-93835713D02*
X221053390Y-93835713D01*
X221053390Y-93835713D02*
X220862914Y-93788094D01*
X220862914Y-93788094D02*
X220767676Y-93740475D01*
X220767676Y-93740475D02*
X220672438Y-93645237D01*
X220672438Y-93645237D02*
X220624819Y-93502380D01*
X220624819Y-93502380D02*
X220624819Y-93407142D01*
X220624819Y-93407142D02*
X220672438Y-93264285D01*
X220672438Y-93264285D02*
X220720057Y-93216666D01*
X220624819Y-92359523D02*
X220624819Y-92549999D01*
X220624819Y-92549999D02*
X220672438Y-92645237D01*
X220672438Y-92645237D02*
X220720057Y-92692856D01*
X220720057Y-92692856D02*
X220862914Y-92788094D01*
X220862914Y-92788094D02*
X221053390Y-92835713D01*
X221053390Y-92835713D02*
X221434342Y-92835713D01*
X221434342Y-92835713D02*
X221529580Y-92788094D01*
X221529580Y-92788094D02*
X221577200Y-92740475D01*
X221577200Y-92740475D02*
X221624819Y-92645237D01*
X221624819Y-92645237D02*
X221624819Y-92454761D01*
X221624819Y-92454761D02*
X221577200Y-92359523D01*
X221577200Y-92359523D02*
X221529580Y-92311904D01*
X221529580Y-92311904D02*
X221434342Y-92264285D01*
X221434342Y-92264285D02*
X221196247Y-92264285D01*
X221196247Y-92264285D02*
X221101009Y-92311904D01*
X221101009Y-92311904D02*
X221053390Y-92359523D01*
X221053390Y-92359523D02*
X221005771Y-92454761D01*
X221005771Y-92454761D02*
X221005771Y-92645237D01*
X221005771Y-92645237D02*
X221053390Y-92740475D01*
X221053390Y-92740475D02*
X221101009Y-92788094D01*
X221101009Y-92788094D02*
X221196247Y-92835713D01*
X181616667Y-67207200D02*
X181759524Y-67254819D01*
X181759524Y-67254819D02*
X181997619Y-67254819D01*
X181997619Y-67254819D02*
X182092857Y-67207200D01*
X182092857Y-67207200D02*
X182140476Y-67159580D01*
X182140476Y-67159580D02*
X182188095Y-67064342D01*
X182188095Y-67064342D02*
X182188095Y-66969104D01*
X182188095Y-66969104D02*
X182140476Y-66873866D01*
X182140476Y-66873866D02*
X182092857Y-66826247D01*
X182092857Y-66826247D02*
X181997619Y-66778628D01*
X181997619Y-66778628D02*
X181807143Y-66731009D01*
X181807143Y-66731009D02*
X181711905Y-66683390D01*
X181711905Y-66683390D02*
X181664286Y-66635771D01*
X181664286Y-66635771D02*
X181616667Y-66540533D01*
X181616667Y-66540533D02*
X181616667Y-66445295D01*
X181616667Y-66445295D02*
X181664286Y-66350057D01*
X181664286Y-66350057D02*
X181711905Y-66302438D01*
X181711905Y-66302438D02*
X181807143Y-66254819D01*
X181807143Y-66254819D02*
X182045238Y-66254819D01*
X182045238Y-66254819D02*
X182188095Y-66302438D01*
X182521429Y-66254819D02*
X182759524Y-67254819D01*
X182759524Y-67254819D02*
X182950000Y-66540533D01*
X182950000Y-66540533D02*
X183140476Y-67254819D01*
X183140476Y-67254819D02*
X183378572Y-66254819D01*
X183807143Y-67254819D02*
X183997619Y-67254819D01*
X183997619Y-67254819D02*
X184092857Y-67207200D01*
X184092857Y-67207200D02*
X184140476Y-67159580D01*
X184140476Y-67159580D02*
X184235714Y-67016723D01*
X184235714Y-67016723D02*
X184283333Y-66826247D01*
X184283333Y-66826247D02*
X184283333Y-66445295D01*
X184283333Y-66445295D02*
X184235714Y-66350057D01*
X184235714Y-66350057D02*
X184188095Y-66302438D01*
X184188095Y-66302438D02*
X184092857Y-66254819D01*
X184092857Y-66254819D02*
X183902381Y-66254819D01*
X183902381Y-66254819D02*
X183807143Y-66302438D01*
X183807143Y-66302438D02*
X183759524Y-66350057D01*
X183759524Y-66350057D02*
X183711905Y-66445295D01*
X183711905Y-66445295D02*
X183711905Y-66683390D01*
X183711905Y-66683390D02*
X183759524Y-66778628D01*
X183759524Y-66778628D02*
X183807143Y-66826247D01*
X183807143Y-66826247D02*
X183902381Y-66873866D01*
X183902381Y-66873866D02*
X184092857Y-66873866D01*
X184092857Y-66873866D02*
X184188095Y-66826247D01*
X184188095Y-66826247D02*
X184235714Y-66778628D01*
X184235714Y-66778628D02*
X184283333Y-66683390D01*
X230457142Y-96239580D02*
X230409523Y-96287200D01*
X230409523Y-96287200D02*
X230266666Y-96334819D01*
X230266666Y-96334819D02*
X230171428Y-96334819D01*
X230171428Y-96334819D02*
X230028571Y-96287200D01*
X230028571Y-96287200D02*
X229933333Y-96191961D01*
X229933333Y-96191961D02*
X229885714Y-96096723D01*
X229885714Y-96096723D02*
X229838095Y-95906247D01*
X229838095Y-95906247D02*
X229838095Y-95763390D01*
X229838095Y-95763390D02*
X229885714Y-95572914D01*
X229885714Y-95572914D02*
X229933333Y-95477676D01*
X229933333Y-95477676D02*
X230028571Y-95382438D01*
X230028571Y-95382438D02*
X230171428Y-95334819D01*
X230171428Y-95334819D02*
X230266666Y-95334819D01*
X230266666Y-95334819D02*
X230409523Y-95382438D01*
X230409523Y-95382438D02*
X230457142Y-95430057D01*
X231409523Y-96334819D02*
X230838095Y-96334819D01*
X231123809Y-96334819D02*
X231123809Y-95334819D01*
X231123809Y-95334819D02*
X231028571Y-95477676D01*
X231028571Y-95477676D02*
X230933333Y-95572914D01*
X230933333Y-95572914D02*
X230838095Y-95620533D01*
X232314285Y-95334819D02*
X231838095Y-95334819D01*
X231838095Y-95334819D02*
X231790476Y-95811009D01*
X231790476Y-95811009D02*
X231838095Y-95763390D01*
X231838095Y-95763390D02*
X231933333Y-95715771D01*
X231933333Y-95715771D02*
X232171428Y-95715771D01*
X232171428Y-95715771D02*
X232266666Y-95763390D01*
X232266666Y-95763390D02*
X232314285Y-95811009D01*
X232314285Y-95811009D02*
X232361904Y-95906247D01*
X232361904Y-95906247D02*
X232361904Y-96144342D01*
X232361904Y-96144342D02*
X232314285Y-96239580D01*
X232314285Y-96239580D02*
X232266666Y-96287200D01*
X232266666Y-96287200D02*
X232171428Y-96334819D01*
X232171428Y-96334819D02*
X231933333Y-96334819D01*
X231933333Y-96334819D02*
X231838095Y-96287200D01*
X231838095Y-96287200D02*
X231790476Y-96239580D01*
X112133333Y-67004819D02*
X111800000Y-66528628D01*
X111561905Y-67004819D02*
X111561905Y-66004819D01*
X111561905Y-66004819D02*
X111942857Y-66004819D01*
X111942857Y-66004819D02*
X112038095Y-66052438D01*
X112038095Y-66052438D02*
X112085714Y-66100057D01*
X112085714Y-66100057D02*
X112133333Y-66195295D01*
X112133333Y-66195295D02*
X112133333Y-66338152D01*
X112133333Y-66338152D02*
X112085714Y-66433390D01*
X112085714Y-66433390D02*
X112038095Y-66481009D01*
X112038095Y-66481009D02*
X111942857Y-66528628D01*
X111942857Y-66528628D02*
X111561905Y-66528628D01*
X113085714Y-67004819D02*
X112514286Y-67004819D01*
X112800000Y-67004819D02*
X112800000Y-66004819D01*
X112800000Y-66004819D02*
X112704762Y-66147676D01*
X112704762Y-66147676D02*
X112609524Y-66242914D01*
X112609524Y-66242914D02*
X112514286Y-66290533D01*
X110836665Y-23532800D02*
X110693808Y-23485180D01*
X110693808Y-23485180D02*
X110455713Y-23485180D01*
X110455713Y-23485180D02*
X110360475Y-23532800D01*
X110360475Y-23532800D02*
X110312856Y-23580419D01*
X110312856Y-23580419D02*
X110265237Y-23675657D01*
X110265237Y-23675657D02*
X110265237Y-23770895D01*
X110265237Y-23770895D02*
X110312856Y-23866133D01*
X110312856Y-23866133D02*
X110360475Y-23913752D01*
X110360475Y-23913752D02*
X110455713Y-23961371D01*
X110455713Y-23961371D02*
X110646189Y-24008990D01*
X110646189Y-24008990D02*
X110741427Y-24056609D01*
X110741427Y-24056609D02*
X110789046Y-24104228D01*
X110789046Y-24104228D02*
X110836665Y-24199466D01*
X110836665Y-24199466D02*
X110836665Y-24294704D01*
X110836665Y-24294704D02*
X110789046Y-24389942D01*
X110789046Y-24389942D02*
X110741427Y-24437561D01*
X110741427Y-24437561D02*
X110646189Y-24485180D01*
X110646189Y-24485180D02*
X110408094Y-24485180D01*
X110408094Y-24485180D02*
X110265237Y-24437561D01*
X109931903Y-24485180D02*
X109693808Y-23485180D01*
X109693808Y-23485180D02*
X109503332Y-24199466D01*
X109503332Y-24199466D02*
X109312856Y-23485180D01*
X109312856Y-23485180D02*
X109074761Y-24485180D01*
X108265237Y-24151847D02*
X108265237Y-23485180D01*
X108503332Y-24532800D02*
X108741427Y-23818514D01*
X108741427Y-23818514D02*
X108122380Y-23818514D01*
X106642580Y-31978180D02*
X106452104Y-31978180D01*
X106452104Y-31978180D02*
X106356866Y-31930561D01*
X106356866Y-31930561D02*
X106261628Y-31835323D01*
X106261628Y-31835323D02*
X106214009Y-31644847D01*
X106214009Y-31644847D02*
X106214009Y-31311514D01*
X106214009Y-31311514D02*
X106261628Y-31121038D01*
X106261628Y-31121038D02*
X106356866Y-31025800D01*
X106356866Y-31025800D02*
X106452104Y-30978180D01*
X106452104Y-30978180D02*
X106642580Y-30978180D01*
X106642580Y-30978180D02*
X106737818Y-31025800D01*
X106737818Y-31025800D02*
X106833056Y-31121038D01*
X106833056Y-31121038D02*
X106880675Y-31311514D01*
X106880675Y-31311514D02*
X106880675Y-31644847D01*
X106880675Y-31644847D02*
X106833056Y-31835323D01*
X106833056Y-31835323D02*
X106737818Y-31930561D01*
X106737818Y-31930561D02*
X106642580Y-31978180D01*
X105785437Y-30978180D02*
X105785437Y-31978180D01*
X105785437Y-31978180D02*
X105214009Y-30978180D01*
X105214009Y-30978180D02*
X105214009Y-31978180D01*
X113935513Y-31978180D02*
X113745037Y-31978180D01*
X113745037Y-31978180D02*
X113649799Y-31930561D01*
X113649799Y-31930561D02*
X113554561Y-31835323D01*
X113554561Y-31835323D02*
X113506942Y-31644847D01*
X113506942Y-31644847D02*
X113506942Y-31311514D01*
X113506942Y-31311514D02*
X113554561Y-31121038D01*
X113554561Y-31121038D02*
X113649799Y-31025800D01*
X113649799Y-31025800D02*
X113745037Y-30978180D01*
X113745037Y-30978180D02*
X113935513Y-30978180D01*
X113935513Y-30978180D02*
X114030751Y-31025800D01*
X114030751Y-31025800D02*
X114125989Y-31121038D01*
X114125989Y-31121038D02*
X114173608Y-31311514D01*
X114173608Y-31311514D02*
X114173608Y-31644847D01*
X114173608Y-31644847D02*
X114125989Y-31835323D01*
X114125989Y-31835323D02*
X114030751Y-31930561D01*
X114030751Y-31930561D02*
X113935513Y-31978180D01*
X112745037Y-31501990D02*
X113078370Y-31501990D01*
X113078370Y-30978180D02*
X113078370Y-31978180D01*
X113078370Y-31978180D02*
X112602180Y-31978180D01*
X111887894Y-31501990D02*
X112221227Y-31501990D01*
X112221227Y-30978180D02*
X112221227Y-31978180D01*
X112221227Y-31978180D02*
X111745037Y-31978180D01*
X113313333Y-28627219D02*
X113313333Y-28865314D01*
X113075238Y-28770076D02*
X113313333Y-28865314D01*
X113313333Y-28865314D02*
X113551428Y-28770076D01*
X113170476Y-29055790D02*
X113313333Y-28865314D01*
X113313333Y-28865314D02*
X113456190Y-29055790D01*
X113313332Y-29717580D02*
X113313332Y-29479485D01*
X113551427Y-29574723D02*
X113313332Y-29479485D01*
X113313332Y-29479485D02*
X113075237Y-29574723D01*
X113456189Y-29289009D02*
X113313332Y-29479485D01*
X113313332Y-29479485D02*
X113170475Y-29289009D01*
X58707142Y-174959580D02*
X58659523Y-175007200D01*
X58659523Y-175007200D02*
X58516666Y-175054819D01*
X58516666Y-175054819D02*
X58421428Y-175054819D01*
X58421428Y-175054819D02*
X58278571Y-175007200D01*
X58278571Y-175007200D02*
X58183333Y-174911961D01*
X58183333Y-174911961D02*
X58135714Y-174816723D01*
X58135714Y-174816723D02*
X58088095Y-174626247D01*
X58088095Y-174626247D02*
X58088095Y-174483390D01*
X58088095Y-174483390D02*
X58135714Y-174292914D01*
X58135714Y-174292914D02*
X58183333Y-174197676D01*
X58183333Y-174197676D02*
X58278571Y-174102438D01*
X58278571Y-174102438D02*
X58421428Y-174054819D01*
X58421428Y-174054819D02*
X58516666Y-174054819D01*
X58516666Y-174054819D02*
X58659523Y-174102438D01*
X58659523Y-174102438D02*
X58707142Y-174150057D01*
X59659523Y-175054819D02*
X59088095Y-175054819D01*
X59373809Y-175054819D02*
X59373809Y-174054819D01*
X59373809Y-174054819D02*
X59278571Y-174197676D01*
X59278571Y-174197676D02*
X59183333Y-174292914D01*
X59183333Y-174292914D02*
X59088095Y-174340533D01*
X60611904Y-175054819D02*
X60040476Y-175054819D01*
X60326190Y-175054819D02*
X60326190Y-174054819D01*
X60326190Y-174054819D02*
X60230952Y-174197676D01*
X60230952Y-174197676D02*
X60135714Y-174292914D01*
X60135714Y-174292914D02*
X60040476Y-174340533D01*
X188404819Y-33542857D02*
X187928628Y-33876190D01*
X188404819Y-34114285D02*
X187404819Y-34114285D01*
X187404819Y-34114285D02*
X187404819Y-33733333D01*
X187404819Y-33733333D02*
X187452438Y-33638095D01*
X187452438Y-33638095D02*
X187500057Y-33590476D01*
X187500057Y-33590476D02*
X187595295Y-33542857D01*
X187595295Y-33542857D02*
X187738152Y-33542857D01*
X187738152Y-33542857D02*
X187833390Y-33590476D01*
X187833390Y-33590476D02*
X187881009Y-33638095D01*
X187881009Y-33638095D02*
X187928628Y-33733333D01*
X187928628Y-33733333D02*
X187928628Y-34114285D01*
X188404819Y-32590476D02*
X188404819Y-33161904D01*
X188404819Y-32876190D02*
X187404819Y-32876190D01*
X187404819Y-32876190D02*
X187547676Y-32971428D01*
X187547676Y-32971428D02*
X187642914Y-33066666D01*
X187642914Y-33066666D02*
X187690533Y-33161904D01*
X187833390Y-32019047D02*
X187785771Y-32114285D01*
X187785771Y-32114285D02*
X187738152Y-32161904D01*
X187738152Y-32161904D02*
X187642914Y-32209523D01*
X187642914Y-32209523D02*
X187595295Y-32209523D01*
X187595295Y-32209523D02*
X187500057Y-32161904D01*
X187500057Y-32161904D02*
X187452438Y-32114285D01*
X187452438Y-32114285D02*
X187404819Y-32019047D01*
X187404819Y-32019047D02*
X187404819Y-31828571D01*
X187404819Y-31828571D02*
X187452438Y-31733333D01*
X187452438Y-31733333D02*
X187500057Y-31685714D01*
X187500057Y-31685714D02*
X187595295Y-31638095D01*
X187595295Y-31638095D02*
X187642914Y-31638095D01*
X187642914Y-31638095D02*
X187738152Y-31685714D01*
X187738152Y-31685714D02*
X187785771Y-31733333D01*
X187785771Y-31733333D02*
X187833390Y-31828571D01*
X187833390Y-31828571D02*
X187833390Y-32019047D01*
X187833390Y-32019047D02*
X187881009Y-32114285D01*
X187881009Y-32114285D02*
X187928628Y-32161904D01*
X187928628Y-32161904D02*
X188023866Y-32209523D01*
X188023866Y-32209523D02*
X188214342Y-32209523D01*
X188214342Y-32209523D02*
X188309580Y-32161904D01*
X188309580Y-32161904D02*
X188357200Y-32114285D01*
X188357200Y-32114285D02*
X188404819Y-32019047D01*
X188404819Y-32019047D02*
X188404819Y-31828571D01*
X188404819Y-31828571D02*
X188357200Y-31733333D01*
X188357200Y-31733333D02*
X188309580Y-31685714D01*
X188309580Y-31685714D02*
X188214342Y-31638095D01*
X188214342Y-31638095D02*
X188023866Y-31638095D01*
X188023866Y-31638095D02*
X187928628Y-31685714D01*
X187928628Y-31685714D02*
X187881009Y-31733333D01*
X187881009Y-31733333D02*
X187833390Y-31828571D01*
X95757142Y-75854819D02*
X95423809Y-75378628D01*
X95185714Y-75854819D02*
X95185714Y-74854819D01*
X95185714Y-74854819D02*
X95566666Y-74854819D01*
X95566666Y-74854819D02*
X95661904Y-74902438D01*
X95661904Y-74902438D02*
X95709523Y-74950057D01*
X95709523Y-74950057D02*
X95757142Y-75045295D01*
X95757142Y-75045295D02*
X95757142Y-75188152D01*
X95757142Y-75188152D02*
X95709523Y-75283390D01*
X95709523Y-75283390D02*
X95661904Y-75331009D01*
X95661904Y-75331009D02*
X95566666Y-75378628D01*
X95566666Y-75378628D02*
X95185714Y-75378628D01*
X96614285Y-75188152D02*
X96614285Y-75854819D01*
X96376190Y-74807200D02*
X96138095Y-75521485D01*
X96138095Y-75521485D02*
X96757142Y-75521485D01*
X97185714Y-75854819D02*
X97376190Y-75854819D01*
X97376190Y-75854819D02*
X97471428Y-75807200D01*
X97471428Y-75807200D02*
X97519047Y-75759580D01*
X97519047Y-75759580D02*
X97614285Y-75616723D01*
X97614285Y-75616723D02*
X97661904Y-75426247D01*
X97661904Y-75426247D02*
X97661904Y-75045295D01*
X97661904Y-75045295D02*
X97614285Y-74950057D01*
X97614285Y-74950057D02*
X97566666Y-74902438D01*
X97566666Y-74902438D02*
X97471428Y-74854819D01*
X97471428Y-74854819D02*
X97280952Y-74854819D01*
X97280952Y-74854819D02*
X97185714Y-74902438D01*
X97185714Y-74902438D02*
X97138095Y-74950057D01*
X97138095Y-74950057D02*
X97090476Y-75045295D01*
X97090476Y-75045295D02*
X97090476Y-75283390D01*
X97090476Y-75283390D02*
X97138095Y-75378628D01*
X97138095Y-75378628D02*
X97185714Y-75426247D01*
X97185714Y-75426247D02*
X97280952Y-75473866D01*
X97280952Y-75473866D02*
X97471428Y-75473866D01*
X97471428Y-75473866D02*
X97566666Y-75426247D01*
X97566666Y-75426247D02*
X97614285Y-75378628D01*
X97614285Y-75378628D02*
X97661904Y-75283390D01*
X144004819Y-81842857D02*
X143528628Y-82176190D01*
X144004819Y-82414285D02*
X143004819Y-82414285D01*
X143004819Y-82414285D02*
X143004819Y-82033333D01*
X143004819Y-82033333D02*
X143052438Y-81938095D01*
X143052438Y-81938095D02*
X143100057Y-81890476D01*
X143100057Y-81890476D02*
X143195295Y-81842857D01*
X143195295Y-81842857D02*
X143338152Y-81842857D01*
X143338152Y-81842857D02*
X143433390Y-81890476D01*
X143433390Y-81890476D02*
X143481009Y-81938095D01*
X143481009Y-81938095D02*
X143528628Y-82033333D01*
X143528628Y-82033333D02*
X143528628Y-82414285D01*
X143004819Y-80938095D02*
X143004819Y-81414285D01*
X143004819Y-81414285D02*
X143481009Y-81461904D01*
X143481009Y-81461904D02*
X143433390Y-81414285D01*
X143433390Y-81414285D02*
X143385771Y-81319047D01*
X143385771Y-81319047D02*
X143385771Y-81080952D01*
X143385771Y-81080952D02*
X143433390Y-80985714D01*
X143433390Y-80985714D02*
X143481009Y-80938095D01*
X143481009Y-80938095D02*
X143576247Y-80890476D01*
X143576247Y-80890476D02*
X143814342Y-80890476D01*
X143814342Y-80890476D02*
X143909580Y-80938095D01*
X143909580Y-80938095D02*
X143957200Y-80985714D01*
X143957200Y-80985714D02*
X144004819Y-81080952D01*
X144004819Y-81080952D02*
X144004819Y-81319047D01*
X144004819Y-81319047D02*
X143957200Y-81414285D01*
X143957200Y-81414285D02*
X143909580Y-81461904D01*
X143004819Y-80033333D02*
X143004819Y-80223809D01*
X143004819Y-80223809D02*
X143052438Y-80319047D01*
X143052438Y-80319047D02*
X143100057Y-80366666D01*
X143100057Y-80366666D02*
X143242914Y-80461904D01*
X143242914Y-80461904D02*
X143433390Y-80509523D01*
X143433390Y-80509523D02*
X143814342Y-80509523D01*
X143814342Y-80509523D02*
X143909580Y-80461904D01*
X143909580Y-80461904D02*
X143957200Y-80414285D01*
X143957200Y-80414285D02*
X144004819Y-80319047D01*
X144004819Y-80319047D02*
X144004819Y-80128571D01*
X144004819Y-80128571D02*
X143957200Y-80033333D01*
X143957200Y-80033333D02*
X143909580Y-79985714D01*
X143909580Y-79985714D02*
X143814342Y-79938095D01*
X143814342Y-79938095D02*
X143576247Y-79938095D01*
X143576247Y-79938095D02*
X143481009Y-79985714D01*
X143481009Y-79985714D02*
X143433390Y-80033333D01*
X143433390Y-80033333D02*
X143385771Y-80128571D01*
X143385771Y-80128571D02*
X143385771Y-80319047D01*
X143385771Y-80319047D02*
X143433390Y-80414285D01*
X143433390Y-80414285D02*
X143481009Y-80461904D01*
X143481009Y-80461904D02*
X143576247Y-80509523D01*
X215754819Y-135809523D02*
X216469104Y-135809523D01*
X216469104Y-135809523D02*
X216611961Y-135857142D01*
X216611961Y-135857142D02*
X216707200Y-135952380D01*
X216707200Y-135952380D02*
X216754819Y-136095237D01*
X216754819Y-136095237D02*
X216754819Y-136190475D01*
X215754819Y-135428570D02*
X215754819Y-134809523D01*
X215754819Y-134809523D02*
X216135771Y-135142856D01*
X216135771Y-135142856D02*
X216135771Y-134999999D01*
X216135771Y-134999999D02*
X216183390Y-134904761D01*
X216183390Y-134904761D02*
X216231009Y-134857142D01*
X216231009Y-134857142D02*
X216326247Y-134809523D01*
X216326247Y-134809523D02*
X216564342Y-134809523D01*
X216564342Y-134809523D02*
X216659580Y-134857142D01*
X216659580Y-134857142D02*
X216707200Y-134904761D01*
X216707200Y-134904761D02*
X216754819Y-134999999D01*
X216754819Y-134999999D02*
X216754819Y-135285713D01*
X216754819Y-135285713D02*
X216707200Y-135380951D01*
X216707200Y-135380951D02*
X216659580Y-135428570D01*
X216754819Y-133857142D02*
X216754819Y-134428570D01*
X216754819Y-134142856D02*
X215754819Y-134142856D01*
X215754819Y-134142856D02*
X215897676Y-134238094D01*
X215897676Y-134238094D02*
X215992914Y-134333332D01*
X215992914Y-134333332D02*
X216040533Y-134428570D01*
X190833333Y-55354819D02*
X190500000Y-54878628D01*
X190261905Y-55354819D02*
X190261905Y-54354819D01*
X190261905Y-54354819D02*
X190642857Y-54354819D01*
X190642857Y-54354819D02*
X190738095Y-54402438D01*
X190738095Y-54402438D02*
X190785714Y-54450057D01*
X190785714Y-54450057D02*
X190833333Y-54545295D01*
X190833333Y-54545295D02*
X190833333Y-54688152D01*
X190833333Y-54688152D02*
X190785714Y-54783390D01*
X190785714Y-54783390D02*
X190738095Y-54831009D01*
X190738095Y-54831009D02*
X190642857Y-54878628D01*
X190642857Y-54878628D02*
X190261905Y-54878628D01*
X191404762Y-54783390D02*
X191309524Y-54735771D01*
X191309524Y-54735771D02*
X191261905Y-54688152D01*
X191261905Y-54688152D02*
X191214286Y-54592914D01*
X191214286Y-54592914D02*
X191214286Y-54545295D01*
X191214286Y-54545295D02*
X191261905Y-54450057D01*
X191261905Y-54450057D02*
X191309524Y-54402438D01*
X191309524Y-54402438D02*
X191404762Y-54354819D01*
X191404762Y-54354819D02*
X191595238Y-54354819D01*
X191595238Y-54354819D02*
X191690476Y-54402438D01*
X191690476Y-54402438D02*
X191738095Y-54450057D01*
X191738095Y-54450057D02*
X191785714Y-54545295D01*
X191785714Y-54545295D02*
X191785714Y-54592914D01*
X191785714Y-54592914D02*
X191738095Y-54688152D01*
X191738095Y-54688152D02*
X191690476Y-54735771D01*
X191690476Y-54735771D02*
X191595238Y-54783390D01*
X191595238Y-54783390D02*
X191404762Y-54783390D01*
X191404762Y-54783390D02*
X191309524Y-54831009D01*
X191309524Y-54831009D02*
X191261905Y-54878628D01*
X191261905Y-54878628D02*
X191214286Y-54973866D01*
X191214286Y-54973866D02*
X191214286Y-55164342D01*
X191214286Y-55164342D02*
X191261905Y-55259580D01*
X191261905Y-55259580D02*
X191309524Y-55307200D01*
X191309524Y-55307200D02*
X191404762Y-55354819D01*
X191404762Y-55354819D02*
X191595238Y-55354819D01*
X191595238Y-55354819D02*
X191690476Y-55307200D01*
X191690476Y-55307200D02*
X191738095Y-55259580D01*
X191738095Y-55259580D02*
X191785714Y-55164342D01*
X191785714Y-55164342D02*
X191785714Y-54973866D01*
X191785714Y-54973866D02*
X191738095Y-54878628D01*
X191738095Y-54878628D02*
X191690476Y-54831009D01*
X191690476Y-54831009D02*
X191595238Y-54783390D01*
X135557142Y-172959580D02*
X135509523Y-173007200D01*
X135509523Y-173007200D02*
X135366666Y-173054819D01*
X135366666Y-173054819D02*
X135271428Y-173054819D01*
X135271428Y-173054819D02*
X135128571Y-173007200D01*
X135128571Y-173007200D02*
X135033333Y-172911961D01*
X135033333Y-172911961D02*
X134985714Y-172816723D01*
X134985714Y-172816723D02*
X134938095Y-172626247D01*
X134938095Y-172626247D02*
X134938095Y-172483390D01*
X134938095Y-172483390D02*
X134985714Y-172292914D01*
X134985714Y-172292914D02*
X135033333Y-172197676D01*
X135033333Y-172197676D02*
X135128571Y-172102438D01*
X135128571Y-172102438D02*
X135271428Y-172054819D01*
X135271428Y-172054819D02*
X135366666Y-172054819D01*
X135366666Y-172054819D02*
X135509523Y-172102438D01*
X135509523Y-172102438D02*
X135557142Y-172150057D01*
X136509523Y-173054819D02*
X135938095Y-173054819D01*
X136223809Y-173054819D02*
X136223809Y-172054819D01*
X136223809Y-172054819D02*
X136128571Y-172197676D01*
X136128571Y-172197676D02*
X136033333Y-172292914D01*
X136033333Y-172292914D02*
X135938095Y-172340533D01*
X136842857Y-172054819D02*
X137509523Y-172054819D01*
X137509523Y-172054819D02*
X137080952Y-173054819D01*
%TO.C,R91*%
D12*
X106102500Y-59678925D02*
X106102500Y-59204409D01*
X107147500Y-59678925D02*
X107147500Y-59204409D01*
%TO.C,C10*%
X52330000Y-131680000D02*
X63570000Y-131680000D01*
X52330000Y-132715000D02*
X52330000Y-131680000D01*
X52330000Y-135420000D02*
X52330000Y-134385000D01*
X63570000Y-131680000D02*
X63570000Y-132715000D01*
X63570000Y-134385000D02*
X63570000Y-135420000D01*
X63570000Y-135420000D02*
X52330000Y-135420000D01*
%TO.C,J6*%
X48040000Y-73490000D02*
X49250000Y-73490000D01*
X48040000Y-90210000D02*
X48040000Y-73490000D01*
X49250000Y-73490000D02*
X49250000Y-72990000D01*
X49250000Y-90210000D02*
X48040000Y-90210000D01*
X49250000Y-90710000D02*
X49250000Y-90210000D01*
X49360000Y-91010000D02*
X51860000Y-91010000D01*
X50060000Y-72990000D02*
X50060000Y-73990000D01*
X50060000Y-73990000D02*
X51560000Y-73990000D01*
X50060000Y-89710000D02*
X51560000Y-89710000D01*
X50060000Y-90710000D02*
X50060000Y-89710000D01*
X51860000Y-91010000D02*
X51860000Y-88510000D01*
X47540000Y-72990000D02*
X51560000Y-72990000D01*
X51560000Y-90710000D01*
X47540000Y-90710000D01*
X47540000Y-72990000D01*
%TO.C,R55*%
X162777064Y-102715000D02*
X162322936Y-102715000D01*
X162777064Y-104185000D02*
X162322936Y-104185000D01*
%TO.C,D2*%
X214370000Y-49950000D02*
X215280000Y-49950000D01*
X223355000Y-52670000D02*
X223355000Y-47230000D01*
X223475000Y-52670000D02*
X223475000Y-47230000D01*
X223595000Y-52670000D02*
X223595000Y-47230000D01*
X225930000Y-49950000D02*
X225020000Y-49950000D01*
X215280000Y-47230000D02*
X225020000Y-47230000D01*
X225020000Y-52670000D01*
X215280000Y-52670000D01*
X215280000Y-47230000D01*
%TO.C,J19*%
X64520000Y-143520000D02*
X65900000Y-143520000D01*
X64520000Y-144900000D02*
X64520000Y-143520000D01*
X64520000Y-146170000D02*
X64520000Y-164060000D01*
X64520000Y-146170000D02*
X67280000Y-146170000D01*
X64520000Y-164060000D02*
X67280000Y-164060000D01*
X67280000Y-146170000D02*
X67280000Y-164060000D01*
%TO.C,U2*%
D13*
X149270400Y-88190000D02*
X153029600Y-88190000D01*
X150845200Y-83110000D02*
X149270400Y-83110000D01*
X151454800Y-83110000D02*
X150845200Y-83110000D01*
X153029600Y-83110000D02*
X151454800Y-83110000D01*
X151454800Y-83110000D02*
G75*
G02*
X150845200Y-83110000I-304800J0D01*
G01*
%TO.C,C12*%
D12*
X145088748Y-35390000D02*
X146511252Y-35390000D01*
X145088748Y-38110000D02*
X146511252Y-38110000D01*
%TO.C,R50*%
X129490000Y-67950000D02*
X130260000Y-67950000D01*
X137570000Y-67950000D02*
X136800000Y-67950000D01*
X130260000Y-66580000D02*
X136800000Y-66580000D01*
X136800000Y-69320000D01*
X130260000Y-69320000D01*
X130260000Y-66580000D01*
%TO.C,J18*%
X64670000Y-103530000D02*
X66050000Y-103530000D01*
X64670000Y-104910000D02*
X64670000Y-103530000D01*
X64670000Y-106180000D02*
X64670000Y-124070000D01*
X64670000Y-106180000D02*
X67430000Y-106180000D01*
X64670000Y-124070000D02*
X67430000Y-124070000D01*
X67430000Y-106180000D02*
X67430000Y-124070000D01*
%TO.C,C13*%
X141011252Y-49990000D02*
X139588748Y-49990000D01*
X141011252Y-52710000D02*
X139588748Y-52710000D01*
%TO.C,C8*%
X218015000Y-89261252D02*
X218015000Y-88738748D01*
X219485000Y-89261252D02*
X219485000Y-88738748D01*
%TO.C,R90*%
X106102500Y-51062258D02*
X106102500Y-50587742D01*
X107147500Y-51062258D02*
X107147500Y-50587742D01*
%TO.C,R16*%
X158050000Y-123700000D02*
X158050000Y-125700000D01*
X158050000Y-125700000D02*
X161450000Y-125700000D01*
X161450000Y-123700000D02*
X158050000Y-123700000D01*
X161450000Y-125700000D02*
X161450000Y-123700000D01*
%TO.C,C5*%
X52380000Y-92830000D02*
X63620000Y-92830000D01*
X52380000Y-93865000D02*
X52380000Y-92830000D01*
X52380000Y-96570000D02*
X52380000Y-95535000D01*
X63620000Y-92830000D02*
X63620000Y-93865000D01*
X63620000Y-95535000D02*
X63620000Y-96570000D01*
X63620000Y-96570000D02*
X52380000Y-96570000D01*
%TO.C,C9*%
X225915000Y-93311252D02*
X225915000Y-92788748D01*
X227385000Y-93311252D02*
X227385000Y-92788748D01*
%TO.C,SW3*%
D13*
X84983200Y-17844000D02*
X84983200Y-19157870D01*
X84983200Y-21102130D02*
X84983200Y-21697870D01*
X84983200Y-23642130D02*
X84983200Y-24237870D01*
X84983200Y-26182130D02*
X84983200Y-26777870D01*
X84983200Y-28722130D02*
X84983200Y-30036000D01*
X84983200Y-30036000D02*
X92196800Y-30036000D01*
X92196800Y-17844000D02*
X84983200Y-17844000D01*
X92196800Y-19157870D02*
X92196800Y-17844000D01*
X92196800Y-21697870D02*
X92196800Y-21102130D01*
X92196800Y-24237870D02*
X92196800Y-23642130D01*
X92196800Y-26756860D02*
X92196800Y-26182130D01*
X92196800Y-30036000D02*
X92196800Y-28743140D01*
%TO.C,R2*%
D12*
X154850000Y-76750000D02*
X154850000Y-80150000D01*
X154850000Y-80150000D02*
X156850000Y-80150000D01*
X156850000Y-76750000D02*
X154850000Y-76750000D01*
X156850000Y-80150000D02*
X156850000Y-76750000D01*
%TO.C,D1*%
X142620000Y-171000000D02*
X143530000Y-171000000D01*
X151605000Y-173720000D02*
X151605000Y-168280000D01*
X151725000Y-173720000D02*
X151725000Y-168280000D01*
X151845000Y-173720000D02*
X151845000Y-168280000D01*
X154180000Y-171000000D02*
X153270000Y-171000000D01*
X143530000Y-168280000D02*
X153270000Y-168280000D01*
X153270000Y-173720000D01*
X143530000Y-173720000D01*
X143530000Y-168280000D01*
%TO.C,C23*%
X151411252Y-97165000D02*
X150888748Y-97165000D01*
X151411252Y-98635000D02*
X150888748Y-98635000D01*
%TO.C,U1*%
D13*
X213071099Y-94445200D02*
X213071099Y-95114360D01*
X213071099Y-99033840D02*
X213071099Y-99703000D01*
X213071099Y-99703000D02*
X213740259Y-99703000D01*
X213740259Y-94445200D02*
X213071099Y-94445200D01*
X217659739Y-99703000D02*
X218328899Y-99703000D01*
X218328899Y-94445200D02*
X217659739Y-94445200D01*
X218328899Y-95114360D02*
X218328899Y-94445200D01*
X218328899Y-99703000D02*
X218328899Y-99033840D01*
D14*
G36*
X212639299Y-98264601D02*
G01*
X212385299Y-98264601D01*
X212385299Y-97883601D01*
X212639299Y-97883601D01*
X212639299Y-98264601D01*
G37*
G36*
X216390498Y-94013400D02*
G01*
X216009498Y-94013400D01*
X216009498Y-93759400D01*
X216390498Y-93759400D01*
X216390498Y-94013400D01*
G37*
%TO.C,R4*%
D12*
X173315000Y-37877064D02*
X173315000Y-37422936D01*
X174785000Y-37877064D02*
X174785000Y-37422936D01*
%TO.C,R40*%
X161410000Y-145850000D02*
X162180000Y-145850000D01*
X169490000Y-145850000D02*
X168720000Y-145850000D01*
X162180000Y-144480000D02*
X168720000Y-144480000D01*
X168720000Y-147220000D01*
X162180000Y-147220000D01*
X162180000Y-144480000D01*
%TO.C,J35*%
X201240000Y-129640000D02*
X201240000Y-132140000D01*
X203040000Y-129940000D02*
X203040000Y-130940000D01*
X203040000Y-130940000D02*
X201540000Y-130940000D01*
X203040000Y-139160000D02*
X201540000Y-139160000D01*
X203040000Y-140160000D02*
X203040000Y-139160000D01*
X203740000Y-129640000D02*
X201240000Y-129640000D01*
X203850000Y-129940000D02*
X203850000Y-130440000D01*
X203850000Y-130440000D02*
X205060000Y-130440000D01*
X203850000Y-139660000D02*
X203850000Y-140160000D01*
X205060000Y-130440000D02*
X205060000Y-139660000D01*
X205060000Y-139660000D02*
X203850000Y-139660000D01*
X201540000Y-129940000D02*
X205560000Y-129940000D01*
X205560000Y-140160000D01*
X201540000Y-140160000D01*
X201540000Y-129940000D01*
%TO.C,C19*%
X141538748Y-174390000D02*
X142961252Y-174390000D01*
X141538748Y-177110000D02*
X142961252Y-177110000D01*
%TO.C,J3*%
X159080000Y-181397500D02*
X166320000Y-181397500D01*
X159080000Y-187617500D02*
X166320000Y-187617500D01*
X159080000Y-188717500D02*
X166320000Y-188717500D01*
X159080000Y-189237500D02*
X159080000Y-181397500D01*
X160650000Y-189237500D02*
X159080000Y-189237500D01*
X166320000Y-181397500D02*
X166320000Y-189237500D01*
X166320000Y-189237500D02*
X161250000Y-189237500D01*
X160950000Y-189237500D02*
X161390000Y-189847500D01*
X160510000Y-189847500D01*
X160950000Y-189237500D01*
G36*
X161390000Y-189847500D02*
G01*
X160510000Y-189847500D01*
X160950000Y-189237500D01*
X161390000Y-189847500D01*
G37*
%TO.C,R12*%
X182250000Y-34010000D02*
X182250000Y-34780000D01*
X182250000Y-42090000D02*
X182250000Y-41320000D01*
X180880000Y-34780000D02*
X183620000Y-34780000D01*
X183620000Y-41320000D01*
X180880000Y-41320000D01*
X180880000Y-34780000D01*
%TO.C,C4*%
X134861252Y-48490000D02*
X133438748Y-48490000D01*
X134861252Y-51210000D02*
X133438748Y-51210000D01*
%TO.C,D4*%
X158930000Y-174285000D02*
X164370000Y-174285000D01*
X158930000Y-174405000D02*
X164370000Y-174405000D01*
X158930000Y-174525000D02*
X164370000Y-174525000D01*
X161650000Y-165300000D02*
X161650000Y-166210000D01*
X161650000Y-176860000D02*
X161650000Y-175950000D01*
X158930000Y-166210000D02*
X164370000Y-166210000D01*
X164370000Y-175950000D01*
X158930000Y-175950000D01*
X158930000Y-166210000D01*
%TO.C,R9*%
X137772936Y-104765000D02*
X138227064Y-104765000D01*
X137772936Y-106235000D02*
X138227064Y-106235000D01*
%TO.C,R8*%
X173100000Y-92560000D02*
X173100000Y-93330000D01*
X173100000Y-100640000D02*
X173100000Y-99870000D01*
X171730000Y-93330000D02*
X174470000Y-93330000D01*
X174470000Y-99870000D01*
X171730000Y-99870000D01*
X171730000Y-93330000D01*
%TO.C,J38*%
X183690000Y-129640000D02*
X183690000Y-132140000D01*
X185490000Y-129940000D02*
X185490000Y-130940000D01*
X185490000Y-130940000D02*
X183990000Y-130940000D01*
X185490000Y-139160000D02*
X183990000Y-139160000D01*
X185490000Y-140160000D02*
X185490000Y-139160000D01*
X186190000Y-129640000D02*
X183690000Y-129640000D01*
X186300000Y-129940000D02*
X186300000Y-130440000D01*
X186300000Y-130440000D02*
X187510000Y-130440000D01*
X186300000Y-139660000D02*
X186300000Y-140160000D01*
X187510000Y-130440000D02*
X187510000Y-139660000D01*
X187510000Y-139660000D02*
X186300000Y-139660000D01*
X183990000Y-129940000D02*
X188010000Y-129940000D01*
X188010000Y-140160000D01*
X183990000Y-140160000D01*
X183990000Y-129940000D01*
%TO.C,R52*%
X144240000Y-75915000D02*
X144240000Y-78600000D01*
X146160000Y-75915000D02*
X144240000Y-75915000D01*
X146160000Y-78600000D02*
X146160000Y-75915000D01*
%TO.C,J12*%
X48040000Y-153690000D02*
X49250000Y-153690000D01*
X48040000Y-170410000D02*
X48040000Y-153690000D01*
X49250000Y-153690000D02*
X49250000Y-153190000D01*
X49250000Y-170410000D02*
X48040000Y-170410000D01*
X49250000Y-170910000D02*
X49250000Y-170410000D01*
X49360000Y-171210000D02*
X51860000Y-171210000D01*
X50060000Y-153190000D02*
X50060000Y-154190000D01*
X50060000Y-154190000D02*
X51560000Y-154190000D01*
X50060000Y-169910000D02*
X51560000Y-169910000D01*
X50060000Y-170910000D02*
X50060000Y-169910000D01*
X51860000Y-171210000D02*
X51860000Y-168710000D01*
X47540000Y-153190000D02*
X51560000Y-153190000D01*
X51560000Y-170910000D01*
X47540000Y-170910000D01*
X47540000Y-153190000D01*
%TO.C,R51*%
X140415000Y-80777064D02*
X140415000Y-80322936D01*
X141885000Y-80777064D02*
X141885000Y-80322936D01*
%TO.C,SW8*%
X132950000Y-34400000D02*
X132950000Y-35900000D01*
X134200000Y-38400000D02*
X138700000Y-38400000D01*
X138700000Y-31900000D02*
X134200000Y-31900000D01*
X139950000Y-35900000D02*
X139950000Y-34400000D01*
%TO.C,C18*%
X99738748Y-77390000D02*
X101161252Y-77390000D01*
X99738748Y-80110000D02*
X101161252Y-80110000D01*
%TO.C,C1*%
X51780000Y-52080000D02*
X63020000Y-52080000D01*
X51780000Y-53115000D02*
X51780000Y-52080000D01*
X51780000Y-55820000D02*
X51780000Y-54785000D01*
X63020000Y-52080000D02*
X63020000Y-53115000D01*
X63020000Y-54785000D02*
X63020000Y-55820000D01*
X63020000Y-55820000D02*
X51780000Y-55820000D01*
%TO.C,R5*%
X133860000Y-42050000D02*
X134630000Y-42050000D01*
X141940000Y-42050000D02*
X141170000Y-42050000D01*
X134630000Y-40680000D02*
X141170000Y-40680000D01*
X141170000Y-43420000D01*
X134630000Y-43420000D01*
X134630000Y-40680000D01*
%TO.C,J7*%
X48090000Y-113040000D02*
X49300000Y-113040000D01*
X48090000Y-129760000D02*
X48090000Y-113040000D01*
X49300000Y-113040000D02*
X49300000Y-112540000D01*
X49300000Y-129760000D02*
X48090000Y-129760000D01*
X49300000Y-130260000D02*
X49300000Y-129760000D01*
X49410000Y-130560000D02*
X51910000Y-130560000D01*
X50110000Y-112540000D02*
X50110000Y-113540000D01*
X50110000Y-113540000D02*
X51610000Y-113540000D01*
X50110000Y-129260000D02*
X51610000Y-129260000D01*
X50110000Y-130260000D02*
X50110000Y-129260000D01*
X51910000Y-130560000D02*
X51910000Y-128060000D01*
X47590000Y-112540000D02*
X51610000Y-112540000D01*
X51610000Y-130260000D01*
X47590000Y-130260000D01*
X47590000Y-112540000D01*
%TO.C,J28*%
X76920000Y-143520000D02*
X78300000Y-143520000D01*
X76920000Y-144900000D02*
X76920000Y-143520000D01*
X76920000Y-146170000D02*
X76920000Y-164060000D01*
X76920000Y-146170000D02*
X79680000Y-146170000D01*
X76920000Y-164060000D02*
X79680000Y-164060000D01*
X79680000Y-146170000D02*
X79680000Y-164060000D01*
%TO.C,Q2*%
X217660000Y-71800000D02*
X217660000Y-77000000D01*
X217660000Y-77000000D02*
X222860000Y-77000000D01*
X222860000Y-71800000D02*
X217660000Y-71800000D01*
X222860000Y-77000000D02*
X222860000Y-71800000D01*
%TO.C,J2*%
X146480000Y-179997500D02*
X156720000Y-179997500D01*
X146480000Y-187617500D02*
X156720000Y-187617500D01*
X146480000Y-188717500D02*
X156720000Y-188717500D01*
X146480000Y-189237500D02*
X146480000Y-179997500D01*
X148800000Y-189237500D02*
X146480000Y-189237500D01*
X156720000Y-179997500D02*
X156720000Y-189237500D01*
X156720000Y-189237500D02*
X149400000Y-189237500D01*
X149100000Y-189237500D02*
X149540000Y-189847500D01*
X148660000Y-189847500D01*
X149100000Y-189237500D01*
G36*
X149540000Y-189847500D02*
G01*
X148660000Y-189847500D01*
X149100000Y-189237500D01*
X149540000Y-189847500D01*
G37*
%TO.C,C16*%
X150130000Y-81010000D02*
X152815000Y-81010000D01*
X152815000Y-79090000D02*
X150130000Y-79090000D01*
X152815000Y-81010000D02*
X152815000Y-79090000D01*
%TO.C,J34*%
X210590000Y-130390000D02*
X211800000Y-130390000D01*
X210590000Y-139610000D02*
X210590000Y-130390000D01*
X211800000Y-130390000D02*
X211800000Y-129890000D01*
X211800000Y-139610000D02*
X210590000Y-139610000D01*
X211800000Y-140110000D02*
X211800000Y-139610000D01*
X211910000Y-140410000D02*
X214410000Y-140410000D01*
X212610000Y-129890000D02*
X212610000Y-130890000D01*
X212610000Y-130890000D02*
X214110000Y-130890000D01*
X212610000Y-139110000D02*
X214110000Y-139110000D01*
X212610000Y-140110000D02*
X212610000Y-139110000D01*
X214410000Y-140410000D02*
X214410000Y-137910000D01*
X210090000Y-129890000D02*
X214110000Y-129890000D01*
X214110000Y-140110000D01*
X210090000Y-140110000D01*
X210090000Y-129890000D01*
%TO.C,TP2*%
X131850000Y-59550000D02*
G75*
G02*
X127250000Y-59550000I-2300000J0D01*
G01*
X127250000Y-59550000D02*
G75*
G02*
X131850000Y-59550000I2300000J0D01*
G01*
%TO.C,R11*%
X170165000Y-65222936D02*
X170165000Y-65677064D01*
X171635000Y-65222936D02*
X171635000Y-65677064D01*
%TO.C,J1*%
X128690000Y-75460000D02*
X128690000Y-77960000D01*
X128690000Y-77960000D02*
X131190000Y-77960000D01*
X128990000Y-75350000D02*
X129490000Y-75350000D01*
X128990000Y-76160000D02*
X129990000Y-76160000D01*
X129490000Y-74140000D02*
X138710000Y-74140000D01*
X129490000Y-75350000D02*
X129490000Y-74140000D01*
X129990000Y-76160000D02*
X129990000Y-77660000D01*
X138210000Y-76160000D02*
X138210000Y-77660000D01*
X138710000Y-74140000D02*
X138710000Y-75350000D01*
X138710000Y-75350000D02*
X139210000Y-75350000D01*
X139210000Y-76160000D02*
X138210000Y-76160000D01*
X128990000Y-73640000D02*
X139210000Y-73640000D01*
X139210000Y-77660000D01*
X128990000Y-77660000D01*
X128990000Y-73640000D01*
%TO.C,C2*%
X134811252Y-44640000D02*
X133388748Y-44640000D01*
X134811252Y-47360000D02*
X133388748Y-47360000D01*
%TO.C,R7*%
X157600000Y-76750000D02*
X157600000Y-80150000D01*
X157600000Y-80150000D02*
X159600000Y-80150000D01*
X159600000Y-76750000D02*
X157600000Y-76750000D01*
X159600000Y-80150000D02*
X159600000Y-76750000D01*
%TO.C,D9*%
X147515000Y-41200000D02*
X147515000Y-43485000D01*
X147515000Y-43485000D02*
X148985000Y-43485000D01*
X148985000Y-43485000D02*
X148985000Y-41200000D01*
%TO.C,C20*%
X58615000Y-184513748D02*
X58615000Y-185936252D01*
X61335000Y-184513748D02*
X61335000Y-185936252D01*
%TO.C,R53*%
X149190000Y-75515000D02*
X149190000Y-78200000D01*
X151110000Y-75515000D02*
X149190000Y-75515000D01*
X151110000Y-78200000D02*
X151110000Y-75515000D01*
%TO.C,C3*%
X175915000Y-69338748D02*
X175915000Y-69861252D01*
X177385000Y-69338748D02*
X177385000Y-69861252D01*
%TO.C,J30*%
X236222500Y-49400000D02*
X236222500Y-50400000D01*
X236222500Y-50400000D02*
X236722500Y-49900000D01*
X236722500Y-49900000D02*
X236222500Y-49400000D01*
X237102500Y-53760000D02*
X237102500Y-39040000D01*
X237102500Y-53760000D02*
X239082500Y-53760000D01*
X239082500Y-39040000D02*
X237102500Y-39040000D01*
X242782500Y-39040000D02*
X251322500Y-39040000D01*
X242782500Y-53760000D02*
X251322500Y-53760000D01*
X251322500Y-53760000D02*
X251322500Y-39040000D01*
%TO.C,J4*%
X47940000Y-31940000D02*
X49150000Y-31940000D01*
X47940000Y-48660000D02*
X47940000Y-31940000D01*
X49150000Y-31940000D02*
X49150000Y-31440000D01*
X49150000Y-48660000D02*
X47940000Y-48660000D01*
X49150000Y-49160000D02*
X49150000Y-48660000D01*
X49260000Y-49460000D02*
X51760000Y-49460000D01*
X49960000Y-31440000D02*
X49960000Y-32440000D01*
X49960000Y-32440000D02*
X51460000Y-32440000D01*
X49960000Y-48160000D02*
X51460000Y-48160000D01*
X49960000Y-49160000D02*
X49960000Y-48160000D01*
X51760000Y-49460000D02*
X51760000Y-46960000D01*
X47440000Y-31440000D02*
X51460000Y-31440000D01*
X51460000Y-49160000D01*
X47440000Y-49160000D01*
X47440000Y-31440000D01*
%TO.C,R41*%
X177050000Y-136160000D02*
X177050000Y-136930000D01*
X177050000Y-144240000D02*
X177050000Y-143470000D01*
X175680000Y-136930000D02*
X178420000Y-136930000D01*
X178420000Y-143470000D01*
X175680000Y-143470000D01*
X175680000Y-136930000D01*
%TO.C,U4*%
D13*
X149270400Y-106390000D02*
X153029600Y-106390000D01*
X150845200Y-101310000D02*
X149270400Y-101310000D01*
X151454800Y-101310000D02*
X150845200Y-101310000D01*
X153029600Y-101310000D02*
X151454800Y-101310000D01*
X151454800Y-101310000D02*
G75*
G02*
X150845200Y-101310000I-304800J0D01*
G01*
%TO.C,R36*%
D12*
X145090000Y-41777064D02*
X145090000Y-40322936D01*
X146910000Y-41777064D02*
X146910000Y-40322936D01*
%TO.C,J22*%
X77070000Y-61120000D02*
X78450000Y-61120000D01*
X77070000Y-62500000D02*
X77070000Y-61120000D01*
X77070000Y-63770000D02*
X77070000Y-81660000D01*
X77070000Y-63770000D02*
X79830000Y-63770000D01*
X77070000Y-81660000D02*
X79830000Y-81660000D01*
X79830000Y-63770000D02*
X79830000Y-81660000D01*
%TO.C,J36*%
X195390000Y-129640000D02*
X195390000Y-132140000D01*
X197190000Y-129940000D02*
X197190000Y-130940000D01*
X197190000Y-130940000D02*
X195690000Y-130940000D01*
X197190000Y-139160000D02*
X195690000Y-139160000D01*
X197190000Y-140160000D02*
X197190000Y-139160000D01*
X197890000Y-129640000D02*
X195390000Y-129640000D01*
X198000000Y-129940000D02*
X198000000Y-130440000D01*
X198000000Y-130440000D02*
X199210000Y-130440000D01*
X198000000Y-139660000D02*
X198000000Y-140160000D01*
X199210000Y-130440000D02*
X199210000Y-139660000D01*
X199210000Y-139660000D02*
X198000000Y-139660000D01*
X195690000Y-129940000D02*
X199710000Y-129940000D01*
X199710000Y-140160000D01*
X195690000Y-140160000D01*
X195690000Y-129940000D01*
%TO.C,D3*%
X143970000Y-151200000D02*
X144880000Y-151200000D01*
X152955000Y-153920000D02*
X152955000Y-148480000D01*
X153075000Y-153920000D02*
X153075000Y-148480000D01*
X153195000Y-153920000D02*
X153195000Y-148480000D01*
X155530000Y-151200000D02*
X154620000Y-151200000D01*
X144880000Y-148480000D02*
X154620000Y-148480000D01*
X154620000Y-153920000D01*
X144880000Y-153920000D01*
X144880000Y-148480000D01*
%TO.C,R6*%
X180000000Y-98760000D02*
X180000000Y-99530000D01*
X180000000Y-106840000D02*
X180000000Y-106070000D01*
X178630000Y-99530000D02*
X181370000Y-99530000D01*
X181370000Y-106070000D01*
X178630000Y-106070000D01*
X178630000Y-99530000D01*
%TO.C,J17*%
X64670000Y-61120000D02*
X66050000Y-61120000D01*
X64670000Y-62500000D02*
X64670000Y-61120000D01*
X64670000Y-63770000D02*
X64670000Y-81660000D01*
X64670000Y-63770000D02*
X67430000Y-63770000D01*
X64670000Y-81660000D02*
X67430000Y-81660000D01*
X67430000Y-63770000D02*
X67430000Y-81660000D01*
%TO.C,R3*%
X180222936Y-78115000D02*
X180677064Y-78115000D01*
X180222936Y-79585000D02*
X180677064Y-79585000D01*
%TO.C,J24*%
X77070000Y-103530000D02*
X78450000Y-103530000D01*
X77070000Y-104910000D02*
X77070000Y-103530000D01*
X77070000Y-106180000D02*
X77070000Y-124070000D01*
X77070000Y-106180000D02*
X79830000Y-106180000D01*
X77070000Y-124070000D02*
X79830000Y-124070000D01*
X79830000Y-106180000D02*
X79830000Y-124070000D01*
%TO.C,J20*%
X64520000Y-19210000D02*
X65900000Y-19210000D01*
X64520000Y-20590000D02*
X64520000Y-19210000D01*
X64520000Y-21860000D02*
X64520000Y-39750000D01*
X64520000Y-21860000D02*
X67280000Y-21860000D01*
X64520000Y-39750000D02*
X67280000Y-39750000D01*
X67280000Y-21860000D02*
X67280000Y-39750000D01*
%TO.C,J32*%
X180640000Y-180080000D02*
X180640000Y-182060000D01*
X180640000Y-180080000D02*
X195360000Y-180080000D01*
X180640000Y-185760000D02*
X180640000Y-194300000D01*
X180640000Y-194300000D02*
X195360000Y-194300000D01*
X184000000Y-179200000D02*
X184500000Y-179700000D01*
X184500000Y-179700000D02*
X185000000Y-179200000D01*
X185000000Y-179200000D02*
X184000000Y-179200000D01*
X195360000Y-182060000D02*
X195360000Y-180080000D01*
X195360000Y-185760000D02*
X195360000Y-194300000D01*
%TO.C,R48*%
X222077500Y-69212742D02*
X222077500Y-69687258D01*
X223122500Y-69212742D02*
X223122500Y-69687258D01*
%TO.C,U12*%
X150050000Y-43640000D02*
X150050000Y-50390000D01*
X150050000Y-43640000D02*
X168050000Y-43640000D01*
X150050000Y-68390000D02*
X150050000Y-69140000D01*
X150050000Y-69140000D02*
X151050000Y-69140000D01*
X168050000Y-43640000D02*
X168050000Y-50390000D01*
X168050000Y-49580000D02*
X150050000Y-49580000D01*
X168050000Y-68390000D02*
X168050000Y-69140000D01*
X168050000Y-69140000D02*
X167050000Y-69140000D01*
%TO.C,R17*%
X186565000Y-32027064D02*
X186565000Y-31572936D01*
X188035000Y-32027064D02*
X188035000Y-31572936D01*
%TO.C,R107*%
X105977500Y-106012258D02*
X105977500Y-105537742D01*
X107022500Y-106012258D02*
X107022500Y-105537742D01*
%TO.C,R57*%
X163977064Y-84665000D02*
X163522936Y-84665000D01*
X163977064Y-86135000D02*
X163522936Y-86135000D01*
%TO.C,R14*%
X184900000Y-59500000D02*
X184900000Y-61500000D01*
X184900000Y-61500000D02*
X188300000Y-61500000D01*
X188300000Y-59500000D02*
X184900000Y-59500000D01*
X188300000Y-61500000D02*
X188300000Y-59500000D01*
%TO.C,J37*%
X189540000Y-129640000D02*
X189540000Y-132140000D01*
X191340000Y-129940000D02*
X191340000Y-130940000D01*
X191340000Y-130940000D02*
X189840000Y-130940000D01*
X191340000Y-139160000D02*
X189840000Y-139160000D01*
X191340000Y-140160000D02*
X191340000Y-139160000D01*
X192040000Y-129640000D02*
X189540000Y-129640000D01*
X192150000Y-129940000D02*
X192150000Y-130440000D01*
X192150000Y-130440000D02*
X193360000Y-130440000D01*
X192150000Y-139660000D02*
X192150000Y-140160000D01*
X193360000Y-130440000D02*
X193360000Y-139660000D01*
X193360000Y-139660000D02*
X192150000Y-139660000D01*
X189840000Y-129940000D02*
X193860000Y-129940000D01*
X193860000Y-140160000D01*
X189840000Y-140160000D01*
X189840000Y-129940000D01*
%TO.C,J23*%
X76920000Y-19210000D02*
X78300000Y-19210000D01*
X76920000Y-20590000D02*
X76920000Y-19210000D01*
X76920000Y-21860000D02*
X76920000Y-39750000D01*
X76920000Y-21860000D02*
X79680000Y-21860000D01*
X76920000Y-39750000D02*
X79680000Y-39750000D01*
X79680000Y-21860000D02*
X79680000Y-39750000D01*
%TO.C,SW2*%
D13*
X95439867Y-17844000D02*
X95439867Y-19136860D01*
X95439867Y-21123140D02*
X95439867Y-21697870D01*
X95439867Y-23642130D02*
X95439867Y-24237870D01*
X95439867Y-26182130D02*
X95439867Y-26777870D01*
X95439867Y-28722130D02*
X95439867Y-30036000D01*
X95439867Y-30036000D02*
X102653467Y-30036000D01*
X102653467Y-17844000D02*
X95439867Y-17844000D01*
X102653467Y-19157870D02*
X102653467Y-17844000D01*
X102653467Y-21697870D02*
X102653467Y-21102130D01*
X102653467Y-24237870D02*
X102653467Y-23642130D01*
X102653467Y-26777870D02*
X102653467Y-26182130D01*
X102653467Y-30036000D02*
X102653467Y-28722130D01*
%TO.C,R10*%
D12*
X198365000Y-50427064D02*
X198365000Y-49972936D01*
X199835000Y-50427064D02*
X199835000Y-49972936D01*
%TO.C,R13*%
X211560000Y-85350000D02*
X212330000Y-85350000D01*
X219640000Y-85350000D02*
X218870000Y-85350000D01*
X212330000Y-83980000D02*
X218870000Y-83980000D01*
X218870000Y-86720000D01*
X212330000Y-86720000D01*
X212330000Y-83980000D01*
%TO.C,C14*%
X189240000Y-70288748D02*
X189240000Y-71711252D01*
X191960000Y-70288748D02*
X191960000Y-71711252D01*
%TO.C,TP1*%
X132150000Y-53700000D02*
G75*
G02*
X127550000Y-53700000I-2300000J0D01*
G01*
X127550000Y-53700000D02*
G75*
G02*
X132150000Y-53700000I2300000J0D01*
G01*
%TO.C,SW1*%
D13*
X116353200Y-17844000D02*
X116353200Y-19136860D01*
X116353200Y-21123140D02*
X116353200Y-21697870D01*
X116353200Y-23642130D02*
X116353200Y-24237870D01*
X116353200Y-26182130D02*
X116353200Y-26777870D01*
X116353200Y-28722130D02*
X116353200Y-30036000D01*
X116353200Y-30036000D02*
X123566800Y-30036000D01*
X123566800Y-17844000D02*
X116353200Y-17844000D01*
X123566800Y-19157870D02*
X123566800Y-17844000D01*
X123566800Y-21697870D02*
X123566800Y-21102130D01*
X123566800Y-24237870D02*
X123566800Y-23642130D01*
X123566800Y-26777870D02*
X123566800Y-26182130D01*
X123566800Y-30036000D02*
X123566800Y-28722130D01*
%TO.C,R15*%
D12*
X158050000Y-121300000D02*
X158050000Y-123300000D01*
X158050000Y-123300000D02*
X161450000Y-123300000D01*
X161450000Y-121300000D02*
X158050000Y-121300000D01*
X161450000Y-123300000D02*
X161450000Y-121300000D01*
%TO.C,C7*%
X220415000Y-89311252D02*
X220415000Y-88788748D01*
X221885000Y-89311252D02*
X221885000Y-88788748D01*
%TO.C,Q1*%
X175200000Y-154510000D02*
X178800000Y-154510000D01*
X174643600Y-151561193D02*
G75*
G02*
X177000000Y-150060000I2356400J-1098807D01*
G01*
X175200000Y-154510000D02*
G75*
G02*
X174675816Y-153782795I1800000J1850000D01*
G01*
X177000000Y-150060000D02*
G75*
G02*
X179356400Y-151561193I0J-2600000D01*
G01*
X179324184Y-153782795D02*
G75*
G02*
X178800000Y-154510000I-2324184J1122795D01*
G01*
%TO.C,C6*%
X222115000Y-93311252D02*
X222115000Y-92788748D01*
X223585000Y-93311252D02*
X223585000Y-92788748D01*
%TO.C,C4*%
X143838748Y-31590000D02*
X145261252Y-31590000D01*
X143838748Y-34310000D02*
X145261252Y-34310000D01*
%TO.C,SW9*%
X179450000Y-70300000D02*
X179450000Y-71800000D01*
X180700000Y-74300000D02*
X185200000Y-74300000D01*
X185200000Y-67800000D02*
X180700000Y-67800000D01*
X186450000Y-71800000D02*
X186450000Y-70300000D01*
%TO.C,C15*%
X231361252Y-93465000D02*
X230838748Y-93465000D01*
X231361252Y-94935000D02*
X230838748Y-94935000D01*
%TO.C,R89*%
X106102500Y-68295591D02*
X106102500Y-67821075D01*
X107147500Y-68295591D02*
X107147500Y-67821075D01*
%TO.C,R1*%
X112072936Y-67465000D02*
X112527064Y-67465000D01*
X112072936Y-68935000D02*
X112527064Y-68935000D01*
%TO.C,SW4*%
D13*
X105896533Y-17844000D02*
X105896533Y-19157870D01*
X105896533Y-21102130D02*
X105896533Y-21697870D01*
X105896533Y-23642130D02*
X105896533Y-24237870D01*
X105896533Y-26182130D02*
X105896533Y-26777870D01*
X105896533Y-28722130D02*
X105896533Y-30036000D01*
X105896533Y-30036000D02*
X113110133Y-30036000D01*
X113110133Y-17844000D02*
X105896533Y-17844000D01*
X113110133Y-19157870D02*
X113110133Y-17844000D01*
X113110133Y-21697870D02*
X113110133Y-21102130D01*
X113110133Y-24237870D02*
X113110133Y-23642130D01*
X113110133Y-26756860D02*
X113110133Y-26182130D01*
X113110133Y-30036000D02*
X113110133Y-28743140D01*
%TO.C,C11*%
D12*
X53730000Y-169730000D02*
X64970000Y-169730000D01*
X53730000Y-170765000D02*
X53730000Y-169730000D01*
X53730000Y-173470000D02*
X53730000Y-172435000D01*
X64970000Y-169730000D02*
X64970000Y-170765000D01*
X64970000Y-172435000D02*
X64970000Y-173470000D01*
X64970000Y-173470000D02*
X53730000Y-173470000D01*
%TO.C,R18*%
X188865000Y-33127064D02*
X188865000Y-32672936D01*
X190335000Y-33127064D02*
X190335000Y-32672936D01*
%TO.C,R49*%
X96172936Y-76315000D02*
X96627064Y-76315000D01*
X96172936Y-77785000D02*
X96627064Y-77785000D01*
%TO.C,R56*%
X144465000Y-81427064D02*
X144465000Y-80972936D01*
X145935000Y-81427064D02*
X145935000Y-80972936D01*
%TO.C,J31*%
X217890000Y-130390000D02*
X219100000Y-130390000D01*
X217890000Y-139610000D02*
X217890000Y-130390000D01*
X219100000Y-130390000D02*
X219100000Y-129890000D01*
X219100000Y-139610000D02*
X217890000Y-139610000D01*
X219100000Y-140110000D02*
X219100000Y-139610000D01*
X219210000Y-140410000D02*
X221710000Y-140410000D01*
X219910000Y-129890000D02*
X219910000Y-130890000D01*
X219910000Y-130890000D02*
X221410000Y-130890000D01*
X219910000Y-139110000D02*
X221410000Y-139110000D01*
X219910000Y-140110000D02*
X219910000Y-139110000D01*
X221710000Y-140410000D02*
X221710000Y-137910000D01*
X217390000Y-129890000D02*
X221410000Y-129890000D01*
X221410000Y-140110000D01*
X217390000Y-140110000D01*
X217390000Y-129890000D01*
%TO.C,R8*%
X189300000Y-55600000D02*
X189300000Y-57600000D01*
X189300000Y-57600000D02*
X192700000Y-57600000D01*
X192700000Y-55600000D02*
X189300000Y-55600000D01*
X192700000Y-57600000D02*
X192700000Y-55600000D01*
%TO.C,C17*%
X135488748Y-173540000D02*
X136911252Y-173540000D01*
X135488748Y-176260000D02*
X136911252Y-176260000D01*
%TD*%
%LPC*%
D15*
%TO.C,R91*%
X106625000Y-60266667D03*
X106625000Y-58616667D03*
%TD*%
D16*
%TO.C,C10*%
X62950000Y-133550000D03*
X52950000Y-133550000D03*
%TD*%
D17*
%TO.C,J6*%
X49250000Y-88100000D03*
D18*
X49250000Y-85600000D03*
X49250000Y-83100000D03*
X49250000Y-80600000D03*
X49250000Y-78100000D03*
X49250000Y-75600000D03*
%TD*%
D19*
%TO.C,R55*%
X163462500Y-103450000D03*
X161637500Y-103450000D03*
%TD*%
D20*
%TO.C,D2*%
X227770000Y-49950000D03*
D21*
X212530000Y-49950000D03*
%TD*%
D22*
%TO.C,J19*%
X65900000Y-144900000D03*
D23*
X65900000Y-147440000D03*
X65900000Y-149980000D03*
X65900000Y-152520000D03*
X65900000Y-155060000D03*
X65900000Y-157600000D03*
X65900000Y-160140000D03*
X65900000Y-162680000D03*
%TD*%
D24*
%TO.C,U2*%
X148229000Y-83364000D03*
X148229000Y-84024400D03*
X148229000Y-84684800D03*
X148229000Y-85319800D03*
X148229000Y-85980200D03*
X148229000Y-86615200D03*
X148229000Y-87275600D03*
X148229000Y-87936000D03*
X154071000Y-87936000D03*
X154071000Y-87275600D03*
X154071000Y-86615200D03*
X154071000Y-85980200D03*
X154071000Y-85319800D03*
X154071000Y-84684800D03*
X154071000Y-84024400D03*
X154071000Y-83364000D03*
%TD*%
D25*
%TO.C,C12*%
X144325000Y-36750000D03*
X147275000Y-36750000D03*
%TD*%
D16*
%TO.C,R50*%
X128450000Y-67950000D03*
X138610000Y-67950000D03*
%TD*%
D22*
%TO.C,J18*%
X66050000Y-104910000D03*
D23*
X66050000Y-107450000D03*
X66050000Y-109990000D03*
X66050000Y-112530000D03*
X66050000Y-115070000D03*
X66050000Y-117610000D03*
X66050000Y-120150000D03*
X66050000Y-122690000D03*
%TD*%
D26*
%TO.C,C13*%
X141775000Y-51350000D03*
X138825000Y-51350000D03*
%TD*%
D27*
%TO.C,C8*%
X218750000Y-89950000D03*
X218750000Y-88050000D03*
%TD*%
D15*
%TO.C,R90*%
X106625000Y-51650000D03*
X106625000Y-50000000D03*
%TD*%
D19*
%TO.C,R16*%
X160662500Y-124700000D03*
X158837500Y-124700000D03*
%TD*%
D16*
%TO.C,C5*%
X63000000Y-94700000D03*
X53000000Y-94700000D03*
%TD*%
D27*
%TO.C,C9*%
X226650000Y-94000000D03*
X226650000Y-92100000D03*
%TD*%
D28*
%TO.C,SW3*%
X92400000Y-27750000D03*
D29*
X92400000Y-25210000D03*
X92400000Y-22670000D03*
X92400000Y-20130000D03*
X84780000Y-20130000D03*
X84780000Y-22670000D03*
X84780000Y-25210000D03*
X84780000Y-27750000D03*
%TD*%
D30*
%TO.C,R2*%
X155850000Y-79362500D03*
X155850000Y-77537500D03*
%TD*%
D20*
%TO.C,D1*%
X156020000Y-171000000D03*
D21*
X140780000Y-171000000D03*
%TD*%
D31*
%TO.C,C23*%
X152100000Y-97900000D03*
X150200000Y-97900000D03*
%TD*%
D32*
%TO.C,U1*%
X218024099Y-98574100D03*
X218024099Y-98074101D03*
X218024099Y-97574099D03*
X218024099Y-97074100D03*
X218024099Y-96574101D03*
X218024099Y-96074099D03*
X218024099Y-95574100D03*
D33*
X217199999Y-94750000D03*
X216700000Y-94750000D03*
X216199998Y-94750000D03*
X215699999Y-94750000D03*
X215200000Y-94750000D03*
X214699998Y-94750000D03*
X214199999Y-94750000D03*
D32*
X213375899Y-95574100D03*
X213375899Y-96074099D03*
X213375899Y-96574101D03*
X213375899Y-97074100D03*
X213375899Y-97574099D03*
X213375899Y-98074101D03*
X213375899Y-98574100D03*
D33*
X214199999Y-99398200D03*
X214699998Y-99398200D03*
X215200000Y-99398200D03*
X215699999Y-99398200D03*
X216199998Y-99398200D03*
X216700000Y-99398200D03*
X217199999Y-99398200D03*
D34*
X215699999Y-97074100D03*
%TD*%
D30*
%TO.C,R4*%
X174050000Y-38562500D03*
X174050000Y-36737500D03*
%TD*%
D16*
%TO.C,R40*%
X170530000Y-145850000D03*
X160370000Y-145850000D03*
%TD*%
D35*
%TO.C,J35*%
X203850000Y-132550000D03*
D18*
X203850000Y-135050000D03*
X203850000Y-137550000D03*
%TD*%
D25*
%TO.C,C19*%
X140775000Y-175750000D03*
X143725000Y-175750000D03*
%TD*%
D36*
%TO.C,J3*%
X160950000Y-184617500D03*
D37*
X164450000Y-184617500D03*
%TD*%
D16*
%TO.C,R12*%
X182250000Y-32970000D03*
X182250000Y-43130000D03*
%TD*%
D26*
%TO.C,C4*%
X135625000Y-49850000D03*
X132675000Y-49850000D03*
%TD*%
D38*
%TO.C,D4*%
X161650000Y-178700000D03*
D21*
X161650000Y-163460000D03*
%TD*%
D39*
%TO.C,R9*%
X137087500Y-105500000D03*
X138912500Y-105500000D03*
%TD*%
D16*
%TO.C,R8*%
X173100000Y-101680000D03*
X173100000Y-91520000D03*
%TD*%
D35*
%TO.C,J38*%
X186300000Y-132550000D03*
D18*
X186300000Y-135050000D03*
X186300000Y-137550000D03*
%TD*%
D40*
%TO.C,R52*%
X145200000Y-76662500D03*
X145200000Y-78537500D03*
%TD*%
D41*
%TO.C,J5*%
X96400000Y-84400000D03*
X93860000Y-84400000D03*
X91320000Y-84400000D03*
%TD*%
D17*
%TO.C,J12*%
X49250000Y-168300000D03*
D18*
X49250000Y-165800000D03*
X49250000Y-163300000D03*
X49250000Y-160800000D03*
X49250000Y-158300000D03*
X49250000Y-155800000D03*
%TD*%
D30*
%TO.C,R51*%
X141150000Y-81462500D03*
X141150000Y-79637500D03*
%TD*%
D42*
%TO.C,SW8*%
X133200000Y-32900000D03*
X139700000Y-32900000D03*
X133200000Y-37400000D03*
X139700000Y-37400000D03*
%TD*%
D25*
%TO.C,C18*%
X98975000Y-78750000D03*
X101925000Y-78750000D03*
%TD*%
D16*
%TO.C,C1*%
X62400000Y-53950000D03*
X52400000Y-53950000D03*
%TD*%
%TO.C,R5*%
X142980000Y-42050000D03*
X132820000Y-42050000D03*
%TD*%
D17*
%TO.C,J7*%
X49300000Y-127650000D03*
D18*
X49300000Y-125150000D03*
X49300000Y-122650000D03*
X49300000Y-120150000D03*
X49300000Y-117650000D03*
X49300000Y-115150000D03*
%TD*%
D22*
%TO.C,J28*%
X78300000Y-144900000D03*
D23*
X78300000Y-147440000D03*
X78300000Y-149980000D03*
X78300000Y-152520000D03*
X78300000Y-155060000D03*
X78300000Y-157600000D03*
X78300000Y-160140000D03*
X78300000Y-162680000D03*
%TD*%
D41*
%TO.C,J25*%
X93180000Y-176260000D03*
X90640000Y-176260000D03*
X88100000Y-176260000D03*
%TD*%
D43*
%TO.C,Q2*%
X218610000Y-72900000D03*
D44*
X218810000Y-74400000D03*
D45*
X221000000Y-74400000D03*
D43*
X218610000Y-75900000D03*
%TD*%
D41*
%TO.C,J14*%
X184760000Y-27500000D03*
X187300000Y-27500000D03*
X189840000Y-27500000D03*
X192380000Y-27500000D03*
X194920000Y-27500000D03*
X197460000Y-27500000D03*
X200000000Y-27500000D03*
X202540000Y-27500000D03*
%TD*%
D46*
%TO.C,J2*%
X149100000Y-184117500D03*
D47*
X154100000Y-184117500D03*
%TD*%
D48*
%TO.C,C16*%
X152067500Y-80050000D03*
X150192500Y-80050000D03*
%TD*%
D41*
%TO.C,J27*%
X123280000Y-92650000D03*
X125820000Y-92650000D03*
X128360000Y-92650000D03*
%TD*%
D17*
%TO.C,J34*%
X211800000Y-137500000D03*
D18*
X211800000Y-135000000D03*
X211800000Y-132500000D03*
%TD*%
D49*
%TO.C,TP2*%
X129550000Y-59550000D03*
%TD*%
D50*
%TO.C,R11*%
X170900000Y-64537500D03*
X170900000Y-66362500D03*
%TD*%
D51*
%TO.C,J1*%
X131600000Y-75350000D03*
D52*
X134100000Y-75350000D03*
X136600000Y-75350000D03*
%TD*%
D26*
%TO.C,C2*%
X135575000Y-46000000D03*
X132625000Y-46000000D03*
%TD*%
D30*
%TO.C,R7*%
X158600000Y-79362500D03*
X158600000Y-77537500D03*
%TD*%
D53*
%TO.C,D9*%
X148250000Y-42787500D03*
X148250000Y-41212500D03*
%TD*%
D54*
%TO.C,C20*%
X59975000Y-183750000D03*
X59975000Y-186700000D03*
%TD*%
D40*
%TO.C,R53*%
X150150000Y-76262500D03*
X150150000Y-78137500D03*
%TD*%
D55*
%TO.C,C3*%
X176650000Y-68650000D03*
X176650000Y-70550000D03*
%TD*%
D56*
%TO.C,J30*%
X238222500Y-49900000D03*
D57*
X238222500Y-47400000D03*
X238222500Y-45400000D03*
X238222500Y-42900000D03*
D58*
X240932500Y-53075000D03*
X240932500Y-39725000D03*
%TD*%
D17*
%TO.C,J4*%
X49150000Y-46550000D03*
D18*
X49150000Y-44050000D03*
X49150000Y-41550000D03*
X49150000Y-39050000D03*
X49150000Y-36550000D03*
X49150000Y-34050000D03*
%TD*%
D16*
%TO.C,R41*%
X177050000Y-145280000D03*
X177050000Y-135120000D03*
%TD*%
D24*
%TO.C,U4*%
X148229000Y-101564000D03*
X148229000Y-102224400D03*
X148229000Y-102884800D03*
X148229000Y-103519800D03*
X148229000Y-104180200D03*
X148229000Y-104815200D03*
X148229000Y-105475600D03*
X148229000Y-106136000D03*
X154071000Y-106136000D03*
X154071000Y-105475600D03*
X154071000Y-104815200D03*
X154071000Y-104180200D03*
X154071000Y-103519800D03*
X154071000Y-102884800D03*
X154071000Y-102224400D03*
X154071000Y-101564000D03*
%TD*%
D59*
%TO.C,R36*%
X146000000Y-42600000D03*
X146000000Y-39500000D03*
%TD*%
D22*
%TO.C,J22*%
X78450000Y-62500000D03*
D23*
X78450000Y-65040000D03*
X78450000Y-67580000D03*
X78450000Y-70120000D03*
X78450000Y-72660000D03*
X78450000Y-75200000D03*
X78450000Y-77740000D03*
X78450000Y-80280000D03*
%TD*%
D35*
%TO.C,J36*%
X198000000Y-132550000D03*
D18*
X198000000Y-135050000D03*
X198000000Y-137550000D03*
%TD*%
D20*
%TO.C,D3*%
X157370000Y-151200000D03*
D21*
X142130000Y-151200000D03*
%TD*%
D16*
%TO.C,R6*%
X180000000Y-97720000D03*
X180000000Y-107880000D03*
%TD*%
D22*
%TO.C,J17*%
X66050000Y-62500000D03*
D23*
X66050000Y-65040000D03*
X66050000Y-67580000D03*
X66050000Y-70120000D03*
X66050000Y-72660000D03*
X66050000Y-75200000D03*
X66050000Y-77740000D03*
X66050000Y-80280000D03*
%TD*%
D41*
%TO.C,J9*%
X240050000Y-85950000D03*
X240050000Y-83410000D03*
X240050000Y-80870000D03*
X240050000Y-78330000D03*
X240050000Y-75790000D03*
X240050000Y-73250000D03*
X240050000Y-70710000D03*
X240050000Y-68170000D03*
X240050000Y-65630000D03*
X240050000Y-63090000D03*
%TD*%
D39*
%TO.C,R3*%
X179537500Y-78850000D03*
X181362500Y-78850000D03*
%TD*%
D22*
%TO.C,J24*%
X78450000Y-104910000D03*
D23*
X78450000Y-107450000D03*
X78450000Y-109990000D03*
X78450000Y-112530000D03*
X78450000Y-115070000D03*
X78450000Y-117610000D03*
X78450000Y-120150000D03*
X78450000Y-122690000D03*
%TD*%
D22*
%TO.C,J20*%
X65900000Y-20590000D03*
D23*
X65900000Y-23130000D03*
X65900000Y-25670000D03*
X65900000Y-28210000D03*
X65900000Y-30750000D03*
X65900000Y-33290000D03*
X65900000Y-35830000D03*
X65900000Y-38370000D03*
%TD*%
D60*
%TO.C,J32*%
X184500000Y-181200000D03*
D57*
X187000000Y-181200000D03*
X189000000Y-181200000D03*
X191500000Y-181200000D03*
D58*
X181325000Y-183910000D03*
X194675000Y-183910000D03*
%TD*%
D61*
%TO.C,R48*%
X222600000Y-68625000D03*
X222600000Y-70275000D03*
%TD*%
D62*
%TO.C,U12*%
X150300000Y-51130000D03*
X150300000Y-52400000D03*
X150300000Y-53670000D03*
X150300000Y-54940000D03*
X150300000Y-56210000D03*
X150300000Y-57480000D03*
X150300000Y-58750000D03*
X150300000Y-60020000D03*
X150300000Y-61290000D03*
X150300000Y-62560000D03*
X150300000Y-63830000D03*
X150300000Y-65100000D03*
X150300000Y-66370000D03*
X150300000Y-67640000D03*
D63*
X152065000Y-68890000D03*
X153335000Y-68890000D03*
X154605000Y-68890000D03*
X155875000Y-68890000D03*
X157145000Y-68890000D03*
X158415000Y-68890000D03*
X159685000Y-68890000D03*
X160955000Y-68890000D03*
X162225000Y-68890000D03*
X163495000Y-68890000D03*
X164765000Y-68890000D03*
X166035000Y-68890000D03*
D62*
X167800000Y-67640000D03*
X167800000Y-66370000D03*
X167800000Y-65100000D03*
X167800000Y-63830000D03*
X167800000Y-62560000D03*
X167800000Y-61290000D03*
X167800000Y-60020000D03*
X167800000Y-58750000D03*
X167800000Y-57480000D03*
X167800000Y-56210000D03*
X167800000Y-54940000D03*
X167800000Y-53670000D03*
X167800000Y-52400000D03*
X167800000Y-51130000D03*
D64*
X156150000Y-57450000D03*
X156150000Y-58850000D03*
X156150000Y-60250000D03*
X156150000Y-60250000D03*
X157550000Y-57450000D03*
X157550000Y-57450000D03*
X157550000Y-58850000D03*
X157550000Y-60250000D03*
X158950000Y-57450000D03*
X158950000Y-58850000D03*
X158950000Y-60250000D03*
%TD*%
D30*
%TO.C,R17*%
X187300000Y-32712500D03*
X187300000Y-30887500D03*
%TD*%
D15*
%TO.C,R107*%
X106500000Y-106600000D03*
X106500000Y-104950000D03*
%TD*%
D19*
%TO.C,R57*%
X164662500Y-85400000D03*
X162837500Y-85400000D03*
%TD*%
D39*
%TO.C,R14*%
X185687500Y-60500000D03*
X187512500Y-60500000D03*
%TD*%
D35*
%TO.C,J37*%
X192150000Y-132550000D03*
D18*
X192150000Y-135050000D03*
X192150000Y-137550000D03*
%TD*%
D22*
%TO.C,J23*%
X78300000Y-20590000D03*
D23*
X78300000Y-23130000D03*
X78300000Y-25670000D03*
X78300000Y-28210000D03*
X78300000Y-30750000D03*
X78300000Y-33290000D03*
X78300000Y-35830000D03*
X78300000Y-38370000D03*
%TD*%
D28*
%TO.C,SW2*%
X95236667Y-20130000D03*
D29*
X95236667Y-22670000D03*
X95236667Y-25210000D03*
X95236667Y-27750000D03*
X102856667Y-27750000D03*
X102856667Y-25210000D03*
X102856667Y-22670000D03*
X102856667Y-20130000D03*
%TD*%
D30*
%TO.C,R10*%
X199100000Y-51112500D03*
X199100000Y-49287500D03*
%TD*%
D16*
%TO.C,R13*%
X220680000Y-85350000D03*
X210520000Y-85350000D03*
%TD*%
D41*
%TO.C,J26*%
X134700000Y-179250000D03*
X137240000Y-179250000D03*
X139780000Y-179250000D03*
%TD*%
D54*
%TO.C,C14*%
X190600000Y-69525000D03*
X190600000Y-72475000D03*
%TD*%
D49*
%TO.C,TP1*%
X129850000Y-53700000D03*
%TD*%
D28*
%TO.C,SW1*%
X116150000Y-20130000D03*
D29*
X116150000Y-22670000D03*
X116150000Y-25210000D03*
X116150000Y-27750000D03*
X123770000Y-27750000D03*
X123770000Y-25210000D03*
X123770000Y-22670000D03*
X123770000Y-20130000D03*
%TD*%
D19*
%TO.C,R15*%
X160662500Y-122300000D03*
X158837500Y-122300000D03*
%TD*%
D27*
%TO.C,C7*%
X221150000Y-90000000D03*
X221150000Y-88100000D03*
%TD*%
D65*
%TO.C,Q1*%
X174460000Y-152660000D03*
D66*
X177000000Y-152660000D03*
X179540000Y-152660000D03*
%TD*%
D27*
%TO.C,C6*%
X222850000Y-94000000D03*
X222850000Y-92100000D03*
%TD*%
D25*
%TO.C,C4*%
X143075000Y-32950000D03*
X146025000Y-32950000D03*
%TD*%
D42*
%TO.C,SW9*%
X179700000Y-68800000D03*
X186200000Y-68800000D03*
X179700000Y-73300000D03*
X186200000Y-73300000D03*
%TD*%
D41*
%TO.C,J11*%
X65700000Y-183520000D03*
X65700000Y-180980000D03*
X65700000Y-178440000D03*
%TD*%
D31*
%TO.C,C15*%
X232050000Y-94200000D03*
X230150000Y-94200000D03*
%TD*%
D15*
%TO.C,R89*%
X106625000Y-68883333D03*
X106625000Y-67233333D03*
%TD*%
D39*
%TO.C,R1*%
X111387500Y-68200000D03*
X113212500Y-68200000D03*
%TD*%
D28*
%TO.C,SW4*%
X113313333Y-27750000D03*
D29*
X113313333Y-25210000D03*
X113313333Y-22670000D03*
X113313333Y-20130000D03*
X105693333Y-20130000D03*
X105693333Y-22670000D03*
X105693333Y-25210000D03*
X105693333Y-27750000D03*
%TD*%
D16*
%TO.C,C11*%
X64350000Y-171600000D03*
X54350000Y-171600000D03*
%TD*%
D41*
%TO.C,J13*%
X218140000Y-27500000D03*
X220680000Y-27500000D03*
X223220000Y-27500000D03*
X225760000Y-27500000D03*
X228300000Y-27500000D03*
X230840000Y-27500000D03*
X233380000Y-27500000D03*
X235920000Y-27500000D03*
%TD*%
D30*
%TO.C,R18*%
X189600000Y-33812500D03*
X189600000Y-31987500D03*
%TD*%
D39*
%TO.C,R49*%
X95487500Y-77050000D03*
X97312500Y-77050000D03*
%TD*%
D30*
%TO.C,R56*%
X145200000Y-82112500D03*
X145200000Y-80287500D03*
%TD*%
D17*
%TO.C,J31*%
X219100000Y-137500000D03*
D18*
X219100000Y-135000000D03*
X219100000Y-132500000D03*
%TD*%
D39*
%TO.C,R8*%
X190087500Y-56600000D03*
X191912500Y-56600000D03*
%TD*%
D25*
%TO.C,C17*%
X134725000Y-174900000D03*
X137675000Y-174900000D03*
%TD*%
%LPD*%
D67*
X40518515Y-14949999D02*
X247550000Y-14949999D01*
X247550000Y-189750000D01*
X40518515Y-189750000D01*
X40518515Y-14949999D01*
X50250000Y-183000000D02*
G75*
G02*
X44250000Y-183000000I-3000000J0D01*
G01*
X44250000Y-183000000D02*
G75*
G02*
X50250000Y-183000000I3000000J0D01*
G01*
X50300000Y-21700000D02*
G75*
G02*
X44300000Y-21700000I-3000000J0D01*
G01*
X44300000Y-21700000D02*
G75*
G02*
X50300000Y-21700000I3000000J0D01*
G01*
X243750000Y-183000000D02*
G75*
G02*
X237750000Y-183000000I-3000000J0D01*
G01*
X237750000Y-183000000D02*
G75*
G02*
X243750000Y-183000000I3000000J0D01*
G01*
X243800000Y-21700000D02*
G75*
G02*
X237800000Y-21700000I-3000000J0D01*
G01*
X237800000Y-21700000D02*
G75*
G02*
X243800000Y-21700000I3000000J0D01*
G01*
M02*
