%TF.GenerationSoftware,KiCad,Pcbnew,10.0.2*%
%TF.CreationDate,2026-05-29T09:28:03-04:00*%
%TF.ProjectId,Mainboard Layout No daisy chain cp2102 moved,4d61696e-626f-4617-9264-204c61796f75,rev?*%
%TF.SameCoordinates,Original*%
%TF.FileFunction,Paste,Top*%
%TF.FilePolarity,Positive*%
%FSLAX46Y46*%
G04 Gerber Fmt 4.6, Leading zero omitted, Abs format (unit mm)*
G04 Created by KiCad (PCBNEW 10.0.2) date 2026-05-29 09:28:03*
%MOMM*%
%LPD*%
G01*
G04 APERTURE LIST*
G04 Aperture macros list*
%AMRoundRect*
0 Rectangle with rounded corners*
0 $1 Rounding radius*
0 $2 $3 $4 $5 $6 $7 $8 $9 X,Y pos of 4 corners*
0 Add a 4 corners polygon primitive as box body*
4,1,4,$2,$3,$4,$5,$6,$7,$8,$9,$2,$3,0*
0 Add four circle primitives for the rounded corners*
1,1,$1+$1,$2,$3*
1,1,$1+$1,$4,$5*
1,1,$1+$1,$6,$7*
1,1,$1+$1,$8,$9*
0 Add four rect primitives between the rounded corners*
20,1,$1+$1,$2,$3,$4,$5,0*
20,1,$1+$1,$4,$5,$6,$7,0*
20,1,$1+$1,$6,$7,$8,$9,0*
20,1,$1+$1,$8,$9,$2,$3,0*%
G04 Aperture macros list end*
%ADD10C,0.000000*%
%ADD11RoundRect,0.200000X0.275000X-0.200000X0.275000X0.200000X-0.275000X0.200000X-0.275000X-0.200000X0*%
%ADD12RoundRect,0.250000X0.262500X0.450000X-0.262500X0.450000X-0.262500X-0.450000X0.262500X-0.450000X0*%
%ADD13R,1.473200X0.355600*%
%ADD14RoundRect,0.250000X-0.325000X-1.100000X0.325000X-1.100000X0.325000X1.100000X-0.325000X1.100000X0*%
%ADD15RoundRect,0.250000X0.325000X1.100000X-0.325000X1.100000X-0.325000X-1.100000X0.325000X-1.100000X0*%
%ADD16RoundRect,0.250000X0.475000X-0.250000X0.475000X0.250000X-0.475000X0.250000X-0.475000X-0.250000X0*%
%ADD17RoundRect,0.250000X0.450000X-0.262500X0.450000X0.262500X-0.450000X0.262500X-0.450000X-0.262500X0*%
%ADD18RoundRect,0.250000X0.250000X0.475000X-0.250000X0.475000X-0.250000X-0.475000X0.250000X-0.475000X0*%
%ADD19R,0.965200X0.254000*%
%ADD20R,0.254000X0.965200*%
%ADD21R,3.352800X3.352800*%
%ADD22RoundRect,0.250000X-0.262500X-0.450000X0.262500X-0.450000X0.262500X0.450000X-0.262500X0.450000X0*%
%ADD23RoundRect,0.243750X-0.456250X0.243750X-0.456250X-0.243750X0.456250X-0.243750X0.456250X0.243750X0*%
%ADD24RoundRect,0.225000X-0.425000X-0.225000X0.425000X-0.225000X0.425000X0.225000X-0.425000X0.225000X0*%
%ADD25RoundRect,0.225000X-0.625000X-0.225000X0.625000X-0.225000X0.625000X0.225000X-0.625000X0.225000X0*%
%ADD26RoundRect,0.250000X1.312500X-0.616500X1.312500X0.616500X-1.312500X0.616500X-1.312500X-0.616500X0*%
%ADD27RoundRect,0.243750X0.243750X0.456250X-0.243750X0.456250X-0.243750X-0.456250X0.243750X-0.456250X0*%
%ADD28RoundRect,0.250000X-0.450000X0.262500X-0.450000X-0.262500X0.450000X-0.262500X0.450000X0.262500X0*%
%ADD29RoundRect,0.218750X0.256250X-0.218750X0.256250X0.218750X-0.256250X0.218750X-0.256250X-0.218750X0*%
%ADD30RoundRect,0.250000X-1.100000X0.325000X-1.100000X-0.325000X1.100000X-0.325000X1.100000X0.325000X0*%
%ADD31RoundRect,0.250000X-0.475000X0.250000X-0.475000X-0.250000X0.475000X-0.250000X0.475000X0.250000X0*%
%ADD32RoundRect,0.250000X0.625000X-0.400000X0.625000X0.400000X-0.625000X0.400000X-0.625000X-0.400000X0*%
%ADD33RoundRect,0.200000X-0.275000X0.200000X-0.275000X-0.200000X0.275000X-0.200000X0.275000X0.200000X0*%
%ADD34R,1.500000X0.900000*%
%ADD35R,0.900000X1.500000*%
%ADD36R,0.900000X0.900000*%
%TA.AperFunction,Profile*%
%ADD37C,0.200000*%
%TD*%
G04 APERTURE END LIST*
D10*
%TO.C,U1*%
G36*
X215599999Y-96974100D02*
G01*
X214123599Y-96974100D01*
X214123599Y-95497700D01*
X215599999Y-95497700D01*
X215599999Y-96974100D01*
G37*
G36*
X215599999Y-98650500D02*
G01*
X214123599Y-98650500D01*
X214123599Y-97174100D01*
X215599999Y-97174100D01*
X215599999Y-98650500D01*
G37*
G36*
X217276399Y-96974100D02*
G01*
X215799999Y-96974100D01*
X215799999Y-95497700D01*
X217276399Y-95497700D01*
X217276399Y-96974100D01*
G37*
G36*
X217276399Y-98650500D02*
G01*
X215799999Y-98650500D01*
X215799999Y-97174100D01*
X217276399Y-97174100D01*
X217276399Y-98650500D01*
G37*
%TD*%
D11*
%TO.C,R91*%
X106625000Y-60266667D03*
X106625000Y-58616667D03*
%TD*%
D12*
%TO.C,R55*%
X163462500Y-103450000D03*
X161637500Y-103450000D03*
%TD*%
D13*
%TO.C,U2*%
X148229000Y-83364000D03*
X148229000Y-84024400D03*
X148229000Y-84684800D03*
X148229000Y-85319800D03*
X148229000Y-85980200D03*
X148229000Y-86615200D03*
X148229000Y-87275600D03*
X148229000Y-87936000D03*
X154071000Y-87936000D03*
X154071000Y-87275600D03*
X154071000Y-86615200D03*
X154071000Y-85980200D03*
X154071000Y-85319800D03*
X154071000Y-84684800D03*
X154071000Y-84024400D03*
X154071000Y-83364000D03*
%TD*%
D14*
%TO.C,C12*%
X144325000Y-36750000D03*
X147275000Y-36750000D03*
%TD*%
D15*
%TO.C,C13*%
X141775000Y-51350000D03*
X138825000Y-51350000D03*
%TD*%
D16*
%TO.C,C8*%
X218750000Y-89950000D03*
X218750000Y-88050000D03*
%TD*%
D11*
%TO.C,R90*%
X106625000Y-51650000D03*
X106625000Y-50000000D03*
%TD*%
D12*
%TO.C,R16*%
X160662500Y-124700000D03*
X158837500Y-124700000D03*
%TD*%
D16*
%TO.C,C9*%
X226650000Y-94000000D03*
X226650000Y-92100000D03*
%TD*%
D17*
%TO.C,R2*%
X155850000Y-79362500D03*
X155850000Y-77537500D03*
%TD*%
D18*
%TO.C,C23*%
X152100000Y-97900000D03*
X150200000Y-97900000D03*
%TD*%
D19*
%TO.C,U1*%
X218024099Y-98574100D03*
X218024099Y-98074101D03*
X218024099Y-97574099D03*
X218024099Y-97074100D03*
X218024099Y-96574101D03*
X218024099Y-96074099D03*
X218024099Y-95574100D03*
D20*
X217199999Y-94750000D03*
X216700000Y-94750000D03*
X216199998Y-94750000D03*
X215699999Y-94750000D03*
X215200000Y-94750000D03*
X214699998Y-94750000D03*
X214199999Y-94750000D03*
D19*
X213375899Y-95574100D03*
X213375899Y-96074099D03*
X213375899Y-96574101D03*
X213375899Y-97074100D03*
X213375899Y-97574099D03*
X213375899Y-98074101D03*
X213375899Y-98574100D03*
D20*
X214199999Y-99398200D03*
X214699998Y-99398200D03*
X215200000Y-99398200D03*
X215699999Y-99398200D03*
X216199998Y-99398200D03*
X216700000Y-99398200D03*
X217199999Y-99398200D03*
D21*
X215699999Y-97074100D03*
%TD*%
D17*
%TO.C,R4*%
X174050000Y-38562500D03*
X174050000Y-36737500D03*
%TD*%
D14*
%TO.C,C19*%
X140775000Y-175750000D03*
X143725000Y-175750000D03*
%TD*%
D15*
%TO.C,C4*%
X135625000Y-49850000D03*
X132675000Y-49850000D03*
%TD*%
D22*
%TO.C,R9*%
X137087500Y-105500000D03*
X138912500Y-105500000D03*
%TD*%
D23*
%TO.C,R52*%
X145200000Y-76662500D03*
X145200000Y-78537500D03*
%TD*%
D17*
%TO.C,R51*%
X141150000Y-81462500D03*
X141150000Y-79637500D03*
%TD*%
D14*
%TO.C,C18*%
X98975000Y-78750000D03*
X101925000Y-78750000D03*
%TD*%
D24*
%TO.C,Q2*%
X218610000Y-72900000D03*
D25*
X218810000Y-74400000D03*
D26*
X221000000Y-74400000D03*
D24*
X218610000Y-75900000D03*
%TD*%
D27*
%TO.C,C16*%
X152067500Y-80050000D03*
X150192500Y-80050000D03*
%TD*%
D28*
%TO.C,R11*%
X170900000Y-64537500D03*
X170900000Y-66362500D03*
%TD*%
D15*
%TO.C,C2*%
X135575000Y-46000000D03*
X132625000Y-46000000D03*
%TD*%
D17*
%TO.C,R7*%
X158600000Y-79362500D03*
X158600000Y-77537500D03*
%TD*%
D29*
%TO.C,D9*%
X148250000Y-42787500D03*
X148250000Y-41212500D03*
%TD*%
D30*
%TO.C,C20*%
X59975000Y-183750000D03*
X59975000Y-186700000D03*
%TD*%
D23*
%TO.C,R53*%
X150150000Y-76262500D03*
X150150000Y-78137500D03*
%TD*%
D31*
%TO.C,C3*%
X176650000Y-68650000D03*
X176650000Y-70550000D03*
%TD*%
D13*
%TO.C,U4*%
X148229000Y-101564000D03*
X148229000Y-102224400D03*
X148229000Y-102884800D03*
X148229000Y-103519800D03*
X148229000Y-104180200D03*
X148229000Y-104815200D03*
X148229000Y-105475600D03*
X148229000Y-106136000D03*
X154071000Y-106136000D03*
X154071000Y-105475600D03*
X154071000Y-104815200D03*
X154071000Y-104180200D03*
X154071000Y-103519800D03*
X154071000Y-102884800D03*
X154071000Y-102224400D03*
X154071000Y-101564000D03*
%TD*%
D32*
%TO.C,R36*%
X146000000Y-42600000D03*
X146000000Y-39500000D03*
%TD*%
D22*
%TO.C,R3*%
X179537500Y-78850000D03*
X181362500Y-78850000D03*
%TD*%
D33*
%TO.C,R48*%
X222600000Y-68625000D03*
X222600000Y-70275000D03*
%TD*%
D34*
%TO.C,U12*%
X150300000Y-51130000D03*
X150300000Y-52400000D03*
X150300000Y-53670000D03*
X150300000Y-54940000D03*
X150300000Y-56210000D03*
X150300000Y-57480000D03*
X150300000Y-58750000D03*
X150300000Y-60020000D03*
X150300000Y-61290000D03*
X150300000Y-62560000D03*
X150300000Y-63830000D03*
X150300000Y-65100000D03*
X150300000Y-66370000D03*
X150300000Y-67640000D03*
D35*
X152065000Y-68890000D03*
X153335000Y-68890000D03*
X154605000Y-68890000D03*
X155875000Y-68890000D03*
X157145000Y-68890000D03*
X158415000Y-68890000D03*
X159685000Y-68890000D03*
X160955000Y-68890000D03*
X162225000Y-68890000D03*
X163495000Y-68890000D03*
X164765000Y-68890000D03*
X166035000Y-68890000D03*
D34*
X167800000Y-67640000D03*
X167800000Y-66370000D03*
X167800000Y-65100000D03*
X167800000Y-63830000D03*
X167800000Y-62560000D03*
X167800000Y-61290000D03*
X167800000Y-60020000D03*
X167800000Y-58750000D03*
X167800000Y-57480000D03*
X167800000Y-56210000D03*
X167800000Y-54940000D03*
X167800000Y-53670000D03*
X167800000Y-52400000D03*
X167800000Y-51130000D03*
D36*
X156150000Y-57450000D03*
X156150000Y-58850000D03*
X156150000Y-60250000D03*
X156150000Y-60250000D03*
X157550000Y-57450000D03*
X157550000Y-57450000D03*
X157550000Y-58850000D03*
X157550000Y-60250000D03*
X158950000Y-57450000D03*
X158950000Y-58850000D03*
X158950000Y-60250000D03*
%TD*%
D17*
%TO.C,R17*%
X187300000Y-32712500D03*
X187300000Y-30887500D03*
%TD*%
D11*
%TO.C,R107*%
X106500000Y-106600000D03*
X106500000Y-104950000D03*
%TD*%
D12*
%TO.C,R57*%
X164662500Y-85400000D03*
X162837500Y-85400000D03*
%TD*%
D22*
%TO.C,R14*%
X185687500Y-60500000D03*
X187512500Y-60500000D03*
%TD*%
D17*
%TO.C,R10*%
X199100000Y-51112500D03*
X199100000Y-49287500D03*
%TD*%
D30*
%TO.C,C14*%
X190600000Y-69525000D03*
X190600000Y-72475000D03*
%TD*%
D12*
%TO.C,R15*%
X160662500Y-122300000D03*
X158837500Y-122300000D03*
%TD*%
D16*
%TO.C,C7*%
X221150000Y-90000000D03*
X221150000Y-88100000D03*
%TD*%
%TO.C,C6*%
X222850000Y-94000000D03*
X222850000Y-92100000D03*
%TD*%
D14*
%TO.C,C4*%
X143075000Y-32950000D03*
X146025000Y-32950000D03*
%TD*%
D18*
%TO.C,C15*%
X232050000Y-94200000D03*
X230150000Y-94200000D03*
%TD*%
D11*
%TO.C,R89*%
X106625000Y-68883333D03*
X106625000Y-67233333D03*
%TD*%
D22*
%TO.C,R1*%
X111387500Y-68200000D03*
X113212500Y-68200000D03*
%TD*%
D17*
%TO.C,R18*%
X189600000Y-33812500D03*
X189600000Y-31987500D03*
%TD*%
D22*
%TO.C,R49*%
X95487500Y-77050000D03*
X97312500Y-77050000D03*
%TD*%
D17*
%TO.C,R56*%
X145200000Y-82112500D03*
X145200000Y-80287500D03*
%TD*%
D22*
%TO.C,R8*%
X190087500Y-56600000D03*
X191912500Y-56600000D03*
%TD*%
D14*
%TO.C,C17*%
X134725000Y-174900000D03*
X137675000Y-174900000D03*
%TD*%
D37*
X40518515Y-14949999D02*
X247550000Y-14949999D01*
X247550000Y-189750000D01*
X40518515Y-189750000D01*
X40518515Y-14949999D01*
X50250000Y-183000000D02*
G75*
G02*
X44250000Y-183000000I-3000000J0D01*
G01*
X44250000Y-183000000D02*
G75*
G02*
X50250000Y-183000000I3000000J0D01*
G01*
X50300000Y-21700000D02*
G75*
G02*
X44300000Y-21700000I-3000000J0D01*
G01*
X44300000Y-21700000D02*
G75*
G02*
X50300000Y-21700000I3000000J0D01*
G01*
X243750000Y-183000000D02*
G75*
G02*
X237750000Y-183000000I-3000000J0D01*
G01*
X237750000Y-183000000D02*
G75*
G02*
X243750000Y-183000000I3000000J0D01*
G01*
X243800000Y-21700000D02*
G75*
G02*
X237800000Y-21700000I-3000000J0D01*
G01*
X237800000Y-21700000D02*
G75*
G02*
X243800000Y-21700000I3000000J0D01*
G01*
M02*
