%TF.GenerationSoftware,KiCad,Pcbnew,10.0.0*%
%TF.CreationDate,2026-04-24T17:54:15-04:00*%
%TF.ProjectId,Standalone DRV8825,5374616e-6461-46c6-9f6e-652044525638,rev?*%
%TF.SameCoordinates,Original*%
%TF.FileFunction,Legend,Top*%
%TF.FilePolarity,Positive*%
%FSLAX46Y46*%
G04 Gerber Fmt 4.6, Leading zero omitted, Abs format (unit mm)*
G04 Created by KiCad (PCBNEW 10.0.0) date 2026-04-24 17:54:15*
%MOMM*%
%LPD*%
G01*
G04 APERTURE LIST*
%ADD10C,0.150000*%
%ADD11C,0.120000*%
%ADD12C,0.152400*%
%ADD13C,0.127000*%
%ADD14C,0.200000*%
G04 APERTURE END LIST*
D10*
X184237333Y-69034819D02*
X183904000Y-68558628D01*
X183665905Y-69034819D02*
X183665905Y-68034819D01*
X183665905Y-68034819D02*
X184046857Y-68034819D01*
X184046857Y-68034819D02*
X184142095Y-68082438D01*
X184142095Y-68082438D02*
X184189714Y-68130057D01*
X184189714Y-68130057D02*
X184237333Y-68225295D01*
X184237333Y-68225295D02*
X184237333Y-68368152D01*
X184237333Y-68368152D02*
X184189714Y-68463390D01*
X184189714Y-68463390D02*
X184142095Y-68511009D01*
X184142095Y-68511009D02*
X184046857Y-68558628D01*
X184046857Y-68558628D02*
X183665905Y-68558628D01*
X184618286Y-68130057D02*
X184665905Y-68082438D01*
X184665905Y-68082438D02*
X184761143Y-68034819D01*
X184761143Y-68034819D02*
X184999238Y-68034819D01*
X184999238Y-68034819D02*
X185094476Y-68082438D01*
X185094476Y-68082438D02*
X185142095Y-68130057D01*
X185142095Y-68130057D02*
X185189714Y-68225295D01*
X185189714Y-68225295D02*
X185189714Y-68320533D01*
X185189714Y-68320533D02*
X185142095Y-68463390D01*
X185142095Y-68463390D02*
X184570667Y-69034819D01*
X184570667Y-69034819D02*
X185189714Y-69034819D01*
X160904819Y-60880523D02*
X161619104Y-60880523D01*
X161619104Y-60880523D02*
X161761961Y-60928142D01*
X161761961Y-60928142D02*
X161857200Y-61023380D01*
X161857200Y-61023380D02*
X161904819Y-61166237D01*
X161904819Y-61166237D02*
X161904819Y-61261475D01*
X161904819Y-59880523D02*
X161904819Y-60451951D01*
X161904819Y-60166237D02*
X160904819Y-60166237D01*
X160904819Y-60166237D02*
X161047676Y-60261475D01*
X161047676Y-60261475D02*
X161142914Y-60356713D01*
X161142914Y-60356713D02*
X161190533Y-60451951D01*
X160904819Y-59261475D02*
X160904819Y-59166237D01*
X160904819Y-59166237D02*
X160952438Y-59070999D01*
X160952438Y-59070999D02*
X161000057Y-59023380D01*
X161000057Y-59023380D02*
X161095295Y-58975761D01*
X161095295Y-58975761D02*
X161285771Y-58928142D01*
X161285771Y-58928142D02*
X161523866Y-58928142D01*
X161523866Y-58928142D02*
X161714342Y-58975761D01*
X161714342Y-58975761D02*
X161809580Y-59023380D01*
X161809580Y-59023380D02*
X161857200Y-59070999D01*
X161857200Y-59070999D02*
X161904819Y-59166237D01*
X161904819Y-59166237D02*
X161904819Y-59261475D01*
X161904819Y-59261475D02*
X161857200Y-59356713D01*
X161857200Y-59356713D02*
X161809580Y-59404332D01*
X161809580Y-59404332D02*
X161714342Y-59451951D01*
X161714342Y-59451951D02*
X161523866Y-59499570D01*
X161523866Y-59499570D02*
X161285771Y-59499570D01*
X161285771Y-59499570D02*
X161095295Y-59451951D01*
X161095295Y-59451951D02*
X161000057Y-59404332D01*
X161000057Y-59404332D02*
X160952438Y-59356713D01*
X160952438Y-59356713D02*
X160904819Y-59261475D01*
X171805095Y-75663819D02*
X171805095Y-76473342D01*
X171805095Y-76473342D02*
X171852714Y-76568580D01*
X171852714Y-76568580D02*
X171900333Y-76616200D01*
X171900333Y-76616200D02*
X171995571Y-76663819D01*
X171995571Y-76663819D02*
X172186047Y-76663819D01*
X172186047Y-76663819D02*
X172281285Y-76616200D01*
X172281285Y-76616200D02*
X172328904Y-76568580D01*
X172328904Y-76568580D02*
X172376523Y-76473342D01*
X172376523Y-76473342D02*
X172376523Y-75663819D01*
X173328904Y-75663819D02*
X172852714Y-75663819D01*
X172852714Y-75663819D02*
X172805095Y-76140009D01*
X172805095Y-76140009D02*
X172852714Y-76092390D01*
X172852714Y-76092390D02*
X172947952Y-76044771D01*
X172947952Y-76044771D02*
X173186047Y-76044771D01*
X173186047Y-76044771D02*
X173281285Y-76092390D01*
X173281285Y-76092390D02*
X173328904Y-76140009D01*
X173328904Y-76140009D02*
X173376523Y-76235247D01*
X173376523Y-76235247D02*
X173376523Y-76473342D01*
X173376523Y-76473342D02*
X173328904Y-76568580D01*
X173328904Y-76568580D02*
X173281285Y-76616200D01*
X173281285Y-76616200D02*
X173186047Y-76663819D01*
X173186047Y-76663819D02*
X172947952Y-76663819D01*
X172947952Y-76663819D02*
X172852714Y-76616200D01*
X172852714Y-76616200D02*
X172805095Y-76568580D01*
X160045819Y-69334523D02*
X161045819Y-69001190D01*
X161045819Y-69001190D02*
X160045819Y-68667857D01*
X161045819Y-67763095D02*
X160569628Y-68096428D01*
X161045819Y-68334523D02*
X160045819Y-68334523D01*
X160045819Y-68334523D02*
X160045819Y-67953571D01*
X160045819Y-67953571D02*
X160093438Y-67858333D01*
X160093438Y-67858333D02*
X160141057Y-67810714D01*
X160141057Y-67810714D02*
X160236295Y-67763095D01*
X160236295Y-67763095D02*
X160379152Y-67763095D01*
X160379152Y-67763095D02*
X160474390Y-67810714D01*
X160474390Y-67810714D02*
X160522009Y-67858333D01*
X160522009Y-67858333D02*
X160569628Y-67953571D01*
X160569628Y-67953571D02*
X160569628Y-68334523D01*
X161045819Y-66810714D02*
X161045819Y-67382142D01*
X161045819Y-67096428D02*
X160045819Y-67096428D01*
X160045819Y-67096428D02*
X160188676Y-67191666D01*
X160188676Y-67191666D02*
X160283914Y-67286904D01*
X160283914Y-67286904D02*
X160331533Y-67382142D01*
X183444819Y-78184333D02*
X184159104Y-78184333D01*
X184159104Y-78184333D02*
X184301961Y-78231952D01*
X184301961Y-78231952D02*
X184397200Y-78327190D01*
X184397200Y-78327190D02*
X184444819Y-78470047D01*
X184444819Y-78470047D02*
X184444819Y-78565285D01*
X184444819Y-77660523D02*
X184444819Y-77470047D01*
X184444819Y-77470047D02*
X184397200Y-77374809D01*
X184397200Y-77374809D02*
X184349580Y-77327190D01*
X184349580Y-77327190D02*
X184206723Y-77231952D01*
X184206723Y-77231952D02*
X184016247Y-77184333D01*
X184016247Y-77184333D02*
X183635295Y-77184333D01*
X183635295Y-77184333D02*
X183540057Y-77231952D01*
X183540057Y-77231952D02*
X183492438Y-77279571D01*
X183492438Y-77279571D02*
X183444819Y-77374809D01*
X183444819Y-77374809D02*
X183444819Y-77565285D01*
X183444819Y-77565285D02*
X183492438Y-77660523D01*
X183492438Y-77660523D02*
X183540057Y-77708142D01*
X183540057Y-77708142D02*
X183635295Y-77755761D01*
X183635295Y-77755761D02*
X183873390Y-77755761D01*
X183873390Y-77755761D02*
X183968628Y-77708142D01*
X183968628Y-77708142D02*
X184016247Y-77660523D01*
X184016247Y-77660523D02*
X184063866Y-77565285D01*
X184063866Y-77565285D02*
X184063866Y-77374809D01*
X184063866Y-77374809D02*
X184016247Y-77279571D01*
X184016247Y-77279571D02*
X183968628Y-77231952D01*
X183968628Y-77231952D02*
X183873390Y-77184333D01*
X183748819Y-73826666D02*
X183272628Y-74159999D01*
X183748819Y-74398094D02*
X182748819Y-74398094D01*
X182748819Y-74398094D02*
X182748819Y-74017142D01*
X182748819Y-74017142D02*
X182796438Y-73921904D01*
X182796438Y-73921904D02*
X182844057Y-73874285D01*
X182844057Y-73874285D02*
X182939295Y-73826666D01*
X182939295Y-73826666D02*
X183082152Y-73826666D01*
X183082152Y-73826666D02*
X183177390Y-73874285D01*
X183177390Y-73874285D02*
X183225009Y-73921904D01*
X183225009Y-73921904D02*
X183272628Y-74017142D01*
X183272628Y-74017142D02*
X183272628Y-74398094D01*
X183748819Y-72874285D02*
X183748819Y-73445713D01*
X183748819Y-73159999D02*
X182748819Y-73159999D01*
X182748819Y-73159999D02*
X182891676Y-73255237D01*
X182891676Y-73255237D02*
X182986914Y-73350475D01*
X182986914Y-73350475D02*
X183034533Y-73445713D01*
X184237333Y-71066819D02*
X183904000Y-70590628D01*
X183665905Y-71066819D02*
X183665905Y-70066819D01*
X183665905Y-70066819D02*
X184046857Y-70066819D01*
X184046857Y-70066819D02*
X184142095Y-70114438D01*
X184142095Y-70114438D02*
X184189714Y-70162057D01*
X184189714Y-70162057D02*
X184237333Y-70257295D01*
X184237333Y-70257295D02*
X184237333Y-70400152D01*
X184237333Y-70400152D02*
X184189714Y-70495390D01*
X184189714Y-70495390D02*
X184142095Y-70543009D01*
X184142095Y-70543009D02*
X184046857Y-70590628D01*
X184046857Y-70590628D02*
X183665905Y-70590628D01*
X184570667Y-70066819D02*
X185189714Y-70066819D01*
X185189714Y-70066819D02*
X184856381Y-70447771D01*
X184856381Y-70447771D02*
X184999238Y-70447771D01*
X184999238Y-70447771D02*
X185094476Y-70495390D01*
X185094476Y-70495390D02*
X185142095Y-70543009D01*
X185142095Y-70543009D02*
X185189714Y-70638247D01*
X185189714Y-70638247D02*
X185189714Y-70876342D01*
X185189714Y-70876342D02*
X185142095Y-70971580D01*
X185142095Y-70971580D02*
X185094476Y-71019200D01*
X185094476Y-71019200D02*
X184999238Y-71066819D01*
X184999238Y-71066819D02*
X184713524Y-71066819D01*
X184713524Y-71066819D02*
X184618286Y-71019200D01*
X184618286Y-71019200D02*
X184570667Y-70971580D01*
%TO.C,R44*%
D11*
X162799500Y-70087258D02*
X162799500Y-69612742D01*
X163844500Y-70087258D02*
X163844500Y-69612742D01*
%TO.C,C2*%
X179684000Y-65481252D02*
X179684000Y-64058748D01*
X181504000Y-65481252D02*
X181504000Y-64058748D01*
%TO.C,C1*%
X164853252Y-64543000D02*
X164330748Y-64543000D01*
X164853252Y-66013000D02*
X164330748Y-66013000D01*
%TO.C,R2*%
X179910000Y-67580000D02*
X179910000Y-69580000D01*
X179910000Y-69580000D02*
X183310000Y-69580000D01*
X183310000Y-67580000D02*
X179910000Y-67580000D01*
X183310000Y-69580000D02*
X183310000Y-67580000D01*
%TO.C,C57*%
X179322000Y-73800580D02*
X179322000Y-73519420D01*
X180342000Y-73800580D02*
X180342000Y-73519420D01*
%TO.C,D1*%
X185544000Y-59190000D02*
X185544000Y-60190000D01*
%TO.C,R4*%
X187183500Y-62213258D02*
X187183500Y-61738742D01*
X188228500Y-62213258D02*
X188228500Y-61738742D01*
%TO.C,J10*%
X162450000Y-61451000D02*
X162450000Y-60071000D01*
X163830000Y-61451000D02*
X162450000Y-61451000D01*
X165100000Y-58691000D02*
X182990000Y-58691000D01*
X165100000Y-61451000D02*
X165100000Y-58691000D01*
X165100000Y-61451000D02*
X182990000Y-61451000D01*
X182990000Y-61451000D02*
X182990000Y-58691000D01*
%TO.C,R40*%
X164577500Y-73643258D02*
X164577500Y-73168742D01*
X165622500Y-73643258D02*
X165622500Y-73168742D01*
%TO.C,JP1*%
D12*
X186690000Y-65532000D02*
X186690000Y-63804800D01*
X188468000Y-63550800D02*
X186944000Y-63550800D01*
X188468000Y-65786000D02*
X186944000Y-65786000D01*
X188722000Y-63804800D02*
X188722000Y-65532000D01*
X186690000Y-63804800D02*
G75*
G02*
X186944000Y-63550800I254000J0D01*
G01*
X186944000Y-65786000D02*
G75*
G02*
X186690000Y-65532000I0J254000D01*
G01*
X188468000Y-63550800D02*
G75*
G02*
X188722000Y-63804800I0J-254000D01*
G01*
X188722000Y-65532000D02*
G75*
G02*
X188468000Y-65786000I-254000J0D01*
G01*
%TO.C,U5*%
D13*
X174442000Y-64904000D02*
X170042000Y-64904000D01*
X174442000Y-75244000D02*
X170042000Y-75244000D01*
D14*
X176582000Y-74609000D02*
G75*
G02*
X176382000Y-74609000I-100000J0D01*
G01*
X176382000Y-74609000D02*
G75*
G02*
X176582000Y-74609000I100000J0D01*
G01*
%TO.C,VR1*%
D13*
X152601000Y-73370000D02*
X152601000Y-68620000D01*
X155041000Y-73370000D02*
X152601000Y-73370000D01*
X156871000Y-73370000D02*
X159311000Y-73370000D01*
X157581000Y-66330000D02*
X154331000Y-66330000D01*
X159311000Y-73370000D02*
X159311000Y-68620000D01*
D14*
X159056000Y-64150000D02*
G75*
G02*
X158856000Y-64150000I-100000J0D01*
G01*
X158856000Y-64150000D02*
G75*
G02*
X159056000Y-64150000I100000J0D01*
G01*
%TO.C,J9*%
D11*
X162450000Y-76471000D02*
X162450000Y-79231000D01*
X180340000Y-76471000D02*
X162450000Y-76471000D01*
X180340000Y-76471000D02*
X180340000Y-79231000D01*
X180340000Y-79231000D02*
X162450000Y-79231000D01*
X181610000Y-76471000D02*
X182990000Y-76471000D01*
X182990000Y-76471000D02*
X182990000Y-77851000D01*
%TO.C,C58*%
X184148000Y-73519420D02*
X184148000Y-73800580D01*
X185168000Y-73519420D02*
X185168000Y-73800580D01*
%TO.C,C60*%
X177036000Y-65672580D02*
X177036000Y-65391420D01*
X178056000Y-65672580D02*
X178056000Y-65391420D01*
%TO.C,R1*%
X181341500Y-73422742D02*
X181341500Y-73897258D01*
X182386500Y-73422742D02*
X182386500Y-73897258D01*
%TO.C,C56*%
X177290000Y-74562580D02*
X177290000Y-74281420D01*
X178310000Y-74562580D02*
X178310000Y-74281420D01*
%TO.C,R43*%
X164577500Y-70087258D02*
X164577500Y-69612742D01*
X165622500Y-70087258D02*
X165622500Y-69612742D01*
%TO.C,R3*%
X179910000Y-69866000D02*
X179910000Y-71866000D01*
X179910000Y-71866000D02*
X183310000Y-71866000D01*
X183310000Y-69866000D02*
X179910000Y-69866000D01*
X183310000Y-71866000D02*
X183310000Y-69866000D01*
%TD*%
M02*
