M48
; DRILL file KiCad 10.0.0 date 2026-04-24T17:54:40
; FORMAT={-:-/ absolute / metric / decimal}
; #@! TF.CreationDate,2026-04-24T17:54:40-04:00
; #@! TF.GenerationSoftware,Kicad,Pcbnew,10.0.0
; #@! TF.FileFunction,Plated,1,2,PTH
FMAT,2
METRIC
; #@! TA.AperFunction,Plated,PTH,ViaDrill
T1C0.300
; #@! TA.AperFunction,Plated,PTH,ComponentDrill
T2C0.300
; #@! TA.AperFunction,Plated,PTH,ComponentDrill
T3C1.000
%
G90
G05
T1
X154.686Y-66.802
X162.704Y-67.818
X163.534Y-66.857
X163.576Y-67.818
X166.243Y-67.437
X166.37Y-61.722
X167.364Y-69.594
X167.386Y-68.58
X168.148Y-62.343
X168.148Y-69.751
X168.402Y-75.692
X169.621Y-64.66
X176.53Y-70.358
X176.784Y-68.436
X176.784Y-71.701
X177.292Y-70.358
X177.546Y-68.436
X178.597Y-69.85
X178.816Y-71.701
X178.816Y-71.701
X179.324Y-69.85
X179.324Y-69.85
X179.832Y-75.692
X183.896Y-67.564
X184.658Y-76.2
X184.912Y-67.564
X185.674Y-68.326
X185.674Y-69.342
X185.674Y-70.358
X185.674Y-71.374
T2
X170.942Y-66.174
X170.942Y-67.474
X170.942Y-68.774
X170.942Y-70.074
X170.942Y-71.374
X170.942Y-72.674
X170.942Y-73.974
X172.242Y-66.174
X172.242Y-67.474
X172.242Y-68.774
X172.242Y-70.074
X172.242Y-71.374
X172.242Y-72.674
X172.242Y-73.974
X173.542Y-66.174
X173.542Y-67.474
X173.542Y-68.774
X173.542Y-70.074
X173.542Y-71.374
X173.542Y-72.674
X173.542Y-73.974
T3
X163.83Y-60.071
X163.83Y-77.851
X166.37Y-60.071
X166.37Y-77.851
X168.91Y-60.071
X168.91Y-77.851
X171.45Y-60.071
X171.45Y-77.851
X173.99Y-60.071
X173.99Y-77.851
X176.53Y-60.071
X176.53Y-77.851
X179.07Y-60.071
X179.07Y-77.851
X181.61Y-60.071
X181.61Y-77.851
M30
