%TF.GenerationSoftware,KiCad,Pcbnew,10.0.0*%
%TF.CreationDate,2026-04-24T17:54:15-04:00*%
%TF.ProjectId,Standalone DRV8825,5374616e-6461-46c6-9f6e-652044525638,rev?*%
%TF.SameCoordinates,Original*%
%TF.FileFunction,Copper,L2,Bot*%
%TF.FilePolarity,Positive*%
%FSLAX46Y46*%
G04 Gerber Fmt 4.6, Leading zero omitted, Abs format (unit mm)*
G04 Created by KiCad (PCBNEW 10.0.0) date 2026-04-24 17:54:15*
%MOMM*%
%LPD*%
G01*
G04 APERTURE LIST*
%TA.AperFunction,ComponentPad*%
%ADD10R,1.700000X1.700000*%
%TD*%
%TA.AperFunction,ComponentPad*%
%ADD11C,1.700000*%
%TD*%
%TA.AperFunction,ComponentPad*%
%ADD12C,0.500000*%
%TD*%
%TA.AperFunction,ViaPad*%
%ADD13C,0.600000*%
%TD*%
%TA.AperFunction,Conductor*%
%ADD14C,0.304800*%
%TD*%
G04 APERTURE END LIST*
D10*
%TO.P,J10,1*%
%TO.N,Net-(U5-DIR)*%
X163830000Y-60071000D03*
D11*
%TO.P,J10,2*%
%TO.N,Net-(U5-STEP)*%
X166370000Y-60071000D03*
%TO.P,J10,3*%
%TO.N,SLP*%
X168910000Y-60071000D03*
%TO.P,J10,4*%
%TO.N,RESET*%
X171450000Y-60071000D03*
%TO.P,J10,5*%
%TO.N,Net-(U5-MODE2)*%
X173990000Y-60071000D03*
%TO.P,J10,6*%
%TO.N,Net-(U5-MODE1)*%
X176530000Y-60071000D03*
%TO.P,J10,7*%
%TO.N,Net-(U5-MODE0)*%
X179070000Y-60071000D03*
%TO.P,J10,8*%
%TO.N,Net-(U5-NENBL)*%
X181610000Y-60071000D03*
%TD*%
D12*
%TO.P,U5,30*%
%TO.N,N/C*%
X172242000Y-70074000D03*
%TO.P,U5,31*%
X172242000Y-71374000D03*
%TO.P,U5,32*%
X172242000Y-72674000D03*
%TO.P,U5,33*%
X172242000Y-73974000D03*
%TO.P,U5,34*%
X172242000Y-68774000D03*
%TO.P,U5,35*%
X172242000Y-67474000D03*
%TO.P,U5,36*%
X172242000Y-66174000D03*
%TO.P,U5,37*%
X173542000Y-73974000D03*
%TO.P,U5,38*%
X170942000Y-73974000D03*
%TO.P,U5,39*%
X173542000Y-72674000D03*
%TO.P,U5,40*%
X170942000Y-72674000D03*
%TO.P,U5,41*%
X170942000Y-71374000D03*
%TO.P,U5,42*%
X173542000Y-71374000D03*
%TO.P,U5,43*%
X173542000Y-70074000D03*
%TO.P,U5,44*%
X170942000Y-70074000D03*
%TO.P,U5,45*%
X173542000Y-68774000D03*
%TO.P,U5,46*%
X170942000Y-68774000D03*
%TO.P,U5,47*%
X173542000Y-67474000D03*
%TO.P,U5,48*%
X170942000Y-67474000D03*
%TO.P,U5,49*%
X173542000Y-66174000D03*
%TO.P,U5,50*%
X170942000Y-66174000D03*
%TD*%
D10*
%TO.P,J9,1*%
%TO.N,+12V*%
X181610000Y-77851000D03*
D11*
%TO.P,J9,2*%
%TO.N,GND*%
X179070000Y-77851000D03*
%TO.P,J9,3*%
%TO.N,/B2*%
X176530000Y-77851000D03*
%TO.P,J9,4*%
%TO.N,/B1*%
X173990000Y-77851000D03*
%TO.P,J9,5*%
%TO.N,/A1*%
X171450000Y-77851000D03*
%TO.P,J9,6*%
%TO.N,/A2*%
X168910000Y-77851000D03*
%TO.P,J9,7*%
%TO.N,Net-(J9-Pad7)*%
X166370000Y-77851000D03*
%TO.P,J9,8*%
%TO.N,GND*%
X163830000Y-77851000D03*
%TD*%
D13*
%TO.N,GND*%
X163576000Y-67818000D03*
X185674000Y-70358000D03*
X185674000Y-68326000D03*
X168402000Y-75692000D03*
X185674000Y-69342000D03*
X184912000Y-67564000D03*
X162704400Y-67818000D03*
X179832000Y-75692000D03*
X184658000Y-76200000D03*
X185674000Y-71374000D03*
X183896000Y-67564000D03*
%TO.N,+3V3*%
X163534449Y-66857000D03*
X154686000Y-66802000D03*
%TO.N,Net-(U5-DIR)*%
X167363711Y-69593617D03*
%TO.N,Net-(U5-STEP)*%
X167386000Y-68580000D03*
%TO.N,SLP*%
X166243000Y-67437000D03*
X166370000Y-61722000D03*
%TO.N,Net-(U5-NENBL)*%
X168148000Y-69751400D03*
%TO.N,/A1*%
X178816000Y-71701400D03*
X178816000Y-71701400D03*
X176784000Y-71701400D03*
%TO.N,/A2*%
X177292000Y-70358000D03*
X176530000Y-70358000D03*
%TO.N,/B2*%
X179324000Y-69850000D03*
X179324000Y-69850000D03*
X178596800Y-69850000D03*
%TO.N,/B1*%
X177546000Y-68435600D03*
X176784000Y-68435600D03*
%TO.N,Net-(U5-AVREF)*%
X168148000Y-62342800D03*
X169620968Y-64660399D03*
%TD*%
%TO.N,+3V3*%
D14*
X154741000Y-66857000D02*
X154686000Y-66802000D01*
X163534449Y-66857000D02*
X154741000Y-66857000D01*
%TO.N,Net-(U5-DIR)*%
X166692251Y-69092168D02*
X163830000Y-66229917D01*
X167363711Y-69593617D02*
X166862262Y-69092168D01*
X163830000Y-66229917D02*
X163830000Y-60071000D01*
X166862262Y-69092168D02*
X166692251Y-69092168D01*
%TO.N,Net-(U5-STEP)*%
X167386000Y-68580000D02*
X167386000Y-61087000D01*
X167386000Y-61087000D02*
X166370000Y-60071000D01*
%TO.N,SLP*%
X166370000Y-61722000D02*
X166370000Y-62484000D01*
X166243000Y-62611000D02*
X166243000Y-67437000D01*
X166370000Y-62484000D02*
X166243000Y-62611000D01*
%TO.N,Net-(U5-NENBL)*%
X168148000Y-69342000D02*
X169926000Y-67564000D01*
X178435000Y-63246000D02*
X181610000Y-60071000D01*
X169926000Y-65278000D02*
X171958000Y-63246000D01*
X171958000Y-63246000D02*
X178435000Y-63246000D01*
X169926000Y-67564000D02*
X169926000Y-65278000D01*
X168148000Y-69751400D02*
X168148000Y-69342000D01*
%TO.N,/A1*%
X175260000Y-72390000D02*
X175260000Y-75184000D01*
X171450000Y-76708000D02*
X171450000Y-77851000D01*
X175948600Y-71701400D02*
X175260000Y-72390000D01*
X175260000Y-75184000D02*
X175006000Y-75438000D01*
X175006000Y-75438000D02*
X172720000Y-75438000D01*
X176784000Y-71701400D02*
X175948600Y-71701400D01*
X172720000Y-75438000D02*
X171450000Y-76708000D01*
%TO.N,/A2*%
X171831000Y-74930000D02*
X168910000Y-77851000D01*
X177292000Y-70358000D02*
X176530000Y-70358000D01*
X176530000Y-70358000D02*
X175260000Y-70358000D01*
X174498000Y-71120000D02*
X174498000Y-74676000D01*
X174244000Y-74930000D02*
X171831000Y-74930000D01*
X174498000Y-74676000D02*
X174244000Y-74930000D01*
X175260000Y-70358000D02*
X174498000Y-71120000D01*
%TO.N,/B2*%
X179578000Y-72136000D02*
X176530000Y-75184000D01*
X179324000Y-69850000D02*
X179578000Y-70104000D01*
X179578000Y-70104000D02*
X179578000Y-72136000D01*
X176530000Y-75184000D02*
X176530000Y-77851000D01*
%TO.N,/B1*%
X177018033Y-72390000D02*
X176276000Y-72390000D01*
X176022000Y-72644000D02*
X176022000Y-75184000D01*
X177546000Y-68435600D02*
X176784000Y-68435600D01*
X176022000Y-75184000D02*
X175260000Y-75946000D01*
X177546000Y-68435600D02*
X177944400Y-68834000D01*
X175260000Y-75946000D02*
X174752000Y-75946000D01*
X177944400Y-68834000D02*
X177944400Y-71463633D01*
X174752000Y-75946000D02*
X173990000Y-76708000D01*
X176276000Y-72390000D02*
X176022000Y-72644000D01*
X177944400Y-71463633D02*
X177018033Y-72390000D01*
X173990000Y-76708000D02*
X173990000Y-77851000D01*
%TO.N,Net-(U5-AVREF)*%
X168148000Y-62342800D02*
X168148000Y-63187431D01*
X168148000Y-63187431D02*
X169620968Y-64660399D01*
%TD*%
%TA.AperFunction,Conductor*%
%TO.N,GND*%
G36*
X190450539Y-58369841D02*
G01*
X190496294Y-58422645D01*
X190507500Y-58474156D01*
X190507500Y-80147500D01*
X190487815Y-80214539D01*
X190435011Y-80260294D01*
X190383500Y-80271500D01*
X152930907Y-80271500D01*
X152863868Y-80251815D01*
X152818113Y-80199011D01*
X152806907Y-80147500D01*
X152806907Y-66723153D01*
X153885500Y-66723153D01*
X153885500Y-66880846D01*
X153916261Y-67035489D01*
X153916264Y-67035501D01*
X153976602Y-67181172D01*
X153976609Y-67181185D01*
X154064210Y-67312288D01*
X154064213Y-67312292D01*
X154175707Y-67423786D01*
X154175711Y-67423789D01*
X154306814Y-67511390D01*
X154306827Y-67511397D01*
X154439611Y-67566397D01*
X154452503Y-67571737D01*
X154607153Y-67602499D01*
X154607156Y-67602500D01*
X154607158Y-67602500D01*
X154764844Y-67602500D01*
X154764845Y-67602499D01*
X154919497Y-67571737D01*
X155045998Y-67519338D01*
X155093450Y-67509900D01*
X163033106Y-67509900D01*
X163100145Y-67529585D01*
X163101947Y-67530764D01*
X163155270Y-67566394D01*
X163155272Y-67566395D01*
X163155276Y-67566397D01*
X163242438Y-67602500D01*
X163300952Y-67626737D01*
X163455602Y-67657499D01*
X163455605Y-67657500D01*
X163455607Y-67657500D01*
X163613293Y-67657500D01*
X163613294Y-67657499D01*
X163767946Y-67626737D01*
X163913628Y-67566394D01*
X163913633Y-67566390D01*
X163913636Y-67566389D01*
X163968716Y-67529585D01*
X164026540Y-67490948D01*
X164093215Y-67470070D01*
X164160596Y-67488554D01*
X164183111Y-67506369D01*
X166276050Y-69599308D01*
X166365883Y-69659332D01*
X166365882Y-69659332D01*
X166382985Y-69670759D01*
X166382986Y-69670759D01*
X166382987Y-69670760D01*
X166501807Y-69719977D01*
X166501817Y-69719979D01*
X166506082Y-69721273D01*
X166564524Y-69759567D01*
X166591712Y-69815744D01*
X166593972Y-69827107D01*
X166593974Y-69827115D01*
X166654313Y-69972789D01*
X166654320Y-69972802D01*
X166741921Y-70103905D01*
X166741924Y-70103909D01*
X166853418Y-70215403D01*
X166853422Y-70215406D01*
X166984525Y-70303007D01*
X166984538Y-70303014D01*
X167108527Y-70354371D01*
X167130214Y-70363354D01*
X167284864Y-70394116D01*
X167284867Y-70394117D01*
X167284869Y-70394117D01*
X167442554Y-70394117D01*
X167480059Y-70386656D01*
X167566701Y-70369422D01*
X167636291Y-70375649D01*
X167659783Y-70387937D01*
X167768814Y-70460790D01*
X167768827Y-70460797D01*
X167914498Y-70521135D01*
X167914503Y-70521137D01*
X168069153Y-70551899D01*
X168069156Y-70551900D01*
X168069158Y-70551900D01*
X168226844Y-70551900D01*
X168226845Y-70551899D01*
X168381497Y-70521137D01*
X168527179Y-70460794D01*
X168658289Y-70373189D01*
X168769789Y-70261689D01*
X168857394Y-70130579D01*
X168917737Y-69984897D01*
X168948500Y-69830242D01*
X168948500Y-69672558D01*
X168948500Y-69672555D01*
X168948499Y-69672553D01*
X168926968Y-69564307D01*
X168933195Y-69494716D01*
X168960902Y-69452437D01*
X170035577Y-68377761D01*
X170096898Y-68344278D01*
X170166590Y-68349262D01*
X170222523Y-68391134D01*
X170246940Y-68456598D01*
X170237818Y-68512895D01*
X170220342Y-68555087D01*
X170220340Y-68555092D01*
X170191500Y-68700079D01*
X170191500Y-68700082D01*
X170191500Y-68847918D01*
X170191500Y-68847920D01*
X170191499Y-68847920D01*
X170220340Y-68992907D01*
X170220343Y-68992917D01*
X170276912Y-69129488D01*
X170276919Y-69129501D01*
X170359048Y-69252415D01*
X170359051Y-69252419D01*
X170442951Y-69336319D01*
X170476436Y-69397642D01*
X170471452Y-69467334D01*
X170442951Y-69511681D01*
X170359051Y-69595580D01*
X170359048Y-69595584D01*
X170276919Y-69718498D01*
X170276912Y-69718511D01*
X170220343Y-69855082D01*
X170220340Y-69855092D01*
X170191500Y-70000079D01*
X170191500Y-70000082D01*
X170191500Y-70147918D01*
X170191500Y-70147920D01*
X170191499Y-70147920D01*
X170220340Y-70292907D01*
X170220343Y-70292917D01*
X170276912Y-70429488D01*
X170276919Y-70429501D01*
X170359048Y-70552415D01*
X170359051Y-70552419D01*
X170442951Y-70636319D01*
X170476436Y-70697642D01*
X170471452Y-70767334D01*
X170442951Y-70811681D01*
X170359051Y-70895580D01*
X170359048Y-70895584D01*
X170276919Y-71018498D01*
X170276912Y-71018511D01*
X170220343Y-71155082D01*
X170220340Y-71155092D01*
X170191500Y-71300079D01*
X170191500Y-71300082D01*
X170191500Y-71447918D01*
X170191500Y-71447920D01*
X170191499Y-71447920D01*
X170220340Y-71592907D01*
X170220343Y-71592917D01*
X170276912Y-71729488D01*
X170276919Y-71729501D01*
X170359048Y-71852415D01*
X170359051Y-71852419D01*
X170442951Y-71936319D01*
X170476436Y-71997642D01*
X170471452Y-72067334D01*
X170442951Y-72111681D01*
X170359051Y-72195580D01*
X170359048Y-72195584D01*
X170276919Y-72318498D01*
X170276912Y-72318511D01*
X170220343Y-72455082D01*
X170220340Y-72455092D01*
X170191500Y-72600079D01*
X170191500Y-72600082D01*
X170191500Y-72747918D01*
X170191500Y-72747920D01*
X170191499Y-72747920D01*
X170220340Y-72892907D01*
X170220343Y-72892917D01*
X170276912Y-73029488D01*
X170276919Y-73029501D01*
X170359048Y-73152415D01*
X170359051Y-73152419D01*
X170442951Y-73236319D01*
X170476436Y-73297642D01*
X170471452Y-73367334D01*
X170442951Y-73411681D01*
X170359051Y-73495580D01*
X170359048Y-73495584D01*
X170276919Y-73618498D01*
X170276912Y-73618511D01*
X170220343Y-73755082D01*
X170220340Y-73755092D01*
X170191500Y-73900079D01*
X170191500Y-73900082D01*
X170191500Y-74047918D01*
X170191500Y-74047920D01*
X170191499Y-74047920D01*
X170220340Y-74192907D01*
X170220343Y-74192917D01*
X170276912Y-74329488D01*
X170276919Y-74329501D01*
X170359048Y-74452415D01*
X170359051Y-74452419D01*
X170463580Y-74556948D01*
X170463584Y-74556951D01*
X170586498Y-74639080D01*
X170586511Y-74639087D01*
X170723082Y-74695656D01*
X170723087Y-74695658D01*
X170844968Y-74719902D01*
X170906879Y-74752287D01*
X170941453Y-74813002D01*
X170937714Y-74882772D01*
X170908458Y-74929200D01*
X169337961Y-76499696D01*
X169276638Y-76533181D01*
X169230882Y-76534488D01*
X169053676Y-76506421D01*
X169016287Y-76500500D01*
X168803713Y-76500500D01*
X168755042Y-76508208D01*
X168593760Y-76533753D01*
X168391585Y-76599444D01*
X168202179Y-76695951D01*
X168030213Y-76820890D01*
X167879890Y-76971213D01*
X167754949Y-77143182D01*
X167750484Y-77151946D01*
X167702509Y-77202742D01*
X167634688Y-77219536D01*
X167568553Y-77196998D01*
X167529516Y-77151946D01*
X167525050Y-77143182D01*
X167400109Y-76971213D01*
X167249786Y-76820890D01*
X167077820Y-76695951D01*
X166888414Y-76599444D01*
X166888413Y-76599443D01*
X166888412Y-76599443D01*
X166686243Y-76533754D01*
X166686241Y-76533753D01*
X166686240Y-76533753D01*
X166524957Y-76508208D01*
X166476287Y-76500500D01*
X166263713Y-76500500D01*
X166215042Y-76508208D01*
X166053760Y-76533753D01*
X165851585Y-76599444D01*
X165662179Y-76695951D01*
X165490213Y-76820890D01*
X165339890Y-76971213D01*
X165214949Y-77143182D01*
X165210202Y-77152499D01*
X165162227Y-77203293D01*
X165094405Y-77220087D01*
X165028271Y-77197548D01*
X164989234Y-77152495D01*
X164984626Y-77143452D01*
X164945270Y-77089282D01*
X164945269Y-77089282D01*
X164312962Y-77721590D01*
X164295925Y-77658007D01*
X164230099Y-77543993D01*
X164137007Y-77450901D01*
X164022993Y-77385075D01*
X163959409Y-77368037D01*
X164591716Y-76735728D01*
X164537550Y-76696375D01*
X164348217Y-76599904D01*
X164146129Y-76534242D01*
X163936246Y-76501000D01*
X163723754Y-76501000D01*
X163513872Y-76534242D01*
X163513869Y-76534242D01*
X163311782Y-76599904D01*
X163122439Y-76696380D01*
X163068282Y-76735727D01*
X163068282Y-76735728D01*
X163700591Y-77368037D01*
X163637007Y-77385075D01*
X163522993Y-77450901D01*
X163429901Y-77543993D01*
X163364075Y-77658007D01*
X163347037Y-77721591D01*
X162714728Y-77089282D01*
X162714727Y-77089282D01*
X162675380Y-77143439D01*
X162578904Y-77332782D01*
X162513242Y-77534869D01*
X162513242Y-77534872D01*
X162480000Y-77744753D01*
X162480000Y-77957246D01*
X162513242Y-78167127D01*
X162513242Y-78167130D01*
X162578904Y-78369217D01*
X162675375Y-78558550D01*
X162714728Y-78612716D01*
X163347037Y-77980408D01*
X163364075Y-78043993D01*
X163429901Y-78158007D01*
X163522993Y-78251099D01*
X163637007Y-78316925D01*
X163700590Y-78333962D01*
X163068282Y-78966269D01*
X163068282Y-78966270D01*
X163122449Y-79005624D01*
X163311782Y-79102095D01*
X163513870Y-79167757D01*
X163723754Y-79201000D01*
X163936246Y-79201000D01*
X164146127Y-79167757D01*
X164146130Y-79167757D01*
X164348217Y-79102095D01*
X164537554Y-79005622D01*
X164591716Y-78966270D01*
X164591717Y-78966270D01*
X163959408Y-78333962D01*
X164022993Y-78316925D01*
X164137007Y-78251099D01*
X164230099Y-78158007D01*
X164295925Y-78043993D01*
X164312962Y-77980409D01*
X164945270Y-78612717D01*
X164945270Y-78612716D01*
X164984622Y-78558555D01*
X164989232Y-78549507D01*
X165037205Y-78498709D01*
X165105025Y-78481912D01*
X165171161Y-78504447D01*
X165210204Y-78549504D01*
X165214949Y-78558817D01*
X165339890Y-78730786D01*
X165490213Y-78881109D01*
X165662179Y-79006048D01*
X165662181Y-79006049D01*
X165662184Y-79006051D01*
X165851588Y-79102557D01*
X166053757Y-79168246D01*
X166263713Y-79201500D01*
X166263714Y-79201500D01*
X166476286Y-79201500D01*
X166476287Y-79201500D01*
X166686243Y-79168246D01*
X166888412Y-79102557D01*
X167077816Y-79006051D01*
X167164138Y-78943335D01*
X167249786Y-78881109D01*
X167249788Y-78881106D01*
X167249792Y-78881104D01*
X167400104Y-78730792D01*
X167400106Y-78730788D01*
X167400109Y-78730786D01*
X167525048Y-78558820D01*
X167525047Y-78558820D01*
X167525051Y-78558816D01*
X167529514Y-78550054D01*
X167577488Y-78499259D01*
X167645308Y-78482463D01*
X167711444Y-78504999D01*
X167750486Y-78550056D01*
X167754951Y-78558820D01*
X167879890Y-78730786D01*
X168030213Y-78881109D01*
X168202179Y-79006048D01*
X168202181Y-79006049D01*
X168202184Y-79006051D01*
X168391588Y-79102557D01*
X168593757Y-79168246D01*
X168803713Y-79201500D01*
X168803714Y-79201500D01*
X169016286Y-79201500D01*
X169016287Y-79201500D01*
X169226243Y-79168246D01*
X169428412Y-79102557D01*
X169617816Y-79006051D01*
X169704138Y-78943335D01*
X169789786Y-78881109D01*
X169789788Y-78881106D01*
X169789792Y-78881104D01*
X169940104Y-78730792D01*
X169940106Y-78730788D01*
X169940109Y-78730786D01*
X170065048Y-78558820D01*
X170065047Y-78558820D01*
X170065051Y-78558816D01*
X170069514Y-78550054D01*
X170117488Y-78499259D01*
X170185308Y-78482463D01*
X170251444Y-78504999D01*
X170290486Y-78550056D01*
X170294951Y-78558820D01*
X170419890Y-78730786D01*
X170570213Y-78881109D01*
X170742179Y-79006048D01*
X170742181Y-79006049D01*
X170742184Y-79006051D01*
X170931588Y-79102557D01*
X171133757Y-79168246D01*
X171343713Y-79201500D01*
X171343714Y-79201500D01*
X171556286Y-79201500D01*
X171556287Y-79201500D01*
X171766243Y-79168246D01*
X171968412Y-79102557D01*
X172157816Y-79006051D01*
X172244138Y-78943335D01*
X172329786Y-78881109D01*
X172329788Y-78881106D01*
X172329792Y-78881104D01*
X172480104Y-78730792D01*
X172480106Y-78730788D01*
X172480109Y-78730786D01*
X172605048Y-78558820D01*
X172605047Y-78558820D01*
X172605051Y-78558816D01*
X172609514Y-78550054D01*
X172657488Y-78499259D01*
X172725308Y-78482463D01*
X172791444Y-78504999D01*
X172830486Y-78550056D01*
X172834951Y-78558820D01*
X172959890Y-78730786D01*
X173110213Y-78881109D01*
X173282179Y-79006048D01*
X173282181Y-79006049D01*
X173282184Y-79006051D01*
X173471588Y-79102557D01*
X173673757Y-79168246D01*
X173883713Y-79201500D01*
X173883714Y-79201500D01*
X174096286Y-79201500D01*
X174096287Y-79201500D01*
X174306243Y-79168246D01*
X174508412Y-79102557D01*
X174697816Y-79006051D01*
X174784138Y-78943335D01*
X174869786Y-78881109D01*
X174869788Y-78881106D01*
X174869792Y-78881104D01*
X175020104Y-78730792D01*
X175020106Y-78730788D01*
X175020109Y-78730786D01*
X175145048Y-78558820D01*
X175145047Y-78558820D01*
X175145051Y-78558816D01*
X175149514Y-78550054D01*
X175197488Y-78499259D01*
X175265308Y-78482463D01*
X175331444Y-78504999D01*
X175370486Y-78550056D01*
X175374951Y-78558820D01*
X175499890Y-78730786D01*
X175650213Y-78881109D01*
X175822179Y-79006048D01*
X175822181Y-79006049D01*
X175822184Y-79006051D01*
X176011588Y-79102557D01*
X176213757Y-79168246D01*
X176423713Y-79201500D01*
X176423714Y-79201500D01*
X176636286Y-79201500D01*
X176636287Y-79201500D01*
X176846243Y-79168246D01*
X177048412Y-79102557D01*
X177237816Y-79006051D01*
X177324138Y-78943335D01*
X177409786Y-78881109D01*
X177409788Y-78881106D01*
X177409792Y-78881104D01*
X177560104Y-78730792D01*
X177560106Y-78730788D01*
X177560109Y-78730786D01*
X177645890Y-78612717D01*
X177685051Y-78558816D01*
X177689793Y-78549508D01*
X177737763Y-78498711D01*
X177805583Y-78481911D01*
X177871719Y-78504445D01*
X177910763Y-78549500D01*
X177915373Y-78558547D01*
X177954728Y-78612716D01*
X178587037Y-77980408D01*
X178604075Y-78043993D01*
X178669901Y-78158007D01*
X178762993Y-78251099D01*
X178877007Y-78316925D01*
X178940590Y-78333962D01*
X178308282Y-78966269D01*
X178308282Y-78966270D01*
X178362449Y-79005624D01*
X178551782Y-79102095D01*
X178753870Y-79167757D01*
X178963754Y-79201000D01*
X179176246Y-79201000D01*
X179386127Y-79167757D01*
X179386130Y-79167757D01*
X179588217Y-79102095D01*
X179777554Y-79005622D01*
X179831716Y-78966270D01*
X179831717Y-78966270D01*
X179199408Y-78333962D01*
X179262993Y-78316925D01*
X179377007Y-78251099D01*
X179470099Y-78158007D01*
X179535925Y-78043993D01*
X179552962Y-77980409D01*
X180223181Y-78650628D01*
X180256666Y-78711951D01*
X180259500Y-78738300D01*
X180259500Y-78748865D01*
X180259501Y-78748876D01*
X180265908Y-78808483D01*
X180316202Y-78943328D01*
X180316206Y-78943335D01*
X180402452Y-79058544D01*
X180402455Y-79058547D01*
X180517664Y-79144793D01*
X180517671Y-79144797D01*
X180652517Y-79195091D01*
X180652516Y-79195091D01*
X180659444Y-79195835D01*
X180712127Y-79201500D01*
X182507872Y-79201499D01*
X182567483Y-79195091D01*
X182702331Y-79144796D01*
X182817546Y-79058546D01*
X182903796Y-78943331D01*
X182954091Y-78808483D01*
X182960500Y-78748873D01*
X182960499Y-76953128D01*
X182954091Y-76893517D01*
X182946775Y-76873903D01*
X182903797Y-76758671D01*
X182903793Y-76758664D01*
X182817547Y-76643455D01*
X182817544Y-76643452D01*
X182702335Y-76557206D01*
X182702328Y-76557202D01*
X182567482Y-76506908D01*
X182567483Y-76506908D01*
X182507883Y-76500501D01*
X182507881Y-76500500D01*
X182507873Y-76500500D01*
X182507864Y-76500500D01*
X180712129Y-76500500D01*
X180712123Y-76500501D01*
X180652516Y-76506908D01*
X180517671Y-76557202D01*
X180517664Y-76557206D01*
X180402455Y-76643452D01*
X180402452Y-76643455D01*
X180316206Y-76758664D01*
X180316202Y-76758671D01*
X180265908Y-76893517D01*
X180259501Y-76953116D01*
X180259501Y-76953123D01*
X180259500Y-76953135D01*
X180259500Y-76963690D01*
X180239815Y-77030729D01*
X180223181Y-77051371D01*
X179552962Y-77721590D01*
X179535925Y-77658007D01*
X179470099Y-77543993D01*
X179377007Y-77450901D01*
X179262993Y-77385075D01*
X179199409Y-77368037D01*
X179831716Y-76735728D01*
X179777550Y-76696375D01*
X179588217Y-76599904D01*
X179386129Y-76534242D01*
X179176246Y-76501000D01*
X178963754Y-76501000D01*
X178753872Y-76534242D01*
X178753869Y-76534242D01*
X178551782Y-76599904D01*
X178362439Y-76696380D01*
X178308282Y-76735727D01*
X178308282Y-76735728D01*
X178940591Y-77368037D01*
X178877007Y-77385075D01*
X178762993Y-77450901D01*
X178669901Y-77543993D01*
X178604075Y-77658007D01*
X178587037Y-77721591D01*
X177954728Y-77089282D01*
X177954727Y-77089282D01*
X177915380Y-77143440D01*
X177915376Y-77143446D01*
X177910760Y-77152505D01*
X177862781Y-77203297D01*
X177794959Y-77220087D01*
X177728826Y-77197543D01*
X177689794Y-77152493D01*
X177685051Y-77143184D01*
X177685049Y-77143181D01*
X177685048Y-77143179D01*
X177560109Y-76971213D01*
X177409790Y-76820894D01*
X177409785Y-76820890D01*
X177234015Y-76693186D01*
X177191349Y-76637856D01*
X177182900Y-76592868D01*
X177182900Y-75505802D01*
X177202585Y-75438763D01*
X177219219Y-75418121D01*
X180085139Y-72552201D01*
X180085141Y-72552199D01*
X180156592Y-72445264D01*
X180205809Y-72326444D01*
X180215472Y-72277865D01*
X180224276Y-72233605D01*
X180230900Y-72200307D01*
X180230900Y-70039692D01*
X180205810Y-69913561D01*
X180205809Y-69913560D01*
X180205809Y-69913556D01*
X180156592Y-69794736D01*
X180149459Y-69784061D01*
X180131274Y-69756846D01*
X180112762Y-69712149D01*
X180100364Y-69649822D01*
X180093737Y-69616503D01*
X180041773Y-69491049D01*
X180033397Y-69470827D01*
X180033390Y-69470814D01*
X179945789Y-69339711D01*
X179945786Y-69339707D01*
X179834292Y-69228213D01*
X179834288Y-69228210D01*
X179703185Y-69140609D01*
X179703172Y-69140602D01*
X179557501Y-69080264D01*
X179557489Y-69080261D01*
X179402845Y-69049500D01*
X179402842Y-69049500D01*
X179245158Y-69049500D01*
X179245155Y-69049500D01*
X179090510Y-69080261D01*
X179090498Y-69080264D01*
X179007852Y-69114497D01*
X178938382Y-69121966D01*
X178926579Y-69119235D01*
X178919624Y-69117263D01*
X178830297Y-69080263D01*
X178692249Y-69052803D01*
X178687479Y-69051451D01*
X178661933Y-69035369D01*
X178635197Y-69021384D01*
X178632671Y-69016948D01*
X178628350Y-69014228D01*
X178615558Y-68986895D01*
X178600623Y-68960668D01*
X178599741Y-68953099D01*
X178598733Y-68950946D01*
X178599138Y-68947926D01*
X178597300Y-68932152D01*
X178597300Y-68769692D01*
X178572210Y-68643561D01*
X178572209Y-68643560D01*
X178572209Y-68643556D01*
X178522992Y-68524736D01*
X178515080Y-68512895D01*
X178507239Y-68501159D01*
X178452011Y-68418505D01*
X178451541Y-68417801D01*
X178362170Y-68328429D01*
X178328687Y-68267107D01*
X178328261Y-68265066D01*
X178315737Y-68202103D01*
X178311158Y-68191049D01*
X178255397Y-68056427D01*
X178255390Y-68056414D01*
X178167789Y-67925311D01*
X178167786Y-67925307D01*
X178056292Y-67813813D01*
X178056288Y-67813810D01*
X177925185Y-67726209D01*
X177925172Y-67726202D01*
X177779501Y-67665864D01*
X177779489Y-67665861D01*
X177624845Y-67635100D01*
X177624842Y-67635100D01*
X177467158Y-67635100D01*
X177467155Y-67635100D01*
X177312510Y-67665861D01*
X177312502Y-67665863D01*
X177250028Y-67691740D01*
X177212452Y-67707305D01*
X177142983Y-67714774D01*
X177117549Y-67707305D01*
X177017497Y-67665863D01*
X177017489Y-67665861D01*
X176862845Y-67635100D01*
X176862842Y-67635100D01*
X176705158Y-67635100D01*
X176705155Y-67635100D01*
X176550510Y-67665861D01*
X176550498Y-67665864D01*
X176404827Y-67726202D01*
X176404814Y-67726209D01*
X176273711Y-67813810D01*
X176273707Y-67813813D01*
X176162213Y-67925307D01*
X176162210Y-67925311D01*
X176074609Y-68056414D01*
X176074602Y-68056427D01*
X176014264Y-68202098D01*
X176014261Y-68202110D01*
X175983500Y-68356753D01*
X175983500Y-68514446D01*
X176014261Y-68669089D01*
X176014264Y-68669101D01*
X176074602Y-68814772D01*
X176074609Y-68814785D01*
X176162210Y-68945888D01*
X176162213Y-68945892D01*
X176273707Y-69057386D01*
X176273711Y-69057389D01*
X176404814Y-69144990D01*
X176404827Y-69144997D01*
X176452929Y-69164921D01*
X176550503Y-69205337D01*
X176665493Y-69228210D01*
X176705153Y-69236099D01*
X176705156Y-69236100D01*
X176705158Y-69236100D01*
X176862844Y-69236100D01*
X176862845Y-69236099D01*
X177017497Y-69205337D01*
X177117547Y-69163894D01*
X177187017Y-69156426D01*
X177212428Y-69163884D01*
X177214934Y-69164922D01*
X177269343Y-69208752D01*
X177291420Y-69275043D01*
X177291500Y-69279491D01*
X177291500Y-69440152D01*
X177271815Y-69507191D01*
X177219011Y-69552946D01*
X177191692Y-69561769D01*
X177058508Y-69588261D01*
X177058502Y-69588263D01*
X176996028Y-69614140D01*
X176958452Y-69629705D01*
X176888983Y-69637174D01*
X176863549Y-69629705D01*
X176763497Y-69588263D01*
X176763489Y-69588261D01*
X176608845Y-69557500D01*
X176608842Y-69557500D01*
X176451158Y-69557500D01*
X176451155Y-69557500D01*
X176296510Y-69588261D01*
X176296498Y-69588264D01*
X176150827Y-69648602D01*
X176150820Y-69648606D01*
X176134770Y-69659331D01*
X176097547Y-69684202D01*
X176030871Y-69705080D01*
X176028657Y-69705100D01*
X175195693Y-69705100D01*
X175069561Y-69730189D01*
X175069555Y-69730191D01*
X174970653Y-69771158D01*
X174970652Y-69771158D01*
X174950738Y-69779406D01*
X174843798Y-69850860D01*
X174504181Y-70190477D01*
X174442858Y-70223962D01*
X174373166Y-70218978D01*
X174317233Y-70177106D01*
X174292816Y-70111642D01*
X174292500Y-70102796D01*
X174292500Y-70000079D01*
X174263659Y-69855092D01*
X174263658Y-69855091D01*
X174263658Y-69855087D01*
X174238660Y-69794736D01*
X174207087Y-69718511D01*
X174207080Y-69718498D01*
X174124951Y-69595584D01*
X174124948Y-69595580D01*
X174041049Y-69511681D01*
X174007564Y-69450358D01*
X174012548Y-69380666D01*
X174041049Y-69336319D01*
X174124948Y-69252419D01*
X174124951Y-69252416D01*
X174207084Y-69129495D01*
X174263658Y-68992913D01*
X174292500Y-68847918D01*
X174292500Y-68700082D01*
X174292500Y-68700079D01*
X174263659Y-68555092D01*
X174263658Y-68555091D01*
X174263658Y-68555087D01*
X174251086Y-68524736D01*
X174207087Y-68418511D01*
X174207080Y-68418498D01*
X174124951Y-68295584D01*
X174124948Y-68295580D01*
X174041049Y-68211681D01*
X174007564Y-68150358D01*
X174012548Y-68080666D01*
X174041049Y-68036319D01*
X174124948Y-67952419D01*
X174124951Y-67952416D01*
X174207084Y-67829495D01*
X174263658Y-67692913D01*
X174287762Y-67571736D01*
X174292500Y-67547920D01*
X174292500Y-67400079D01*
X174263659Y-67255092D01*
X174263658Y-67255091D01*
X174263658Y-67255087D01*
X174233047Y-67181185D01*
X174207087Y-67118511D01*
X174207080Y-67118498D01*
X174124951Y-66995584D01*
X174124948Y-66995580D01*
X174041049Y-66911681D01*
X174007564Y-66850358D01*
X174012548Y-66780666D01*
X174041049Y-66736319D01*
X174124948Y-66652419D01*
X174124951Y-66652416D01*
X174207084Y-66529495D01*
X174263658Y-66392913D01*
X174292500Y-66247918D01*
X174292500Y-66100082D01*
X174292500Y-66100079D01*
X174263659Y-65955092D01*
X174263658Y-65955091D01*
X174263658Y-65955087D01*
X174244201Y-65908114D01*
X174207087Y-65818511D01*
X174207080Y-65818498D01*
X174124951Y-65695584D01*
X174124948Y-65695580D01*
X174020419Y-65591051D01*
X174020415Y-65591048D01*
X173897501Y-65508919D01*
X173897488Y-65508912D01*
X173760917Y-65452343D01*
X173760907Y-65452340D01*
X173615920Y-65423500D01*
X173615918Y-65423500D01*
X173468082Y-65423500D01*
X173468080Y-65423500D01*
X173323092Y-65452340D01*
X173323082Y-65452343D01*
X173186511Y-65508912D01*
X173186498Y-65508919D01*
X173063584Y-65591048D01*
X173063580Y-65591051D01*
X172979681Y-65674951D01*
X172918358Y-65708436D01*
X172848666Y-65703452D01*
X172804319Y-65674951D01*
X172720419Y-65591051D01*
X172720415Y-65591048D01*
X172597501Y-65508919D01*
X172597488Y-65508912D01*
X172460917Y-65452343D01*
X172460907Y-65452340D01*
X172315920Y-65423500D01*
X172315918Y-65423500D01*
X172168082Y-65423500D01*
X172168080Y-65423500D01*
X172023092Y-65452340D01*
X172023082Y-65452343D01*
X171886511Y-65508912D01*
X171886498Y-65508919D01*
X171763584Y-65591048D01*
X171763580Y-65591051D01*
X171679681Y-65674951D01*
X171618358Y-65708436D01*
X171548666Y-65703452D01*
X171504319Y-65674951D01*
X171420419Y-65591051D01*
X171420415Y-65591048D01*
X171297501Y-65508919D01*
X171297488Y-65508912D01*
X171160917Y-65452343D01*
X171160907Y-65452340D01*
X171015920Y-65423500D01*
X171015918Y-65423500D01*
X171003202Y-65423500D01*
X170936163Y-65403815D01*
X170890408Y-65351011D01*
X170880464Y-65281853D01*
X170909489Y-65218297D01*
X170915521Y-65211819D01*
X172192121Y-63935219D01*
X172253444Y-63901734D01*
X172279802Y-63898900D01*
X178499307Y-63898900D01*
X178603565Y-63878161D01*
X178625444Y-63873809D01*
X178744264Y-63824592D01*
X178851200Y-63753141D01*
X181182038Y-61422301D01*
X181243359Y-61388818D01*
X181289115Y-61387511D01*
X181415242Y-61407487D01*
X181503713Y-61421500D01*
X181503714Y-61421500D01*
X181716286Y-61421500D01*
X181716287Y-61421500D01*
X181926243Y-61388246D01*
X182128412Y-61322557D01*
X182317816Y-61226051D01*
X182404138Y-61163335D01*
X182489786Y-61101109D01*
X182489788Y-61101106D01*
X182489792Y-61101104D01*
X182640104Y-60950792D01*
X182640106Y-60950788D01*
X182640109Y-60950786D01*
X182765048Y-60778820D01*
X182765047Y-60778820D01*
X182765051Y-60778816D01*
X182861557Y-60589412D01*
X182927246Y-60387243D01*
X182960500Y-60177287D01*
X182960500Y-59964713D01*
X182927246Y-59754757D01*
X182861557Y-59552588D01*
X182765051Y-59363184D01*
X182765049Y-59363181D01*
X182765048Y-59363179D01*
X182640109Y-59191213D01*
X182489786Y-59040890D01*
X182317820Y-58915951D01*
X182128414Y-58819444D01*
X182128413Y-58819443D01*
X182128412Y-58819443D01*
X181926243Y-58753754D01*
X181926241Y-58753753D01*
X181926240Y-58753753D01*
X181764957Y-58728208D01*
X181716287Y-58720500D01*
X181503713Y-58720500D01*
X181455042Y-58728208D01*
X181293760Y-58753753D01*
X181091585Y-58819444D01*
X180902179Y-58915951D01*
X180730213Y-59040890D01*
X180579890Y-59191213D01*
X180454949Y-59363182D01*
X180450484Y-59371946D01*
X180402509Y-59422742D01*
X180334688Y-59439536D01*
X180268553Y-59416998D01*
X180229516Y-59371946D01*
X180225050Y-59363182D01*
X180100109Y-59191213D01*
X179949786Y-59040890D01*
X179777820Y-58915951D01*
X179588414Y-58819444D01*
X179588413Y-58819443D01*
X179588412Y-58819443D01*
X179386243Y-58753754D01*
X179386241Y-58753753D01*
X179386240Y-58753753D01*
X179224957Y-58728208D01*
X179176287Y-58720500D01*
X178963713Y-58720500D01*
X178915042Y-58728208D01*
X178753760Y-58753753D01*
X178551585Y-58819444D01*
X178362179Y-58915951D01*
X178190213Y-59040890D01*
X178039890Y-59191213D01*
X177914949Y-59363182D01*
X177910484Y-59371946D01*
X177862509Y-59422742D01*
X177794688Y-59439536D01*
X177728553Y-59416998D01*
X177689516Y-59371946D01*
X177685050Y-59363182D01*
X177560109Y-59191213D01*
X177409786Y-59040890D01*
X177237820Y-58915951D01*
X177048414Y-58819444D01*
X177048413Y-58819443D01*
X177048412Y-58819443D01*
X176846243Y-58753754D01*
X176846241Y-58753753D01*
X176846240Y-58753753D01*
X176684957Y-58728208D01*
X176636287Y-58720500D01*
X176423713Y-58720500D01*
X176375042Y-58728208D01*
X176213760Y-58753753D01*
X176011585Y-58819444D01*
X175822179Y-58915951D01*
X175650213Y-59040890D01*
X175499890Y-59191213D01*
X175374949Y-59363182D01*
X175370484Y-59371946D01*
X175322509Y-59422742D01*
X175254688Y-59439536D01*
X175188553Y-59416998D01*
X175149516Y-59371946D01*
X175145050Y-59363182D01*
X175020109Y-59191213D01*
X174869786Y-59040890D01*
X174697820Y-58915951D01*
X174508414Y-58819444D01*
X174508413Y-58819443D01*
X174508412Y-58819443D01*
X174306243Y-58753754D01*
X174306241Y-58753753D01*
X174306240Y-58753753D01*
X174144957Y-58728208D01*
X174096287Y-58720500D01*
X173883713Y-58720500D01*
X173835042Y-58728208D01*
X173673760Y-58753753D01*
X173471585Y-58819444D01*
X173282179Y-58915951D01*
X173110213Y-59040890D01*
X172959890Y-59191213D01*
X172834949Y-59363182D01*
X172830484Y-59371946D01*
X172782509Y-59422742D01*
X172714688Y-59439536D01*
X172648553Y-59416998D01*
X172609516Y-59371946D01*
X172605050Y-59363182D01*
X172480109Y-59191213D01*
X172329786Y-59040890D01*
X172157820Y-58915951D01*
X171968414Y-58819444D01*
X171968413Y-58819443D01*
X171968412Y-58819443D01*
X171766243Y-58753754D01*
X171766241Y-58753753D01*
X171766240Y-58753753D01*
X171604957Y-58728208D01*
X171556287Y-58720500D01*
X171343713Y-58720500D01*
X171295042Y-58728208D01*
X171133760Y-58753753D01*
X170931585Y-58819444D01*
X170742179Y-58915951D01*
X170570213Y-59040890D01*
X170419890Y-59191213D01*
X170294949Y-59363182D01*
X170290484Y-59371946D01*
X170242509Y-59422742D01*
X170174688Y-59439536D01*
X170108553Y-59416998D01*
X170069516Y-59371946D01*
X170065050Y-59363182D01*
X169940109Y-59191213D01*
X169789786Y-59040890D01*
X169617820Y-58915951D01*
X169428414Y-58819444D01*
X169428413Y-58819443D01*
X169428412Y-58819443D01*
X169226243Y-58753754D01*
X169226241Y-58753753D01*
X169226240Y-58753753D01*
X169064957Y-58728208D01*
X169016287Y-58720500D01*
X168803713Y-58720500D01*
X168755042Y-58728208D01*
X168593760Y-58753753D01*
X168391585Y-58819444D01*
X168202179Y-58915951D01*
X168030213Y-59040890D01*
X167879890Y-59191213D01*
X167754949Y-59363182D01*
X167750484Y-59371946D01*
X167702509Y-59422742D01*
X167634688Y-59439536D01*
X167568553Y-59416998D01*
X167529516Y-59371946D01*
X167525050Y-59363182D01*
X167400109Y-59191213D01*
X167249786Y-59040890D01*
X167077820Y-58915951D01*
X166888414Y-58819444D01*
X166888413Y-58819443D01*
X166888412Y-58819443D01*
X166686243Y-58753754D01*
X166686241Y-58753753D01*
X166686240Y-58753753D01*
X166524957Y-58728208D01*
X166476287Y-58720500D01*
X166263713Y-58720500D01*
X166215042Y-58728208D01*
X166053760Y-58753753D01*
X165851585Y-58819444D01*
X165662179Y-58915951D01*
X165490215Y-59040889D01*
X165376673Y-59154431D01*
X165315350Y-59187915D01*
X165245658Y-59182931D01*
X165189725Y-59141059D01*
X165172810Y-59110082D01*
X165123797Y-58978671D01*
X165123793Y-58978664D01*
X165037547Y-58863455D01*
X165037544Y-58863452D01*
X164922335Y-58777206D01*
X164922328Y-58777202D01*
X164787482Y-58726908D01*
X164787483Y-58726908D01*
X164727883Y-58720501D01*
X164727881Y-58720500D01*
X164727873Y-58720500D01*
X164727864Y-58720500D01*
X162932129Y-58720500D01*
X162932123Y-58720501D01*
X162872516Y-58726908D01*
X162737671Y-58777202D01*
X162737664Y-58777206D01*
X162622455Y-58863452D01*
X162622452Y-58863455D01*
X162536206Y-58978664D01*
X162536202Y-58978671D01*
X162485908Y-59113517D01*
X162479501Y-59173116D01*
X162479500Y-59173135D01*
X162479500Y-60968870D01*
X162479501Y-60968876D01*
X162485908Y-61028483D01*
X162536202Y-61163328D01*
X162536206Y-61163335D01*
X162622452Y-61278544D01*
X162622455Y-61278547D01*
X162737664Y-61364793D01*
X162737671Y-61364797D01*
X162773398Y-61378122D01*
X162872517Y-61415091D01*
X162932127Y-61421500D01*
X163053100Y-61421499D01*
X163120139Y-61441183D01*
X163165894Y-61493987D01*
X163177100Y-61545499D01*
X163177100Y-66066740D01*
X163157415Y-66133779D01*
X163121992Y-66169841D01*
X163101998Y-66183201D01*
X163035321Y-66204080D01*
X163033106Y-66204100D01*
X155269657Y-66204100D01*
X155202618Y-66184415D01*
X155200766Y-66183202D01*
X155065185Y-66092609D01*
X155065172Y-66092602D01*
X154919501Y-66032264D01*
X154919489Y-66032261D01*
X154764845Y-66001500D01*
X154764842Y-66001500D01*
X154607158Y-66001500D01*
X154607155Y-66001500D01*
X154452510Y-66032261D01*
X154452498Y-66032264D01*
X154306827Y-66092602D01*
X154306814Y-66092609D01*
X154175711Y-66180210D01*
X154175707Y-66180213D01*
X154064213Y-66291707D01*
X154064210Y-66291711D01*
X153976609Y-66422814D01*
X153976602Y-66422827D01*
X153916264Y-66568498D01*
X153916261Y-66568510D01*
X153885500Y-66723153D01*
X152806907Y-66723153D01*
X152806907Y-58474156D01*
X152826592Y-58407117D01*
X152879396Y-58361362D01*
X152930907Y-58350156D01*
X190383500Y-58350156D01*
X190450539Y-58369841D01*
G37*
%TD.AperFunction*%
%TD*%
M02*
