%TF.GenerationSoftware,KiCad,Pcbnew,10.0.0*%
%TF.CreationDate,2026-04-24T17:54:15-04:00*%
%TF.ProjectId,Standalone DRV8825,5374616e-6461-46c6-9f6e-652044525638,rev?*%
%TF.SameCoordinates,Original*%
%TF.FileFunction,Copper,L1,Top*%
%TF.FilePolarity,Positive*%
%FSLAX46Y46*%
G04 Gerber Fmt 4.6, Leading zero omitted, Abs format (unit mm)*
G04 Created by KiCad (PCBNEW 10.0.0) date 2026-04-24 17:54:15*
%MOMM*%
%LPD*%
G01*
G04 APERTURE LIST*
G04 Aperture macros list*
%AMRoundRect*
0 Rectangle with rounded corners*
0 $1 Rounding radius*
0 $2 $3 $4 $5 $6 $7 $8 $9 X,Y pos of 4 corners*
0 Add a 4 corners polygon primitive as box body*
4,1,4,$2,$3,$4,$5,$6,$7,$8,$9,$2,$3,0*
0 Add four circle primitives for the rounded corners*
1,1,$1+$1,$2,$3*
1,1,$1+$1,$4,$5*
1,1,$1+$1,$6,$7*
1,1,$1+$1,$8,$9*
0 Add four rect primitives between the rounded corners*
20,1,$1+$1,$2,$3,$4,$5,0*
20,1,$1+$1,$4,$5,$6,$7,0*
20,1,$1+$1,$6,$7,$8,$9,0*
20,1,$1+$1,$8,$9,$2,$3,0*%
G04 Aperture macros list end*
%TA.AperFunction,SMDPad,CuDef*%
%ADD10RoundRect,0.200000X0.275000X-0.200000X0.275000X0.200000X-0.275000X0.200000X-0.275000X-0.200000X0*%
%TD*%
%TA.AperFunction,SMDPad,CuDef*%
%ADD11RoundRect,0.250000X0.650000X-0.325000X0.650000X0.325000X-0.650000X0.325000X-0.650000X-0.325000X0*%
%TD*%
%TA.AperFunction,SMDPad,CuDef*%
%ADD12RoundRect,0.250000X0.250000X0.475000X-0.250000X0.475000X-0.250000X-0.475000X0.250000X-0.475000X0*%
%TD*%
%TA.AperFunction,SMDPad,CuDef*%
%ADD13RoundRect,0.250000X-0.262500X-0.450000X0.262500X-0.450000X0.262500X0.450000X-0.262500X0.450000X0*%
%TD*%
%TA.AperFunction,SMDPad,CuDef*%
%ADD14RoundRect,0.225000X0.250000X-0.225000X0.250000X0.225000X-0.250000X0.225000X-0.250000X-0.225000X0*%
%TD*%
%TA.AperFunction,SMDPad,CuDef*%
%ADD15RoundRect,0.218750X-0.218750X-0.256250X0.218750X-0.256250X0.218750X0.256250X-0.218750X0.256250X0*%
%TD*%
%TA.AperFunction,ComponentPad*%
%ADD16R,1.700000X1.700000*%
%TD*%
%TA.AperFunction,ComponentPad*%
%ADD17C,1.700000*%
%TD*%
%TA.AperFunction,SMDPad,CuDef*%
%ADD18R,1.270000X0.635000*%
%TD*%
%TA.AperFunction,SMDPad,CuDef*%
%ADD19R,1.600000X0.300000*%
%TD*%
%TA.AperFunction,SMDPad,CuDef*%
%ADD20R,3.400000X9.700000*%
%TD*%
%TA.AperFunction,ComponentPad*%
%ADD21C,0.500000*%
%TD*%
%TA.AperFunction,SMDPad,CuDef*%
%ADD22R,1.190000X3.300000*%
%TD*%
%TA.AperFunction,SMDPad,CuDef*%
%ADD23RoundRect,0.225000X-0.250000X0.225000X-0.250000X-0.225000X0.250000X-0.225000X0.250000X0.225000X0*%
%TD*%
%TA.AperFunction,SMDPad,CuDef*%
%ADD24RoundRect,0.200000X-0.275000X0.200000X-0.275000X-0.200000X0.275000X-0.200000X0.275000X0.200000X0*%
%TD*%
%TA.AperFunction,ViaPad*%
%ADD25C,0.600000*%
%TD*%
%TA.AperFunction,Conductor*%
%ADD26C,0.304800*%
%TD*%
%TA.AperFunction,Conductor*%
%ADD27C,1.000000*%
%TD*%
G04 APERTURE END LIST*
D10*
%TO.P,R44,1*%
%TO.N,Net-(J9-Pad7)*%
X163322000Y-70675000D03*
%TO.P,R44,2*%
%TO.N,RESET*%
X163322000Y-69025000D03*
%TD*%
D11*
%TO.P,C2,1*%
%TO.N,+12V*%
X180594000Y-66245000D03*
%TO.P,C2,2*%
%TO.N,GND*%
X180594000Y-63295000D03*
%TD*%
D12*
%TO.P,C1,1*%
%TO.N,+3V3*%
X165542000Y-65278000D03*
%TO.P,C1,2*%
%TO.N,GND*%
X163642000Y-65278000D03*
%TD*%
D13*
%TO.P,R2,1*%
%TO.N,Net-(U5-ISENB)*%
X180697500Y-68580000D03*
%TO.P,R2,2*%
%TO.N,GND*%
X182522500Y-68580000D03*
%TD*%
D14*
%TO.P,C57,1*%
%TO.N,Net-(U5-VCP)*%
X179832000Y-74435000D03*
%TO.P,C57,2*%
%TO.N,+12V*%
X179832000Y-72885000D03*
%TD*%
D15*
%TO.P,D1,1,K_1*%
%TO.N,GND*%
X186156500Y-59690000D03*
%TO.P,D1,2,A_2*%
%TO.N,Net-(D1-A)*%
X187731500Y-59690000D03*
%TD*%
D10*
%TO.P,R4,1*%
%TO.N,Net-(JP1-B)*%
X187706000Y-62801000D03*
%TO.P,R4,2*%
%TO.N,Net-(D1-A)*%
X187706000Y-61151000D03*
%TD*%
D16*
%TO.P,J10,1*%
%TO.N,Net-(U5-DIR)*%
X163830000Y-60071000D03*
D17*
%TO.P,J10,2*%
%TO.N,Net-(U5-STEP)*%
X166370000Y-60071000D03*
%TO.P,J10,3*%
%TO.N,SLP*%
X168910000Y-60071000D03*
%TO.P,J10,4*%
%TO.N,RESET*%
X171450000Y-60071000D03*
%TO.P,J10,5*%
%TO.N,Net-(U5-MODE2)*%
X173990000Y-60071000D03*
%TO.P,J10,6*%
%TO.N,Net-(U5-MODE1)*%
X176530000Y-60071000D03*
%TO.P,J10,7*%
%TO.N,Net-(U5-MODE0)*%
X179070000Y-60071000D03*
%TO.P,J10,8*%
%TO.N,Net-(U5-NENBL)*%
X181610000Y-60071000D03*
%TD*%
D10*
%TO.P,R40,1*%
%TO.N,Net-(U5-NFAULT)*%
X165100000Y-74231000D03*
%TO.P,R40,2*%
%TO.N,Net-(J9-Pad7)*%
X165100000Y-72581000D03*
%TD*%
D18*
%TO.P,JP1,1,A_1*%
%TO.N,+12V*%
X187706000Y-65074800D03*
%TO.P,JP1,2,B_2*%
%TO.N,Net-(JP1-B)*%
X187706000Y-64262000D03*
%TD*%
D19*
%TO.P,U5,1,CP1_1*%
%TO.N,Net-(U5-CP1)*%
X175042000Y-74299000D03*
%TO.P,U5,2,CP2_2*%
%TO.N,Net-(U5-CP2)*%
X175042000Y-73649000D03*
%TO.P,U5,3,VCP_3*%
%TO.N,Net-(U5-VCP)*%
X175042000Y-72999000D03*
%TO.P,U5,4,VMA_4*%
%TO.N,+12V*%
X175042000Y-72349000D03*
%TO.P,U5,5,AOUT1_5*%
%TO.N,/A1*%
X175042000Y-71699000D03*
%TO.P,U5,6,ISENA_6*%
%TO.N,Net-(U5-ISENA)*%
X175042000Y-71049000D03*
%TO.P,U5,7,AOUT2_7*%
%TO.N,/A2*%
X175042000Y-70399000D03*
%TO.P,U5,8,BOUT2_8*%
%TO.N,/B2*%
X175042000Y-69749000D03*
%TO.P,U5,9,ISENB_9*%
%TO.N,Net-(U5-ISENB)*%
X175042000Y-69099000D03*
%TO.P,U5,10,BOUT1_10*%
%TO.N,/B1*%
X175042000Y-68449000D03*
%TO.P,U5,11,VMB_11*%
%TO.N,+12V*%
X175042000Y-67799000D03*
%TO.P,U5,12,AVREF_12*%
%TO.N,Net-(U5-AVREF)*%
X175042000Y-67149000D03*
%TO.P,U5,13,BVREF_13*%
X175042000Y-66499000D03*
%TO.P,U5,14,GND_14*%
%TO.N,GND*%
X175042000Y-65849000D03*
%TO.P,U5,15,V3P3OUT_15*%
%TO.N,+3V3*%
X169442000Y-65849000D03*
%TO.P,U5,16,NRESET_16*%
%TO.N,RESET*%
X169442000Y-66499000D03*
%TO.P,U5,17,NSLEEP_17*%
%TO.N,SLP*%
X169442000Y-67149000D03*
%TO.P,U5,18,NFAULT_18*%
%TO.N,Net-(U5-NFAULT)*%
X169442000Y-67799000D03*
%TO.P,U5,19,DECAY_19*%
%TO.N,unconnected-(U5-DECAY-Pad19)*%
X169442000Y-68449000D03*
%TO.P,U5,20,DIR_20*%
%TO.N,Net-(U5-DIR)*%
X169442000Y-69099000D03*
%TO.P,U5,21,NENBL_21*%
%TO.N,Net-(U5-NENBL)*%
X169442000Y-69749000D03*
%TO.P,U5,22,STEP_22*%
%TO.N,Net-(U5-STEP)*%
X169442000Y-70399000D03*
%TO.P,U5,23,NC_23*%
%TO.N,unconnected-(U5-NC-Pad23)*%
X169442000Y-71049000D03*
%TO.P,U5,24,MODE0_24*%
%TO.N,Net-(U5-MODE0)*%
X169442000Y-71699000D03*
%TO.P,U5,25,MODE1_25*%
%TO.N,Net-(U5-MODE1)*%
X169442000Y-72349000D03*
%TO.P,U5,26,MODE2_26*%
%TO.N,Net-(U5-MODE2)*%
X169442000Y-72999000D03*
%TO.P,U5,27,NHOME_27*%
%TO.N,unconnected-(U5-NHOME-Pad27)*%
X169442000Y-73649000D03*
%TO.P,U5,28,GND_28*%
%TO.N,GND*%
X169442000Y-74299000D03*
D20*
%TO.P,U5,29,EPAD_29*%
X172242000Y-70074000D03*
D21*
%TO.P,U5,30*%
%TO.N,N/C*%
X172242000Y-70074000D03*
%TO.P,U5,31*%
X172242000Y-71374000D03*
%TO.P,U5,32*%
X172242000Y-72674000D03*
%TO.P,U5,33*%
X172242000Y-73974000D03*
%TO.P,U5,34*%
X172242000Y-68774000D03*
%TO.P,U5,35*%
X172242000Y-67474000D03*
%TO.P,U5,36*%
X172242000Y-66174000D03*
%TO.P,U5,37*%
X173542000Y-73974000D03*
%TO.P,U5,38*%
X170942000Y-73974000D03*
%TO.P,U5,39*%
X173542000Y-72674000D03*
%TO.P,U5,40*%
X170942000Y-72674000D03*
%TO.P,U5,41*%
X170942000Y-71374000D03*
%TO.P,U5,42*%
X173542000Y-71374000D03*
%TO.P,U5,43*%
X173542000Y-70074000D03*
%TO.P,U5,44*%
X170942000Y-70074000D03*
%TO.P,U5,45*%
X173542000Y-68774000D03*
%TO.P,U5,46*%
X170942000Y-68774000D03*
%TO.P,U5,47*%
X173542000Y-67474000D03*
%TO.P,U5,48*%
X170942000Y-67474000D03*
%TO.P,U5,49*%
X173542000Y-66174000D03*
%TO.P,U5,50*%
X170942000Y-66174000D03*
%TD*%
D22*
%TO.P,VR1,1*%
%TO.N,GND*%
X158496000Y-66650000D03*
%TO.P,VR1,2*%
%TO.N,Net-(U5-AVREF)*%
X155956000Y-73050000D03*
%TO.P,VR1,3*%
%TO.N,+3V3*%
X153416000Y-66650000D03*
%TD*%
D16*
%TO.P,J9,1*%
%TO.N,+12V*%
X181610000Y-77851000D03*
D17*
%TO.P,J9,2*%
%TO.N,GND*%
X179070000Y-77851000D03*
%TO.P,J9,3*%
%TO.N,/B2*%
X176530000Y-77851000D03*
%TO.P,J9,4*%
%TO.N,/B1*%
X173990000Y-77851000D03*
%TO.P,J9,5*%
%TO.N,/A1*%
X171450000Y-77851000D03*
%TO.P,J9,6*%
%TO.N,/A2*%
X168910000Y-77851000D03*
%TO.P,J9,7*%
%TO.N,Net-(J9-Pad7)*%
X166370000Y-77851000D03*
%TO.P,J9,8*%
%TO.N,GND*%
X163830000Y-77851000D03*
%TD*%
D23*
%TO.P,C58,1*%
%TO.N,+12V*%
X184658000Y-72885000D03*
%TO.P,C58,2*%
%TO.N,GND*%
X184658000Y-74435000D03*
%TD*%
D14*
%TO.P,C60,1*%
%TO.N,+12V*%
X177546000Y-66307000D03*
%TO.P,C60,2*%
%TO.N,GND*%
X177546000Y-64757000D03*
%TD*%
D24*
%TO.P,R1,1*%
%TO.N,+12V*%
X181864000Y-72835000D03*
%TO.P,R1,2*%
%TO.N,Net-(U5-VCP)*%
X181864000Y-74485000D03*
%TD*%
D14*
%TO.P,C56,1*%
%TO.N,Net-(U5-CP1)*%
X177800000Y-75197000D03*
%TO.P,C56,2*%
%TO.N,Net-(U5-CP2)*%
X177800000Y-73647000D03*
%TD*%
D10*
%TO.P,R43,1*%
%TO.N,Net-(J9-Pad7)*%
X165100000Y-70675000D03*
%TO.P,R43,2*%
%TO.N,SLP*%
X165100000Y-69025000D03*
%TD*%
D13*
%TO.P,R3,1*%
%TO.N,Net-(U5-ISENA)*%
X180697500Y-70866000D03*
%TO.P,R3,2*%
%TO.N,GND*%
X182522500Y-70866000D03*
%TD*%
D25*
%TO.N,GND*%
X163576000Y-67818000D03*
X185674000Y-70358000D03*
X185674000Y-68326000D03*
X168402000Y-75692000D03*
X185674000Y-69342000D03*
X184912000Y-67564000D03*
X162704400Y-67818000D03*
X179832000Y-75692000D03*
X184658000Y-76200000D03*
X185674000Y-71374000D03*
X183896000Y-67564000D03*
%TO.N,+3V3*%
X163534449Y-66857000D03*
X154686000Y-66802000D03*
%TO.N,Net-(U5-DIR)*%
X167363711Y-69593617D03*
%TO.N,Net-(U5-STEP)*%
X167386000Y-68580000D03*
%TO.N,SLP*%
X166243000Y-67437000D03*
X166370000Y-61722000D03*
%TO.N,Net-(U5-NENBL)*%
X168148000Y-69751400D03*
%TO.N,/A1*%
X178816000Y-71701400D03*
X178816000Y-71701400D03*
X176784000Y-71701400D03*
%TO.N,/A2*%
X177292000Y-70358000D03*
X176530000Y-70358000D03*
%TO.N,/B2*%
X179324000Y-69850000D03*
X179324000Y-69850000D03*
X178596800Y-69850000D03*
%TO.N,/B1*%
X177546000Y-68435600D03*
X176784000Y-68435600D03*
%TO.N,Net-(U5-AVREF)*%
X168148000Y-62342800D03*
X169620968Y-64660399D03*
%TD*%
%TO.N,Net-(J9-Pad7)*%
D26*
X163322000Y-70675000D02*
X165100000Y-70675000D01*
X165100000Y-70675000D02*
X165100000Y-72581000D01*
%TO.N,RESET*%
X169442000Y-66499000D02*
X165848000Y-66499000D01*
X165848000Y-66499000D02*
X163322000Y-69025000D01*
%TO.N,+12V*%
D27*
X187452000Y-76454000D02*
X187452000Y-74930000D01*
X187452000Y-74930000D02*
X187452000Y-68326000D01*
X187452000Y-67056000D02*
X186641000Y-66245000D01*
X187501300Y-65279500D02*
X187706000Y-65279500D01*
D26*
X175042000Y-67799000D02*
X176054000Y-67799000D01*
D27*
X180594000Y-66245000D02*
X177608000Y-66245000D01*
X184658000Y-72885000D02*
X181914000Y-72885000D01*
X181914000Y-72885000D02*
X181864000Y-72835000D01*
X187452000Y-68326000D02*
X187452000Y-67056000D01*
D26*
X177081502Y-72353800D02*
X177095503Y-72339800D01*
D27*
X187452000Y-67056000D02*
X187452000Y-65328800D01*
X186055000Y-77851000D02*
X187452000Y-76454000D01*
D26*
X175042000Y-72349000D02*
X175046800Y-72353800D01*
X178504498Y-72339800D02*
X178518497Y-72353800D01*
D27*
X186641000Y-66245000D02*
X180594000Y-66245000D01*
X181864000Y-72835000D02*
X179882000Y-72835000D01*
X187452000Y-74930000D02*
X185407000Y-72885000D01*
D26*
X175046800Y-72353800D02*
X177081502Y-72353800D01*
D27*
X187452000Y-65328800D02*
X187501300Y-65279500D01*
D26*
X179300800Y-72353800D02*
X179832000Y-72885000D01*
D27*
X177608000Y-66245000D02*
X177546000Y-66307000D01*
X181610000Y-77851000D02*
X186055000Y-77851000D01*
X185407000Y-72885000D02*
X184658000Y-72885000D01*
D26*
X176054000Y-67799000D02*
X177546000Y-66307000D01*
X178518497Y-72353800D02*
X179300800Y-72353800D01*
D27*
X179882000Y-72835000D02*
X179832000Y-72885000D01*
D26*
X177095503Y-72339800D02*
X178504498Y-72339800D01*
%TO.N,+3V3*%
X154686000Y-66802000D02*
X153568000Y-66802000D01*
X166113000Y-65849000D02*
X165542000Y-65278000D01*
X163963000Y-66857000D02*
X163534449Y-66857000D01*
X165542000Y-65278000D02*
X163963000Y-66857000D01*
X169442000Y-65849000D02*
X166113000Y-65849000D01*
X153568000Y-66802000D02*
X153416000Y-66650000D01*
%TO.N,Net-(U5-ISENB)*%
X180697500Y-68580000D02*
X180189500Y-69088000D01*
X180189500Y-69088000D02*
X175053000Y-69088000D01*
X175053000Y-69088000D02*
X175042000Y-69099000D01*
%TO.N,Net-(U5-VCP)*%
X175042000Y-72999000D02*
X177150198Y-72999000D01*
X181864000Y-74485000D02*
X179882000Y-74485000D01*
X177304598Y-72844600D02*
X178295402Y-72844600D01*
X178295402Y-72844600D02*
X179832000Y-74381198D01*
X179882000Y-74485000D02*
X179832000Y-74435000D01*
X177150198Y-72999000D02*
X177304598Y-72844600D01*
X179832000Y-74381198D02*
X179832000Y-74435000D01*
%TO.N,Net-(D1-A)*%
X187706000Y-59715500D02*
X187731500Y-59690000D01*
X187706000Y-61151000D02*
X187706000Y-59715500D01*
%TO.N,Net-(JP1-B)*%
X187706000Y-64262000D02*
X187706000Y-62801000D01*
%TO.N,Net-(U5-DIR)*%
X167495600Y-69481167D02*
X167877767Y-69099000D01*
X167877767Y-69099000D02*
X169442000Y-69099000D01*
X167495600Y-69497400D02*
X167495600Y-69481167D01*
X167363711Y-69593617D02*
X167399383Y-69593617D01*
X167399383Y-69593617D02*
X167495600Y-69497400D01*
%TO.N,Net-(U5-STEP)*%
X166711311Y-69254689D02*
X167386000Y-68580000D01*
X168337200Y-70399000D02*
X168124200Y-70612000D01*
X168124200Y-70612000D02*
X167132000Y-70612000D01*
X167132000Y-70612000D02*
X166711311Y-70191311D01*
X166711311Y-70191311D02*
X166711311Y-69254689D01*
X169442000Y-70399000D02*
X168337200Y-70399000D01*
%TO.N,SLP*%
X165100000Y-68580000D02*
X165100000Y-69025000D01*
X169442000Y-67149000D02*
X166531000Y-67149000D01*
X166370000Y-61722000D02*
X167259000Y-61722000D01*
X167259000Y-61722000D02*
X168910000Y-60071000D01*
X166531000Y-67149000D02*
X166243000Y-67437000D01*
X166243000Y-67437000D02*
X165100000Y-68580000D01*
%TO.N,Net-(U5-MODE2)*%
X162653010Y-62995200D02*
X171065800Y-62995200D01*
X171065800Y-62995200D02*
X173990000Y-60071000D01*
X161039200Y-74171200D02*
X161039200Y-64609009D01*
X161039200Y-64609009D02*
X162653010Y-62995200D01*
X169442000Y-72999000D02*
X168301000Y-72999000D01*
X168301000Y-72999000D02*
X167894000Y-73406000D01*
X167894000Y-73406000D02*
X167894000Y-75184000D01*
X163064800Y-76196800D02*
X161039200Y-74171200D01*
X167894000Y-75184000D02*
X166881200Y-76196800D01*
X166881200Y-76196800D02*
X163064800Y-76196800D01*
%TO.N,Net-(U5-MODE1)*%
X167386000Y-72898000D02*
X167386000Y-74930000D01*
X169442000Y-72349000D02*
X167935000Y-72349000D01*
X167935000Y-72349000D02*
X167386000Y-72898000D01*
X173101000Y-63500000D02*
X176530000Y-60071000D01*
X167386000Y-74930000D02*
X166624000Y-75692000D01*
X161544000Y-73914000D02*
X161544000Y-64818105D01*
X163322000Y-75692000D02*
X161544000Y-73914000D01*
X161544000Y-64818105D02*
X162862105Y-63500000D01*
X162862105Y-63500000D02*
X173101000Y-63500000D01*
X166624000Y-75692000D02*
X163322000Y-75692000D01*
%TO.N,Net-(U5-MODE0)*%
X162052000Y-65024000D02*
X163068000Y-64008000D01*
X166878000Y-72644000D02*
X166878000Y-74422000D01*
X167823000Y-71699000D02*
X166878000Y-72644000D01*
X166878000Y-74422000D02*
X166116000Y-75184000D01*
X166116000Y-75184000D02*
X163576000Y-75184000D01*
X162052000Y-73660000D02*
X162052000Y-65024000D01*
X169442000Y-71699000D02*
X167823000Y-71699000D01*
X163576000Y-75184000D02*
X162052000Y-73660000D01*
X163068000Y-64008000D02*
X175133000Y-64008000D01*
X175133000Y-64008000D02*
X179070000Y-60071000D01*
%TO.N,Net-(U5-NENBL)*%
X168148000Y-69751400D02*
X168150400Y-69749000D01*
X168150400Y-69749000D02*
X169442000Y-69749000D01*
%TO.N,Net-(U5-NFAULT)*%
X167151000Y-67799000D02*
X166116000Y-68834000D01*
X169442000Y-67799000D02*
X167151000Y-67799000D01*
X166116000Y-68834000D02*
X166116000Y-73215000D01*
X166116000Y-73215000D02*
X165100000Y-74231000D01*
%TO.N,Net-(U5-CP1)*%
X175042000Y-74299000D02*
X176902000Y-74299000D01*
X176902000Y-74299000D02*
X177800000Y-75197000D01*
%TO.N,Net-(U5-CP2)*%
X177798000Y-73649000D02*
X177800000Y-73647000D01*
X175042000Y-73649000D02*
X177798000Y-73649000D01*
%TO.N,/A1*%
X175042000Y-71699000D02*
X176781600Y-71699000D01*
X176781600Y-71699000D02*
X176784000Y-71701400D01*
X176784000Y-71701400D02*
X178816000Y-71701400D01*
%TO.N,Net-(U5-ISENA)*%
X180514500Y-71049000D02*
X175042000Y-71049000D01*
X180697500Y-70866000D02*
X180514500Y-71049000D01*
%TO.N,/A2*%
X175042000Y-70399000D02*
X176489000Y-70399000D01*
X176489000Y-70399000D02*
X176530000Y-70358000D01*
%TO.N,/B2*%
X175042000Y-69749000D02*
X176146800Y-69749000D01*
X178342800Y-69596000D02*
X178596800Y-69850000D01*
X176299800Y-69596000D02*
X178342800Y-69596000D01*
X176146800Y-69749000D02*
X176299800Y-69596000D01*
X178596800Y-69850000D02*
X179324000Y-69850000D01*
%TO.N,/B1*%
X175042000Y-68449000D02*
X176770600Y-68449000D01*
X176770600Y-68449000D02*
X176784000Y-68435600D01*
%TO.N,Net-(U5-AVREF)*%
X162443916Y-62490400D02*
X168000400Y-62490400D01*
X160528000Y-64406313D02*
X162443916Y-62490400D01*
X176325000Y-66499000D02*
X176530000Y-66294000D01*
X175042000Y-66499000D02*
X176325000Y-66499000D01*
X155956000Y-73050000D02*
X157074000Y-73050000D01*
X157074000Y-73050000D02*
X160528000Y-69596000D01*
X176530000Y-66548000D02*
X175929000Y-67149000D01*
X168000400Y-62490400D02*
X168148000Y-62342800D01*
X176530000Y-65278000D02*
X176530000Y-66294000D01*
X160528000Y-69596000D02*
X160528000Y-64406313D01*
X169620968Y-64660399D02*
X175912399Y-64660399D01*
X176530000Y-66294000D02*
X176530000Y-66548000D01*
X175912399Y-64660399D02*
X176530000Y-65278000D01*
X175929000Y-67149000D02*
X175042000Y-67149000D01*
%TD*%
%TA.AperFunction,Conductor*%
%TO.N,GND*%
G36*
X183647079Y-73905185D02*
G01*
X183692834Y-73957989D01*
X183702778Y-74027147D01*
X183697747Y-74048502D01*
X183693143Y-74062393D01*
X183683000Y-74161677D01*
X183683000Y-74185000D01*
X184534000Y-74185000D01*
X184601039Y-74204685D01*
X184646794Y-74257489D01*
X184658000Y-74309000D01*
X184658000Y-74435000D01*
X184784000Y-74435000D01*
X184851039Y-74454685D01*
X184896794Y-74507489D01*
X184908000Y-74559000D01*
X184908000Y-75384999D01*
X184956308Y-75384999D01*
X184956322Y-75384998D01*
X185055607Y-75374855D01*
X185216481Y-75321547D01*
X185216492Y-75321542D01*
X185360728Y-75232575D01*
X185360732Y-75232572D01*
X185480572Y-75112732D01*
X185480575Y-75112728D01*
X185569542Y-74968492D01*
X185569547Y-74968481D01*
X185622854Y-74807609D01*
X185623384Y-74802429D01*
X185649777Y-74737736D01*
X185706955Y-74697582D01*
X185776766Y-74694715D01*
X185834424Y-74727344D01*
X186415181Y-75308101D01*
X186448666Y-75369424D01*
X186451500Y-75395782D01*
X186451500Y-75988217D01*
X186431815Y-76055256D01*
X186415181Y-76075898D01*
X185676899Y-76814181D01*
X185615576Y-76847666D01*
X185589218Y-76850500D01*
X183024141Y-76850500D01*
X182957102Y-76830815D01*
X182911347Y-76778011D01*
X182907969Y-76769859D01*
X182903796Y-76758669D01*
X182903793Y-76758665D01*
X182903793Y-76758664D01*
X182817547Y-76643455D01*
X182817544Y-76643452D01*
X182702335Y-76557206D01*
X182702328Y-76557202D01*
X182567482Y-76506908D01*
X182567483Y-76506908D01*
X182507883Y-76500501D01*
X182507881Y-76500500D01*
X182507873Y-76500500D01*
X182507864Y-76500500D01*
X180712129Y-76500500D01*
X180712123Y-76500501D01*
X180652516Y-76506908D01*
X180517671Y-76557202D01*
X180517664Y-76557206D01*
X180402455Y-76643452D01*
X180402452Y-76643455D01*
X180316206Y-76758664D01*
X180316204Y-76758669D01*
X180265908Y-76893517D01*
X180259501Y-76953116D01*
X180259500Y-76953135D01*
X180259500Y-76963690D01*
X180239815Y-77030729D01*
X180223181Y-77051371D01*
X179552962Y-77721590D01*
X179535925Y-77658007D01*
X179470099Y-77543993D01*
X179377007Y-77450901D01*
X179262993Y-77385075D01*
X179199409Y-77368037D01*
X179831716Y-76735728D01*
X179777550Y-76696375D01*
X179588217Y-76599904D01*
X179386129Y-76534242D01*
X179176246Y-76501000D01*
X178963754Y-76501000D01*
X178753872Y-76534242D01*
X178753869Y-76534242D01*
X178551782Y-76599904D01*
X178362439Y-76696380D01*
X178308282Y-76735727D01*
X178308282Y-76735728D01*
X178940591Y-77368037D01*
X178877007Y-77385075D01*
X178762993Y-77450901D01*
X178669901Y-77543993D01*
X178604075Y-77658007D01*
X178587037Y-77721591D01*
X177954728Y-77089282D01*
X177954727Y-77089282D01*
X177915380Y-77143440D01*
X177915376Y-77143446D01*
X177910760Y-77152505D01*
X177862781Y-77203297D01*
X177794959Y-77220087D01*
X177728826Y-77197543D01*
X177689794Y-77152493D01*
X177685051Y-77143184D01*
X177685049Y-77143181D01*
X177685048Y-77143179D01*
X177560109Y-76971213D01*
X177409786Y-76820890D01*
X177237820Y-76695951D01*
X177048414Y-76599444D01*
X177048413Y-76599443D01*
X177048412Y-76599443D01*
X176846243Y-76533754D01*
X176846241Y-76533753D01*
X176846240Y-76533753D01*
X176684957Y-76508208D01*
X176636287Y-76500500D01*
X176423713Y-76500500D01*
X176375042Y-76508208D01*
X176213760Y-76533753D01*
X176011585Y-76599444D01*
X175822179Y-76695951D01*
X175650213Y-76820890D01*
X175499890Y-76971213D01*
X175374949Y-77143182D01*
X175370484Y-77151946D01*
X175322509Y-77202742D01*
X175254688Y-77219536D01*
X175188553Y-77196998D01*
X175149516Y-77151946D01*
X175145050Y-77143182D01*
X175020109Y-76971213D01*
X174869786Y-76820890D01*
X174697820Y-76695951D01*
X174508414Y-76599444D01*
X174508413Y-76599443D01*
X174508412Y-76599443D01*
X174306243Y-76533754D01*
X174306241Y-76533753D01*
X174306240Y-76533753D01*
X174144957Y-76508208D01*
X174096287Y-76500500D01*
X173883713Y-76500500D01*
X173835042Y-76508208D01*
X173673760Y-76533753D01*
X173471585Y-76599444D01*
X173282179Y-76695951D01*
X173110213Y-76820890D01*
X172959890Y-76971213D01*
X172834949Y-77143182D01*
X172830484Y-77151946D01*
X172782509Y-77202742D01*
X172714688Y-77219536D01*
X172648553Y-77196998D01*
X172609516Y-77151946D01*
X172605050Y-77143182D01*
X172480109Y-76971213D01*
X172329786Y-76820890D01*
X172157820Y-76695951D01*
X171968414Y-76599444D01*
X171968413Y-76599443D01*
X171968412Y-76599443D01*
X171766243Y-76533754D01*
X171766241Y-76533753D01*
X171766240Y-76533753D01*
X171604957Y-76508208D01*
X171556287Y-76500500D01*
X171343713Y-76500500D01*
X171295042Y-76508208D01*
X171133760Y-76533753D01*
X170931585Y-76599444D01*
X170742179Y-76695951D01*
X170570213Y-76820890D01*
X170419890Y-76971213D01*
X170294949Y-77143182D01*
X170290484Y-77151946D01*
X170242509Y-77202742D01*
X170174688Y-77219536D01*
X170108553Y-77196998D01*
X170069516Y-77151946D01*
X170065050Y-77143182D01*
X169940109Y-76971213D01*
X169789786Y-76820890D01*
X169617820Y-76695951D01*
X169428414Y-76599444D01*
X169428413Y-76599443D01*
X169428412Y-76599443D01*
X169226243Y-76533754D01*
X169226241Y-76533753D01*
X169226240Y-76533753D01*
X169064957Y-76508208D01*
X169016287Y-76500500D01*
X168803713Y-76500500D01*
X168755042Y-76508208D01*
X168593760Y-76533753D01*
X168391585Y-76599444D01*
X168202179Y-76695951D01*
X168030213Y-76820890D01*
X167879890Y-76971213D01*
X167754949Y-77143182D01*
X167750484Y-77151946D01*
X167702509Y-77202742D01*
X167634688Y-77219536D01*
X167568553Y-77196998D01*
X167529516Y-77151946D01*
X167525050Y-77143182D01*
X167400109Y-76971213D01*
X167302799Y-76873903D01*
X167269314Y-76812580D01*
X167274298Y-76742888D01*
X167302797Y-76698543D01*
X168401140Y-75600200D01*
X168472592Y-75493264D01*
X168521809Y-75374444D01*
X168532240Y-75322003D01*
X168546900Y-75248305D01*
X168546900Y-75073000D01*
X168566585Y-75005961D01*
X168619389Y-74960206D01*
X168670900Y-74949000D01*
X169292000Y-74949000D01*
X169292000Y-74423499D01*
X169311685Y-74356460D01*
X169364489Y-74310705D01*
X169415997Y-74299499D01*
X169468001Y-74299499D01*
X169535039Y-74319184D01*
X169580794Y-74371988D01*
X169592000Y-74423499D01*
X169592000Y-74949000D01*
X169931582Y-74949000D01*
X169998621Y-74968685D01*
X170044376Y-75021489D01*
X170047764Y-75029667D01*
X170098645Y-75166086D01*
X170098649Y-75166093D01*
X170184809Y-75281187D01*
X170184812Y-75281190D01*
X170299906Y-75367350D01*
X170299913Y-75367354D01*
X170434620Y-75417596D01*
X170434627Y-75417598D01*
X170494155Y-75423999D01*
X170494172Y-75424000D01*
X171992000Y-75424000D01*
X171992000Y-74840569D01*
X172011685Y-74773530D01*
X172064489Y-74727775D01*
X172133647Y-74717831D01*
X172140172Y-74718948D01*
X172168082Y-74724500D01*
X172315918Y-74724500D01*
X172343808Y-74718952D01*
X172413398Y-74725178D01*
X172468576Y-74768040D01*
X172491822Y-74833929D01*
X172492000Y-74840569D01*
X172492000Y-75424000D01*
X173989828Y-75424000D01*
X173989844Y-75423999D01*
X174049372Y-75417598D01*
X174049379Y-75417596D01*
X174184086Y-75367354D01*
X174184093Y-75367350D01*
X174299187Y-75281190D01*
X174299190Y-75281187D01*
X174385350Y-75166093D01*
X174385354Y-75166086D01*
X174436050Y-75030166D01*
X174477921Y-74974232D01*
X174543386Y-74949815D01*
X174552216Y-74949499D01*
X174953413Y-74949499D01*
X174977601Y-74951881D01*
X174977695Y-74951900D01*
X176580197Y-74951900D01*
X176647236Y-74971585D01*
X176667873Y-74988214D01*
X176788182Y-75108522D01*
X176821666Y-75169843D01*
X176824500Y-75196202D01*
X176824500Y-75470336D01*
X176824501Y-75470355D01*
X176834650Y-75569707D01*
X176834651Y-75569710D01*
X176887996Y-75730694D01*
X176888001Y-75730705D01*
X176977029Y-75875040D01*
X176977032Y-75875044D01*
X177096955Y-75994967D01*
X177096959Y-75994970D01*
X177241294Y-76083998D01*
X177241297Y-76083999D01*
X177241303Y-76084003D01*
X177402292Y-76137349D01*
X177501655Y-76147500D01*
X178098344Y-76147499D01*
X178098352Y-76147498D01*
X178098355Y-76147498D01*
X178152760Y-76141940D01*
X178197708Y-76137349D01*
X178358697Y-76084003D01*
X178503044Y-75994968D01*
X178622968Y-75875044D01*
X178712003Y-75730697D01*
X178765349Y-75569708D01*
X178775500Y-75470345D01*
X178775499Y-75171663D01*
X178795183Y-75104626D01*
X178847987Y-75058871D01*
X178917146Y-75048927D01*
X178980701Y-75077952D01*
X179005037Y-75106568D01*
X179009029Y-75113040D01*
X179009032Y-75113044D01*
X179128955Y-75232967D01*
X179128959Y-75232970D01*
X179273294Y-75321998D01*
X179273297Y-75321999D01*
X179273303Y-75322003D01*
X179434292Y-75375349D01*
X179533655Y-75385500D01*
X180130344Y-75385499D01*
X180130352Y-75385498D01*
X180130355Y-75385498D01*
X180193124Y-75379086D01*
X180229708Y-75375349D01*
X180390697Y-75322003D01*
X180535044Y-75232968D01*
X180593793Y-75174219D01*
X180655116Y-75140734D01*
X180681474Y-75137900D01*
X180999881Y-75137900D01*
X181066920Y-75157585D01*
X181087557Y-75174214D01*
X181153815Y-75240472D01*
X181299394Y-75328478D01*
X181461804Y-75379086D01*
X181532384Y-75385500D01*
X181532387Y-75385500D01*
X182195613Y-75385500D01*
X182195616Y-75385500D01*
X182266196Y-75379086D01*
X182428606Y-75328478D01*
X182574185Y-75240472D01*
X182694472Y-75120185D01*
X182782478Y-74974606D01*
X182833086Y-74812196D01*
X182839500Y-74741616D01*
X182839500Y-74708322D01*
X183683001Y-74708322D01*
X183693144Y-74807607D01*
X183746452Y-74968481D01*
X183746457Y-74968492D01*
X183835424Y-75112728D01*
X183835427Y-75112732D01*
X183955267Y-75232572D01*
X183955271Y-75232575D01*
X184099507Y-75321542D01*
X184099518Y-75321547D01*
X184260393Y-75374855D01*
X184359683Y-75384999D01*
X184407999Y-75384998D01*
X184408000Y-75384998D01*
X184408000Y-74685000D01*
X183683001Y-74685000D01*
X183683001Y-74708322D01*
X182839500Y-74708322D01*
X182839500Y-74228384D01*
X182833086Y-74157804D01*
X182798367Y-74046387D01*
X182797218Y-73976529D01*
X182834019Y-73917137D01*
X182897088Y-73887069D01*
X182916754Y-73885500D01*
X183580040Y-73885500D01*
X183647079Y-73905185D01*
G37*
%TD.AperFunction*%
%TA.AperFunction,Conductor*%
G36*
X186242257Y-67265185D02*
G01*
X186262899Y-67281819D01*
X186415181Y-67434101D01*
X186448666Y-67495424D01*
X186451500Y-67521782D01*
X186451500Y-72215217D01*
X186431815Y-72282256D01*
X186379011Y-72328011D01*
X186309853Y-72337955D01*
X186246297Y-72308930D01*
X186239820Y-72302899D01*
X186191210Y-72254290D01*
X186191206Y-72254285D01*
X186191206Y-72254286D01*
X186184139Y-72247219D01*
X186184139Y-72247218D01*
X186044782Y-72107861D01*
X186044781Y-72107860D01*
X186044780Y-72107859D01*
X185880920Y-71998371D01*
X185880907Y-71998364D01*
X185749558Y-71943958D01*
X185749551Y-71943956D01*
X185742207Y-71940914D01*
X185698836Y-71922949D01*
X185602188Y-71903724D01*
X185598030Y-71902897D01*
X185598023Y-71902895D01*
X185505544Y-71884500D01*
X185505541Y-71884500D01*
X184756541Y-71884500D01*
X183537715Y-71884500D01*
X183470676Y-71864815D01*
X183424921Y-71812011D01*
X183414977Y-71742853D01*
X183432176Y-71695403D01*
X183469356Y-71635124D01*
X183469358Y-71635119D01*
X183524505Y-71468697D01*
X183524506Y-71468690D01*
X183534999Y-71365986D01*
X183535000Y-71365973D01*
X183535000Y-71116000D01*
X182646500Y-71116000D01*
X182579461Y-71096315D01*
X182533706Y-71043511D01*
X182522500Y-70992000D01*
X182522500Y-70866000D01*
X182396500Y-70866000D01*
X182329461Y-70846315D01*
X182283706Y-70793511D01*
X182272500Y-70742000D01*
X182272500Y-70616000D01*
X182772500Y-70616000D01*
X183534999Y-70616000D01*
X183534999Y-70366028D01*
X183534998Y-70366013D01*
X183524505Y-70263302D01*
X183469358Y-70096880D01*
X183469356Y-70096875D01*
X183377315Y-69947654D01*
X183253347Y-69823686D01*
X183249024Y-69820268D01*
X183208646Y-69763247D01*
X183205506Y-69693448D01*
X183240600Y-69633032D01*
X183249024Y-69625732D01*
X183253347Y-69622313D01*
X183377315Y-69498345D01*
X183469356Y-69349124D01*
X183469358Y-69349119D01*
X183524505Y-69182697D01*
X183524506Y-69182690D01*
X183534999Y-69079986D01*
X183535000Y-69079973D01*
X183535000Y-68830000D01*
X182772500Y-68830000D01*
X182772500Y-70616000D01*
X182272500Y-70616000D01*
X182272500Y-68704000D01*
X182292185Y-68636961D01*
X182344989Y-68591206D01*
X182396500Y-68580000D01*
X182522500Y-68580000D01*
X182522500Y-68454000D01*
X182542185Y-68386961D01*
X182594989Y-68341206D01*
X182646500Y-68330000D01*
X183534999Y-68330000D01*
X183534999Y-68080028D01*
X183534998Y-68080013D01*
X183524505Y-67977302D01*
X183469358Y-67810880D01*
X183469356Y-67810875D01*
X183377315Y-67661654D01*
X183253345Y-67537684D01*
X183151781Y-67475039D01*
X183105057Y-67423091D01*
X183093834Y-67354128D01*
X183121678Y-67290046D01*
X183179746Y-67251190D01*
X183216878Y-67245500D01*
X186175218Y-67245500D01*
X186242257Y-67265185D01*
G37*
%TD.AperFunction*%
%TA.AperFunction,Conductor*%
G36*
X162910103Y-67365179D02*
G01*
X162916581Y-67371211D01*
X163024156Y-67478786D01*
X163024160Y-67478789D01*
X163155263Y-67566390D01*
X163155276Y-67566397D01*
X163242438Y-67602500D01*
X163300952Y-67626737D01*
X163455602Y-67657499D01*
X163455605Y-67657500D01*
X163466797Y-67657500D01*
X163533836Y-67677185D01*
X163579591Y-67729989D01*
X163589535Y-67799147D01*
X163560510Y-67862703D01*
X163554478Y-67869181D01*
X163335478Y-68088181D01*
X163274155Y-68121666D01*
X163247797Y-68124500D01*
X162990384Y-68124500D01*
X162937449Y-68129310D01*
X162919803Y-68130914D01*
X162865788Y-68147745D01*
X162795928Y-68148895D01*
X162736536Y-68112093D01*
X162706469Y-68049023D01*
X162704900Y-68029359D01*
X162704900Y-67458892D01*
X162724585Y-67391853D01*
X162777389Y-67346098D01*
X162846547Y-67336154D01*
X162910103Y-67365179D01*
G37*
%TD.AperFunction*%
%TA.AperFunction,Conductor*%
G36*
X190450539Y-58369841D02*
G01*
X190496294Y-58422645D01*
X190507500Y-58474156D01*
X190507500Y-80147500D01*
X190487815Y-80214539D01*
X190435011Y-80260294D01*
X190383500Y-80271500D01*
X152930907Y-80271500D01*
X152863868Y-80251815D01*
X152818113Y-80199011D01*
X152806907Y-80147500D01*
X152806907Y-71352135D01*
X154860500Y-71352135D01*
X154860500Y-74747870D01*
X154860501Y-74747876D01*
X154866908Y-74807483D01*
X154917202Y-74942328D01*
X154917206Y-74942335D01*
X155003452Y-75057544D01*
X155003455Y-75057547D01*
X155118664Y-75143793D01*
X155118671Y-75143797D01*
X155253517Y-75194091D01*
X155253516Y-75194091D01*
X155260444Y-75194835D01*
X155313127Y-75200500D01*
X156598872Y-75200499D01*
X156658483Y-75194091D01*
X156793331Y-75143796D01*
X156908546Y-75057546D01*
X156994796Y-74942331D01*
X157045091Y-74807483D01*
X157051500Y-74747873D01*
X157051500Y-73821930D01*
X157071185Y-73754891D01*
X157123989Y-73709136D01*
X157151306Y-73700313D01*
X157264444Y-73677809D01*
X157383264Y-73628592D01*
X157385932Y-73626809D01*
X157490200Y-73557141D01*
X160174619Y-70872720D01*
X160235942Y-70839236D01*
X160305634Y-70844220D01*
X160361567Y-70886092D01*
X160385984Y-70951556D01*
X160386300Y-70960402D01*
X160386300Y-74235505D01*
X160386300Y-74235507D01*
X160386299Y-74235507D01*
X160411389Y-74361638D01*
X160411391Y-74361644D01*
X160430219Y-74407100D01*
X160460608Y-74480464D01*
X160511714Y-74556951D01*
X160532062Y-74587404D01*
X162648595Y-76703937D01*
X162648598Y-76703939D01*
X162648600Y-76703941D01*
X162730508Y-76758669D01*
X162755536Y-76775392D01*
X162874356Y-76824609D01*
X162874360Y-76824609D01*
X162874361Y-76824610D01*
X163000492Y-76849700D01*
X163000495Y-76849700D01*
X163130892Y-76849700D01*
X163197931Y-76869385D01*
X163218573Y-76886019D01*
X163700591Y-77368037D01*
X163637007Y-77385075D01*
X163522993Y-77450901D01*
X163429901Y-77543993D01*
X163364075Y-77658007D01*
X163347037Y-77721591D01*
X162714728Y-77089282D01*
X162714727Y-77089282D01*
X162675380Y-77143439D01*
X162578904Y-77332782D01*
X162513242Y-77534869D01*
X162513242Y-77534872D01*
X162480000Y-77744753D01*
X162480000Y-77957246D01*
X162513242Y-78167127D01*
X162513242Y-78167130D01*
X162578904Y-78369217D01*
X162675375Y-78558550D01*
X162714728Y-78612716D01*
X163347037Y-77980408D01*
X163364075Y-78043993D01*
X163429901Y-78158007D01*
X163522993Y-78251099D01*
X163637007Y-78316925D01*
X163700590Y-78333962D01*
X163068282Y-78966269D01*
X163068282Y-78966270D01*
X163122449Y-79005624D01*
X163311782Y-79102095D01*
X163513870Y-79167757D01*
X163723754Y-79201000D01*
X163936246Y-79201000D01*
X164146127Y-79167757D01*
X164146130Y-79167757D01*
X164348217Y-79102095D01*
X164537554Y-79005622D01*
X164591716Y-78966270D01*
X164591717Y-78966270D01*
X163959408Y-78333962D01*
X164022993Y-78316925D01*
X164137007Y-78251099D01*
X164230099Y-78158007D01*
X164295925Y-78043993D01*
X164312962Y-77980408D01*
X164945270Y-78612717D01*
X164945270Y-78612716D01*
X164984622Y-78558555D01*
X164989232Y-78549507D01*
X165037205Y-78498709D01*
X165105025Y-78481912D01*
X165171161Y-78504447D01*
X165210204Y-78549504D01*
X165214949Y-78558817D01*
X165339890Y-78730786D01*
X165490213Y-78881109D01*
X165662179Y-79006048D01*
X165662181Y-79006049D01*
X165662184Y-79006051D01*
X165851588Y-79102557D01*
X166053757Y-79168246D01*
X166263713Y-79201500D01*
X166263714Y-79201500D01*
X166476286Y-79201500D01*
X166476287Y-79201500D01*
X166686243Y-79168246D01*
X166888412Y-79102557D01*
X167077816Y-79006051D01*
X167164138Y-78943335D01*
X167249786Y-78881109D01*
X167249788Y-78881106D01*
X167249792Y-78881104D01*
X167400104Y-78730792D01*
X167400106Y-78730788D01*
X167400109Y-78730786D01*
X167525048Y-78558820D01*
X167525047Y-78558820D01*
X167525051Y-78558816D01*
X167529514Y-78550054D01*
X167577488Y-78499259D01*
X167645308Y-78482463D01*
X167711444Y-78504999D01*
X167750486Y-78550056D01*
X167754951Y-78558820D01*
X167879890Y-78730786D01*
X168030213Y-78881109D01*
X168202179Y-79006048D01*
X168202181Y-79006049D01*
X168202184Y-79006051D01*
X168391588Y-79102557D01*
X168593757Y-79168246D01*
X168803713Y-79201500D01*
X168803714Y-79201500D01*
X169016286Y-79201500D01*
X169016287Y-79201500D01*
X169226243Y-79168246D01*
X169428412Y-79102557D01*
X169617816Y-79006051D01*
X169704138Y-78943335D01*
X169789786Y-78881109D01*
X169789788Y-78881106D01*
X169789792Y-78881104D01*
X169940104Y-78730792D01*
X169940106Y-78730788D01*
X169940109Y-78730786D01*
X170065048Y-78558820D01*
X170065047Y-78558820D01*
X170065051Y-78558816D01*
X170069514Y-78550054D01*
X170117488Y-78499259D01*
X170185308Y-78482463D01*
X170251444Y-78504999D01*
X170290486Y-78550056D01*
X170294951Y-78558820D01*
X170419890Y-78730786D01*
X170570213Y-78881109D01*
X170742179Y-79006048D01*
X170742181Y-79006049D01*
X170742184Y-79006051D01*
X170931588Y-79102557D01*
X171133757Y-79168246D01*
X171343713Y-79201500D01*
X171343714Y-79201500D01*
X171556286Y-79201500D01*
X171556287Y-79201500D01*
X171766243Y-79168246D01*
X171968412Y-79102557D01*
X172157816Y-79006051D01*
X172244138Y-78943335D01*
X172329786Y-78881109D01*
X172329788Y-78881106D01*
X172329792Y-78881104D01*
X172480104Y-78730792D01*
X172480106Y-78730788D01*
X172480109Y-78730786D01*
X172605048Y-78558820D01*
X172605047Y-78558820D01*
X172605051Y-78558816D01*
X172609514Y-78550054D01*
X172657488Y-78499259D01*
X172725308Y-78482463D01*
X172791444Y-78504999D01*
X172830486Y-78550056D01*
X172834951Y-78558820D01*
X172959890Y-78730786D01*
X173110213Y-78881109D01*
X173282179Y-79006048D01*
X173282181Y-79006049D01*
X173282184Y-79006051D01*
X173471588Y-79102557D01*
X173673757Y-79168246D01*
X173883713Y-79201500D01*
X173883714Y-79201500D01*
X174096286Y-79201500D01*
X174096287Y-79201500D01*
X174306243Y-79168246D01*
X174508412Y-79102557D01*
X174697816Y-79006051D01*
X174784138Y-78943335D01*
X174869786Y-78881109D01*
X174869788Y-78881106D01*
X174869792Y-78881104D01*
X175020104Y-78730792D01*
X175020106Y-78730788D01*
X175020109Y-78730786D01*
X175145048Y-78558820D01*
X175145047Y-78558820D01*
X175145051Y-78558816D01*
X175149514Y-78550054D01*
X175197488Y-78499259D01*
X175265308Y-78482463D01*
X175331444Y-78504999D01*
X175370486Y-78550056D01*
X175374951Y-78558820D01*
X175499890Y-78730786D01*
X175650213Y-78881109D01*
X175822179Y-79006048D01*
X175822181Y-79006049D01*
X175822184Y-79006051D01*
X176011588Y-79102557D01*
X176213757Y-79168246D01*
X176423713Y-79201500D01*
X176423714Y-79201500D01*
X176636286Y-79201500D01*
X176636287Y-79201500D01*
X176846243Y-79168246D01*
X177048412Y-79102557D01*
X177237816Y-79006051D01*
X177324138Y-78943335D01*
X177409786Y-78881109D01*
X177409788Y-78881106D01*
X177409792Y-78881104D01*
X177560104Y-78730792D01*
X177560106Y-78730788D01*
X177560109Y-78730786D01*
X177645890Y-78612717D01*
X177685051Y-78558816D01*
X177689793Y-78549508D01*
X177737763Y-78498711D01*
X177805583Y-78481911D01*
X177871719Y-78504445D01*
X177910763Y-78549500D01*
X177915373Y-78558547D01*
X177954728Y-78612716D01*
X178587037Y-77980408D01*
X178604075Y-78043993D01*
X178669901Y-78158007D01*
X178762993Y-78251099D01*
X178877007Y-78316925D01*
X178940590Y-78333962D01*
X178308282Y-78966269D01*
X178308282Y-78966270D01*
X178362449Y-79005624D01*
X178551782Y-79102095D01*
X178753870Y-79167757D01*
X178963754Y-79201000D01*
X179176246Y-79201000D01*
X179386127Y-79167757D01*
X179386130Y-79167757D01*
X179588217Y-79102095D01*
X179777554Y-79005622D01*
X179831716Y-78966270D01*
X179831717Y-78966270D01*
X179199408Y-78333962D01*
X179262993Y-78316925D01*
X179377007Y-78251099D01*
X179470099Y-78158007D01*
X179535925Y-78043993D01*
X179552962Y-77980409D01*
X180223181Y-78650628D01*
X180256666Y-78711951D01*
X180259500Y-78738300D01*
X180259500Y-78748865D01*
X180259501Y-78748876D01*
X180265908Y-78808483D01*
X180316202Y-78943328D01*
X180316206Y-78943335D01*
X180402452Y-79058544D01*
X180402455Y-79058547D01*
X180517664Y-79144793D01*
X180517671Y-79144797D01*
X180652517Y-79195091D01*
X180652516Y-79195091D01*
X180659444Y-79195835D01*
X180712127Y-79201500D01*
X182507872Y-79201499D01*
X182567483Y-79195091D01*
X182702331Y-79144796D01*
X182817546Y-79058546D01*
X182903796Y-78943331D01*
X182907960Y-78932165D01*
X182949829Y-78876234D01*
X183015293Y-78851816D01*
X183024141Y-78851500D01*
X186153542Y-78851500D01*
X186184566Y-78845328D01*
X186250188Y-78832275D01*
X186346836Y-78813051D01*
X186400165Y-78790961D01*
X186528914Y-78737632D01*
X186692782Y-78628139D01*
X186832139Y-78488782D01*
X186832139Y-78488780D01*
X186842347Y-78478573D01*
X186842348Y-78478570D01*
X188229139Y-77091782D01*
X188269933Y-77030729D01*
X188314274Y-76964369D01*
X188314274Y-76964368D01*
X188314727Y-76963690D01*
X188338632Y-76927914D01*
X188414051Y-76745835D01*
X188434416Y-76643454D01*
X188452500Y-76552543D01*
X188452500Y-65998983D01*
X188464448Y-65958289D01*
X188464522Y-65954188D01*
X188467451Y-65948064D01*
X188472185Y-65931944D01*
X188474884Y-65927918D01*
X188480422Y-65919998D01*
X188483139Y-65917282D01*
X188500630Y-65891102D01*
X188501372Y-65890043D01*
X188527656Y-65869008D01*
X188553494Y-65847414D01*
X188555808Y-65846479D01*
X188555924Y-65846387D01*
X188556076Y-65846371D01*
X188559642Y-65844930D01*
X188583331Y-65836096D01*
X188698546Y-65749846D01*
X188784796Y-65634631D01*
X188835091Y-65499783D01*
X188841500Y-65440173D01*
X188841499Y-64709428D01*
X188838513Y-64681655D01*
X188838513Y-64655149D01*
X188841500Y-64627373D01*
X188841499Y-63896628D01*
X188835091Y-63837017D01*
X188823895Y-63807000D01*
X188784797Y-63702171D01*
X188784793Y-63702164D01*
X188698547Y-63586956D01*
X188698548Y-63586956D01*
X188698546Y-63586954D01*
X188614124Y-63523756D01*
X188572255Y-63467824D01*
X188567271Y-63398132D01*
X188582318Y-63360345D01*
X188624478Y-63290606D01*
X188675086Y-63128196D01*
X188681500Y-63057616D01*
X188681500Y-62544384D01*
X188675086Y-62473804D01*
X188624478Y-62311394D01*
X188536472Y-62165815D01*
X188536470Y-62165813D01*
X188536469Y-62165811D01*
X188434339Y-62063681D01*
X188400854Y-62002358D01*
X188405838Y-61932666D01*
X188434339Y-61888319D01*
X188536468Y-61786189D01*
X188536469Y-61786188D01*
X188536472Y-61786185D01*
X188624478Y-61640606D01*
X188675086Y-61478196D01*
X188681500Y-61407616D01*
X188681500Y-60894384D01*
X188675086Y-60823804D01*
X188624478Y-60661394D01*
X188536472Y-60515815D01*
X188536470Y-60515813D01*
X188532591Y-60509396D01*
X188534273Y-60508378D01*
X188512177Y-60452881D01*
X188525530Y-60384299D01*
X188530100Y-60376230D01*
X188606544Y-60252295D01*
X188606543Y-60252295D01*
X188606549Y-60252287D01*
X188659436Y-60092685D01*
X188669500Y-59994174D01*
X188669500Y-59385826D01*
X188659436Y-59287315D01*
X188606549Y-59127713D01*
X188606545Y-59127707D01*
X188606544Y-59127704D01*
X188518283Y-58984612D01*
X188518280Y-58984608D01*
X188399391Y-58865719D01*
X188399387Y-58865716D01*
X188256295Y-58777455D01*
X188256289Y-58777452D01*
X188256287Y-58777451D01*
X188096685Y-58724564D01*
X188096683Y-58724563D01*
X187998181Y-58714500D01*
X187998174Y-58714500D01*
X187464826Y-58714500D01*
X187464818Y-58714500D01*
X187366316Y-58724563D01*
X187366315Y-58724564D01*
X187287219Y-58750773D01*
X187206715Y-58777450D01*
X187206704Y-58777455D01*
X187063612Y-58865716D01*
X187063607Y-58865719D01*
X187031327Y-58898000D01*
X186970003Y-58931485D01*
X186900312Y-58926499D01*
X186855967Y-58898000D01*
X186824080Y-58866114D01*
X186681077Y-58777908D01*
X186681072Y-58777906D01*
X186521583Y-58725057D01*
X186423150Y-58715000D01*
X186406500Y-58715000D01*
X186406500Y-60664999D01*
X186423136Y-60664999D01*
X186423152Y-60664998D01*
X186521586Y-60654942D01*
X186591152Y-60631890D01*
X186660980Y-60629487D01*
X186721022Y-60665218D01*
X186752215Y-60727738D01*
X186748543Y-60786483D01*
X186736914Y-60823803D01*
X186730500Y-60894386D01*
X186730500Y-61407613D01*
X186736913Y-61478192D01*
X186736913Y-61478194D01*
X186736914Y-61478196D01*
X186752780Y-61529112D01*
X186787522Y-61640606D01*
X186875530Y-61786188D01*
X186977661Y-61888319D01*
X187011146Y-61949642D01*
X187006162Y-62019334D01*
X186977661Y-62063681D01*
X186875531Y-62165810D01*
X186875530Y-62165811D01*
X186787522Y-62311393D01*
X186736913Y-62473807D01*
X186730500Y-62544386D01*
X186730500Y-63057613D01*
X186736913Y-63128192D01*
X186736913Y-63128194D01*
X186736914Y-63128196D01*
X186787522Y-63290606D01*
X186829679Y-63360342D01*
X186847515Y-63427895D01*
X186825998Y-63494369D01*
X186797873Y-63523757D01*
X186713455Y-63586952D01*
X186713452Y-63586955D01*
X186627206Y-63702164D01*
X186627202Y-63702171D01*
X186588104Y-63807001D01*
X186576909Y-63837017D01*
X186570500Y-63896627D01*
X186570500Y-63896634D01*
X186570500Y-63896635D01*
X186570500Y-64627369D01*
X186570501Y-64627378D01*
X186573486Y-64655144D01*
X186574158Y-64671462D01*
X186574031Y-64676579D01*
X186570500Y-64709427D01*
X186570500Y-64819360D01*
X186570462Y-64820897D01*
X186568955Y-64825593D01*
X186561061Y-64865283D01*
X186521955Y-64959694D01*
X186521955Y-64959695D01*
X186489950Y-65036961D01*
X186489947Y-65036971D01*
X186479736Y-65088304D01*
X186479737Y-65088305D01*
X186468520Y-65144692D01*
X186436137Y-65206601D01*
X186375422Y-65241176D01*
X186346904Y-65244500D01*
X181610798Y-65244500D01*
X181570795Y-65235631D01*
X181570190Y-65237458D01*
X181532036Y-65224815D01*
X181396797Y-65180001D01*
X181396795Y-65180000D01*
X181294010Y-65169500D01*
X179893998Y-65169500D01*
X179893981Y-65169501D01*
X179791203Y-65180000D01*
X179791200Y-65180001D01*
X179617810Y-65237458D01*
X179617204Y-65235631D01*
X179577202Y-65244500D01*
X178636432Y-65244500D01*
X178569393Y-65224815D01*
X178523638Y-65172011D01*
X178513074Y-65107897D01*
X178520999Y-65030322D01*
X178521000Y-65030309D01*
X178521000Y-65007000D01*
X177670000Y-65007000D01*
X177602961Y-64987315D01*
X177557206Y-64934511D01*
X177546000Y-64883000D01*
X177546000Y-64757000D01*
X177420000Y-64757000D01*
X177352961Y-64737315D01*
X177307206Y-64684511D01*
X177296000Y-64633000D01*
X177296000Y-64507000D01*
X177796000Y-64507000D01*
X178520999Y-64507000D01*
X178520999Y-64483692D01*
X178520998Y-64483677D01*
X178510855Y-64384392D01*
X178457547Y-64223518D01*
X178457542Y-64223507D01*
X178368575Y-64079271D01*
X178368572Y-64079267D01*
X178248732Y-63959427D01*
X178248728Y-63959424D01*
X178104492Y-63870457D01*
X178104481Y-63870452D01*
X177943606Y-63817144D01*
X177844322Y-63807000D01*
X177796000Y-63807000D01*
X177796000Y-64507000D01*
X177296000Y-64507000D01*
X177296000Y-63807000D01*
X177295999Y-63806999D01*
X177247693Y-63807000D01*
X177247675Y-63807001D01*
X177148392Y-63817144D01*
X176987518Y-63870452D01*
X176987507Y-63870457D01*
X176843271Y-63959424D01*
X176843267Y-63959427D01*
X176723427Y-64079267D01*
X176723424Y-64079271D01*
X176634454Y-64223513D01*
X176634369Y-64223696D01*
X176634277Y-64223800D01*
X176630661Y-64229663D01*
X176629658Y-64229044D01*
X176588194Y-64276133D01*
X176520999Y-64295282D01*
X176454119Y-64275063D01*
X176434311Y-64258970D01*
X176328599Y-64153258D01*
X176221663Y-64081807D01*
X176221662Y-64081806D01*
X176221657Y-64081803D01*
X176216289Y-64078934D01*
X176217176Y-64077273D01*
X176169607Y-64038923D01*
X176147555Y-63972624D01*
X176164848Y-63904928D01*
X176183792Y-63880546D01*
X176394352Y-63669986D01*
X179194001Y-63669986D01*
X179204494Y-63772697D01*
X179259641Y-63939119D01*
X179259643Y-63939124D01*
X179351684Y-64088345D01*
X179475654Y-64212315D01*
X179624875Y-64304356D01*
X179624880Y-64304358D01*
X179791302Y-64359505D01*
X179791309Y-64359506D01*
X179894019Y-64369999D01*
X180343999Y-64369999D01*
X180844000Y-64369999D01*
X181293972Y-64369999D01*
X181293986Y-64369998D01*
X181396697Y-64359505D01*
X181563119Y-64304358D01*
X181563124Y-64304356D01*
X181712345Y-64212315D01*
X181836315Y-64088345D01*
X181928356Y-63939124D01*
X181928358Y-63939119D01*
X181983505Y-63772697D01*
X181983506Y-63772690D01*
X181993999Y-63669986D01*
X181994000Y-63669973D01*
X181994000Y-63545000D01*
X180844000Y-63545000D01*
X180844000Y-64369999D01*
X180343999Y-64369999D01*
X180344000Y-64369998D01*
X180344000Y-63545000D01*
X179194001Y-63545000D01*
X179194001Y-63669986D01*
X176394352Y-63669986D01*
X177144325Y-62920013D01*
X179194000Y-62920013D01*
X179194000Y-63045000D01*
X180344000Y-63045000D01*
X180844000Y-63045000D01*
X181993999Y-63045000D01*
X181993999Y-62920028D01*
X181993998Y-62920013D01*
X181983505Y-62817302D01*
X181928358Y-62650880D01*
X181928356Y-62650875D01*
X181836315Y-62501654D01*
X181712345Y-62377684D01*
X181563124Y-62285643D01*
X181563119Y-62285641D01*
X181396697Y-62230494D01*
X181396690Y-62230493D01*
X181293986Y-62220000D01*
X180844000Y-62220000D01*
X180844000Y-63045000D01*
X180344000Y-63045000D01*
X180344000Y-62220000D01*
X179894028Y-62220000D01*
X179894012Y-62220001D01*
X179791302Y-62230494D01*
X179624880Y-62285641D01*
X179624875Y-62285643D01*
X179475654Y-62377684D01*
X179351684Y-62501654D01*
X179259643Y-62650875D01*
X179259641Y-62650880D01*
X179204494Y-62817302D01*
X179204493Y-62817309D01*
X179194000Y-62920013D01*
X177144325Y-62920013D01*
X178642038Y-61422301D01*
X178703359Y-61388818D01*
X178749115Y-61387511D01*
X178875242Y-61407487D01*
X178963713Y-61421500D01*
X178963714Y-61421500D01*
X179176286Y-61421500D01*
X179176287Y-61421500D01*
X179386243Y-61388246D01*
X179588412Y-61322557D01*
X179777816Y-61226051D01*
X179864138Y-61163335D01*
X179949786Y-61101109D01*
X179949788Y-61101106D01*
X179949792Y-61101104D01*
X180100104Y-60950792D01*
X180100106Y-60950788D01*
X180100109Y-60950786D01*
X180225048Y-60778820D01*
X180225047Y-60778820D01*
X180225051Y-60778816D01*
X180229514Y-60770054D01*
X180277488Y-60719259D01*
X180345308Y-60702463D01*
X180411444Y-60724999D01*
X180450486Y-60770056D01*
X180454951Y-60778820D01*
X180579890Y-60950786D01*
X180730213Y-61101109D01*
X180902179Y-61226048D01*
X180902181Y-61226049D01*
X180902184Y-61226051D01*
X181091588Y-61322557D01*
X181293757Y-61388246D01*
X181503713Y-61421500D01*
X181503714Y-61421500D01*
X181716286Y-61421500D01*
X181716287Y-61421500D01*
X181926243Y-61388246D01*
X182128412Y-61322557D01*
X182317816Y-61226051D01*
X182404138Y-61163335D01*
X182489786Y-61101109D01*
X182489788Y-61101106D01*
X182489792Y-61101104D01*
X182640104Y-60950792D01*
X182640106Y-60950788D01*
X182640109Y-60950786D01*
X182765048Y-60778820D01*
X182765047Y-60778820D01*
X182765051Y-60778816D01*
X182861557Y-60589412D01*
X182927246Y-60387243D01*
X182960500Y-60177287D01*
X182960500Y-59994152D01*
X185219001Y-59994152D01*
X185229056Y-60092583D01*
X185281906Y-60252072D01*
X185281908Y-60252077D01*
X185370114Y-60395080D01*
X185488919Y-60513885D01*
X185631922Y-60602091D01*
X185631927Y-60602093D01*
X185791416Y-60654942D01*
X185889856Y-60664999D01*
X185906500Y-60664998D01*
X185906500Y-59940000D01*
X185219001Y-59940000D01*
X185219001Y-59994152D01*
X182960500Y-59994152D01*
X182960500Y-59964713D01*
X182927246Y-59754757D01*
X182861557Y-59552588D01*
X182804191Y-59440000D01*
X182803679Y-59438995D01*
X182776599Y-59385849D01*
X185219000Y-59385849D01*
X185219000Y-59440000D01*
X185906500Y-59440000D01*
X185906500Y-58714999D01*
X185889856Y-58715000D01*
X185791415Y-58725057D01*
X185631927Y-58777906D01*
X185631922Y-58777908D01*
X185488919Y-58866114D01*
X185370114Y-58984919D01*
X185281908Y-59127922D01*
X185281906Y-59127927D01*
X185229057Y-59287416D01*
X185219000Y-59385849D01*
X182776599Y-59385849D01*
X182776590Y-59385831D01*
X182765051Y-59363184D01*
X182710003Y-59287416D01*
X182640109Y-59191213D01*
X182489786Y-59040890D01*
X182317820Y-58915951D01*
X182128414Y-58819444D01*
X182128413Y-58819443D01*
X182128412Y-58819443D01*
X181926243Y-58753754D01*
X181926241Y-58753753D01*
X181926240Y-58753753D01*
X181764957Y-58728208D01*
X181716287Y-58720500D01*
X181503713Y-58720500D01*
X181455042Y-58728208D01*
X181293760Y-58753753D01*
X181091585Y-58819444D01*
X180902179Y-58915951D01*
X180730213Y-59040890D01*
X180579890Y-59191213D01*
X180454949Y-59363182D01*
X180450484Y-59371946D01*
X180402509Y-59422742D01*
X180334688Y-59439536D01*
X180268553Y-59416998D01*
X180229516Y-59371946D01*
X180225050Y-59363182D01*
X180100109Y-59191213D01*
X179949786Y-59040890D01*
X179777820Y-58915951D01*
X179588414Y-58819444D01*
X179588413Y-58819443D01*
X179588412Y-58819443D01*
X179386243Y-58753754D01*
X179386241Y-58753753D01*
X179386240Y-58753753D01*
X179224957Y-58728208D01*
X179176287Y-58720500D01*
X178963713Y-58720500D01*
X178915042Y-58728208D01*
X178753760Y-58753753D01*
X178551585Y-58819444D01*
X178362179Y-58915951D01*
X178190213Y-59040890D01*
X178039890Y-59191213D01*
X177914949Y-59363182D01*
X177910484Y-59371946D01*
X177862509Y-59422742D01*
X177794688Y-59439536D01*
X177728553Y-59416998D01*
X177689516Y-59371946D01*
X177685050Y-59363182D01*
X177560109Y-59191213D01*
X177409786Y-59040890D01*
X177237820Y-58915951D01*
X177048414Y-58819444D01*
X177048413Y-58819443D01*
X177048412Y-58819443D01*
X176846243Y-58753754D01*
X176846241Y-58753753D01*
X176846240Y-58753753D01*
X176684957Y-58728208D01*
X176636287Y-58720500D01*
X176423713Y-58720500D01*
X176375042Y-58728208D01*
X176213760Y-58753753D01*
X176011585Y-58819444D01*
X175822179Y-58915951D01*
X175650213Y-59040890D01*
X175499890Y-59191213D01*
X175374949Y-59363182D01*
X175370484Y-59371946D01*
X175322509Y-59422742D01*
X175254688Y-59439536D01*
X175188553Y-59416998D01*
X175149516Y-59371946D01*
X175145050Y-59363182D01*
X175020109Y-59191213D01*
X174869786Y-59040890D01*
X174697820Y-58915951D01*
X174508414Y-58819444D01*
X174508413Y-58819443D01*
X174508412Y-58819443D01*
X174306243Y-58753754D01*
X174306241Y-58753753D01*
X174306240Y-58753753D01*
X174144957Y-58728208D01*
X174096287Y-58720500D01*
X173883713Y-58720500D01*
X173835042Y-58728208D01*
X173673760Y-58753753D01*
X173471585Y-58819444D01*
X173282179Y-58915951D01*
X173110213Y-59040890D01*
X172959890Y-59191213D01*
X172834949Y-59363182D01*
X172830484Y-59371946D01*
X172782509Y-59422742D01*
X172714688Y-59439536D01*
X172648553Y-59416998D01*
X172609516Y-59371946D01*
X172605050Y-59363182D01*
X172480109Y-59191213D01*
X172329786Y-59040890D01*
X172157820Y-58915951D01*
X171968414Y-58819444D01*
X171968413Y-58819443D01*
X171968412Y-58819443D01*
X171766243Y-58753754D01*
X171766241Y-58753753D01*
X171766240Y-58753753D01*
X171604957Y-58728208D01*
X171556287Y-58720500D01*
X171343713Y-58720500D01*
X171295042Y-58728208D01*
X171133760Y-58753753D01*
X170931585Y-58819444D01*
X170742179Y-58915951D01*
X170570213Y-59040890D01*
X170419890Y-59191213D01*
X170294949Y-59363182D01*
X170290484Y-59371946D01*
X170242509Y-59422742D01*
X170174688Y-59439536D01*
X170108553Y-59416998D01*
X170069516Y-59371946D01*
X170065050Y-59363182D01*
X169940109Y-59191213D01*
X169789786Y-59040890D01*
X169617820Y-58915951D01*
X169428414Y-58819444D01*
X169428413Y-58819443D01*
X169428412Y-58819443D01*
X169226243Y-58753754D01*
X169226241Y-58753753D01*
X169226240Y-58753753D01*
X169064957Y-58728208D01*
X169016287Y-58720500D01*
X168803713Y-58720500D01*
X168755042Y-58728208D01*
X168593760Y-58753753D01*
X168391585Y-58819444D01*
X168202179Y-58915951D01*
X168030213Y-59040890D01*
X167879890Y-59191213D01*
X167754949Y-59363182D01*
X167750484Y-59371946D01*
X167702509Y-59422742D01*
X167634688Y-59439536D01*
X167568553Y-59416998D01*
X167529516Y-59371946D01*
X167525050Y-59363182D01*
X167400109Y-59191213D01*
X167249786Y-59040890D01*
X167077820Y-58915951D01*
X166888414Y-58819444D01*
X166888413Y-58819443D01*
X166888412Y-58819443D01*
X166686243Y-58753754D01*
X166686241Y-58753753D01*
X166686240Y-58753753D01*
X166524957Y-58728208D01*
X166476287Y-58720500D01*
X166263713Y-58720500D01*
X166215042Y-58728208D01*
X166053760Y-58753753D01*
X165851585Y-58819444D01*
X165662179Y-58915951D01*
X165490215Y-59040889D01*
X165376673Y-59154431D01*
X165315350Y-59187915D01*
X165245658Y-59182931D01*
X165189725Y-59141059D01*
X165172810Y-59110082D01*
X165123797Y-58978671D01*
X165123793Y-58978664D01*
X165037547Y-58863455D01*
X165037544Y-58863452D01*
X164922335Y-58777206D01*
X164922328Y-58777202D01*
X164787482Y-58726908D01*
X164787483Y-58726908D01*
X164727883Y-58720501D01*
X164727881Y-58720500D01*
X164727873Y-58720500D01*
X164727864Y-58720500D01*
X162932129Y-58720500D01*
X162932123Y-58720501D01*
X162872516Y-58726908D01*
X162737671Y-58777202D01*
X162737664Y-58777206D01*
X162622455Y-58863452D01*
X162622452Y-58863455D01*
X162536206Y-58978664D01*
X162536202Y-58978671D01*
X162485908Y-59113517D01*
X162479501Y-59173116D01*
X162479500Y-59173135D01*
X162479500Y-60968870D01*
X162479501Y-60968876D01*
X162485908Y-61028483D01*
X162536202Y-61163328D01*
X162536206Y-61163335D01*
X162622452Y-61278544D01*
X162622455Y-61278547D01*
X162737664Y-61364793D01*
X162737671Y-61364797D01*
X162872517Y-61415091D01*
X162872516Y-61415091D01*
X162879444Y-61415835D01*
X162932127Y-61421500D01*
X164727872Y-61421499D01*
X164787483Y-61415091D01*
X164922331Y-61364796D01*
X165037546Y-61278546D01*
X165123796Y-61163331D01*
X165172810Y-61031916D01*
X165214681Y-60975984D01*
X165280145Y-60951566D01*
X165348418Y-60966417D01*
X165376673Y-60987569D01*
X165490211Y-61101107D01*
X165559452Y-61151412D01*
X165619065Y-61194723D01*
X165661731Y-61250052D01*
X165667710Y-61319665D01*
X165660741Y-61342493D01*
X165600264Y-61488498D01*
X165600261Y-61488510D01*
X165569500Y-61643153D01*
X165569500Y-61713500D01*
X165549815Y-61780539D01*
X165497011Y-61826294D01*
X165445500Y-61837500D01*
X162379609Y-61837500D01*
X162253477Y-61862589D01*
X162253471Y-61862591D01*
X162134654Y-61911806D01*
X162134651Y-61911808D01*
X162118403Y-61922664D01*
X162110224Y-61928130D01*
X162027714Y-61983260D01*
X162027711Y-61983263D01*
X160020864Y-63990107D01*
X160020858Y-63990114D01*
X159979175Y-64052499D01*
X159979175Y-64052500D01*
X159949406Y-64097050D01*
X159900191Y-64215868D01*
X159900189Y-64215874D01*
X159875100Y-64342005D01*
X159875100Y-69274196D01*
X159855415Y-69341235D01*
X159838781Y-69361877D01*
X157263180Y-71937478D01*
X157201857Y-71970963D01*
X157132165Y-71965979D01*
X157076232Y-71924107D01*
X157051815Y-71858643D01*
X157051499Y-71849797D01*
X157051499Y-71352129D01*
X157051498Y-71352123D01*
X157051497Y-71352116D01*
X157045091Y-71292517D01*
X157025432Y-71239809D01*
X156994797Y-71157671D01*
X156994793Y-71157664D01*
X156908547Y-71042455D01*
X156908544Y-71042452D01*
X156793335Y-70956206D01*
X156793328Y-70956202D01*
X156658482Y-70905908D01*
X156658483Y-70905908D01*
X156598883Y-70899501D01*
X156598881Y-70899500D01*
X156598873Y-70899500D01*
X156598864Y-70899500D01*
X155313129Y-70899500D01*
X155313123Y-70899501D01*
X155253516Y-70905908D01*
X155118671Y-70956202D01*
X155118664Y-70956206D01*
X155003455Y-71042452D01*
X155003452Y-71042455D01*
X154917206Y-71157664D01*
X154917202Y-71157671D01*
X154866908Y-71292517D01*
X154862800Y-71330734D01*
X154860501Y-71352123D01*
X154860500Y-71352135D01*
X152806907Y-71352135D01*
X152806907Y-68924499D01*
X152826592Y-68857460D01*
X152879396Y-68811705D01*
X152930907Y-68800499D01*
X154058871Y-68800499D01*
X154058872Y-68800499D01*
X154118483Y-68794091D01*
X154253331Y-68743796D01*
X154368546Y-68657546D01*
X154454796Y-68542331D01*
X154505091Y-68407483D01*
X154511500Y-68347873D01*
X154511500Y-68347844D01*
X157401000Y-68347844D01*
X157407401Y-68407372D01*
X157407403Y-68407379D01*
X157457645Y-68542086D01*
X157457649Y-68542093D01*
X157543809Y-68657187D01*
X157543812Y-68657190D01*
X157658906Y-68743350D01*
X157658913Y-68743354D01*
X157793620Y-68793596D01*
X157793627Y-68793598D01*
X157853155Y-68799999D01*
X157853172Y-68800000D01*
X158246000Y-68800000D01*
X158746000Y-68800000D01*
X159138828Y-68800000D01*
X159138844Y-68799999D01*
X159198372Y-68793598D01*
X159198379Y-68793596D01*
X159333086Y-68743354D01*
X159333093Y-68743350D01*
X159448187Y-68657190D01*
X159448190Y-68657187D01*
X159534350Y-68542093D01*
X159534354Y-68542086D01*
X159584596Y-68407379D01*
X159584598Y-68407372D01*
X159590999Y-68347844D01*
X159591000Y-68347827D01*
X159591000Y-66900000D01*
X158746000Y-66900000D01*
X158746000Y-68800000D01*
X158246000Y-68800000D01*
X158246000Y-66900000D01*
X157401000Y-66900000D01*
X157401000Y-68347844D01*
X154511500Y-68347844D01*
X154511499Y-67726499D01*
X154531183Y-67659461D01*
X154583987Y-67613706D01*
X154635499Y-67602500D01*
X154764844Y-67602500D01*
X154764845Y-67602499D01*
X154919497Y-67571737D01*
X155065179Y-67511394D01*
X155196289Y-67423789D01*
X155307789Y-67312289D01*
X155395394Y-67181179D01*
X155455737Y-67035497D01*
X155486500Y-66880842D01*
X155486500Y-66723158D01*
X155486500Y-66723155D01*
X155486499Y-66723153D01*
X155455738Y-66568510D01*
X155455737Y-66568503D01*
X155418176Y-66477821D01*
X155395397Y-66422827D01*
X155395390Y-66422814D01*
X155307789Y-66291711D01*
X155307786Y-66291707D01*
X155196292Y-66180213D01*
X155196288Y-66180210D01*
X155065185Y-66092609D01*
X155065172Y-66092602D01*
X154919501Y-66032264D01*
X154919489Y-66032261D01*
X154764845Y-66001500D01*
X154764842Y-66001500D01*
X154635499Y-66001500D01*
X154568460Y-65981815D01*
X154522705Y-65929011D01*
X154511499Y-65877500D01*
X154511499Y-64952155D01*
X157401000Y-64952155D01*
X157401000Y-66400000D01*
X158246000Y-66400000D01*
X158746000Y-66400000D01*
X159591000Y-66400000D01*
X159591000Y-64952172D01*
X159590999Y-64952155D01*
X159584598Y-64892627D01*
X159584596Y-64892620D01*
X159534354Y-64757913D01*
X159534350Y-64757906D01*
X159448190Y-64642812D01*
X159448187Y-64642809D01*
X159333093Y-64556649D01*
X159333086Y-64556645D01*
X159198379Y-64506403D01*
X159198372Y-64506401D01*
X159138844Y-64500000D01*
X158746000Y-64500000D01*
X158746000Y-66400000D01*
X158246000Y-66400000D01*
X158246000Y-64500000D01*
X157853155Y-64500000D01*
X157793627Y-64506401D01*
X157793620Y-64506403D01*
X157658913Y-64556645D01*
X157658906Y-64556649D01*
X157543812Y-64642809D01*
X157543809Y-64642812D01*
X157457649Y-64757906D01*
X157457645Y-64757913D01*
X157407403Y-64892620D01*
X157407401Y-64892627D01*
X157401000Y-64952155D01*
X154511499Y-64952155D01*
X154511499Y-64952129D01*
X154511498Y-64952123D01*
X154505091Y-64892516D01*
X154454797Y-64757671D01*
X154454793Y-64757664D01*
X154368547Y-64642455D01*
X154368544Y-64642452D01*
X154253335Y-64556206D01*
X154253328Y-64556202D01*
X154118482Y-64505908D01*
X154118483Y-64505908D01*
X154058883Y-64499501D01*
X154058881Y-64499500D01*
X154058873Y-64499500D01*
X154058865Y-64499500D01*
X152930907Y-64499500D01*
X152863868Y-64479815D01*
X152818113Y-64427011D01*
X152806907Y-64375500D01*
X152806907Y-58474156D01*
X152826592Y-58407117D01*
X152879396Y-58361362D01*
X152930907Y-58350156D01*
X190383500Y-58350156D01*
X190450539Y-58369841D01*
G37*
%TD.AperFunction*%
%TD*%
M02*
