%TF.GenerationSoftware,KiCad,Pcbnew,10.0.2*%
%TF.CreationDate,2026-06-04T14:13:57-04:00*%
%TF.ProjectId,Non swapping head board,4e6f6e20-7377-4617-9070-696e67206865,rev?*%
%TF.SameCoordinates,Original*%
%TF.FileFunction,Legend,Top*%
%TF.FilePolarity,Positive*%
%FSLAX46Y46*%
G04 Gerber Fmt 4.6, Leading zero omitted, Abs format (unit mm)*
G04 Created by KiCad (PCBNEW 10.0.2) date 2026-06-04 14:13:57*
%MOMM*%
%LPD*%
G01*
G04 APERTURE LIST*
G04 Aperture macros list*
%AMRoundRect*
0 Rectangle with rounded corners*
0 $1 Rounding radius*
0 $2 $3 $4 $5 $6 $7 $8 $9 X,Y pos of 4 corners*
0 Add a 4 corners polygon primitive as box body*
4,1,4,$2,$3,$4,$5,$6,$7,$8,$9,$2,$3,0*
0 Add four circle primitives for the rounded corners*
1,1,$1+$1,$2,$3*
1,1,$1+$1,$4,$5*
1,1,$1+$1,$6,$7*
1,1,$1+$1,$8,$9*
0 Add four rect primitives between the rounded corners*
20,1,$1+$1,$2,$3,$4,$5,0*
20,1,$1+$1,$4,$5,$6,$7,0*
20,1,$1+$1,$6,$7,$8,$9,0*
20,1,$1+$1,$8,$9,$2,$3,0*%
G04 Aperture macros list end*
%ADD10C,0.150000*%
%ADD11C,0.120000*%
%ADD12C,1.879600*%
%ADD13R,1.700000X1.700000*%
%ADD14C,1.700000*%
%ADD15RoundRect,0.250000X0.725000X-0.600000X0.725000X0.600000X-0.725000X0.600000X-0.725000X-0.600000X0*%
%ADD16O,1.950000X1.700000*%
%TA.AperFunction,Profile*%
%ADD17C,0.200000*%
%TD*%
G04 APERTURE END LIST*
D10*
X92600476Y-42114819D02*
X92600476Y-42829104D01*
X92600476Y-42829104D02*
X92552857Y-42971961D01*
X92552857Y-42971961D02*
X92457619Y-43067200D01*
X92457619Y-43067200D02*
X92314762Y-43114819D01*
X92314762Y-43114819D02*
X92219524Y-43114819D01*
X93029048Y-42210057D02*
X93076667Y-42162438D01*
X93076667Y-42162438D02*
X93171905Y-42114819D01*
X93171905Y-42114819D02*
X93410000Y-42114819D01*
X93410000Y-42114819D02*
X93505238Y-42162438D01*
X93505238Y-42162438D02*
X93552857Y-42210057D01*
X93552857Y-42210057D02*
X93600476Y-42305295D01*
X93600476Y-42305295D02*
X93600476Y-42400533D01*
X93600476Y-42400533D02*
X93552857Y-42543390D01*
X93552857Y-42543390D02*
X92981429Y-43114819D01*
X92981429Y-43114819D02*
X93600476Y-43114819D01*
X94219524Y-42114819D02*
X94314762Y-42114819D01*
X94314762Y-42114819D02*
X94410000Y-42162438D01*
X94410000Y-42162438D02*
X94457619Y-42210057D01*
X94457619Y-42210057D02*
X94505238Y-42305295D01*
X94505238Y-42305295D02*
X94552857Y-42495771D01*
X94552857Y-42495771D02*
X94552857Y-42733866D01*
X94552857Y-42733866D02*
X94505238Y-42924342D01*
X94505238Y-42924342D02*
X94457619Y-43019580D01*
X94457619Y-43019580D02*
X94410000Y-43067200D01*
X94410000Y-43067200D02*
X94314762Y-43114819D01*
X94314762Y-43114819D02*
X94219524Y-43114819D01*
X94219524Y-43114819D02*
X94124286Y-43067200D01*
X94124286Y-43067200D02*
X94076667Y-43019580D01*
X94076667Y-43019580D02*
X94029048Y-42924342D01*
X94029048Y-42924342D02*
X93981429Y-42733866D01*
X93981429Y-42733866D02*
X93981429Y-42495771D01*
X93981429Y-42495771D02*
X94029048Y-42305295D01*
X94029048Y-42305295D02*
X94076667Y-42210057D01*
X94076667Y-42210057D02*
X94124286Y-42162438D01*
X94124286Y-42162438D02*
X94219524Y-42114819D01*
X108604819Y-52683333D02*
X109319104Y-52683333D01*
X109319104Y-52683333D02*
X109461961Y-52730952D01*
X109461961Y-52730952D02*
X109557200Y-52826190D01*
X109557200Y-52826190D02*
X109604819Y-52969047D01*
X109604819Y-52969047D02*
X109604819Y-53064285D01*
X109604819Y-51683333D02*
X109604819Y-52254761D01*
X109604819Y-51969047D02*
X108604819Y-51969047D01*
X108604819Y-51969047D02*
X108747676Y-52064285D01*
X108747676Y-52064285D02*
X108842914Y-52159523D01*
X108842914Y-52159523D02*
X108890533Y-52254761D01*
%TO.C,J20*%
D11*
X87700000Y-44100000D02*
X87700000Y-69620000D01*
X87700000Y-44100000D02*
X96330000Y-44100000D01*
X87700000Y-44220000D02*
X96330000Y-44220000D01*
X87700000Y-44338095D02*
X96330000Y-44338095D01*
X87700000Y-44456190D02*
X96330000Y-44456190D01*
X87700000Y-44574286D02*
X96330000Y-44574286D01*
X87700000Y-44692381D02*
X96330000Y-44692381D01*
X87700000Y-44810476D02*
X96330000Y-44810476D01*
X87700000Y-44928571D02*
X96330000Y-44928571D01*
X87700000Y-45046667D02*
X96330000Y-45046667D01*
X87700000Y-45164762D02*
X96330000Y-45164762D01*
X87700000Y-45282857D02*
X96330000Y-45282857D01*
X87700000Y-45400952D02*
X96330000Y-45400952D01*
X87700000Y-45519048D02*
X96330000Y-45519048D01*
X87700000Y-45637143D02*
X96330000Y-45637143D01*
X87700000Y-45755238D02*
X96330000Y-45755238D01*
X87700000Y-45873333D02*
X96330000Y-45873333D01*
X87700000Y-45991429D02*
X96330000Y-45991429D01*
X87700000Y-46109524D02*
X96330000Y-46109524D01*
X87700000Y-46227619D02*
X96330000Y-46227619D01*
X87700000Y-46345714D02*
X96330000Y-46345714D01*
X87700000Y-46463810D02*
X96330000Y-46463810D01*
X87700000Y-46581905D02*
X96330000Y-46581905D01*
X87700000Y-46700000D02*
X96330000Y-46700000D01*
X87700000Y-49240000D02*
X96330000Y-49240000D01*
X87700000Y-51780000D02*
X96330000Y-51780000D01*
X87700000Y-54320000D02*
X96330000Y-54320000D01*
X87700000Y-56860000D02*
X96330000Y-56860000D01*
X87700000Y-59400000D02*
X96330000Y-59400000D01*
X87700000Y-61940000D02*
X96330000Y-61940000D01*
X87700000Y-64480000D02*
X96330000Y-64480000D01*
X87700000Y-67020000D02*
X96330000Y-67020000D01*
X87700000Y-69620000D02*
X96330000Y-69620000D01*
X96330000Y-44100000D02*
X96330000Y-69620000D01*
X96330000Y-45070000D02*
X96680000Y-45070000D01*
X96330000Y-45790000D02*
X96680000Y-45790000D01*
X96330000Y-47610000D02*
X96740000Y-47610000D01*
X96330000Y-48330000D02*
X96740000Y-48330000D01*
X96330000Y-50150000D02*
X96740000Y-50150000D01*
X96330000Y-50870000D02*
X96740000Y-50870000D01*
X96330000Y-52690000D02*
X96740000Y-52690000D01*
X96330000Y-53410000D02*
X96740000Y-53410000D01*
X96330000Y-55230000D02*
X96740000Y-55230000D01*
X96330000Y-55950000D02*
X96740000Y-55950000D01*
X96330000Y-57770000D02*
X96740000Y-57770000D01*
X96330000Y-58490000D02*
X96740000Y-58490000D01*
X96330000Y-60310000D02*
X96740000Y-60310000D01*
X96330000Y-61030000D02*
X96740000Y-61030000D01*
X96330000Y-62850000D02*
X96740000Y-62850000D01*
X96330000Y-63570000D02*
X96740000Y-63570000D01*
X96330000Y-65390000D02*
X96740000Y-65390000D01*
X96330000Y-66110000D02*
X96740000Y-66110000D01*
X96330000Y-67930000D02*
X96740000Y-67930000D01*
X96330000Y-68650000D02*
X96740000Y-68650000D01*
X97790000Y-44100000D02*
X98900000Y-44100000D01*
X98900000Y-44100000D02*
X98900000Y-45430000D01*
%TO.C,J1*%
X110740000Y-43990000D02*
X111950000Y-43990000D01*
X110740000Y-60710000D02*
X110740000Y-43990000D01*
X111950000Y-43990000D02*
X111950000Y-43490000D01*
X111950000Y-60710000D02*
X110740000Y-60710000D01*
X111950000Y-61210000D02*
X111950000Y-60710000D01*
X112060000Y-61510000D02*
X114560000Y-61510000D01*
X112760000Y-43490000D02*
X112760000Y-44490000D01*
X112760000Y-44490000D02*
X114260000Y-44490000D01*
X112760000Y-60210000D02*
X114260000Y-60210000D01*
X112760000Y-61210000D02*
X112760000Y-60210000D01*
X114560000Y-61510000D02*
X114560000Y-59010000D01*
X110240000Y-43490000D02*
X114260000Y-43490000D01*
X114260000Y-61210000D01*
X110240000Y-61210000D01*
X110240000Y-43490000D01*
%TD*%
%LPC*%
D12*
%TO.C,J18*%
X113690000Y-68000000D03*
X111150000Y-68000000D03*
X108610000Y-68000000D03*
%TD*%
D13*
%TO.C,J20*%
X97790000Y-45430000D03*
D14*
X97790000Y-47970000D03*
X97790000Y-50510000D03*
X97790000Y-53050000D03*
X97790000Y-55590000D03*
X97790000Y-58130000D03*
X97790000Y-60670000D03*
X97790000Y-63210000D03*
X97790000Y-65750000D03*
X97790000Y-68290000D03*
%TD*%
D15*
%TO.C,J1*%
X111950000Y-58600000D03*
D16*
X111950000Y-56100000D03*
X111950000Y-53600000D03*
X111950000Y-51100000D03*
X111950000Y-48600000D03*
X111950000Y-46100000D03*
%TD*%
D12*
%TO.C,J22*%
X104140000Y-67310000D03*
X104140000Y-64770000D03*
%TD*%
%LPD*%
D17*
X103250000Y-37250000D02*
G75*
G02*
X97250000Y-37250000I-3000000J0D01*
G01*
X97250000Y-37250000D02*
G75*
G02*
X103250000Y-37250000I3000000J0D01*
G01*
X114840000Y-76500000D02*
G75*
G02*
X108840000Y-76500000I-3000000J0D01*
G01*
X108840000Y-76500000D02*
G75*
G02*
X114840000Y-76500000I3000000J0D01*
G01*
X114840000Y-37250000D02*
G75*
G02*
X108840000Y-37250000I-3000000J0D01*
G01*
X108840000Y-37250000D02*
G75*
G02*
X114840000Y-37250000I3000000J0D01*
G01*
X103250000Y-76500000D02*
G75*
G02*
X97250000Y-76500000I-3000000J0D01*
G01*
X97250000Y-76500000D02*
G75*
G02*
X103250000Y-76500000I3000000J0D01*
G01*
X95250000Y-33250000D02*
X116840000Y-33250000D01*
X116840000Y-80500000D01*
X95250000Y-80500000D01*
X95250000Y-33250000D01*
M02*
