M48
; DRILL file KiCad 10.0.2 date 2026-06-04T14:13:56
; FORMAT={-:-/ absolute / metric / decimal}
; #@! TF.CreationDate,2026-06-04T14:13:56-04:00
; #@! TF.GenerationSoftware,Kicad,Pcbnew,10.0.2
; #@! TF.FileFunction,Plated,1,2,PTH
FMAT,2
METRIC
; #@! TA.AperFunction,Plated,PTH,ViaDrill
T1C0.300
; #@! TA.AperFunction,Plated,PTH,ViaDrill
T2C0.400
; #@! TA.AperFunction,Plated,PTH,ComponentDrill
T3C0.950
; #@! TA.AperFunction,Plated,PTH,ComponentDrill
T4C1.000
; #@! TA.AperFunction,Plated,PTH,ComponentDrill
T5C1.016
%
G90
G05
T1
X100.95Y-63.95
X101.1Y-67.0
X101.35Y-56.75
X101.45Y-54.15
X101.5Y-51.6
X102.25Y-47.9
X103.05Y-61.65
X105.55Y-71.35
X106.68Y-46.3
X106.8Y-64.65
X107.4Y-61.35
X108.65Y-54.2
X108.7Y-51.4
X108.7Y-56.85
X109.8Y-65.5
X111.25Y-63.15
X112.2Y-65.5
X114.75Y-63.9
T2
X97.7Y-70.0
X98.0Y-41.65
X102.6Y-41.9
X109.15Y-43.2
X110.45Y-69.5
T3
X111.95Y-46.1
X111.95Y-48.6
X111.95Y-51.1
X111.95Y-53.6
X111.95Y-56.1
X111.95Y-58.6
T4
X97.79Y-45.43
X97.79Y-47.97
X97.79Y-50.51
X97.79Y-53.05
X97.79Y-55.59
X97.79Y-58.13
X97.79Y-60.67
X97.79Y-63.21
X97.79Y-65.75
X97.79Y-68.29
T5
X104.14Y-64.77
X104.14Y-67.31
X108.61Y-68.0
X111.15Y-68.0
X113.69Y-68.0
M30
