%TF.GenerationSoftware,KiCad,Pcbnew,10.0.2*%
%TF.CreationDate,2026-06-04T14:06:07-04:00*%
%TF.ProjectId,Swapping hotend board,53776170-7069-46e6-9720-686f74656e64,rev?*%
%TF.SameCoordinates,Original*%
%TF.FileFunction,Legend,Top*%
%TF.FilePolarity,Positive*%
%FSLAX46Y46*%
G04 Gerber Fmt 4.6, Leading zero omitted, Abs format (unit mm)*
G04 Created by KiCad (PCBNEW 10.0.2) date 2026-06-04 14:06:07*
%MOMM*%
%LPD*%
G01*
G04 APERTURE LIST*
%ADD10C,0.300000*%
%ADD11C,0.150000*%
%ADD12C,0.120000*%
G04 APERTURE END LIST*
D10*
X80704510Y-87015114D02*
X80918796Y-87086542D01*
X80918796Y-87086542D02*
X80990225Y-87157971D01*
X80990225Y-87157971D02*
X81061653Y-87300828D01*
X81061653Y-87300828D02*
X81061653Y-87515114D01*
X81061653Y-87515114D02*
X80990225Y-87657971D01*
X80990225Y-87657971D02*
X80918796Y-87729400D01*
X80918796Y-87729400D02*
X80775939Y-87800828D01*
X80775939Y-87800828D02*
X80204510Y-87800828D01*
X80204510Y-87800828D02*
X80204510Y-86300828D01*
X80204510Y-86300828D02*
X80704510Y-86300828D01*
X80704510Y-86300828D02*
X80847368Y-86372257D01*
X80847368Y-86372257D02*
X80918796Y-86443685D01*
X80918796Y-86443685D02*
X80990225Y-86586542D01*
X80990225Y-86586542D02*
X80990225Y-86729400D01*
X80990225Y-86729400D02*
X80918796Y-86872257D01*
X80918796Y-86872257D02*
X80847368Y-86943685D01*
X80847368Y-86943685D02*
X80704510Y-87015114D01*
X80704510Y-87015114D02*
X80204510Y-87015114D01*
X81633082Y-86443685D02*
X81704510Y-86372257D01*
X81704510Y-86372257D02*
X81847368Y-86300828D01*
X81847368Y-86300828D02*
X82204510Y-86300828D01*
X82204510Y-86300828D02*
X82347368Y-86372257D01*
X82347368Y-86372257D02*
X82418796Y-86443685D01*
X82418796Y-86443685D02*
X82490225Y-86586542D01*
X82490225Y-86586542D02*
X82490225Y-86729400D01*
X82490225Y-86729400D02*
X82418796Y-86943685D01*
X82418796Y-86943685D02*
X81561653Y-87800828D01*
X81561653Y-87800828D02*
X82490225Y-87800828D01*
D11*
X77624819Y-110901904D02*
X78434342Y-110901904D01*
X78434342Y-110901904D02*
X78529580Y-110854285D01*
X78529580Y-110854285D02*
X78577200Y-110806666D01*
X78577200Y-110806666D02*
X78624819Y-110711428D01*
X78624819Y-110711428D02*
X78624819Y-110520952D01*
X78624819Y-110520952D02*
X78577200Y-110425714D01*
X78577200Y-110425714D02*
X78529580Y-110378095D01*
X78529580Y-110378095D02*
X78434342Y-110330476D01*
X78434342Y-110330476D02*
X77624819Y-110330476D01*
X77720057Y-109901904D02*
X77672438Y-109854285D01*
X77672438Y-109854285D02*
X77624819Y-109759047D01*
X77624819Y-109759047D02*
X77624819Y-109520952D01*
X77624819Y-109520952D02*
X77672438Y-109425714D01*
X77672438Y-109425714D02*
X77720057Y-109378095D01*
X77720057Y-109378095D02*
X77815295Y-109330476D01*
X77815295Y-109330476D02*
X77910533Y-109330476D01*
X77910533Y-109330476D02*
X78053390Y-109378095D01*
X78053390Y-109378095D02*
X78624819Y-109949523D01*
X78624819Y-109949523D02*
X78624819Y-109330476D01*
X96816666Y-116104819D02*
X96816666Y-116819104D01*
X96816666Y-116819104D02*
X96769047Y-116961961D01*
X96769047Y-116961961D02*
X96673809Y-117057200D01*
X96673809Y-117057200D02*
X96530952Y-117104819D01*
X96530952Y-117104819D02*
X96435714Y-117104819D01*
X97245238Y-116200057D02*
X97292857Y-116152438D01*
X97292857Y-116152438D02*
X97388095Y-116104819D01*
X97388095Y-116104819D02*
X97626190Y-116104819D01*
X97626190Y-116104819D02*
X97721428Y-116152438D01*
X97721428Y-116152438D02*
X97769047Y-116200057D01*
X97769047Y-116200057D02*
X97816666Y-116295295D01*
X97816666Y-116295295D02*
X97816666Y-116390533D01*
X97816666Y-116390533D02*
X97769047Y-116533390D01*
X97769047Y-116533390D02*
X97197619Y-117104819D01*
X97197619Y-117104819D02*
X97816666Y-117104819D01*
%TO.C,U2*%
D12*
X79170000Y-107490000D02*
X79170000Y-109140000D01*
X79170000Y-111140000D02*
X79170000Y-112790000D01*
X79170000Y-112790000D02*
X89450000Y-112790000D01*
X89450000Y-107490000D02*
X79170000Y-107490000D01*
X89450000Y-112790000D02*
X89450000Y-107490000D01*
X79170000Y-109140000D02*
G75*
G02*
X79170000Y-111140000I0J-1000000D01*
G01*
%TO.C,J2*%
X95770000Y-113000000D02*
X95770000Y-90030000D01*
X98530000Y-90030000D02*
X95770000Y-90030000D01*
X98530000Y-113000000D02*
X95770000Y-113000000D01*
X98530000Y-113000000D02*
X98530000Y-90030000D01*
X98530000Y-114270000D02*
X98530000Y-115650000D01*
X98530000Y-115650000D02*
X97150000Y-115650000D01*
%TD*%
M02*
