M48
; DRILL file KiCad 10.0.2 date 2026-06-04T14:06:05
; FORMAT={-:-/ absolute / metric / decimal}
; #@! TF.CreationDate,2026-06-04T14:06:05-04:00
; #@! TF.GenerationSoftware,Kicad,Pcbnew,10.0.2
; #@! TF.FileFunction,Plated,1,2,PTH
FMAT,2
METRIC
; #@! TA.AperFunction,Plated,PTH,ViaDrill
T1C0.300
; #@! TA.AperFunction,Plated,PTH,ViaDrill
T2C0.400
; #@! TA.AperFunction,Plated,PTH,ComponentDrill
T3C0.800
; #@! TA.AperFunction,Plated,PTH,ComponentDrill
T4C1.000
; #@! TA.AperFunction,Plated,PTH,ComponentDrill
T5C1.016
%
G90
G05
T1
X78.2Y-84.15
X80.05Y-91.55
X80.45Y-110.1
X80.6Y-120.35
X80.95Y-101.95
X81.65Y-97.0
X84.0Y-87.4
X84.3Y-110.1
X85.3Y-120.25
X87.35Y-87.75
X87.35Y-97.1
X87.8Y-110.2
X90.2Y-117.4
X90.8Y-118.85
X91.05Y-87.95
X91.6Y-104.05
X92.1Y-117.4
X94.55Y-113.55
X94.9Y-109.7
X96.95Y-84.1
X97.0Y-87.9
X97.5Y-120.35
X99.05Y-85.0
X103.25Y-112.15
X103.35Y-100.85
T2
X103.05Y-106.5
X103.2Y-93.75
T3
X80.5Y-106.33
X80.5Y-113.95
X83.04Y-106.33
X83.04Y-113.95
X85.58Y-106.33
X85.58Y-113.95
X88.12Y-106.33
X88.12Y-113.95
T4
X97.15Y-91.41
X97.15Y-93.95
X97.15Y-96.49
X97.15Y-99.03
X97.15Y-101.57
X97.15Y-104.11
X97.15Y-106.65
X97.15Y-109.19
X97.15Y-111.73
X97.15Y-114.27
T5
X80.98Y-84.25
X83.52Y-84.25
X86.06Y-84.25
X88.6Y-84.25
X89.36Y-121.05
X91.14Y-84.25
X91.9Y-121.05
X93.68Y-84.25
X94.44Y-121.05
M30
