%TF.GenerationSoftware,KiCad,Pcbnew,10.0.2*%
%TF.CreationDate,2026-06-04T14:06:07-04:00*%
%TF.ProjectId,Swapping hotend board,53776170-7069-46e6-9720-686f74656e64,rev?*%
%TF.SameCoordinates,Original*%
%TF.FileFunction,Copper,L1,Top*%
%TF.FilePolarity,Positive*%
%FSLAX46Y46*%
G04 Gerber Fmt 4.6, Leading zero omitted, Abs format (unit mm)*
G04 Created by KiCad (PCBNEW 10.0.2) date 2026-06-04 14:06:07*
%MOMM*%
%LPD*%
G01*
G04 APERTURE LIST*
G04 Aperture macros list*
%AMRoundRect*
0 Rectangle with rounded corners*
0 $1 Rounding radius*
0 $2 $3 $4 $5 $6 $7 $8 $9 X,Y pos of 4 corners*
0 Add a 4 corners polygon primitive as box body*
4,1,4,$2,$3,$4,$5,$6,$7,$8,$9,$2,$3,0*
0 Add four circle primitives for the rounded corners*
1,1,$1+$1,$2,$3*
1,1,$1+$1,$4,$5*
1,1,$1+$1,$6,$7*
1,1,$1+$1,$8,$9*
0 Add four rect primitives between the rounded corners*
20,1,$1+$1,$2,$3,$4,$5,0*
20,1,$1+$1,$4,$5,$6,$7,0*
20,1,$1+$1,$6,$7,$8,$9,0*
20,1,$1+$1,$8,$9,$2,$3,0*%
G04 Aperture macros list end*
%TA.AperFunction,ComponentPad*%
%ADD10O,1.727200X2.032000*%
%TD*%
%TA.AperFunction,ComponentPad*%
%ADD11C,1.879600*%
%TD*%
%TA.AperFunction,ComponentPad*%
%ADD12RoundRect,0.250000X0.550000X-0.550000X0.550000X0.550000X-0.550000X0.550000X-0.550000X-0.550000X0*%
%TD*%
%TA.AperFunction,ComponentPad*%
%ADD13C,1.600000*%
%TD*%
%TA.AperFunction,ComponentPad*%
%ADD14R,1.700000X1.700000*%
%TD*%
%TA.AperFunction,ComponentPad*%
%ADD15C,1.700000*%
%TD*%
%TA.AperFunction,ViaPad*%
%ADD16C,0.600000*%
%TD*%
%TA.AperFunction,ViaPad*%
%ADD17C,0.838200*%
%TD*%
%TA.AperFunction,Conductor*%
%ADD18C,0.838200*%
%TD*%
%TA.AperFunction,Conductor*%
%ADD19C,0.508000*%
%TD*%
G04 APERTURE END LIST*
D10*
%TO.P,J3,1*%
%TO.N,/A1*%
X93680000Y-84250000D03*
%TO.P,J3,2*%
%TO.N,unconnected-(J3-Pad2)*%
X91140000Y-84250000D03*
%TO.P,J3,3*%
%TO.N,/B1*%
X88600000Y-84250000D03*
%TO.P,J3,4*%
%TO.N,/A2*%
X86060000Y-84250000D03*
%TO.P,J3,5*%
%TO.N,unconnected-(J3-Pad5)*%
X83520000Y-84250000D03*
%TO.P,J3,6*%
%TO.N,/B2*%
X80980000Y-84250000D03*
%TD*%
D11*
%TO.P,J18,1,1_1*%
%TO.N,GND*%
X94440000Y-121050000D03*
%TO.P,J18,2,2_2*%
%TO.N,Net-(J18-Pad2)*%
X91900000Y-121050000D03*
%TO.P,J18,3,3_3*%
%TO.N,Net-(U2-SW1-P1-input)*%
X89360000Y-121050000D03*
%TD*%
D12*
%TO.P,U2,1,SW1-P1_1*%
%TO.N,Net-(U2-SW1-P1)*%
X80500000Y-113950000D03*
D13*
%TO.P,U2,2,SW1-P2_2*%
X83040000Y-113950000D03*
%TO.P,U2,3,SW2-P1_3*%
%TO.N,Net-(U2-SW2-P1)*%
X85580000Y-113950000D03*
%TO.P,U2,4,SW2-P4_4*%
X88120000Y-113950000D03*
%TO.P,U2,5,SW1-P1-input_5*%
%TO.N,Net-(U2-SW1-P1-input)*%
X88120000Y-106330000D03*
%TO.P,U2,6,SW1-P2-input_6*%
X85580000Y-106330000D03*
%TO.P,U2,7,SW2-P1-input_7*%
X83040000Y-106330000D03*
%TO.P,U2,8,SW2-P2-input_8*%
X80500000Y-106330000D03*
%TD*%
D14*
%TO.P,J2,1*%
%TO.N,Net-(U2-SW1-P1)*%
X97150000Y-114270000D03*
D15*
%TO.P,J2,2*%
%TO.N,Net-(U2-SW2-P1)*%
X97150000Y-111730000D03*
%TO.P,J2,3*%
%TO.N,GND*%
X97150000Y-109190000D03*
%TO.P,J2,4*%
%TO.N,Net-(J18-Pad2)*%
X97150000Y-106650000D03*
%TO.P,J2,5*%
%TO.N,/B2*%
X97150000Y-104110000D03*
%TO.P,J2,6*%
%TO.N,/A2*%
X97150000Y-101570000D03*
%TO.P,J2,7*%
%TO.N,/B1*%
X97150000Y-99030000D03*
%TO.P,J2,8*%
%TO.N,/A1*%
X97150000Y-96490000D03*
%TO.P,J2,9*%
%TO.N,GND*%
X97150000Y-93950000D03*
%TO.P,J2,10*%
%TO.N,Net-(U2-SW1-P1-input)*%
X97150000Y-91410000D03*
%TD*%
D16*
%TO.N,GND*%
X87350000Y-87750000D03*
X90800000Y-118850000D03*
%TO.N,Net-(U2-SW1-P1-input)*%
X90200000Y-117400000D03*
%TO.N,GND*%
X80600000Y-120350000D03*
X80950000Y-101950000D03*
X80050000Y-91550000D03*
X84300000Y-110100000D03*
X97000000Y-87900000D03*
D17*
X103200000Y-93750000D03*
D16*
X80450000Y-110100000D03*
X81650000Y-97000000D03*
X103250000Y-112150000D03*
X85300000Y-120250000D03*
X94900000Y-109700000D03*
X96950000Y-84100000D03*
X87800000Y-110200000D03*
X87350000Y-97100000D03*
X94550000Y-113550000D03*
X84000000Y-87400000D03*
X97500000Y-120350000D03*
X78200000Y-84150000D03*
X99050000Y-85000000D03*
X91050000Y-87950000D03*
X91600000Y-104050000D03*
D17*
X103050000Y-106500000D03*
D16*
X103350000Y-100850000D03*
%TO.N,Net-(J18-Pad2)*%
X92100000Y-117400000D03*
%TD*%
%TO.N,Net-(U2-SW1-P1-input)*%
D18*
X85580000Y-106330000D02*
X88120000Y-106330000D01*
X83040000Y-106330000D02*
X85580000Y-106330000D01*
X80500000Y-106330000D02*
X83040000Y-106330000D01*
%TO.N,Net-(J18-Pad2)*%
D19*
X92100000Y-117400000D02*
X92100000Y-120850000D01*
X92100000Y-120850000D02*
X91900000Y-121050000D01*
%TO.N,Net-(U2-SW1-P1-input)*%
X89300000Y-118300000D02*
X89300000Y-120700000D01*
X90200000Y-117400000D02*
X89300000Y-118300000D01*
%TO.N,/B2*%
D18*
X81150000Y-88110000D02*
X97150000Y-104110000D01*
X81150000Y-84650000D02*
X81150000Y-88110000D01*
%TO.N,/A2*%
X86150000Y-90570000D02*
X97150000Y-101570000D01*
X86150000Y-84650000D02*
X86150000Y-90570000D01*
%TO.N,/B1*%
X88650000Y-90530000D02*
X97150000Y-99030000D01*
X88650000Y-84650000D02*
X88650000Y-90530000D01*
%TO.N,/A1*%
X93650000Y-92990000D02*
X97150000Y-96490000D01*
X93650000Y-84650000D02*
X93650000Y-92990000D01*
%TO.N,Net-(U2-SW2-P1)*%
X90320000Y-111730000D02*
X97150000Y-111730000D01*
%TO.N,Net-(U2-SW1-P1)*%
X95300000Y-115950000D02*
X97150000Y-114100000D01*
X85050000Y-115950000D02*
X95300000Y-115950000D01*
X83050000Y-113950000D02*
X85050000Y-115950000D01*
X83040000Y-113950000D02*
X83050000Y-113950000D01*
X97150000Y-114100000D02*
X97150000Y-114270000D01*
X83040000Y-113950000D02*
X80500000Y-113950000D01*
%TO.N,Net-(U2-SW2-P1)*%
X88120000Y-113950000D02*
X88120000Y-113930000D01*
X88120000Y-113930000D02*
X90320000Y-111730000D01*
X85580000Y-113950000D02*
X88120000Y-113950000D01*
%TD*%
%TA.AperFunction,Conductor*%
%TO.N,GND*%
G36*
X80065649Y-82870185D02*
G01*
X80111404Y-82922989D01*
X80121348Y-82992147D01*
X80092323Y-83055703D01*
X80086291Y-83062181D01*
X79939525Y-83208946D01*
X79939525Y-83208947D01*
X79939523Y-83208949D01*
X79885322Y-83283549D01*
X79813317Y-83382655D01*
X79715838Y-83573966D01*
X79715837Y-83573969D01*
X79649489Y-83778171D01*
X79615900Y-83990243D01*
X79615900Y-84509756D01*
X79649489Y-84721828D01*
X79715837Y-84926030D01*
X79715838Y-84926033D01*
X79793612Y-85078671D01*
X79813317Y-85117344D01*
X79939523Y-85291051D01*
X79939525Y-85291053D01*
X80091352Y-85442880D01*
X80179284Y-85506765D01*
X80221951Y-85562095D01*
X80230400Y-85607084D01*
X80230400Y-88200577D01*
X80265737Y-88378230D01*
X80265739Y-88378238D01*
X80306346Y-88476272D01*
X80306346Y-88476273D01*
X80335057Y-88545589D01*
X80335058Y-88545591D01*
X80435699Y-88696210D01*
X80435702Y-88696214D01*
X95763181Y-104023692D01*
X95796666Y-104085015D01*
X95799500Y-104111373D01*
X95799500Y-104216286D01*
X95832753Y-104426239D01*
X95898444Y-104628414D01*
X95994951Y-104817820D01*
X96119890Y-104989786D01*
X96270213Y-105140109D01*
X96442182Y-105265050D01*
X96450946Y-105269516D01*
X96501742Y-105317491D01*
X96518536Y-105385312D01*
X96495998Y-105451447D01*
X96450946Y-105490484D01*
X96442182Y-105494949D01*
X96270213Y-105619890D01*
X96119890Y-105770213D01*
X95994951Y-105942179D01*
X95898444Y-106131585D01*
X95832753Y-106333760D01*
X95799500Y-106543713D01*
X95799500Y-106756286D01*
X95832753Y-106966239D01*
X95898444Y-107168414D01*
X95994951Y-107357820D01*
X96119890Y-107529786D01*
X96270213Y-107680109D01*
X96442179Y-107805048D01*
X96442181Y-107805049D01*
X96442184Y-107805051D01*
X96451493Y-107809794D01*
X96502290Y-107857766D01*
X96519087Y-107925587D01*
X96496552Y-107991722D01*
X96451505Y-108030760D01*
X96442446Y-108035376D01*
X96442440Y-108035380D01*
X96388282Y-108074727D01*
X96388282Y-108074728D01*
X97020591Y-108707037D01*
X96957007Y-108724075D01*
X96842993Y-108789901D01*
X96749901Y-108882993D01*
X96684075Y-108997007D01*
X96667037Y-109060591D01*
X96034728Y-108428282D01*
X96034727Y-108428282D01*
X95995380Y-108482439D01*
X95898904Y-108671782D01*
X95833242Y-108873869D01*
X95833242Y-108873872D01*
X95800000Y-109083753D01*
X95800000Y-109296246D01*
X95833242Y-109506127D01*
X95833242Y-109506130D01*
X95898904Y-109708217D01*
X95995375Y-109897550D01*
X96034728Y-109951716D01*
X96667037Y-109319408D01*
X96684075Y-109382993D01*
X96749901Y-109497007D01*
X96842993Y-109590099D01*
X96957007Y-109655925D01*
X97020590Y-109672962D01*
X96388282Y-110305269D01*
X96388282Y-110305270D01*
X96442452Y-110344626D01*
X96442451Y-110344626D01*
X96451495Y-110349234D01*
X96502292Y-110397208D01*
X96519087Y-110465029D01*
X96496550Y-110531164D01*
X96451499Y-110570202D01*
X96442182Y-110574949D01*
X96270213Y-110699890D01*
X96270209Y-110699894D01*
X96196023Y-110774081D01*
X96134700Y-110807566D01*
X96108342Y-110810400D01*
X90229422Y-110810400D01*
X90051770Y-110845737D01*
X90051758Y-110845740D01*
X89953726Y-110886345D01*
X89953727Y-110886346D01*
X89884407Y-110915059D01*
X89884403Y-110915061D01*
X89827833Y-110952861D01*
X89733790Y-111015698D01*
X89669745Y-111079743D01*
X89605700Y-111143789D01*
X88136308Y-112613181D01*
X88074985Y-112646666D01*
X88048627Y-112649500D01*
X88017648Y-112649500D01*
X87999124Y-112652434D01*
X87815465Y-112681522D01*
X87620776Y-112744781D01*
X87438386Y-112837715D01*
X87272786Y-112958028D01*
X87272782Y-112958032D01*
X87236734Y-112994081D01*
X87175411Y-113027566D01*
X87149053Y-113030400D01*
X86550947Y-113030400D01*
X86483908Y-113010715D01*
X86463266Y-112994081D01*
X86427213Y-112958028D01*
X86261613Y-112837715D01*
X86261612Y-112837714D01*
X86261610Y-112837713D01*
X86201898Y-112807288D01*
X86079223Y-112744781D01*
X85884534Y-112681522D01*
X85700876Y-112652434D01*
X85682352Y-112649500D01*
X85477648Y-112649500D01*
X85459124Y-112652434D01*
X85275465Y-112681522D01*
X85080776Y-112744781D01*
X84898386Y-112837715D01*
X84732786Y-112958028D01*
X84588028Y-113102786D01*
X84467715Y-113268386D01*
X84420485Y-113361080D01*
X84372510Y-113411876D01*
X84304689Y-113428671D01*
X84238554Y-113406134D01*
X84199515Y-113361080D01*
X84193861Y-113349983D01*
X84152287Y-113268390D01*
X84136894Y-113247203D01*
X84031971Y-113102786D01*
X83887213Y-112958028D01*
X83721613Y-112837715D01*
X83721612Y-112837714D01*
X83721610Y-112837713D01*
X83661898Y-112807288D01*
X83539223Y-112744781D01*
X83344534Y-112681522D01*
X83160876Y-112652434D01*
X83142352Y-112649500D01*
X82937648Y-112649500D01*
X82919124Y-112652434D01*
X82735465Y-112681522D01*
X82540776Y-112744781D01*
X82358386Y-112837715D01*
X82192786Y-112958028D01*
X82192782Y-112958032D01*
X82156734Y-112994081D01*
X82095411Y-113027566D01*
X82069053Y-113030400D01*
X81773017Y-113030400D01*
X81705978Y-113010715D01*
X81667478Y-112971497D01*
X81659173Y-112958032D01*
X81642712Y-112931344D01*
X81518656Y-112807288D01*
X81382531Y-112723326D01*
X81369336Y-112715187D01*
X81369331Y-112715185D01*
X81367862Y-112714698D01*
X81202797Y-112660001D01*
X81202795Y-112660000D01*
X81100010Y-112649500D01*
X79899998Y-112649500D01*
X79899981Y-112649501D01*
X79797203Y-112660000D01*
X79797200Y-112660001D01*
X79630668Y-112715185D01*
X79630663Y-112715187D01*
X79481342Y-112807289D01*
X79357289Y-112931342D01*
X79265187Y-113080663D01*
X79265186Y-113080666D01*
X79210001Y-113247203D01*
X79210001Y-113247204D01*
X79210000Y-113247204D01*
X79199500Y-113349983D01*
X79199500Y-114550001D01*
X79199501Y-114550018D01*
X79210000Y-114652796D01*
X79210001Y-114652799D01*
X79257856Y-114797213D01*
X79265186Y-114819334D01*
X79357288Y-114968656D01*
X79481344Y-115092712D01*
X79630666Y-115184814D01*
X79797203Y-115239999D01*
X79899991Y-115250500D01*
X81100008Y-115250499D01*
X81202797Y-115239999D01*
X81369334Y-115184814D01*
X81518656Y-115092712D01*
X81642712Y-114968656D01*
X81667479Y-114928502D01*
X81719426Y-114881779D01*
X81773017Y-114869600D01*
X82069053Y-114869600D01*
X82136092Y-114889285D01*
X82156734Y-114905919D01*
X82192786Y-114941971D01*
X82310600Y-115027566D01*
X82358390Y-115062287D01*
X82474607Y-115121503D01*
X82540776Y-115155218D01*
X82540778Y-115155218D01*
X82540781Y-115155220D01*
X82579754Y-115167883D01*
X82735465Y-115218477D01*
X82836557Y-115234488D01*
X82937648Y-115250500D01*
X82998627Y-115250500D01*
X83065666Y-115270185D01*
X83086308Y-115286819D01*
X84463785Y-116664297D01*
X84463789Y-116664300D01*
X84614401Y-116764937D01*
X84614402Y-116764937D01*
X84614406Y-116764940D01*
X84698084Y-116799600D01*
X84781762Y-116834261D01*
X84959422Y-116869599D01*
X84959426Y-116869600D01*
X84959427Y-116869600D01*
X85140573Y-116869600D01*
X89364012Y-116869600D01*
X89431051Y-116889285D01*
X89476806Y-116942089D01*
X89486750Y-117011247D01*
X89457725Y-117074803D01*
X89451693Y-117081281D01*
X88713943Y-117819030D01*
X88713942Y-117819031D01*
X88631372Y-117942607D01*
X88631366Y-117942618D01*
X88574496Y-118079916D01*
X88574493Y-118079926D01*
X88545499Y-118225685D01*
X88545499Y-118380425D01*
X88545500Y-118380446D01*
X88545500Y-119798278D01*
X88525815Y-119865317D01*
X88494387Y-119898594D01*
X88421707Y-119951400D01*
X88421705Y-119951402D01*
X88421704Y-119951402D01*
X88261398Y-120111708D01*
X88261394Y-120111713D01*
X88128147Y-120295114D01*
X88025220Y-120497116D01*
X88025219Y-120497119D01*
X87955165Y-120712727D01*
X87919700Y-120936646D01*
X87919700Y-121163353D01*
X87955165Y-121387272D01*
X88025219Y-121602880D01*
X88025220Y-121602883D01*
X88090000Y-121730018D01*
X88128013Y-121804623D01*
X88128147Y-121804885D01*
X88261394Y-121988286D01*
X88261398Y-121988291D01*
X88421708Y-122148601D01*
X88421713Y-122148605D01*
X88509116Y-122212106D01*
X88605118Y-122281855D01*
X88737166Y-122349137D01*
X88807116Y-122384779D01*
X88807119Y-122384780D01*
X88914923Y-122419807D01*
X89022729Y-122454835D01*
X89246646Y-122490300D01*
X89246647Y-122490300D01*
X89473353Y-122490300D01*
X89473354Y-122490300D01*
X89697271Y-122454835D01*
X89912883Y-122384779D01*
X90114882Y-122281855D01*
X90298293Y-122148600D01*
X90458600Y-121988293D01*
X90529682Y-121890456D01*
X90585011Y-121847791D01*
X90654624Y-121841812D01*
X90716420Y-121874417D01*
X90730315Y-121890453D01*
X90801158Y-121987960D01*
X90801400Y-121988293D01*
X90961708Y-122148601D01*
X90961713Y-122148605D01*
X91049116Y-122212106D01*
X91145118Y-122281855D01*
X91277166Y-122349137D01*
X91347116Y-122384779D01*
X91347119Y-122384780D01*
X91454923Y-122419807D01*
X91562729Y-122454835D01*
X91786646Y-122490300D01*
X91786647Y-122490300D01*
X92013353Y-122490300D01*
X92013354Y-122490300D01*
X92237271Y-122454835D01*
X92452883Y-122384779D01*
X92654882Y-122281855D01*
X92838293Y-122148600D01*
X92998600Y-121988293D01*
X93069990Y-121890031D01*
X93125320Y-121847365D01*
X93194933Y-121841386D01*
X93256728Y-121873991D01*
X93270627Y-121890031D01*
X93341776Y-121987961D01*
X93502034Y-122148219D01*
X93502039Y-122148223D01*
X93685376Y-122281424D01*
X93887311Y-122384316D01*
X94102838Y-122454344D01*
X94190000Y-122468149D01*
X94190000Y-121492251D01*
X94243919Y-121523381D01*
X94373120Y-121558000D01*
X94506880Y-121558000D01*
X94636081Y-121523381D01*
X94690000Y-121492251D01*
X94690000Y-122468148D01*
X94777161Y-122454344D01*
X94992688Y-122384316D01*
X95194623Y-122281424D01*
X95377960Y-122148223D01*
X95377965Y-122148219D01*
X95538219Y-121987965D01*
X95538223Y-121987960D01*
X95671424Y-121804623D01*
X95774316Y-121602688D01*
X95844346Y-121387158D01*
X95844346Y-121387155D01*
X95858151Y-121300000D01*
X94882251Y-121300000D01*
X94913381Y-121246081D01*
X94948000Y-121116880D01*
X94948000Y-120983120D01*
X94913381Y-120853919D01*
X94882251Y-120800000D01*
X95858151Y-120800000D01*
X95844346Y-120712844D01*
X95844346Y-120712841D01*
X95774316Y-120497311D01*
X95671424Y-120295376D01*
X95538223Y-120112039D01*
X95538219Y-120112034D01*
X95377965Y-119951780D01*
X95377960Y-119951776D01*
X95194623Y-119818575D01*
X94992688Y-119715683D01*
X94777156Y-119645653D01*
X94690000Y-119631848D01*
X94690000Y-120607748D01*
X94636081Y-120576619D01*
X94506880Y-120542000D01*
X94373120Y-120542000D01*
X94243919Y-120576619D01*
X94190000Y-120607748D01*
X94190000Y-119631848D01*
X94102844Y-119645653D01*
X94102841Y-119645653D01*
X93887311Y-119715683D01*
X93685376Y-119818575D01*
X93502039Y-119951776D01*
X93502034Y-119951780D01*
X93341780Y-120112034D01*
X93341776Y-120112039D01*
X93270627Y-120209968D01*
X93215297Y-120252634D01*
X93145684Y-120258613D01*
X93083889Y-120226007D01*
X93069991Y-120209968D01*
X92998605Y-120111712D01*
X92890819Y-120003926D01*
X92857334Y-119942603D01*
X92854500Y-119916245D01*
X92854500Y-119034034D01*
X99628500Y-119034034D01*
X99628500Y-119377965D01*
X99662210Y-119720249D01*
X99729308Y-120057572D01*
X99829150Y-120386706D01*
X99960770Y-120704464D01*
X99960772Y-120704469D01*
X100122893Y-121007775D01*
X100122904Y-121007793D01*
X100313975Y-121293751D01*
X100313985Y-121293765D01*
X100532176Y-121559632D01*
X100775367Y-121802823D01*
X100775372Y-121802827D01*
X100775373Y-121802828D01*
X101041240Y-122021019D01*
X101327213Y-122212100D01*
X101327222Y-122212105D01*
X101327224Y-122212106D01*
X101630530Y-122374227D01*
X101630532Y-122374227D01*
X101630538Y-122374231D01*
X101948295Y-122505850D01*
X102277422Y-122605690D01*
X102614750Y-122672789D01*
X102957031Y-122706500D01*
X102957034Y-122706500D01*
X103300966Y-122706500D01*
X103300969Y-122706500D01*
X103643250Y-122672789D01*
X103980578Y-122605690D01*
X104309705Y-122505850D01*
X104627462Y-122374231D01*
X104930787Y-122212100D01*
X105216760Y-122021019D01*
X105482627Y-121802828D01*
X105725828Y-121559627D01*
X105944019Y-121293760D01*
X106135100Y-121007787D01*
X106297231Y-120704462D01*
X106428850Y-120386705D01*
X106528690Y-120057578D01*
X106595789Y-119720250D01*
X106629500Y-119377969D01*
X106629500Y-119034031D01*
X106595789Y-118691750D01*
X106528690Y-118354422D01*
X106428850Y-118025295D01*
X106297231Y-117707538D01*
X106257657Y-117633501D01*
X106135106Y-117404224D01*
X106135105Y-117404222D01*
X106135100Y-117404213D01*
X105944019Y-117118240D01*
X105725828Y-116852373D01*
X105725827Y-116852372D01*
X105725823Y-116852367D01*
X105482632Y-116609176D01*
X105216765Y-116390985D01*
X105216764Y-116390984D01*
X105216760Y-116390981D01*
X104930787Y-116199900D01*
X104930782Y-116199897D01*
X104930775Y-116199893D01*
X104627469Y-116037772D01*
X104627464Y-116037770D01*
X104309706Y-115906150D01*
X103980572Y-115806308D01*
X103643248Y-115739210D01*
X103643249Y-115739210D01*
X103385456Y-115713821D01*
X103300969Y-115705500D01*
X102957031Y-115705500D01*
X102878966Y-115713188D01*
X102614750Y-115739210D01*
X102277427Y-115806308D01*
X101948293Y-115906150D01*
X101630535Y-116037770D01*
X101630530Y-116037772D01*
X101327224Y-116199893D01*
X101327206Y-116199904D01*
X101041248Y-116390975D01*
X101041234Y-116390985D01*
X100775367Y-116609176D01*
X100532176Y-116852367D01*
X100313985Y-117118234D01*
X100313975Y-117118248D01*
X100122904Y-117404206D01*
X100122893Y-117404224D01*
X99960772Y-117707530D01*
X99960770Y-117707535D01*
X99829150Y-118025293D01*
X99729308Y-118354427D01*
X99662210Y-118691750D01*
X99628500Y-119034034D01*
X92854500Y-119034034D01*
X92854500Y-117694947D01*
X92863939Y-117647494D01*
X92869737Y-117633497D01*
X92900500Y-117478842D01*
X92900500Y-117321158D01*
X92900500Y-117321155D01*
X92900499Y-117321153D01*
X92869737Y-117166503D01*
X92817773Y-117041052D01*
X92810305Y-116971583D01*
X92841580Y-116909104D01*
X92901669Y-116873452D01*
X92932335Y-116869600D01*
X95390574Y-116869600D01*
X95390575Y-116869599D01*
X95568238Y-116834261D01*
X95666272Y-116793653D01*
X95735594Y-116764940D01*
X95886211Y-116664300D01*
X96893692Y-115656817D01*
X96955015Y-115623333D01*
X96981373Y-115620499D01*
X98047871Y-115620499D01*
X98047872Y-115620499D01*
X98107483Y-115614091D01*
X98242331Y-115563796D01*
X98357546Y-115477546D01*
X98443796Y-115362331D01*
X98494091Y-115227483D01*
X98500500Y-115167873D01*
X98500499Y-113372128D01*
X98494091Y-113312517D01*
X98477631Y-113268386D01*
X98443797Y-113177671D01*
X98443793Y-113177664D01*
X98357547Y-113062455D01*
X98357544Y-113062452D01*
X98242335Y-112976206D01*
X98242328Y-112976202D01*
X98110917Y-112927189D01*
X98054983Y-112885318D01*
X98030566Y-112819853D01*
X98045418Y-112751580D01*
X98066563Y-112723332D01*
X98180104Y-112609792D01*
X98305051Y-112437816D01*
X98401557Y-112248412D01*
X98467246Y-112046243D01*
X98500500Y-111836287D01*
X98500500Y-111623713D01*
X98467246Y-111413757D01*
X98401557Y-111211588D01*
X98305051Y-111022184D01*
X98305049Y-111022181D01*
X98305048Y-111022179D01*
X98180109Y-110850213D01*
X98029786Y-110699890D01*
X97857817Y-110574949D01*
X97848504Y-110570204D01*
X97797707Y-110522230D01*
X97780912Y-110454409D01*
X97803449Y-110388274D01*
X97848507Y-110349232D01*
X97857555Y-110344622D01*
X97911716Y-110305270D01*
X97911717Y-110305270D01*
X97279408Y-109672962D01*
X97342993Y-109655925D01*
X97457007Y-109590099D01*
X97550099Y-109497007D01*
X97615925Y-109382993D01*
X97632962Y-109319408D01*
X98265270Y-109951717D01*
X98265270Y-109951716D01*
X98304622Y-109897554D01*
X98401095Y-109708217D01*
X98466757Y-109506130D01*
X98466757Y-109506127D01*
X98500000Y-109296246D01*
X98500000Y-109083753D01*
X98466757Y-108873872D01*
X98466757Y-108873869D01*
X98401095Y-108671782D01*
X98304624Y-108482449D01*
X98265270Y-108428282D01*
X98265269Y-108428282D01*
X97632962Y-109060590D01*
X97615925Y-108997007D01*
X97550099Y-108882993D01*
X97457007Y-108789901D01*
X97342993Y-108724075D01*
X97279409Y-108707037D01*
X97911716Y-108074728D01*
X97857547Y-108035373D01*
X97857547Y-108035372D01*
X97848500Y-108030763D01*
X97797706Y-107982788D01*
X97780912Y-107914966D01*
X97803451Y-107848832D01*
X97848508Y-107809793D01*
X97857816Y-107805051D01*
X97937007Y-107747515D01*
X98029786Y-107680109D01*
X98029788Y-107680106D01*
X98029792Y-107680104D01*
X98180104Y-107529792D01*
X98180106Y-107529788D01*
X98180109Y-107529786D01*
X98305048Y-107357820D01*
X98305047Y-107357820D01*
X98305051Y-107357816D01*
X98401557Y-107168412D01*
X98467246Y-106966243D01*
X98500500Y-106756287D01*
X98500500Y-106543713D01*
X98467246Y-106333757D01*
X98401557Y-106131588D01*
X98305051Y-105942184D01*
X98305049Y-105942181D01*
X98305048Y-105942179D01*
X98180109Y-105770213D01*
X98029786Y-105619890D01*
X97857820Y-105494951D01*
X97857115Y-105494591D01*
X97849054Y-105490485D01*
X97798259Y-105442512D01*
X97781463Y-105374692D01*
X97803999Y-105308556D01*
X97849054Y-105269515D01*
X97857816Y-105265051D01*
X97922972Y-105217713D01*
X98029786Y-105140109D01*
X98029788Y-105140106D01*
X98029792Y-105140104D01*
X98180104Y-104989792D01*
X98180106Y-104989788D01*
X98180109Y-104989786D01*
X98305048Y-104817820D01*
X98305047Y-104817820D01*
X98305051Y-104817816D01*
X98401557Y-104628412D01*
X98467246Y-104426243D01*
X98500500Y-104216287D01*
X98500500Y-104003713D01*
X98467246Y-103793757D01*
X98401557Y-103591588D01*
X98305051Y-103402184D01*
X98305049Y-103402181D01*
X98305048Y-103402179D01*
X98180109Y-103230213D01*
X98029786Y-103079890D01*
X97857820Y-102954951D01*
X97857115Y-102954591D01*
X97849054Y-102950485D01*
X97798259Y-102902512D01*
X97781463Y-102834692D01*
X97803999Y-102768556D01*
X97849054Y-102729515D01*
X97857816Y-102725051D01*
X97879789Y-102709086D01*
X98029786Y-102600109D01*
X98029788Y-102600106D01*
X98029792Y-102600104D01*
X98180104Y-102449792D01*
X98180106Y-102449788D01*
X98180109Y-102449786D01*
X98305048Y-102277820D01*
X98305047Y-102277820D01*
X98305051Y-102277816D01*
X98401557Y-102088412D01*
X98467246Y-101886243D01*
X98500500Y-101676287D01*
X98500500Y-101463713D01*
X98467246Y-101253757D01*
X98401557Y-101051588D01*
X98305051Y-100862184D01*
X98305049Y-100862181D01*
X98305048Y-100862179D01*
X98180109Y-100690213D01*
X98029786Y-100539890D01*
X97857820Y-100414951D01*
X97857115Y-100414591D01*
X97849054Y-100410485D01*
X97798259Y-100362512D01*
X97781463Y-100294692D01*
X97803999Y-100228556D01*
X97849054Y-100189515D01*
X97857816Y-100185051D01*
X97879789Y-100169086D01*
X98029786Y-100060109D01*
X98029788Y-100060106D01*
X98029792Y-100060104D01*
X98180104Y-99909792D01*
X98180106Y-99909788D01*
X98180109Y-99909786D01*
X98305048Y-99737820D01*
X98305047Y-99737820D01*
X98305051Y-99737816D01*
X98401557Y-99548412D01*
X98467246Y-99346243D01*
X98500500Y-99136287D01*
X98500500Y-98923713D01*
X98467246Y-98713757D01*
X98401557Y-98511588D01*
X98305051Y-98322184D01*
X98305049Y-98322181D01*
X98305048Y-98322179D01*
X98180109Y-98150213D01*
X98029786Y-97999890D01*
X97857820Y-97874951D01*
X97857115Y-97874591D01*
X97849054Y-97870485D01*
X97798259Y-97822512D01*
X97781463Y-97754692D01*
X97803999Y-97688556D01*
X97849054Y-97649515D01*
X97857816Y-97645051D01*
X97879789Y-97629086D01*
X98029786Y-97520109D01*
X98029788Y-97520106D01*
X98029792Y-97520104D01*
X98180104Y-97369792D01*
X98180106Y-97369788D01*
X98180109Y-97369786D01*
X98305048Y-97197820D01*
X98305047Y-97197820D01*
X98305051Y-97197816D01*
X98401557Y-97008412D01*
X98467246Y-96806243D01*
X98500500Y-96596287D01*
X98500500Y-96383713D01*
X98467246Y-96173757D01*
X98401557Y-95971588D01*
X98305051Y-95782184D01*
X98305049Y-95782181D01*
X98305048Y-95782179D01*
X98180109Y-95610213D01*
X98029786Y-95459890D01*
X97857817Y-95334949D01*
X97848504Y-95330204D01*
X97797707Y-95282230D01*
X97780912Y-95214409D01*
X97803449Y-95148274D01*
X97848507Y-95109232D01*
X97857555Y-95104622D01*
X97911716Y-95065270D01*
X97911717Y-95065270D01*
X97279408Y-94432962D01*
X97342993Y-94415925D01*
X97457007Y-94350099D01*
X97550099Y-94257007D01*
X97615925Y-94142993D01*
X97632962Y-94079408D01*
X98265270Y-94711717D01*
X98265270Y-94711716D01*
X98304622Y-94657554D01*
X98401095Y-94468217D01*
X98466757Y-94266130D01*
X98466757Y-94266127D01*
X98500000Y-94056246D01*
X98500000Y-93843753D01*
X98466757Y-93633872D01*
X98466757Y-93633869D01*
X98401095Y-93431782D01*
X98304624Y-93242449D01*
X98265270Y-93188282D01*
X98265269Y-93188282D01*
X97632962Y-93820590D01*
X97615925Y-93757007D01*
X97550099Y-93642993D01*
X97457007Y-93549901D01*
X97342993Y-93484075D01*
X97279409Y-93467037D01*
X97911716Y-92834728D01*
X97857547Y-92795373D01*
X97857547Y-92795372D01*
X97848500Y-92790763D01*
X97797706Y-92742788D01*
X97780912Y-92674966D01*
X97803451Y-92608832D01*
X97848508Y-92569793D01*
X97857816Y-92565051D01*
X97937007Y-92507515D01*
X98029786Y-92440109D01*
X98029788Y-92440106D01*
X98029792Y-92440104D01*
X98180104Y-92289792D01*
X98180106Y-92289788D01*
X98180109Y-92289786D01*
X98305048Y-92117820D01*
X98305047Y-92117820D01*
X98305051Y-92117816D01*
X98401557Y-91928412D01*
X98467246Y-91726243D01*
X98500500Y-91516287D01*
X98500500Y-91303713D01*
X98467246Y-91093757D01*
X98401557Y-90891588D01*
X98305051Y-90702184D01*
X98305049Y-90702181D01*
X98305048Y-90702179D01*
X98180109Y-90530213D01*
X98029786Y-90379890D01*
X97857820Y-90254951D01*
X97668414Y-90158444D01*
X97668413Y-90158443D01*
X97668412Y-90158443D01*
X97466243Y-90092754D01*
X97466241Y-90092753D01*
X97466240Y-90092753D01*
X97304957Y-90067208D01*
X97256287Y-90059500D01*
X97043713Y-90059500D01*
X96995042Y-90067208D01*
X96833760Y-90092753D01*
X96631585Y-90158444D01*
X96442179Y-90254951D01*
X96270213Y-90379890D01*
X96119890Y-90530213D01*
X95994951Y-90702179D01*
X95898444Y-90891585D01*
X95832753Y-91093760D01*
X95799500Y-91303713D01*
X95799500Y-91516286D01*
X95832753Y-91726239D01*
X95898444Y-91928414D01*
X95994951Y-92117820D01*
X96119890Y-92289786D01*
X96270213Y-92440109D01*
X96442179Y-92565048D01*
X96442181Y-92565049D01*
X96442184Y-92565051D01*
X96451493Y-92569794D01*
X96502290Y-92617766D01*
X96519087Y-92685587D01*
X96496552Y-92751722D01*
X96451505Y-92790760D01*
X96442446Y-92795376D01*
X96442440Y-92795380D01*
X96388282Y-92834727D01*
X96388282Y-92834728D01*
X97020591Y-93467037D01*
X96957007Y-93484075D01*
X96842993Y-93549901D01*
X96749901Y-93642993D01*
X96684075Y-93757007D01*
X96667037Y-93820591D01*
X96034728Y-93188282D01*
X96034727Y-93188282D01*
X95995380Y-93242439D01*
X95898904Y-93431783D01*
X95837194Y-93621708D01*
X95797757Y-93679384D01*
X95733398Y-93706582D01*
X95664552Y-93694667D01*
X95631582Y-93671071D01*
X94605919Y-92645408D01*
X94572434Y-92584085D01*
X94569600Y-92557727D01*
X94569600Y-87178034D01*
X99628500Y-87178034D01*
X99628500Y-87521965D01*
X99662210Y-87864249D01*
X99729308Y-88201572D01*
X99829150Y-88530706D01*
X99960770Y-88848464D01*
X99960772Y-88848469D01*
X100122893Y-89151775D01*
X100122904Y-89151793D01*
X100313975Y-89437751D01*
X100313985Y-89437765D01*
X100532176Y-89703632D01*
X100775367Y-89946823D01*
X100775372Y-89946827D01*
X100775373Y-89946828D01*
X101041240Y-90165019D01*
X101327213Y-90356100D01*
X101327222Y-90356105D01*
X101327224Y-90356106D01*
X101630530Y-90518227D01*
X101630532Y-90518227D01*
X101630538Y-90518231D01*
X101948295Y-90649850D01*
X102277422Y-90749690D01*
X102614750Y-90816789D01*
X102957031Y-90850500D01*
X102957034Y-90850500D01*
X103300966Y-90850500D01*
X103300969Y-90850500D01*
X103643250Y-90816789D01*
X103980578Y-90749690D01*
X104309705Y-90649850D01*
X104627462Y-90518231D01*
X104930787Y-90356100D01*
X105216760Y-90165019D01*
X105482627Y-89946828D01*
X105725828Y-89703627D01*
X105944019Y-89437760D01*
X106135100Y-89151787D01*
X106297231Y-88848462D01*
X106428850Y-88530705D01*
X106528690Y-88201578D01*
X106595789Y-87864250D01*
X106629500Y-87521969D01*
X106629500Y-87178031D01*
X106595789Y-86835750D01*
X106528690Y-86498422D01*
X106428850Y-86169295D01*
X106297231Y-85851538D01*
X106233823Y-85732911D01*
X106135106Y-85548224D01*
X106135105Y-85548222D01*
X106135100Y-85548213D01*
X105944019Y-85262240D01*
X105725828Y-84996373D01*
X105725827Y-84996372D01*
X105725823Y-84996367D01*
X105482632Y-84753176D01*
X105216765Y-84534985D01*
X105216764Y-84534984D01*
X105216760Y-84534981D01*
X104930787Y-84343900D01*
X104930782Y-84343897D01*
X104930775Y-84343893D01*
X104627469Y-84181772D01*
X104627464Y-84181770D01*
X104309706Y-84050150D01*
X103980572Y-83950308D01*
X103643248Y-83883210D01*
X103643249Y-83883210D01*
X103385456Y-83857821D01*
X103300969Y-83849500D01*
X102957031Y-83849500D01*
X102878966Y-83857188D01*
X102614750Y-83883210D01*
X102277427Y-83950308D01*
X101948293Y-84050150D01*
X101630535Y-84181770D01*
X101630530Y-84181772D01*
X101327224Y-84343893D01*
X101327206Y-84343904D01*
X101041248Y-84534975D01*
X101041234Y-84534985D01*
X100775367Y-84753176D01*
X100532176Y-84996367D01*
X100313985Y-85262234D01*
X100313975Y-85262248D01*
X100122904Y-85548206D01*
X100122893Y-85548224D01*
X99960772Y-85851530D01*
X99960770Y-85851535D01*
X99829150Y-86169293D01*
X99729308Y-86498427D01*
X99662210Y-86835750D01*
X99628500Y-87178034D01*
X94569600Y-87178034D01*
X94569600Y-85493290D01*
X94589285Y-85426251D01*
X94605919Y-85405609D01*
X94659127Y-85352401D01*
X94720477Y-85291051D01*
X94846683Y-85117344D01*
X94944161Y-84926033D01*
X95010511Y-84721827D01*
X95044100Y-84509757D01*
X95044100Y-83990243D01*
X95010511Y-83778173D01*
X94944161Y-83573967D01*
X94944161Y-83573966D01*
X94860266Y-83409315D01*
X94846683Y-83382656D01*
X94720477Y-83208949D01*
X94573709Y-83062181D01*
X94540224Y-83000858D01*
X94545208Y-82931166D01*
X94587080Y-82875233D01*
X94652544Y-82850816D01*
X94661390Y-82850500D01*
X107504500Y-82850500D01*
X107571539Y-82870185D01*
X107617294Y-82922989D01*
X107628500Y-82974500D01*
X107628500Y-123581500D01*
X107608815Y-123648539D01*
X107556011Y-123694294D01*
X107504500Y-123705500D01*
X77224000Y-123705500D01*
X77156961Y-123685815D01*
X77111206Y-123633011D01*
X77100000Y-123581500D01*
X77100000Y-106227648D01*
X79199500Y-106227648D01*
X79199500Y-106432351D01*
X79231522Y-106634534D01*
X79294781Y-106829223D01*
X79387715Y-107011613D01*
X79508028Y-107177213D01*
X79652786Y-107321971D01*
X79807749Y-107434556D01*
X79818390Y-107442287D01*
X79934607Y-107501503D01*
X80000776Y-107535218D01*
X80000778Y-107535218D01*
X80000781Y-107535220D01*
X80105137Y-107569127D01*
X80195465Y-107598477D01*
X80296557Y-107614488D01*
X80397648Y-107630500D01*
X80397649Y-107630500D01*
X80602351Y-107630500D01*
X80602352Y-107630500D01*
X80804534Y-107598477D01*
X80999219Y-107535220D01*
X81181610Y-107442287D01*
X81297870Y-107357820D01*
X81347213Y-107321971D01*
X81347215Y-107321968D01*
X81347219Y-107321966D01*
X81383266Y-107285919D01*
X81444589Y-107252434D01*
X81470947Y-107249600D01*
X82069053Y-107249600D01*
X82136092Y-107269285D01*
X82156734Y-107285919D01*
X82192786Y-107321971D01*
X82347749Y-107434556D01*
X82358390Y-107442287D01*
X82474607Y-107501503D01*
X82540776Y-107535218D01*
X82540778Y-107535218D01*
X82540781Y-107535220D01*
X82645137Y-107569127D01*
X82735465Y-107598477D01*
X82836557Y-107614488D01*
X82937648Y-107630500D01*
X82937649Y-107630500D01*
X83142351Y-107630500D01*
X83142352Y-107630500D01*
X83344534Y-107598477D01*
X83539219Y-107535220D01*
X83721610Y-107442287D01*
X83837870Y-107357820D01*
X83887213Y-107321971D01*
X83887215Y-107321968D01*
X83887219Y-107321966D01*
X83923266Y-107285919D01*
X83984589Y-107252434D01*
X84010947Y-107249600D01*
X84609053Y-107249600D01*
X84676092Y-107269285D01*
X84696734Y-107285919D01*
X84732786Y-107321971D01*
X84887749Y-107434556D01*
X84898390Y-107442287D01*
X85014607Y-107501503D01*
X85080776Y-107535218D01*
X85080778Y-107535218D01*
X85080781Y-107535220D01*
X85185137Y-107569127D01*
X85275465Y-107598477D01*
X85376557Y-107614488D01*
X85477648Y-107630500D01*
X85477649Y-107630500D01*
X85682351Y-107630500D01*
X85682352Y-107630500D01*
X85884534Y-107598477D01*
X86079219Y-107535220D01*
X86261610Y-107442287D01*
X86377870Y-107357820D01*
X86427213Y-107321971D01*
X86427215Y-107321968D01*
X86427219Y-107321966D01*
X86463266Y-107285919D01*
X86524589Y-107252434D01*
X86550947Y-107249600D01*
X87149053Y-107249600D01*
X87216092Y-107269285D01*
X87236734Y-107285919D01*
X87272786Y-107321971D01*
X87427749Y-107434556D01*
X87438390Y-107442287D01*
X87554607Y-107501503D01*
X87620776Y-107535218D01*
X87620778Y-107535218D01*
X87620781Y-107535220D01*
X87725137Y-107569127D01*
X87815465Y-107598477D01*
X87916557Y-107614488D01*
X88017648Y-107630500D01*
X88017649Y-107630500D01*
X88222351Y-107630500D01*
X88222352Y-107630500D01*
X88424534Y-107598477D01*
X88619219Y-107535220D01*
X88801610Y-107442287D01*
X88917870Y-107357820D01*
X88967213Y-107321971D01*
X88967215Y-107321968D01*
X88967219Y-107321966D01*
X89111966Y-107177219D01*
X89111968Y-107177215D01*
X89111971Y-107177213D01*
X89164732Y-107104590D01*
X89232287Y-107011610D01*
X89325220Y-106829219D01*
X89388477Y-106634534D01*
X89420500Y-106432352D01*
X89420500Y-106227648D01*
X89388477Y-106025466D01*
X89325220Y-105830781D01*
X89325218Y-105830778D01*
X89325218Y-105830776D01*
X89291503Y-105764607D01*
X89232287Y-105648390D01*
X89211581Y-105619890D01*
X89111971Y-105482786D01*
X88967213Y-105338028D01*
X88801613Y-105217715D01*
X88801612Y-105217714D01*
X88801610Y-105217713D01*
X88744653Y-105188691D01*
X88619223Y-105124781D01*
X88424534Y-105061522D01*
X88249995Y-105033878D01*
X88222352Y-105029500D01*
X88017648Y-105029500D01*
X87993329Y-105033351D01*
X87815465Y-105061522D01*
X87620776Y-105124781D01*
X87438386Y-105217715D01*
X87272786Y-105338028D01*
X87272782Y-105338032D01*
X87236734Y-105374081D01*
X87175411Y-105407566D01*
X87149053Y-105410400D01*
X86550947Y-105410400D01*
X86483908Y-105390715D01*
X86463266Y-105374081D01*
X86427213Y-105338028D01*
X86261613Y-105217715D01*
X86261612Y-105217714D01*
X86261610Y-105217713D01*
X86204653Y-105188691D01*
X86079223Y-105124781D01*
X85884534Y-105061522D01*
X85709995Y-105033878D01*
X85682352Y-105029500D01*
X85477648Y-105029500D01*
X85453329Y-105033351D01*
X85275465Y-105061522D01*
X85080776Y-105124781D01*
X84898386Y-105217715D01*
X84732786Y-105338028D01*
X84732782Y-105338032D01*
X84696734Y-105374081D01*
X84635411Y-105407566D01*
X84609053Y-105410400D01*
X84010947Y-105410400D01*
X83943908Y-105390715D01*
X83923266Y-105374081D01*
X83887213Y-105338028D01*
X83721613Y-105217715D01*
X83721612Y-105217714D01*
X83721610Y-105217713D01*
X83664653Y-105188691D01*
X83539223Y-105124781D01*
X83344534Y-105061522D01*
X83169995Y-105033878D01*
X83142352Y-105029500D01*
X82937648Y-105029500D01*
X82913329Y-105033351D01*
X82735465Y-105061522D01*
X82540776Y-105124781D01*
X82358386Y-105217715D01*
X82192786Y-105338028D01*
X82192782Y-105338032D01*
X82156734Y-105374081D01*
X82095411Y-105407566D01*
X82069053Y-105410400D01*
X81470947Y-105410400D01*
X81403908Y-105390715D01*
X81383266Y-105374081D01*
X81347213Y-105338028D01*
X81181613Y-105217715D01*
X81181612Y-105217714D01*
X81181610Y-105217713D01*
X81124653Y-105188691D01*
X80999223Y-105124781D01*
X80804534Y-105061522D01*
X80629995Y-105033878D01*
X80602352Y-105029500D01*
X80397648Y-105029500D01*
X80373329Y-105033351D01*
X80195465Y-105061522D01*
X80000776Y-105124781D01*
X79818386Y-105217715D01*
X79652786Y-105338028D01*
X79508028Y-105482786D01*
X79387715Y-105648386D01*
X79294781Y-105830776D01*
X79231522Y-106025465D01*
X79199500Y-106227648D01*
X77100000Y-106227648D01*
X77100000Y-82974500D01*
X77119685Y-82907461D01*
X77172489Y-82861706D01*
X77224000Y-82850500D01*
X79998610Y-82850500D01*
X80065649Y-82870185D01*
G37*
%TD.AperFunction*%
%TA.AperFunction,Conductor*%
G36*
X91334704Y-116889285D02*
G01*
X91380459Y-116942089D01*
X91390403Y-117011247D01*
X91382226Y-117041053D01*
X91330263Y-117166502D01*
X91330261Y-117166510D01*
X91299500Y-117321153D01*
X91299500Y-117478846D01*
X91330261Y-117633489D01*
X91330263Y-117633497D01*
X91336061Y-117647494D01*
X91345500Y-117694947D01*
X91345500Y-119640056D01*
X91325815Y-119707095D01*
X91277796Y-119750540D01*
X91145116Y-119818145D01*
X90961713Y-119951394D01*
X90961708Y-119951398D01*
X90801398Y-120111708D01*
X90801394Y-120111713D01*
X90730318Y-120209542D01*
X90674988Y-120252208D01*
X90605375Y-120258187D01*
X90543580Y-120225582D01*
X90529682Y-120209542D01*
X90458605Y-120111713D01*
X90458601Y-120111708D01*
X90298291Y-119951398D01*
X90298286Y-119951394D01*
X90114878Y-119818141D01*
X90113693Y-119817415D01*
X90113338Y-119817022D01*
X90110941Y-119815281D01*
X90111307Y-119814777D01*
X90066826Y-119765595D01*
X90054500Y-119711698D01*
X90054500Y-118663886D01*
X90074185Y-118596847D01*
X90090819Y-118576205D01*
X90292712Y-118374312D01*
X90524954Y-118142069D01*
X90565178Y-118115193D01*
X90579179Y-118109394D01*
X90710289Y-118021789D01*
X90821789Y-117910289D01*
X90909394Y-117779179D01*
X90969737Y-117633497D01*
X91000500Y-117478842D01*
X91000500Y-117321158D01*
X91000500Y-117321155D01*
X91000499Y-117321153D01*
X90969737Y-117166503D01*
X90917773Y-117041052D01*
X90914266Y-117008424D01*
X90909597Y-116975953D01*
X90910550Y-116973865D01*
X90910305Y-116971583D01*
X90924993Y-116942239D01*
X90938622Y-116912397D01*
X90940552Y-116911156D01*
X90941580Y-116909104D01*
X90969795Y-116892363D01*
X90997400Y-116874623D01*
X91000429Y-116874187D01*
X91001669Y-116873452D01*
X91032335Y-116869600D01*
X91267665Y-116869600D01*
X91334704Y-116889285D01*
G37*
%TD.AperFunction*%
%TA.AperFunction,Conductor*%
G36*
X96175381Y-112669285D02*
G01*
X96196023Y-112685919D01*
X96233430Y-112723326D01*
X96266915Y-112784649D01*
X96261931Y-112854341D01*
X96220059Y-112910274D01*
X96189083Y-112927189D01*
X96057669Y-112976203D01*
X96057664Y-112976206D01*
X95942455Y-113062452D01*
X95942452Y-113062455D01*
X95856206Y-113177664D01*
X95856202Y-113177671D01*
X95805908Y-113312517D01*
X95799501Y-113372116D01*
X95799501Y-113372123D01*
X95799500Y-113372135D01*
X95799500Y-114098626D01*
X95779815Y-114165665D01*
X95763181Y-114186307D01*
X94955408Y-114994081D01*
X94894085Y-115027566D01*
X94867727Y-115030400D01*
X89178147Y-115030400D01*
X89111108Y-115010715D01*
X89065353Y-114957911D01*
X89055409Y-114888753D01*
X89084434Y-114825197D01*
X89090466Y-114818719D01*
X89111966Y-114797219D01*
X89111968Y-114797215D01*
X89111971Y-114797213D01*
X89216892Y-114652799D01*
X89232287Y-114631610D01*
X89325220Y-114449219D01*
X89388477Y-114254534D01*
X89420500Y-114052352D01*
X89420500Y-113981372D01*
X89440185Y-113914333D01*
X89456819Y-113893691D01*
X90664591Y-112685919D01*
X90725914Y-112652434D01*
X90752272Y-112649600D01*
X96108342Y-112649600D01*
X96175381Y-112669285D01*
G37*
%TD.AperFunction*%
%TA.AperFunction,Conductor*%
G36*
X92489042Y-85090525D02*
G01*
X92509478Y-85114109D01*
X92510453Y-85113402D01*
X92513316Y-85117343D01*
X92513317Y-85117344D01*
X92639523Y-85291051D01*
X92639525Y-85291053D01*
X92694081Y-85345609D01*
X92727566Y-85406932D01*
X92730400Y-85433290D01*
X92730400Y-93010527D01*
X92710715Y-93077566D01*
X92657911Y-93123321D01*
X92588753Y-93133265D01*
X92525197Y-93104240D01*
X92518719Y-93098208D01*
X89605919Y-90185408D01*
X89572434Y-90124085D01*
X89569600Y-90097727D01*
X89569600Y-85413290D01*
X89589285Y-85346251D01*
X89605919Y-85325609D01*
X89620022Y-85311506D01*
X89640477Y-85291051D01*
X89766683Y-85117344D01*
X89766683Y-85117343D01*
X89769547Y-85113402D01*
X89771478Y-85114805D01*
X89815927Y-85074478D01*
X89884840Y-85062958D01*
X89949042Y-85090525D01*
X89969478Y-85114109D01*
X89970453Y-85113402D01*
X89973316Y-85117343D01*
X89973317Y-85117344D01*
X90099523Y-85291051D01*
X90251349Y-85442877D01*
X90425056Y-85569083D01*
X90499637Y-85607084D01*
X90616366Y-85666561D01*
X90616369Y-85666562D01*
X90671476Y-85684467D01*
X90820573Y-85732911D01*
X91032643Y-85766500D01*
X91032644Y-85766500D01*
X91247356Y-85766500D01*
X91247357Y-85766500D01*
X91459427Y-85732911D01*
X91663633Y-85666561D01*
X91854944Y-85569083D01*
X92028651Y-85442877D01*
X92180477Y-85291051D01*
X92306683Y-85117344D01*
X92306683Y-85117343D01*
X92309547Y-85113402D01*
X92311478Y-85114805D01*
X92355927Y-85074478D01*
X92424840Y-85062958D01*
X92489042Y-85090525D01*
G37*
%TD.AperFunction*%
%TA.AperFunction,Conductor*%
G36*
X84869042Y-85090525D02*
G01*
X84889478Y-85114109D01*
X84890453Y-85113402D01*
X84893316Y-85117343D01*
X84893317Y-85117344D01*
X85019523Y-85291051D01*
X85171349Y-85442877D01*
X85179284Y-85448642D01*
X85221949Y-85503966D01*
X85230400Y-85548960D01*
X85230400Y-90590527D01*
X85210715Y-90657566D01*
X85157911Y-90703321D01*
X85088753Y-90713265D01*
X85025197Y-90684240D01*
X85018719Y-90678208D01*
X82105919Y-87765408D01*
X82072434Y-87704085D01*
X82069600Y-87677727D01*
X82069600Y-85263729D01*
X82075592Y-85243319D01*
X82076803Y-85222083D01*
X82088138Y-85200592D01*
X82089285Y-85196690D01*
X82093267Y-85190865D01*
X82093272Y-85190857D01*
X82146683Y-85117344D01*
X82146737Y-85117236D01*
X82149667Y-85113203D01*
X82173567Y-85094764D01*
X82195927Y-85074478D01*
X82200953Y-85073637D01*
X82204988Y-85070525D01*
X82235062Y-85067935D01*
X82264840Y-85062958D01*
X82269523Y-85064969D01*
X82274600Y-85064532D01*
X82301301Y-85078613D01*
X82329042Y-85090525D01*
X82333379Y-85095531D01*
X82336402Y-85097125D01*
X82339477Y-85102567D01*
X82349478Y-85114109D01*
X82350453Y-85113402D01*
X82353316Y-85117343D01*
X82353317Y-85117344D01*
X82479523Y-85291051D01*
X82631349Y-85442877D01*
X82805056Y-85569083D01*
X82879637Y-85607084D01*
X82996366Y-85666561D01*
X82996369Y-85666562D01*
X83051476Y-85684467D01*
X83200573Y-85732911D01*
X83412643Y-85766500D01*
X83412644Y-85766500D01*
X83627356Y-85766500D01*
X83627357Y-85766500D01*
X83839427Y-85732911D01*
X84043633Y-85666561D01*
X84234944Y-85569083D01*
X84408651Y-85442877D01*
X84560477Y-85291051D01*
X84686683Y-85117344D01*
X84686683Y-85117343D01*
X84689547Y-85113402D01*
X84691478Y-85114805D01*
X84735927Y-85074478D01*
X84804840Y-85062958D01*
X84869042Y-85090525D01*
G37*
%TD.AperFunction*%
%TA.AperFunction,Conductor*%
G36*
X87349662Y-85065028D02*
G01*
X87354890Y-85064591D01*
X87381434Y-85078671D01*
X87409042Y-85090525D01*
X87413515Y-85095687D01*
X87416614Y-85097331D01*
X87419701Y-85102827D01*
X87429478Y-85114109D01*
X87430453Y-85113402D01*
X87433316Y-85117343D01*
X87433317Y-85117344D01*
X87559523Y-85291051D01*
X87559525Y-85291053D01*
X87694081Y-85425609D01*
X87727566Y-85486932D01*
X87730400Y-85513290D01*
X87730400Y-90550527D01*
X87710715Y-90617566D01*
X87657911Y-90663321D01*
X87588753Y-90673265D01*
X87525197Y-90644240D01*
X87518719Y-90638208D01*
X87105919Y-90225408D01*
X87072434Y-90164085D01*
X87069600Y-90137727D01*
X87069600Y-85372948D01*
X87075633Y-85352401D01*
X87076902Y-85331024D01*
X87087037Y-85313562D01*
X87089285Y-85305909D01*
X87093441Y-85299844D01*
X87098188Y-85293339D01*
X87100477Y-85291051D01*
X87226683Y-85117344D01*
X87226774Y-85117164D01*
X87229841Y-85112963D01*
X87253676Y-85094666D01*
X87275927Y-85074478D01*
X87281102Y-85073612D01*
X87285264Y-85070418D01*
X87315202Y-85067912D01*
X87344840Y-85062958D01*
X87349662Y-85065028D01*
G37*
%TD.AperFunction*%
%TD*%
M02*
