%TF.GenerationSoftware,KiCad,Pcbnew,10.0.2*%
%TF.CreationDate,2026-06-04T14:06:07-04:00*%
%TF.ProjectId,Swapping hotend board,53776170-7069-46e6-9720-686f74656e64,rev?*%
%TF.SameCoordinates,Original*%
%TF.FileFunction,Legend,Bot*%
%TF.FilePolarity,Positive*%
%FSLAX46Y46*%
G04 Gerber Fmt 4.6, Leading zero omitted, Abs format (unit mm)*
G04 Created by KiCad (PCBNEW 10.0.2) date 2026-06-04 14:06:07*
%MOMM*%
%LPD*%
G01*
G04 APERTURE LIST*
%ADD10C,0.200000*%
%ADD11C,0.150000*%
G04 APERTURE END LIST*
D10*
X77283528Y-84028572D02*
X78354957Y-84028572D01*
X78354957Y-84028572D02*
X78569242Y-83957143D01*
X78569242Y-83957143D02*
X78712100Y-83814286D01*
X78712100Y-83814286D02*
X78783528Y-83600000D01*
X78783528Y-83600000D02*
X78783528Y-83457143D01*
X78712100Y-84671429D02*
X78783528Y-84885715D01*
X78783528Y-84885715D02*
X78783528Y-85242857D01*
X78783528Y-85242857D02*
X78712100Y-85385715D01*
X78712100Y-85385715D02*
X78640671Y-85457143D01*
X78640671Y-85457143D02*
X78497814Y-85528572D01*
X78497814Y-85528572D02*
X78354957Y-85528572D01*
X78354957Y-85528572D02*
X78212100Y-85457143D01*
X78212100Y-85457143D02*
X78140671Y-85385715D01*
X78140671Y-85385715D02*
X78069242Y-85242857D01*
X78069242Y-85242857D02*
X77997814Y-84957143D01*
X77997814Y-84957143D02*
X77926385Y-84814286D01*
X77926385Y-84814286D02*
X77854957Y-84742857D01*
X77854957Y-84742857D02*
X77712100Y-84671429D01*
X77712100Y-84671429D02*
X77569242Y-84671429D01*
X77569242Y-84671429D02*
X77426385Y-84742857D01*
X77426385Y-84742857D02*
X77354957Y-84814286D01*
X77354957Y-84814286D02*
X77283528Y-84957143D01*
X77283528Y-84957143D02*
X77283528Y-85314286D01*
X77283528Y-85314286D02*
X77354957Y-85528572D01*
X77283528Y-85957143D02*
X77283528Y-86814286D01*
X78783528Y-86385714D02*
X77283528Y-86385714D01*
X78926385Y-86957143D02*
X78926385Y-88100000D01*
X77283528Y-88742857D02*
X77283528Y-88885714D01*
X77283528Y-88885714D02*
X77354957Y-89028571D01*
X77354957Y-89028571D02*
X77426385Y-89100000D01*
X77426385Y-89100000D02*
X77569242Y-89171428D01*
X77569242Y-89171428D02*
X77854957Y-89242857D01*
X77854957Y-89242857D02*
X78212100Y-89242857D01*
X78212100Y-89242857D02*
X78497814Y-89171428D01*
X78497814Y-89171428D02*
X78640671Y-89100000D01*
X78640671Y-89100000D02*
X78712100Y-89028571D01*
X78712100Y-89028571D02*
X78783528Y-88885714D01*
X78783528Y-88885714D02*
X78783528Y-88742857D01*
X78783528Y-88742857D02*
X78712100Y-88600000D01*
X78712100Y-88600000D02*
X78640671Y-88528571D01*
X78640671Y-88528571D02*
X78497814Y-88457142D01*
X78497814Y-88457142D02*
X78212100Y-88385714D01*
X78212100Y-88385714D02*
X77854957Y-88385714D01*
X77854957Y-88385714D02*
X77569242Y-88457142D01*
X77569242Y-88457142D02*
X77426385Y-88528571D01*
X77426385Y-88528571D02*
X77354957Y-88600000D01*
X77354957Y-88600000D02*
X77283528Y-88742857D01*
X77283528Y-90528571D02*
X77283528Y-90242856D01*
X77283528Y-90242856D02*
X77354957Y-90099999D01*
X77354957Y-90099999D02*
X77426385Y-90028571D01*
X77426385Y-90028571D02*
X77640671Y-89885713D01*
X77640671Y-89885713D02*
X77926385Y-89814285D01*
X77926385Y-89814285D02*
X78497814Y-89814285D01*
X78497814Y-89814285D02*
X78640671Y-89885713D01*
X78640671Y-89885713D02*
X78712100Y-89957142D01*
X78712100Y-89957142D02*
X78783528Y-90099999D01*
X78783528Y-90099999D02*
X78783528Y-90385713D01*
X78783528Y-90385713D02*
X78712100Y-90528571D01*
X78712100Y-90528571D02*
X78640671Y-90599999D01*
X78640671Y-90599999D02*
X78497814Y-90671428D01*
X78497814Y-90671428D02*
X78140671Y-90671428D01*
X78140671Y-90671428D02*
X77997814Y-90599999D01*
X77997814Y-90599999D02*
X77926385Y-90528571D01*
X77926385Y-90528571D02*
X77854957Y-90385713D01*
X77854957Y-90385713D02*
X77854957Y-90099999D01*
X77854957Y-90099999D02*
X77926385Y-89957142D01*
X77926385Y-89957142D02*
X77997814Y-89885713D01*
X77997814Y-89885713D02*
X78140671Y-89814285D01*
X94663528Y-87078572D02*
X94663528Y-86221429D01*
X94663528Y-86650000D02*
X93163528Y-86650000D01*
X93163528Y-86650000D02*
X93377814Y-86507143D01*
X93377814Y-86507143D02*
X93520671Y-86364286D01*
X93520671Y-86364286D02*
X93592100Y-86221429D01*
%TO.C,J3*%
D11*
X94930000Y-82850000D02*
X79730000Y-82850000D01*
X79730000Y-82850000D02*
X79730000Y-85650000D01*
X79730000Y-85650000D02*
X94930000Y-85650000D01*
X94930000Y-82850000D02*
X94930000Y-85650000D01*
%TD*%
M02*
